%TF.GenerationSoftware,KiCad,Pcbnew,(6.0.6)*%
%TF.CreationDate,2022-09-07T20:29:46-05:00*%
%TF.ProjectId,rp2040-board,72703230-3430-42d6-926f-6172642e6b69,rev?*%
%TF.SameCoordinates,Original*%
%TF.FileFunction,Soldermask,Bot*%
%TF.FilePolarity,Negative*%
%FSLAX46Y46*%
G04 Gerber Fmt 4.6, Leading zero omitted, Abs format (unit mm)*
G04 Created by KiCad (PCBNEW (6.0.6)) date 2022-09-07 20:29:46*
%MOMM*%
%LPD*%
G01*
G04 APERTURE LIST*
G04 Aperture macros list*
%AMRoundRect*
0 Rectangle with rounded corners*
0 $1 Rounding radius*
0 $2 $3 $4 $5 $6 $7 $8 $9 X,Y pos of 4 corners*
0 Add a 4 corners polygon primitive as box body*
4,1,4,$2,$3,$4,$5,$6,$7,$8,$9,$2,$3,0*
0 Add four circle primitives for the rounded corners*
1,1,$1+$1,$2,$3*
1,1,$1+$1,$4,$5*
1,1,$1+$1,$6,$7*
1,1,$1+$1,$8,$9*
0 Add four rect primitives between the rounded corners*
20,1,$1+$1,$2,$3,$4,$5,0*
20,1,$1+$1,$4,$5,$6,$7,0*
20,1,$1+$1,$6,$7,$8,$9,0*
20,1,$1+$1,$8,$9,$2,$3,0*%
G04 Aperture macros list end*
%TA.AperFunction,Profile*%
%ADD10C,0.025400*%
%TD*%
%ADD11R,1.337000X1.337000*%
%ADD12C,1.337000*%
%ADD13R,1.600000X1.600000*%
%ADD14C,1.600000*%
%ADD15C,0.609600*%
%ADD16C,0.660400*%
%ADD17C,0.300000*%
%ADD18R,1.700000X1.700000*%
%ADD19O,1.700000X1.700000*%
%ADD20RoundRect,0.250000X-0.600000X-0.750000X0.600000X-0.750000X0.600000X0.750000X-0.600000X0.750000X0*%
%ADD21O,1.700000X2.000000*%
%ADD22C,1.778000*%
%ADD23C,3.500000*%
%ADD24R,2.600000X2.600000*%
%ADD25C,2.600000*%
%ADD26RoundRect,0.250000X0.600000X0.725000X-0.600000X0.725000X-0.600000X-0.725000X0.600000X-0.725000X0*%
%ADD27O,1.700000X1.950000*%
%ADD28RoundRect,0.250000X-0.600000X-0.725000X0.600000X-0.725000X0.600000X0.725000X-0.600000X0.725000X0*%
G04 APERTURE END LIST*
D10*
X97650000Y-63005200D02*
X97650000Y-138100000D01*
X202952600Y-63000000D02*
X97650000Y-63005200D01*
X202952600Y-138094800D02*
X202952600Y-63000000D01*
X97650000Y-138100000D02*
X202952600Y-138094800D01*
D11*
%TO.C,F2*%
X101200000Y-122200000D03*
D12*
X104900000Y-122200000D03*
X109200000Y-122200000D03*
X112900000Y-122200000D03*
%TD*%
D13*
%TO.C,C11*%
X122150000Y-110647349D03*
D14*
X122150000Y-114147349D03*
%TD*%
D15*
%TO.C,J2*%
X199685500Y-97900000D03*
X200472900Y-97900000D03*
X195353100Y-89260000D03*
X199685500Y-89260000D03*
X200472900Y-89260000D03*
X196445300Y-97900002D03*
X195353100Y-97900002D03*
X196445300Y-89260000D03*
D16*
X196399199Y-96469999D03*
X196399199Y-90690001D03*
%TD*%
D17*
%TO.C,U2*%
X112760000Y-113500000D03*
X114060000Y-113500000D03*
X112760000Y-114800000D03*
X114060000Y-114800000D03*
X112760000Y-116100000D03*
X114060000Y-116100000D03*
X112760000Y-117400000D03*
X114060000Y-117400000D03*
%TD*%
D18*
%TO.C,J4*%
X198875000Y-102500000D03*
D19*
X196335000Y-102500000D03*
%TD*%
D20*
%TO.C,J9*%
X175121560Y-133744960D03*
D21*
X177621560Y-133744960D03*
%TD*%
D20*
%TO.C,J7*%
X183522080Y-133744800D03*
D21*
X186022080Y-133744800D03*
%TD*%
D22*
%TO.C,J3*%
X180940000Y-108440000D03*
X178400000Y-108440000D03*
X175860000Y-108440000D03*
X173320000Y-108440000D03*
X170780000Y-108440000D03*
X168240000Y-108440000D03*
X165700000Y-108440000D03*
X163160000Y-108440000D03*
X180940000Y-105900000D03*
X178400000Y-105900000D03*
X175860000Y-105900000D03*
X173320000Y-105900000D03*
X170780000Y-105900000D03*
X168240000Y-105900000D03*
X165700000Y-105900000D03*
X163160000Y-105900000D03*
X180940000Y-103360000D03*
X178400000Y-103360000D03*
X165700000Y-103360000D03*
X163160000Y-103360000D03*
X180940000Y-100820000D03*
X178400000Y-100820000D03*
X165700000Y-100820000D03*
X163160000Y-100820000D03*
X180940000Y-98280000D03*
X178400000Y-98280000D03*
X165700000Y-98280000D03*
X163160000Y-98280000D03*
X180940000Y-95740000D03*
X178400000Y-95740000D03*
X165700000Y-95740000D03*
X163160000Y-95740000D03*
X180940000Y-93200000D03*
X178400000Y-93200000D03*
X175860000Y-93200000D03*
X173320000Y-93200000D03*
X170780000Y-93200000D03*
X168240000Y-93200000D03*
X165700000Y-93200000D03*
X163160000Y-93200000D03*
X180940000Y-90660000D03*
X178400000Y-90660000D03*
X175860000Y-90660000D03*
X173320000Y-90660000D03*
X170780000Y-90660000D03*
X168240000Y-90660000D03*
X165700000Y-90660000D03*
X163160000Y-90660000D03*
%TD*%
D23*
%TO.C,REF\u002A\u002A*%
X104702600Y-105994800D03*
%TD*%
D18*
%TO.C,JP2*%
X120875000Y-82950000D03*
D19*
X123415000Y-82950000D03*
%TD*%
D24*
%TO.C,J14*%
X117305000Y-131100000D03*
D25*
X122305000Y-131100000D03*
%TD*%
D20*
%TO.C,J13*%
X169202600Y-120004800D03*
D21*
X171702600Y-120004800D03*
%TD*%
D13*
%TO.C,C45*%
X196140021Y-77873413D03*
D14*
X198640021Y-77873413D03*
%TD*%
D26*
%TO.C,J17*%
X116375000Y-69020000D03*
D27*
X113875000Y-69020000D03*
X111375000Y-69020000D03*
X108875000Y-69020000D03*
%TD*%
D13*
%TO.C,C31*%
X121017621Y-77875000D03*
D14*
X123517621Y-77875000D03*
%TD*%
D28*
%TO.C,J10*%
X177612600Y-120004900D03*
D27*
X180112600Y-120004900D03*
X182612600Y-120004900D03*
%TD*%
D18*
%TO.C,JP4*%
X195850000Y-82948413D03*
D19*
X198390000Y-82948413D03*
%TD*%
D23*
%TO.C,REF\u002A\u002A*%
X184677600Y-70944800D03*
%TD*%
D24*
%TO.C,J1*%
X106095000Y-128500000D03*
D25*
X106095000Y-133500000D03*
%TD*%
D20*
%TO.C,J6*%
X158320520Y-133744880D03*
D21*
X160820520Y-133744880D03*
%TD*%
D20*
%TO.C,J16*%
X191922600Y-133744840D03*
D21*
X194422600Y-133744840D03*
%TD*%
D20*
%TO.C,J11*%
X149920000Y-133745000D03*
D21*
X152420000Y-133745000D03*
%TD*%
D18*
%TO.C,J23*%
X198875000Y-108300000D03*
D19*
X196335000Y-108300000D03*
%TD*%
D13*
%TO.C,C46*%
X170925000Y-77875000D03*
D14*
X173425000Y-77875000D03*
%TD*%
D26*
%TO.C,J20*%
X178775000Y-69020000D03*
D27*
X176275000Y-69020000D03*
X173775000Y-69020000D03*
X171275000Y-69020000D03*
%TD*%
D18*
%TO.C,JP6*%
X200575000Y-128600000D03*
D19*
X198035000Y-128600000D03*
%TD*%
D26*
%TO.C,J21*%
X164225000Y-69020000D03*
D27*
X161725000Y-69020000D03*
X159225000Y-69020000D03*
X156725000Y-69020000D03*
%TD*%
D23*
%TO.C,REF\u002A\u002A*%
X135977600Y-108594800D03*
%TD*%
%TO.C,REF\u002A\u002A*%
X200377600Y-135469800D03*
%TD*%
D20*
%TO.C,J8*%
X166721040Y-133744920D03*
D21*
X169221040Y-133744920D03*
%TD*%
D13*
%TO.C,C32*%
X146117621Y-77868413D03*
D14*
X148617621Y-77868413D03*
%TD*%
D18*
%TO.C,JP3*%
X145950000Y-82943413D03*
D19*
X148490000Y-82943413D03*
%TD*%
D24*
%TO.C,J15*%
X128805000Y-131100000D03*
D25*
X133805000Y-131100000D03*
%TD*%
D18*
%TO.C,JP5*%
X170775000Y-82950000D03*
D19*
X173315000Y-82950000D03*
%TD*%
D28*
%TO.C,J5*%
X188520000Y-118055000D03*
D27*
X191020000Y-118055000D03*
X193520000Y-118055000D03*
X196020000Y-118055000D03*
X198520000Y-118055000D03*
%TD*%
D18*
%TO.C,J22*%
X198875000Y-105400000D03*
D19*
X196335000Y-105400000D03*
%TD*%
D23*
%TO.C,REF\u002A\u002A*%
X122227600Y-70944800D03*
%TD*%
D26*
%TO.C,J19*%
X150025000Y-69020000D03*
D27*
X147525000Y-69020000D03*
X145025000Y-69020000D03*
X142525000Y-69020000D03*
%TD*%
D26*
%TO.C,J18*%
X135575000Y-69020000D03*
D27*
X133075000Y-69020000D03*
X130575000Y-69020000D03*
X128075000Y-69020000D03*
%TD*%
D18*
%TO.C,JP1*%
X187100000Y-102775000D03*
D19*
X187100000Y-105315000D03*
%TD*%
D20*
%TO.C,J12*%
X160800000Y-119975000D03*
D21*
X163300000Y-119975000D03*
%TD*%
M02*
