%TF.GenerationSoftware,KiCad,Pcbnew,(6.0.6)*%
%TF.CreationDate,2022-09-05T02:31:18-05:00*%
%TF.ProjectId,rp2040-board,72703230-3430-42d6-926f-6172642e6b69,rev?*%
%TF.SameCoordinates,Original*%
%TF.FileFunction,Legend,Top*%
%TF.FilePolarity,Positive*%
%FSLAX46Y46*%
G04 Gerber Fmt 4.6, Leading zero omitted, Abs format (unit mm)*
G04 Created by KiCad (PCBNEW (6.0.6)) date 2022-09-05 02:31:18*
%MOMM*%
%LPD*%
G01*
G04 APERTURE LIST*
%ADD10C,0.350000*%
%TA.AperFunction,Profile*%
%ADD11C,0.025400*%
%TD*%
%ADD12C,0.200000*%
%ADD13C,0.250000*%
%ADD14C,0.300000*%
%ADD15C,0.127000*%
%ADD16C,0.100000*%
%ADD17C,0.120000*%
%ADD18C,0.220000*%
G04 APERTURE END LIST*
D10*
X113600000Y-93957142D02*
X112933333Y-93957142D01*
X112933333Y-95004761D02*
X112933333Y-93004761D01*
X113885714Y-93004761D01*
X114647619Y-95004761D02*
X114647619Y-93671428D01*
X114647619Y-94052380D02*
X114742857Y-93861904D01*
X114838095Y-93766666D01*
X115028571Y-93671428D01*
X115219047Y-93671428D01*
X115885714Y-95004761D02*
X115885714Y-93671428D01*
X115885714Y-93004761D02*
X115790476Y-93100000D01*
X115885714Y-93195238D01*
X115980952Y-93100000D01*
X115885714Y-93004761D01*
X115885714Y-93195238D01*
X117600000Y-94909523D02*
X117409523Y-95004761D01*
X117028571Y-95004761D01*
X116838095Y-94909523D01*
X116742857Y-94719047D01*
X116742857Y-93957142D01*
X116838095Y-93766666D01*
X117028571Y-93671428D01*
X117409523Y-93671428D01*
X117600000Y-93766666D01*
X117695238Y-93957142D01*
X117695238Y-94147619D01*
X116742857Y-94338095D01*
X119409523Y-95004761D02*
X119409523Y-93004761D01*
X119409523Y-94909523D02*
X119219047Y-95004761D01*
X118838095Y-95004761D01*
X118647619Y-94909523D01*
X118552380Y-94814285D01*
X118457142Y-94623809D01*
X118457142Y-94052380D01*
X118552380Y-93861904D01*
X118647619Y-93766666D01*
X118838095Y-93671428D01*
X119219047Y-93671428D01*
X119409523Y-93766666D01*
X120266666Y-94909523D02*
X120552380Y-95004761D01*
X121028571Y-95004761D01*
X121219047Y-94909523D01*
X121314285Y-94814285D01*
X121409523Y-94623809D01*
X121409523Y-94433333D01*
X121314285Y-94242857D01*
X121219047Y-94147619D01*
X121028571Y-94052380D01*
X120647619Y-93957142D01*
X120457142Y-93861904D01*
X120361904Y-93766666D01*
X120266666Y-93576190D01*
X120266666Y-93385714D01*
X120361904Y-93195238D01*
X120457142Y-93100000D01*
X120647619Y-93004761D01*
X121123809Y-93004761D01*
X121409523Y-93100000D01*
X123123809Y-95004761D02*
X123123809Y-93957142D01*
X123028571Y-93766666D01*
X122838095Y-93671428D01*
X122457142Y-93671428D01*
X122266666Y-93766666D01*
X123123809Y-94909523D02*
X122933333Y-95004761D01*
X122457142Y-95004761D01*
X122266666Y-94909523D01*
X122171428Y-94719047D01*
X122171428Y-94528571D01*
X122266666Y-94338095D01*
X122457142Y-94242857D01*
X122933333Y-94242857D01*
X123123809Y-94147619D01*
X124361904Y-95004761D02*
X124171428Y-94909523D01*
X124076190Y-94719047D01*
X124076190Y-93004761D01*
X125123809Y-95004761D02*
X125123809Y-93671428D01*
X125123809Y-93861904D02*
X125219047Y-93766666D01*
X125409523Y-93671428D01*
X125695238Y-93671428D01*
X125885714Y-93766666D01*
X125980952Y-93957142D01*
X125980952Y-95004761D01*
X125980952Y-93957142D02*
X126076190Y-93766666D01*
X126266666Y-93671428D01*
X126552380Y-93671428D01*
X126742857Y-93766666D01*
X126838095Y-93957142D01*
X126838095Y-95004761D01*
X128076190Y-95004761D02*
X127885714Y-94909523D01*
X127790476Y-94814285D01*
X127695238Y-94623809D01*
X127695238Y-94052380D01*
X127790476Y-93861904D01*
X127885714Y-93766666D01*
X128076190Y-93671428D01*
X128361904Y-93671428D01*
X128552380Y-93766666D01*
X128647619Y-93861904D01*
X128742857Y-94052380D01*
X128742857Y-94623809D01*
X128647619Y-94814285D01*
X128552380Y-94909523D01*
X128361904Y-95004761D01*
X128076190Y-95004761D01*
X129600000Y-93671428D02*
X129600000Y-95004761D01*
X129600000Y-93861904D02*
X129695238Y-93766666D01*
X129885714Y-93671428D01*
X130171428Y-93671428D01*
X130361904Y-93766666D01*
X130457142Y-93957142D01*
X130457142Y-95004761D01*
X131314285Y-93195238D02*
X131409523Y-93100000D01*
X131600000Y-93004761D01*
X132076190Y-93004761D01*
X132266666Y-93100000D01*
X132361904Y-93195238D01*
X132457142Y-93385714D01*
X132457142Y-93576190D01*
X132361904Y-93861904D01*
X131219047Y-95004761D01*
X132457142Y-95004761D01*
X133695238Y-93004761D02*
X133885714Y-93004761D01*
X134076190Y-93100000D01*
X134171428Y-93195238D01*
X134266666Y-93385714D01*
X134361904Y-93766666D01*
X134361904Y-94242857D01*
X134266666Y-94623809D01*
X134171428Y-94814285D01*
X134076190Y-94909523D01*
X133885714Y-95004761D01*
X133695238Y-95004761D01*
X133504761Y-94909523D01*
X133409523Y-94814285D01*
X133314285Y-94623809D01*
X133219047Y-94242857D01*
X133219047Y-93766666D01*
X133314285Y-93385714D01*
X133409523Y-93195238D01*
X133504761Y-93100000D01*
X133695238Y-93004761D01*
X136076190Y-93671428D02*
X136076190Y-95004761D01*
X135600000Y-92909523D02*
X135123809Y-94338095D01*
X136361904Y-94338095D01*
X137504761Y-93004761D02*
X137695238Y-93004761D01*
X137885714Y-93100000D01*
X137980952Y-93195238D01*
X138076190Y-93385714D01*
X138171428Y-93766666D01*
X138171428Y-94242857D01*
X138076190Y-94623809D01*
X137980952Y-94814285D01*
X137885714Y-94909523D01*
X137695238Y-95004761D01*
X137504761Y-95004761D01*
X137314285Y-94909523D01*
X137219047Y-94814285D01*
X137123809Y-94623809D01*
X137028571Y-94242857D01*
X137028571Y-93766666D01*
X137123809Y-93385714D01*
X137219047Y-93195238D01*
X137314285Y-93100000D01*
X137504761Y-93004761D01*
X140552380Y-94242857D02*
X142076190Y-94242857D01*
X145695238Y-95004761D02*
X145028571Y-94052380D01*
X144552380Y-95004761D02*
X144552380Y-93004761D01*
X145314285Y-93004761D01*
X145504761Y-93100000D01*
X145599999Y-93195238D01*
X145695238Y-93385714D01*
X145695238Y-93671428D01*
X145599999Y-93861904D01*
X145504761Y-93957142D01*
X145314285Y-94052380D01*
X144552380Y-94052380D01*
X147314285Y-94909523D02*
X147123809Y-95004761D01*
X146742857Y-95004761D01*
X146552380Y-94909523D01*
X146457142Y-94719047D01*
X146457142Y-93957142D01*
X146552380Y-93766666D01*
X146742857Y-93671428D01*
X147123809Y-93671428D01*
X147314285Y-93766666D01*
X147409523Y-93957142D01*
X147409523Y-94147619D01*
X146457142Y-94338095D01*
X148076190Y-93671428D02*
X148552380Y-95004761D01*
X149028571Y-93671428D01*
X152361904Y-95004761D02*
X151219047Y-95004761D01*
X151790476Y-95004761D02*
X151790476Y-93004761D01*
X151599999Y-93290476D01*
X151409523Y-93480952D01*
X151219047Y-93576190D01*
D11*
X97650000Y-63005200D02*
X97650000Y-138100000D01*
X202952600Y-63000000D02*
X97650000Y-63005200D01*
X202952600Y-138094800D02*
X202952600Y-63000000D01*
X97650000Y-138100000D02*
X202952600Y-138094800D01*
D12*
X173538226Y-129197380D02*
X174204893Y-129197380D01*
X173538226Y-130197380D01*
X174204893Y-130197380D01*
X174585845Y-129816428D02*
X175347750Y-129816428D01*
X175776321Y-130149761D02*
X175919179Y-130197380D01*
X176157274Y-130197380D01*
X176252512Y-130149761D01*
X176300131Y-130102142D01*
X176347750Y-130006904D01*
X176347750Y-129911666D01*
X176300131Y-129816428D01*
X176252512Y-129768809D01*
X176157274Y-129721190D01*
X175966798Y-129673571D01*
X175871560Y-129625952D01*
X175823940Y-129578333D01*
X175776321Y-129483095D01*
X175776321Y-129387857D01*
X175823940Y-129292619D01*
X175871560Y-129245000D01*
X175966798Y-129197380D01*
X176204893Y-129197380D01*
X176347750Y-129245000D01*
X176633464Y-129197380D02*
X177204893Y-129197380D01*
X176919179Y-130197380D02*
X176919179Y-129197380D01*
X177728702Y-129197380D02*
X177919179Y-129197380D01*
X178014417Y-129245000D01*
X178109655Y-129340238D01*
X178157274Y-129530714D01*
X178157274Y-129864047D01*
X178109655Y-130054523D01*
X178014417Y-130149761D01*
X177919179Y-130197380D01*
X177728702Y-130197380D01*
X177633464Y-130149761D01*
X177538226Y-130054523D01*
X177490607Y-129864047D01*
X177490607Y-129530714D01*
X177538226Y-129340238D01*
X177633464Y-129245000D01*
X177728702Y-129197380D01*
X178585845Y-130197380D02*
X178585845Y-129197380D01*
X178966798Y-129197380D01*
X179062036Y-129245000D01*
X179109655Y-129292619D01*
X179157274Y-129387857D01*
X179157274Y-129530714D01*
X179109655Y-129625952D01*
X179062036Y-129673571D01*
X178966798Y-129721190D01*
X178585845Y-129721190D01*
D13*
X128638333Y-136871428D02*
X129400238Y-136871428D01*
X129019285Y-137252380D02*
X129019285Y-136490476D01*
X133924047Y-136871428D02*
X134685952Y-136871428D01*
X169166885Y-115978571D02*
X168833552Y-115978571D01*
X168833552Y-116502380D02*
X168833552Y-115502380D01*
X169309742Y-115502380D01*
X169643076Y-116216666D02*
X170119266Y-116216666D01*
X169547838Y-116502380D02*
X169881171Y-115502380D01*
X170214504Y-116502380D01*
X170547838Y-116502380D02*
X170547838Y-115502380D01*
X171119266Y-116502380D01*
X171119266Y-115502380D01*
X171500219Y-115502380D02*
X172119266Y-115502380D01*
X171785933Y-115883333D01*
X171928790Y-115883333D01*
X172024028Y-115930952D01*
X172071647Y-115978571D01*
X172119266Y-116073809D01*
X172119266Y-116311904D01*
X172071647Y-116407142D01*
X172024028Y-116454761D01*
X171928790Y-116502380D01*
X171643076Y-116502380D01*
X171547838Y-116454761D01*
X171500219Y-116407142D01*
D14*
X113428571Y-127500000D02*
X113500000Y-127571428D01*
X113571428Y-127714285D01*
X113571428Y-128071428D01*
X113500000Y-128214285D01*
X113428571Y-128285714D01*
X113285714Y-128357142D01*
X113142857Y-128357142D01*
X112928571Y-128285714D01*
X112071428Y-127428571D01*
X112071428Y-128357142D01*
X113071428Y-129642857D02*
X112071428Y-129642857D01*
X113642857Y-129285714D02*
X112571428Y-128928571D01*
X112571428Y-129857142D01*
X113571428Y-130214285D02*
X112071428Y-130714285D01*
X113571428Y-131214285D01*
X112071428Y-132857142D02*
X113571428Y-132857142D01*
X112071428Y-133571428D02*
X113571428Y-133571428D01*
X112071428Y-134428571D01*
X113571428Y-134428571D01*
D12*
X149884285Y-129673571D02*
X149550952Y-129673571D01*
X149550952Y-130197380D02*
X149550952Y-129197380D01*
X150027142Y-129197380D01*
X150360476Y-129911666D02*
X150836666Y-129911666D01*
X150265238Y-130197380D02*
X150598571Y-129197380D01*
X150931904Y-130197380D01*
X151265238Y-130197380D02*
X151265238Y-129197380D01*
X151836666Y-130197380D01*
X151836666Y-129197380D01*
X152836666Y-130197380D02*
X152265238Y-130197380D01*
X152550952Y-130197380D02*
X152550952Y-129197380D01*
X152455714Y-129340238D01*
X152360476Y-129435476D01*
X152265238Y-129483095D01*
X190815457Y-129197380D02*
X191386885Y-129197380D01*
X191101171Y-130197380D02*
X191101171Y-129197380D01*
X191720219Y-130197380D02*
X191720219Y-129197380D01*
X191720219Y-129673571D02*
X192291647Y-129673571D01*
X192291647Y-130197380D02*
X192291647Y-129197380D01*
X192767838Y-129816428D02*
X193529742Y-129816428D01*
X194005933Y-129673571D02*
X194339266Y-129673571D01*
X194482123Y-130197380D02*
X194005933Y-130197380D01*
X194005933Y-129197380D01*
X194482123Y-129197380D01*
X195101171Y-129197380D02*
X195196409Y-129197380D01*
X195291647Y-129245000D01*
X195339266Y-129292619D01*
X195386885Y-129387857D01*
X195434504Y-129578333D01*
X195434504Y-129816428D01*
X195386885Y-130006904D01*
X195339266Y-130102142D01*
X195291647Y-130149761D01*
X195196409Y-130197380D01*
X195101171Y-130197380D01*
X195005933Y-130149761D01*
X194958314Y-130102142D01*
X194910695Y-130006904D01*
X194863076Y-129816428D01*
X194863076Y-129578333D01*
X194910695Y-129387857D01*
X194958314Y-129292619D01*
X195005933Y-129245000D01*
X195101171Y-129197380D01*
D13*
X117138333Y-136871428D02*
X117900238Y-136871428D01*
X117519285Y-137252380D02*
X117519285Y-136490476D01*
X122424047Y-136871428D02*
X123185952Y-136871428D01*
D12*
X165471040Y-129721190D02*
X165471040Y-130197380D01*
X165137706Y-129197380D02*
X165471040Y-129721190D01*
X165804373Y-129197380D01*
X166137706Y-129816428D02*
X166899611Y-129816428D01*
X167328182Y-130149761D02*
X167471040Y-130197380D01*
X167709135Y-130197380D01*
X167804373Y-130149761D01*
X167851992Y-130102142D01*
X167899611Y-130006904D01*
X167899611Y-129911666D01*
X167851992Y-129816428D01*
X167804373Y-129768809D01*
X167709135Y-129721190D01*
X167518659Y-129673571D01*
X167423420Y-129625952D01*
X167375801Y-129578333D01*
X167328182Y-129483095D01*
X167328182Y-129387857D01*
X167375801Y-129292619D01*
X167423420Y-129245000D01*
X167518659Y-129197380D01*
X167756754Y-129197380D01*
X167899611Y-129245000D01*
X168185325Y-129197380D02*
X168756754Y-129197380D01*
X168471040Y-130197380D02*
X168471040Y-129197380D01*
X169280563Y-129197380D02*
X169471040Y-129197380D01*
X169566278Y-129245000D01*
X169661516Y-129340238D01*
X169709135Y-129530714D01*
X169709135Y-129864047D01*
X169661516Y-130054523D01*
X169566278Y-130149761D01*
X169471040Y-130197380D01*
X169280563Y-130197380D01*
X169185325Y-130149761D01*
X169090087Y-130054523D01*
X169042468Y-129864047D01*
X169042468Y-129530714D01*
X169090087Y-129340238D01*
X169185325Y-129245000D01*
X169280563Y-129197380D01*
X170137706Y-130197380D02*
X170137706Y-129197380D01*
X170518659Y-129197380D01*
X170613897Y-129245000D01*
X170661516Y-129292619D01*
X170709135Y-129387857D01*
X170709135Y-129530714D01*
X170661516Y-129625952D01*
X170613897Y-129673571D01*
X170518659Y-129721190D01*
X170137706Y-129721190D01*
D14*
X115555000Y-125078571D02*
X115555000Y-123578571D01*
X115555000Y-124292857D02*
X116412142Y-124292857D01*
X116412142Y-125078571D02*
X116412142Y-123578571D01*
X117626428Y-124292857D02*
X117840714Y-124364285D01*
X117912142Y-124435714D01*
X117983571Y-124578571D01*
X117983571Y-124792857D01*
X117912142Y-124935714D01*
X117840714Y-125007142D01*
X117697857Y-125078571D01*
X117126428Y-125078571D01*
X117126428Y-123578571D01*
X117626428Y-123578571D01*
X117769285Y-123650000D01*
X117840714Y-123721428D01*
X117912142Y-123864285D01*
X117912142Y-124007142D01*
X117840714Y-124150000D01*
X117769285Y-124221428D01*
X117626428Y-124292857D01*
X117126428Y-124292857D01*
X118626428Y-124507142D02*
X119769285Y-124507142D01*
X120769285Y-123578571D02*
X121055000Y-123578571D01*
X121197857Y-123650000D01*
X121340714Y-123792857D01*
X121412142Y-124078571D01*
X121412142Y-124578571D01*
X121340714Y-124864285D01*
X121197857Y-125007142D01*
X121055000Y-125078571D01*
X120769285Y-125078571D01*
X120626428Y-125007142D01*
X120483571Y-124864285D01*
X120412142Y-124578571D01*
X120412142Y-124078571D01*
X120483571Y-123792857D01*
X120626428Y-123650000D01*
X120769285Y-123578571D01*
X122055000Y-123578571D02*
X122055000Y-124792857D01*
X122126428Y-124935714D01*
X122197857Y-125007142D01*
X122340714Y-125078571D01*
X122626428Y-125078571D01*
X122769285Y-125007142D01*
X122840714Y-124935714D01*
X122912142Y-124792857D01*
X122912142Y-123578571D01*
X123412142Y-123578571D02*
X124269285Y-123578571D01*
X123840714Y-125078571D02*
X123840714Y-123578571D01*
X147103571Y-72473571D02*
X148103571Y-72473571D01*
X147103571Y-73973571D01*
X148103571Y-73973571D01*
X148675000Y-73402142D02*
X149817857Y-73402142D01*
X150460714Y-73902142D02*
X150675000Y-73973571D01*
X151032142Y-73973571D01*
X151175000Y-73902142D01*
X151246428Y-73830714D01*
X151317857Y-73687857D01*
X151317857Y-73545000D01*
X151246428Y-73402142D01*
X151175000Y-73330714D01*
X151032142Y-73259285D01*
X150746428Y-73187857D01*
X150603571Y-73116428D01*
X150532142Y-73045000D01*
X150460714Y-72902142D01*
X150460714Y-72759285D01*
X150532142Y-72616428D01*
X150603571Y-72545000D01*
X150746428Y-72473571D01*
X151103571Y-72473571D01*
X151317857Y-72545000D01*
X151746428Y-72473571D02*
X152603571Y-72473571D01*
X152175000Y-73973571D02*
X152175000Y-72473571D01*
X153103571Y-73187857D02*
X153603571Y-73187857D01*
X153817857Y-73973571D02*
X153103571Y-73973571D01*
X153103571Y-72473571D01*
X153817857Y-72473571D01*
X154460714Y-73973571D02*
X154460714Y-72473571D01*
X155032142Y-72473571D01*
X155175000Y-72545000D01*
X155246428Y-72616428D01*
X155317857Y-72759285D01*
X155317857Y-72973571D01*
X155246428Y-73116428D01*
X155175000Y-73187857D01*
X155032142Y-73259285D01*
X154460714Y-73259285D01*
X155960714Y-73973571D02*
X155960714Y-72473571D01*
X156532142Y-72473571D01*
X156675000Y-72545000D01*
X156746428Y-72616428D01*
X156817857Y-72759285D01*
X156817857Y-72973571D01*
X156746428Y-73116428D01*
X156675000Y-73187857D01*
X156532142Y-73259285D01*
X155960714Y-73259285D01*
X157460714Y-73187857D02*
X157960714Y-73187857D01*
X158175000Y-73973571D02*
X157460714Y-73973571D01*
X157460714Y-72473571D01*
X158175000Y-72473571D01*
X159675000Y-73973571D02*
X159175000Y-73259285D01*
X158817857Y-73973571D02*
X158817857Y-72473571D01*
X159389285Y-72473571D01*
X159532142Y-72545000D01*
X159603571Y-72616428D01*
X159675000Y-72759285D01*
X159675000Y-72973571D01*
X159603571Y-73116428D01*
X159532142Y-73187857D01*
X159389285Y-73259285D01*
X158817857Y-73259285D01*
D12*
X156737186Y-129197380D02*
X157403853Y-130197380D01*
X157403853Y-129197380D02*
X156737186Y-130197380D01*
X157784805Y-129816428D02*
X158546710Y-129816428D01*
X158975281Y-130149761D02*
X159118139Y-130197380D01*
X159356234Y-130197380D01*
X159451472Y-130149761D01*
X159499091Y-130102142D01*
X159546710Y-130006904D01*
X159546710Y-129911666D01*
X159499091Y-129816428D01*
X159451472Y-129768809D01*
X159356234Y-129721190D01*
X159165758Y-129673571D01*
X159070520Y-129625952D01*
X159022900Y-129578333D01*
X158975281Y-129483095D01*
X158975281Y-129387857D01*
X159022900Y-129292619D01*
X159070520Y-129245000D01*
X159165758Y-129197380D01*
X159403853Y-129197380D01*
X159546710Y-129245000D01*
X159832424Y-129197380D02*
X160403853Y-129197380D01*
X160118139Y-130197380D02*
X160118139Y-129197380D01*
X160927662Y-129197380D02*
X161118139Y-129197380D01*
X161213377Y-129245000D01*
X161308615Y-129340238D01*
X161356234Y-129530714D01*
X161356234Y-129864047D01*
X161308615Y-130054523D01*
X161213377Y-130149761D01*
X161118139Y-130197380D01*
X160927662Y-130197380D01*
X160832424Y-130149761D01*
X160737186Y-130054523D01*
X160689567Y-129864047D01*
X160689567Y-129530714D01*
X160737186Y-129340238D01*
X160832424Y-129245000D01*
X160927662Y-129197380D01*
X161784805Y-130197380D02*
X161784805Y-129197380D01*
X162165758Y-129197380D01*
X162260996Y-129245000D01*
X162308615Y-129292619D01*
X162356234Y-129387857D01*
X162356234Y-129530714D01*
X162308615Y-129625952D01*
X162260996Y-129673571D01*
X162165758Y-129721190D01*
X161784805Y-129721190D01*
D14*
X126003571Y-73259285D02*
X126003571Y-73973571D01*
X125503571Y-72473571D02*
X126003571Y-73259285D01*
X126503571Y-72473571D01*
X127003571Y-73402142D02*
X128146428Y-73402142D01*
X128789285Y-73902142D02*
X129003571Y-73973571D01*
X129360714Y-73973571D01*
X129503571Y-73902142D01*
X129575000Y-73830714D01*
X129646428Y-73687857D01*
X129646428Y-73545000D01*
X129575000Y-73402142D01*
X129503571Y-73330714D01*
X129360714Y-73259285D01*
X129075000Y-73187857D01*
X128932142Y-73116428D01*
X128860714Y-73045000D01*
X128789285Y-72902142D01*
X128789285Y-72759285D01*
X128860714Y-72616428D01*
X128932142Y-72545000D01*
X129075000Y-72473571D01*
X129432142Y-72473571D01*
X129646428Y-72545000D01*
X130075000Y-72473571D02*
X130932142Y-72473571D01*
X130503571Y-73973571D02*
X130503571Y-72473571D01*
X131432142Y-73187857D02*
X131932142Y-73187857D01*
X132146428Y-73973571D02*
X131432142Y-73973571D01*
X131432142Y-72473571D01*
X132146428Y-72473571D01*
X132789285Y-73973571D02*
X132789285Y-72473571D01*
X133360714Y-72473571D01*
X133503571Y-72545000D01*
X133575000Y-72616428D01*
X133646428Y-72759285D01*
X133646428Y-72973571D01*
X133575000Y-73116428D01*
X133503571Y-73187857D01*
X133360714Y-73259285D01*
X132789285Y-73259285D01*
X134289285Y-73973571D02*
X134289285Y-72473571D01*
X134860714Y-72473571D01*
X135003571Y-72545000D01*
X135075000Y-72616428D01*
X135146428Y-72759285D01*
X135146428Y-72973571D01*
X135075000Y-73116428D01*
X135003571Y-73187857D01*
X134860714Y-73259285D01*
X134289285Y-73259285D01*
X135789285Y-73187857D02*
X136289285Y-73187857D01*
X136503571Y-73973571D02*
X135789285Y-73973571D01*
X135789285Y-72473571D01*
X136503571Y-72473571D01*
X138003571Y-73973571D02*
X137503571Y-73259285D01*
X137146428Y-73973571D02*
X137146428Y-72473571D01*
X137717857Y-72473571D01*
X137860714Y-72545000D01*
X137932142Y-72616428D01*
X138003571Y-72759285D01*
X138003571Y-72973571D01*
X137932142Y-73116428D01*
X137860714Y-73187857D01*
X137717857Y-73259285D01*
X137146428Y-73259285D01*
X106303571Y-72473571D02*
X107303571Y-73973571D01*
X107303571Y-72473571D02*
X106303571Y-73973571D01*
X107875000Y-73402142D02*
X109017857Y-73402142D01*
X109660714Y-73902142D02*
X109875000Y-73973571D01*
X110232142Y-73973571D01*
X110375000Y-73902142D01*
X110446428Y-73830714D01*
X110517857Y-73687857D01*
X110517857Y-73545000D01*
X110446428Y-73402142D01*
X110375000Y-73330714D01*
X110232142Y-73259285D01*
X109946428Y-73187857D01*
X109803571Y-73116428D01*
X109732142Y-73045000D01*
X109660714Y-72902142D01*
X109660714Y-72759285D01*
X109732142Y-72616428D01*
X109803571Y-72545000D01*
X109946428Y-72473571D01*
X110303571Y-72473571D01*
X110517857Y-72545000D01*
X110946428Y-72473571D02*
X111803571Y-72473571D01*
X111375000Y-73973571D02*
X111375000Y-72473571D01*
X112303571Y-73187857D02*
X112803571Y-73187857D01*
X113017857Y-73973571D02*
X112303571Y-73973571D01*
X112303571Y-72473571D01*
X113017857Y-72473571D01*
X113660714Y-73973571D02*
X113660714Y-72473571D01*
X114232142Y-72473571D01*
X114375000Y-72545000D01*
X114446428Y-72616428D01*
X114517857Y-72759285D01*
X114517857Y-72973571D01*
X114446428Y-73116428D01*
X114375000Y-73187857D01*
X114232142Y-73259285D01*
X113660714Y-73259285D01*
X115160714Y-73973571D02*
X115160714Y-72473571D01*
X115732142Y-72473571D01*
X115875000Y-72545000D01*
X115946428Y-72616428D01*
X116017857Y-72759285D01*
X116017857Y-72973571D01*
X115946428Y-73116428D01*
X115875000Y-73187857D01*
X115732142Y-73259285D01*
X115160714Y-73259285D01*
X116660714Y-73187857D02*
X117160714Y-73187857D01*
X117375000Y-73973571D02*
X116660714Y-73973571D01*
X116660714Y-72473571D01*
X117375000Y-72473571D01*
X118875000Y-73973571D02*
X118375000Y-73259285D01*
X118017857Y-73973571D02*
X118017857Y-72473571D01*
X118589285Y-72473571D01*
X118732142Y-72545000D01*
X118803571Y-72616428D01*
X118875000Y-72759285D01*
X118875000Y-72973571D01*
X118803571Y-73116428D01*
X118732142Y-73187857D01*
X118589285Y-73259285D01*
X118017857Y-73259285D01*
D13*
X100328571Y-128333333D02*
X100328571Y-129095238D01*
X99947619Y-128714285D02*
X100709523Y-128714285D01*
X100328571Y-133619047D02*
X100328571Y-134380952D01*
D12*
X182319699Y-129197380D02*
X182891127Y-129197380D01*
X182605413Y-130197380D02*
X182605413Y-129197380D01*
X183224460Y-130197380D02*
X183224460Y-129197380D01*
X183224460Y-129673571D02*
X183795889Y-129673571D01*
X183795889Y-130197380D02*
X183795889Y-129197380D01*
X184272080Y-129816428D02*
X185033984Y-129816428D01*
X185510175Y-130197380D02*
X185510175Y-129197380D01*
X185510175Y-129673571D02*
X186081603Y-129673571D01*
X186081603Y-130197380D02*
X186081603Y-129197380D01*
X186891127Y-129673571D02*
X187033984Y-129721190D01*
X187081603Y-129768809D01*
X187129222Y-129864047D01*
X187129222Y-130006904D01*
X187081603Y-130102142D01*
X187033984Y-130149761D01*
X186938746Y-130197380D01*
X186557794Y-130197380D01*
X186557794Y-129197380D01*
X186891127Y-129197380D01*
X186986365Y-129245000D01*
X187033984Y-129292619D01*
X187081603Y-129387857D01*
X187081603Y-129483095D01*
X187033984Y-129578333D01*
X186986365Y-129625952D01*
X186891127Y-129673571D01*
X186557794Y-129673571D01*
D13*
X160764285Y-115948571D02*
X160430952Y-115948571D01*
X160430952Y-116472380D02*
X160430952Y-115472380D01*
X160907142Y-115472380D01*
X161240476Y-116186666D02*
X161716666Y-116186666D01*
X161145238Y-116472380D02*
X161478571Y-115472380D01*
X161811904Y-116472380D01*
X162145238Y-116472380D02*
X162145238Y-115472380D01*
X162716666Y-116472380D01*
X162716666Y-115472380D01*
X163145238Y-115567619D02*
X163192857Y-115520000D01*
X163288095Y-115472380D01*
X163526190Y-115472380D01*
X163621428Y-115520000D01*
X163669047Y-115567619D01*
X163716666Y-115662857D01*
X163716666Y-115758095D01*
X163669047Y-115900952D01*
X163097619Y-116472380D01*
X163716666Y-116472380D01*
X176922123Y-115978571D02*
X177255457Y-115978571D01*
X177398314Y-116502380D02*
X176922123Y-116502380D01*
X176922123Y-115502380D01*
X177398314Y-115502380D01*
X178017361Y-115502380D02*
X178112600Y-115502380D01*
X178207838Y-115550000D01*
X178255457Y-115597619D01*
X178303076Y-115692857D01*
X178350695Y-115883333D01*
X178350695Y-116121428D01*
X178303076Y-116311904D01*
X178255457Y-116407142D01*
X178207838Y-116454761D01*
X178112600Y-116502380D01*
X178017361Y-116502380D01*
X177922123Y-116454761D01*
X177874504Y-116407142D01*
X177826885Y-116311904D01*
X177779266Y-116121428D01*
X177779266Y-115883333D01*
X177826885Y-115692857D01*
X177874504Y-115597619D01*
X177922123Y-115550000D01*
X178017361Y-115502380D01*
X178779266Y-116121428D02*
X179541171Y-116121428D01*
X179969742Y-116454761D02*
X180112600Y-116502380D01*
X180350695Y-116502380D01*
X180445933Y-116454761D01*
X180493552Y-116407142D01*
X180541171Y-116311904D01*
X180541171Y-116216666D01*
X180493552Y-116121428D01*
X180445933Y-116073809D01*
X180350695Y-116026190D01*
X180160219Y-115978571D01*
X180064980Y-115930952D01*
X180017361Y-115883333D01*
X179969742Y-115788095D01*
X179969742Y-115692857D01*
X180017361Y-115597619D01*
X180064980Y-115550000D01*
X180160219Y-115502380D01*
X180398314Y-115502380D01*
X180541171Y-115550000D01*
X180826885Y-115502380D02*
X181398314Y-115502380D01*
X181112600Y-116502380D02*
X181112600Y-115502380D01*
X181922123Y-115502380D02*
X182112600Y-115502380D01*
X182207838Y-115550000D01*
X182303076Y-115645238D01*
X182350695Y-115835714D01*
X182350695Y-116169047D01*
X182303076Y-116359523D01*
X182207838Y-116454761D01*
X182112600Y-116502380D01*
X181922123Y-116502380D01*
X181826885Y-116454761D01*
X181731647Y-116359523D01*
X181684028Y-116169047D01*
X181684028Y-115835714D01*
X181731647Y-115645238D01*
X181826885Y-115550000D01*
X181922123Y-115502380D01*
X182779266Y-116502380D02*
X182779266Y-115502380D01*
X183160219Y-115502380D01*
X183255457Y-115550000D01*
X183303076Y-115597619D01*
X183350695Y-115692857D01*
X183350695Y-115835714D01*
X183303076Y-115930952D01*
X183255457Y-115978571D01*
X183160219Y-116026190D01*
X182779266Y-116026190D01*
D14*
X127197857Y-124292857D02*
X127697857Y-124292857D01*
X127912142Y-125078571D02*
X127197857Y-125078571D01*
X127197857Y-123578571D01*
X127912142Y-123578571D01*
X128840714Y-123578571D02*
X128983571Y-123578571D01*
X129126428Y-123650000D01*
X129197857Y-123721428D01*
X129269285Y-123864285D01*
X129340714Y-124150000D01*
X129340714Y-124507142D01*
X129269285Y-124792857D01*
X129197857Y-124935714D01*
X129126428Y-125007142D01*
X128983571Y-125078571D01*
X128840714Y-125078571D01*
X128697857Y-125007142D01*
X128626428Y-124935714D01*
X128555000Y-124792857D01*
X128483571Y-124507142D01*
X128483571Y-124150000D01*
X128555000Y-123864285D01*
X128626428Y-123721428D01*
X128697857Y-123650000D01*
X128840714Y-123578571D01*
X129983571Y-124507142D02*
X131126428Y-124507142D01*
X132126428Y-123578571D02*
X132412142Y-123578571D01*
X132555000Y-123650000D01*
X132697857Y-123792857D01*
X132769285Y-124078571D01*
X132769285Y-124578571D01*
X132697857Y-124864285D01*
X132555000Y-125007142D01*
X132412142Y-125078571D01*
X132126428Y-125078571D01*
X131983571Y-125007142D01*
X131840714Y-124864285D01*
X131769285Y-124578571D01*
X131769285Y-124078571D01*
X131840714Y-123792857D01*
X131983571Y-123650000D01*
X132126428Y-123578571D01*
X133412142Y-123578571D02*
X133412142Y-124792857D01*
X133483571Y-124935714D01*
X133555000Y-125007142D01*
X133697857Y-125078571D01*
X133983571Y-125078571D01*
X134126428Y-125007142D01*
X134197857Y-124935714D01*
X134269285Y-124792857D01*
X134269285Y-123578571D01*
X134769285Y-123578571D02*
X135626428Y-123578571D01*
X135197857Y-125078571D02*
X135197857Y-123578571D01*
X170917857Y-73187857D02*
X171417857Y-73187857D01*
X171632142Y-73973571D02*
X170917857Y-73973571D01*
X170917857Y-72473571D01*
X171632142Y-72473571D01*
X172560714Y-72473571D02*
X172703571Y-72473571D01*
X172846428Y-72545000D01*
X172917857Y-72616428D01*
X172989285Y-72759285D01*
X173060714Y-73045000D01*
X173060714Y-73402142D01*
X172989285Y-73687857D01*
X172917857Y-73830714D01*
X172846428Y-73902142D01*
X172703571Y-73973571D01*
X172560714Y-73973571D01*
X172417857Y-73902142D01*
X172346428Y-73830714D01*
X172275000Y-73687857D01*
X172203571Y-73402142D01*
X172203571Y-73045000D01*
X172275000Y-72759285D01*
X172346428Y-72616428D01*
X172417857Y-72545000D01*
X172560714Y-72473571D01*
X173703571Y-73402142D02*
X174846428Y-73402142D01*
X175846428Y-72473571D02*
X176132142Y-72473571D01*
X176275000Y-72545000D01*
X176417857Y-72687857D01*
X176489285Y-72973571D01*
X176489285Y-73473571D01*
X176417857Y-73759285D01*
X176275000Y-73902142D01*
X176132142Y-73973571D01*
X175846428Y-73973571D01*
X175703571Y-73902142D01*
X175560714Y-73759285D01*
X175489285Y-73473571D01*
X175489285Y-72973571D01*
X175560714Y-72687857D01*
X175703571Y-72545000D01*
X175846428Y-72473571D01*
X177132142Y-72473571D02*
X177132142Y-73687857D01*
X177203571Y-73830714D01*
X177275000Y-73902142D01*
X177417857Y-73973571D01*
X177703571Y-73973571D01*
X177846428Y-73902142D01*
X177917857Y-73830714D01*
X177989285Y-73687857D01*
X177989285Y-72473571D01*
X178489285Y-72473571D02*
X179346428Y-72473571D01*
X178917857Y-73973571D02*
X178917857Y-72473571D01*
D13*
X191281904Y-116502380D02*
X191281904Y-115502380D01*
X191662857Y-115502380D01*
X191758095Y-115550000D01*
X191805714Y-115597619D01*
X191853333Y-115692857D01*
X191853333Y-115835714D01*
X191805714Y-115930952D01*
X191758095Y-115978571D01*
X191662857Y-116026190D01*
X191281904Y-116026190D01*
X192853333Y-116502380D02*
X192520000Y-116026190D01*
X192281904Y-116502380D02*
X192281904Y-115502380D01*
X192662857Y-115502380D01*
X192758095Y-115550000D01*
X192805714Y-115597619D01*
X192853333Y-115692857D01*
X192853333Y-115835714D01*
X192805714Y-115930952D01*
X192758095Y-115978571D01*
X192662857Y-116026190D01*
X192281904Y-116026190D01*
X193472380Y-115502380D02*
X193662857Y-115502380D01*
X193758095Y-115550000D01*
X193853333Y-115645238D01*
X193900952Y-115835714D01*
X193900952Y-116169047D01*
X193853333Y-116359523D01*
X193758095Y-116454761D01*
X193662857Y-116502380D01*
X193472380Y-116502380D01*
X193377142Y-116454761D01*
X193281904Y-116359523D01*
X193234285Y-116169047D01*
X193234285Y-115835714D01*
X193281904Y-115645238D01*
X193377142Y-115550000D01*
X193472380Y-115502380D01*
X194662857Y-115978571D02*
X194805714Y-116026190D01*
X194853333Y-116073809D01*
X194900952Y-116169047D01*
X194900952Y-116311904D01*
X194853333Y-116407142D01*
X194805714Y-116454761D01*
X194710476Y-116502380D01*
X194329523Y-116502380D01*
X194329523Y-115502380D01*
X194662857Y-115502380D01*
X194758095Y-115550000D01*
X194805714Y-115597619D01*
X194853333Y-115692857D01*
X194853333Y-115788095D01*
X194805714Y-115883333D01*
X194758095Y-115930952D01*
X194662857Y-115978571D01*
X194329523Y-115978571D01*
X195329523Y-115978571D02*
X195662857Y-115978571D01*
X195805714Y-116502380D02*
X195329523Y-116502380D01*
X195329523Y-115502380D01*
X195805714Y-115502380D01*
D15*
%TO.C,U1*%
X116061000Y-103010000D02*
X112341000Y-103010000D01*
X116061000Y-96290000D02*
X112341000Y-96290000D01*
X116061000Y-103010000D02*
X116061000Y-102750000D01*
X116061000Y-96540000D02*
X116061000Y-96290000D01*
X112341000Y-96290000D02*
X112341000Y-97780000D01*
X112341000Y-101410000D02*
X112341000Y-103010000D01*
D12*
X118674000Y-101940000D02*
G75*
G03*
X118674000Y-101940000I-100000J0D01*
G01*
%TO.C,F2*%
X99650000Y-119800000D02*
X114450000Y-119800000D01*
X114450000Y-119800000D02*
X114450000Y-124600000D01*
X114450000Y-124600000D02*
X99650000Y-124600000D01*
X99650000Y-124600000D02*
X99650000Y-119800000D01*
D16*
X99200000Y-122200000D02*
X99200000Y-122200000D01*
X99100000Y-122200000D02*
X99100000Y-122200000D01*
X99200000Y-122200000D02*
G75*
G03*
X99100000Y-122200000I-50000J0D01*
G01*
X99100000Y-122200000D02*
G75*
G03*
X99200000Y-122200000I50000J0D01*
G01*
D17*
%TO.C,J23*%
X200205000Y-106970000D02*
X200205000Y-108300000D01*
X197605000Y-106970000D02*
X195005000Y-106970000D01*
X198875000Y-106970000D02*
X200205000Y-106970000D01*
X197605000Y-106970000D02*
X197605000Y-109630000D01*
X195005000Y-106970000D02*
X195005000Y-109630000D01*
X197605000Y-109630000D02*
X195005000Y-109630000D01*
%TO.C,J22*%
X200205000Y-104070000D02*
X200205000Y-105400000D01*
X197605000Y-104070000D02*
X195005000Y-104070000D01*
X198875000Y-104070000D02*
X200205000Y-104070000D01*
X197605000Y-104070000D02*
X197605000Y-106730000D01*
X195005000Y-104070000D02*
X195005000Y-106730000D01*
X197605000Y-106730000D02*
X195005000Y-106730000D01*
%TO.C,J4*%
X200205000Y-101170000D02*
X200205000Y-102500000D01*
X197605000Y-101170000D02*
X195005000Y-101170000D01*
X198875000Y-101170000D02*
X200205000Y-101170000D01*
X197605000Y-101170000D02*
X197605000Y-103830000D01*
X195005000Y-101170000D02*
X195005000Y-103830000D01*
X197605000Y-103830000D02*
X195005000Y-103830000D01*
%TO.C,R49*%
X152827064Y-77415000D02*
X152372936Y-77415000D01*
X152827064Y-78885000D02*
X152372936Y-78885000D01*
%TO.C,C11*%
X125400000Y-114878349D02*
X123190000Y-114878349D01*
X125985000Y-113798349D02*
X123190000Y-113798349D01*
X125430000Y-114838349D02*
X123190000Y-114838349D01*
X121110000Y-114678349D02*
X118758000Y-114678349D01*
X125370000Y-114918349D02*
X123190000Y-114918349D01*
X123795000Y-116158349D02*
X120505000Y-116158349D01*
X126180000Y-113037349D02*
X118120000Y-113037349D01*
X122918000Y-116438349D02*
X121382000Y-116438349D01*
X125667000Y-114478349D02*
X123190000Y-114478349D01*
X126230000Y-112437349D02*
X118070000Y-112437349D01*
X125836000Y-114158349D02*
X123190000Y-114158349D01*
X121110000Y-113558349D02*
X118236000Y-113558349D01*
X121110000Y-113678349D02*
X118273000Y-113678349D01*
X126230000Y-112397349D02*
X118070000Y-112397349D01*
X125306000Y-114998349D02*
X123190000Y-114998349D01*
X121110000Y-113638349D02*
X118261000Y-113638349D01*
X126221000Y-112677349D02*
X118079000Y-112677349D01*
X126160000Y-113158349D02*
X123190000Y-113158349D01*
X125057000Y-115278349D02*
X119243000Y-115278349D01*
X123603000Y-116238349D02*
X120697000Y-116238349D01*
X126218000Y-112717349D02*
X118082000Y-112717349D01*
X121110000Y-114238349D02*
X118503000Y-114238349D01*
X121110000Y-114358349D02*
X118566000Y-114358349D01*
X121110000Y-113198349D02*
X118148000Y-113198349D01*
X126064000Y-113558349D02*
X123190000Y-113558349D01*
X121110000Y-114478349D02*
X118633000Y-114478349D01*
X124465000Y-107987651D02*
X124465000Y-108787651D01*
X121110000Y-114158349D02*
X118464000Y-114158349D01*
X125955000Y-113878349D02*
X123190000Y-113878349D01*
X126075000Y-113518349D02*
X123190000Y-113518349D01*
X124040000Y-116038349D02*
X120260000Y-116038349D01*
X126215000Y-112757349D02*
X118085000Y-112757349D01*
X126226000Y-112597349D02*
X118074000Y-112597349D01*
X121110000Y-114198349D02*
X118484000Y-114198349D01*
X126107000Y-113398349D02*
X123190000Y-113398349D01*
X121110000Y-114518349D02*
X118657000Y-114518349D01*
X126227000Y-112557349D02*
X118073000Y-112557349D01*
X121110000Y-113958349D02*
X118376000Y-113958349D01*
X126230000Y-112477349D02*
X118070000Y-112477349D01*
X126229000Y-112517349D02*
X118071000Y-112517349D01*
X121110000Y-115078349D02*
X119060000Y-115078349D01*
X126097000Y-113438349D02*
X123190000Y-113438349D01*
X121110000Y-113838349D02*
X118329000Y-113838349D01*
X121110000Y-114838349D02*
X118870000Y-114838349D01*
X125643000Y-114518349D02*
X123190000Y-114518349D01*
X124655000Y-115638349D02*
X119645000Y-115638349D01*
X121110000Y-114038349D02*
X118410000Y-114038349D01*
X121110000Y-114118349D02*
X118446000Y-114118349D01*
X125777000Y-114278349D02*
X123190000Y-114278349D01*
X124252000Y-115918349D02*
X120048000Y-115918349D01*
X124437000Y-115798349D02*
X119863000Y-115798349D01*
X125940000Y-113918349D02*
X123190000Y-113918349D01*
X124114000Y-115998349D02*
X120186000Y-115998349D01*
X126224000Y-112637349D02*
X118076000Y-112637349D01*
X126039000Y-113638349D02*
X123190000Y-113638349D01*
X121110000Y-113318349D02*
X118174000Y-113318349D01*
X121110000Y-114798349D02*
X118841000Y-114798349D01*
X121110000Y-115158349D02*
X119131000Y-115158349D01*
X125854000Y-114118349D02*
X123190000Y-114118349D01*
X126167000Y-113118349D02*
X123190000Y-113118349D01*
X126174000Y-113077349D02*
X118126000Y-113077349D01*
X124934000Y-115398349D02*
X119366000Y-115398349D01*
X125240000Y-115078349D02*
X123190000Y-115078349D01*
X121110000Y-113598349D02*
X118248000Y-113598349D01*
X123248000Y-116358349D02*
X121052000Y-116358349D01*
X126211000Y-112797349D02*
X118089000Y-112797349D01*
X121110000Y-114878349D02*
X118900000Y-114878349D01*
X126013000Y-113718349D02*
X123190000Y-113718349D01*
X125924000Y-113958349D02*
X123190000Y-113958349D01*
X125205000Y-115118349D02*
X123190000Y-115118349D01*
X121110000Y-114318349D02*
X118544000Y-114318349D01*
X125890000Y-114038349D02*
X123190000Y-114038349D01*
X126126000Y-113318349D02*
X123190000Y-113318349D01*
X121110000Y-114398349D02*
X118588000Y-114398349D01*
X123379000Y-116318349D02*
X120921000Y-116318349D01*
X121110000Y-113118349D02*
X118133000Y-113118349D01*
X125872000Y-114078349D02*
X123190000Y-114078349D01*
X121110000Y-113278349D02*
X118165000Y-113278349D01*
X121110000Y-113878349D02*
X118345000Y-113878349D01*
X124550000Y-115718349D02*
X119750000Y-115718349D01*
X123702000Y-116198349D02*
X120598000Y-116198349D01*
X121110000Y-113758349D02*
X118300000Y-113758349D01*
X126086000Y-113478349D02*
X123190000Y-113478349D01*
X126117000Y-113358349D02*
X123190000Y-113358349D01*
X125619000Y-114558349D02*
X123190000Y-114558349D01*
X121110000Y-114638349D02*
X118732000Y-114638349D01*
X125488000Y-114758349D02*
X123190000Y-114758349D01*
X121110000Y-115038349D02*
X119026000Y-115038349D01*
X126144000Y-113238349D02*
X123190000Y-113238349D01*
X121110000Y-113398349D02*
X118193000Y-113398349D01*
X126207000Y-112837349D02*
X118093000Y-112837349D01*
X125712000Y-114398349D02*
X123190000Y-114398349D01*
X125734000Y-114358349D02*
X123190000Y-114358349D01*
X125568000Y-114638349D02*
X123190000Y-114638349D01*
X124754000Y-115558349D02*
X119546000Y-115558349D01*
X121110000Y-113438349D02*
X118203000Y-113438349D01*
X126187000Y-112997349D02*
X118113000Y-112997349D01*
X121110000Y-114438349D02*
X118610000Y-114438349D01*
X125459000Y-114798349D02*
X123190000Y-114798349D01*
X126152000Y-113198349D02*
X123190000Y-113198349D01*
X121110000Y-113918349D02*
X118360000Y-113918349D01*
X125797000Y-114238349D02*
X123190000Y-114238349D01*
X125133000Y-115198349D02*
X119167000Y-115198349D01*
X121110000Y-114918349D02*
X118930000Y-114918349D01*
X126135000Y-113278349D02*
X123190000Y-113278349D01*
X121110000Y-113718349D02*
X118287000Y-113718349D01*
X124976000Y-115358349D02*
X119324000Y-115358349D01*
X125017000Y-115318349D02*
X119283000Y-115318349D01*
X121110000Y-113238349D02*
X118156000Y-113238349D01*
X124378000Y-115838349D02*
X119922000Y-115838349D01*
X121110000Y-114758349D02*
X118812000Y-114758349D01*
X121110000Y-114958349D02*
X118961000Y-114958349D01*
X125971000Y-113838349D02*
X123190000Y-113838349D01*
X124706000Y-115598349D02*
X119594000Y-115598349D01*
X125756000Y-114318349D02*
X123190000Y-114318349D01*
X121110000Y-114078349D02*
X118428000Y-114078349D01*
X121110000Y-114278349D02*
X118523000Y-114278349D01*
X121110000Y-113358349D02*
X118183000Y-113358349D01*
X125515000Y-114718349D02*
X123190000Y-114718349D01*
X123496000Y-116278349D02*
X120804000Y-116278349D01*
X125907000Y-113998349D02*
X123190000Y-113998349D01*
X121110000Y-113158349D02*
X118140000Y-113158349D01*
X124184000Y-115958349D02*
X120116000Y-115958349D01*
X121110000Y-114718349D02*
X118785000Y-114718349D01*
X121110000Y-113518349D02*
X118225000Y-113518349D01*
X124865000Y-108387651D02*
X124065000Y-108387651D01*
X121110000Y-113798349D02*
X118315000Y-113798349D01*
X124847000Y-115478349D02*
X119453000Y-115478349D01*
X125169000Y-115158349D02*
X123190000Y-115158349D01*
X124891000Y-115438349D02*
X119409000Y-115438349D01*
X125690000Y-114438349D02*
X123190000Y-114438349D01*
X125339000Y-114958349D02*
X123190000Y-114958349D01*
X124316000Y-115878349D02*
X119984000Y-115878349D01*
X126192000Y-112957349D02*
X118108000Y-112957349D01*
X125816000Y-114198349D02*
X123190000Y-114198349D01*
X121110000Y-114598349D02*
X118706000Y-114598349D01*
X126000000Y-113758349D02*
X123190000Y-113758349D01*
X121110000Y-115118349D02*
X119095000Y-115118349D01*
X123963000Y-116078349D02*
X120337000Y-116078349D01*
X121110000Y-114558349D02*
X118681000Y-114558349D01*
X126052000Y-113598349D02*
X123190000Y-113598349D01*
X126202000Y-112877349D02*
X118098000Y-112877349D01*
X126198000Y-112917349D02*
X118102000Y-112917349D01*
X125274000Y-115038349D02*
X123190000Y-115038349D01*
X124495000Y-115758349D02*
X119805000Y-115758349D01*
X124604000Y-115678349D02*
X119696000Y-115678349D01*
X121110000Y-113998349D02*
X118393000Y-113998349D01*
X124801000Y-115518349D02*
X119499000Y-115518349D01*
X121110000Y-114998349D02*
X118994000Y-114998349D01*
X126027000Y-113678349D02*
X123190000Y-113678349D01*
X122683000Y-116478349D02*
X121617000Y-116478349D01*
X125095000Y-115238349D02*
X119205000Y-115238349D01*
X121110000Y-113478349D02*
X118214000Y-113478349D01*
X125594000Y-114598349D02*
X123190000Y-114598349D01*
X123098000Y-116398349D02*
X121202000Y-116398349D01*
X125542000Y-114678349D02*
X123190000Y-114678349D01*
X123881000Y-116118349D02*
X120419000Y-116118349D01*
X126270000Y-112397349D02*
G75*
G03*
X126270000Y-112397349I-4120000J0D01*
G01*
%TO.C,J2*%
X197033974Y-98494900D02*
X199096826Y-98494900D01*
X202797800Y-98494900D02*
X202797800Y-88665100D01*
X202797800Y-88665100D02*
X201061574Y-88665100D01*
X201061574Y-98494900D02*
X202797800Y-98494900D01*
X199096826Y-88665100D02*
X197033974Y-88665100D01*
%TO.C,F1*%
X119640000Y-100986252D02*
X119640000Y-98213748D01*
X123060000Y-100986252D02*
X123060000Y-98213748D01*
D15*
%TO.C,U4*%
X121600000Y-117825000D02*
X125500000Y-117825000D01*
X121600000Y-122875000D02*
X125500000Y-122875000D01*
D12*
X119205000Y-117875000D02*
G75*
G03*
X119205000Y-117875000I-100000J0D01*
G01*
D17*
%TO.C,C17*%
X188188748Y-116235000D02*
X188711252Y-116235000D01*
X188188748Y-114765000D02*
X188711252Y-114765000D01*
%TO.C,R29*%
X151927064Y-121585000D02*
X151472936Y-121585000D01*
X151927064Y-120115000D02*
X151472936Y-120115000D01*
%TO.C,C3*%
X113865000Y-105638748D02*
X113865000Y-106161252D01*
X115335000Y-105638748D02*
X115335000Y-106161252D01*
%TO.C,R18*%
X129827064Y-121365000D02*
X129372936Y-121365000D01*
X129827064Y-122835000D02*
X129372936Y-122835000D01*
%TO.C,R31*%
X179222936Y-111015000D02*
X179677064Y-111015000D01*
X179222936Y-112485000D02*
X179677064Y-112485000D01*
%TO.C,C19*%
X114165000Y-86073904D02*
X114165000Y-85551400D01*
X115635000Y-86073904D02*
X115635000Y-85551400D01*
%TO.C,R28*%
X151927064Y-117665000D02*
X151472936Y-117665000D01*
X151927064Y-119135000D02*
X151472936Y-119135000D01*
%TO.C,RN1*%
X112370000Y-90650000D02*
X112370000Y-89650000D01*
X115730000Y-90650000D02*
X115730000Y-89650000D01*
D15*
%TO.C,U2*%
X111460000Y-112925000D02*
X115360000Y-112925000D01*
X111460000Y-117975000D02*
X115360000Y-117975000D01*
D12*
X109440000Y-113545000D02*
G75*
G03*
X109440000Y-113545000I-100000J0D01*
G01*
D17*
%TO.C,R10*%
X158135000Y-126727064D02*
X158135000Y-126272936D01*
X156665000Y-126727064D02*
X156665000Y-126272936D01*
%TO.C,C8*%
X125688748Y-102135000D02*
X126211252Y-102135000D01*
X125688748Y-100665000D02*
X126211252Y-100665000D01*
%TO.C,R6*%
X157830000Y-108597936D02*
X157830000Y-109052064D01*
X156360000Y-108597936D02*
X156360000Y-109052064D01*
%TO.C,R37*%
X103227064Y-78885000D02*
X102772936Y-78885000D01*
X103227064Y-77415000D02*
X102772936Y-77415000D01*
%TO.C,Q2*%
X154320000Y-120860000D02*
X155250000Y-120860000D01*
X157480000Y-120860000D02*
X157480000Y-117700000D01*
X157480000Y-120860000D02*
X156550000Y-120860000D01*
X154320000Y-120860000D02*
X154320000Y-119400000D01*
%TO.C,J9*%
X173521560Y-130994960D02*
X172271560Y-130994960D01*
X174371560Y-132044960D02*
X174371560Y-131294960D01*
X172271560Y-130994960D02*
X172271560Y-132244960D01*
X175871560Y-131294960D02*
X175871560Y-132044960D01*
X176871560Y-131294960D02*
X175871560Y-131294960D01*
X172571560Y-132044960D02*
X174371560Y-132044960D01*
X176871560Y-132044960D02*
X176871560Y-131294960D01*
X179421560Y-136494960D02*
X176371560Y-136494960D01*
X180171560Y-133544960D02*
X179421560Y-133544960D01*
X179421560Y-133544960D02*
X179421560Y-136494960D01*
X180171560Y-131294960D02*
X178371560Y-131294960D01*
X172561560Y-137254960D02*
X180181560Y-137254960D01*
X173321560Y-136494960D02*
X176371560Y-136494960D01*
X180181560Y-131284960D02*
X172561560Y-131284960D01*
X172571560Y-133544960D02*
X173321560Y-133544960D01*
X172561560Y-131284960D02*
X172561560Y-137254960D01*
X174371560Y-131294960D02*
X172571560Y-131294960D01*
X173321560Y-133544960D02*
X173321560Y-136494960D01*
X180171560Y-132044960D02*
X180171560Y-131294960D01*
X172571560Y-131294960D02*
X172571560Y-132044960D01*
X180181560Y-137254960D02*
X180181560Y-131284960D01*
X178371560Y-131294960D02*
X178371560Y-132044960D01*
X175871560Y-132044960D02*
X176871560Y-132044960D01*
X178371560Y-132044960D02*
X180171560Y-132044960D01*
%TO.C,R17*%
X117827064Y-120135000D02*
X117372936Y-120135000D01*
X117827064Y-118665000D02*
X117372936Y-118665000D01*
D12*
%TO.C,D5*%
X196800000Y-124000000D02*
G75*
G03*
X196800000Y-124000000I-100000J0D01*
G01*
D15*
X196570000Y-127150000D02*
X197210000Y-127150000D01*
X194290000Y-126420000D02*
X194290000Y-127150000D01*
X194290000Y-127150000D02*
X194930000Y-127150000D01*
X197210000Y-127150000D02*
X197210000Y-126420000D01*
D17*
%TO.C,R32*%
X199422936Y-127065000D02*
X199877064Y-127065000D01*
X199422936Y-128535000D02*
X199877064Y-128535000D01*
%TO.C,R9*%
X143867936Y-104110000D02*
X144322064Y-104110000D01*
X143867936Y-102640000D02*
X144322064Y-102640000D01*
%TO.C,C16*%
X174388748Y-128535000D02*
X174911252Y-128535000D01*
X174388748Y-127065000D02*
X174911252Y-127065000D01*
%TO.C,D1*%
X108700000Y-113150000D02*
X108700000Y-109850000D01*
X108700000Y-113150000D02*
X101800000Y-113150000D01*
X108700000Y-109850000D02*
X101800000Y-109850000D01*
%TO.C,C44*%
X159765000Y-85538748D02*
X159765000Y-86061252D01*
X161235000Y-85538748D02*
X161235000Y-86061252D01*
%TO.C,R3*%
X157680000Y-103047936D02*
X157680000Y-103502064D01*
X156210000Y-103047936D02*
X156210000Y-103502064D01*
%TO.C,C18*%
X191588748Y-124365000D02*
X192111252Y-124365000D01*
X191588748Y-125835000D02*
X192111252Y-125835000D01*
D15*
%TO.C,U3*%
X148445000Y-101415000D02*
X152345000Y-101415000D01*
X148445000Y-111535000D02*
X152345000Y-111535000D01*
D12*
X146160000Y-101440000D02*
G75*
G03*
X146160000Y-101440000I-100000J0D01*
G01*
D17*
%TO.C,R24*%
X174877064Y-124365000D02*
X174422936Y-124365000D01*
X174877064Y-125835000D02*
X174422936Y-125835000D01*
%TO.C,J7*%
X185272080Y-132044800D02*
X185272080Y-131294800D01*
X185272080Y-131294800D02*
X184272080Y-131294800D01*
X182772080Y-132044800D02*
X182772080Y-131294800D01*
X188572080Y-131294800D02*
X186772080Y-131294800D01*
X188582080Y-131284800D02*
X180962080Y-131284800D01*
X184272080Y-131294800D02*
X184272080Y-132044800D01*
X184272080Y-132044800D02*
X185272080Y-132044800D01*
X188582080Y-137254800D02*
X188582080Y-131284800D01*
X188572080Y-132044800D02*
X188572080Y-131294800D01*
X180972080Y-133544800D02*
X181722080Y-133544800D01*
X182772080Y-131294800D02*
X180972080Y-131294800D01*
X181922080Y-130994800D02*
X180672080Y-130994800D01*
X181722080Y-133544800D02*
X181722080Y-136494800D01*
X180972080Y-132044800D02*
X182772080Y-132044800D01*
X180962080Y-131284800D02*
X180962080Y-137254800D01*
X180672080Y-130994800D02*
X180672080Y-132244800D01*
X186772080Y-131294800D02*
X186772080Y-132044800D01*
X180972080Y-131294800D02*
X180972080Y-132044800D01*
X187822080Y-136494800D02*
X184772080Y-136494800D01*
X188572080Y-133544800D02*
X187822080Y-133544800D01*
X181722080Y-136494800D02*
X184772080Y-136494800D01*
X186772080Y-132044800D02*
X188572080Y-132044800D01*
X187822080Y-133544800D02*
X187822080Y-136494800D01*
X180962080Y-137254800D02*
X188582080Y-137254800D01*
%TO.C,R55*%
X152827064Y-79365000D02*
X152372936Y-79365000D01*
X152827064Y-80835000D02*
X152372936Y-80835000D01*
D12*
%TO.C,J3*%
X163160000Y-89390000D02*
X180940000Y-89390000D01*
X161890000Y-108440000D02*
X161890000Y-90660000D01*
X182210000Y-90660000D02*
X182210000Y-109210000D01*
X181710000Y-109710000D02*
X163160000Y-109710000D01*
D18*
X181875000Y-109375000D02*
X181575000Y-109375000D01*
X181575000Y-109375000D02*
X181875000Y-109075000D01*
X181875000Y-109375000D02*
X181875000Y-109075000D01*
D12*
X161890000Y-108440000D02*
G75*
G03*
X163160000Y-109710000I1270000J0D01*
G01*
X181710000Y-109710000D02*
G75*
G03*
X182210000Y-109210000I-1J500001D01*
G01*
X163160000Y-89390000D02*
G75*
G03*
X161890000Y-90660000I0J-1270000D01*
G01*
X182210000Y-90660000D02*
G75*
G03*
X180940000Y-89390000I-1269999J1D01*
G01*
D17*
%TO.C,C1*%
X110135000Y-105638748D02*
X110135000Y-106161252D01*
X108665000Y-105638748D02*
X108665000Y-106161252D01*
%TO.C,R56*%
X152372936Y-82785000D02*
X152827064Y-82785000D01*
X152372936Y-81315000D02*
X152827064Y-81315000D01*
%TO.C,C24*%
X133061252Y-85165000D02*
X132538748Y-85165000D01*
X133061252Y-86635000D02*
X132538748Y-86635000D01*
%TO.C,Q1*%
X155580000Y-127960000D02*
X155580000Y-124800000D01*
X155580000Y-127960000D02*
X154650000Y-127960000D01*
X152420000Y-127960000D02*
X152420000Y-126500000D01*
X152420000Y-127960000D02*
X153350000Y-127960000D01*
%TO.C,C13*%
X179088748Y-124365000D02*
X179611252Y-124365000D01*
X179088748Y-125835000D02*
X179611252Y-125835000D01*
%TO.C,D3*%
X99900000Y-98600000D02*
X99900000Y-101900000D01*
X99900000Y-101900000D02*
X106800000Y-101900000D01*
X99900000Y-98600000D02*
X106800000Y-98600000D01*
%TO.C,C6*%
X125688748Y-97465000D02*
X126211252Y-97465000D01*
X125688748Y-98935000D02*
X126211252Y-98935000D01*
D12*
%TO.C,U9*%
X156125000Y-83547500D02*
G75*
G03*
X156125000Y-83547500I-100000J0D01*
G01*
D15*
X165100000Y-81307500D02*
X165100000Y-76907500D01*
X155400000Y-81307500D02*
X155400000Y-76907500D01*
D17*
%TO.C,RN3*%
X160680000Y-91700000D02*
X160680000Y-90700000D01*
X157320000Y-91700000D02*
X157320000Y-90700000D01*
%TO.C,R4*%
X123435000Y-105372936D02*
X123435000Y-105827064D01*
X121965000Y-105372936D02*
X121965000Y-105827064D01*
%TO.C,R42*%
X130685000Y-86027064D02*
X130685000Y-85572936D01*
X129215000Y-86027064D02*
X129215000Y-85572936D01*
%TO.C,C10*%
X120735000Y-105338748D02*
X120735000Y-105861252D01*
X119265000Y-105338748D02*
X119265000Y-105861252D01*
%TO.C,JP2*%
X122145000Y-81620000D02*
X124745000Y-81620000D01*
X122145000Y-84280000D02*
X122145000Y-81620000D01*
X124745000Y-84280000D02*
X124745000Y-81620000D01*
X120875000Y-84280000D02*
X119545000Y-84280000D01*
X122145000Y-84280000D02*
X124745000Y-84280000D01*
X119545000Y-84280000D02*
X119545000Y-82950000D01*
%TO.C,R45*%
X127572936Y-82785000D02*
X128027064Y-82785000D01*
X127572936Y-81315000D02*
X128027064Y-81315000D01*
%TO.C,R12*%
X179122936Y-128535000D02*
X179577064Y-128535000D01*
X179122936Y-127065000D02*
X179577064Y-127065000D01*
%TO.C,J14*%
X114745000Y-135760000D02*
X124865000Y-135760000D01*
X114745000Y-125839000D02*
X124865000Y-125839000D01*
X124865000Y-125839000D02*
X124865000Y-135760000D01*
X114745000Y-125839000D02*
X114745000Y-135760000D01*
X123375000Y-129825000D02*
X123340000Y-129861000D01*
X114745000Y-128799000D02*
X124865000Y-128799000D01*
X121078000Y-132123000D02*
X121031000Y-132169000D01*
X114745000Y-133700000D02*
X124865000Y-133700000D01*
X114505000Y-136000000D02*
X115005000Y-136000000D01*
X114745000Y-135200000D02*
X124865000Y-135200000D01*
X114505000Y-135260000D02*
X114505000Y-136000000D01*
X123580000Y-130031000D02*
X123533000Y-130077000D01*
X121271000Y-132339000D02*
X121236000Y-132374000D01*
X118840001Y-131784000D02*
G75*
G03*
X118840427Y-130416958I-1535001J684000D01*
G01*
X116621000Y-132635000D02*
G75*
G03*
X117333805Y-132780253I683999J1535001D01*
G01*
X115770000Y-130416000D02*
G75*
G03*
X115769573Y-131783042I1534993J-684001D01*
G01*
X117305000Y-132780000D02*
G75*
G03*
X117988318Y-132634756I0J1680000D01*
G01*
X117989000Y-129565000D02*
G75*
G03*
X116621958Y-129564573I-684001J-1534993D01*
G01*
X123985000Y-131100000D02*
G75*
G03*
X123985000Y-131100000I-1680000J0D01*
G01*
%TO.C,L1*%
X114397936Y-109040000D02*
X115602064Y-109040000D01*
X114397936Y-111760000D02*
X115602064Y-111760000D01*
%TO.C,R15*%
X187377064Y-124365000D02*
X186922936Y-124365000D01*
X187377064Y-125835000D02*
X186922936Y-125835000D01*
%TO.C,C41*%
X166440000Y-77348752D02*
X166440000Y-76826248D01*
X167910000Y-77348752D02*
X167910000Y-76826248D01*
%TO.C,R22*%
X172185000Y-126727064D02*
X172185000Y-126272936D01*
X170715000Y-126727064D02*
X170715000Y-126272936D01*
%TO.C,C37*%
X163235000Y-86073904D02*
X163235000Y-85551400D01*
X161765000Y-86073904D02*
X161765000Y-85551400D01*
%TO.C,RN4*%
X190230000Y-90650000D02*
X190230000Y-89650000D01*
X186870000Y-90650000D02*
X186870000Y-89650000D01*
%TO.C,R11*%
X160927064Y-125835000D02*
X160472936Y-125835000D01*
X160927064Y-124365000D02*
X160472936Y-124365000D01*
%TO.C,C14*%
X150656252Y-98740000D02*
X150133748Y-98740000D01*
X150656252Y-100210000D02*
X150133748Y-100210000D01*
%TO.C,J13*%
X170952600Y-117554800D02*
X169952600Y-117554800D01*
X174262600Y-117544800D02*
X166642600Y-117544800D01*
X172452600Y-117554800D02*
X172452600Y-118304800D01*
X166352600Y-117254800D02*
X166352600Y-118504800D01*
X169952600Y-117554800D02*
X169952600Y-118304800D01*
X167402600Y-119804800D02*
X167402600Y-122754800D01*
X174252600Y-118304800D02*
X174252600Y-117554800D01*
X174252600Y-119804800D02*
X173502600Y-119804800D01*
X166652600Y-117554800D02*
X166652600Y-118304800D01*
X169952600Y-118304800D02*
X170952600Y-118304800D01*
X173502600Y-119804800D02*
X173502600Y-122754800D01*
X166642600Y-117544800D02*
X166642600Y-123514800D01*
X174262600Y-123514800D02*
X174262600Y-117544800D01*
X166652600Y-118304800D02*
X168452600Y-118304800D01*
X166652600Y-119804800D02*
X167402600Y-119804800D01*
X167402600Y-122754800D02*
X170452600Y-122754800D01*
X168452600Y-118304800D02*
X168452600Y-117554800D01*
X168452600Y-117554800D02*
X166652600Y-117554800D01*
X167602600Y-117254800D02*
X166352600Y-117254800D01*
X173502600Y-122754800D02*
X170452600Y-122754800D01*
X172452600Y-118304800D02*
X174252600Y-118304800D01*
X170952600Y-118304800D02*
X170952600Y-117554800D01*
X174252600Y-117554800D02*
X172452600Y-117554800D01*
X166642600Y-123514800D02*
X174262600Y-123514800D01*
%TO.C,C45*%
X198271021Y-74763413D02*
X198271021Y-76833413D01*
X198711021Y-78913413D02*
X198711021Y-80825413D01*
X198311021Y-74775413D02*
X198311021Y-76833413D01*
X198751021Y-78913413D02*
X198751021Y-80807413D01*
X198751021Y-74939413D02*
X198751021Y-76833413D01*
X199151021Y-75157413D02*
X199151021Y-76833413D01*
X200031021Y-75983413D02*
X200031021Y-79763413D01*
X197430021Y-74643413D02*
X197430021Y-81103413D01*
X200231021Y-76292413D02*
X200231021Y-79454413D01*
X200471021Y-76814413D02*
X200471021Y-78932413D01*
X197670021Y-78913413D02*
X197670021Y-81091413D01*
X199031021Y-75083413D02*
X199031021Y-76833413D01*
X200271021Y-76364413D02*
X200271021Y-79382413D01*
X197830021Y-78913413D02*
X197830021Y-81074413D01*
X198391021Y-74799413D02*
X198391021Y-76833413D01*
X194204780Y-75719413D02*
X194204780Y-76349413D01*
X199471021Y-78913413D02*
X199471021Y-80357413D01*
X197710021Y-78913413D02*
X197710021Y-81088413D01*
X198591021Y-74871413D02*
X198591021Y-76833413D01*
X198791021Y-78913413D02*
X198791021Y-80789413D01*
X197870021Y-74678413D02*
X197870021Y-76833413D01*
X198911021Y-75017413D02*
X198911021Y-76833413D01*
X197870021Y-78913413D02*
X197870021Y-81068413D01*
X198471021Y-78913413D02*
X198471021Y-80920413D01*
X200511021Y-76933413D02*
X200511021Y-78813413D01*
X199591021Y-78913413D02*
X199591021Y-80253413D01*
X199151021Y-78913413D02*
X199151021Y-80589413D01*
X198271021Y-78913413D02*
X198271021Y-80983413D01*
X199551021Y-75457413D02*
X199551021Y-76833413D01*
X198431021Y-78913413D02*
X198431021Y-80934413D01*
X199111021Y-75131413D02*
X199111021Y-76833413D01*
X199631021Y-78913413D02*
X199631021Y-80216413D01*
X197790021Y-78913413D02*
X197790021Y-81079413D01*
X198951021Y-75039413D02*
X198951021Y-76833413D01*
X200151021Y-76159413D02*
X200151021Y-79587413D01*
X198111021Y-74723413D02*
X198111021Y-76833413D01*
X199831021Y-75736413D02*
X199831021Y-80010413D01*
X200431021Y-76708413D02*
X200431021Y-79038413D01*
X199111021Y-78913413D02*
X199111021Y-80615413D01*
X199591021Y-75493413D02*
X199591021Y-76833413D01*
X200071021Y-76039413D02*
X200071021Y-79707413D01*
X197990021Y-74698413D02*
X197990021Y-76833413D01*
X198831021Y-78913413D02*
X198831021Y-80769413D01*
X199351021Y-78913413D02*
X199351021Y-80451413D01*
X198711021Y-74921413D02*
X198711021Y-76833413D01*
X193889780Y-76034413D02*
X194519780Y-76034413D01*
X197390021Y-74643413D02*
X197390021Y-81103413D01*
X198191021Y-74742413D02*
X198191021Y-76833413D01*
X198471021Y-74826413D02*
X198471021Y-76833413D01*
X197510021Y-74645413D02*
X197510021Y-81101413D01*
X198551021Y-78913413D02*
X198551021Y-80891413D01*
X199911021Y-75829413D02*
X199911021Y-79917413D01*
X197670021Y-74655413D02*
X197670021Y-76833413D01*
X198551021Y-74855413D02*
X198551021Y-76833413D01*
X198151021Y-74732413D02*
X198151021Y-76833413D01*
X198831021Y-74977413D02*
X198831021Y-76833413D01*
X199791021Y-75691413D02*
X199791021Y-80055413D01*
X198511021Y-74840413D02*
X198511021Y-76833413D01*
X198070021Y-78913413D02*
X198070021Y-81032413D01*
X197710021Y-74658413D02*
X197710021Y-76833413D01*
X197790021Y-74667413D02*
X197790021Y-76833413D01*
X197750021Y-78913413D02*
X197750021Y-81084413D01*
X199231021Y-78913413D02*
X199231021Y-80537413D01*
X199271021Y-75237413D02*
X199271021Y-76833413D01*
X198791021Y-74957413D02*
X198791021Y-76833413D01*
X200631021Y-77471413D02*
X200631021Y-78275413D01*
X199351021Y-75295413D02*
X199351021Y-76833413D01*
X199431021Y-75357413D02*
X199431021Y-76833413D01*
X198591021Y-78913413D02*
X198591021Y-80875413D01*
X197910021Y-74684413D02*
X197910021Y-76833413D01*
X197990021Y-78913413D02*
X197990021Y-81048413D01*
X198991021Y-75061413D02*
X198991021Y-76833413D01*
X198991021Y-78913413D02*
X198991021Y-80685413D01*
X199991021Y-75929413D02*
X199991021Y-79817413D01*
X199191021Y-75183413D02*
X199191021Y-76833413D01*
X198631021Y-74887413D02*
X198631021Y-76833413D01*
X199031021Y-78913413D02*
X199031021Y-80663413D01*
X198951021Y-78913413D02*
X198951021Y-80707413D01*
X198911021Y-78913413D02*
X198911021Y-80729413D01*
X198231021Y-78913413D02*
X198231021Y-80994413D01*
X199271021Y-78913413D02*
X199271021Y-80509413D01*
X199071021Y-78913413D02*
X199071021Y-80639413D01*
X199391021Y-78913413D02*
X199391021Y-80421413D01*
X199071021Y-75107413D02*
X199071021Y-76833413D01*
X199191021Y-78913413D02*
X199191021Y-80563413D01*
X197750021Y-74662413D02*
X197750021Y-76833413D01*
X197630021Y-78913413D02*
X197630021Y-81095413D01*
X200551021Y-77071413D02*
X200551021Y-78675413D01*
X198231021Y-74752413D02*
X198231021Y-76833413D01*
X199671021Y-75568413D02*
X199671021Y-76833413D01*
X200191021Y-76223413D02*
X200191021Y-79523413D01*
X198871021Y-78913413D02*
X198871021Y-80749413D01*
X198030021Y-78913413D02*
X198030021Y-81040413D01*
X197590021Y-74649413D02*
X197590021Y-81097413D01*
X200391021Y-76611413D02*
X200391021Y-79135413D01*
X199751021Y-75649413D02*
X199751021Y-80097413D01*
X199711021Y-75608413D02*
X199711021Y-80138413D01*
X198191021Y-78913413D02*
X198191021Y-81004413D01*
X198871021Y-74997413D02*
X198871021Y-76833413D01*
X197950021Y-78913413D02*
X197950021Y-81055413D01*
X199671021Y-78913413D02*
X199671021Y-80178413D01*
X199551021Y-78913413D02*
X199551021Y-80289413D01*
X198351021Y-78913413D02*
X198351021Y-80959413D01*
X198431021Y-74812413D02*
X198431021Y-76833413D01*
X200311021Y-76441413D02*
X200311021Y-79305413D01*
X197630021Y-74651413D02*
X197630021Y-76833413D01*
X200591021Y-77240413D02*
X200591021Y-78506413D01*
X199311021Y-78913413D02*
X199311021Y-80480413D01*
X200111021Y-76097413D02*
X200111021Y-79649413D01*
X199311021Y-75266413D02*
X199311021Y-76833413D01*
X197470021Y-74643413D02*
X197470021Y-81103413D01*
X198631021Y-78913413D02*
X198631021Y-80859413D01*
X199431021Y-78913413D02*
X199431021Y-80389413D01*
X198111021Y-78913413D02*
X198111021Y-81023413D01*
X197550021Y-74646413D02*
X197550021Y-81100413D01*
X197830021Y-74672413D02*
X197830021Y-76833413D01*
X200351021Y-76523413D02*
X200351021Y-79223413D01*
X199471021Y-75389413D02*
X199471021Y-76833413D01*
X199951021Y-75878413D02*
X199951021Y-79868413D01*
X198671021Y-74903413D02*
X198671021Y-76833413D01*
X198151021Y-78913413D02*
X198151021Y-81014413D01*
X199631021Y-75530413D02*
X199631021Y-76833413D01*
X199511021Y-78913413D02*
X199511021Y-80323413D01*
X198030021Y-74706413D02*
X198030021Y-76833413D01*
X198351021Y-74787413D02*
X198351021Y-76833413D01*
X197910021Y-78913413D02*
X197910021Y-81062413D01*
X199871021Y-75781413D02*
X199871021Y-79965413D01*
X199391021Y-75325413D02*
X199391021Y-76833413D01*
X199511021Y-75423413D02*
X199511021Y-76833413D01*
X198311021Y-78913413D02*
X198311021Y-80971413D01*
X198391021Y-78913413D02*
X198391021Y-80947413D01*
X199231021Y-75209413D02*
X199231021Y-76833413D01*
X198070021Y-74714413D02*
X198070021Y-76833413D01*
X197950021Y-74691413D02*
X197950021Y-76833413D01*
X198511021Y-78913413D02*
X198511021Y-80906413D01*
X198671021Y-78913413D02*
X198671021Y-80843413D01*
X200660021Y-77873413D02*
G75*
G03*
X200660021Y-77873413I-3270000J0D01*
G01*
%TO.C,D2*%
X99600000Y-118450000D02*
X106900000Y-118450000D01*
X99600000Y-114150000D02*
X106900000Y-114150000D01*
X99600000Y-114150000D02*
X99600000Y-118450000D01*
%TO.C,J17*%
X118935000Y-71480000D02*
X118935000Y-65510000D01*
X106325000Y-69220000D02*
X107075000Y-69220000D01*
X118925000Y-71470000D02*
X118925000Y-70720000D01*
X119225000Y-71770000D02*
X119225000Y-70520000D01*
X108125000Y-70720000D02*
X106325000Y-70720000D01*
X107075000Y-66270000D02*
X112625000Y-66270000D01*
X115625000Y-70720000D02*
X109625000Y-70720000D01*
X117125000Y-70720000D02*
X117125000Y-71470000D01*
X118175000Y-69220000D02*
X118175000Y-66270000D01*
X107075000Y-69220000D02*
X107075000Y-66270000D01*
X106325000Y-70720000D02*
X106325000Y-71470000D01*
X109625000Y-70720000D02*
X109625000Y-71470000D01*
X117125000Y-71470000D02*
X118925000Y-71470000D01*
X108125000Y-71470000D02*
X108125000Y-70720000D01*
X115625000Y-71470000D02*
X115625000Y-70720000D01*
X109625000Y-71470000D02*
X115625000Y-71470000D01*
X106315000Y-71480000D02*
X118935000Y-71480000D01*
X118925000Y-69220000D02*
X118175000Y-69220000D01*
X106315000Y-65510000D02*
X106315000Y-71480000D01*
X118925000Y-70720000D02*
X117125000Y-70720000D01*
X118935000Y-65510000D02*
X106315000Y-65510000D01*
X118175000Y-66270000D02*
X112625000Y-66270000D01*
X117975000Y-71770000D02*
X119225000Y-71770000D01*
X106325000Y-71470000D02*
X108125000Y-71470000D01*
%TO.C,R43*%
X103227064Y-79365000D02*
X102772936Y-79365000D01*
X103227064Y-80835000D02*
X102772936Y-80835000D01*
D15*
%TO.C,U8*%
X190025000Y-81318413D02*
X190025000Y-76918413D01*
X180325000Y-81318413D02*
X180325000Y-76918413D01*
D12*
X181050000Y-83558413D02*
G75*
G03*
X181050000Y-83558413I-100000J0D01*
G01*
D17*
%TO.C,C15*%
X167338748Y-128535000D02*
X167861252Y-128535000D01*
X167338748Y-127065000D02*
X167861252Y-127065000D01*
%TO.C,C31*%
X124308621Y-75359000D02*
X124308621Y-76835000D01*
X124948621Y-76041000D02*
X124948621Y-79709000D01*
X122467621Y-74651000D02*
X122467621Y-81099000D01*
X123068621Y-78915000D02*
X123068621Y-81006000D01*
X124228621Y-75297000D02*
X124228621Y-76835000D01*
X122907621Y-78915000D02*
X122907621Y-81042000D01*
X123228621Y-78915000D02*
X123228621Y-80961000D01*
X124388621Y-78915000D02*
X124388621Y-80325000D01*
X122267621Y-74645000D02*
X122267621Y-81105000D01*
X122547621Y-78915000D02*
X122547621Y-81093000D01*
X124748621Y-75783000D02*
X124748621Y-79967000D01*
X125188621Y-76443000D02*
X125188621Y-79307000D01*
X125428621Y-77073000D02*
X125428621Y-78677000D01*
X123548621Y-74905000D02*
X123548621Y-76835000D01*
X122988621Y-74725000D02*
X122988621Y-76835000D01*
X124108621Y-78915000D02*
X124108621Y-80539000D01*
X118767380Y-76036000D02*
X119397380Y-76036000D01*
X125348621Y-76816000D02*
X125348621Y-78934000D01*
X122747621Y-74680000D02*
X122747621Y-76835000D01*
X125108621Y-76294000D02*
X125108621Y-79456000D01*
X122707621Y-78915000D02*
X122707621Y-81076000D01*
X125388621Y-76935000D02*
X125388621Y-78815000D01*
X123268621Y-74801000D02*
X123268621Y-76835000D01*
X123028621Y-74734000D02*
X123028621Y-76835000D01*
X123268621Y-78915000D02*
X123268621Y-80949000D01*
X124148621Y-75239000D02*
X124148621Y-76835000D01*
X122587621Y-74660000D02*
X122587621Y-76835000D01*
X123748621Y-78915000D02*
X123748621Y-80751000D01*
X123668621Y-74959000D02*
X123668621Y-76835000D01*
X123908621Y-75085000D02*
X123908621Y-76835000D01*
X123308621Y-74814000D02*
X123308621Y-76835000D01*
X123188621Y-78915000D02*
X123188621Y-80973000D01*
X124148621Y-78915000D02*
X124148621Y-80511000D01*
X123708621Y-78915000D02*
X123708621Y-80771000D01*
X125228621Y-76525000D02*
X125228621Y-79225000D01*
X124268621Y-78915000D02*
X124268621Y-80423000D01*
X122947621Y-74716000D02*
X122947621Y-76835000D01*
X122587621Y-78915000D02*
X122587621Y-81090000D01*
X124548621Y-78915000D02*
X124548621Y-80180000D01*
X125468621Y-77242000D02*
X125468621Y-78508000D01*
X122627621Y-74664000D02*
X122627621Y-76835000D01*
X124388621Y-75425000D02*
X124388621Y-76835000D01*
X124068621Y-75185000D02*
X124068621Y-76835000D01*
X123788621Y-75019000D02*
X123788621Y-76835000D01*
X123828621Y-75041000D02*
X123828621Y-76835000D01*
X122307621Y-74645000D02*
X122307621Y-81105000D01*
X124628621Y-75651000D02*
X124628621Y-80099000D01*
X124708621Y-75738000D02*
X124708621Y-80012000D01*
X122947621Y-78915000D02*
X122947621Y-81034000D01*
X123228621Y-74789000D02*
X123228621Y-76835000D01*
X123988621Y-78915000D02*
X123988621Y-80617000D01*
X123308621Y-78915000D02*
X123308621Y-80936000D01*
X122507621Y-74653000D02*
X122507621Y-76835000D01*
X123948621Y-78915000D02*
X123948621Y-80641000D01*
X123868621Y-78915000D02*
X123868621Y-80687000D01*
X124108621Y-75211000D02*
X124108621Y-76835000D01*
X124068621Y-78915000D02*
X124068621Y-80565000D01*
X123148621Y-78915000D02*
X123148621Y-80985000D01*
X123388621Y-74842000D02*
X123388621Y-76835000D01*
X124348621Y-78915000D02*
X124348621Y-80359000D01*
X123428621Y-78915000D02*
X123428621Y-80893000D01*
X123508621Y-78915000D02*
X123508621Y-80861000D01*
X123108621Y-74754000D02*
X123108621Y-76835000D01*
X124188621Y-75268000D02*
X124188621Y-76835000D01*
X122347621Y-74645000D02*
X122347621Y-81105000D01*
X123508621Y-74889000D02*
X123508621Y-76835000D01*
X122827621Y-74693000D02*
X122827621Y-76835000D01*
X124028621Y-78915000D02*
X124028621Y-80591000D01*
X122827621Y-78915000D02*
X122827621Y-81057000D01*
X123708621Y-74979000D02*
X123708621Y-76835000D01*
X123348621Y-74828000D02*
X123348621Y-76835000D01*
X123948621Y-75109000D02*
X123948621Y-76835000D01*
X123588621Y-78915000D02*
X123588621Y-80827000D01*
X123868621Y-75063000D02*
X123868621Y-76835000D01*
X125068621Y-76225000D02*
X125068621Y-79525000D01*
X122867621Y-74700000D02*
X122867621Y-76835000D01*
X124428621Y-78915000D02*
X124428621Y-80291000D01*
X124428621Y-75459000D02*
X124428621Y-76835000D01*
X122907621Y-74708000D02*
X122907621Y-76835000D01*
X123748621Y-74999000D02*
X123748621Y-76835000D01*
X125028621Y-76161000D02*
X125028621Y-79589000D01*
X122507621Y-78915000D02*
X122507621Y-81097000D01*
X123108621Y-78915000D02*
X123108621Y-80996000D01*
X123628621Y-74941000D02*
X123628621Y-76835000D01*
X123468621Y-78915000D02*
X123468621Y-80877000D01*
X124668621Y-75693000D02*
X124668621Y-80057000D01*
X123668621Y-78915000D02*
X123668621Y-80791000D01*
X123068621Y-74744000D02*
X123068621Y-76835000D01*
X123028621Y-78915000D02*
X123028621Y-81016000D01*
X125508621Y-77473000D02*
X125508621Y-78277000D01*
X123588621Y-74923000D02*
X123588621Y-76835000D01*
X123428621Y-74857000D02*
X123428621Y-76835000D01*
X119082380Y-75721000D02*
X119082380Y-76351000D01*
X124788621Y-75831000D02*
X124788621Y-79919000D01*
X122627621Y-78915000D02*
X122627621Y-81086000D01*
X122427621Y-74648000D02*
X122427621Y-81102000D01*
X124988621Y-76099000D02*
X124988621Y-79651000D01*
X122988621Y-78915000D02*
X122988621Y-81025000D01*
X124308621Y-78915000D02*
X124308621Y-80391000D01*
X124828621Y-75880000D02*
X124828621Y-79870000D01*
X124908621Y-75985000D02*
X124908621Y-79765000D01*
X124548621Y-75570000D02*
X124548621Y-76835000D01*
X122387621Y-74647000D02*
X122387621Y-81103000D01*
X124268621Y-75327000D02*
X124268621Y-76835000D01*
X124508621Y-75532000D02*
X124508621Y-76835000D01*
X124868621Y-75931000D02*
X124868621Y-79819000D01*
X124028621Y-75159000D02*
X124028621Y-76835000D01*
X123908621Y-78915000D02*
X123908621Y-80665000D01*
X123988621Y-75133000D02*
X123988621Y-76835000D01*
X122787621Y-74686000D02*
X122787621Y-76835000D01*
X123788621Y-78915000D02*
X123788621Y-80731000D01*
X122707621Y-74674000D02*
X122707621Y-76835000D01*
X124468621Y-75495000D02*
X124468621Y-76835000D01*
X125308621Y-76710000D02*
X125308621Y-79040000D01*
X123388621Y-78915000D02*
X123388621Y-80908000D01*
X124348621Y-75391000D02*
X124348621Y-76835000D01*
X122747621Y-78915000D02*
X122747621Y-81070000D01*
X123148621Y-74765000D02*
X123148621Y-76835000D01*
X124468621Y-78915000D02*
X124468621Y-80255000D01*
X124508621Y-78915000D02*
X124508621Y-80218000D01*
X124588621Y-75610000D02*
X124588621Y-80140000D01*
X122667621Y-74669000D02*
X122667621Y-76835000D01*
X123468621Y-74873000D02*
X123468621Y-76835000D01*
X123628621Y-78915000D02*
X123628621Y-80809000D01*
X123348621Y-78915000D02*
X123348621Y-80922000D01*
X122867621Y-78915000D02*
X122867621Y-81050000D01*
X122547621Y-74657000D02*
X122547621Y-76835000D01*
X124188621Y-78915000D02*
X124188621Y-80482000D01*
X122667621Y-78915000D02*
X122667621Y-81081000D01*
X123188621Y-74777000D02*
X123188621Y-76835000D01*
X123828621Y-78915000D02*
X123828621Y-80709000D01*
X122787621Y-78915000D02*
X122787621Y-81064000D01*
X125148621Y-76366000D02*
X125148621Y-79384000D01*
X124228621Y-78915000D02*
X124228621Y-80453000D01*
X123548621Y-78915000D02*
X123548621Y-80845000D01*
X125268621Y-76613000D02*
X125268621Y-79137000D01*
X125537621Y-77875000D02*
G75*
G03*
X125537621Y-77875000I-3270000J0D01*
G01*
%TO.C,J10*%
X184412600Y-122754900D02*
X180112600Y-122754900D01*
X185172600Y-117544900D02*
X175052600Y-117544900D01*
X175062600Y-117554900D02*
X175062600Y-118304900D01*
X175052600Y-123514900D02*
X185172600Y-123514900D01*
X185172600Y-123514900D02*
X185172600Y-117544900D01*
X175062600Y-118304900D02*
X176862600Y-118304900D01*
X176862600Y-118304900D02*
X176862600Y-117554900D01*
X174762600Y-117254900D02*
X174762600Y-118504900D01*
X184412600Y-119804900D02*
X184412600Y-122754900D01*
X185162600Y-118304900D02*
X185162600Y-117554900D01*
X175812600Y-119804900D02*
X175812600Y-122754900D01*
X183362600Y-118304900D02*
X185162600Y-118304900D01*
X175052600Y-117544900D02*
X175052600Y-123514900D01*
X176862600Y-117554900D02*
X175062600Y-117554900D01*
X185162600Y-117554900D02*
X183362600Y-117554900D01*
X178362600Y-118304900D02*
X181862600Y-118304900D01*
X181862600Y-117554900D02*
X178362600Y-117554900D01*
X176012600Y-117254900D02*
X174762600Y-117254900D01*
X175062600Y-119804900D02*
X175812600Y-119804900D01*
X175812600Y-122754900D02*
X180112600Y-122754900D01*
X183362600Y-117554900D02*
X183362600Y-118304900D01*
X185162600Y-119804900D02*
X184412600Y-119804900D01*
X181862600Y-118304900D02*
X181862600Y-117554900D01*
X178362600Y-117554900D02*
X178362600Y-118304900D01*
%TO.C,JP4*%
X195850000Y-84278413D02*
X194520000Y-84278413D01*
X197120000Y-84278413D02*
X199720000Y-84278413D01*
X197120000Y-81618413D02*
X199720000Y-81618413D01*
X194520000Y-84278413D02*
X194520000Y-82948413D01*
X199720000Y-84278413D02*
X199720000Y-81618413D01*
X197120000Y-84278413D02*
X197120000Y-81618413D01*
%TO.C,C25*%
X118135000Y-77361252D02*
X118135000Y-76838748D01*
X116665000Y-77361252D02*
X116665000Y-76838748D01*
%TO.C,RN2*%
X140530000Y-90650000D02*
X140530000Y-89650000D01*
X137170000Y-90650000D02*
X137170000Y-89650000D01*
%TO.C,C43*%
X184665000Y-85538748D02*
X184665000Y-86061252D01*
X186135000Y-85538748D02*
X186135000Y-86061252D01*
%TO.C,R47*%
X177727064Y-78885000D02*
X177272936Y-78885000D01*
X177727064Y-77415000D02*
X177272936Y-77415000D01*
%TO.C,C26*%
X116665000Y-80888748D02*
X116665000Y-81411252D01*
X118135000Y-80888748D02*
X118135000Y-81411252D01*
%TO.C,C4*%
X117935000Y-105638748D02*
X117935000Y-106161252D01*
X116465000Y-105638748D02*
X116465000Y-106161252D01*
%TO.C,J1*%
X101435000Y-125940000D02*
X101435000Y-136060000D01*
X107370000Y-134570000D02*
X107334000Y-134535000D01*
X101995000Y-125940000D02*
X101995000Y-136060000D01*
X111356000Y-125940000D02*
X101435000Y-125940000D01*
X103495000Y-125940000D02*
X103495000Y-136060000D01*
X111356000Y-125940000D02*
X111356000Y-136060000D01*
X101195000Y-125700000D02*
X101195000Y-126200000D01*
X104856000Y-132466000D02*
X104821000Y-132431000D01*
X108396000Y-125940000D02*
X108396000Y-136060000D01*
X101935000Y-125700000D02*
X101195000Y-125700000D01*
X111356000Y-136060000D02*
X101435000Y-136060000D01*
X107164000Y-134775000D02*
X107118000Y-134728000D01*
X105072000Y-132273000D02*
X105026000Y-132226000D01*
X104560000Y-127816000D02*
G75*
G03*
X104414747Y-128528805I1535001J-683999D01*
G01*
X104415000Y-128500000D02*
G75*
G03*
X104560244Y-129183318I1680000J0D01*
G01*
X106779000Y-126965000D02*
G75*
G03*
X105411958Y-126964573I-684001J-1534993D01*
G01*
X105411000Y-130035001D02*
G75*
G03*
X106778042Y-130035427I684000J1535001D01*
G01*
X107630000Y-129184000D02*
G75*
G03*
X107630427Y-127816958I-1534993J684001D01*
G01*
X107775000Y-133500000D02*
G75*
G03*
X107775000Y-133500000I-1680000J0D01*
G01*
%TO.C,R19*%
X129827064Y-120235000D02*
X129372936Y-120235000D01*
X129827064Y-118765000D02*
X129372936Y-118765000D01*
%TO.C,C20*%
X140435000Y-86073904D02*
X140435000Y-85551400D01*
X138965000Y-86073904D02*
X138965000Y-85551400D01*
%TO.C,R44*%
X128027064Y-80835000D02*
X127572936Y-80835000D01*
X128027064Y-79365000D02*
X127572936Y-79365000D01*
%TO.C,C30*%
X136435000Y-85538748D02*
X136435000Y-86061252D01*
X134965000Y-85538748D02*
X134965000Y-86061252D01*
%TO.C,R14*%
X185922500Y-114227064D02*
X185922500Y-113772936D01*
X184452500Y-114227064D02*
X184452500Y-113772936D01*
D15*
%TO.C,U5*%
X133705000Y-122875000D02*
X137605000Y-122875000D01*
X133705000Y-117825000D02*
X137605000Y-117825000D01*
D12*
X131310000Y-117875000D02*
G75*
G03*
X131310000Y-117875000I-100000J0D01*
G01*
D17*
%TO.C,C22*%
X108261252Y-85165000D02*
X107738748Y-85165000D01*
X108261252Y-86635000D02*
X107738748Y-86635000D01*
%TO.C,C28*%
X143085000Y-80882161D02*
X143085000Y-81404665D01*
X141615000Y-80882161D02*
X141615000Y-81404665D01*
%TO.C,C33*%
X188665000Y-86073904D02*
X188665000Y-85551400D01*
X190135000Y-86073904D02*
X190135000Y-85551400D01*
%TO.C,R54*%
X177272936Y-82785000D02*
X177727064Y-82785000D01*
X177272936Y-81315000D02*
X177727064Y-81315000D01*
%TO.C,R23*%
X167827064Y-124365000D02*
X167372936Y-124365000D01*
X167827064Y-125835000D02*
X167372936Y-125835000D01*
%TO.C,R52*%
X155485000Y-86027064D02*
X155485000Y-85572936D01*
X154015000Y-86027064D02*
X154015000Y-85572936D01*
%TO.C,J6*%
X155760520Y-137254880D02*
X163380520Y-137254880D01*
X156520520Y-133544880D02*
X156520520Y-136494880D01*
X155770520Y-132044880D02*
X157570520Y-132044880D01*
X163370520Y-131294880D02*
X161570520Y-131294880D01*
X155470520Y-130994880D02*
X155470520Y-132244880D01*
X155770520Y-131294880D02*
X155770520Y-132044880D01*
X162620520Y-133544880D02*
X162620520Y-136494880D01*
X162620520Y-136494880D02*
X159570520Y-136494880D01*
X163370520Y-132044880D02*
X163370520Y-131294880D01*
X156520520Y-136494880D02*
X159570520Y-136494880D01*
X159070520Y-131294880D02*
X159070520Y-132044880D01*
X163380520Y-137254880D02*
X163380520Y-131284880D01*
X160070520Y-131294880D02*
X159070520Y-131294880D01*
X155760520Y-131284880D02*
X155760520Y-137254880D01*
X161570520Y-132044880D02*
X163370520Y-132044880D01*
X163380520Y-131284880D02*
X155760520Y-131284880D01*
X159070520Y-132044880D02*
X160070520Y-132044880D01*
X161570520Y-131294880D02*
X161570520Y-132044880D01*
X157570520Y-132044880D02*
X157570520Y-131294880D01*
X163370520Y-133544880D02*
X162620520Y-133544880D01*
X155770520Y-133544880D02*
X156520520Y-133544880D01*
X156720520Y-130994880D02*
X155470520Y-130994880D01*
X160070520Y-132044880D02*
X160070520Y-131294880D01*
X157570520Y-131294880D02*
X155770520Y-131294880D01*
%TO.C,R25*%
X191622936Y-128485000D02*
X192077064Y-128485000D01*
X191622936Y-127015000D02*
X192077064Y-127015000D01*
%TO.C,C40*%
X192885000Y-80887161D02*
X192885000Y-81409665D01*
X191415000Y-80887161D02*
X191415000Y-81409665D01*
%TO.C,J16*%
X195172600Y-131294840D02*
X195172600Y-132044840D01*
X189372600Y-131294840D02*
X189372600Y-132044840D01*
X195172600Y-132044840D02*
X196972600Y-132044840D01*
X190122600Y-133544840D02*
X190122600Y-136494840D01*
X196972600Y-132044840D02*
X196972600Y-131294840D01*
X196222600Y-136494840D02*
X193172600Y-136494840D01*
X189372600Y-132044840D02*
X191172600Y-132044840D01*
X191172600Y-131294840D02*
X189372600Y-131294840D01*
X196222600Y-133544840D02*
X196222600Y-136494840D01*
X196982600Y-131284840D02*
X189362600Y-131284840D01*
X196972600Y-131294840D02*
X195172600Y-131294840D01*
X193672600Y-131294840D02*
X192672600Y-131294840D01*
X189372600Y-133544840D02*
X190122600Y-133544840D01*
X193672600Y-132044840D02*
X193672600Y-131294840D01*
X189362600Y-137254840D02*
X196982600Y-137254840D01*
X190322600Y-130994840D02*
X189072600Y-130994840D01*
X192672600Y-131294840D02*
X192672600Y-132044840D01*
X189362600Y-131284840D02*
X189362600Y-137254840D01*
X189072600Y-130994840D02*
X189072600Y-132244840D01*
X190122600Y-136494840D02*
X193172600Y-136494840D01*
X192672600Y-132044840D02*
X193672600Y-132044840D01*
X196972600Y-133544840D02*
X196222600Y-133544840D01*
X191172600Y-132044840D02*
X191172600Y-131294840D01*
X196982600Y-137254840D02*
X196982600Y-131284840D01*
%TO.C,C42*%
X167910000Y-80876248D02*
X167910000Y-81398752D01*
X166440000Y-80876248D02*
X166440000Y-81398752D01*
%TO.C,Q3*%
X176530000Y-114910000D02*
X176530000Y-111750000D01*
X176530000Y-114910000D02*
X175600000Y-114910000D01*
X173370000Y-114910000D02*
X174300000Y-114910000D01*
X173370000Y-114910000D02*
X173370000Y-113450000D01*
%TO.C,C29*%
X111635000Y-85538748D02*
X111635000Y-86061252D01*
X110165000Y-85538748D02*
X110165000Y-86061252D01*
%TO.C,J11*%
X154220000Y-136495000D02*
X151170000Y-136495000D01*
X148120000Y-133545000D02*
X148120000Y-136495000D01*
X147360000Y-131285000D02*
X147360000Y-137255000D01*
X148120000Y-136495000D02*
X151170000Y-136495000D01*
X154980000Y-137255000D02*
X154980000Y-131285000D01*
X151670000Y-132045000D02*
X151670000Y-131295000D01*
X149170000Y-132045000D02*
X149170000Y-131295000D01*
X147360000Y-137255000D02*
X154980000Y-137255000D01*
X149170000Y-131295000D02*
X147370000Y-131295000D01*
X153170000Y-131295000D02*
X153170000Y-132045000D01*
X150670000Y-131295000D02*
X150670000Y-132045000D01*
X148320000Y-130995000D02*
X147070000Y-130995000D01*
X153170000Y-132045000D02*
X154970000Y-132045000D01*
X147370000Y-132045000D02*
X149170000Y-132045000D01*
X147070000Y-130995000D02*
X147070000Y-132245000D01*
X154970000Y-132045000D02*
X154970000Y-131295000D01*
X154970000Y-133545000D02*
X154220000Y-133545000D01*
X151670000Y-131295000D02*
X150670000Y-131295000D01*
X154220000Y-133545000D02*
X154220000Y-136495000D01*
X147370000Y-131295000D02*
X147370000Y-132045000D01*
X154970000Y-131295000D02*
X153170000Y-131295000D01*
X154980000Y-131285000D02*
X147360000Y-131285000D01*
X147370000Y-133545000D02*
X148120000Y-133545000D01*
X150670000Y-132045000D02*
X151670000Y-132045000D01*
%TO.C,C35*%
X186665000Y-86073904D02*
X186665000Y-85551400D01*
X188135000Y-86073904D02*
X188135000Y-85551400D01*
%TO.C,R30*%
X179272936Y-113215000D02*
X179727064Y-113215000D01*
X179272936Y-114685000D02*
X179727064Y-114685000D01*
%TO.C,R21*%
X165035000Y-126727064D02*
X165035000Y-126272936D01*
X163565000Y-126727064D02*
X163565000Y-126272936D01*
%TO.C,R27*%
X149977064Y-126915000D02*
X149522936Y-126915000D01*
X149977064Y-128385000D02*
X149522936Y-128385000D01*
%TO.C,C5*%
X183015000Y-102588748D02*
X183015000Y-103111252D01*
X184485000Y-102588748D02*
X184485000Y-103111252D01*
%TO.C,R7*%
X143867936Y-109160000D02*
X144322064Y-109160000D01*
X143867936Y-107690000D02*
X144322064Y-107690000D01*
%TO.C,C46*%
X172735000Y-78915000D02*
X172735000Y-81057000D01*
X173176000Y-78915000D02*
X173176000Y-80949000D01*
X174616000Y-75738000D02*
X174616000Y-80012000D01*
X174416000Y-75532000D02*
X174416000Y-76835000D01*
X173856000Y-78915000D02*
X173856000Y-80641000D01*
X173336000Y-74857000D02*
X173336000Y-76835000D01*
X174336000Y-78915000D02*
X174336000Y-80291000D01*
X172415000Y-78915000D02*
X172415000Y-81097000D01*
X173976000Y-78915000D02*
X173976000Y-80565000D01*
X173296000Y-74842000D02*
X173296000Y-76835000D01*
X174016000Y-75211000D02*
X174016000Y-76835000D01*
X173936000Y-78915000D02*
X173936000Y-80591000D01*
X173536000Y-78915000D02*
X173536000Y-80809000D01*
X172335000Y-74648000D02*
X172335000Y-81102000D01*
X172695000Y-78915000D02*
X172695000Y-81064000D01*
X175296000Y-76935000D02*
X175296000Y-78815000D01*
X175256000Y-76816000D02*
X175256000Y-78934000D01*
X172215000Y-74645000D02*
X172215000Y-81105000D01*
X174256000Y-78915000D02*
X174256000Y-80359000D01*
X174936000Y-76161000D02*
X174936000Y-79589000D01*
X173536000Y-74941000D02*
X173536000Y-76835000D01*
X173456000Y-74905000D02*
X173456000Y-76835000D01*
X174296000Y-75425000D02*
X174296000Y-76835000D01*
X172575000Y-74669000D02*
X172575000Y-76835000D01*
X174776000Y-75931000D02*
X174776000Y-79819000D01*
X172855000Y-74716000D02*
X172855000Y-76835000D01*
X173096000Y-78915000D02*
X173096000Y-80973000D01*
X173616000Y-74979000D02*
X173616000Y-76835000D01*
X174976000Y-76225000D02*
X174976000Y-79525000D01*
X172415000Y-74653000D02*
X172415000Y-76835000D01*
X174456000Y-75570000D02*
X174456000Y-76835000D01*
X173856000Y-75109000D02*
X173856000Y-76835000D01*
X173576000Y-74959000D02*
X173576000Y-76835000D01*
X174056000Y-78915000D02*
X174056000Y-80511000D01*
X174376000Y-75495000D02*
X174376000Y-76835000D01*
X173136000Y-74789000D02*
X173136000Y-76835000D01*
X173896000Y-78915000D02*
X173896000Y-80617000D01*
X173496000Y-78915000D02*
X173496000Y-80827000D01*
X172695000Y-74686000D02*
X172695000Y-76835000D01*
X173656000Y-78915000D02*
X173656000Y-80751000D01*
X174056000Y-75239000D02*
X174056000Y-76835000D01*
X173216000Y-78915000D02*
X173216000Y-80936000D01*
X173256000Y-74828000D02*
X173256000Y-76835000D01*
X174376000Y-78915000D02*
X174376000Y-80255000D01*
X174696000Y-75831000D02*
X174696000Y-79919000D01*
X172815000Y-74708000D02*
X172815000Y-76835000D01*
X173816000Y-78915000D02*
X173816000Y-80665000D01*
X172375000Y-74651000D02*
X172375000Y-81099000D01*
X172535000Y-74664000D02*
X172535000Y-76835000D01*
X172936000Y-74734000D02*
X172936000Y-76835000D01*
X174256000Y-75391000D02*
X174256000Y-76835000D01*
X172575000Y-78915000D02*
X172575000Y-81081000D01*
X173416000Y-78915000D02*
X173416000Y-80861000D01*
X172495000Y-74660000D02*
X172495000Y-76835000D01*
X175416000Y-77473000D02*
X175416000Y-78277000D01*
X172735000Y-74693000D02*
X172735000Y-76835000D01*
X172855000Y-78915000D02*
X172855000Y-81034000D01*
X174296000Y-78915000D02*
X174296000Y-80325000D01*
X173016000Y-74754000D02*
X173016000Y-76835000D01*
X172455000Y-78915000D02*
X172455000Y-81093000D01*
X174136000Y-75297000D02*
X174136000Y-76835000D01*
X174216000Y-75359000D02*
X174216000Y-76835000D01*
X168674759Y-76036000D02*
X169304759Y-76036000D01*
X174136000Y-78915000D02*
X174136000Y-80453000D01*
X175216000Y-76710000D02*
X175216000Y-79040000D01*
X175056000Y-76366000D02*
X175056000Y-79384000D01*
X174216000Y-78915000D02*
X174216000Y-80391000D01*
X172896000Y-74725000D02*
X172896000Y-76835000D01*
X173096000Y-74777000D02*
X173096000Y-76835000D01*
X172775000Y-74700000D02*
X172775000Y-76835000D01*
X174176000Y-78915000D02*
X174176000Y-80423000D01*
X173576000Y-78915000D02*
X173576000Y-80791000D01*
X175176000Y-76613000D02*
X175176000Y-79137000D01*
X173616000Y-78915000D02*
X173616000Y-80771000D01*
X174496000Y-75610000D02*
X174496000Y-80140000D01*
X174816000Y-75985000D02*
X174816000Y-79765000D01*
X175136000Y-76525000D02*
X175136000Y-79225000D01*
X173336000Y-78915000D02*
X173336000Y-80893000D01*
X172615000Y-78915000D02*
X172615000Y-81076000D01*
X173136000Y-78915000D02*
X173136000Y-80961000D01*
X173416000Y-74889000D02*
X173416000Y-76835000D01*
X175096000Y-76443000D02*
X175096000Y-79307000D01*
X172295000Y-74647000D02*
X172295000Y-81103000D01*
X173656000Y-74999000D02*
X173656000Y-76835000D01*
X172455000Y-74657000D02*
X172455000Y-76835000D01*
X173736000Y-78915000D02*
X173736000Y-80709000D01*
X172655000Y-74680000D02*
X172655000Y-76835000D01*
X175376000Y-77242000D02*
X175376000Y-78508000D01*
X173016000Y-78915000D02*
X173016000Y-80996000D01*
X174336000Y-75459000D02*
X174336000Y-76835000D01*
X173256000Y-78915000D02*
X173256000Y-80922000D01*
X172175000Y-74645000D02*
X172175000Y-81105000D01*
X172976000Y-74744000D02*
X172976000Y-76835000D01*
X175336000Y-77073000D02*
X175336000Y-78677000D01*
X173736000Y-75041000D02*
X173736000Y-76835000D01*
X174176000Y-75327000D02*
X174176000Y-76835000D01*
X173696000Y-78915000D02*
X173696000Y-80731000D01*
X172255000Y-74645000D02*
X172255000Y-81105000D01*
X173456000Y-78915000D02*
X173456000Y-80845000D01*
X173496000Y-74923000D02*
X173496000Y-76835000D01*
X172815000Y-78915000D02*
X172815000Y-81042000D01*
X174576000Y-75693000D02*
X174576000Y-80057000D01*
X173056000Y-78915000D02*
X173056000Y-80985000D01*
X173776000Y-78915000D02*
X173776000Y-80687000D01*
X173056000Y-74765000D02*
X173056000Y-76835000D01*
X173176000Y-74801000D02*
X173176000Y-76835000D01*
X175016000Y-76294000D02*
X175016000Y-79456000D01*
X174656000Y-75783000D02*
X174656000Y-79967000D01*
X174856000Y-76041000D02*
X174856000Y-79709000D01*
X168989759Y-75721000D02*
X168989759Y-76351000D01*
X174016000Y-78915000D02*
X174016000Y-80539000D01*
X172535000Y-78915000D02*
X172535000Y-81086000D01*
X172775000Y-78915000D02*
X172775000Y-81050000D01*
X172615000Y-74674000D02*
X172615000Y-76835000D01*
X173816000Y-75085000D02*
X173816000Y-76835000D01*
X173376000Y-78915000D02*
X173376000Y-80877000D01*
X172976000Y-78915000D02*
X172976000Y-81006000D01*
X174536000Y-75651000D02*
X174536000Y-80099000D01*
X173776000Y-75063000D02*
X173776000Y-76835000D01*
X172655000Y-78915000D02*
X172655000Y-81070000D01*
X172936000Y-78915000D02*
X172936000Y-81016000D01*
X173976000Y-75185000D02*
X173976000Y-76835000D01*
X172896000Y-78915000D02*
X172896000Y-81025000D01*
X173216000Y-74814000D02*
X173216000Y-76835000D01*
X173376000Y-74873000D02*
X173376000Y-76835000D01*
X174096000Y-75268000D02*
X174096000Y-76835000D01*
X173296000Y-78915000D02*
X173296000Y-80908000D01*
X173696000Y-75019000D02*
X173696000Y-76835000D01*
X174736000Y-75880000D02*
X174736000Y-79870000D01*
X173936000Y-75159000D02*
X173936000Y-76835000D01*
X172495000Y-78915000D02*
X172495000Y-81090000D01*
X174896000Y-76099000D02*
X174896000Y-79651000D01*
X174416000Y-78915000D02*
X174416000Y-80218000D01*
X174456000Y-78915000D02*
X174456000Y-80180000D01*
X174096000Y-78915000D02*
X174096000Y-80482000D01*
X173896000Y-75133000D02*
X173896000Y-76835000D01*
X175445000Y-77875000D02*
G75*
G03*
X175445000Y-77875000I-3270000J0D01*
G01*
D12*
%TO.C,U7*%
X131350000Y-83553413D02*
G75*
G03*
X131350000Y-83553413I-100000J0D01*
G01*
D15*
X130625000Y-81313413D02*
X130625000Y-76913413D01*
X140325000Y-81313413D02*
X140325000Y-76913413D01*
D17*
%TO.C,C39*%
X191415000Y-77359665D02*
X191415000Y-76837161D01*
X192885000Y-77359665D02*
X192885000Y-76837161D01*
%TO.C,R46*%
X102772936Y-81315000D02*
X103227064Y-81315000D01*
X102772936Y-82785000D02*
X103227064Y-82785000D01*
%TO.C,R20*%
X188614564Y-113435000D02*
X188160436Y-113435000D01*
X188614564Y-111965000D02*
X188160436Y-111965000D01*
%TO.C,J20*%
X181325000Y-70720000D02*
X179525000Y-70720000D01*
X170525000Y-71470000D02*
X170525000Y-70720000D01*
X168715000Y-65510000D02*
X168715000Y-71480000D01*
X172025000Y-71470000D02*
X178025000Y-71470000D01*
X181335000Y-65510000D02*
X168715000Y-65510000D01*
X169475000Y-66270000D02*
X175025000Y-66270000D01*
X181335000Y-71480000D02*
X181335000Y-65510000D01*
X169475000Y-69220000D02*
X169475000Y-66270000D01*
X168725000Y-69220000D02*
X169475000Y-69220000D01*
X168725000Y-71470000D02*
X170525000Y-71470000D01*
X180375000Y-71770000D02*
X181625000Y-71770000D01*
X181325000Y-69220000D02*
X180575000Y-69220000D01*
X179525000Y-70720000D02*
X179525000Y-71470000D01*
X168725000Y-70720000D02*
X168725000Y-71470000D01*
X170525000Y-70720000D02*
X168725000Y-70720000D01*
X181325000Y-71470000D02*
X181325000Y-70720000D01*
X172025000Y-70720000D02*
X172025000Y-71470000D01*
X178025000Y-70720000D02*
X172025000Y-70720000D01*
X181625000Y-71770000D02*
X181625000Y-70520000D01*
X168715000Y-71480000D02*
X181335000Y-71480000D01*
X180575000Y-69220000D02*
X180575000Y-66270000D01*
X179525000Y-71470000D02*
X181325000Y-71470000D01*
X180575000Y-66270000D02*
X175025000Y-66270000D01*
X178025000Y-71470000D02*
X178025000Y-70720000D01*
%TO.C,J21*%
X163475000Y-71470000D02*
X163475000Y-70720000D01*
X167075000Y-71770000D02*
X167075000Y-70520000D01*
X166775000Y-69220000D02*
X166025000Y-69220000D01*
X164975000Y-71470000D02*
X166775000Y-71470000D01*
X154925000Y-66270000D02*
X160475000Y-66270000D01*
X157475000Y-71470000D02*
X163475000Y-71470000D01*
X154165000Y-71480000D02*
X166785000Y-71480000D01*
X166775000Y-70720000D02*
X164975000Y-70720000D01*
X154165000Y-65510000D02*
X154165000Y-71480000D01*
X154175000Y-71470000D02*
X155975000Y-71470000D01*
X166025000Y-69220000D02*
X166025000Y-66270000D01*
X166025000Y-66270000D02*
X160475000Y-66270000D01*
X166785000Y-71480000D02*
X166785000Y-65510000D01*
X155975000Y-70720000D02*
X154175000Y-70720000D01*
X154175000Y-70720000D02*
X154175000Y-71470000D01*
X166775000Y-71470000D02*
X166775000Y-70720000D01*
X166785000Y-65510000D02*
X154165000Y-65510000D01*
X165825000Y-71770000D02*
X167075000Y-71770000D01*
X154175000Y-69220000D02*
X154925000Y-69220000D01*
X164975000Y-70720000D02*
X164975000Y-71470000D01*
X154925000Y-69220000D02*
X154925000Y-66270000D01*
X163475000Y-70720000D02*
X157475000Y-70720000D01*
X155975000Y-71470000D02*
X155975000Y-70720000D01*
X157475000Y-70720000D02*
X157475000Y-71470000D01*
%TO.C,R34*%
X159272936Y-97735000D02*
X159727064Y-97735000D01*
X159272936Y-96265000D02*
X159727064Y-96265000D01*
%TO.C,R26*%
X149977064Y-124315000D02*
X149522936Y-124315000D01*
X149977064Y-125785000D02*
X149522936Y-125785000D01*
%TO.C,R53*%
X177727064Y-80835000D02*
X177272936Y-80835000D01*
X177727064Y-79365000D02*
X177272936Y-79365000D01*
%TO.C,R40*%
X128027064Y-75465000D02*
X127572936Y-75465000D01*
X128027064Y-76935000D02*
X127572936Y-76935000D01*
%TO.C,R50*%
X152827064Y-75465000D02*
X152372936Y-75465000D01*
X152827064Y-76935000D02*
X152372936Y-76935000D01*
%TO.C,R5*%
X124465000Y-105827064D02*
X124465000Y-105372936D01*
X125935000Y-105827064D02*
X125935000Y-105372936D01*
%TO.C,C27*%
X143085000Y-77354665D02*
X143085000Y-76832161D01*
X141615000Y-77354665D02*
X141615000Y-76832161D01*
%TO.C,C38*%
X157861252Y-86635000D02*
X157338748Y-86635000D01*
X157861252Y-85165000D02*
X157338748Y-85165000D01*
%TO.C,R13*%
X186922936Y-127065000D02*
X187377064Y-127065000D01*
X186922936Y-128535000D02*
X187377064Y-128535000D01*
%TO.C,C34*%
X165235000Y-86073904D02*
X165235000Y-85551400D01*
X163765000Y-86073904D02*
X163765000Y-85551400D01*
%TO.C,R8*%
X143867936Y-105090000D02*
X144322064Y-105090000D01*
X143867936Y-106560000D02*
X144322064Y-106560000D01*
%TO.C,J8*%
X171771040Y-133544920D02*
X171021040Y-133544920D01*
X164921040Y-136494920D02*
X167971040Y-136494920D01*
X163871040Y-130994920D02*
X163871040Y-132244920D01*
X171021040Y-133544920D02*
X171021040Y-136494920D01*
X165971040Y-131294920D02*
X164171040Y-131294920D01*
X164161040Y-131284920D02*
X164161040Y-137254920D01*
X171771040Y-132044920D02*
X171771040Y-131294920D01*
X167471040Y-131294920D02*
X167471040Y-132044920D01*
X171781040Y-137254920D02*
X171781040Y-131284920D01*
X169971040Y-131294920D02*
X169971040Y-132044920D01*
X164171040Y-132044920D02*
X165971040Y-132044920D01*
X164921040Y-133544920D02*
X164921040Y-136494920D01*
X164171040Y-133544920D02*
X164921040Y-133544920D01*
X164161040Y-137254920D02*
X171781040Y-137254920D01*
X167471040Y-132044920D02*
X168471040Y-132044920D01*
X168471040Y-131294920D02*
X167471040Y-131294920D01*
X171771040Y-131294920D02*
X169971040Y-131294920D01*
X168471040Y-132044920D02*
X168471040Y-131294920D01*
X165971040Y-132044920D02*
X165971040Y-131294920D01*
X171781040Y-131284920D02*
X164161040Y-131284920D01*
X171021040Y-136494920D02*
X167971040Y-136494920D01*
X165121040Y-130994920D02*
X163871040Y-130994920D01*
X169971040Y-132044920D02*
X171771040Y-132044920D01*
X164171040Y-131294920D02*
X164171040Y-132044920D01*
%TO.C,R35*%
X154972936Y-93965000D02*
X155427064Y-93965000D01*
X154972936Y-95435000D02*
X155427064Y-95435000D01*
%TO.C,C32*%
X148608621Y-74882413D02*
X148608621Y-76828413D01*
X149008621Y-78908413D02*
X149008621Y-80658413D01*
X149128621Y-78908413D02*
X149128621Y-80584413D01*
X149768621Y-75686413D02*
X149768621Y-80050413D01*
X147967621Y-74693413D02*
X147967621Y-76828413D01*
X150528621Y-77066413D02*
X150528621Y-78670413D01*
X148488621Y-74835413D02*
X148488621Y-76828413D01*
X148968621Y-78908413D02*
X148968621Y-80680413D01*
X147687621Y-74653413D02*
X147687621Y-76828413D01*
X148288621Y-74770413D02*
X148288621Y-76828413D01*
X148928621Y-78908413D02*
X148928621Y-80702413D01*
X150608621Y-77466413D02*
X150608621Y-78270413D01*
X147647621Y-78908413D02*
X147647621Y-81086413D01*
X148488621Y-78908413D02*
X148488621Y-80901413D01*
X149728621Y-75644413D02*
X149728621Y-80092413D01*
X147847621Y-74673413D02*
X147847621Y-76828413D01*
X149288621Y-78908413D02*
X149288621Y-80475413D01*
X149328621Y-75290413D02*
X149328621Y-76828413D01*
X149848621Y-75776413D02*
X149848621Y-79960413D01*
X149408621Y-78908413D02*
X149408621Y-80384413D01*
X150408621Y-76703413D02*
X150408621Y-79033413D01*
X147927621Y-74686413D02*
X147927621Y-76828413D01*
X148047621Y-78908413D02*
X148047621Y-81027413D01*
X148047621Y-74709413D02*
X148047621Y-76828413D01*
X147767621Y-74662413D02*
X147767621Y-76828413D01*
X148608621Y-78908413D02*
X148608621Y-80854413D01*
X147847621Y-78908413D02*
X147847621Y-81063413D01*
X148768621Y-78908413D02*
X148768621Y-80784413D01*
X148007621Y-78908413D02*
X148007621Y-81035413D01*
X147447621Y-74638413D02*
X147447621Y-81098413D01*
X147607621Y-78908413D02*
X147607621Y-81090413D01*
X149248621Y-78908413D02*
X149248621Y-80504413D01*
X148768621Y-74952413D02*
X148768621Y-76828413D01*
X143867380Y-76029413D02*
X144497380Y-76029413D01*
X148168621Y-74737413D02*
X148168621Y-76828413D01*
X149688621Y-75603413D02*
X149688621Y-80133413D01*
X148368621Y-74794413D02*
X148368621Y-76828413D01*
X148248621Y-78908413D02*
X148248621Y-80978413D01*
X148088621Y-74718413D02*
X148088621Y-76828413D01*
X149328621Y-78908413D02*
X149328621Y-80446413D01*
X149088621Y-75126413D02*
X149088621Y-76828413D01*
X149968621Y-75924413D02*
X149968621Y-79812413D01*
X149408621Y-75352413D02*
X149408621Y-76828413D01*
X149168621Y-78908413D02*
X149168621Y-80558413D01*
X147767621Y-78908413D02*
X147767621Y-81074413D01*
X147967621Y-78908413D02*
X147967621Y-81043413D01*
X150488621Y-76928413D02*
X150488621Y-78808413D01*
X148848621Y-74992413D02*
X148848621Y-76828413D01*
X148808621Y-78908413D02*
X148808621Y-80764413D01*
X149608621Y-78908413D02*
X149608621Y-80211413D01*
X149608621Y-75525413D02*
X149608621Y-76828413D01*
X148528621Y-74850413D02*
X148528621Y-76828413D01*
X148007621Y-74701413D02*
X148007621Y-76828413D01*
X149808621Y-75731413D02*
X149808621Y-80005413D01*
X149648621Y-78908413D02*
X149648621Y-80173413D01*
X148808621Y-74972413D02*
X148808621Y-76828413D01*
X147647621Y-74650413D02*
X147647621Y-76828413D01*
X148928621Y-75034413D02*
X148928621Y-76828413D01*
X150168621Y-76218413D02*
X150168621Y-79518413D01*
X149168621Y-75178413D02*
X149168621Y-76828413D01*
X147727621Y-74657413D02*
X147727621Y-76828413D01*
X148648621Y-74898413D02*
X148648621Y-76828413D01*
X149648621Y-75563413D02*
X149648621Y-76828413D01*
X148688621Y-78908413D02*
X148688621Y-80820413D01*
X148408621Y-78908413D02*
X148408621Y-80929413D01*
X149528621Y-78908413D02*
X149528621Y-80284413D01*
X149488621Y-75418413D02*
X149488621Y-76828413D01*
X149568621Y-75488413D02*
X149568621Y-76828413D01*
X149448621Y-78908413D02*
X149448621Y-80352413D01*
X148328621Y-74782413D02*
X148328621Y-76828413D01*
X149008621Y-75078413D02*
X149008621Y-76828413D01*
X149888621Y-75824413D02*
X149888621Y-79912413D01*
X150208621Y-76287413D02*
X150208621Y-79449413D01*
X150568621Y-77235413D02*
X150568621Y-78501413D01*
X148128621Y-78908413D02*
X148128621Y-81009413D01*
X149128621Y-75152413D02*
X149128621Y-76828413D01*
X149568621Y-78908413D02*
X149568621Y-80248413D01*
X149208621Y-75204413D02*
X149208621Y-76828413D01*
X147887621Y-78908413D02*
X147887621Y-81057413D01*
X147727621Y-78908413D02*
X147727621Y-81079413D01*
X150368621Y-76606413D02*
X150368621Y-79130413D01*
X148728621Y-74934413D02*
X148728621Y-76828413D01*
X147527621Y-74641413D02*
X147527621Y-81095413D01*
X147607621Y-74646413D02*
X147607621Y-76828413D01*
X147807621Y-78908413D02*
X147807621Y-81069413D01*
X149248621Y-75232413D02*
X149248621Y-76828413D01*
X148888621Y-75012413D02*
X148888621Y-76828413D01*
X147687621Y-78908413D02*
X147687621Y-81083413D01*
X150128621Y-76154413D02*
X150128621Y-79582413D01*
X148408621Y-74807413D02*
X148408621Y-76828413D01*
X148168621Y-78908413D02*
X148168621Y-80999413D01*
X149088621Y-78908413D02*
X149088621Y-80610413D01*
X148368621Y-78908413D02*
X148368621Y-80942413D01*
X148848621Y-78908413D02*
X148848621Y-80744413D01*
X150088621Y-76092413D02*
X150088621Y-79644413D01*
X148888621Y-78908413D02*
X148888621Y-80724413D01*
X148968621Y-75056413D02*
X148968621Y-76828413D01*
X147807621Y-74667413D02*
X147807621Y-76828413D01*
X148568621Y-78908413D02*
X148568621Y-80870413D01*
X149528621Y-75452413D02*
X149528621Y-76828413D01*
X147367621Y-74638413D02*
X147367621Y-81098413D01*
X150448621Y-76809413D02*
X150448621Y-78927413D01*
X148648621Y-78908413D02*
X148648621Y-80838413D01*
X148528621Y-78908413D02*
X148528621Y-80886413D01*
X147887621Y-74679413D02*
X147887621Y-76828413D01*
X149448621Y-75384413D02*
X149448621Y-76828413D01*
X144182380Y-75714413D02*
X144182380Y-76344413D01*
X147927621Y-78908413D02*
X147927621Y-81050413D01*
X148448621Y-74821413D02*
X148448621Y-76828413D01*
X148208621Y-78908413D02*
X148208621Y-80989413D01*
X150288621Y-76436413D02*
X150288621Y-79300413D01*
X149488621Y-78908413D02*
X149488621Y-80318413D01*
X149048621Y-75102413D02*
X149048621Y-76828413D01*
X147487621Y-74640413D02*
X147487621Y-81096413D01*
X149208621Y-78908413D02*
X149208621Y-80532413D01*
X148568621Y-74866413D02*
X148568621Y-76828413D01*
X150248621Y-76359413D02*
X150248621Y-79377413D01*
X150328621Y-76518413D02*
X150328621Y-79218413D01*
X148688621Y-74916413D02*
X148688621Y-76828413D01*
X147567621Y-74644413D02*
X147567621Y-81092413D01*
X148288621Y-78908413D02*
X148288621Y-80966413D01*
X148448621Y-78908413D02*
X148448621Y-80915413D01*
X148088621Y-78908413D02*
X148088621Y-81018413D01*
X150048621Y-76034413D02*
X150048621Y-79702413D01*
X149368621Y-75320413D02*
X149368621Y-76828413D01*
X149368621Y-78908413D02*
X149368621Y-80416413D01*
X148728621Y-78908413D02*
X148728621Y-80802413D01*
X147407621Y-74638413D02*
X147407621Y-81098413D01*
X148128621Y-74727413D02*
X148128621Y-76828413D01*
X149048621Y-78908413D02*
X149048621Y-80634413D01*
X148248621Y-74758413D02*
X148248621Y-76828413D01*
X150008621Y-75978413D02*
X150008621Y-79758413D01*
X148328621Y-78908413D02*
X148328621Y-80954413D01*
X149288621Y-75261413D02*
X149288621Y-76828413D01*
X149928621Y-75873413D02*
X149928621Y-79863413D01*
X148208621Y-74747413D02*
X148208621Y-76828413D01*
X150637621Y-77868413D02*
G75*
G03*
X150637621Y-77868413I-3270000J0D01*
G01*
%TO.C,R38*%
X103227064Y-76935000D02*
X102772936Y-76935000D01*
X103227064Y-75465000D02*
X102772936Y-75465000D01*
%TO.C,R16*%
X117827064Y-122835000D02*
X117372936Y-122835000D01*
X117827064Y-121365000D02*
X117372936Y-121365000D01*
%TO.C,C2*%
X112735000Y-105638748D02*
X112735000Y-106161252D01*
X111265000Y-105638748D02*
X111265000Y-106161252D01*
%TO.C,C7*%
X169338748Y-111935000D02*
X169861252Y-111935000D01*
X169338748Y-110465000D02*
X169861252Y-110465000D01*
D12*
%TO.C,D4*%
X184300000Y-123900000D02*
G75*
G03*
X184300000Y-123900000I-100000J0D01*
G01*
D15*
X184710000Y-127050000D02*
X184710000Y-126320000D01*
X181790000Y-127050000D02*
X182430000Y-127050000D01*
X181790000Y-126320000D02*
X181790000Y-127050000D01*
X184070000Y-127050000D02*
X184710000Y-127050000D01*
D17*
%TO.C,R36*%
X154972936Y-96265000D02*
X155427064Y-96265000D01*
X154972936Y-97735000D02*
X155427064Y-97735000D01*
%TO.C,C36*%
X182761252Y-86635000D02*
X182238748Y-86635000D01*
X182761252Y-85165000D02*
X182238748Y-85165000D01*
%TO.C,JP3*%
X147220000Y-84273413D02*
X149820000Y-84273413D01*
X149820000Y-84273413D02*
X149820000Y-81613413D01*
X145950000Y-84273413D02*
X144620000Y-84273413D01*
X147220000Y-81613413D02*
X149820000Y-81613413D01*
X147220000Y-84273413D02*
X147220000Y-81613413D01*
X144620000Y-84273413D02*
X144620000Y-82943413D01*
D15*
%TO.C,U6*%
X115525000Y-81320000D02*
X115525000Y-76920000D01*
X105825000Y-81320000D02*
X105825000Y-76920000D01*
D12*
X106550000Y-83560000D02*
G75*
G03*
X106550000Y-83560000I-100000J0D01*
G01*
D17*
%TO.C,J15*%
X136365000Y-125839000D02*
X136365000Y-135760000D01*
X134875000Y-129825000D02*
X134840000Y-129861000D01*
X126245000Y-128799000D02*
X136365000Y-128799000D01*
X126245000Y-135760000D02*
X136365000Y-135760000D01*
X132578000Y-132123000D02*
X132531000Y-132169000D01*
X126245000Y-125839000D02*
X136365000Y-125839000D01*
X132771000Y-132339000D02*
X132736000Y-132374000D01*
X126005000Y-136000000D02*
X126505000Y-136000000D01*
X126245000Y-135200000D02*
X136365000Y-135200000D01*
X135080000Y-130031000D02*
X135033000Y-130077000D01*
X126005000Y-135260000D02*
X126005000Y-136000000D01*
X126245000Y-125839000D02*
X126245000Y-135760000D01*
X126245000Y-133700000D02*
X136365000Y-133700000D01*
X128121000Y-132635000D02*
G75*
G03*
X128833805Y-132780253I683999J1535001D01*
G01*
X129489000Y-129565000D02*
G75*
G03*
X128121958Y-129564573I-684001J-1534993D01*
G01*
X130340001Y-131784000D02*
G75*
G03*
X130340427Y-130416958I-1535001J684000D01*
G01*
X127270000Y-130416000D02*
G75*
G03*
X127269573Y-131783042I1534993J-684001D01*
G01*
X128805000Y-132780000D02*
G75*
G03*
X129488318Y-132634756I0J1680000D01*
G01*
X135485000Y-131100000D02*
G75*
G03*
X135485000Y-131100000I-1680000J0D01*
G01*
%TO.C,R2*%
X183015000Y-107677064D02*
X183015000Y-107222936D01*
X184485000Y-107677064D02*
X184485000Y-107222936D01*
%TO.C,R33*%
X199877064Y-125835000D02*
X199422936Y-125835000D01*
X199877064Y-124365000D02*
X199422936Y-124365000D01*
%TO.C,R41*%
X105885000Y-86027064D02*
X105885000Y-85572936D01*
X104415000Y-86027064D02*
X104415000Y-85572936D01*
%TO.C,C12*%
X160438748Y-128535000D02*
X160961252Y-128535000D01*
X160438748Y-127065000D02*
X160961252Y-127065000D01*
%TO.C,JP5*%
X172045000Y-84280000D02*
X172045000Y-81620000D01*
X174645000Y-84280000D02*
X174645000Y-81620000D01*
X170775000Y-84280000D02*
X169445000Y-84280000D01*
X172045000Y-81620000D02*
X174645000Y-81620000D01*
X172045000Y-84280000D02*
X174645000Y-84280000D01*
X169445000Y-84280000D02*
X169445000Y-82950000D01*
%TO.C,J5*%
X185970000Y-117555000D02*
X185970000Y-118305000D01*
X186720000Y-122755000D02*
X193520000Y-122755000D01*
X200320000Y-122755000D02*
X193520000Y-122755000D01*
X201070000Y-118305000D02*
X201070000Y-117555000D01*
X199270000Y-117555000D02*
X199270000Y-118305000D01*
X185960000Y-117545000D02*
X185960000Y-123515000D01*
X201080000Y-123515000D02*
X201080000Y-117545000D01*
X187770000Y-117555000D02*
X185970000Y-117555000D01*
X197770000Y-117555000D02*
X189270000Y-117555000D01*
X199270000Y-118305000D02*
X201070000Y-118305000D01*
X185960000Y-123515000D02*
X201080000Y-123515000D01*
X185670000Y-117255000D02*
X185670000Y-118505000D01*
X201080000Y-117545000D02*
X185960000Y-117545000D01*
X187770000Y-118305000D02*
X187770000Y-117555000D01*
X185970000Y-118305000D02*
X187770000Y-118305000D01*
X185970000Y-119805000D02*
X186720000Y-119805000D01*
X200320000Y-119805000D02*
X200320000Y-122755000D01*
X197770000Y-118305000D02*
X197770000Y-117555000D01*
X189270000Y-118305000D02*
X197770000Y-118305000D01*
X201070000Y-119805000D02*
X200320000Y-119805000D01*
X201070000Y-117555000D02*
X199270000Y-117555000D01*
X186720000Y-119805000D02*
X186720000Y-122755000D01*
X186920000Y-117255000D02*
X185670000Y-117255000D01*
X189270000Y-117555000D02*
X189270000Y-118305000D01*
%TO.C,R51*%
X178915000Y-86027064D02*
X178915000Y-85572936D01*
X180385000Y-86027064D02*
X180385000Y-85572936D01*
%TO.C,R48*%
X177727064Y-76935000D02*
X177272936Y-76935000D01*
X177727064Y-75465000D02*
X177272936Y-75465000D01*
%TO.C,R39*%
X128027064Y-77415000D02*
X127572936Y-77415000D01*
X128027064Y-78885000D02*
X127572936Y-78885000D01*
%TO.C,C23*%
X138435000Y-86073904D02*
X138435000Y-85551400D01*
X136965000Y-86073904D02*
X136965000Y-85551400D01*
%TO.C,C9*%
X111435000Y-110611252D02*
X111435000Y-110088748D01*
X109965000Y-110611252D02*
X109965000Y-110088748D01*
%TO.C,J19*%
X152575000Y-69220000D02*
X151825000Y-69220000D01*
X139975000Y-70720000D02*
X139975000Y-71470000D01*
X143275000Y-71470000D02*
X149275000Y-71470000D01*
X152575000Y-70720000D02*
X150775000Y-70720000D01*
X141775000Y-70720000D02*
X139975000Y-70720000D01*
X151825000Y-66270000D02*
X146275000Y-66270000D01*
X150775000Y-70720000D02*
X150775000Y-71470000D01*
X141775000Y-71470000D02*
X141775000Y-70720000D01*
X150775000Y-71470000D02*
X152575000Y-71470000D01*
X149275000Y-71470000D02*
X149275000Y-70720000D01*
X140725000Y-69220000D02*
X140725000Y-66270000D01*
X152875000Y-71770000D02*
X152875000Y-70520000D01*
X152585000Y-65510000D02*
X139965000Y-65510000D01*
X151625000Y-71770000D02*
X152875000Y-71770000D01*
X139965000Y-65510000D02*
X139965000Y-71480000D01*
X143275000Y-70720000D02*
X143275000Y-71470000D01*
X140725000Y-66270000D02*
X146275000Y-66270000D01*
X139965000Y-71480000D02*
X152585000Y-71480000D01*
X149275000Y-70720000D02*
X143275000Y-70720000D01*
X139975000Y-71470000D02*
X141775000Y-71470000D01*
X152575000Y-71470000D02*
X152575000Y-70720000D01*
X139975000Y-69220000D02*
X140725000Y-69220000D01*
X152585000Y-71480000D02*
X152585000Y-65510000D01*
X151825000Y-69220000D02*
X151825000Y-66270000D01*
%TO.C,J18*%
X137375000Y-66270000D02*
X131825000Y-66270000D01*
X125525000Y-70720000D02*
X125525000Y-71470000D01*
X137375000Y-69220000D02*
X137375000Y-66270000D01*
X126275000Y-66270000D02*
X131825000Y-66270000D01*
X134825000Y-70720000D02*
X128825000Y-70720000D01*
X127325000Y-70720000D02*
X125525000Y-70720000D01*
X128825000Y-71470000D02*
X134825000Y-71470000D01*
X125515000Y-65510000D02*
X125515000Y-71480000D01*
X125525000Y-69220000D02*
X126275000Y-69220000D01*
X136325000Y-70720000D02*
X136325000Y-71470000D01*
X127325000Y-71470000D02*
X127325000Y-70720000D01*
X138125000Y-70720000D02*
X136325000Y-70720000D01*
X138125000Y-71470000D02*
X138125000Y-70720000D01*
X138135000Y-65510000D02*
X125515000Y-65510000D01*
X136325000Y-71470000D02*
X138125000Y-71470000D01*
X138125000Y-69220000D02*
X137375000Y-69220000D01*
X137175000Y-71770000D02*
X138425000Y-71770000D01*
X125515000Y-71480000D02*
X138135000Y-71480000D01*
X126275000Y-69220000D02*
X126275000Y-66270000D01*
X134825000Y-71470000D02*
X134825000Y-70720000D01*
X138135000Y-71480000D02*
X138135000Y-65510000D01*
X125525000Y-71470000D02*
X127325000Y-71470000D01*
X138425000Y-71770000D02*
X138425000Y-70520000D01*
X128825000Y-70720000D02*
X128825000Y-71470000D01*
%TO.C,C21*%
X113635000Y-86073904D02*
X113635000Y-85551400D01*
X112165000Y-86073904D02*
X112165000Y-85551400D01*
%TO.C,JP1*%
X185770000Y-101445000D02*
X187100000Y-101445000D01*
X185770000Y-104045000D02*
X185770000Y-106645000D01*
X185770000Y-102775000D02*
X185770000Y-101445000D01*
X185770000Y-104045000D02*
X188430000Y-104045000D01*
X185770000Y-106645000D02*
X188430000Y-106645000D01*
X188430000Y-104045000D02*
X188430000Y-106645000D01*
%TO.C,J12*%
X161550000Y-118275000D02*
X162550000Y-118275000D01*
X164050000Y-118275000D02*
X165850000Y-118275000D01*
X165860000Y-123485000D02*
X165860000Y-117515000D01*
X165850000Y-119775000D02*
X165100000Y-119775000D01*
X164050000Y-117525000D02*
X164050000Y-118275000D01*
X165100000Y-119775000D02*
X165100000Y-122725000D01*
X165860000Y-117515000D02*
X158240000Y-117515000D01*
X162550000Y-118275000D02*
X162550000Y-117525000D01*
X158250000Y-118275000D02*
X160050000Y-118275000D01*
X161550000Y-117525000D02*
X161550000Y-118275000D01*
X165850000Y-117525000D02*
X164050000Y-117525000D01*
X158250000Y-117525000D02*
X158250000Y-118275000D01*
X159200000Y-117225000D02*
X157950000Y-117225000D01*
X160050000Y-117525000D02*
X158250000Y-117525000D01*
X162550000Y-117525000D02*
X161550000Y-117525000D01*
X158250000Y-119775000D02*
X159000000Y-119775000D01*
X160050000Y-118275000D02*
X160050000Y-117525000D01*
X158240000Y-117515000D02*
X158240000Y-123485000D01*
X159000000Y-119775000D02*
X159000000Y-122725000D01*
X157950000Y-117225000D02*
X157950000Y-118475000D01*
X159000000Y-122725000D02*
X162050000Y-122725000D01*
X165100000Y-122725000D02*
X162050000Y-122725000D01*
X165850000Y-118275000D02*
X165850000Y-117525000D01*
X158240000Y-123485000D02*
X165860000Y-123485000D01*
%TO.C,R1*%
X191965000Y-96872936D02*
X191965000Y-97327064D01*
X193435000Y-96872936D02*
X193435000Y-97327064D01*
%TD*%
M02*
