%TF.GenerationSoftware,KiCad,Pcbnew,(6.0.6)*%
%TF.CreationDate,2022-09-07T20:29:45-05:00*%
%TF.ProjectId,rp2040-board,72703230-3430-42d6-926f-6172642e6b69,rev?*%
%TF.SameCoordinates,Original*%
%TF.FileFunction,Copper,L1,Top*%
%TF.FilePolarity,Positive*%
%FSLAX46Y46*%
G04 Gerber Fmt 4.6, Leading zero omitted, Abs format (unit mm)*
G04 Created by KiCad (PCBNEW (6.0.6)) date 2022-09-07 20:29:45*
%MOMM*%
%LPD*%
G01*
G04 APERTURE LIST*
G04 Aperture macros list*
%AMRoundRect*
0 Rectangle with rounded corners*
0 $1 Rounding radius*
0 $2 $3 $4 $5 $6 $7 $8 $9 X,Y pos of 4 corners*
0 Add a 4 corners polygon primitive as box body*
4,1,4,$2,$3,$4,$5,$6,$7,$8,$9,$2,$3,0*
0 Add four circle primitives for the rounded corners*
1,1,$1+$1,$2,$3*
1,1,$1+$1,$4,$5*
1,1,$1+$1,$6,$7*
1,1,$1+$1,$8,$9*
0 Add four rect primitives between the rounded corners*
20,1,$1+$1,$2,$3,$4,$5,0*
20,1,$1+$1,$4,$5,$6,$7,0*
20,1,$1+$1,$6,$7,$8,$9,0*
20,1,$1+$1,$8,$9,$2,$3,0*%
G04 Aperture macros list end*
%TA.AperFunction,Profile*%
%ADD10C,0.025400*%
%TD*%
%TA.AperFunction,SMDPad,CuDef*%
%ADD11RoundRect,0.093000X0.562000X-0.372000X0.562000X0.372000X-0.562000X0.372000X-0.562000X-0.372000X0*%
%TD*%
%TA.AperFunction,SMDPad,CuDef*%
%ADD12RoundRect,0.131000X0.524000X-1.489000X0.524000X1.489000X-0.524000X1.489000X-0.524000X-1.489000X0*%
%TD*%
%TA.AperFunction,ComponentPad*%
%ADD13R,1.337000X1.337000*%
%TD*%
%TA.AperFunction,ComponentPad*%
%ADD14C,1.337000*%
%TD*%
%TA.AperFunction,SMDPad,CuDef*%
%ADD15RoundRect,0.250000X0.350000X0.450000X-0.350000X0.450000X-0.350000X-0.450000X0.350000X-0.450000X0*%
%TD*%
%TA.AperFunction,ComponentPad*%
%ADD16R,1.600000X1.600000*%
%TD*%
%TA.AperFunction,ComponentPad*%
%ADD17C,1.600000*%
%TD*%
%TA.AperFunction,SMDPad,CuDef*%
%ADD18O,1.803400X0.990600*%
%TD*%
%TA.AperFunction,SMDPad,CuDef*%
%ADD19O,2.108200X0.990600*%
%TD*%
%TA.AperFunction,ComponentPad*%
%ADD20C,0.660400*%
%TD*%
%TA.AperFunction,SMDPad,CuDef*%
%ADD21R,1.143000X0.584200*%
%TD*%
%TA.AperFunction,SMDPad,CuDef*%
%ADD22R,1.143000X0.304800*%
%TD*%
%TA.AperFunction,SMDPad,CuDef*%
%ADD23RoundRect,0.250000X1.450000X-0.400000X1.450000X0.400000X-1.450000X0.400000X-1.450000X-0.400000X0*%
%TD*%
%TA.AperFunction,SMDPad,CuDef*%
%ADD24RoundRect,0.042000X-0.943000X-0.258000X0.943000X-0.258000X0.943000X0.258000X-0.943000X0.258000X0*%
%TD*%
%TA.AperFunction,SMDPad,CuDef*%
%ADD25RoundRect,0.250000X-0.337500X-0.475000X0.337500X-0.475000X0.337500X0.475000X-0.337500X0.475000X0*%
%TD*%
%TA.AperFunction,SMDPad,CuDef*%
%ADD26RoundRect,0.250000X-0.475000X0.337500X-0.475000X-0.337500X0.475000X-0.337500X0.475000X0.337500X0*%
%TD*%
%TA.AperFunction,SMDPad,CuDef*%
%ADD27RoundRect,0.250000X-0.350000X-0.450000X0.350000X-0.450000X0.350000X0.450000X-0.350000X0.450000X0*%
%TD*%
%TA.AperFunction,SMDPad,CuDef*%
%ADD28RoundRect,0.250000X0.475000X-0.337500X0.475000X0.337500X-0.475000X0.337500X-0.475000X-0.337500X0*%
%TD*%
%TA.AperFunction,SMDPad,CuDef*%
%ADD29R,0.500000X0.800000*%
%TD*%
%TA.AperFunction,SMDPad,CuDef*%
%ADD30R,0.400000X0.800000*%
%TD*%
%TA.AperFunction,SMDPad,CuDef*%
%ADD31RoundRect,0.006000X-0.769000X-0.294000X0.769000X-0.294000X0.769000X0.294000X-0.769000X0.294000X0*%
%TD*%
%TA.AperFunction,SMDPad,CuDef*%
%ADD32R,2.950000X4.900000*%
%TD*%
%TA.AperFunction,ComponentPad*%
%ADD33C,0.300000*%
%TD*%
%TA.AperFunction,SMDPad,CuDef*%
%ADD34RoundRect,0.250000X0.450000X-0.350000X0.450000X0.350000X-0.450000X0.350000X-0.450000X-0.350000X0*%
%TD*%
%TA.AperFunction,SMDPad,CuDef*%
%ADD35RoundRect,0.250000X-0.450000X0.350000X-0.450000X-0.350000X0.450000X-0.350000X0.450000X0.350000X0*%
%TD*%
%TA.AperFunction,ComponentPad*%
%ADD36R,1.700000X1.700000*%
%TD*%
%TA.AperFunction,ComponentPad*%
%ADD37O,1.700000X1.700000*%
%TD*%
%TA.AperFunction,SMDPad,CuDef*%
%ADD38R,0.800000X1.900000*%
%TD*%
%TA.AperFunction,ComponentPad*%
%ADD39RoundRect,0.250000X-0.600000X-0.750000X0.600000X-0.750000X0.600000X0.750000X-0.600000X0.750000X0*%
%TD*%
%TA.AperFunction,ComponentPad*%
%ADD40O,1.700000X2.000000*%
%TD*%
%TA.AperFunction,SMDPad,CuDef*%
%ADD41R,1.000000X1.400000*%
%TD*%
%TA.AperFunction,SMDPad,CuDef*%
%ADD42R,3.500000X1.800000*%
%TD*%
%TA.AperFunction,SMDPad,CuDef*%
%ADD43RoundRect,0.041300X-0.833700X-0.253700X0.833700X-0.253700X0.833700X0.253700X-0.833700X0.253700X0*%
%TD*%
%TA.AperFunction,ComponentPad*%
%ADD44C,1.778000*%
%TD*%
%TA.AperFunction,SMDPad,CuDef*%
%ADD45RoundRect,0.250000X0.337500X0.475000X-0.337500X0.475000X-0.337500X-0.475000X0.337500X-0.475000X0*%
%TD*%
%TA.AperFunction,SMDPad,CuDef*%
%ADD46RoundRect,0.020000X0.180000X-0.760000X0.180000X0.760000X-0.180000X0.760000X-0.180000X-0.760000X0*%
%TD*%
%TA.AperFunction,SMDPad,CuDef*%
%ADD47R,6.200000X2.750000*%
%TD*%
%TA.AperFunction,ComponentPad*%
%ADD48R,2.600000X2.600000*%
%TD*%
%TA.AperFunction,ComponentPad*%
%ADD49C,2.600000*%
%TD*%
%TA.AperFunction,SMDPad,CuDef*%
%ADD50RoundRect,0.250001X-0.462499X-1.074999X0.462499X-1.074999X0.462499X1.074999X-0.462499X1.074999X0*%
%TD*%
%TA.AperFunction,SMDPad,CuDef*%
%ADD51R,3.500000X2.300000*%
%TD*%
%TA.AperFunction,ComponentPad*%
%ADD52RoundRect,0.250000X0.600000X0.725000X-0.600000X0.725000X-0.600000X-0.725000X0.600000X-0.725000X0*%
%TD*%
%TA.AperFunction,ComponentPad*%
%ADD53O,1.700000X1.950000*%
%TD*%
%TA.AperFunction,ComponentPad*%
%ADD54RoundRect,0.250000X-0.600000X-0.725000X0.600000X-0.725000X0.600000X0.725000X-0.600000X0.725000X0*%
%TD*%
%TA.AperFunction,ViaPad*%
%ADD55C,0.500000*%
%TD*%
%TA.AperFunction,ViaPad*%
%ADD56C,2.500000*%
%TD*%
%TA.AperFunction,ViaPad*%
%ADD57C,0.800000*%
%TD*%
%TA.AperFunction,ViaPad*%
%ADD58C,1.300000*%
%TD*%
%TA.AperFunction,ViaPad*%
%ADD59C,1.000000*%
%TD*%
%TA.AperFunction,ViaPad*%
%ADD60C,1.200000*%
%TD*%
%TA.AperFunction,ViaPad*%
%ADD61C,0.600000*%
%TD*%
%TA.AperFunction,Conductor*%
%ADD62C,0.250000*%
%TD*%
%TA.AperFunction,Conductor*%
%ADD63C,0.300000*%
%TD*%
%TA.AperFunction,Conductor*%
%ADD64C,0.350000*%
%TD*%
%TA.AperFunction,Conductor*%
%ADD65C,0.200000*%
%TD*%
%TA.AperFunction,Conductor*%
%ADD66C,0.400000*%
%TD*%
G04 APERTURE END LIST*
D10*
X97650000Y-63005200D02*
X97650000Y-138100000D01*
X202952600Y-63000000D02*
X97650000Y-63005200D01*
X202952600Y-138094800D02*
X202952600Y-63000000D01*
X97650000Y-138100000D02*
X202952600Y-138094800D01*
D11*
%TO.P,U1,1,ADJ/GND*%
%TO.N,GND*%
X117546000Y-101940000D03*
%TO.P,U1,2,VOUT*%
%TO.N,+3.3V*%
X117546000Y-99650000D03*
%TO.P,U1,3,VIN*%
%TO.N,Net-(F1-Pad2)*%
X117546000Y-97360000D03*
D12*
%TO.P,U1,4*%
%TO.N,N/C*%
X110856000Y-99650000D03*
%TD*%
D13*
%TO.P,F2,1,1*%
%TO.N,Net-(F2-Pad1)*%
X101200000Y-122200000D03*
D14*
%TO.P,F2,2,2*%
X104900000Y-122200000D03*
%TO.P,F2,3,3*%
%TO.N,VCC*%
X109200000Y-122200000D03*
%TO.P,F2,4,4*%
X112900000Y-122200000D03*
%TD*%
D15*
%TO.P,R49,1*%
%TO.N,Net-(R35-Pad1)*%
X153600000Y-78150000D03*
%TO.P,R49,2*%
%TO.N,GND*%
X151600000Y-78150000D03*
%TD*%
D16*
%TO.P,C11,1*%
%TO.N,+5V*%
X122150000Y-110647349D03*
D17*
%TO.P,C11,2*%
%TO.N,GND*%
X122150000Y-114147349D03*
%TD*%
D18*
%TO.P,J2,13*%
%TO.N,N/C*%
X200079200Y-97900002D03*
%TO.P,J2,14*%
X200079200Y-89259998D03*
D19*
%TO.P,J2,15*%
X195899200Y-97900002D03*
%TO.P,J2,16*%
X195899200Y-89259998D03*
D20*
%TO.P,J2,17*%
X196399199Y-96469999D03*
%TO.P,J2,18*%
X196399199Y-90690001D03*
D21*
%TO.P,J2,A1-B12,GND*%
%TO.N,GND*%
X195324200Y-96780000D03*
%TO.P,J2,A4-B9,VBUS*%
%TO.N,unconnected-(J2-PadA4-B9)*%
X195324200Y-95980001D03*
D22*
%TO.P,J2,A5,CC1*%
%TO.N,Net-(J2-PadA5)*%
X195324200Y-94830000D03*
%TO.P,J2,A6,DP1*%
%TO.N,Net-(J2-PadA6)*%
X195324200Y-93830000D03*
%TO.P,J2,A7,DN1*%
%TO.N,Net-(J2-PadA7)*%
X195324200Y-93330000D03*
%TO.P,J2,A8,SBU1*%
%TO.N,unconnected-(J2-PadA8)*%
X195324200Y-92330000D03*
D21*
%TO.P,J2,B1-A12,GND*%
%TO.N,GND*%
X195324200Y-90380000D03*
%TO.P,J2,B4-A9,VBUS*%
%TO.N,unconnected-(J2-PadB4-A9)*%
X195324200Y-91179999D03*
D22*
%TO.P,J2,B5,CC2*%
%TO.N,Net-(J2-PadA5)*%
X195324200Y-91830001D03*
%TO.P,J2,B6,DP2*%
%TO.N,Net-(J2-PadA6)*%
X195324200Y-92829999D03*
%TO.P,J2,B7,DN2*%
%TO.N,Net-(J2-PadA7)*%
X195324200Y-94330001D03*
%TO.P,J2,B8,SBU2*%
%TO.N,unconnected-(J2-PadB8)*%
X195324200Y-95329999D03*
%TD*%
D23*
%TO.P,F1,1*%
%TO.N,+5V*%
X121350000Y-101825000D03*
%TO.P,F1,2*%
%TO.N,Net-(F1-Pad2)*%
X121350000Y-97375000D03*
%TD*%
D24*
%TO.P,U4,1,SOURCE-2*%
%TO.N,GND*%
X121075000Y-118445000D03*
%TO.P,U4,2,SOURCE-1*%
X121075000Y-119715000D03*
%TO.P,U4,3,SOURCE*%
X121075000Y-120985000D03*
%TO.P,U4,4,GATE*%
%TO.N,Net-(R16-Pad1)*%
X121075000Y-122255000D03*
%TO.P,U4,5,DRAIN-3*%
%TO.N,Net-(J14-Pad2)*%
X126025000Y-122255000D03*
%TO.P,U4,6,DRAIN-2*%
X126025000Y-120985000D03*
%TO.P,U4,7,DRAIN-1*%
X126025000Y-119715000D03*
%TO.P,U4,8,DRAIN*%
X126025000Y-118445000D03*
%TD*%
D25*
%TO.P,C17,1*%
%TO.N,Net-(C17-Pad1)*%
X187062500Y-113600000D03*
%TO.P,C17,2*%
%TO.N,GND*%
X189137500Y-113600000D03*
%TD*%
D15*
%TO.P,R29,1*%
%TO.N,GND*%
X152700000Y-120850000D03*
%TO.P,R29,2*%
%TO.N,Net-(R28-Pad2)*%
X150700000Y-120850000D03*
%TD*%
D26*
%TO.P,C3,1*%
%TO.N,Net-(C1-Pad1)*%
X114600000Y-104862500D03*
%TO.P,C3,2*%
%TO.N,GND*%
X114600000Y-106937500D03*
%TD*%
D15*
%TO.P,R18,1*%
%TO.N,Net-(R18-Pad1)*%
X131920000Y-122100000D03*
%TO.P,R18,2*%
%TO.N,Net-(R18-Pad2)*%
X129920000Y-122100000D03*
%TD*%
D27*
%TO.P,R31,1*%
%TO.N,GND*%
X178450000Y-111750000D03*
%TO.P,R31,2*%
%TO.N,Net-(R30-Pad2)*%
X180450000Y-111750000D03*
%TD*%
D28*
%TO.P,C19,1*%
%TO.N,GND*%
X114900000Y-86850152D03*
%TO.P,C19,2*%
%TO.N,+3.3V*%
X114900000Y-84775152D03*
%TD*%
D15*
%TO.P,R28,1*%
%TO.N,Net-(Q2-Pad1)*%
X152700000Y-118400000D03*
%TO.P,R28,2*%
%TO.N,Net-(R28-Pad2)*%
X150700000Y-118400000D03*
%TD*%
D29*
%TO.P,RN1,*%
%TO.N,*%
X112850000Y-89250000D03*
X112850000Y-91050000D03*
%TO.P,RN1,1,R1.1*%
%TO.N,XDIRR*%
X115250000Y-89250000D03*
D30*
%TO.P,RN1,2,R2.1*%
%TO.N,XSTPR*%
X114450000Y-89250000D03*
%TO.P,RN1,3,R3.1*%
%TO.N,XENR*%
X113650000Y-89250000D03*
%TO.P,RN1,4,R3.2*%
%TO.N,XEN*%
X113650000Y-91050000D03*
%TO.P,RN1,5,R2.2*%
%TO.N,XSTP*%
X114450000Y-91050000D03*
D29*
%TO.P,RN1,6,R1.2*%
%TO.N,XDIR*%
X115250000Y-91050000D03*
%TD*%
D31*
%TO.P,U2,1,BOOT*%
%TO.N,Net-(C9-Pad1)*%
X110710000Y-113545000D03*
%TO.P,U2,2*%
%TO.N,N/C*%
X110710000Y-114815000D03*
%TO.P,U2,3*%
X110710000Y-116085000D03*
%TO.P,U2,4,VSENSE*%
%TO.N,Net-(R4-Pad2)*%
X110710000Y-117355000D03*
%TO.P,U2,5,ENA*%
%TO.N,unconnected-(U2-Pad5)*%
X116110000Y-117355000D03*
%TO.P,U2,6,GND*%
%TO.N,GND*%
X116110000Y-116085000D03*
%TO.P,U2,7,VIN*%
%TO.N,Net-(C1-Pad1)*%
X116110000Y-114815000D03*
%TO.P,U2,8,PH*%
%TO.N,Net-(C9-Pad2)*%
X116110000Y-113545000D03*
D32*
%TO.P,U2,9,POWERPAD*%
%TO.N,GND*%
X113410000Y-115450000D03*
D33*
%TO.P,U2,10*%
%TO.N,N/C*%
X112760000Y-113500000D03*
%TO.P,U2,11*%
X114060000Y-113500000D03*
%TO.P,U2,12*%
X112760000Y-114800000D03*
%TO.P,U2,13*%
X114060000Y-114800000D03*
%TO.P,U2,14*%
X112760000Y-116100000D03*
%TO.P,U2,15*%
X114060000Y-116100000D03*
%TO.P,U2,16*%
X112760000Y-117400000D03*
%TO.P,U2,17*%
X114060000Y-117400000D03*
%TD*%
D34*
%TO.P,R10,1*%
%TO.N,Net-(C12-Pad1)*%
X157400000Y-127500000D03*
%TO.P,R10,2*%
%TO.N,XSTOP*%
X157400000Y-125500000D03*
%TD*%
D25*
%TO.P,C8,1*%
%TO.N,+3.3V*%
X124912500Y-101400000D03*
%TO.P,C8,2*%
%TO.N,GND*%
X126987500Y-101400000D03*
%TD*%
D35*
%TO.P,R6,1*%
%TO.N,GND*%
X157095000Y-107825000D03*
%TO.P,R6,2*%
%TO.N,/E0_PWM*%
X157095000Y-109825000D03*
%TD*%
D36*
%TO.P,J4,1,Pin_1*%
%TO.N,GPIO27*%
X198875000Y-102500000D03*
D37*
%TO.P,J4,2,Pin_2*%
%TO.N,GPIO26*%
X196335000Y-102500000D03*
%TD*%
D15*
%TO.P,R37,1*%
%TO.N,Net-(R35-Pad1)*%
X104000000Y-78150000D03*
%TO.P,R37,2*%
%TO.N,GND*%
X102000000Y-78150000D03*
%TD*%
D38*
%TO.P,Q2,1,G*%
%TO.N,Net-(Q2-Pad1)*%
X156850000Y-118600000D03*
%TO.P,Q2,2,S*%
%TO.N,GND*%
X154950000Y-118600000D03*
%TO.P,Q2,3,D*%
%TO.N,Net-(J12-Pad1)*%
X155900000Y-121600000D03*
%TD*%
D39*
%TO.P,J9,1,Pin_1*%
%TO.N,Net-(C16-Pad1)*%
X175121560Y-133744960D03*
D40*
%TO.P,J9,2,Pin_2*%
%TO.N,GND*%
X177621560Y-133744960D03*
%TD*%
D15*
%TO.P,R17,1*%
%TO.N,GND*%
X118600000Y-119400000D03*
%TO.P,R17,2*%
%TO.N,Net-(R16-Pad2)*%
X116600000Y-119400000D03*
%TD*%
D41*
%TO.P,D5,1*%
%TO.N,GND*%
X196725000Y-123400000D03*
%TO.P,D5,2*%
%TO.N,+3.3V*%
X194825000Y-123400000D03*
%TO.P,D5,3*%
%TO.N,Net-(D5-Pad3)*%
X195775000Y-125600000D03*
%TD*%
D27*
%TO.P,R32,1*%
%TO.N,Net-(D5-Pad3)*%
X198675000Y-125800000D03*
%TO.P,R32,2*%
%TO.N,Net-(J16-Pad1)*%
X200675000Y-125800000D03*
%TD*%
%TO.P,R9,1*%
%TO.N,GND*%
X143095000Y-103375000D03*
%TO.P,R9,2*%
%TO.N,/FAN0_PWM*%
X145095000Y-103375000D03*
%TD*%
D25*
%TO.P,C16,1*%
%TO.N,Net-(C16-Pad1)*%
X173612500Y-127800000D03*
%TO.P,C16,2*%
%TO.N,GND*%
X175687500Y-127800000D03*
%TD*%
D42*
%TO.P,D1,1,K*%
%TO.N,Net-(C1-Pad1)*%
X106800000Y-111500000D03*
%TO.P,D1,2,A*%
%TO.N,VCC*%
X101800000Y-111500000D03*
%TD*%
D26*
%TO.P,C44,1*%
%TO.N,Net-(C44-Pad1)*%
X160500000Y-84762500D03*
%TO.P,C44,2*%
%TO.N,VCC*%
X160500000Y-86837500D03*
%TD*%
D35*
%TO.P,R3,1*%
%TO.N,GND*%
X156945000Y-102275000D03*
%TO.P,R3,2*%
%TO.N,/HB_PWM*%
X156945000Y-104275000D03*
%TD*%
D25*
%TO.P,C18,1*%
%TO.N,/E0_THERM*%
X190837500Y-123100000D03*
%TO.P,C18,2*%
%TO.N,GND*%
X192912500Y-123100000D03*
%TD*%
D43*
%TO.P,U3,1,OE1*%
%TO.N,GND*%
X147810000Y-102030000D03*
%TO.P,U3,2,1A*%
%TO.N,/FAN0_PWM*%
X147810000Y-103300000D03*
%TO.P,U3,3,1Y*%
%TO.N,Net-(R26-Pad2)*%
X147810000Y-104570000D03*
%TO.P,U3,4,2A*%
%TO.N,/FAN1_PWM*%
X147810000Y-105840000D03*
%TO.P,U3,5,2Y*%
%TO.N,Net-(R28-Pad2)*%
X147810000Y-107110000D03*
%TO.P,U3,6,3A*%
%TO.N,/FAN2_PWM*%
X147810000Y-108380000D03*
%TO.P,U3,7,3Y*%
%TO.N,Net-(R30-Pad2)*%
X147810000Y-109650000D03*
%TO.P,U3,8,GND*%
%TO.N,GND*%
X147810000Y-110920000D03*
%TO.P,U3,9,4Y*%
%TO.N,Net-(R16-Pad2)*%
X152980000Y-110920000D03*
%TO.P,U3,10,4A*%
%TO.N,/E0_PWM*%
X152980000Y-109650000D03*
%TO.P,U3,11,5Y*%
%TO.N,Net-(R18-Pad2)*%
X152980000Y-108380000D03*
%TO.P,U3,12,5A*%
%TO.N,/HB_PWM*%
X152980000Y-107110000D03*
%TO.P,U3,13,6Y*%
%TO.N,unconnected-(U3-Pad13)*%
X152980000Y-105840000D03*
%TO.P,U3,14,6A*%
%TO.N,unconnected-(U3-Pad14)*%
X152980000Y-104570000D03*
%TO.P,U3,15,OE2*%
%TO.N,GND*%
X152980000Y-103300000D03*
%TO.P,U3,16,VCC*%
%TO.N,+5V*%
X152980000Y-102030000D03*
%TD*%
D15*
%TO.P,R24,1*%
%TO.N,+3.3V*%
X175650000Y-125100000D03*
%TO.P,R24,2*%
%TO.N,Net-(C16-Pad1)*%
X173650000Y-125100000D03*
%TD*%
D39*
%TO.P,J7,1,Pin_1*%
%TO.N,Net-(J7-Pad1)*%
X183522080Y-133744800D03*
D40*
%TO.P,J7,2,Pin_2*%
%TO.N,GND*%
X186022080Y-133744800D03*
%TD*%
D15*
%TO.P,R55,1*%
%TO.N,Net-(R55-Pad1)*%
X153600000Y-80100000D03*
%TO.P,R55,2*%
%TO.N,GND*%
X151600000Y-80100000D03*
%TD*%
D44*
%TO.P,J3,A1,GND*%
%TO.N,GND*%
X180940000Y-108440000D03*
%TO.P,J3,A2,VBUS*%
%TO.N,+3.3V*%
X178400000Y-108440000D03*
%TO.P,J3,A3,3V3_EN*%
X175860000Y-108440000D03*
%TO.P,J3,A4,RUN*%
%TO.N,Net-(C5-Pad2)*%
X173320000Y-108440000D03*
%TO.P,J3,A5,USB_DP*%
%TO.N,Net-(J2-PadA6)*%
X170780000Y-108440000D03*
%TO.P,J3,A6,USB_DM*%
%TO.N,Net-(J2-PadA7)*%
X168240000Y-108440000D03*
%TO.P,J3,A7,BOOTSEL*%
%TO.N,Net-(C7-Pad1)*%
X165700000Y-108440000D03*
%TO.P,J3,A8,GND__1*%
%TO.N,GND*%
X163160000Y-108440000D03*
%TO.P,J3,B1,GPIO0*%
%TO.N,XEN*%
X180940000Y-105900000D03*
%TO.P,J3,B2,GND__2*%
%TO.N,GND*%
X178400000Y-105900000D03*
%TO.P,J3,B3,3V3*%
%TO.N,+3.3V*%
X175860000Y-105900000D03*
%TO.P,J3,B4,ADC_VREF*%
X173320000Y-105900000D03*
%TO.P,J3,B5,SWCLK*%
%TO.N,unconnected-(J3-PadB5)*%
X170780000Y-105900000D03*
%TO.P,J3,B6,SWDIO*%
%TO.N,unconnected-(J3-PadB6)*%
X168240000Y-105900000D03*
%TO.P,J3,B7,GND__3*%
%TO.N,GND*%
X165700000Y-105900000D03*
%TO.P,J3,B8,GPIO29/ADC3*%
%TO.N,/HB_THERM*%
X163160000Y-105900000D03*
%TO.P,J3,C1,GPIO1*%
%TO.N,XSTP*%
X180940000Y-103360000D03*
%TO.P,J3,C2,GPIO2*%
%TO.N,XDIR*%
X178400000Y-103360000D03*
%TO.P,J3,C7,GPIO28/ADC2*%
%TO.N,/E0_THERM*%
X165700000Y-103360000D03*
%TO.P,J3,C8,GPIO27/ADC1*%
%TO.N,GPIO27*%
X163160000Y-103360000D03*
%TO.P,J3,D1,GPIO3*%
%TO.N,XSTOP*%
X180940000Y-100820000D03*
%TO.P,J3,D2,GPIO4*%
%TO.N,YEN*%
X178400000Y-100820000D03*
%TO.P,J3,D7,GPIO26/ADC0*%
%TO.N,GPIO26*%
X165700000Y-100820000D03*
%TO.P,J3,D8,GPIO25*%
%TO.N,GPIO25*%
X163160000Y-100820000D03*
%TO.P,J3,E1,GPIO5*%
%TO.N,YSTP*%
X180940000Y-98280000D03*
%TO.P,J3,E2,GPIO6*%
%TO.N,YDIR*%
X178400000Y-98280000D03*
%TO.P,J3,E7,GPIO24*%
%TO.N,/HB_PWM*%
X165700000Y-98280000D03*
%TO.P,J3,E8,GPIO23*%
%TO.N,/E0_PWM*%
X163160000Y-98280000D03*
%TO.P,J3,F1,GPIO7*%
%TO.N,YSTOP*%
X180940000Y-95740000D03*
%TO.P,J3,F2,GPIO8*%
%TO.N,ZEN*%
X178400000Y-95740000D03*
%TO.P,J3,F7,GPIO22*%
%TO.N,/FAN2_PWM*%
X165700000Y-95740000D03*
%TO.P,J3,F8,GPIO21*%
%TO.N,/FAN1_PWM*%
X163160000Y-95740000D03*
%TO.P,J3,G1,GPIO9*%
%TO.N,ZSTP*%
X180940000Y-93200000D03*
%TO.P,J3,G2,GND__4*%
%TO.N,GND*%
X178400000Y-93200000D03*
%TO.P,J3,G3,GPIO12*%
%TO.N,E0EN*%
X175860000Y-93200000D03*
%TO.P,J3,G4,GPIO14*%
%TO.N,E0DIR*%
X173320000Y-93200000D03*
%TO.P,J3,G5,GPIO16*%
%TO.N,UART_RX*%
X170780000Y-93200000D03*
%TO.P,J3,G6,GPIO18*%
%TO.N,/PROBE_SRVO*%
X168240000Y-93200000D03*
%TO.P,J3,G7,GND__5*%
%TO.N,GND*%
X165700000Y-93200000D03*
%TO.P,J3,G8,GPIO20*%
%TO.N,/FAN0_PWM*%
X163160000Y-93200000D03*
%TO.P,J3,H1,GND__6*%
%TO.N,GND*%
X180940000Y-90660000D03*
%TO.P,J3,H2,GPIO10*%
%TO.N,ZDIR*%
X178400000Y-90660000D03*
%TO.P,J3,H3,GPIO11*%
%TO.N,ZSTOP*%
X175860000Y-90660000D03*
%TO.P,J3,H4,GPIO13*%
%TO.N,E0STP*%
X173320000Y-90660000D03*
%TO.P,J3,H5,GPIO15*%
%TO.N,E0STOP*%
X170780000Y-90660000D03*
%TO.P,J3,H6,GPIO17*%
%TO.N,UART_TX*%
X168240000Y-90660000D03*
%TO.P,J3,H7,GPIO19*%
%TO.N,/PROBE_DET*%
X165700000Y-90660000D03*
%TO.P,J3,H8,GND__7*%
%TO.N,GND*%
X163160000Y-90660000D03*
%TD*%
D26*
%TO.P,C1,1*%
%TO.N,Net-(C1-Pad1)*%
X109400000Y-104862500D03*
%TO.P,C1,2*%
%TO.N,GND*%
X109400000Y-106937500D03*
%TD*%
D27*
%TO.P,R56,1*%
%TO.N,GND*%
X151600000Y-82050000D03*
%TO.P,R56,2*%
%TO.N,Net-(R56-Pad2)*%
X153600000Y-82050000D03*
%TD*%
D45*
%TO.P,C24,1*%
%TO.N,Net-(C24-Pad1)*%
X133837500Y-85900000D03*
%TO.P,C24,2*%
%TO.N,Net-(C24-Pad2)*%
X131762500Y-85900000D03*
%TD*%
D38*
%TO.P,Q1,1,G*%
%TO.N,Net-(Q1-Pad1)*%
X154950000Y-125700000D03*
%TO.P,Q1,2,S*%
%TO.N,GND*%
X153050000Y-125700000D03*
%TO.P,Q1,3,D*%
%TO.N,Net-(J11-Pad1)*%
X154000000Y-128700000D03*
%TD*%
D25*
%TO.P,C13,1*%
%TO.N,/HB_THERM*%
X178312500Y-125100000D03*
%TO.P,C13,2*%
%TO.N,GND*%
X180387500Y-125100000D03*
%TD*%
D42*
%TO.P,D3,1,K*%
%TO.N,Net-(C9-Pad2)*%
X101800000Y-100250000D03*
%TO.P,D3,2,A*%
%TO.N,GND*%
X106800000Y-100250000D03*
%TD*%
D25*
%TO.P,C6,1*%
%TO.N,+3.3V*%
X124912500Y-98200000D03*
%TO.P,C6,2*%
%TO.N,GND*%
X126987500Y-98200000D03*
%TD*%
D46*
%TO.P,U9,1,OB1*%
%TO.N,Net-(J19-Pad3)*%
X156025000Y-81987500D03*
%TO.P,U9,2,BRB*%
%TO.N,Net-(R56-Pad2)*%
X156675000Y-81987500D03*
%TO.P,U9,3,VS*%
%TO.N,VCC*%
X157325000Y-81987500D03*
%TO.P,U9,4,OB2*%
%TO.N,Net-(J19-Pad4)*%
X157975000Y-81987500D03*
%TO.P,U9,5,ENN*%
%TO.N,ZENR*%
X158625000Y-81987500D03*
%TO.P,U9,6,GND*%
%TO.N,GND*%
X159275000Y-81987500D03*
%TO.P,U9,7,CPO*%
%TO.N,Net-(C38-Pad2)*%
X159925000Y-81987500D03*
%TO.P,U9,8,CPI*%
%TO.N,Net-(C38-Pad1)*%
X160575000Y-81987500D03*
%TO.P,U9,9,VCP*%
%TO.N,Net-(C44-Pad1)*%
X161225000Y-81987500D03*
%TO.P,U9,10,SPREAD*%
%TO.N,unconnected-(U9-Pad10)*%
X161875000Y-81987500D03*
%TO.P,U9,11,5VOUT*%
%TO.N,Net-(C37-Pad2)*%
X162525000Y-81987500D03*
%TO.P,U9,12,MS1_AD0*%
%TO.N,+3.3V*%
X163175000Y-81987500D03*
%TO.P,U9,13,NC*%
%TO.N,unconnected-(U9-Pad13)*%
X163825000Y-81987500D03*
%TO.P,U9,14,MS2_AD1*%
%TO.N,GND*%
X164475000Y-81987500D03*
%TO.P,U9,15,DIAG*%
%TO.N,Net-(JP5-Pad1)*%
X164475000Y-76227500D03*
%TO.P,U9,16,INDEX*%
%TO.N,unconnected-(U9-Pad16)*%
X163825000Y-76227500D03*
%TO.P,U9,17,CLK*%
%TO.N,Net-(R50-Pad1)*%
X163175000Y-76227500D03*
%TO.P,U9,18,PDN_UART*%
%TO.N,Net-(R35-Pad1)*%
X162525000Y-76227500D03*
%TO.P,U9,19,VCC_IO*%
%TO.N,+3.3V*%
X161875000Y-76227500D03*
%TO.P,U9,20,STEP*%
%TO.N,ZSTPR*%
X161225000Y-76227500D03*
%TO.P,U9,21,VREF*%
%TO.N,unconnected-(U9-Pad21)*%
X160575000Y-76227500D03*
%TO.P,U9,22,GND__1*%
%TO.N,GND*%
X159925000Y-76227500D03*
%TO.P,U9,23,DIR*%
%TO.N,ZDIRR*%
X159275000Y-76227500D03*
%TO.P,U9,24,STDBY*%
%TO.N,unconnected-(U9-Pad24)*%
X158625000Y-76227500D03*
%TO.P,U9,25,OA2*%
%TO.N,Net-(J19-Pad1)*%
X157975000Y-76227500D03*
%TO.P,U9,26,VS__1*%
%TO.N,VCC*%
X157325000Y-76227500D03*
%TO.P,U9,27,BRA*%
%TO.N,Net-(R55-Pad1)*%
X156675000Y-76227500D03*
%TO.P,U9,28,OA1*%
%TO.N,Net-(J19-Pad2)*%
X156025000Y-76227500D03*
D47*
%TO.P,U9,29,GND__2*%
%TO.N,GND*%
X160250000Y-79107500D03*
%TD*%
D29*
%TO.P,RN3,*%
%TO.N,*%
X157800000Y-92100000D03*
X157800000Y-90300000D03*
%TO.P,RN3,1,R1.1*%
%TO.N,ZDIRR*%
X160200000Y-90300000D03*
D30*
%TO.P,RN3,2,R2.1*%
%TO.N,ZSTPR*%
X159400000Y-90300000D03*
%TO.P,RN3,3,R3.1*%
%TO.N,ZENR*%
X158600000Y-90300000D03*
%TO.P,RN3,4,R3.2*%
%TO.N,ZEN*%
X158600000Y-92100000D03*
%TO.P,RN3,5,R2.2*%
%TO.N,ZSTP*%
X159400000Y-92100000D03*
D29*
%TO.P,RN3,6,R1.2*%
%TO.N,ZDIR*%
X160200000Y-92100000D03*
%TD*%
D35*
%TO.P,R4,1*%
%TO.N,+5V*%
X122700000Y-104600000D03*
%TO.P,R4,2*%
%TO.N,Net-(R4-Pad2)*%
X122700000Y-106600000D03*
%TD*%
D34*
%TO.P,R42,1*%
%TO.N,+3.3V*%
X129950000Y-86800000D03*
%TO.P,R42,2*%
%TO.N,YENR*%
X129950000Y-84800000D03*
%TD*%
D26*
%TO.P,C10,1*%
%TO.N,+5V*%
X120000000Y-104562500D03*
%TO.P,C10,2*%
%TO.N,GND*%
X120000000Y-106637500D03*
%TD*%
D36*
%TO.P,JP2,1,A*%
%TO.N,Net-(JP2-Pad1)*%
X120875000Y-82950000D03*
D37*
%TO.P,JP2,2,B*%
%TO.N,XSTOP*%
X123415000Y-82950000D03*
%TD*%
D27*
%TO.P,R45,1*%
%TO.N,GND*%
X126800000Y-82050000D03*
%TO.P,R45,2*%
%TO.N,Net-(R45-Pad2)*%
X128800000Y-82050000D03*
%TD*%
%TO.P,R12,1*%
%TO.N,/HB_THERM*%
X178350000Y-127800000D03*
%TO.P,R12,2*%
%TO.N,Net-(D4-Pad3)*%
X180350000Y-127800000D03*
%TD*%
D48*
%TO.P,J14,1,Pin_1*%
%TO.N,VCC*%
X117305000Y-131100000D03*
D49*
%TO.P,J14,2,Pin_2*%
%TO.N,Net-(J14-Pad2)*%
X122305000Y-131100000D03*
%TD*%
D50*
%TO.P,L1,1*%
%TO.N,Net-(C9-Pad2)*%
X113512500Y-110400000D03*
%TO.P,L1,2*%
%TO.N,+5V*%
X116487500Y-110400000D03*
%TD*%
D15*
%TO.P,R15,1*%
%TO.N,Net-(J7-Pad1)*%
X188150000Y-125100000D03*
%TO.P,R15,2*%
%TO.N,+3.3V*%
X186150000Y-125100000D03*
%TD*%
D28*
%TO.P,C41,1*%
%TO.N,Net-(C41-Pad1)*%
X167175000Y-78125000D03*
%TO.P,C41,2*%
%TO.N,VCC*%
X167175000Y-76050000D03*
%TD*%
D34*
%TO.P,R22,1*%
%TO.N,Net-(C16-Pad1)*%
X171450000Y-127500000D03*
%TO.P,R22,2*%
%TO.N,ZSTOP*%
X171450000Y-125500000D03*
%TD*%
D28*
%TO.P,C37,1*%
%TO.N,GND*%
X162500000Y-86850152D03*
%TO.P,C37,2*%
%TO.N,Net-(C37-Pad2)*%
X162500000Y-84775152D03*
%TD*%
D29*
%TO.P,RN4,*%
%TO.N,*%
X187350000Y-91050000D03*
X187350000Y-89250000D03*
%TO.P,RN4,1,R1.1*%
%TO.N,E0DIRR*%
X189750000Y-89250000D03*
D30*
%TO.P,RN4,2,R2.1*%
%TO.N,E0STPR*%
X188950000Y-89250000D03*
%TO.P,RN4,3,R3.1*%
%TO.N,E0ENR*%
X188150000Y-89250000D03*
%TO.P,RN4,4,R3.2*%
%TO.N,E0EN*%
X188150000Y-91050000D03*
%TO.P,RN4,5,R2.2*%
%TO.N,E0STP*%
X188950000Y-91050000D03*
D29*
%TO.P,RN4,6,R1.2*%
%TO.N,E0DIR*%
X189750000Y-91050000D03*
%TD*%
D15*
%TO.P,R11,1*%
%TO.N,+3.3V*%
X161700000Y-125100000D03*
%TO.P,R11,2*%
%TO.N,Net-(C12-Pad1)*%
X159700000Y-125100000D03*
%TD*%
D45*
%TO.P,C14,1*%
%TO.N,+5V*%
X151432500Y-99475000D03*
%TO.P,C14,2*%
%TO.N,GND*%
X149357500Y-99475000D03*
%TD*%
D39*
%TO.P,J13,1,Pin_1*%
%TO.N,Net-(J13-Pad1)*%
X169202600Y-120004800D03*
D40*
%TO.P,J13,2,Pin_2*%
%TO.N,VCC*%
X171702600Y-120004800D03*
%TD*%
D16*
%TO.P,C45,1*%
%TO.N,VCC*%
X196140021Y-77873413D03*
D17*
%TO.P,C45,2*%
%TO.N,Net-(C39-Pad1)*%
X198640021Y-77873413D03*
%TD*%
D51*
%TO.P,D2,1,A*%
%TO.N,Net-(D2-Pad1)*%
X101500000Y-116300000D03*
%TO.P,D2,2,K*%
%TO.N,VCC*%
X106900000Y-116300000D03*
%TD*%
D52*
%TO.P,J17,1,Pin_1*%
%TO.N,Net-(J17-Pad1)*%
X116375000Y-69020000D03*
D53*
%TO.P,J17,2,Pin_2*%
%TO.N,Net-(J17-Pad2)*%
X113875000Y-69020000D03*
%TO.P,J17,3,Pin_3*%
%TO.N,Net-(J17-Pad3)*%
X111375000Y-69020000D03*
%TO.P,J17,4,Pin_4*%
%TO.N,Net-(J17-Pad4)*%
X108875000Y-69020000D03*
%TD*%
D15*
%TO.P,R43,1*%
%TO.N,Net-(R43-Pad1)*%
X104000000Y-80100000D03*
%TO.P,R43,2*%
%TO.N,GND*%
X102000000Y-80100000D03*
%TD*%
D46*
%TO.P,U8,1,OB1*%
%TO.N,Net-(J20-Pad3)*%
X180950000Y-81998413D03*
%TO.P,U8,2,BRB*%
%TO.N,Net-(R54-Pad2)*%
X181600000Y-81998413D03*
%TO.P,U8,3,VS*%
%TO.N,VCC*%
X182250000Y-81998413D03*
%TO.P,U8,4,OB2*%
%TO.N,Net-(J20-Pad4)*%
X182900000Y-81998413D03*
%TO.P,U8,5,ENN*%
%TO.N,E0ENR*%
X183550000Y-81998413D03*
%TO.P,U8,6,GND*%
%TO.N,GND*%
X184200000Y-81998413D03*
%TO.P,U8,7,CPO*%
%TO.N,Net-(C36-Pad2)*%
X184850000Y-81998413D03*
%TO.P,U8,8,CPI*%
%TO.N,Net-(C36-Pad1)*%
X185500000Y-81998413D03*
%TO.P,U8,9,VCP*%
%TO.N,Net-(C43-Pad1)*%
X186150000Y-81998413D03*
%TO.P,U8,10,SPREAD*%
%TO.N,unconnected-(U8-Pad10)*%
X186800000Y-81998413D03*
%TO.P,U8,11,5VOUT*%
%TO.N,Net-(C35-Pad2)*%
X187450000Y-81998413D03*
%TO.P,U8,12,MS1_AD0*%
%TO.N,+3.3V*%
X188100000Y-81998413D03*
%TO.P,U8,13,NC*%
%TO.N,unconnected-(U8-Pad13)*%
X188750000Y-81998413D03*
%TO.P,U8,14,MS2_AD1*%
%TO.N,+3.3V*%
X189400000Y-81998413D03*
%TO.P,U8,15,DIAG*%
%TO.N,Net-(JP4-Pad1)*%
X189400000Y-76238413D03*
%TO.P,U8,16,INDEX*%
%TO.N,unconnected-(U8-Pad16)*%
X188750000Y-76238413D03*
%TO.P,U8,17,CLK*%
%TO.N,Net-(R48-Pad1)*%
X188100000Y-76238413D03*
%TO.P,U8,18,PDN_UART*%
%TO.N,Net-(R35-Pad1)*%
X187450000Y-76238413D03*
%TO.P,U8,19,VCC_IO*%
%TO.N,+3.3V*%
X186800000Y-76238413D03*
%TO.P,U8,20,STEP*%
%TO.N,E0STPR*%
X186150000Y-76238413D03*
%TO.P,U8,21,VREF*%
%TO.N,unconnected-(U8-Pad21)*%
X185500000Y-76238413D03*
%TO.P,U8,22,GND__1*%
%TO.N,GND*%
X184850000Y-76238413D03*
%TO.P,U8,23,DIR*%
%TO.N,E0DIRR*%
X184200000Y-76238413D03*
%TO.P,U8,24,STDBY*%
%TO.N,unconnected-(U8-Pad24)*%
X183550000Y-76238413D03*
%TO.P,U8,25,OA2*%
%TO.N,Net-(J20-Pad1)*%
X182900000Y-76238413D03*
%TO.P,U8,26,VS__1*%
%TO.N,VCC*%
X182250000Y-76238413D03*
%TO.P,U8,27,BRA*%
%TO.N,Net-(R53-Pad1)*%
X181600000Y-76238413D03*
%TO.P,U8,28,OA1*%
%TO.N,Net-(J20-Pad2)*%
X180950000Y-76238413D03*
D47*
%TO.P,U8,29,GND__2*%
%TO.N,GND*%
X185175000Y-79118413D03*
%TD*%
D25*
%TO.P,C15,1*%
%TO.N,Net-(C15-Pad1)*%
X166562500Y-127800000D03*
%TO.P,C15,2*%
%TO.N,GND*%
X168637500Y-127800000D03*
%TD*%
D16*
%TO.P,C31,1*%
%TO.N,VCC*%
X121017621Y-77875000D03*
D17*
%TO.P,C31,2*%
%TO.N,Net-(C25-Pad1)*%
X123517621Y-77875000D03*
%TD*%
D54*
%TO.P,J10,1,Pin_1*%
%TO.N,Net-(C17-Pad1)*%
X177612600Y-120004900D03*
D53*
%TO.P,J10,2,Pin_2*%
%TO.N,GND*%
X180112600Y-120004900D03*
%TO.P,J10,3,Pin_3*%
%TO.N,+5V*%
X182612600Y-120004900D03*
%TD*%
D36*
%TO.P,JP4,1,A*%
%TO.N,Net-(JP4-Pad1)*%
X195850000Y-82948413D03*
D37*
%TO.P,JP4,2,B*%
%TO.N,E0STOP*%
X198390000Y-82948413D03*
%TD*%
D28*
%TO.P,C25,1*%
%TO.N,Net-(C25-Pad1)*%
X117400000Y-78137500D03*
%TO.P,C25,2*%
%TO.N,VCC*%
X117400000Y-76062500D03*
%TD*%
D29*
%TO.P,RN2,*%
%TO.N,*%
X137650000Y-89250000D03*
X137650000Y-91050000D03*
%TO.P,RN2,1,R1.1*%
%TO.N,YDIRR*%
X140050000Y-89250000D03*
D30*
%TO.P,RN2,2,R2.1*%
%TO.N,YSTPR*%
X139250000Y-89250000D03*
%TO.P,RN2,3,R3.1*%
%TO.N,YENR*%
X138450000Y-89250000D03*
%TO.P,RN2,4,R3.2*%
%TO.N,YEN*%
X138450000Y-91050000D03*
%TO.P,RN2,5,R2.2*%
%TO.N,YSTP*%
X139250000Y-91050000D03*
D29*
%TO.P,RN2,6,R1.2*%
%TO.N,YDIR*%
X140050000Y-91050000D03*
%TD*%
D26*
%TO.P,C43,1*%
%TO.N,Net-(C43-Pad1)*%
X185400000Y-84762500D03*
%TO.P,C43,2*%
%TO.N,VCC*%
X185400000Y-86837500D03*
%TD*%
D15*
%TO.P,R47,1*%
%TO.N,Net-(R35-Pad1)*%
X178500000Y-78150000D03*
%TO.P,R47,2*%
%TO.N,GND*%
X176500000Y-78150000D03*
%TD*%
D26*
%TO.P,C26,1*%
%TO.N,Net-(C25-Pad1)*%
X117400000Y-80112500D03*
%TO.P,C26,2*%
%TO.N,VCC*%
X117400000Y-82187500D03*
%TD*%
%TO.P,C4,1*%
%TO.N,Net-(C1-Pad1)*%
X117200000Y-104862500D03*
%TO.P,C4,2*%
%TO.N,GND*%
X117200000Y-106937500D03*
%TD*%
D48*
%TO.P,J1,1,Pin_1*%
%TO.N,Net-(F2-Pad1)*%
X106095000Y-128500000D03*
D49*
%TO.P,J1,2,Pin_2*%
%TO.N,Net-(D2-Pad1)*%
X106095000Y-133500000D03*
%TD*%
D15*
%TO.P,R19,1*%
%TO.N,GND*%
X131920000Y-119500000D03*
%TO.P,R19,2*%
%TO.N,Net-(R18-Pad2)*%
X129920000Y-119500000D03*
%TD*%
D28*
%TO.P,C20,1*%
%TO.N,GND*%
X139700000Y-86850152D03*
%TO.P,C20,2*%
%TO.N,+3.3V*%
X139700000Y-84775152D03*
%TD*%
D15*
%TO.P,R44,1*%
%TO.N,Net-(R44-Pad1)*%
X128800000Y-80100000D03*
%TO.P,R44,2*%
%TO.N,GND*%
X126800000Y-80100000D03*
%TD*%
D26*
%TO.P,C30,1*%
%TO.N,Net-(C30-Pad1)*%
X135700000Y-84762500D03*
%TO.P,C30,2*%
%TO.N,VCC*%
X135700000Y-86837500D03*
%TD*%
D34*
%TO.P,R14,1*%
%TO.N,Net-(C17-Pad1)*%
X184500000Y-114100000D03*
%TO.P,R14,2*%
%TO.N,E0STOP*%
X184500000Y-112100000D03*
%TD*%
D24*
%TO.P,U5,1,SOURCE-2*%
%TO.N,GND*%
X134500000Y-118445000D03*
%TO.P,U5,2,SOURCE-1*%
X134500000Y-119715000D03*
%TO.P,U5,3,SOURCE*%
X134500000Y-120985000D03*
%TO.P,U5,4,GATE*%
%TO.N,Net-(R18-Pad1)*%
X134500000Y-122255000D03*
%TO.P,U5,5,DRAIN-3*%
%TO.N,Net-(J15-Pad2)*%
X139450000Y-122255000D03*
%TO.P,U5,6,DRAIN-2*%
X139450000Y-120985000D03*
%TO.P,U5,7,DRAIN-1*%
X139450000Y-119715000D03*
%TO.P,U5,8,DRAIN*%
X139450000Y-118445000D03*
%TD*%
D45*
%TO.P,C22,1*%
%TO.N,Net-(C22-Pad1)*%
X109037500Y-85900000D03*
%TO.P,C22,2*%
%TO.N,Net-(C22-Pad2)*%
X106962500Y-85900000D03*
%TD*%
D26*
%TO.P,C28,1*%
%TO.N,Net-(C27-Pad1)*%
X142350000Y-80105913D03*
%TO.P,C28,2*%
%TO.N,VCC*%
X142350000Y-82180913D03*
%TD*%
D28*
%TO.P,C33,1*%
%TO.N,GND*%
X189400000Y-86850152D03*
%TO.P,C33,2*%
%TO.N,+3.3V*%
X189400000Y-84775152D03*
%TD*%
D27*
%TO.P,R54,1*%
%TO.N,GND*%
X176500000Y-82050000D03*
%TO.P,R54,2*%
%TO.N,Net-(R54-Pad2)*%
X178500000Y-82050000D03*
%TD*%
D15*
%TO.P,R23,1*%
%TO.N,+3.3V*%
X168600000Y-125100000D03*
%TO.P,R23,2*%
%TO.N,Net-(C15-Pad1)*%
X166600000Y-125100000D03*
%TD*%
D34*
%TO.P,R52,1*%
%TO.N,+3.3V*%
X154750000Y-86800000D03*
%TO.P,R52,2*%
%TO.N,ZENR*%
X154750000Y-84800000D03*
%TD*%
D39*
%TO.P,J6,1,Pin_1*%
%TO.N,Net-(C12-Pad1)*%
X158320520Y-133744880D03*
D40*
%TO.P,J6,2,Pin_2*%
%TO.N,GND*%
X160820520Y-133744880D03*
%TD*%
D27*
%TO.P,R25,1*%
%TO.N,/E0_THERM*%
X190875000Y-125750000D03*
%TO.P,R25,2*%
%TO.N,Net-(D5-Pad3)*%
X192875000Y-125750000D03*
%TD*%
D26*
%TO.P,C40,1*%
%TO.N,Net-(C39-Pad1)*%
X192150000Y-80110913D03*
%TO.P,C40,2*%
%TO.N,VCC*%
X192150000Y-82185913D03*
%TD*%
D39*
%TO.P,J16,1,Pin_1*%
%TO.N,Net-(J16-Pad1)*%
X191922600Y-133744840D03*
D40*
%TO.P,J16,2,Pin_2*%
%TO.N,GND*%
X194422600Y-133744840D03*
%TD*%
D26*
%TO.P,C42,1*%
%TO.N,Net-(C41-Pad1)*%
X167175000Y-80100000D03*
%TO.P,C42,2*%
%TO.N,VCC*%
X167175000Y-82175000D03*
%TD*%
D38*
%TO.P,Q3,1,G*%
%TO.N,Net-(Q3-Pad1)*%
X175900000Y-112650000D03*
%TO.P,Q3,2,S*%
%TO.N,GND*%
X174000000Y-112650000D03*
%TO.P,Q3,3,D*%
%TO.N,Net-(J13-Pad1)*%
X174950000Y-115650000D03*
%TD*%
D26*
%TO.P,C29,1*%
%TO.N,Net-(C29-Pad1)*%
X110900000Y-84762500D03*
%TO.P,C29,2*%
%TO.N,VCC*%
X110900000Y-86837500D03*
%TD*%
D39*
%TO.P,J11,1,Pin_1*%
%TO.N,Net-(J11-Pad1)*%
X149920000Y-133745000D03*
D40*
%TO.P,J11,2,Pin_2*%
%TO.N,VCC*%
X152420000Y-133745000D03*
%TD*%
D28*
%TO.P,C35,1*%
%TO.N,GND*%
X187400000Y-86850152D03*
%TO.P,C35,2*%
%TO.N,Net-(C35-Pad2)*%
X187400000Y-84775152D03*
%TD*%
D27*
%TO.P,R30,1*%
%TO.N,Net-(Q3-Pad1)*%
X178500000Y-113950000D03*
%TO.P,R30,2*%
%TO.N,Net-(R30-Pad2)*%
X180500000Y-113950000D03*
%TD*%
D34*
%TO.P,R21,1*%
%TO.N,Net-(C15-Pad1)*%
X164300000Y-127500000D03*
%TO.P,R21,2*%
%TO.N,YSTOP*%
X164300000Y-125500000D03*
%TD*%
D15*
%TO.P,R27,1*%
%TO.N,GND*%
X150750000Y-127650000D03*
%TO.P,R27,2*%
%TO.N,Net-(R26-Pad2)*%
X148750000Y-127650000D03*
%TD*%
D36*
%TO.P,J23,1,Pin_1*%
%TO.N,+5V*%
X198875000Y-108300000D03*
D37*
%TO.P,J23,2,Pin_2*%
%TO.N,GND*%
X196335000Y-108300000D03*
%TD*%
D26*
%TO.P,C5,1*%
%TO.N,GND*%
X183750000Y-101812500D03*
%TO.P,C5,2*%
%TO.N,Net-(C5-Pad2)*%
X183750000Y-103887500D03*
%TD*%
D27*
%TO.P,R7,1*%
%TO.N,GND*%
X143095000Y-108425000D03*
%TO.P,R7,2*%
%TO.N,/FAN2_PWM*%
X145095000Y-108425000D03*
%TD*%
D16*
%TO.P,C46,1*%
%TO.N,VCC*%
X170925000Y-77875000D03*
D17*
%TO.P,C46,2*%
%TO.N,Net-(C41-Pad1)*%
X173425000Y-77875000D03*
%TD*%
D46*
%TO.P,U7,1,OB1*%
%TO.N,Net-(J18-Pad3)*%
X131250000Y-81993413D03*
%TO.P,U7,2,BRB*%
%TO.N,Net-(R45-Pad2)*%
X131900000Y-81993413D03*
%TO.P,U7,3,VS*%
%TO.N,VCC*%
X132550000Y-81993413D03*
%TO.P,U7,4,OB2*%
%TO.N,Net-(J18-Pad4)*%
X133200000Y-81993413D03*
%TO.P,U7,5,ENN*%
%TO.N,YENR*%
X133850000Y-81993413D03*
%TO.P,U7,6,GND*%
%TO.N,GND*%
X134500000Y-81993413D03*
%TO.P,U7,7,CPO*%
%TO.N,Net-(C24-Pad2)*%
X135150000Y-81993413D03*
%TO.P,U7,8,CPI*%
%TO.N,Net-(C24-Pad1)*%
X135800000Y-81993413D03*
%TO.P,U7,9,VCP*%
%TO.N,Net-(C30-Pad1)*%
X136450000Y-81993413D03*
%TO.P,U7,10,SPREAD*%
%TO.N,unconnected-(U7-Pad10)*%
X137100000Y-81993413D03*
%TO.P,U7,11,5VOUT*%
%TO.N,Net-(C23-Pad2)*%
X137750000Y-81993413D03*
%TO.P,U7,12,MS1_AD0*%
%TO.N,GND*%
X138400000Y-81993413D03*
%TO.P,U7,13,NC*%
%TO.N,unconnected-(U7-Pad13)*%
X139050000Y-81993413D03*
%TO.P,U7,14,MS2_AD1*%
%TO.N,+3.3V*%
X139700000Y-81993413D03*
%TO.P,U7,15,DIAG*%
%TO.N,Net-(JP3-Pad1)*%
X139700000Y-76233413D03*
%TO.P,U7,16,INDEX*%
%TO.N,unconnected-(U7-Pad16)*%
X139050000Y-76233413D03*
%TO.P,U7,17,CLK*%
%TO.N,Net-(R40-Pad1)*%
X138400000Y-76233413D03*
%TO.P,U7,18,PDN_UART*%
%TO.N,Net-(R35-Pad1)*%
X137750000Y-76233413D03*
%TO.P,U7,19,VCC_IO*%
%TO.N,+3.3V*%
X137100000Y-76233413D03*
%TO.P,U7,20,STEP*%
%TO.N,YSTPR*%
X136450000Y-76233413D03*
%TO.P,U7,21,VREF*%
%TO.N,unconnected-(U7-Pad21)*%
X135800000Y-76233413D03*
%TO.P,U7,22,GND__1*%
%TO.N,GND*%
X135150000Y-76233413D03*
%TO.P,U7,23,DIR*%
%TO.N,YDIRR*%
X134500000Y-76233413D03*
%TO.P,U7,24,STDBY*%
%TO.N,unconnected-(U7-Pad24)*%
X133850000Y-76233413D03*
%TO.P,U7,25,OA2*%
%TO.N,Net-(J18-Pad1)*%
X133200000Y-76233413D03*
%TO.P,U7,26,VS__1*%
%TO.N,VCC*%
X132550000Y-76233413D03*
%TO.P,U7,27,BRA*%
%TO.N,Net-(R44-Pad1)*%
X131900000Y-76233413D03*
%TO.P,U7,28,OA1*%
%TO.N,Net-(J18-Pad2)*%
X131250000Y-76233413D03*
D47*
%TO.P,U7,29,GND__2*%
%TO.N,GND*%
X135475000Y-79113413D03*
%TD*%
D28*
%TO.P,C39,1*%
%TO.N,Net-(C39-Pad1)*%
X192150000Y-78135913D03*
%TO.P,C39,2*%
%TO.N,VCC*%
X192150000Y-76060913D03*
%TD*%
D27*
%TO.P,R46,1*%
%TO.N,GND*%
X102000000Y-82050000D03*
%TO.P,R46,2*%
%TO.N,Net-(R46-Pad2)*%
X104000000Y-82050000D03*
%TD*%
D15*
%TO.P,R20,1*%
%TO.N,+3.3V*%
X189100000Y-110900000D03*
%TO.P,R20,2*%
%TO.N,Net-(C17-Pad1)*%
X187100000Y-110900000D03*
%TD*%
D52*
%TO.P,J20,1,Pin_1*%
%TO.N,Net-(J20-Pad1)*%
X178775000Y-69020000D03*
D53*
%TO.P,J20,2,Pin_2*%
%TO.N,Net-(J20-Pad2)*%
X176275000Y-69020000D03*
%TO.P,J20,3,Pin_3*%
%TO.N,Net-(J20-Pad3)*%
X173775000Y-69020000D03*
%TO.P,J20,4,Pin_4*%
%TO.N,Net-(J20-Pad4)*%
X171275000Y-69020000D03*
%TD*%
D36*
%TO.P,JP6,1,A*%
%TO.N,Net-(J16-Pad1)*%
X200575000Y-128600000D03*
D37*
%TO.P,JP6,2,B*%
%TO.N,Net-(JP6-Pad2)*%
X198035000Y-128600000D03*
%TD*%
D52*
%TO.P,J21,1,Pin_1*%
%TO.N,Net-(J19-Pad1)*%
X164225000Y-69020000D03*
D53*
%TO.P,J21,2,Pin_2*%
%TO.N,Net-(J19-Pad2)*%
X161725000Y-69020000D03*
%TO.P,J21,3,Pin_3*%
%TO.N,Net-(J19-Pad3)*%
X159225000Y-69020000D03*
%TO.P,J21,4,Pin_4*%
%TO.N,Net-(J19-Pad4)*%
X156725000Y-69020000D03*
%TD*%
D27*
%TO.P,R34,1*%
%TO.N,Net-(R34-Pad1)*%
X158500000Y-97000000D03*
%TO.P,R34,2*%
%TO.N,UART_TX*%
X160500000Y-97000000D03*
%TD*%
D15*
%TO.P,R26,1*%
%TO.N,Net-(Q1-Pad1)*%
X150750000Y-125050000D03*
%TO.P,R26,2*%
%TO.N,Net-(R26-Pad2)*%
X148750000Y-125050000D03*
%TD*%
%TO.P,R53,1*%
%TO.N,Net-(R53-Pad1)*%
X178500000Y-80100000D03*
%TO.P,R53,2*%
%TO.N,GND*%
X176500000Y-80100000D03*
%TD*%
%TO.P,R40,1*%
%TO.N,Net-(R40-Pad1)*%
X128800000Y-76200000D03*
%TO.P,R40,2*%
%TO.N,GND*%
X126800000Y-76200000D03*
%TD*%
%TO.P,R50,1*%
%TO.N,Net-(R50-Pad1)*%
X153600000Y-76200000D03*
%TO.P,R50,2*%
%TO.N,GND*%
X151600000Y-76200000D03*
%TD*%
D34*
%TO.P,R5,1*%
%TO.N,Net-(R4-Pad2)*%
X125200000Y-106600000D03*
%TO.P,R5,2*%
%TO.N,GND*%
X125200000Y-104600000D03*
%TD*%
D28*
%TO.P,C27,1*%
%TO.N,Net-(C27-Pad1)*%
X142350000Y-78130913D03*
%TO.P,C27,2*%
%TO.N,VCC*%
X142350000Y-76055913D03*
%TD*%
D45*
%TO.P,C38,1*%
%TO.N,Net-(C38-Pad1)*%
X158637500Y-85900000D03*
%TO.P,C38,2*%
%TO.N,Net-(C38-Pad2)*%
X156562500Y-85900000D03*
%TD*%
D27*
%TO.P,R13,1*%
%TO.N,Net-(D4-Pad3)*%
X186150000Y-127800000D03*
%TO.P,R13,2*%
%TO.N,Net-(J7-Pad1)*%
X188150000Y-127800000D03*
%TD*%
D28*
%TO.P,C34,1*%
%TO.N,GND*%
X164500000Y-86850152D03*
%TO.P,C34,2*%
%TO.N,+3.3V*%
X164500000Y-84775152D03*
%TD*%
D27*
%TO.P,R8,1*%
%TO.N,GND*%
X143095000Y-105825000D03*
%TO.P,R8,2*%
%TO.N,/FAN1_PWM*%
X145095000Y-105825000D03*
%TD*%
D39*
%TO.P,J8,1,Pin_1*%
%TO.N,Net-(C15-Pad1)*%
X166721040Y-133744920D03*
D40*
%TO.P,J8,2,Pin_2*%
%TO.N,GND*%
X169221040Y-133744920D03*
%TD*%
D27*
%TO.P,R35,1*%
%TO.N,Net-(R35-Pad1)*%
X154200000Y-94700000D03*
%TO.P,R35,2*%
%TO.N,UART_RX*%
X156200000Y-94700000D03*
%TD*%
D16*
%TO.P,C32,1*%
%TO.N,VCC*%
X146117621Y-77868413D03*
D17*
%TO.P,C32,2*%
%TO.N,Net-(C27-Pad1)*%
X148617621Y-77868413D03*
%TD*%
D15*
%TO.P,R38,1*%
%TO.N,Net-(R38-Pad1)*%
X104000000Y-76200000D03*
%TO.P,R38,2*%
%TO.N,GND*%
X102000000Y-76200000D03*
%TD*%
%TO.P,R16,1*%
%TO.N,Net-(R16-Pad1)*%
X118600000Y-122100000D03*
%TO.P,R16,2*%
%TO.N,Net-(R16-Pad2)*%
X116600000Y-122100000D03*
%TD*%
D26*
%TO.P,C2,1*%
%TO.N,Net-(C1-Pad1)*%
X112000000Y-104862500D03*
%TO.P,C2,2*%
%TO.N,GND*%
X112000000Y-106937500D03*
%TD*%
D25*
%TO.P,C7,1*%
%TO.N,Net-(C7-Pad1)*%
X168562500Y-111200000D03*
%TO.P,C7,2*%
%TO.N,+3.3V*%
X170637500Y-111200000D03*
%TD*%
D41*
%TO.P,D4,1*%
%TO.N,GND*%
X184200000Y-125300000D03*
%TO.P,D4,2*%
%TO.N,+3.3V*%
X182300000Y-125300000D03*
%TO.P,D4,3*%
%TO.N,Net-(D4-Pad3)*%
X183250000Y-127500000D03*
%TD*%
D27*
%TO.P,R36,1*%
%TO.N,Net-(R35-Pad1)*%
X154200000Y-97000000D03*
%TO.P,R36,2*%
%TO.N,Net-(R34-Pad1)*%
X156200000Y-97000000D03*
%TD*%
D45*
%TO.P,C36,1*%
%TO.N,Net-(C36-Pad1)*%
X183537500Y-85900000D03*
%TO.P,C36,2*%
%TO.N,Net-(C36-Pad2)*%
X181462500Y-85900000D03*
%TD*%
D36*
%TO.P,JP3,1,A*%
%TO.N,Net-(JP3-Pad1)*%
X145950000Y-82943413D03*
D37*
%TO.P,JP3,2,B*%
%TO.N,YSTOP*%
X148490000Y-82943413D03*
%TD*%
D46*
%TO.P,U6,1,OB1*%
%TO.N,Net-(J17-Pad3)*%
X106450000Y-82000000D03*
%TO.P,U6,2,BRB*%
%TO.N,Net-(R46-Pad2)*%
X107100000Y-82000000D03*
%TO.P,U6,3,VS*%
%TO.N,VCC*%
X107750000Y-82000000D03*
%TO.P,U6,4,OB2*%
%TO.N,Net-(J17-Pad4)*%
X108400000Y-82000000D03*
%TO.P,U6,5,ENN*%
%TO.N,XENR*%
X109050000Y-82000000D03*
%TO.P,U6,6,GND*%
%TO.N,GND*%
X109700000Y-82000000D03*
%TO.P,U6,7,CPO*%
%TO.N,Net-(C22-Pad2)*%
X110350000Y-82000000D03*
%TO.P,U6,8,CPI*%
%TO.N,Net-(C22-Pad1)*%
X111000000Y-82000000D03*
%TO.P,U6,9,VCP*%
%TO.N,Net-(C29-Pad1)*%
X111650000Y-82000000D03*
%TO.P,U6,10,SPREAD*%
%TO.N,unconnected-(U6-Pad10)*%
X112300000Y-82000000D03*
%TO.P,U6,11,5VOUT*%
%TO.N,Net-(C21-Pad2)*%
X112950000Y-82000000D03*
%TO.P,U6,12,MS1_AD0*%
%TO.N,GND*%
X113600000Y-82000000D03*
%TO.P,U6,13,NC*%
%TO.N,unconnected-(U6-Pad13)*%
X114250000Y-82000000D03*
%TO.P,U6,14,MS2_AD1*%
%TO.N,GND*%
X114900000Y-82000000D03*
%TO.P,U6,15,DIAG*%
%TO.N,Net-(JP2-Pad1)*%
X114900000Y-76240000D03*
%TO.P,U6,16,INDEX*%
%TO.N,unconnected-(U6-Pad16)*%
X114250000Y-76240000D03*
%TO.P,U6,17,CLK*%
%TO.N,Net-(R38-Pad1)*%
X113600000Y-76240000D03*
%TO.P,U6,18,PDN_UART*%
%TO.N,Net-(R35-Pad1)*%
X112950000Y-76240000D03*
%TO.P,U6,19,VCC_IO*%
%TO.N,+3.3V*%
X112300000Y-76240000D03*
%TO.P,U6,20,STEP*%
%TO.N,XSTPR*%
X111650000Y-76240000D03*
%TO.P,U6,21,VREF*%
%TO.N,unconnected-(U6-Pad21)*%
X111000000Y-76240000D03*
%TO.P,U6,22,GND__1*%
%TO.N,GND*%
X110350000Y-76240000D03*
%TO.P,U6,23,DIR*%
%TO.N,XDIRR*%
X109700000Y-76240000D03*
%TO.P,U6,24,STDBY*%
%TO.N,unconnected-(U6-Pad24)*%
X109050000Y-76240000D03*
%TO.P,U6,25,OA2*%
%TO.N,Net-(J17-Pad1)*%
X108400000Y-76240000D03*
%TO.P,U6,26,VS__1*%
%TO.N,VCC*%
X107750000Y-76240000D03*
%TO.P,U6,27,BRA*%
%TO.N,Net-(R43-Pad1)*%
X107100000Y-76240000D03*
%TO.P,U6,28,OA1*%
%TO.N,Net-(J17-Pad2)*%
X106450000Y-76240000D03*
D47*
%TO.P,U6,29,GND__2*%
%TO.N,GND*%
X110675000Y-79120000D03*
%TD*%
D48*
%TO.P,J15,1,Pin_1*%
%TO.N,VCC*%
X128805000Y-131100000D03*
D49*
%TO.P,J15,2,Pin_2*%
%TO.N,Net-(J15-Pad2)*%
X133805000Y-131100000D03*
%TD*%
D34*
%TO.P,R2,1*%
%TO.N,+3.3V*%
X183750000Y-108450000D03*
%TO.P,R2,2*%
%TO.N,Net-(C5-Pad2)*%
X183750000Y-106450000D03*
%TD*%
D15*
%TO.P,R33,1*%
%TO.N,Net-(J16-Pad1)*%
X200675000Y-123100000D03*
%TO.P,R33,2*%
%TO.N,+3.3V*%
X198675000Y-123100000D03*
%TD*%
D34*
%TO.P,R41,1*%
%TO.N,+3.3V*%
X105150000Y-86800000D03*
%TO.P,R41,2*%
%TO.N,XENR*%
X105150000Y-84800000D03*
%TD*%
D25*
%TO.P,C12,1*%
%TO.N,Net-(C12-Pad1)*%
X159662500Y-127800000D03*
%TO.P,C12,2*%
%TO.N,GND*%
X161737500Y-127800000D03*
%TD*%
D15*
%TO.P,R57,1*%
%TO.N,Net-(JP6-Pad2)*%
X195200000Y-128000000D03*
%TO.P,R57,2*%
%TO.N,+3.3V*%
X193200000Y-128000000D03*
%TD*%
D36*
%TO.P,JP5,1,A*%
%TO.N,Net-(JP5-Pad1)*%
X170775000Y-82950000D03*
D37*
%TO.P,JP5,2,B*%
%TO.N,ZSTOP*%
X173315000Y-82950000D03*
%TD*%
D54*
%TO.P,J5,1,Pin_1*%
%TO.N,GND*%
X188520000Y-118055000D03*
D53*
%TO.P,J5,2,Pin_2*%
%TO.N,+5V*%
X191020000Y-118055000D03*
%TO.P,J5,3,Pin_3*%
%TO.N,/PROBE_SRVO*%
X193520000Y-118055000D03*
%TO.P,J5,4,Pin_4*%
%TO.N,/PROBE_DET*%
X196020000Y-118055000D03*
%TO.P,J5,5,Pin_5*%
%TO.N,GND*%
X198520000Y-118055000D03*
%TD*%
D34*
%TO.P,R51,1*%
%TO.N,+3.3V*%
X179650000Y-86800000D03*
%TO.P,R51,2*%
%TO.N,E0ENR*%
X179650000Y-84800000D03*
%TD*%
D15*
%TO.P,R48,1*%
%TO.N,Net-(R48-Pad1)*%
X178500000Y-76200000D03*
%TO.P,R48,2*%
%TO.N,GND*%
X176500000Y-76200000D03*
%TD*%
%TO.P,R39,1*%
%TO.N,Net-(R35-Pad1)*%
X128800000Y-78150000D03*
%TO.P,R39,2*%
%TO.N,GND*%
X126800000Y-78150000D03*
%TD*%
D36*
%TO.P,J22,1,Pin_1*%
%TO.N,+3.3V*%
X198875000Y-105400000D03*
D37*
%TO.P,J22,2,Pin_2*%
%TO.N,GPIO25*%
X196335000Y-105400000D03*
%TD*%
D28*
%TO.P,C23,1*%
%TO.N,GND*%
X137700000Y-86850152D03*
%TO.P,C23,2*%
%TO.N,Net-(C23-Pad2)*%
X137700000Y-84775152D03*
%TD*%
%TO.P,C9,1*%
%TO.N,Net-(C9-Pad1)*%
X110700000Y-111387500D03*
%TO.P,C9,2*%
%TO.N,Net-(C9-Pad2)*%
X110700000Y-109312500D03*
%TD*%
D52*
%TO.P,J19,1,Pin_1*%
%TO.N,Net-(J19-Pad1)*%
X150025000Y-69020000D03*
D53*
%TO.P,J19,2,Pin_2*%
%TO.N,Net-(J19-Pad2)*%
X147525000Y-69020000D03*
%TO.P,J19,3,Pin_3*%
%TO.N,Net-(J19-Pad3)*%
X145025000Y-69020000D03*
%TO.P,J19,4,Pin_4*%
%TO.N,Net-(J19-Pad4)*%
X142525000Y-69020000D03*
%TD*%
D52*
%TO.P,J18,1,Pin_1*%
%TO.N,Net-(J18-Pad1)*%
X135575000Y-69020000D03*
D53*
%TO.P,J18,2,Pin_2*%
%TO.N,Net-(J18-Pad2)*%
X133075000Y-69020000D03*
%TO.P,J18,3,Pin_3*%
%TO.N,Net-(J18-Pad3)*%
X130575000Y-69020000D03*
%TO.P,J18,4,Pin_4*%
%TO.N,Net-(J18-Pad4)*%
X128075000Y-69020000D03*
%TD*%
D28*
%TO.P,C21,1*%
%TO.N,GND*%
X112900000Y-86850152D03*
%TO.P,C21,2*%
%TO.N,Net-(C21-Pad2)*%
X112900000Y-84775152D03*
%TD*%
D36*
%TO.P,JP1,1,A*%
%TO.N,GND*%
X187100000Y-102775000D03*
D37*
%TO.P,JP1,2,B*%
%TO.N,Net-(C5-Pad2)*%
X187100000Y-105315000D03*
%TD*%
D39*
%TO.P,J12,1,Pin_1*%
%TO.N,Net-(J12-Pad1)*%
X160800000Y-119975000D03*
D40*
%TO.P,J12,2,Pin_2*%
%TO.N,VCC*%
X163300000Y-119975000D03*
%TD*%
D35*
%TO.P,R1,1*%
%TO.N,Net-(J2-PadA5)*%
X192700000Y-96100000D03*
%TO.P,R1,2*%
%TO.N,GND*%
X192700000Y-98100000D03*
%TD*%
D55*
%TO.N,GND*%
X138400000Y-82000000D03*
X164500000Y-82000000D03*
D56*
X135475000Y-79113413D03*
D57*
X134500000Y-117300000D03*
X151600000Y-76200000D03*
X161737500Y-127800000D03*
X165200000Y-86900000D03*
X132000000Y-116800000D03*
X126987500Y-98200000D03*
X126800000Y-76200000D03*
D58*
X121075000Y-119725000D03*
D57*
X143095000Y-104525000D03*
X157100000Y-106700000D03*
D59*
X154950000Y-118600000D03*
D57*
X190100000Y-86900000D03*
X115600000Y-86900000D03*
X123750000Y-112547349D03*
D56*
X160250000Y-79107500D03*
D57*
X117600000Y-101940000D03*
X150750000Y-127650000D03*
X150600000Y-103300000D03*
X178450000Y-111750000D03*
X121100000Y-117400000D03*
D56*
X110675000Y-79120000D03*
D57*
X132620000Y-119715000D03*
X123750000Y-108400000D03*
X117200000Y-106937500D03*
X119300000Y-119700000D03*
X111962500Y-106937500D03*
X155120000Y-102700000D03*
X102000000Y-76200000D03*
D60*
X106800000Y-100250000D03*
D59*
X153050000Y-125700000D03*
D57*
X145590000Y-110920000D03*
X192700000Y-98100000D03*
X176500000Y-76200000D03*
D58*
X134500000Y-119720000D03*
D56*
X185200000Y-79100000D03*
D59*
X174000000Y-112600000D03*
D57*
X198150000Y-91250000D03*
X175687500Y-127662500D03*
X152700000Y-120850000D03*
X168637500Y-127712500D03*
X140400000Y-86900000D03*
X126987500Y-104562500D03*
%TO.N,+3.3V*%
X118450000Y-92350000D03*
X141300000Y-91600000D03*
X180800000Y-87250000D03*
X124000000Y-99650000D03*
X166225000Y-122475000D03*
X131100000Y-92300000D03*
X118800000Y-99650000D03*
X168600000Y-126200000D03*
X175650000Y-126200000D03*
X194800000Y-122500000D03*
X141300000Y-84800000D03*
X166100000Y-84800000D03*
X191000000Y-84800000D03*
X106300000Y-87250000D03*
X131100000Y-87250000D03*
X182300000Y-124200000D03*
X116500000Y-84800000D03*
X193200000Y-127300000D03*
X155900000Y-87250000D03*
X169950000Y-113000000D03*
%TO.N,+5V*%
X120802651Y-110647349D03*
X158200000Y-101600000D03*
X121337500Y-104562500D03*
X128400000Y-103250000D03*
X164400000Y-113900000D03*
%TO.N,/HB_THERM*%
X178312500Y-125100000D03*
D55*
%TO.N,VCC*%
X157324500Y-76900000D03*
X132600000Y-76900000D03*
X157324500Y-76300000D03*
X132600000Y-82500000D03*
X132600000Y-75700000D03*
X157324500Y-81900000D03*
D57*
X185400000Y-86837500D03*
X110900000Y-86800000D03*
D55*
X157324500Y-81300000D03*
X182300000Y-75700000D03*
X182300000Y-82500000D03*
X182300000Y-76300000D03*
X182300000Y-76900000D03*
X132600000Y-76300000D03*
X107800000Y-82500000D03*
X182300000Y-81900000D03*
X132600000Y-81900000D03*
D57*
X135700000Y-86800000D03*
X160500000Y-86800000D03*
D55*
X107800000Y-76300000D03*
X107800000Y-75700000D03*
X132600000Y-81300000D03*
X157324500Y-75700000D03*
X157324500Y-82500000D03*
X182300000Y-81300000D03*
X107800000Y-81900000D03*
X107800000Y-81300000D03*
X107800000Y-76900000D03*
D57*
%TO.N,XDIR*%
X136600000Y-96000000D03*
%TO.N,XSTP*%
X135600000Y-97000000D03*
D61*
%TO.N,YSTP*%
X139700000Y-93100000D03*
%TO.N,ZSTP*%
X159400000Y-93200000D03*
D57*
%TO.N,XEN*%
X160300000Y-102100000D03*
X134400000Y-97900000D03*
D61*
%TO.N,YDIR*%
X140900000Y-93024500D03*
%TO.N,YEN*%
X138500000Y-93100000D03*
%TO.N,ZDIR*%
X160900000Y-92100000D03*
%TO.N,ZEN*%
X158300000Y-93200000D03*
D57*
%TO.N,E0DIR*%
X183100000Y-89200000D03*
X183900000Y-93100000D03*
%TO.N,E0EN*%
X182600000Y-91900000D03*
X185300000Y-91300000D03*
%TO.N,UART_TX*%
X160500000Y-97000000D03*
%TO.N,/FAN2_PWM*%
X146445000Y-108425000D03*
%TO.N,/HB_PWM*%
X160800000Y-103900000D03*
%TO.N,GPIO27*%
X168072211Y-100600000D03*
X187100000Y-98300000D03*
%TO.N,/FAN1_PWM*%
X146445000Y-105825000D03*
D61*
X157900000Y-99200000D03*
D57*
%TO.N,/E0_THERM*%
X189500000Y-123500000D03*
%TO.N,Net-(J2-PadA6)*%
X193100000Y-93300000D03*
X189000000Y-107900000D03*
X190700000Y-98200000D03*
%TO.N,Net-(J2-PadA7)*%
X189700000Y-108700000D03*
X191600000Y-99400000D03*
X192200000Y-94300000D03*
%TO.N,/E0_PWM*%
X155145000Y-109675000D03*
%TO.N,GPIO26*%
X187100000Y-99500000D03*
%TO.N,GPIO25*%
X187100000Y-100700000D03*
D61*
%TO.N,Net-(J17-Pad4)*%
X107700000Y-83600000D03*
%TO.N,Net-(J17-Pad3)*%
X106050000Y-80700000D03*
%TO.N,Net-(J18-Pad3)*%
X130850000Y-80700000D03*
%TO.N,Net-(J18-Pad4)*%
X132600000Y-83700000D03*
%TO.N,Net-(J19-Pad4)*%
X157400000Y-83700000D03*
%TO.N,Net-(J19-Pad3)*%
X155650000Y-80700000D03*
%TO.N,Net-(J20-Pad4)*%
X182300000Y-83700000D03*
%TO.N,Net-(J20-Pad3)*%
X180550000Y-80700000D03*
D57*
%TO.N,Net-(C1-Pad1)*%
X117450000Y-114800000D03*
X110650000Y-105500000D03*
X109100000Y-111500000D03*
%TO.N,Net-(C5-Pad2)*%
X183700000Y-105100000D03*
D61*
%TO.N,Net-(R40-Pad1)*%
X139050000Y-74000000D03*
X129100000Y-73500000D03*
%TO.N,Net-(R50-Pad1)*%
X163850000Y-74000000D03*
X153900000Y-73500000D03*
D57*
%TO.N,Net-(J13-Pad1)*%
X174950000Y-116150000D03*
%TO.N,Net-(R4-Pad2)*%
X122450000Y-107675500D03*
X111100000Y-118300000D03*
%TO.N,Net-(R16-Pad2)*%
X139200000Y-114800000D03*
X116600000Y-119400000D03*
%TO.N,Net-(R18-Pad2)*%
X139200000Y-113700000D03*
X129900000Y-119500000D03*
%TO.N,Net-(R28-Pad2)*%
X149345000Y-107125000D03*
X150700000Y-116900000D03*
%TO.N,Net-(R30-Pad2)*%
X149600000Y-109625000D03*
X180500000Y-115250000D03*
D61*
%TO.N,Net-(R35-Pad1)*%
X137750000Y-74400000D03*
X112950000Y-74400000D03*
X180400000Y-74400000D03*
D57*
X174900000Y-85900000D03*
D61*
X130967963Y-73834411D03*
X128200000Y-78300000D03*
X106167963Y-73834411D03*
X155767963Y-73834411D03*
X103400000Y-78300000D03*
X162550000Y-74400000D03*
X177900000Y-78300000D03*
D57*
X176900000Y-83900000D03*
X154200000Y-94700000D03*
D61*
X153000000Y-78300000D03*
X187470364Y-74645765D03*
%TO.N,Net-(R38-Pad1)*%
X114250000Y-74000000D03*
X104300000Y-73500000D03*
%TO.N,Net-(R48-Pad1)*%
X179100000Y-74000000D03*
X188800000Y-74300000D03*
D57*
%TO.N,Net-(R26-Pad2)*%
X149345000Y-104575000D03*
X148750000Y-123550000D03*
%TO.N,XSTOP*%
X157400000Y-124800000D03*
X160100000Y-109400000D03*
%TO.N,YSTOP*%
X164300000Y-124800000D03*
X167800000Y-98200000D03*
X161200000Y-110100000D03*
%TO.N,ZSTOP*%
X171500000Y-124800000D03*
X173400000Y-121700000D03*
X172000000Y-113100000D03*
X170900000Y-96200000D03*
%TO.N,E0STOP*%
X184500000Y-111800000D03*
X185200000Y-94900000D03*
D61*
%TO.N,XENR*%
X113350000Y-88150000D03*
D57*
X104000000Y-84800000D03*
D61*
%TO.N,YENR*%
X138150000Y-88150000D03*
D57*
X128800000Y-84800000D03*
D61*
%TO.N,E0ENR*%
X187850000Y-88150000D03*
D57*
X178500000Y-84800000D03*
D61*
%TO.N,ZENR*%
X158300000Y-89200000D03*
D57*
X153600000Y-84800000D03*
D61*
%TO.N,XSTPR*%
X111650000Y-74950000D03*
X114550000Y-88150000D03*
%TO.N,XDIRR*%
X115250000Y-89900000D03*
X109700000Y-74950000D03*
%TO.N,YSTPR*%
X136450000Y-74950000D03*
X139350000Y-88150000D03*
%TO.N,YDIRR*%
X134500000Y-74950000D03*
X140050000Y-89900000D03*
D55*
%TO.N,ZSTPR*%
X163800000Y-83400000D03*
D61*
X159500000Y-89200000D03*
X161250000Y-74950000D03*
D55*
%TO.N,ZDIRR*%
X161900000Y-83400000D03*
D61*
X160156623Y-90922649D03*
X159300000Y-74950000D03*
%TO.N,E0STPR*%
X189050000Y-88150000D03*
X186150000Y-74950000D03*
%TO.N,E0DIRR*%
X184200000Y-74950000D03*
X189750000Y-89900000D03*
D57*
%TO.N,/FAN0_PWM*%
X146445000Y-103375000D03*
D61*
X154800000Y-99200000D03*
%TD*%
D62*
%TO.N,+3.3V*%
X139700000Y-77900000D02*
X139700000Y-84775152D01*
D63*
X188588328Y-83300000D02*
X189400000Y-83300000D01*
X188100000Y-82811672D02*
X188588328Y-83300000D01*
D62*
X189400000Y-83300000D02*
X189400000Y-84775152D01*
X189400000Y-77900000D02*
X189400000Y-83300000D01*
D63*
X188100000Y-81998413D02*
X188100000Y-82811672D01*
D62*
X165200000Y-83200000D02*
X164500000Y-83900000D01*
X164500000Y-83900000D02*
X164500000Y-84775152D01*
X165200000Y-81000000D02*
X165200000Y-83200000D01*
X165000000Y-80800000D02*
X165200000Y-81000000D01*
D63*
X163500000Y-80800000D02*
X165000000Y-80800000D01*
X163175000Y-81125000D02*
X163500000Y-80800000D01*
D62*
X165000000Y-80482500D02*
X165000000Y-80800000D01*
D63*
X163175000Y-81987500D02*
X163175000Y-81125000D01*
D62*
X164500000Y-79982500D02*
X165000000Y-80482500D01*
X164500000Y-77900000D02*
X164500000Y-79982500D01*
D63*
%TO.N,GND*%
X113320000Y-79120000D02*
X110675000Y-79120000D01*
X114900000Y-80700000D02*
X113320000Y-79120000D01*
X114900000Y-82000000D02*
X114900000Y-80700000D01*
X111959157Y-79120000D02*
X110675000Y-79120000D01*
X113600000Y-80760843D02*
X111959157Y-79120000D01*
X113600000Y-82000000D02*
X113600000Y-80760843D01*
D62*
%TO.N,Net-(JP2-Pad1)*%
X115900000Y-82325000D02*
X115900000Y-77240000D01*
X116675000Y-83100000D02*
X115900000Y-82325000D01*
X120725000Y-83100000D02*
X116675000Y-83100000D01*
X115900000Y-77240000D02*
X114900000Y-76240000D01*
%TO.N,VCC*%
X117400000Y-82187500D02*
X116756250Y-81543750D01*
X116756250Y-81543750D02*
X116350000Y-81137500D01*
X116350000Y-81137500D02*
X116350000Y-77112500D01*
X116350000Y-77112500D02*
X117400000Y-76062500D01*
%TO.N,GND*%
X176500000Y-76200000D02*
X176500000Y-82050000D01*
X121075000Y-120985000D02*
X121075000Y-120325000D01*
X194050000Y-97175000D02*
X194050000Y-98050000D01*
X114900000Y-86850152D02*
X112900000Y-86850152D01*
X126987500Y-107012500D02*
X126987500Y-104637500D01*
X117885000Y-116085000D02*
X118600000Y-116800000D01*
X162500000Y-86850152D02*
X164500000Y-86850152D01*
X174000000Y-111600000D02*
X174000000Y-112600000D01*
D63*
X153050000Y-125700000D02*
X153050000Y-126850000D01*
D62*
X194050000Y-98600000D02*
X194400000Y-98950000D01*
X110350000Y-76240000D02*
X110350000Y-78795000D01*
X180112600Y-120004900D02*
X180112600Y-124825100D01*
X150600000Y-102800000D02*
X149830000Y-102030000D01*
X198150000Y-97950000D02*
X198150000Y-91250000D01*
X119300000Y-119700000D02*
X119315000Y-119715000D01*
X194445000Y-96780000D02*
X194050000Y-97175000D01*
X126987500Y-101400000D02*
X126987500Y-104562500D01*
X194050000Y-98150000D02*
X194050000Y-98600000D01*
X145590000Y-110920000D02*
X147810000Y-110920000D01*
X109700000Y-82000000D02*
X109700000Y-80095000D01*
X119300000Y-119700000D02*
X119285000Y-119715000D01*
X184762500Y-101812500D02*
X185725000Y-102775000D01*
X190100000Y-86900000D02*
X189449848Y-86900000D01*
X119315000Y-119715000D02*
X121075000Y-119715000D01*
X118600000Y-116800000D02*
X118600000Y-119400000D01*
X121075000Y-119075000D02*
X121075000Y-118445000D01*
X183750000Y-101812500D02*
X184762500Y-101812500D01*
X155195000Y-102625000D02*
X156595000Y-102625000D01*
X143095000Y-103375000D02*
X143095000Y-104525000D01*
X151600000Y-76200000D02*
X151600000Y-82050000D01*
X102000000Y-76200000D02*
X102000000Y-82050000D01*
X183750000Y-123150000D02*
X180100000Y-123150000D01*
X159275000Y-81987500D02*
X159275000Y-80082500D01*
X152980000Y-103300000D02*
X154520000Y-103300000D01*
X147810000Y-101022500D02*
X149357500Y-99475000D01*
D63*
X192912500Y-123100000D02*
X192912500Y-122187500D01*
D62*
X174350000Y-111250000D02*
X174000000Y-111600000D01*
X153950000Y-120850000D02*
X152700000Y-120850000D01*
D63*
X196725000Y-123400000D02*
X196725000Y-121625000D01*
D62*
X198150000Y-91250000D02*
X198150000Y-89300000D01*
X150600000Y-102800000D02*
X150600000Y-103300000D01*
X147810000Y-110920000D02*
X149880000Y-110920000D01*
X178450000Y-111750000D02*
X177950000Y-111250000D01*
X122150000Y-116800000D02*
X122150000Y-114147349D01*
X149830000Y-102030000D02*
X147810000Y-102030000D01*
X109400000Y-106937500D02*
X111962500Y-106937500D01*
X121075000Y-120325000D02*
X121075000Y-119725000D01*
X134000000Y-116800000D02*
X132000000Y-116800000D01*
X111962500Y-106937500D02*
X117200000Y-106937500D01*
X198150000Y-89300000D02*
X197050000Y-88200000D01*
D63*
X192912500Y-122187500D02*
X193500000Y-121600000D01*
D62*
X123750000Y-112547349D02*
X123750000Y-108400000D01*
D63*
X193500000Y-121600000D02*
X196700000Y-121600000D01*
D62*
X132000000Y-116800000D02*
X132000000Y-119420000D01*
X134500000Y-117300000D02*
X134000000Y-116800000D01*
X123750000Y-108400000D02*
X125600000Y-108400000D01*
X140400000Y-86900000D02*
X139749848Y-86900000D01*
X194000000Y-98100000D02*
X194050000Y-98150000D01*
X154520000Y-103300000D02*
X155120000Y-102700000D01*
X147810000Y-102030000D02*
X147810000Y-101022500D01*
X126800000Y-76200000D02*
X126800000Y-82050000D01*
X121075000Y-119725000D02*
X121075000Y-119075000D01*
X117200000Y-106937500D02*
X119700000Y-106937500D01*
X152980000Y-103300000D02*
X150600000Y-103300000D01*
X150325000Y-103575000D02*
X150600000Y-103300000D01*
X194400000Y-98950000D02*
X197150000Y-98950000D01*
X174000000Y-112600000D02*
X174000000Y-112650000D01*
X125200000Y-104600000D02*
X126950000Y-104600000D01*
X125600000Y-108400000D02*
X126987500Y-107012500D01*
X121100000Y-117400000D02*
X121100000Y-118420000D01*
X197150000Y-98950000D02*
X198150000Y-97950000D01*
X174350000Y-111250000D02*
X177950000Y-111250000D01*
X115050000Y-115450000D02*
X113410000Y-115450000D01*
X117546000Y-101940000D02*
X117600000Y-101940000D01*
X115685000Y-116085000D02*
X115050000Y-115450000D01*
X121100000Y-117400000D02*
X121700000Y-116800000D01*
D63*
X153050000Y-126850000D02*
X152250000Y-127650000D01*
D62*
X134500000Y-118445000D02*
X134500000Y-117300000D01*
X134500000Y-119070000D02*
X134500000Y-118445000D01*
X159925000Y-76227500D02*
X159925000Y-78782500D01*
X143095000Y-108425000D02*
X145590000Y-110920000D01*
X122150000Y-116800000D02*
X132000000Y-116800000D01*
X154950000Y-118600000D02*
X154950000Y-119850000D01*
X189400000Y-86850152D02*
X187400000Y-86850152D01*
X189449848Y-86900000D02*
X189400000Y-86850152D01*
X121100000Y-118420000D02*
X121075000Y-118445000D01*
X122150000Y-114147349D02*
X123750000Y-112547349D01*
D63*
X188520000Y-116280000D02*
X189137500Y-115662500D01*
X189137500Y-115662500D02*
X189137500Y-113600000D01*
X198520000Y-121080000D02*
X198520000Y-118055000D01*
D62*
X197050000Y-88200000D02*
X194850000Y-88200000D01*
D63*
X196725000Y-121625000D02*
X196700000Y-121600000D01*
X188520000Y-118055000D02*
X188520000Y-116280000D01*
D62*
X115600000Y-86900000D02*
X114949848Y-86900000D01*
X157095000Y-106705000D02*
X157095000Y-107825000D01*
X121300000Y-108400000D02*
X123750000Y-108400000D01*
X135150000Y-76233413D02*
X135150000Y-78788413D01*
X154950000Y-119850000D02*
X153950000Y-120850000D01*
X184850000Y-76238413D02*
X184850000Y-78748413D01*
X185725000Y-102775000D02*
X187100000Y-102775000D01*
D63*
X152250000Y-127650000D02*
X150750000Y-127650000D01*
D62*
X184200000Y-81998413D02*
X184200000Y-80093413D01*
X126987500Y-104562500D02*
X126987500Y-104637500D01*
X132620000Y-119715000D02*
X134500000Y-119715000D01*
X165200000Y-86900000D02*
X164549848Y-86900000D01*
X195324200Y-96780000D02*
X194445000Y-96780000D01*
X184200000Y-125300000D02*
X184200000Y-123600000D01*
X194350000Y-89685200D02*
X195044800Y-90380000D01*
X143095000Y-104525000D02*
X143095000Y-108425000D01*
X150325000Y-110475000D02*
X150325000Y-103575000D01*
X139700000Y-86850152D02*
X137700000Y-86850152D01*
D63*
X196700000Y-121600000D02*
X198000000Y-121600000D01*
D62*
X134500000Y-81993413D02*
X134500000Y-80088413D01*
X126950000Y-104600000D02*
X126987500Y-104637500D01*
X121700000Y-116800000D02*
X122150000Y-116800000D01*
X134500000Y-120985000D02*
X134500000Y-120270000D01*
X192700000Y-98100000D02*
X194000000Y-98100000D01*
X184200000Y-123600000D02*
X183750000Y-123150000D01*
D63*
X198000000Y-121600000D02*
X198520000Y-121080000D01*
D62*
X120000000Y-107100000D02*
X121300000Y-108400000D01*
X194050000Y-98050000D02*
X194050000Y-98150000D01*
X157100000Y-106700000D02*
X157095000Y-106705000D01*
X149880000Y-110920000D02*
X150325000Y-110475000D01*
X119285000Y-119715000D02*
X118915000Y-119715000D01*
X194350000Y-88700000D02*
X194350000Y-89685200D01*
X126987500Y-98200000D02*
X126987500Y-101400000D01*
X194850000Y-88200000D02*
X194350000Y-88700000D01*
X139749848Y-86900000D02*
X139700000Y-86850152D01*
X132000000Y-119420000D02*
X131920000Y-119500000D01*
X164549848Y-86900000D02*
X164500000Y-86850152D01*
X116110000Y-116085000D02*
X117885000Y-116085000D01*
X114949848Y-86900000D02*
X114900000Y-86850152D01*
%TO.N,+3.3V*%
X186800000Y-77008952D02*
X187036048Y-77245000D01*
X170637500Y-111200000D02*
X173400000Y-111200000D01*
X154750000Y-86800000D02*
X155200000Y-87250000D01*
X137100000Y-76140000D02*
X137100000Y-77008952D01*
X189100000Y-110000000D02*
X187550000Y-108450000D01*
X169800000Y-113000000D02*
X169950000Y-113000000D01*
X186150000Y-125100000D02*
X184850000Y-126400000D01*
X124912500Y-99687500D02*
X124912500Y-101400000D01*
X124875000Y-99650000D02*
X124912500Y-99687500D01*
D64*
X198875000Y-106425000D02*
X198400000Y-106900000D01*
D62*
X166250000Y-116550000D02*
X169800000Y-113000000D01*
X139045000Y-77245000D02*
X139700000Y-77900000D01*
X198675000Y-123300000D02*
X198675000Y-124125000D01*
X161900000Y-77008952D02*
X162136048Y-77245000D01*
X141275152Y-84775152D02*
X139700000Y-84775152D01*
X180100000Y-87250000D02*
X180800000Y-87250000D01*
X124912500Y-98200000D02*
X124912500Y-99687500D01*
X105150000Y-86800000D02*
X105600000Y-87250000D01*
X195187500Y-106900000D02*
X194900000Y-106900000D01*
X170637500Y-111200000D02*
X170637500Y-112312500D01*
D63*
X193200000Y-128000000D02*
X193200000Y-127300000D01*
D62*
X190975152Y-84775152D02*
X189400000Y-84775152D01*
X166075152Y-84775152D02*
X164500000Y-84775152D01*
X179660000Y-109700000D02*
X178400000Y-108440000D01*
X187036048Y-77245000D02*
X188745000Y-77245000D01*
X163845000Y-77245000D02*
X164500000Y-77900000D01*
X183750000Y-108450000D02*
X183750000Y-109250000D01*
X166250000Y-122450000D02*
X166250000Y-116550000D01*
X168600000Y-126200000D02*
X168600000Y-125100000D01*
X129950000Y-86800000D02*
X130400000Y-87250000D01*
X137336048Y-77245000D02*
X139045000Y-77245000D01*
X194900000Y-106900000D02*
X190900000Y-110900000D01*
X175860000Y-108740000D02*
X175860000Y-108440000D01*
X183300000Y-109700000D02*
X179660000Y-109700000D01*
X117546000Y-99650000D02*
X118800000Y-99650000D01*
X124000000Y-99650000D02*
X124875000Y-99650000D01*
X186800000Y-76140000D02*
X186800000Y-77008952D01*
D64*
X198400000Y-106900000D02*
X195187500Y-106900000D01*
D62*
X187550000Y-108450000D02*
X183750000Y-108450000D01*
X165650000Y-123050000D02*
X166225000Y-122475000D01*
X198675000Y-124125000D02*
X198375000Y-124425000D01*
X166225000Y-122475000D02*
X166250000Y-122450000D01*
D64*
X198875000Y-105400000D02*
X198875000Y-106425000D01*
D62*
X173400000Y-111200000D02*
X175860000Y-108740000D01*
X161700000Y-125100000D02*
X161700000Y-123900000D01*
X183750000Y-109250000D02*
X183300000Y-109700000D01*
X105600000Y-87250000D02*
X106300000Y-87250000D01*
X162550000Y-123050000D02*
X165650000Y-123050000D01*
X194825000Y-124175000D02*
X194825000Y-123600000D01*
X182300000Y-125300000D02*
X182300000Y-124200000D01*
X175650000Y-126200000D02*
X175650000Y-125100000D01*
X195075000Y-124425000D02*
X194825000Y-124175000D01*
X189100000Y-110900000D02*
X189100000Y-110000000D01*
X161900000Y-76140000D02*
X161900000Y-77008952D01*
X116500000Y-84800000D02*
X116475152Y-84775152D01*
X184850000Y-126400000D02*
X183100000Y-126400000D01*
X170637500Y-112312500D02*
X169950000Y-113000000D01*
X161700000Y-123900000D02*
X162550000Y-123050000D01*
X188745000Y-77245000D02*
X189400000Y-77900000D01*
X198375000Y-124425000D02*
X195075000Y-124425000D01*
X190900000Y-110900000D02*
X189100000Y-110900000D01*
X183100000Y-126400000D02*
X182300000Y-125600000D01*
X137100000Y-77008952D02*
X137336048Y-77245000D01*
X155200000Y-87250000D02*
X155900000Y-87250000D01*
X179650000Y-86800000D02*
X180100000Y-87250000D01*
X162136048Y-77245000D02*
X163845000Y-77245000D01*
X116475152Y-84775152D02*
X114900000Y-84775152D01*
X130400000Y-87250000D02*
X131100000Y-87250000D01*
%TO.N,+5V*%
X151432500Y-99475000D02*
X151432500Y-98532500D01*
X120000000Y-103900000D02*
X120000000Y-104562500D01*
X121350000Y-102550000D02*
X120000000Y-103900000D01*
X147500000Y-98300000D02*
X147150000Y-98650000D01*
D65*
X144100000Y-101700000D02*
X147150000Y-98650000D01*
D62*
X191020000Y-116280000D02*
X191600000Y-115700000D01*
D65*
X129150000Y-103250000D02*
X130700000Y-101700000D01*
D62*
X191020000Y-118055000D02*
X191020000Y-116280000D01*
X120000000Y-104562500D02*
X121337500Y-104562500D01*
X116734849Y-110647349D02*
X120802651Y-110647349D01*
X157622500Y-101022500D02*
X152980000Y-101022500D01*
D65*
X130700000Y-101700000D02*
X144100000Y-101700000D01*
D62*
X152980000Y-101022500D02*
X151432500Y-99475000D01*
D63*
X198875000Y-114525000D02*
X197700000Y-115700000D01*
D62*
X151432500Y-98532500D02*
X151200000Y-98300000D01*
X120802651Y-110647349D02*
X122150000Y-110647349D01*
X121337500Y-104562500D02*
X122662500Y-104562500D01*
X158200000Y-101600000D02*
X157622500Y-101022500D01*
X121350000Y-101825000D02*
X121350000Y-102550000D01*
X152980000Y-102030000D02*
X152980000Y-101022500D01*
X191600000Y-115700000D02*
X197700000Y-115700000D01*
D65*
X128400000Y-103250000D02*
X129150000Y-103250000D01*
D63*
X198875000Y-108300000D02*
X198875000Y-114525000D01*
D62*
X151200000Y-98300000D02*
X147500000Y-98300000D01*
%TO.N,Net-(C12-Pad1)*%
X159662500Y-127800000D02*
X157700000Y-127800000D01*
X158320520Y-129141980D02*
X159662500Y-127800000D01*
X158320520Y-133744880D02*
X158320520Y-129141980D01*
X159662500Y-125137500D02*
X159662500Y-127800000D01*
%TO.N,/HB_THERM*%
X178312500Y-125100000D02*
X178312500Y-127762500D01*
%TO.N,Net-(C15-Pad1)*%
X166600000Y-125100000D02*
X166600000Y-127762500D01*
X166562500Y-127800000D02*
X164600000Y-127800000D01*
X166562500Y-133586380D02*
X166562500Y-127800000D01*
%TO.N,Net-(C16-Pad1)*%
X173612500Y-127800000D02*
X171750000Y-127800000D01*
X173612500Y-133212500D02*
X173612500Y-127800000D01*
X174144960Y-133744960D02*
X173612500Y-133212500D01*
X175121560Y-133744960D02*
X174144960Y-133744960D01*
X173650000Y-125100000D02*
X173650000Y-127762500D01*
%TO.N,Net-(C17-Pad1)*%
X186000000Y-113600000D02*
X187062500Y-113600000D01*
D63*
X187100000Y-110900000D02*
X187100000Y-113562500D01*
D62*
X178800000Y-117400000D02*
X182800000Y-117400000D01*
D63*
X187100000Y-113562500D02*
X187062500Y-113600000D01*
D62*
X184500000Y-114100000D02*
X185500000Y-114100000D01*
X177612600Y-118587400D02*
X178800000Y-117400000D01*
X182800000Y-117400000D02*
X184500000Y-115700000D01*
X184500000Y-115700000D02*
X184500000Y-114100000D01*
X177612600Y-120004900D02*
X177612600Y-118587400D01*
X185500000Y-114100000D02*
X186000000Y-113600000D01*
%TO.N,Net-(C25-Pad1)*%
X123517621Y-77875000D02*
X122292621Y-79100000D01*
X117400000Y-80112500D02*
X117400000Y-79100000D01*
X122292621Y-79100000D02*
X117400000Y-79100000D01*
X117400000Y-79100000D02*
X117400000Y-78137500D01*
%TO.N,VCC*%
X142350000Y-76055913D02*
X144162500Y-77868413D01*
X117305000Y-128455000D02*
X114950000Y-126100000D01*
X106900000Y-119900000D02*
X109200000Y-122200000D01*
X191100000Y-81698413D02*
X191100000Y-76648413D01*
X166125000Y-77100000D02*
X167175000Y-76050000D01*
X109200000Y-122200000D02*
X112900000Y-122200000D01*
X167175000Y-82175000D02*
X166125000Y-81125000D01*
X192150000Y-76060913D02*
X193962500Y-77873413D01*
X117305000Y-134005000D02*
X118000000Y-134700000D01*
X193962500Y-77873413D02*
X196140021Y-77873413D01*
X106900000Y-113650000D02*
X106700000Y-113450000D01*
X117305000Y-131100000D02*
X117305000Y-134005000D01*
X144162500Y-77868413D02*
X146117621Y-77868413D01*
X191100000Y-76648413D02*
X191687500Y-76060913D01*
X169000000Y-77875000D02*
X170925000Y-77875000D01*
X112900000Y-125000000D02*
X112900000Y-122200000D01*
X128805000Y-133995000D02*
X128805000Y-131100000D01*
X106900000Y-116300000D02*
X106900000Y-119900000D01*
X102200000Y-113450000D02*
X101800000Y-113050000D01*
X118000000Y-134700000D02*
X128100000Y-134700000D01*
X106700000Y-113450000D02*
X102200000Y-113450000D01*
X141737500Y-82180913D02*
X141300000Y-81743413D01*
X167175000Y-76050000D02*
X169000000Y-77875000D01*
X166125000Y-81125000D02*
X166125000Y-77100000D01*
X114000000Y-126100000D02*
X112900000Y-125000000D01*
X114950000Y-126100000D02*
X114000000Y-126100000D01*
X106900000Y-116300000D02*
X106900000Y-113650000D01*
D63*
X121017621Y-77875000D02*
X119212500Y-77875000D01*
D62*
X141300000Y-77105913D02*
X142350000Y-76055913D01*
X191587500Y-82185913D02*
X191100000Y-81698413D01*
X117305000Y-131100000D02*
X117305000Y-128455000D01*
X128100000Y-134700000D02*
X128805000Y-133995000D01*
X101800000Y-113050000D02*
X101800000Y-111500000D01*
X141300000Y-81743413D02*
X141300000Y-77105913D01*
D63*
X119212500Y-77875000D02*
X117400000Y-76062500D01*
D62*
%TO.N,Net-(C27-Pad1)*%
X142350000Y-78130913D02*
X142350000Y-79143413D01*
X142350000Y-79143413D02*
X142350000Y-80105913D01*
X142400000Y-79093413D02*
X147392621Y-79093413D01*
X147392621Y-79093413D02*
X148617621Y-77868413D01*
%TO.N,Net-(C39-Pad1)*%
X192248413Y-79100000D02*
X192150000Y-79198413D01*
X192150000Y-80110913D02*
X192150000Y-78135913D01*
X198640021Y-77873413D02*
X197413434Y-79100000D01*
X197413434Y-79100000D02*
X192248413Y-79100000D01*
%TO.N,Net-(C41-Pad1)*%
X172212500Y-79087500D02*
X173425000Y-77875000D01*
X167175000Y-79087500D02*
X172212500Y-79087500D01*
X167175000Y-80100000D02*
X167175000Y-79087500D01*
X167175000Y-79087500D02*
X167175000Y-78125000D01*
%TO.N,Net-(D2-Pad1)*%
X101500000Y-118200000D02*
X99650000Y-120050000D01*
X101500000Y-116300000D02*
X101500000Y-118200000D01*
X101100000Y-133500000D02*
X106095000Y-133500000D01*
X99650000Y-120050000D02*
X99650000Y-132050000D01*
X99650000Y-132050000D02*
X101100000Y-133500000D01*
%TO.N,XDIR*%
X115250000Y-92650000D02*
X116400000Y-93800000D01*
X116400000Y-93800000D02*
X134400000Y-93800000D01*
X115250000Y-91050000D02*
X115250000Y-92650000D01*
X134400000Y-93800000D02*
X136600000Y-96000000D01*
%TO.N,XSTP*%
X132900000Y-94300000D02*
X135600000Y-97000000D01*
X115900000Y-94300000D02*
X132900000Y-94300000D01*
X114450000Y-91050000D02*
X114450000Y-92850000D01*
X114450000Y-92850000D02*
X115900000Y-94300000D01*
%TO.N,YSTP*%
X139700000Y-93100000D02*
X139250000Y-92650000D01*
X139250000Y-92650000D02*
X139250000Y-91050000D01*
%TO.N,ZSTP*%
X159400000Y-93200000D02*
X159400000Y-92100000D01*
%TO.N,XEN*%
X115900000Y-95200000D02*
X131700000Y-95200000D01*
X131700000Y-95200000D02*
X134400000Y-97900000D01*
X113650000Y-92950000D02*
X115900000Y-95200000D01*
X113650000Y-91050000D02*
X113650000Y-92950000D01*
%TO.N,YDIR*%
X140900000Y-93024500D02*
X140050000Y-92174500D01*
X140050000Y-92174500D02*
X140050000Y-91050000D01*
%TO.N,YEN*%
X138450000Y-93050000D02*
X138450000Y-91050000D01*
X138500000Y-93100000D02*
X138450000Y-93050000D01*
%TO.N,ZDIR*%
X160200000Y-92100000D02*
X160900000Y-92100000D01*
%TO.N,ZEN*%
X158600000Y-92900000D02*
X158300000Y-93200000D01*
X158600000Y-92100000D02*
X158600000Y-92900000D01*
%TO.N,E0DIR*%
X189750000Y-92050000D02*
X189750000Y-91050000D01*
X182700000Y-88800000D02*
X170556999Y-88800000D01*
X184100000Y-93300000D02*
X188500000Y-93300000D01*
X170303144Y-91900000D02*
X172020000Y-91900000D01*
X183900000Y-93100000D02*
X184100000Y-93300000D01*
X169566000Y-91162856D02*
X170303144Y-91900000D01*
X169566000Y-89790999D02*
X169566000Y-91162856D01*
X188500000Y-93300000D02*
X189750000Y-92050000D01*
X172020000Y-91900000D02*
X173320000Y-93200000D01*
X170556999Y-88800000D02*
X169566000Y-89790999D01*
X183100000Y-89200000D02*
X182700000Y-88800000D01*
%TO.N,E0EN*%
X188150000Y-91700000D02*
X188150000Y-91050000D01*
X185300000Y-91300000D02*
X185900000Y-91900000D01*
X185900000Y-91900000D02*
X187950000Y-91900000D01*
X175860000Y-93200000D02*
X177160000Y-91900000D01*
X187950000Y-91900000D02*
X188150000Y-91700000D01*
X182600000Y-91900000D02*
X177160000Y-91900000D01*
%TO.N,E0STP*%
X184800000Y-92500000D02*
X188200000Y-92500000D01*
X188200000Y-92500000D02*
X188950000Y-91750000D01*
X181700000Y-89400000D02*
X184800000Y-92500000D01*
X188950000Y-91750000D02*
X188950000Y-91050000D01*
X174580000Y-89400000D02*
X181700000Y-89400000D01*
X173320000Y-90660000D02*
X174580000Y-89400000D01*
%TO.N,UART_RX*%
X162414000Y-91986000D02*
X161900000Y-92500000D01*
X161400000Y-94700000D02*
X156200000Y-94700000D01*
X161900000Y-92500000D02*
X161900000Y-94200000D01*
X169086000Y-91986000D02*
X162414000Y-91986000D01*
X161900000Y-94200000D02*
X161400000Y-94700000D01*
X170780000Y-93200000D02*
X170300000Y-93200000D01*
X170300000Y-93200000D02*
X169086000Y-91986000D01*
%TO.N,/FAN2_PWM*%
X146445000Y-108425000D02*
X147765000Y-108425000D01*
X145095000Y-108425000D02*
X146445000Y-108425000D01*
%TO.N,/HB_PWM*%
X155495000Y-106375000D02*
X154760000Y-107110000D01*
X160425000Y-104275000D02*
X156945000Y-104275000D01*
X155495000Y-104825000D02*
X155495000Y-106375000D01*
X156045000Y-104275000D02*
X155495000Y-104825000D01*
X154760000Y-107110000D02*
X152980000Y-107110000D01*
X156945000Y-104275000D02*
X156045000Y-104275000D01*
X160800000Y-103900000D02*
X160425000Y-104275000D01*
D63*
%TO.N,GPIO27*%
X168072211Y-100600000D02*
X173600000Y-100600000D01*
X173600000Y-100600000D02*
X177200000Y-97000000D01*
X185800000Y-97000000D02*
X187100000Y-98300000D01*
X177200000Y-97000000D02*
X185800000Y-97000000D01*
%TO.N,/FAN1_PWM*%
X161700000Y-97200000D02*
X161700000Y-98100000D01*
D62*
X147795000Y-105825000D02*
X146445000Y-105825000D01*
D63*
X160600000Y-99200000D02*
X157900000Y-99200000D01*
X163160000Y-95740000D02*
X161700000Y-97200000D01*
X161700000Y-98100000D02*
X160600000Y-99200000D01*
D62*
X146445000Y-105825000D02*
X145095000Y-105825000D01*
D63*
%TO.N,/E0_THERM*%
X189500000Y-123500000D02*
X189500000Y-124000000D01*
X189875000Y-124375000D02*
X190875000Y-124375000D01*
X190875000Y-124375000D02*
X190875000Y-123137500D01*
X189500000Y-124000000D02*
X189875000Y-124375000D01*
X190875000Y-125750000D02*
X190875000Y-124375000D01*
X190875000Y-123137500D02*
X190837500Y-123100000D01*
D62*
%TO.N,Net-(J2-PadA5)*%
X195324200Y-94830000D02*
X194570000Y-94830000D01*
X195324200Y-91830001D02*
X196198101Y-91830001D01*
X196970000Y-94830000D02*
X195324200Y-94830000D01*
X193800000Y-96100000D02*
X192700000Y-96100000D01*
X194150000Y-95250000D02*
X194150000Y-95750000D01*
X197200000Y-94600000D02*
X196970000Y-94830000D01*
X197200000Y-92831900D02*
X197200000Y-94600000D01*
X196198101Y-91830001D02*
X197200000Y-92831900D01*
X194570000Y-94830000D02*
X194150000Y-95250000D01*
X194150000Y-95750000D02*
X193800000Y-96100000D01*
%TO.N,Net-(J2-PadA6)*%
X190600000Y-98300000D02*
X190700000Y-98200000D01*
X194450301Y-92829999D02*
X194427700Y-92852600D01*
X190600000Y-106300000D02*
X190600000Y-98300000D01*
X193100000Y-93300000D02*
X194400000Y-93300000D01*
X194427700Y-93807400D02*
X194450300Y-93830000D01*
X194450300Y-93830000D02*
X195324200Y-93830000D01*
X195324200Y-92829999D02*
X194450301Y-92829999D01*
X194427700Y-93327700D02*
X194427700Y-93807400D01*
X194427700Y-92852600D02*
X194427700Y-93327700D01*
X194400000Y-93300000D02*
X194427700Y-93327700D01*
X189000000Y-107900000D02*
X190600000Y-106300000D01*
%TO.N,Net-(J2-PadA7)*%
X196220700Y-93352600D02*
X196220700Y-94307400D01*
X195324200Y-93330000D02*
X196198100Y-93330000D01*
X196198099Y-94330001D02*
X195324200Y-94330001D01*
X191600000Y-106800000D02*
X191600000Y-99400000D01*
X189700000Y-108700000D02*
X191600000Y-106800000D01*
X195324200Y-94330001D02*
X192230001Y-94330001D01*
X192230001Y-94330001D02*
X192200000Y-94300000D01*
X196198100Y-93330000D02*
X196220700Y-93352600D01*
X196220700Y-94307400D02*
X196198099Y-94330001D01*
%TO.N,/E0_PWM*%
X155120000Y-109650000D02*
X152980000Y-109650000D01*
X156920000Y-109650000D02*
X155170000Y-109650000D01*
D63*
%TO.N,GPIO26*%
X175600000Y-101600000D02*
X177619000Y-99581000D01*
X166480000Y-101600000D02*
X175600000Y-101600000D01*
X187019000Y-99581000D02*
X187100000Y-99500000D01*
X165700000Y-100820000D02*
X166480000Y-101600000D01*
X177619000Y-99581000D02*
X187019000Y-99581000D01*
D62*
%TO.N,GPIO25*%
X187100000Y-100700000D02*
X183000000Y-100700000D01*
X163160000Y-100820000D02*
X164422964Y-102082964D01*
X181617036Y-102082964D02*
X164422964Y-102082964D01*
X183000000Y-100700000D02*
X181617036Y-102082964D01*
%TO.N,Net-(J17-Pad4)*%
X108400000Y-82900000D02*
X108400000Y-82000000D01*
X107700000Y-83600000D02*
X108400000Y-82900000D01*
%TO.N,Net-(J17-Pad3)*%
X106450000Y-81100000D02*
X106450000Y-82000000D01*
X106050000Y-80700000D02*
X106450000Y-81100000D01*
%TO.N,Net-(J17-Pad2)*%
X106450000Y-75050000D02*
X106450000Y-76240000D01*
X113875000Y-70425000D02*
X112100000Y-72200000D01*
X112100000Y-72200000D02*
X110100000Y-72200000D01*
X106650000Y-74850000D02*
X106450000Y-75050000D01*
X107450000Y-74850000D02*
X106650000Y-74850000D01*
X110100000Y-72200000D02*
X107450000Y-74850000D01*
X113875000Y-69020000D02*
X113875000Y-70425000D01*
%TO.N,Net-(J17-Pad1)*%
X113800000Y-73000000D02*
X110500000Y-73000000D01*
X116375000Y-70425000D02*
X113800000Y-73000000D01*
X108400000Y-75100000D02*
X108400000Y-76240000D01*
X116375000Y-69020000D02*
X116375000Y-70425000D01*
X110500000Y-73000000D02*
X108400000Y-75100000D01*
%TO.N,Net-(J18-Pad1)*%
X135575000Y-69020000D02*
X135575000Y-72125000D01*
X135575000Y-72125000D02*
X133200000Y-74500000D01*
X133200000Y-74500000D02*
X133200000Y-76233413D01*
%TO.N,Net-(J18-Pad2)*%
X131250000Y-75050000D02*
X133075000Y-73225000D01*
X131250000Y-76233413D02*
X131250000Y-75050000D01*
X133075000Y-73225000D02*
X133075000Y-69020000D01*
%TO.N,Net-(J18-Pad3)*%
X130850000Y-80700000D02*
X131250000Y-81100000D01*
X131250000Y-81100000D02*
X131250000Y-82000000D01*
%TO.N,Net-(J18-Pad4)*%
X133200000Y-83140812D02*
X133200000Y-82000000D01*
X132600000Y-83700000D02*
X132640812Y-83700000D01*
X132640812Y-83700000D02*
X133200000Y-83140812D01*
%TO.N,Net-(J19-Pad4)*%
X157440812Y-83700000D02*
X158000000Y-83140812D01*
X157400000Y-83700000D02*
X157440812Y-83700000D01*
X158000000Y-83140812D02*
X158000000Y-82000000D01*
X142525000Y-69020000D02*
X144115733Y-67429267D01*
X144115733Y-67429267D02*
X155134267Y-67429267D01*
X155134267Y-67429267D02*
X156725000Y-69020000D01*
%TO.N,Net-(J19-Pad3)*%
X159225000Y-69020000D02*
X157634267Y-70610733D01*
X157634267Y-70610733D02*
X146615733Y-70610733D01*
X155650000Y-80700000D02*
X156050000Y-81100000D01*
X156050000Y-81100000D02*
X156050000Y-82000000D01*
X146615733Y-70610733D02*
X145025000Y-69020000D01*
%TO.N,Net-(J19-Pad2)*%
X161725000Y-69020000D02*
X161725000Y-70275000D01*
X161300000Y-70700000D02*
X160300000Y-70700000D01*
X161725000Y-70275000D02*
X161300000Y-70700000D01*
X160300000Y-70700000D02*
X156025000Y-74975000D01*
X156025000Y-74975000D02*
X156025000Y-76227500D01*
%TO.N,Net-(J19-Pad1)*%
X157975000Y-75125000D02*
X157975000Y-76227500D01*
X164225000Y-70475000D02*
X163800000Y-70900000D01*
X163800000Y-70900000D02*
X162200000Y-70900000D01*
X162200000Y-70900000D02*
X157975000Y-75125000D01*
X164225000Y-69020000D02*
X164225000Y-70475000D01*
%TO.N,Net-(J20-Pad4)*%
X182300000Y-83700000D02*
X182900000Y-83100000D01*
X182900000Y-83100000D02*
X182900000Y-82000000D01*
%TO.N,Net-(J20-Pad3)*%
X180950000Y-81100000D02*
X180950000Y-82000000D01*
X180550000Y-80700000D02*
X180950000Y-81100000D01*
%TO.N,Net-(J20-Pad2)*%
X181400000Y-74800000D02*
X181400000Y-73900000D01*
X180950000Y-76238413D02*
X180950000Y-75250000D01*
X180400000Y-72900000D02*
X179000000Y-72900000D01*
X176275000Y-70175000D02*
X176275000Y-69020000D01*
X180950000Y-75250000D02*
X181400000Y-74800000D01*
X181400000Y-73900000D02*
X180400000Y-72900000D01*
X179000000Y-72900000D02*
X176275000Y-70175000D01*
%TO.N,Net-(J20-Pad1)*%
X182900000Y-76238413D02*
X182900000Y-74300000D01*
X178775000Y-70175000D02*
X178775000Y-69020000D01*
X182900000Y-74300000D02*
X178775000Y-70175000D01*
D66*
%TO.N,Net-(C1-Pad1)*%
X116110000Y-114815000D02*
X117435000Y-114815000D01*
X110612500Y-104862500D02*
X109400000Y-104862500D01*
X110650000Y-105500000D02*
X110650000Y-104900000D01*
X106800000Y-111500000D02*
X109100000Y-111500000D01*
D62*
X117435000Y-114815000D02*
X117450000Y-114800000D01*
D66*
X110650000Y-104900000D02*
X110612500Y-104862500D01*
X117200000Y-104862500D02*
X110612500Y-104862500D01*
D62*
%TO.N,Net-(C9-Pad1)*%
X110710000Y-113545000D02*
X110710000Y-111397500D01*
%TO.N,Net-(C9-Pad2)*%
X116110000Y-112710000D02*
X116110000Y-113545000D01*
X113512500Y-110400000D02*
X112425000Y-109312500D01*
X113512500Y-112062500D02*
X113750000Y-112300000D01*
X107150000Y-102400000D02*
X102350000Y-102400000D01*
X108150000Y-103400000D02*
X107150000Y-102400000D01*
X113750000Y-112300000D02*
X115700000Y-112300000D01*
X102350000Y-102400000D02*
X101800000Y-101850000D01*
X108150000Y-108000000D02*
X108150000Y-103400000D01*
X109350000Y-108300000D02*
X108450000Y-108300000D01*
X101800000Y-101850000D02*
X101800000Y-100250000D01*
X112425000Y-109312500D02*
X110700000Y-109312500D01*
X115700000Y-112300000D02*
X116110000Y-112710000D01*
X110362500Y-109312500D02*
X109350000Y-108300000D01*
X108450000Y-108300000D02*
X108150000Y-108000000D01*
X113512500Y-110400000D02*
X113512500Y-112062500D01*
%TO.N,Net-(C21-Pad2)*%
X112900000Y-82050000D02*
X112950000Y-82000000D01*
X112900000Y-84775152D02*
X112900000Y-82050000D01*
%TO.N,Net-(C22-Pad1)*%
X111000000Y-82000000D02*
X111000000Y-83500000D01*
X110850000Y-83650000D02*
X109800000Y-83650000D01*
X111000000Y-83500000D02*
X110850000Y-83650000D01*
X109800000Y-83650000D02*
X109500000Y-83950000D01*
X109500000Y-85437500D02*
X109037500Y-85900000D01*
X109500000Y-83950000D02*
X109500000Y-85437500D01*
%TO.N,Net-(C22-Pad2)*%
X109000000Y-83813604D02*
X109000000Y-84400000D01*
X106962500Y-85137500D02*
X106962500Y-85900000D01*
X109613604Y-83200000D02*
X109000000Y-83813604D01*
X108550000Y-84850000D02*
X107250000Y-84850000D01*
X107250000Y-84850000D02*
X106962500Y-85137500D01*
X110350000Y-82000000D02*
X110350000Y-82900000D01*
X109000000Y-84400000D02*
X108550000Y-84850000D01*
X110050000Y-83200000D02*
X109613604Y-83200000D01*
X110350000Y-82900000D02*
X110050000Y-83200000D01*
%TO.N,Net-(C23-Pad2)*%
X137700000Y-84775152D02*
X137700000Y-82050000D01*
%TO.N,Net-(C24-Pad1)*%
X134300000Y-85437500D02*
X133837500Y-85900000D01*
X134300000Y-83950000D02*
X134300000Y-85437500D01*
X135800000Y-82000000D02*
X135800000Y-83500000D01*
X134600000Y-83650000D02*
X134300000Y-83950000D01*
X135800000Y-83500000D02*
X135650000Y-83650000D01*
X135650000Y-83650000D02*
X134600000Y-83650000D01*
%TO.N,Net-(C24-Pad2)*%
X133350000Y-84850000D02*
X132050000Y-84850000D01*
X135150000Y-82900000D02*
X134850000Y-83200000D01*
X131762500Y-85137500D02*
X131762500Y-85900000D01*
X132050000Y-84850000D02*
X131762500Y-85137500D01*
X133800000Y-84400000D02*
X133350000Y-84850000D01*
X134850000Y-83200000D02*
X134413604Y-83200000D01*
X133800000Y-83813604D02*
X133800000Y-84400000D01*
X134413604Y-83200000D02*
X133800000Y-83813604D01*
X135150000Y-82000000D02*
X135150000Y-82900000D01*
%TO.N,Net-(C29-Pad1)*%
X111650000Y-82000000D02*
X111650000Y-84012500D01*
X111650000Y-84012500D02*
X110900000Y-84762500D01*
%TO.N,Net-(C30-Pad1)*%
X136450000Y-82000000D02*
X136450000Y-84012500D01*
X136450000Y-84012500D02*
X135700000Y-84762500D01*
%TO.N,Net-(C35-Pad2)*%
X187400000Y-84775152D02*
X187400000Y-82050000D01*
%TO.N,Net-(C36-Pad1)*%
X185350000Y-83650000D02*
X184300000Y-83650000D01*
X185500000Y-82000000D02*
X185500000Y-83500000D01*
X184000000Y-85437500D02*
X183537500Y-85900000D01*
X184000000Y-83950000D02*
X184000000Y-85437500D01*
X184300000Y-83650000D02*
X184000000Y-83950000D01*
X185500000Y-83500000D02*
X185350000Y-83650000D01*
%TO.N,Net-(C36-Pad2)*%
X184113604Y-83200000D02*
X183500000Y-83813604D01*
X183500000Y-83813604D02*
X183500000Y-84400000D01*
X181462500Y-85137500D02*
X181462500Y-85900000D01*
X183500000Y-84400000D02*
X183050000Y-84850000D01*
X184850000Y-82000000D02*
X184850000Y-82900000D01*
X184550000Y-83200000D02*
X184113604Y-83200000D01*
X184850000Y-82900000D02*
X184550000Y-83200000D01*
X181750000Y-84850000D02*
X181462500Y-85137500D01*
X183050000Y-84850000D02*
X181750000Y-84850000D01*
%TO.N,Net-(C37-Pad2)*%
X162500000Y-84775152D02*
X162500000Y-82050000D01*
%TO.N,Net-(C38-Pad1)*%
X159100000Y-85437500D02*
X158637500Y-85900000D01*
X160600000Y-82000000D02*
X160600000Y-83500000D01*
X160600000Y-83500000D02*
X160450000Y-83650000D01*
X159100000Y-83950000D02*
X159100000Y-85437500D01*
X160450000Y-83650000D02*
X159400000Y-83650000D01*
X159400000Y-83650000D02*
X159100000Y-83950000D01*
%TO.N,Net-(C38-Pad2)*%
X158150000Y-84850000D02*
X156850000Y-84850000D01*
X159950000Y-82000000D02*
X159950000Y-82900000D01*
X159213604Y-83200000D02*
X158600000Y-83813604D01*
X159650000Y-83200000D02*
X159213604Y-83200000D01*
X158600000Y-84400000D02*
X158150000Y-84850000D01*
X159950000Y-82900000D02*
X159650000Y-83200000D01*
X156562500Y-85137500D02*
X156562500Y-85900000D01*
X156850000Y-84850000D02*
X156562500Y-85137500D01*
X158600000Y-83813604D02*
X158600000Y-84400000D01*
%TO.N,Net-(C43-Pad1)*%
X186150000Y-84012500D02*
X185400000Y-84762500D01*
X186150000Y-82000000D02*
X186150000Y-84012500D01*
%TO.N,Net-(C44-Pad1)*%
X161250000Y-82000000D02*
X161250000Y-84012500D01*
X161250000Y-84012500D02*
X160500000Y-84762500D01*
%TO.N,Net-(D5-Pad3)*%
X195775000Y-125600000D02*
X198475000Y-125600000D01*
X195775000Y-125600000D02*
X193025000Y-125600000D01*
%TO.N,Net-(F1-Pad2)*%
X117561000Y-97375000D02*
X121350000Y-97375000D01*
%TO.N,Net-(C5-Pad2)*%
X184800000Y-105100000D02*
X185015000Y-105315000D01*
X183700000Y-105100000D02*
X184800000Y-105100000D01*
X183700000Y-105100000D02*
X183750000Y-105050000D01*
X185015000Y-105315000D02*
X187100000Y-105315000D01*
X183750000Y-105050000D02*
X183750000Y-103887500D01*
X183700000Y-105100000D02*
X183750000Y-105150000D01*
X183750000Y-105150000D02*
X183750000Y-106450000D01*
%TO.N,Net-(JP3-Pad1)*%
X140850000Y-77193413D02*
X139890000Y-76233413D01*
X141636827Y-83093413D02*
X140850000Y-82306586D01*
X141636827Y-83093413D02*
X145800000Y-83093413D01*
X140850000Y-82306586D02*
X140850000Y-77193413D01*
%TO.N,Net-(JP4-Pad1)*%
X195700000Y-83098413D02*
X191436827Y-83098413D01*
X190650000Y-82311586D02*
X190650000Y-77488413D01*
X191436827Y-83098413D02*
X190650000Y-82311586D01*
X190650000Y-77488413D02*
X189400000Y-76238413D01*
%TO.N,Net-(Q1-Pad1)*%
X154950000Y-124250000D02*
X154950000Y-125700000D01*
X150750000Y-124000000D02*
X151150000Y-123600000D01*
X150750000Y-125050000D02*
X150750000Y-124000000D01*
X154300000Y-123600000D02*
X154950000Y-124250000D01*
X151150000Y-123600000D02*
X154300000Y-123600000D01*
%TO.N,Net-(Q2-Pad1)*%
X152700000Y-117450000D02*
X152700000Y-118400000D01*
X156850000Y-118600000D02*
X156850000Y-117400000D01*
X153300000Y-116850000D02*
X152700000Y-117450000D01*
X156850000Y-117400000D02*
X156300000Y-116850000D01*
X156300000Y-116850000D02*
X153300000Y-116850000D01*
%TO.N,Net-(Q3-Pad1)*%
X178500000Y-113950000D02*
X177200000Y-112650000D01*
X177200000Y-112650000D02*
X175900000Y-112650000D01*
%TO.N,Net-(R40-Pad1)*%
X138400000Y-76240000D02*
X138400000Y-75350000D01*
X128800000Y-76200000D02*
X128800000Y-73800000D01*
X138400000Y-75350000D02*
X139050000Y-74700000D01*
X139050000Y-74700000D02*
X139050000Y-74000000D01*
X128800000Y-73800000D02*
X129100000Y-73500000D01*
%TO.N,Net-(R44-Pad1)*%
X131900000Y-77100000D02*
X131900000Y-76240000D01*
X128900000Y-80100000D02*
X131900000Y-77100000D01*
%TO.N,Net-(R50-Pad1)*%
X153600000Y-76200000D02*
X153600000Y-73800000D01*
X163200000Y-76240000D02*
X163200000Y-75350000D01*
X163850000Y-74700000D02*
X163850000Y-74000000D01*
X153600000Y-73800000D02*
X153900000Y-73500000D01*
X163200000Y-75350000D02*
X163850000Y-74700000D01*
%TO.N,Net-(JP5-Pad1)*%
X165675000Y-82400000D02*
X166362500Y-83087500D01*
X166362500Y-83087500D02*
X170637500Y-83087500D01*
X164515000Y-76227500D02*
X165675000Y-77387500D01*
X165675000Y-77387500D02*
X165675000Y-82400000D01*
%TO.N,Net-(C7-Pad1)*%
X167100000Y-111200000D02*
X165700000Y-109800000D01*
X165700000Y-109800000D02*
X165700000Y-108440000D01*
X168460000Y-111200000D02*
X167100000Y-111200000D01*
%TO.N,Net-(D4-Pad3)*%
X183250000Y-127500000D02*
X185850000Y-127500000D01*
X180650000Y-127500000D02*
X183250000Y-127500000D01*
%TO.N,Net-(J11-Pad1)*%
X153100000Y-128700000D02*
X154000000Y-128700000D01*
X149920000Y-133745000D02*
X149920000Y-131880000D01*
X149920000Y-131880000D02*
X153100000Y-128700000D01*
%TO.N,Net-(J12-Pad1)*%
X155900000Y-121600000D02*
X160400000Y-121600000D01*
X160400000Y-121600000D02*
X160800000Y-121200000D01*
X160800000Y-121200000D02*
X160800000Y-119975000D01*
%TO.N,Net-(J13-Pad1)*%
X174950000Y-116150000D02*
X174950000Y-115650000D01*
%TO.N,Net-(R4-Pad2)*%
X110710000Y-117910000D02*
X110710000Y-117355000D01*
X122700000Y-107425500D02*
X122700000Y-106600000D01*
X125200000Y-106600000D02*
X122700000Y-106600000D01*
X122450000Y-107675500D02*
X122700000Y-107425500D01*
X111100000Y-118300000D02*
X110710000Y-117910000D01*
%TO.N,Net-(R16-Pad1)*%
X121075000Y-122255000D02*
X118755000Y-122255000D01*
%TO.N,Net-(R16-Pad2)*%
X150300000Y-114800000D02*
X139200000Y-114800000D01*
X152980000Y-110920000D02*
X152980000Y-112120000D01*
X116600000Y-119400000D02*
X116600000Y-122100000D01*
X152980000Y-112120000D02*
X150300000Y-114800000D01*
%TO.N,Net-(R18-Pad1)*%
X134500000Y-122255000D02*
X132075000Y-122255000D01*
%TO.N,Net-(R18-Pad2)*%
X151000000Y-109400000D02*
X151000000Y-111800000D01*
X149100000Y-113700000D02*
X139200000Y-113700000D01*
X152980000Y-108380000D02*
X152020000Y-108380000D01*
X129920000Y-119500000D02*
X129920000Y-122100000D01*
X151000000Y-111800000D02*
X149100000Y-113700000D01*
X152020000Y-108380000D02*
X151000000Y-109400000D01*
%TO.N,Net-(R28-Pad2)*%
X150700000Y-118400000D02*
X150700000Y-120850000D01*
X150700000Y-118400000D02*
X150700000Y-116900000D01*
X149345000Y-107125000D02*
X147825000Y-107125000D01*
%TO.N,Net-(R30-Pad2)*%
X149600000Y-109625000D02*
X147835000Y-109625000D01*
X180500000Y-113950000D02*
X180500000Y-111800000D01*
X180500000Y-113950000D02*
X180500000Y-115250000D01*
%TO.N,Net-(R34-Pad1)*%
X158500000Y-97000000D02*
X156200000Y-97000000D01*
%TO.N,Net-(R35-Pad1)*%
X177900000Y-78300000D02*
X178050000Y-78150000D01*
X154900000Y-76850000D02*
X153600000Y-78150000D01*
X187450000Y-74666129D02*
X187470364Y-74645765D01*
X130967963Y-73834411D02*
X130100000Y-74702374D01*
X128200000Y-78300000D02*
X128350000Y-78150000D01*
X112950000Y-76240000D02*
X112950000Y-74400000D01*
X130100000Y-74702374D02*
X130100000Y-76850000D01*
X103400000Y-78300000D02*
X103550000Y-78150000D01*
X130100000Y-76850000D02*
X128800000Y-78150000D01*
X187450000Y-76240000D02*
X187450000Y-74666129D01*
X154900000Y-74702374D02*
X154900000Y-76850000D01*
X180400000Y-74400000D02*
X179800000Y-75000000D01*
X106167963Y-73834411D02*
X105300000Y-74702374D01*
X128350000Y-78150000D02*
X128800000Y-78150000D01*
X162550000Y-76240000D02*
X162550000Y-74400000D01*
X137750000Y-76240000D02*
X137750000Y-74400000D01*
X153000000Y-78300000D02*
X153150000Y-78150000D01*
X105300000Y-76850000D02*
X104000000Y-78150000D01*
X105300000Y-74702374D02*
X105300000Y-76850000D01*
X155767963Y-73834411D02*
X154900000Y-74702374D01*
X153150000Y-78150000D02*
X153600000Y-78150000D01*
X179800000Y-75000000D02*
X179800000Y-76850000D01*
X178050000Y-78150000D02*
X178500000Y-78150000D01*
X154200000Y-97000000D02*
X154200000Y-94700000D01*
X103550000Y-78150000D02*
X104000000Y-78150000D01*
X179800000Y-76850000D02*
X178500000Y-78150000D01*
%TO.N,Net-(R38-Pad1)*%
X113600000Y-76240000D02*
X113600000Y-75350000D01*
X104000000Y-76200000D02*
X104000000Y-73800000D01*
X113600000Y-75350000D02*
X114250000Y-74700000D01*
X114250000Y-74700000D02*
X114250000Y-74000000D01*
X104000000Y-73800000D02*
X104300000Y-73500000D01*
%TO.N,Net-(R43-Pad1)*%
X107100000Y-77100000D02*
X107100000Y-76240000D01*
X104000000Y-80100000D02*
X104100000Y-80100000D01*
X104100000Y-80100000D02*
X107100000Y-77100000D01*
%TO.N,Net-(R45-Pad2)*%
X131650000Y-83150000D02*
X129550000Y-83150000D01*
X128800000Y-82400000D02*
X129550000Y-83150000D01*
X131900000Y-82900000D02*
X131650000Y-83150000D01*
X131900000Y-82000000D02*
X131900000Y-82900000D01*
%TO.N,Net-(R46-Pad2)*%
X104000000Y-82400000D02*
X104750000Y-83150000D01*
X107100000Y-82000000D02*
X107100000Y-82900000D01*
X107100000Y-82900000D02*
X106850000Y-83150000D01*
X106850000Y-83150000D02*
X104750000Y-83150000D01*
X104000000Y-82050000D02*
X104000000Y-82400000D01*
%TO.N,Net-(R48-Pad1)*%
X178500000Y-74600000D02*
X178500000Y-76200000D01*
X179100000Y-74000000D02*
X178500000Y-74600000D01*
X188100000Y-75350000D02*
X188100000Y-76240000D01*
X188800000Y-74650000D02*
X188100000Y-75350000D01*
X188800000Y-74300000D02*
X188800000Y-74650000D01*
%TO.N,Net-(R53-Pad1)*%
X181600000Y-77100000D02*
X181600000Y-76240000D01*
X178600000Y-80100000D02*
X181600000Y-77100000D01*
%TO.N,Net-(R54-Pad2)*%
X181600000Y-82000000D02*
X181600000Y-82900000D01*
X181350000Y-83150000D02*
X179250000Y-83150000D01*
X178500000Y-82400000D02*
X179250000Y-83150000D01*
X181600000Y-82900000D02*
X181350000Y-83150000D01*
%TO.N,Net-(R55-Pad1)*%
X156700000Y-77100000D02*
X156700000Y-76240000D01*
X153700000Y-80100000D02*
X156700000Y-77100000D01*
%TO.N,Net-(R56-Pad2)*%
X156700000Y-82900000D02*
X156450000Y-83150000D01*
X153600000Y-82400000D02*
X154350000Y-83150000D01*
X156700000Y-82000000D02*
X156700000Y-82900000D01*
X156450000Y-83150000D02*
X154350000Y-83150000D01*
%TO.N,Net-(J14-Pad2)*%
X124400000Y-124900000D02*
X124400000Y-123880000D01*
X122305000Y-131100000D02*
X122305000Y-126995000D01*
X124400000Y-123880000D02*
X126025000Y-122255000D01*
X122305000Y-126995000D02*
X124400000Y-124900000D01*
X126025000Y-118445000D02*
X126025000Y-122255000D01*
%TO.N,Net-(J15-Pad2)*%
X133805000Y-127745000D02*
X135900000Y-125650000D01*
X135900000Y-125650000D02*
X137150000Y-125650000D01*
X139450000Y-123350000D02*
X139450000Y-118445000D01*
X137150000Y-125650000D02*
X139450000Y-123350000D01*
X133805000Y-131100000D02*
X133805000Y-127745000D01*
%TO.N,Net-(R26-Pad2)*%
X149345000Y-104575000D02*
X147815000Y-104575000D01*
X148750000Y-125050000D02*
X148750000Y-127650000D01*
X148750000Y-123550000D02*
X148750000Y-125050000D01*
%TO.N,Net-(F2-Pad1)*%
X106095000Y-123395000D02*
X104900000Y-122200000D01*
X104900000Y-122200000D02*
X101200000Y-122200000D01*
X106095000Y-128500000D02*
X106095000Y-123395000D01*
D63*
%TO.N,XSTOP*%
X157400000Y-125500000D02*
X157400000Y-124800000D01*
%TO.N,YSTOP*%
X161200000Y-110100000D02*
X161200000Y-106107789D01*
D62*
X161800000Y-100400000D02*
X161800000Y-105507789D01*
X166500000Y-99500000D02*
X162700000Y-99500000D01*
X161800000Y-105507789D02*
X161200000Y-106107789D01*
D63*
X164300000Y-125500000D02*
X164300000Y-124800000D01*
D62*
X162700000Y-99500000D02*
X161800000Y-100400000D01*
X167800000Y-98200000D02*
X166500000Y-99500000D01*
%TO.N,ZSTOP*%
X173400000Y-117500000D02*
X173400000Y-121400000D01*
X173400000Y-121400000D02*
X173400000Y-121700000D01*
X172000000Y-116100000D02*
X173400000Y-117500000D01*
X171450000Y-125500000D02*
X171450000Y-124850000D01*
X171450000Y-124850000D02*
X171500000Y-124800000D01*
X172000000Y-113100000D02*
X172000000Y-116100000D01*
%TO.N,E0STOP*%
X185200000Y-94000000D02*
X185200000Y-94900000D01*
D63*
X184500000Y-112100000D02*
X184500000Y-111800000D01*
D62*
X198390000Y-84110000D02*
X198390000Y-82948413D01*
X182800000Y-94000000D02*
X189300000Y-94000000D01*
X175443144Y-94500000D02*
X182300000Y-94500000D01*
X171603144Y-90660000D02*
X172929144Y-91986000D01*
X170780000Y-90660000D02*
X171603144Y-90660000D01*
X174600000Y-92600000D02*
X174600000Y-93656856D01*
X182300000Y-94500000D02*
X182800000Y-94000000D01*
X195500000Y-85300000D02*
X197200000Y-85300000D01*
X173986000Y-91986000D02*
X174600000Y-92600000D01*
X189300000Y-94000000D02*
X192600000Y-90700000D01*
X197200000Y-85300000D02*
X198390000Y-84110000D01*
X192600000Y-90700000D02*
X192600000Y-88200000D01*
X172929144Y-91986000D02*
X173986000Y-91986000D01*
X192600000Y-88200000D02*
X195500000Y-85300000D01*
X174600000Y-93656856D02*
X175443144Y-94500000D01*
%TO.N,XENR*%
X109050000Y-82000000D02*
X109050000Y-83127208D01*
X113650000Y-88450000D02*
X113350000Y-88150000D01*
X105600000Y-84650000D02*
X105150000Y-85100000D01*
X109050000Y-83127208D02*
X108550000Y-83627208D01*
X105150000Y-84800000D02*
X104000000Y-84800000D01*
X113650000Y-89250000D02*
X113650000Y-88450000D01*
X105600000Y-84350000D02*
X105150000Y-84800000D01*
X108550000Y-84100000D02*
X108300000Y-84350000D01*
X108550000Y-83627208D02*
X108550000Y-84100000D01*
X108300000Y-84350000D02*
X105600000Y-84350000D01*
%TO.N,YENR*%
X133850000Y-83127208D02*
X133350000Y-83627208D01*
X129950000Y-84800000D02*
X128800000Y-84800000D01*
X138450000Y-88450000D02*
X138150000Y-88150000D01*
X133850000Y-82000000D02*
X133850000Y-83127208D01*
X138450000Y-89250000D02*
X138450000Y-88450000D01*
X133350000Y-84100000D02*
X133100000Y-84350000D01*
X133100000Y-84350000D02*
X130400000Y-84350000D01*
X133350000Y-83627208D02*
X133350000Y-84100000D01*
%TO.N,E0ENR*%
X179650000Y-84800000D02*
X178500000Y-84800000D01*
X183050000Y-84100000D02*
X182800000Y-84350000D01*
X183550000Y-83127208D02*
X183050000Y-83627208D01*
X188150000Y-88450000D02*
X187850000Y-88150000D01*
X182800000Y-84350000D02*
X180100000Y-84350000D01*
X183050000Y-83627208D02*
X183050000Y-84100000D01*
X183550000Y-82000000D02*
X183550000Y-83127208D01*
X188150000Y-89250000D02*
X188150000Y-88450000D01*
%TO.N,ZENR*%
X158600000Y-90300000D02*
X158600000Y-89500000D01*
X158650000Y-83127208D02*
X158150000Y-83627208D01*
X157900000Y-84350000D02*
X155200000Y-84350000D01*
X158600000Y-89500000D02*
X158300000Y-89200000D01*
X158150000Y-84100000D02*
X157900000Y-84350000D01*
X158150000Y-83627208D02*
X158150000Y-84100000D01*
X154750000Y-84800000D02*
X153600000Y-84800000D01*
X158650000Y-82000000D02*
X158650000Y-83127208D01*
%TO.N,XSTPR*%
X114550000Y-88150000D02*
X114450000Y-88250000D01*
X111650000Y-74950000D02*
X111650000Y-76240000D01*
X114450000Y-88250000D02*
X114450000Y-89250000D01*
%TO.N,XDIRR*%
X115250000Y-89250000D02*
X115250000Y-89900000D01*
X109700000Y-74950000D02*
X109700000Y-76240000D01*
%TO.N,YSTPR*%
X139250000Y-88250000D02*
X139250000Y-89250000D01*
X139350000Y-88150000D02*
X139250000Y-88250000D01*
X136450000Y-74950000D02*
X136450000Y-76240000D01*
%TO.N,YDIRR*%
X134500000Y-74950000D02*
X134500000Y-76240000D01*
%TO.N,ZSTPR*%
X161250000Y-74950000D02*
X161250000Y-76240000D01*
X159400000Y-89300000D02*
X159400000Y-90300000D01*
X159500000Y-89200000D02*
X159400000Y-89300000D01*
%TO.N,ZDIRR*%
X159300000Y-74950000D02*
X159300000Y-76240000D01*
X160156623Y-90922649D02*
X160156623Y-90343377D01*
X160156623Y-90343377D02*
X160200000Y-90300000D01*
%TO.N,E0STPR*%
X186150000Y-74950000D02*
X186150000Y-76240000D01*
X188950000Y-88250000D02*
X188950000Y-89250000D01*
X189050000Y-88150000D02*
X188950000Y-88250000D01*
%TO.N,E0DIRR*%
X184200000Y-74950000D02*
X184200000Y-76240000D01*
D63*
%TO.N,/FAN0_PWM*%
X161271751Y-95500000D02*
X160000000Y-95500000D01*
D62*
X146445000Y-103375000D02*
X147735000Y-103375000D01*
D63*
X163160000Y-93200000D02*
X163160000Y-93611751D01*
X159500000Y-96000000D02*
X159500000Y-98000000D01*
X155600000Y-98400000D02*
X154800000Y-99200000D01*
D62*
X145095000Y-103375000D02*
X146445000Y-103375000D01*
D63*
X163160000Y-93611751D02*
X161271751Y-95500000D01*
X160000000Y-95500000D02*
X159500000Y-96000000D01*
X159500000Y-98000000D02*
X159100000Y-98400000D01*
X159100000Y-98400000D02*
X155600000Y-98400000D01*
D62*
%TO.N,Net-(J7-Pad1)*%
X187800000Y-129200000D02*
X188150000Y-128850000D01*
X183522080Y-129877920D02*
X184200000Y-129200000D01*
X188150000Y-125100000D02*
X188150000Y-127800000D01*
X184200000Y-129200000D02*
X187800000Y-129200000D01*
X183522080Y-133744800D02*
X183522080Y-129877920D01*
X188150000Y-128850000D02*
X188150000Y-127800000D01*
D63*
%TO.N,Net-(J16-Pad1)*%
X200575000Y-125900000D02*
X200675000Y-125800000D01*
X191922600Y-131577400D02*
X191922600Y-133744840D01*
X199600000Y-130700000D02*
X192800000Y-130700000D01*
X200575000Y-128600000D02*
X200575000Y-129725000D01*
D62*
X200675000Y-123100000D02*
X200675000Y-125800000D01*
D63*
X200575000Y-128600000D02*
X200575000Y-125900000D01*
X200575000Y-129725000D02*
X199600000Y-130700000D01*
X192800000Y-130700000D02*
X191922600Y-131577400D01*
%TO.N,Net-(JP6-Pad2)*%
X196300000Y-128000000D02*
X196900000Y-128600000D01*
X196900000Y-128600000D02*
X198035000Y-128600000D01*
X195200000Y-128000000D02*
X196300000Y-128000000D01*
%TD*%
%TA.AperFunction,Conductor*%
%TO.N,+3.3V*%
G36*
X172617194Y-104394337D02*
G01*
X172672266Y-104395439D01*
X172739973Y-104416799D01*
X172785383Y-104471374D01*
X172794080Y-104541836D01*
X172763301Y-104605814D01*
X172727927Y-104633177D01*
X172577603Y-104711431D01*
X172568890Y-104716918D01*
X172541819Y-104737244D01*
X172533365Y-104748570D01*
X172540108Y-104760897D01*
X173307189Y-105527979D01*
X173321132Y-105535592D01*
X173322966Y-105535461D01*
X173329580Y-105531210D01*
X174101162Y-104759627D01*
X174108179Y-104746776D01*
X174100405Y-104736107D01*
X174099796Y-104735625D01*
X174091215Y-104729925D01*
X173962360Y-104658793D01*
X173912390Y-104608360D01*
X173897618Y-104538917D01*
X173922734Y-104472512D01*
X173979765Y-104430227D01*
X174025773Y-104422509D01*
X175118291Y-104444359D01*
X175185998Y-104465719D01*
X175231408Y-104520294D01*
X175240105Y-104590756D01*
X175209327Y-104654734D01*
X175173952Y-104682097D01*
X175117604Y-104711431D01*
X175108890Y-104716918D01*
X175081819Y-104737244D01*
X175073365Y-104748570D01*
X175080108Y-104760897D01*
X175847189Y-105527979D01*
X175861132Y-105535592D01*
X175862966Y-105535461D01*
X175869580Y-105531210D01*
X176641162Y-104759627D01*
X176648179Y-104746776D01*
X176640405Y-104736107D01*
X176639796Y-104735625D01*
X176631210Y-104729921D01*
X176597845Y-104711503D01*
X176547874Y-104661070D01*
X176533102Y-104591627D01*
X176558218Y-104525222D01*
X176615249Y-104482937D01*
X176661257Y-104475219D01*
X176843212Y-104478858D01*
X176979679Y-104481587D01*
X177047386Y-104502947D01*
X177092796Y-104557522D01*
X177103159Y-104607725D01*
X177102663Y-104990860D01*
X177082574Y-105058953D01*
X177029352Y-105105150D01*
X177001017Y-105118194D01*
X176232021Y-105887189D01*
X176224408Y-105901132D01*
X176224539Y-105902966D01*
X176228790Y-105909580D01*
X176998424Y-106679213D01*
X177034697Y-106699020D01*
X177084899Y-106749222D01*
X177100311Y-106809769D01*
X177100000Y-107050000D01*
X177546809Y-107050000D01*
X177614930Y-107070002D01*
X177661423Y-107123658D01*
X177671527Y-107193932D01*
X177642033Y-107258512D01*
X177622463Y-107276759D01*
X177621821Y-107277241D01*
X177613365Y-107288570D01*
X177620108Y-107300897D01*
X178387189Y-108067979D01*
X178401132Y-108075592D01*
X178402966Y-108075461D01*
X178409580Y-108071210D01*
X179181162Y-107299627D01*
X179188179Y-107286776D01*
X179180405Y-107276107D01*
X179178857Y-107274884D01*
X179137793Y-107216967D01*
X179134560Y-107146045D01*
X179170183Y-107084632D01*
X179233354Y-107052229D01*
X179256947Y-107050000D01*
X179524000Y-107050000D01*
X179592121Y-107070002D01*
X179638614Y-107123658D01*
X179650000Y-107176000D01*
X179650000Y-107527318D01*
X179629998Y-107595439D01*
X179576688Y-107641773D01*
X179541017Y-107658194D01*
X178772021Y-108427189D01*
X178764408Y-108441132D01*
X178764539Y-108442966D01*
X178768790Y-108449580D01*
X179538423Y-109219212D01*
X179584385Y-109244309D01*
X179634587Y-109294511D01*
X179650000Y-109354897D01*
X179650000Y-109474000D01*
X179629998Y-109542121D01*
X179576342Y-109588614D01*
X179524000Y-109600000D01*
X179272225Y-109600000D01*
X179272225Y-109599264D01*
X179221848Y-109599263D01*
X179168252Y-109567463D01*
X178412811Y-108812021D01*
X178398868Y-108804408D01*
X178397034Y-108804539D01*
X178390420Y-108808790D01*
X177634248Y-109564963D01*
X177571935Y-109598988D01*
X177553060Y-109600000D01*
X176732225Y-109600000D01*
X176732225Y-109599264D01*
X176681848Y-109599263D01*
X176628252Y-109567463D01*
X175872811Y-108812021D01*
X175858868Y-108804408D01*
X175857034Y-108804539D01*
X175850420Y-108808790D01*
X175094248Y-109564963D01*
X175031935Y-109598988D01*
X175013060Y-109600000D01*
X174726000Y-109600000D01*
X174657879Y-109579998D01*
X174611386Y-109526342D01*
X174600000Y-109474000D01*
X174600000Y-109356928D01*
X174620002Y-109288807D01*
X174676125Y-109241220D01*
X174717330Y-109223459D01*
X175487979Y-108452811D01*
X175494356Y-108441132D01*
X176224408Y-108441132D01*
X176224539Y-108442966D01*
X176228790Y-108449580D01*
X176998425Y-109219214D01*
X177010431Y-109225770D01*
X177022172Y-109216800D01*
X177027724Y-109209074D01*
X177083719Y-109165427D01*
X177154423Y-109158983D01*
X177217386Y-109191786D01*
X177237478Y-109216768D01*
X177238099Y-109217781D01*
X177248555Y-109227241D01*
X177257331Y-109223458D01*
X178027979Y-108452811D01*
X178035592Y-108438868D01*
X178035461Y-108437034D01*
X178031210Y-108430420D01*
X177261778Y-107660989D01*
X177250246Y-107654692D01*
X177237964Y-107664315D01*
X177234053Y-107670048D01*
X177179141Y-107715051D01*
X177108616Y-107723221D01*
X177044869Y-107691966D01*
X177024173Y-107667482D01*
X177021271Y-107662995D01*
X177010582Y-107653791D01*
X177001017Y-107658194D01*
X176232021Y-108427189D01*
X176224408Y-108441132D01*
X175494356Y-108441132D01*
X175495592Y-108438868D01*
X175495461Y-108437034D01*
X175491210Y-108430420D01*
X174721778Y-107660989D01*
X174683955Y-107640336D01*
X174665620Y-107636348D01*
X174615415Y-107586148D01*
X174600000Y-107525758D01*
X174600000Y-107250000D01*
X174208479Y-107250000D01*
X174140358Y-107229998D01*
X174093865Y-107176342D01*
X174083761Y-107106068D01*
X174106306Y-107053365D01*
X175071464Y-107053365D01*
X175076745Y-107060420D01*
X175078256Y-107061303D01*
X175126978Y-107112943D01*
X175140047Y-107182726D01*
X175113313Y-107248497D01*
X175090335Y-107270849D01*
X175081820Y-107277242D01*
X175073365Y-107288570D01*
X175080108Y-107300897D01*
X175847189Y-108067979D01*
X175861132Y-108075592D01*
X175862966Y-108075461D01*
X175869580Y-108071210D01*
X176641162Y-107299627D01*
X176648179Y-107286776D01*
X176640405Y-107276107D01*
X176639797Y-107275627D01*
X176635589Y-107272831D01*
X176589916Y-107218476D01*
X176580880Y-107148057D01*
X176611350Y-107083931D01*
X176632140Y-107065302D01*
X176637209Y-107061686D01*
X176645609Y-107050987D01*
X176638622Y-107037833D01*
X175872811Y-106272021D01*
X175858868Y-106264408D01*
X175857034Y-106264539D01*
X175850420Y-106268790D01*
X175078221Y-107040990D01*
X175071464Y-107053365D01*
X174106306Y-107053365D01*
X174106559Y-107052774D01*
X174098622Y-107037833D01*
X173332811Y-106272021D01*
X173318868Y-106264408D01*
X173317034Y-106264539D01*
X173310420Y-106268790D01*
X172538221Y-107040990D01*
X172530610Y-107054928D01*
X172530704Y-107056236D01*
X172552626Y-107115011D01*
X172537535Y-107184385D01*
X172487333Y-107234587D01*
X172426947Y-107250000D01*
X172226146Y-107250000D01*
X172158025Y-107229998D01*
X172111532Y-107176342D01*
X172100146Y-107123854D01*
X172100192Y-107084632D01*
X172100522Y-106799316D01*
X172120603Y-106731218D01*
X172176648Y-106683753D01*
X172177332Y-106683458D01*
X172947978Y-105912812D01*
X172954356Y-105901132D01*
X173684408Y-105901132D01*
X173684539Y-105902966D01*
X173688790Y-105909580D01*
X174458425Y-106679214D01*
X174470431Y-106685770D01*
X174482172Y-106676800D01*
X174487724Y-106669074D01*
X174543719Y-106625427D01*
X174614423Y-106618983D01*
X174677386Y-106651786D01*
X174697478Y-106676768D01*
X174698099Y-106677781D01*
X174708555Y-106687241D01*
X174717331Y-106683458D01*
X175487979Y-105912811D01*
X175495592Y-105898868D01*
X175495461Y-105897034D01*
X175491210Y-105890420D01*
X174721778Y-105120989D01*
X174710246Y-105114692D01*
X174697964Y-105124315D01*
X174694053Y-105130048D01*
X174639141Y-105175051D01*
X174568616Y-105183221D01*
X174504869Y-105151966D01*
X174484173Y-105127482D01*
X174481271Y-105122995D01*
X174470582Y-105113791D01*
X174461017Y-105118194D01*
X173692021Y-105887189D01*
X173684408Y-105901132D01*
X172954356Y-105901132D01*
X172955592Y-105898868D01*
X172955461Y-105897035D01*
X172951210Y-105890420D01*
X172181780Y-105120991D01*
X172168217Y-105113585D01*
X172118014Y-105063382D01*
X172102602Y-105002851D01*
X172102883Y-104760897D01*
X172103170Y-104512455D01*
X172123251Y-104444359D01*
X172176960Y-104397928D01*
X172231688Y-104386627D01*
X172617194Y-104394337D01*
G37*
%TD.AperFunction*%
%TD*%
%TA.AperFunction,Conductor*%
%TO.N,Net-(D2-Pad1)*%
G36*
X104042121Y-114120002D02*
G01*
X104088614Y-114173658D01*
X104100000Y-114226000D01*
X104100000Y-120074000D01*
X104079998Y-120142121D01*
X104026342Y-120188614D01*
X103974000Y-120200000D01*
X100100000Y-120200000D01*
X100100000Y-121220297D01*
X100084854Y-121279499D01*
X100080885Y-121284795D01*
X100029755Y-121421184D01*
X100023000Y-121483366D01*
X100023000Y-122916634D01*
X100029755Y-122978816D01*
X100080885Y-123115205D01*
X100084854Y-123120501D01*
X100100000Y-123179703D01*
X100100000Y-124200000D01*
X103174000Y-124200000D01*
X103242121Y-124220002D01*
X103288614Y-124273658D01*
X103300000Y-124326000D01*
X103300000Y-131100000D01*
X108974000Y-131100000D01*
X109042121Y-131120002D01*
X109088614Y-131173658D01*
X109100000Y-131226000D01*
X109100000Y-135824000D01*
X109079998Y-135892121D01*
X109026342Y-135938614D01*
X108974000Y-135950000D01*
X98576000Y-135950000D01*
X98507879Y-135929998D01*
X98461386Y-135876342D01*
X98450000Y-135824000D01*
X98450000Y-134944906D01*
X105014839Y-134944906D01*
X105023553Y-134956427D01*
X105130452Y-135034809D01*
X105138351Y-135039745D01*
X105367905Y-135160519D01*
X105376454Y-135164236D01*
X105621327Y-135249749D01*
X105630336Y-135252163D01*
X105885166Y-135300544D01*
X105894423Y-135301598D01*
X106153607Y-135311783D01*
X106162921Y-135311457D01*
X106420753Y-135283220D01*
X106429930Y-135281519D01*
X106680758Y-135215481D01*
X106689574Y-135212445D01*
X106927880Y-135110062D01*
X106936167Y-135105748D01*
X107156718Y-134969266D01*
X107164268Y-134963780D01*
X107169559Y-134959301D01*
X107177997Y-134946497D01*
X107171935Y-134936145D01*
X106107812Y-133872022D01*
X106093868Y-133864408D01*
X106092035Y-133864539D01*
X106085420Y-133868790D01*
X105021497Y-134932713D01*
X105014839Y-134944906D01*
X98450000Y-134944906D01*
X98450000Y-133457211D01*
X104282775Y-133457211D01*
X104295220Y-133716288D01*
X104296356Y-133725543D01*
X104346961Y-133979945D01*
X104349449Y-133988917D01*
X104437095Y-134233033D01*
X104440895Y-134241568D01*
X104563658Y-134470042D01*
X104568666Y-134477904D01*
X104638720Y-134571716D01*
X104649979Y-134580165D01*
X104662397Y-134573393D01*
X105722978Y-133512812D01*
X105729356Y-133501132D01*
X106459408Y-133501132D01*
X106459539Y-133502965D01*
X106463790Y-133509580D01*
X107531094Y-134576884D01*
X107543474Y-134583644D01*
X107551815Y-134577400D01*
X107685832Y-134369048D01*
X107690275Y-134360864D01*
X107796807Y-134124370D01*
X107799997Y-134115605D01*
X107870402Y-133865972D01*
X107872262Y-133856830D01*
X107905187Y-133598019D01*
X107905668Y-133591733D01*
X107907987Y-133503160D01*
X107907836Y-133496851D01*
X107888501Y-133236663D01*
X107887125Y-133227457D01*
X107829878Y-132974467D01*
X107827154Y-132965556D01*
X107733143Y-132723806D01*
X107729132Y-132715397D01*
X107600422Y-132490202D01*
X107595211Y-132482476D01*
X107551996Y-132427658D01*
X107540071Y-132419187D01*
X107528537Y-132425673D01*
X106467022Y-133487188D01*
X106459408Y-133501132D01*
X105729356Y-133501132D01*
X105730592Y-133498868D01*
X105730461Y-133497035D01*
X105726210Y-133490420D01*
X104660816Y-132425026D01*
X104647507Y-132417758D01*
X104637472Y-132424878D01*
X104621937Y-132443556D01*
X104616531Y-132451135D01*
X104481965Y-132672891D01*
X104477736Y-132681192D01*
X104377432Y-132920389D01*
X104374471Y-132929239D01*
X104310628Y-133180625D01*
X104309006Y-133189822D01*
X104283020Y-133447885D01*
X104282775Y-133457211D01*
X98450000Y-133457211D01*
X98450000Y-132052689D01*
X105012102Y-132052689D01*
X105016675Y-132062465D01*
X106082188Y-133127978D01*
X106096132Y-133135592D01*
X106097965Y-133135461D01*
X106104580Y-133131210D01*
X107169349Y-132066441D01*
X107175733Y-132054751D01*
X107166321Y-132042641D01*
X107019045Y-131940471D01*
X107011010Y-131935738D01*
X106778376Y-131821016D01*
X106769743Y-131817528D01*
X106522703Y-131738450D01*
X106513643Y-131736274D01*
X106257630Y-131694580D01*
X106248343Y-131693768D01*
X105988992Y-131690373D01*
X105979681Y-131690943D01*
X105722682Y-131725919D01*
X105713546Y-131727860D01*
X105464543Y-131800439D01*
X105455800Y-131803707D01*
X105220252Y-131912296D01*
X105212097Y-131916816D01*
X105021240Y-132041947D01*
X105012102Y-132052689D01*
X98450000Y-132052689D01*
X98450000Y-117494669D01*
X99242001Y-117494669D01*
X99242371Y-117501490D01*
X99247895Y-117552352D01*
X99251521Y-117567604D01*
X99296676Y-117688054D01*
X99305214Y-117703649D01*
X99381715Y-117805724D01*
X99394276Y-117818285D01*
X99496351Y-117894786D01*
X99511946Y-117903324D01*
X99632394Y-117948478D01*
X99647649Y-117952105D01*
X99698514Y-117957631D01*
X99705328Y-117958000D01*
X101227885Y-117958000D01*
X101243124Y-117953525D01*
X101244329Y-117952135D01*
X101246000Y-117944452D01*
X101246000Y-117939884D01*
X101754000Y-117939884D01*
X101758475Y-117955123D01*
X101759865Y-117956328D01*
X101767548Y-117957999D01*
X103294669Y-117957999D01*
X103301490Y-117957629D01*
X103352352Y-117952105D01*
X103367604Y-117948479D01*
X103488054Y-117903324D01*
X103503649Y-117894786D01*
X103605724Y-117818285D01*
X103618285Y-117805724D01*
X103694786Y-117703649D01*
X103703324Y-117688054D01*
X103748478Y-117567606D01*
X103752105Y-117552351D01*
X103757631Y-117501486D01*
X103758000Y-117494672D01*
X103758000Y-116572115D01*
X103753525Y-116556876D01*
X103752135Y-116555671D01*
X103744452Y-116554000D01*
X101772115Y-116554000D01*
X101756876Y-116558475D01*
X101755671Y-116559865D01*
X101754000Y-116567548D01*
X101754000Y-117939884D01*
X101246000Y-117939884D01*
X101246000Y-116572115D01*
X101241525Y-116556876D01*
X101240135Y-116555671D01*
X101232452Y-116554000D01*
X99260116Y-116554000D01*
X99244877Y-116558475D01*
X99243672Y-116559865D01*
X99242001Y-116567548D01*
X99242001Y-117494669D01*
X98450000Y-117494669D01*
X98450000Y-116027885D01*
X99242000Y-116027885D01*
X99246475Y-116043124D01*
X99247865Y-116044329D01*
X99255548Y-116046000D01*
X101227885Y-116046000D01*
X101243124Y-116041525D01*
X101244329Y-116040135D01*
X101246000Y-116032452D01*
X101246000Y-116027885D01*
X101754000Y-116027885D01*
X101758475Y-116043124D01*
X101759865Y-116044329D01*
X101767548Y-116046000D01*
X103739884Y-116046000D01*
X103755123Y-116041525D01*
X103756328Y-116040135D01*
X103757999Y-116032452D01*
X103757999Y-115105331D01*
X103757629Y-115098510D01*
X103752105Y-115047648D01*
X103748479Y-115032396D01*
X103703324Y-114911946D01*
X103694786Y-114896351D01*
X103618285Y-114794276D01*
X103605724Y-114781715D01*
X103503649Y-114705214D01*
X103488054Y-114696676D01*
X103367606Y-114651522D01*
X103352351Y-114647895D01*
X103301486Y-114642369D01*
X103294672Y-114642000D01*
X101772115Y-114642000D01*
X101756876Y-114646475D01*
X101755671Y-114647865D01*
X101754000Y-114655548D01*
X101754000Y-116027885D01*
X101246000Y-116027885D01*
X101246000Y-114660116D01*
X101241525Y-114644877D01*
X101240135Y-114643672D01*
X101232452Y-114642001D01*
X99705331Y-114642001D01*
X99698510Y-114642371D01*
X99647648Y-114647895D01*
X99632396Y-114651521D01*
X99511946Y-114696676D01*
X99496351Y-114705214D01*
X99394276Y-114781715D01*
X99381715Y-114794276D01*
X99305214Y-114896351D01*
X99296676Y-114911946D01*
X99251522Y-115032394D01*
X99247895Y-115047649D01*
X99242369Y-115098514D01*
X99242000Y-115105328D01*
X99242000Y-116027885D01*
X98450000Y-116027885D01*
X98450000Y-114226000D01*
X98470002Y-114157879D01*
X98523658Y-114111386D01*
X98576000Y-114100000D01*
X103974000Y-114100000D01*
X104042121Y-114120002D01*
G37*
%TD.AperFunction*%
%TD*%
%TA.AperFunction,Conductor*%
%TO.N,Net-(J14-Pad2)*%
G36*
X124484398Y-118120002D02*
G01*
X124530891Y-118173658D01*
X124536196Y-118187883D01*
X124537865Y-118189329D01*
X124545548Y-118191000D01*
X126153000Y-118191000D01*
X126221121Y-118211002D01*
X126267614Y-118264658D01*
X126279000Y-118317000D01*
X126279000Y-123044885D01*
X126283475Y-123060124D01*
X126284865Y-123061329D01*
X126292548Y-123063000D01*
X127006943Y-123063000D01*
X127014498Y-123062544D01*
X127092388Y-123053119D01*
X127107953Y-123049166D01*
X127232549Y-122999835D01*
X127247380Y-122991478D01*
X127353725Y-122910757D01*
X127365757Y-122898725D01*
X127446478Y-122792380D01*
X127454836Y-122777548D01*
X127503321Y-122655089D01*
X127546996Y-122599115D01*
X127613999Y-122575639D01*
X127683057Y-122592115D01*
X127732246Y-122643311D01*
X127746467Y-122700201D01*
X127749983Y-123048351D01*
X127749972Y-123051688D01*
X127702032Y-125976065D01*
X127680916Y-126043849D01*
X127626506Y-126089456D01*
X127576049Y-126100000D01*
X124950000Y-126100000D01*
X124950000Y-133224000D01*
X124929998Y-133292121D01*
X124876342Y-133338614D01*
X124824000Y-133350000D01*
X120176000Y-133350000D01*
X120107879Y-133329998D01*
X120061386Y-133276342D01*
X120050000Y-133224000D01*
X120050000Y-132544906D01*
X121224839Y-132544906D01*
X121233553Y-132556427D01*
X121340452Y-132634809D01*
X121348351Y-132639745D01*
X121577905Y-132760519D01*
X121586454Y-132764236D01*
X121831327Y-132849749D01*
X121840336Y-132852163D01*
X122095166Y-132900544D01*
X122104423Y-132901598D01*
X122363607Y-132911783D01*
X122372921Y-132911457D01*
X122630753Y-132883220D01*
X122639930Y-132881519D01*
X122890758Y-132815481D01*
X122899574Y-132812445D01*
X123137880Y-132710062D01*
X123146167Y-132705748D01*
X123366718Y-132569266D01*
X123374268Y-132563780D01*
X123379559Y-132559301D01*
X123387997Y-132546497D01*
X123381935Y-132536145D01*
X122317812Y-131472022D01*
X122303868Y-131464408D01*
X122302035Y-131464539D01*
X122295420Y-131468790D01*
X121231497Y-132532713D01*
X121224839Y-132544906D01*
X120050000Y-132544906D01*
X120050000Y-131057211D01*
X120492775Y-131057211D01*
X120505220Y-131316288D01*
X120506356Y-131325543D01*
X120556961Y-131579945D01*
X120559449Y-131588917D01*
X120647095Y-131833033D01*
X120650895Y-131841568D01*
X120773658Y-132070042D01*
X120778666Y-132077904D01*
X120848720Y-132171716D01*
X120859979Y-132180165D01*
X120872397Y-132173393D01*
X121932978Y-131112812D01*
X121939356Y-131101132D01*
X122669408Y-131101132D01*
X122669539Y-131102965D01*
X122673790Y-131109580D01*
X123741094Y-132176884D01*
X123753474Y-132183644D01*
X123761815Y-132177400D01*
X123895832Y-131969048D01*
X123900275Y-131960864D01*
X124006807Y-131724370D01*
X124009997Y-131715605D01*
X124080402Y-131465972D01*
X124082262Y-131456830D01*
X124115187Y-131198019D01*
X124115668Y-131191733D01*
X124117987Y-131103160D01*
X124117836Y-131096851D01*
X124098501Y-130836663D01*
X124097125Y-130827457D01*
X124039878Y-130574467D01*
X124037154Y-130565556D01*
X123943143Y-130323806D01*
X123939132Y-130315397D01*
X123810422Y-130090202D01*
X123805211Y-130082476D01*
X123761996Y-130027658D01*
X123750071Y-130019187D01*
X123738537Y-130025673D01*
X122677022Y-131087188D01*
X122669408Y-131101132D01*
X121939356Y-131101132D01*
X121940592Y-131098868D01*
X121940461Y-131097035D01*
X121936210Y-131090420D01*
X120870816Y-130025026D01*
X120857507Y-130017758D01*
X120847472Y-130024878D01*
X120831937Y-130043556D01*
X120826531Y-130051135D01*
X120691965Y-130272891D01*
X120687736Y-130281192D01*
X120587432Y-130520389D01*
X120584471Y-130529239D01*
X120520628Y-130780625D01*
X120519006Y-130789822D01*
X120493020Y-131047885D01*
X120492775Y-131057211D01*
X120050000Y-131057211D01*
X120050000Y-129652689D01*
X121222102Y-129652689D01*
X121226675Y-129662465D01*
X122292188Y-130727978D01*
X122306132Y-130735592D01*
X122307965Y-130735461D01*
X122314580Y-130731210D01*
X123379349Y-129666441D01*
X123385733Y-129654751D01*
X123376321Y-129642641D01*
X123229045Y-129540471D01*
X123221010Y-129535738D01*
X122988376Y-129421016D01*
X122979743Y-129417528D01*
X122732703Y-129338450D01*
X122723643Y-129336274D01*
X122467630Y-129294580D01*
X122458343Y-129293768D01*
X122198992Y-129290373D01*
X122189681Y-129290943D01*
X121932682Y-129325919D01*
X121923546Y-129327860D01*
X121674543Y-129400439D01*
X121665800Y-129403707D01*
X121430252Y-129512296D01*
X121422097Y-129516816D01*
X121231240Y-129641947D01*
X121222102Y-129652689D01*
X120050000Y-129652689D01*
X120050000Y-123976000D01*
X120070002Y-123907879D01*
X120123658Y-123861386D01*
X120176000Y-123850000D01*
X122950000Y-123850000D01*
X122950000Y-122551943D01*
X124532000Y-122551943D01*
X124532456Y-122559498D01*
X124541881Y-122637388D01*
X124545834Y-122652953D01*
X124595165Y-122777549D01*
X124603522Y-122792380D01*
X124684243Y-122898725D01*
X124696275Y-122910757D01*
X124802620Y-122991478D01*
X124817451Y-122999835D01*
X124942047Y-123049166D01*
X124957612Y-123053119D01*
X125035502Y-123062544D01*
X125043057Y-123063000D01*
X125752885Y-123063000D01*
X125768124Y-123058525D01*
X125769329Y-123057135D01*
X125771000Y-123049452D01*
X125771000Y-122527115D01*
X125766525Y-122511876D01*
X125765135Y-122510671D01*
X125757452Y-122509000D01*
X124550115Y-122509000D01*
X124534876Y-122513475D01*
X124533671Y-122514865D01*
X124532000Y-122522548D01*
X124532000Y-122551943D01*
X122950000Y-122551943D01*
X122950000Y-121982885D01*
X124532000Y-121982885D01*
X124536475Y-121998124D01*
X124537865Y-121999329D01*
X124545548Y-122001000D01*
X125752885Y-122001000D01*
X125768124Y-121996525D01*
X125769329Y-121995135D01*
X125771000Y-121987452D01*
X125771000Y-121257115D01*
X125766525Y-121241876D01*
X125765135Y-121240671D01*
X125757452Y-121239000D01*
X124550115Y-121239000D01*
X124534876Y-121243475D01*
X124533671Y-121244865D01*
X124532000Y-121252548D01*
X124532000Y-121281943D01*
X124532456Y-121289498D01*
X124541881Y-121367388D01*
X124545834Y-121382953D01*
X124595167Y-121507554D01*
X124603520Y-121522378D01*
X124619795Y-121543820D01*
X124645049Y-121610173D01*
X124630421Y-121679646D01*
X124619795Y-121696180D01*
X124603520Y-121717622D01*
X124595167Y-121732446D01*
X124545834Y-121857047D01*
X124541881Y-121872612D01*
X124532456Y-121950502D01*
X124532000Y-121958057D01*
X124532000Y-121982885D01*
X122950000Y-121982885D01*
X122950000Y-120712885D01*
X124532000Y-120712885D01*
X124536475Y-120728124D01*
X124537865Y-120729329D01*
X124545548Y-120731000D01*
X125752885Y-120731000D01*
X125768124Y-120726525D01*
X125769329Y-120725135D01*
X125771000Y-120717452D01*
X125771000Y-119987115D01*
X125766525Y-119971876D01*
X125765135Y-119970671D01*
X125757452Y-119969000D01*
X124550115Y-119969000D01*
X124534876Y-119973475D01*
X124533671Y-119974865D01*
X124532000Y-119982548D01*
X124532000Y-120011943D01*
X124532456Y-120019498D01*
X124541881Y-120097388D01*
X124545834Y-120112953D01*
X124595167Y-120237554D01*
X124603520Y-120252378D01*
X124619795Y-120273820D01*
X124645049Y-120340173D01*
X124630421Y-120409646D01*
X124619795Y-120426180D01*
X124603520Y-120447622D01*
X124595167Y-120462446D01*
X124545834Y-120587047D01*
X124541881Y-120602612D01*
X124532456Y-120680502D01*
X124532000Y-120688057D01*
X124532000Y-120712885D01*
X122950000Y-120712885D01*
X122950000Y-119442885D01*
X124532000Y-119442885D01*
X124536475Y-119458124D01*
X124537865Y-119459329D01*
X124545548Y-119461000D01*
X125752885Y-119461000D01*
X125768124Y-119456525D01*
X125769329Y-119455135D01*
X125771000Y-119447452D01*
X125771000Y-118717115D01*
X125766525Y-118701876D01*
X125765135Y-118700671D01*
X125757452Y-118699000D01*
X124550115Y-118699000D01*
X124534876Y-118703475D01*
X124533671Y-118704865D01*
X124532000Y-118712548D01*
X124532000Y-118741943D01*
X124532456Y-118749498D01*
X124541881Y-118827388D01*
X124545834Y-118842953D01*
X124595167Y-118967554D01*
X124603520Y-118982378D01*
X124619795Y-119003820D01*
X124645049Y-119070173D01*
X124630421Y-119139646D01*
X124619795Y-119156180D01*
X124603520Y-119177622D01*
X124595167Y-119192446D01*
X124545834Y-119317047D01*
X124541881Y-119332612D01*
X124532456Y-119410502D01*
X124532000Y-119418057D01*
X124532000Y-119442885D01*
X122950000Y-119442885D01*
X122950000Y-118226000D01*
X122970002Y-118157879D01*
X123023658Y-118111386D01*
X123076000Y-118100000D01*
X124416277Y-118100000D01*
X124484398Y-118120002D01*
G37*
%TD.AperFunction*%
%TD*%
%TA.AperFunction,Conductor*%
%TO.N,Net-(J15-Pad2)*%
G36*
X137909398Y-118120002D02*
G01*
X137955891Y-118173658D01*
X137961196Y-118187883D01*
X137962865Y-118189329D01*
X137970548Y-118191000D01*
X140924885Y-118191000D01*
X140940124Y-118186525D01*
X140953838Y-118170699D01*
X140972288Y-118136907D01*
X141034599Y-118102880D01*
X141061386Y-118100000D01*
X141124000Y-118100000D01*
X141192121Y-118120002D01*
X141238614Y-118173658D01*
X141250000Y-118226000D01*
X141250000Y-128474000D01*
X141229998Y-128542121D01*
X141176342Y-128588614D01*
X141124000Y-128600000D01*
X136450000Y-128600000D01*
X136450000Y-133324000D01*
X136429998Y-133392121D01*
X136376342Y-133438614D01*
X136324000Y-133450000D01*
X131726000Y-133450000D01*
X131657879Y-133429998D01*
X131611386Y-133376342D01*
X131600000Y-133324000D01*
X131600000Y-132544906D01*
X132724839Y-132544906D01*
X132733553Y-132556427D01*
X132840452Y-132634809D01*
X132848351Y-132639745D01*
X133077905Y-132760519D01*
X133086454Y-132764236D01*
X133331327Y-132849749D01*
X133340336Y-132852163D01*
X133595166Y-132900544D01*
X133604423Y-132901598D01*
X133863607Y-132911783D01*
X133872921Y-132911457D01*
X134130753Y-132883220D01*
X134139930Y-132881519D01*
X134390758Y-132815481D01*
X134399574Y-132812445D01*
X134637880Y-132710062D01*
X134646167Y-132705748D01*
X134866718Y-132569266D01*
X134874268Y-132563780D01*
X134879559Y-132559301D01*
X134887997Y-132546497D01*
X134881935Y-132536145D01*
X133817812Y-131472022D01*
X133803868Y-131464408D01*
X133802035Y-131464539D01*
X133795420Y-131468790D01*
X132731497Y-132532713D01*
X132724839Y-132544906D01*
X131600000Y-132544906D01*
X131600000Y-131057211D01*
X131992775Y-131057211D01*
X132005220Y-131316288D01*
X132006356Y-131325543D01*
X132056961Y-131579945D01*
X132059449Y-131588917D01*
X132147095Y-131833033D01*
X132150895Y-131841568D01*
X132273658Y-132070042D01*
X132278666Y-132077904D01*
X132348720Y-132171716D01*
X132359979Y-132180165D01*
X132372397Y-132173393D01*
X133432978Y-131112812D01*
X133439356Y-131101132D01*
X134169408Y-131101132D01*
X134169539Y-131102965D01*
X134173790Y-131109580D01*
X135241094Y-132176884D01*
X135253474Y-132183644D01*
X135261815Y-132177400D01*
X135395832Y-131969048D01*
X135400275Y-131960864D01*
X135506807Y-131724370D01*
X135509997Y-131715605D01*
X135580402Y-131465972D01*
X135582262Y-131456830D01*
X135615187Y-131198019D01*
X135615668Y-131191733D01*
X135617987Y-131103160D01*
X135617836Y-131096851D01*
X135598501Y-130836663D01*
X135597125Y-130827457D01*
X135539878Y-130574467D01*
X135537154Y-130565556D01*
X135443143Y-130323806D01*
X135439132Y-130315397D01*
X135310422Y-130090202D01*
X135305211Y-130082476D01*
X135261996Y-130027658D01*
X135250071Y-130019187D01*
X135238537Y-130025673D01*
X134177022Y-131087188D01*
X134169408Y-131101132D01*
X133439356Y-131101132D01*
X133440592Y-131098868D01*
X133440461Y-131097035D01*
X133436210Y-131090420D01*
X132370816Y-130025026D01*
X132357507Y-130017758D01*
X132347472Y-130024878D01*
X132331937Y-130043556D01*
X132326531Y-130051135D01*
X132191965Y-130272891D01*
X132187736Y-130281192D01*
X132087432Y-130520389D01*
X132084471Y-130529239D01*
X132020628Y-130780625D01*
X132019006Y-130789822D01*
X131993020Y-131047885D01*
X131992775Y-131057211D01*
X131600000Y-131057211D01*
X131600000Y-129652689D01*
X132722102Y-129652689D01*
X132726675Y-129662465D01*
X133792188Y-130727978D01*
X133806132Y-130735592D01*
X133807965Y-130735461D01*
X133814580Y-130731210D01*
X134879349Y-129666441D01*
X134885733Y-129654751D01*
X134876321Y-129642641D01*
X134729045Y-129540471D01*
X134721010Y-129535738D01*
X134488376Y-129421016D01*
X134479743Y-129417528D01*
X134232703Y-129338450D01*
X134223643Y-129336274D01*
X133967630Y-129294580D01*
X133958343Y-129293768D01*
X133698992Y-129290373D01*
X133689681Y-129290943D01*
X133432682Y-129325919D01*
X133423546Y-129327860D01*
X133174543Y-129400439D01*
X133165800Y-129403707D01*
X132930252Y-129512296D01*
X132922097Y-129516816D01*
X132731240Y-129641947D01*
X132722102Y-129652689D01*
X131600000Y-129652689D01*
X131600000Y-124176000D01*
X131620002Y-124107879D01*
X131673658Y-124061386D01*
X131726000Y-124050000D01*
X136400000Y-124050000D01*
X136400000Y-122551943D01*
X137957000Y-122551943D01*
X137957456Y-122559498D01*
X137966881Y-122637388D01*
X137970834Y-122652953D01*
X138020165Y-122777549D01*
X138028522Y-122792380D01*
X138109243Y-122898725D01*
X138121275Y-122910757D01*
X138227620Y-122991478D01*
X138242451Y-122999835D01*
X138367047Y-123049166D01*
X138382612Y-123053119D01*
X138460502Y-123062544D01*
X138468057Y-123063000D01*
X139177885Y-123063000D01*
X139193124Y-123058525D01*
X139194329Y-123057135D01*
X139196000Y-123049452D01*
X139196000Y-123044885D01*
X139704000Y-123044885D01*
X139708475Y-123060124D01*
X139709865Y-123061329D01*
X139717548Y-123063000D01*
X140431943Y-123063000D01*
X140439498Y-123062544D01*
X140517388Y-123053119D01*
X140532953Y-123049166D01*
X140657549Y-122999835D01*
X140672380Y-122991478D01*
X140778725Y-122910757D01*
X140790757Y-122898725D01*
X140871478Y-122792380D01*
X140879835Y-122777549D01*
X140929166Y-122652953D01*
X140933119Y-122637388D01*
X140942544Y-122559498D01*
X140943000Y-122551943D01*
X140943000Y-122527115D01*
X140938525Y-122511876D01*
X140937135Y-122510671D01*
X140929452Y-122509000D01*
X139722115Y-122509000D01*
X139706876Y-122513475D01*
X139705671Y-122514865D01*
X139704000Y-122522548D01*
X139704000Y-123044885D01*
X139196000Y-123044885D01*
X139196000Y-122527115D01*
X139191525Y-122511876D01*
X139190135Y-122510671D01*
X139182452Y-122509000D01*
X137975115Y-122509000D01*
X137959876Y-122513475D01*
X137958671Y-122514865D01*
X137957000Y-122522548D01*
X137957000Y-122551943D01*
X136400000Y-122551943D01*
X136400000Y-121982885D01*
X137957000Y-121982885D01*
X137961475Y-121998124D01*
X137962865Y-121999329D01*
X137970548Y-122001000D01*
X139177885Y-122001000D01*
X139193124Y-121996525D01*
X139194329Y-121995135D01*
X139196000Y-121987452D01*
X139196000Y-121982885D01*
X139704000Y-121982885D01*
X139708475Y-121998124D01*
X139709865Y-121999329D01*
X139717548Y-122001000D01*
X140924885Y-122001000D01*
X140940124Y-121996525D01*
X140941329Y-121995135D01*
X140943000Y-121987452D01*
X140943000Y-121958057D01*
X140942544Y-121950502D01*
X140933119Y-121872612D01*
X140929166Y-121857047D01*
X140879833Y-121732446D01*
X140871480Y-121717622D01*
X140855205Y-121696180D01*
X140829951Y-121629827D01*
X140844579Y-121560354D01*
X140855205Y-121543820D01*
X140871480Y-121522378D01*
X140879833Y-121507554D01*
X140929166Y-121382953D01*
X140933119Y-121367388D01*
X140942544Y-121289498D01*
X140943000Y-121281943D01*
X140943000Y-121257115D01*
X140938525Y-121241876D01*
X140937135Y-121240671D01*
X140929452Y-121239000D01*
X139722115Y-121239000D01*
X139706876Y-121243475D01*
X139705671Y-121244865D01*
X139704000Y-121252548D01*
X139704000Y-121982885D01*
X139196000Y-121982885D01*
X139196000Y-121257115D01*
X139191525Y-121241876D01*
X139190135Y-121240671D01*
X139182452Y-121239000D01*
X137975115Y-121239000D01*
X137959876Y-121243475D01*
X137958671Y-121244865D01*
X137957000Y-121252548D01*
X137957000Y-121281943D01*
X137957456Y-121289498D01*
X137966881Y-121367388D01*
X137970834Y-121382953D01*
X138020167Y-121507554D01*
X138028520Y-121522378D01*
X138044795Y-121543820D01*
X138070049Y-121610173D01*
X138055421Y-121679646D01*
X138044795Y-121696180D01*
X138028520Y-121717622D01*
X138020167Y-121732446D01*
X137970834Y-121857047D01*
X137966881Y-121872612D01*
X137957456Y-121950502D01*
X137957000Y-121958057D01*
X137957000Y-121982885D01*
X136400000Y-121982885D01*
X136400000Y-120712885D01*
X137957000Y-120712885D01*
X137961475Y-120728124D01*
X137962865Y-120729329D01*
X137970548Y-120731000D01*
X139177885Y-120731000D01*
X139193124Y-120726525D01*
X139194329Y-120725135D01*
X139196000Y-120717452D01*
X139196000Y-120712885D01*
X139704000Y-120712885D01*
X139708475Y-120728124D01*
X139709865Y-120729329D01*
X139717548Y-120731000D01*
X140924885Y-120731000D01*
X140940124Y-120726525D01*
X140941329Y-120725135D01*
X140943000Y-120717452D01*
X140943000Y-120688057D01*
X140942544Y-120680502D01*
X140933119Y-120602612D01*
X140929166Y-120587047D01*
X140879833Y-120462446D01*
X140871480Y-120447622D01*
X140855205Y-120426180D01*
X140829951Y-120359827D01*
X140844579Y-120290354D01*
X140855205Y-120273820D01*
X140871480Y-120252378D01*
X140879833Y-120237554D01*
X140929166Y-120112953D01*
X140933119Y-120097388D01*
X140942544Y-120019498D01*
X140943000Y-120011943D01*
X140943000Y-119987115D01*
X140938525Y-119971876D01*
X140937135Y-119970671D01*
X140929452Y-119969000D01*
X139722115Y-119969000D01*
X139706876Y-119973475D01*
X139705671Y-119974865D01*
X139704000Y-119982548D01*
X139704000Y-120712885D01*
X139196000Y-120712885D01*
X139196000Y-119987115D01*
X139191525Y-119971876D01*
X139190135Y-119970671D01*
X139182452Y-119969000D01*
X137975115Y-119969000D01*
X137959876Y-119973475D01*
X137958671Y-119974865D01*
X137957000Y-119982548D01*
X137957000Y-120011943D01*
X137957456Y-120019498D01*
X137966881Y-120097388D01*
X137970834Y-120112953D01*
X138020167Y-120237554D01*
X138028520Y-120252378D01*
X138044795Y-120273820D01*
X138070049Y-120340173D01*
X138055421Y-120409646D01*
X138044795Y-120426180D01*
X138028520Y-120447622D01*
X138020167Y-120462446D01*
X137970834Y-120587047D01*
X137966881Y-120602612D01*
X137957456Y-120680502D01*
X137957000Y-120688057D01*
X137957000Y-120712885D01*
X136400000Y-120712885D01*
X136400000Y-119442885D01*
X137957000Y-119442885D01*
X137961475Y-119458124D01*
X137962865Y-119459329D01*
X137970548Y-119461000D01*
X139177885Y-119461000D01*
X139193124Y-119456525D01*
X139194329Y-119455135D01*
X139196000Y-119447452D01*
X139196000Y-119442885D01*
X139704000Y-119442885D01*
X139708475Y-119458124D01*
X139709865Y-119459329D01*
X139717548Y-119461000D01*
X140924885Y-119461000D01*
X140940124Y-119456525D01*
X140941329Y-119455135D01*
X140943000Y-119447452D01*
X140943000Y-119418057D01*
X140942544Y-119410502D01*
X140933119Y-119332612D01*
X140929166Y-119317047D01*
X140879833Y-119192446D01*
X140871480Y-119177622D01*
X140855205Y-119156180D01*
X140829951Y-119089827D01*
X140844579Y-119020354D01*
X140855205Y-119003820D01*
X140871480Y-118982378D01*
X140879833Y-118967554D01*
X140929166Y-118842953D01*
X140933119Y-118827388D01*
X140942544Y-118749498D01*
X140943000Y-118741943D01*
X140943000Y-118717115D01*
X140938525Y-118701876D01*
X140937135Y-118700671D01*
X140929452Y-118699000D01*
X139722115Y-118699000D01*
X139706876Y-118703475D01*
X139705671Y-118704865D01*
X139704000Y-118712548D01*
X139704000Y-119442885D01*
X139196000Y-119442885D01*
X139196000Y-118717115D01*
X139191525Y-118701876D01*
X139190135Y-118700671D01*
X139182452Y-118699000D01*
X137975115Y-118699000D01*
X137959876Y-118703475D01*
X137958671Y-118704865D01*
X137957000Y-118712548D01*
X137957000Y-118741943D01*
X137957456Y-118749498D01*
X137966881Y-118827388D01*
X137970834Y-118842953D01*
X138020167Y-118967554D01*
X138028520Y-118982378D01*
X138044795Y-119003820D01*
X138070049Y-119070173D01*
X138055421Y-119139646D01*
X138044795Y-119156180D01*
X138028520Y-119177622D01*
X138020167Y-119192446D01*
X137970834Y-119317047D01*
X137966881Y-119332612D01*
X137957456Y-119410502D01*
X137957000Y-119418057D01*
X137957000Y-119442885D01*
X136400000Y-119442885D01*
X136400000Y-118226000D01*
X136420002Y-118157879D01*
X136473658Y-118111386D01*
X136526000Y-118100000D01*
X137841277Y-118100000D01*
X137909398Y-118120002D01*
G37*
%TD.AperFunction*%
%TD*%
%TA.AperFunction,Conductor*%
%TO.N,VCC*%
G36*
X109392121Y-114120002D02*
G01*
X109438614Y-114173658D01*
X109450000Y-114226000D01*
X109450000Y-114339376D01*
X109441152Y-114385758D01*
X109439635Y-114389588D01*
X109439632Y-114389599D01*
X109436654Y-114397121D01*
X109426500Y-114481029D01*
X109426501Y-115148970D01*
X109426956Y-115152728D01*
X109426956Y-115152733D01*
X109427055Y-115153547D01*
X109436654Y-115232879D01*
X109439633Y-115240403D01*
X109439634Y-115240407D01*
X109441152Y-115244242D01*
X109450000Y-115290624D01*
X109450000Y-115609376D01*
X109441152Y-115655758D01*
X109439635Y-115659588D01*
X109439632Y-115659599D01*
X109436654Y-115667121D01*
X109426500Y-115751029D01*
X109426501Y-116418970D01*
X109436654Y-116502879D01*
X109439633Y-116510403D01*
X109439634Y-116510407D01*
X109441152Y-116514242D01*
X109450000Y-116560624D01*
X109450000Y-116879376D01*
X109441152Y-116925758D01*
X109439635Y-116929588D01*
X109439632Y-116929599D01*
X109436654Y-116937121D01*
X109426500Y-117021029D01*
X109426501Y-117688970D01*
X109436654Y-117772879D01*
X109439633Y-117780403D01*
X109439634Y-117780407D01*
X109441152Y-117784242D01*
X109450000Y-117830624D01*
X109450000Y-118800000D01*
X110271597Y-118800000D01*
X110339718Y-118820002D01*
X110365230Y-118841687D01*
X110488747Y-118978866D01*
X110643248Y-119091118D01*
X110649276Y-119093802D01*
X110649278Y-119093803D01*
X110811681Y-119166109D01*
X110817712Y-119168794D01*
X110911112Y-119188647D01*
X110998056Y-119207128D01*
X110998061Y-119207128D01*
X111004513Y-119208500D01*
X111195487Y-119208500D01*
X111201939Y-119207128D01*
X111201944Y-119207128D01*
X111288888Y-119188647D01*
X111382288Y-119168794D01*
X111388319Y-119166109D01*
X111550722Y-119093803D01*
X111550724Y-119093802D01*
X111556752Y-119091118D01*
X111711253Y-118978866D01*
X111834768Y-118841688D01*
X111895213Y-118804450D01*
X111928403Y-118800000D01*
X115274000Y-118800000D01*
X115342121Y-118820002D01*
X115388614Y-118873658D01*
X115400000Y-118926000D01*
X115400000Y-124400000D01*
X115401284Y-124386256D01*
X115446132Y-123906012D01*
X115472381Y-123840046D01*
X115530128Y-123798744D01*
X115573017Y-123791736D01*
X119732272Y-123839000D01*
X119800159Y-123859775D01*
X119846039Y-123913955D01*
X119856838Y-123965082D01*
X119856479Y-124467915D01*
X119850000Y-133550000D01*
X125600000Y-133550000D01*
X125600000Y-132444669D01*
X126997001Y-132444669D01*
X126997371Y-132451490D01*
X127002895Y-132502352D01*
X127006521Y-132517604D01*
X127051676Y-132638054D01*
X127060214Y-132653649D01*
X127136715Y-132755724D01*
X127149276Y-132768285D01*
X127251351Y-132844786D01*
X127266946Y-132853324D01*
X127387394Y-132898478D01*
X127402649Y-132902105D01*
X127453514Y-132907631D01*
X127460328Y-132908000D01*
X128532885Y-132908000D01*
X128548124Y-132903525D01*
X128549329Y-132902135D01*
X128551000Y-132894452D01*
X128551000Y-132889884D01*
X129059000Y-132889884D01*
X129063475Y-132905123D01*
X129064865Y-132906328D01*
X129072548Y-132907999D01*
X130149669Y-132907999D01*
X130156490Y-132907629D01*
X130207352Y-132902105D01*
X130222604Y-132898479D01*
X130343054Y-132853324D01*
X130358649Y-132844786D01*
X130460724Y-132768285D01*
X130473285Y-132755724D01*
X130549786Y-132653649D01*
X130558324Y-132638054D01*
X130603478Y-132517606D01*
X130607105Y-132502351D01*
X130612631Y-132451486D01*
X130613000Y-132444672D01*
X130613000Y-131372115D01*
X130608525Y-131356876D01*
X130607135Y-131355671D01*
X130599452Y-131354000D01*
X129077115Y-131354000D01*
X129061876Y-131358475D01*
X129060671Y-131359865D01*
X129059000Y-131367548D01*
X129059000Y-132889884D01*
X128551000Y-132889884D01*
X128551000Y-131372115D01*
X128546525Y-131356876D01*
X128545135Y-131355671D01*
X128537452Y-131354000D01*
X127015116Y-131354000D01*
X126999877Y-131358475D01*
X126998672Y-131359865D01*
X126997001Y-131367548D01*
X126997001Y-132444669D01*
X125600000Y-132444669D01*
X125600000Y-130827885D01*
X126997000Y-130827885D01*
X127001475Y-130843124D01*
X127002865Y-130844329D01*
X127010548Y-130846000D01*
X128532885Y-130846000D01*
X128548124Y-130841525D01*
X128549329Y-130840135D01*
X128551000Y-130832452D01*
X128551000Y-130827885D01*
X129059000Y-130827885D01*
X129063475Y-130843124D01*
X129064865Y-130844329D01*
X129072548Y-130846000D01*
X130594884Y-130846000D01*
X130610123Y-130841525D01*
X130611328Y-130840135D01*
X130612999Y-130832452D01*
X130612999Y-129755331D01*
X130612629Y-129748510D01*
X130607105Y-129697648D01*
X130603479Y-129682396D01*
X130558324Y-129561946D01*
X130549786Y-129546351D01*
X130473285Y-129444276D01*
X130460724Y-129431715D01*
X130358649Y-129355214D01*
X130343054Y-129346676D01*
X130222606Y-129301522D01*
X130207351Y-129297895D01*
X130156486Y-129292369D01*
X130149672Y-129292000D01*
X129077115Y-129292000D01*
X129061876Y-129296475D01*
X129060671Y-129297865D01*
X129059000Y-129305548D01*
X129059000Y-130827885D01*
X128551000Y-130827885D01*
X128551000Y-129310116D01*
X128546525Y-129294877D01*
X128545135Y-129293672D01*
X128537452Y-129292001D01*
X127460331Y-129292001D01*
X127453510Y-129292371D01*
X127402648Y-129297895D01*
X127387396Y-129301521D01*
X127266946Y-129346676D01*
X127251351Y-129355214D01*
X127149276Y-129431715D01*
X127136715Y-129444276D01*
X127060214Y-129546351D01*
X127051676Y-129561946D01*
X127006522Y-129682394D01*
X127002895Y-129697649D01*
X126997369Y-129748514D01*
X126997000Y-129755328D01*
X126997000Y-130827885D01*
X125600000Y-130827885D01*
X125600000Y-127426000D01*
X125620002Y-127357879D01*
X125673658Y-127311386D01*
X125726000Y-127300000D01*
X131273999Y-127300000D01*
X131342120Y-127320002D01*
X131388613Y-127373658D01*
X131399999Y-127426000D01*
X131399940Y-133550000D01*
X131399904Y-137221840D01*
X131379901Y-137289961D01*
X131326245Y-137336453D01*
X131273910Y-137347839D01*
X115760540Y-137348606D01*
X109538346Y-137348913D01*
X109470225Y-137328914D01*
X109423730Y-137275261D01*
X109412342Y-137223398D01*
X109393957Y-132444669D01*
X115497001Y-132444669D01*
X115497371Y-132451490D01*
X115502895Y-132502352D01*
X115506521Y-132517604D01*
X115551676Y-132638054D01*
X115560214Y-132653649D01*
X115636715Y-132755724D01*
X115649276Y-132768285D01*
X115751351Y-132844786D01*
X115766946Y-132853324D01*
X115887394Y-132898478D01*
X115902649Y-132902105D01*
X115953514Y-132907631D01*
X115960328Y-132908000D01*
X117032885Y-132908000D01*
X117048124Y-132903525D01*
X117049329Y-132902135D01*
X117051000Y-132894452D01*
X117051000Y-132889884D01*
X117559000Y-132889884D01*
X117563475Y-132905123D01*
X117564865Y-132906328D01*
X117572548Y-132907999D01*
X118649669Y-132907999D01*
X118656490Y-132907629D01*
X118707352Y-132902105D01*
X118722604Y-132898479D01*
X118843054Y-132853324D01*
X118858649Y-132844786D01*
X118960724Y-132768285D01*
X118973285Y-132755724D01*
X119049786Y-132653649D01*
X119058324Y-132638054D01*
X119103478Y-132517606D01*
X119107105Y-132502351D01*
X119112631Y-132451486D01*
X119113000Y-132444672D01*
X119113000Y-131372115D01*
X119108525Y-131356876D01*
X119107135Y-131355671D01*
X119099452Y-131354000D01*
X117577115Y-131354000D01*
X117561876Y-131358475D01*
X117560671Y-131359865D01*
X117559000Y-131367548D01*
X117559000Y-132889884D01*
X117051000Y-132889884D01*
X117051000Y-131372115D01*
X117046525Y-131356876D01*
X117045135Y-131355671D01*
X117037452Y-131354000D01*
X115515116Y-131354000D01*
X115499877Y-131358475D01*
X115498672Y-131359865D01*
X115497001Y-131367548D01*
X115497001Y-132444669D01*
X109393957Y-132444669D01*
X109387737Y-130827885D01*
X115497000Y-130827885D01*
X115501475Y-130843124D01*
X115502865Y-130844329D01*
X115510548Y-130846000D01*
X117032885Y-130846000D01*
X117048124Y-130841525D01*
X117049329Y-130840135D01*
X117051000Y-130832452D01*
X117051000Y-130827885D01*
X117559000Y-130827885D01*
X117563475Y-130843124D01*
X117564865Y-130844329D01*
X117572548Y-130846000D01*
X119094884Y-130846000D01*
X119110123Y-130841525D01*
X119111328Y-130840135D01*
X119112999Y-130832452D01*
X119112999Y-129755331D01*
X119112629Y-129748510D01*
X119107105Y-129697648D01*
X119103479Y-129682396D01*
X119058324Y-129561946D01*
X119049786Y-129546351D01*
X118973285Y-129444276D01*
X118960724Y-129431715D01*
X118858649Y-129355214D01*
X118843054Y-129346676D01*
X118722606Y-129301522D01*
X118707351Y-129297895D01*
X118656486Y-129292369D01*
X118649672Y-129292000D01*
X117577115Y-129292000D01*
X117561876Y-129296475D01*
X117560671Y-129297865D01*
X117559000Y-129305548D01*
X117559000Y-130827885D01*
X117051000Y-130827885D01*
X117051000Y-129310116D01*
X117046525Y-129294877D01*
X117045135Y-129293672D01*
X117037452Y-129292001D01*
X115960331Y-129292001D01*
X115953510Y-129292371D01*
X115902648Y-129297895D01*
X115887396Y-129301521D01*
X115766946Y-129346676D01*
X115751351Y-129355214D01*
X115649276Y-129431715D01*
X115636715Y-129444276D01*
X115560214Y-129546351D01*
X115551676Y-129561946D01*
X115506522Y-129682394D01*
X115502895Y-129697649D01*
X115497369Y-129748514D01*
X115497000Y-129755328D01*
X115497000Y-130827885D01*
X109387737Y-130827885D01*
X109363490Y-124525291D01*
X109363490Y-124525290D01*
X109363420Y-124507174D01*
X109350484Y-124506978D01*
X109350482Y-124506978D01*
X108549698Y-124494868D01*
X108158046Y-124488945D01*
X108090236Y-124467915D01*
X108044926Y-124414390D01*
X107497779Y-123190683D01*
X108573677Y-123190683D01*
X108583559Y-123203172D01*
X108631414Y-123235148D01*
X108641527Y-123240639D01*
X108829581Y-123321433D01*
X108840514Y-123324985D01*
X109040142Y-123370157D01*
X109051551Y-123371659D01*
X109256069Y-123379694D01*
X109267551Y-123379092D01*
X109470111Y-123349723D01*
X109481294Y-123347038D01*
X109675104Y-123281249D01*
X109685617Y-123276568D01*
X109818358Y-123202228D01*
X109828223Y-123192150D01*
X109827658Y-123190683D01*
X112273677Y-123190683D01*
X112283559Y-123203172D01*
X112331414Y-123235148D01*
X112341527Y-123240639D01*
X112529581Y-123321433D01*
X112540514Y-123324985D01*
X112740142Y-123370157D01*
X112751551Y-123371659D01*
X112956069Y-123379694D01*
X112967551Y-123379092D01*
X113170111Y-123349723D01*
X113181294Y-123347038D01*
X113375104Y-123281249D01*
X113385617Y-123276568D01*
X113518358Y-123202228D01*
X113528223Y-123192150D01*
X113525267Y-123184478D01*
X112912811Y-122572021D01*
X112898868Y-122564408D01*
X112897034Y-122564539D01*
X112890420Y-122568790D01*
X112279870Y-123179341D01*
X112273677Y-123190683D01*
X109827658Y-123190683D01*
X109825267Y-123184478D01*
X109212811Y-122572021D01*
X109198868Y-122564408D01*
X109197034Y-122564539D01*
X109190420Y-122568790D01*
X108579870Y-123179341D01*
X108573677Y-123190683D01*
X107497779Y-123190683D01*
X107043571Y-122174837D01*
X108019243Y-122174837D01*
X108032629Y-122379066D01*
X108034430Y-122390436D01*
X108084809Y-122588806D01*
X108088650Y-122599653D01*
X108174338Y-122785525D01*
X108180089Y-122795486D01*
X108196637Y-122818902D01*
X108207227Y-122827290D01*
X108220526Y-122820263D01*
X108827979Y-122212811D01*
X108834356Y-122201132D01*
X109564408Y-122201132D01*
X109564539Y-122202966D01*
X109568790Y-122209580D01*
X110180568Y-122821357D01*
X110192943Y-122828114D01*
X110199523Y-122823188D01*
X110276568Y-122685617D01*
X110281249Y-122675104D01*
X110347038Y-122481294D01*
X110349723Y-122470111D01*
X110379388Y-122265511D01*
X110380018Y-122258128D01*
X110381443Y-122203704D01*
X110381200Y-122196305D01*
X110379227Y-122174837D01*
X111719243Y-122174837D01*
X111732629Y-122379066D01*
X111734430Y-122390436D01*
X111784809Y-122588806D01*
X111788650Y-122599653D01*
X111874338Y-122785525D01*
X111880089Y-122795486D01*
X111896637Y-122818902D01*
X111907227Y-122827290D01*
X111920526Y-122820263D01*
X112527979Y-122212811D01*
X112534356Y-122201132D01*
X113264408Y-122201132D01*
X113264539Y-122202966D01*
X113268790Y-122209580D01*
X113880568Y-122821357D01*
X113892943Y-122828114D01*
X113899523Y-122823188D01*
X113976568Y-122685617D01*
X113981249Y-122675104D01*
X114047038Y-122481294D01*
X114049723Y-122470111D01*
X114079388Y-122265511D01*
X114080018Y-122258128D01*
X114081443Y-122203704D01*
X114081200Y-122196305D01*
X114062284Y-121990438D01*
X114060186Y-121979117D01*
X114004632Y-121782139D01*
X114000508Y-121771392D01*
X113909982Y-121587826D01*
X113904707Y-121579219D01*
X113893815Y-121571044D01*
X113881396Y-121577815D01*
X113272021Y-122187189D01*
X113264408Y-122201132D01*
X112534356Y-122201132D01*
X112535592Y-122198868D01*
X112535461Y-122197034D01*
X112531210Y-122190420D01*
X111917817Y-121577028D01*
X111905442Y-121570271D01*
X111899476Y-121574737D01*
X111811091Y-121742728D01*
X111806686Y-121753362D01*
X111745992Y-121948829D01*
X111743600Y-121960080D01*
X111719544Y-122163335D01*
X111719243Y-122174837D01*
X110379227Y-122174837D01*
X110362284Y-121990438D01*
X110360186Y-121979117D01*
X110304632Y-121782139D01*
X110300508Y-121771392D01*
X110209982Y-121587826D01*
X110204707Y-121579219D01*
X110193815Y-121571044D01*
X110181396Y-121577815D01*
X109572021Y-122187189D01*
X109564408Y-122201132D01*
X108834356Y-122201132D01*
X108835592Y-122198868D01*
X108835461Y-122197034D01*
X108831210Y-122190420D01*
X108217817Y-121577028D01*
X108205442Y-121570271D01*
X108199476Y-121574737D01*
X108111091Y-121742728D01*
X108106686Y-121753362D01*
X108045992Y-121948829D01*
X108043600Y-121960080D01*
X108019544Y-122163335D01*
X108019243Y-122174837D01*
X107043571Y-122174837D01*
X106611588Y-121208697D01*
X108572810Y-121208697D01*
X108576297Y-121217086D01*
X109187189Y-121827979D01*
X109201132Y-121835592D01*
X109202966Y-121835461D01*
X109209580Y-121831210D01*
X109819949Y-121220840D01*
X109826579Y-121208697D01*
X112272810Y-121208697D01*
X112276297Y-121217086D01*
X112887189Y-121827979D01*
X112901132Y-121835592D01*
X112902966Y-121835461D01*
X112909580Y-121831210D01*
X113519949Y-121220840D01*
X113526706Y-121208465D01*
X113520676Y-121200409D01*
X113441288Y-121150319D01*
X113431045Y-121145101D01*
X113240939Y-121069256D01*
X113229911Y-121065989D01*
X113029173Y-121026060D01*
X113017726Y-121024857D01*
X112813079Y-121022178D01*
X112801599Y-121023081D01*
X112599892Y-121057741D01*
X112588772Y-121060721D01*
X112396750Y-121131561D01*
X112386372Y-121136511D01*
X112282408Y-121198364D01*
X112272810Y-121208697D01*
X109826579Y-121208697D01*
X109826706Y-121208465D01*
X109820676Y-121200409D01*
X109741288Y-121150319D01*
X109731045Y-121145101D01*
X109540939Y-121069256D01*
X109529911Y-121065989D01*
X109329173Y-121026060D01*
X109317726Y-121024857D01*
X109113079Y-121022178D01*
X109101599Y-121023081D01*
X108899892Y-121057741D01*
X108888772Y-121060721D01*
X108696750Y-121131561D01*
X108686372Y-121136511D01*
X108582408Y-121198364D01*
X108572810Y-121208697D01*
X106611588Y-121208697D01*
X106184839Y-120254265D01*
X106184838Y-120254264D01*
X106177445Y-120237729D01*
X104424978Y-120237729D01*
X104356857Y-120217727D01*
X104310364Y-120164071D01*
X104298982Y-120112755D01*
X104277654Y-117494669D01*
X104642001Y-117494669D01*
X104642371Y-117501490D01*
X104647895Y-117552352D01*
X104651521Y-117567604D01*
X104696676Y-117688054D01*
X104705214Y-117703649D01*
X104781715Y-117805724D01*
X104794276Y-117818285D01*
X104896351Y-117894786D01*
X104911946Y-117903324D01*
X105032394Y-117948478D01*
X105047649Y-117952105D01*
X105098514Y-117957631D01*
X105105328Y-117958000D01*
X106627885Y-117958000D01*
X106643124Y-117953525D01*
X106644329Y-117952135D01*
X106646000Y-117944452D01*
X106646000Y-117939884D01*
X107154000Y-117939884D01*
X107158475Y-117955123D01*
X107159865Y-117956328D01*
X107167548Y-117957999D01*
X108694669Y-117957999D01*
X108701490Y-117957629D01*
X108752352Y-117952105D01*
X108767604Y-117948479D01*
X108888054Y-117903324D01*
X108903649Y-117894786D01*
X109005724Y-117818285D01*
X109018285Y-117805724D01*
X109094786Y-117703649D01*
X109103324Y-117688054D01*
X109148478Y-117567606D01*
X109152105Y-117552351D01*
X109157631Y-117501486D01*
X109158000Y-117494672D01*
X109158000Y-116572115D01*
X109153525Y-116556876D01*
X109152135Y-116555671D01*
X109144452Y-116554000D01*
X107172115Y-116554000D01*
X107156876Y-116558475D01*
X107155671Y-116559865D01*
X107154000Y-116567548D01*
X107154000Y-117939884D01*
X106646000Y-117939884D01*
X106646000Y-116572115D01*
X106641525Y-116556876D01*
X106640135Y-116555671D01*
X106632452Y-116554000D01*
X104660116Y-116554000D01*
X104644877Y-116558475D01*
X104643672Y-116559865D01*
X104642001Y-116567548D01*
X104642001Y-117494669D01*
X104277654Y-117494669D01*
X104265705Y-116027885D01*
X104642000Y-116027885D01*
X104646475Y-116043124D01*
X104647865Y-116044329D01*
X104655548Y-116046000D01*
X106627885Y-116046000D01*
X106643124Y-116041525D01*
X106644329Y-116040135D01*
X106646000Y-116032452D01*
X106646000Y-116027885D01*
X107154000Y-116027885D01*
X107158475Y-116043124D01*
X107159865Y-116044329D01*
X107167548Y-116046000D01*
X109139884Y-116046000D01*
X109155123Y-116041525D01*
X109156328Y-116040135D01*
X109157999Y-116032452D01*
X109157999Y-115105331D01*
X109157629Y-115098510D01*
X109152105Y-115047648D01*
X109148479Y-115032396D01*
X109103324Y-114911946D01*
X109094786Y-114896351D01*
X109018285Y-114794276D01*
X109005724Y-114781715D01*
X108903649Y-114705214D01*
X108888054Y-114696676D01*
X108767606Y-114651522D01*
X108752351Y-114647895D01*
X108701486Y-114642369D01*
X108694672Y-114642000D01*
X107172115Y-114642000D01*
X107156876Y-114646475D01*
X107155671Y-114647865D01*
X107154000Y-114655548D01*
X107154000Y-116027885D01*
X106646000Y-116027885D01*
X106646000Y-114660116D01*
X106641525Y-114644877D01*
X106640135Y-114643672D01*
X106632452Y-114642001D01*
X105105331Y-114642001D01*
X105098510Y-114642371D01*
X105047648Y-114647895D01*
X105032396Y-114651521D01*
X104911946Y-114696676D01*
X104896351Y-114705214D01*
X104794276Y-114781715D01*
X104781715Y-114794276D01*
X104705214Y-114896351D01*
X104696676Y-114911946D01*
X104651522Y-115032394D01*
X104647895Y-115047649D01*
X104642369Y-115098514D01*
X104642000Y-115105328D01*
X104642000Y-116027885D01*
X104265705Y-116027885D01*
X104251250Y-114253395D01*
X104251250Y-114253392D01*
X104250000Y-114100000D01*
X109324000Y-114100000D01*
X109392121Y-114120002D01*
G37*
%TD.AperFunction*%
%TD*%
%TA.AperFunction,Conductor*%
%TO.N,GND*%
G36*
X121271121Y-118211002D02*
G01*
X121317614Y-118264658D01*
X121329000Y-118317000D01*
X121329000Y-121113000D01*
X121308998Y-121181121D01*
X121255342Y-121227614D01*
X121203000Y-121239000D01*
X120947000Y-121239000D01*
X120878879Y-121218998D01*
X120832386Y-121165342D01*
X120821000Y-121113000D01*
X120821000Y-118317000D01*
X120841002Y-118248879D01*
X120894658Y-118202386D01*
X120947000Y-118191000D01*
X121203000Y-118191000D01*
X121271121Y-118211002D01*
G37*
%TD.AperFunction*%
%TD*%
%TA.AperFunction,Conductor*%
%TO.N,VCC*%
G36*
X103692121Y-109720002D02*
G01*
X103738614Y-109773658D01*
X103750000Y-109826000D01*
X103750000Y-109968073D01*
X103729998Y-110036194D01*
X103676342Y-110082687D01*
X103610397Y-110093337D01*
X103601480Y-110092369D01*
X103594672Y-110092000D01*
X102072115Y-110092000D01*
X102056876Y-110096475D01*
X102055671Y-110097865D01*
X102054000Y-110105548D01*
X102054000Y-112889884D01*
X102058475Y-112905123D01*
X102059865Y-112906328D01*
X102067548Y-112907999D01*
X103594669Y-112907999D01*
X103601488Y-112907630D01*
X103642325Y-112903194D01*
X103712208Y-112915723D01*
X103738444Y-112933233D01*
X103750000Y-112943247D01*
X103750000Y-112950000D01*
X108672127Y-112950000D01*
X108740248Y-112970002D01*
X108784825Y-113019651D01*
X108886698Y-113223396D01*
X108900000Y-113279745D01*
X108900000Y-114250000D01*
X104250748Y-114250000D01*
X104250000Y-114244947D01*
X104250000Y-113950000D01*
X99226000Y-113950000D01*
X99157879Y-113929998D01*
X99111386Y-113876342D01*
X99100000Y-113824000D01*
X99100000Y-112444669D01*
X99542001Y-112444669D01*
X99542371Y-112451490D01*
X99547895Y-112502352D01*
X99551521Y-112517604D01*
X99596676Y-112638054D01*
X99605214Y-112653649D01*
X99681715Y-112755724D01*
X99694276Y-112768285D01*
X99796351Y-112844786D01*
X99811946Y-112853324D01*
X99932394Y-112898478D01*
X99947649Y-112902105D01*
X99998514Y-112907631D01*
X100005328Y-112908000D01*
X101527885Y-112908000D01*
X101543124Y-112903525D01*
X101544329Y-112902135D01*
X101546000Y-112894452D01*
X101546000Y-111772115D01*
X101541525Y-111756876D01*
X101540135Y-111755671D01*
X101532452Y-111754000D01*
X99560116Y-111754000D01*
X99544877Y-111758475D01*
X99543672Y-111759865D01*
X99542001Y-111767548D01*
X99542001Y-112444669D01*
X99100000Y-112444669D01*
X99100000Y-111227885D01*
X99542000Y-111227885D01*
X99546475Y-111243124D01*
X99547865Y-111244329D01*
X99555548Y-111246000D01*
X101527885Y-111246000D01*
X101543124Y-111241525D01*
X101544329Y-111240135D01*
X101546000Y-111232452D01*
X101546000Y-110110116D01*
X101541525Y-110094877D01*
X101540135Y-110093672D01*
X101532452Y-110092001D01*
X100005331Y-110092001D01*
X99998510Y-110092371D01*
X99947648Y-110097895D01*
X99932396Y-110101521D01*
X99811946Y-110146676D01*
X99796351Y-110155214D01*
X99694276Y-110231715D01*
X99681715Y-110244276D01*
X99605214Y-110346351D01*
X99596676Y-110361946D01*
X99551522Y-110482394D01*
X99547895Y-110497649D01*
X99542369Y-110548514D01*
X99542000Y-110555328D01*
X99542000Y-111227885D01*
X99100000Y-111227885D01*
X99100000Y-109826000D01*
X99120002Y-109757879D01*
X99173658Y-109711386D01*
X99226000Y-109700000D01*
X103624000Y-109700000D01*
X103692121Y-109720002D01*
G37*
%TD.AperFunction*%
%TD*%
%TA.AperFunction,Conductor*%
%TO.N,Net-(F2-Pad1)*%
G36*
X106036043Y-120420002D02*
G01*
X106083172Y-120475074D01*
X106849582Y-122209580D01*
X107662791Y-124050000D01*
X107950000Y-124700000D01*
X109024000Y-124700000D01*
X109092121Y-124720002D01*
X109138614Y-124773658D01*
X109150000Y-124826000D01*
X109150000Y-130824000D01*
X109129998Y-130892121D01*
X109076342Y-130938614D01*
X109024000Y-130950000D01*
X103576000Y-130950000D01*
X103507879Y-130929998D01*
X103461386Y-130876342D01*
X103450000Y-130824000D01*
X103450000Y-129844669D01*
X104287001Y-129844669D01*
X104287371Y-129851490D01*
X104292895Y-129902352D01*
X104296521Y-129917604D01*
X104341676Y-130038054D01*
X104350214Y-130053649D01*
X104426715Y-130155724D01*
X104439276Y-130168285D01*
X104541351Y-130244786D01*
X104556946Y-130253324D01*
X104677394Y-130298478D01*
X104692649Y-130302105D01*
X104743514Y-130307631D01*
X104750328Y-130308000D01*
X105822885Y-130308000D01*
X105838124Y-130303525D01*
X105839329Y-130302135D01*
X105841000Y-130294452D01*
X105841000Y-130289884D01*
X106349000Y-130289884D01*
X106353475Y-130305123D01*
X106354865Y-130306328D01*
X106362548Y-130307999D01*
X107439669Y-130307999D01*
X107446490Y-130307629D01*
X107497352Y-130302105D01*
X107512604Y-130298479D01*
X107633054Y-130253324D01*
X107648649Y-130244786D01*
X107750724Y-130168285D01*
X107763285Y-130155724D01*
X107839786Y-130053649D01*
X107848324Y-130038054D01*
X107893478Y-129917606D01*
X107897105Y-129902351D01*
X107902631Y-129851486D01*
X107903000Y-129844672D01*
X107903000Y-128772115D01*
X107898525Y-128756876D01*
X107897135Y-128755671D01*
X107889452Y-128754000D01*
X106367115Y-128754000D01*
X106351876Y-128758475D01*
X106350671Y-128759865D01*
X106349000Y-128767548D01*
X106349000Y-130289884D01*
X105841000Y-130289884D01*
X105841000Y-128772115D01*
X105836525Y-128756876D01*
X105835135Y-128755671D01*
X105827452Y-128754000D01*
X104305116Y-128754000D01*
X104289877Y-128758475D01*
X104288672Y-128759865D01*
X104287001Y-128767548D01*
X104287001Y-129844669D01*
X103450000Y-129844669D01*
X103450000Y-128227885D01*
X104287000Y-128227885D01*
X104291475Y-128243124D01*
X104292865Y-128244329D01*
X104300548Y-128246000D01*
X105822885Y-128246000D01*
X105838124Y-128241525D01*
X105839329Y-128240135D01*
X105841000Y-128232452D01*
X105841000Y-128227885D01*
X106349000Y-128227885D01*
X106353475Y-128243124D01*
X106354865Y-128244329D01*
X106362548Y-128246000D01*
X107884884Y-128246000D01*
X107900123Y-128241525D01*
X107901328Y-128240135D01*
X107902999Y-128232452D01*
X107902999Y-127155331D01*
X107902629Y-127148510D01*
X107897105Y-127097648D01*
X107893479Y-127082396D01*
X107848324Y-126961946D01*
X107839786Y-126946351D01*
X107763285Y-126844276D01*
X107750724Y-126831715D01*
X107648649Y-126755214D01*
X107633054Y-126746676D01*
X107512606Y-126701522D01*
X107497351Y-126697895D01*
X107446486Y-126692369D01*
X107439672Y-126692000D01*
X106367115Y-126692000D01*
X106351876Y-126696475D01*
X106350671Y-126697865D01*
X106349000Y-126705548D01*
X106349000Y-128227885D01*
X105841000Y-128227885D01*
X105841000Y-126710116D01*
X105836525Y-126694877D01*
X105835135Y-126693672D01*
X105827452Y-126692001D01*
X104750331Y-126692001D01*
X104743510Y-126692371D01*
X104692648Y-126697895D01*
X104677396Y-126701521D01*
X104556946Y-126746676D01*
X104541351Y-126755214D01*
X104439276Y-126831715D01*
X104426715Y-126844276D01*
X104350214Y-126946351D01*
X104341676Y-126961946D01*
X104296522Y-127082394D01*
X104292895Y-127097649D01*
X104287369Y-127148514D01*
X104287000Y-127155328D01*
X104287000Y-128227885D01*
X103450000Y-128227885D01*
X103450000Y-124050000D01*
X100409500Y-124050000D01*
X100341379Y-124029998D01*
X100294886Y-123976342D01*
X100283500Y-123924000D01*
X100283500Y-123495212D01*
X100303502Y-123427091D01*
X100357158Y-123380598D01*
X100423108Y-123369949D01*
X100480014Y-123376131D01*
X100486828Y-123376500D01*
X100927885Y-123376500D01*
X100943124Y-123372025D01*
X100944329Y-123370635D01*
X100946000Y-123362952D01*
X100946000Y-123358384D01*
X101454000Y-123358384D01*
X101458475Y-123373623D01*
X101459865Y-123374828D01*
X101467548Y-123376499D01*
X101913169Y-123376499D01*
X101919990Y-123376129D01*
X101970852Y-123370605D01*
X101986104Y-123366979D01*
X102106554Y-123321824D01*
X102122149Y-123313286D01*
X102224224Y-123236785D01*
X102236785Y-123224224D01*
X102261923Y-123190683D01*
X104273677Y-123190683D01*
X104283559Y-123203172D01*
X104331414Y-123235148D01*
X104341527Y-123240639D01*
X104529581Y-123321433D01*
X104540514Y-123324985D01*
X104740142Y-123370157D01*
X104751551Y-123371659D01*
X104956069Y-123379694D01*
X104967551Y-123379092D01*
X105170111Y-123349723D01*
X105181294Y-123347038D01*
X105375104Y-123281249D01*
X105385617Y-123276568D01*
X105518358Y-123202228D01*
X105528223Y-123192150D01*
X105525267Y-123184478D01*
X104912811Y-122572021D01*
X104898868Y-122564408D01*
X104897034Y-122564539D01*
X104890420Y-122568790D01*
X104279870Y-123179341D01*
X104273677Y-123190683D01*
X102261923Y-123190683D01*
X102313286Y-123122149D01*
X102321824Y-123106554D01*
X102366978Y-122986106D01*
X102370605Y-122970851D01*
X102376131Y-122919986D01*
X102376500Y-122913172D01*
X102376500Y-122472115D01*
X102372025Y-122456876D01*
X102370635Y-122455671D01*
X102362952Y-122454000D01*
X101472115Y-122454000D01*
X101456876Y-122458475D01*
X101455671Y-122459865D01*
X101454000Y-122467548D01*
X101454000Y-123358384D01*
X100946000Y-123358384D01*
X100946000Y-122174837D01*
X103719243Y-122174837D01*
X103732629Y-122379066D01*
X103734430Y-122390436D01*
X103784809Y-122588806D01*
X103788650Y-122599653D01*
X103874338Y-122785525D01*
X103880089Y-122795486D01*
X103896637Y-122818902D01*
X103907227Y-122827290D01*
X103920526Y-122820263D01*
X104527979Y-122212811D01*
X104534356Y-122201132D01*
X105264408Y-122201132D01*
X105264539Y-122202966D01*
X105268790Y-122209580D01*
X105880568Y-122821357D01*
X105892943Y-122828114D01*
X105899523Y-122823188D01*
X105976568Y-122685617D01*
X105981249Y-122675104D01*
X106047038Y-122481294D01*
X106049723Y-122470111D01*
X106079388Y-122265511D01*
X106080018Y-122258128D01*
X106081443Y-122203704D01*
X106081200Y-122196305D01*
X106062284Y-121990438D01*
X106060186Y-121979117D01*
X106004632Y-121782139D01*
X106000508Y-121771392D01*
X105909982Y-121587826D01*
X105904707Y-121579219D01*
X105893815Y-121571044D01*
X105881396Y-121577815D01*
X105272021Y-122187189D01*
X105264408Y-122201132D01*
X104534356Y-122201132D01*
X104535592Y-122198868D01*
X104535461Y-122197034D01*
X104531210Y-122190420D01*
X103917817Y-121577028D01*
X103905442Y-121570271D01*
X103899476Y-121574737D01*
X103811091Y-121742728D01*
X103806686Y-121753362D01*
X103745992Y-121948829D01*
X103743600Y-121960080D01*
X103719544Y-122163335D01*
X103719243Y-122174837D01*
X100946000Y-122174837D01*
X100946000Y-121927885D01*
X101454000Y-121927885D01*
X101458475Y-121943124D01*
X101459865Y-121944329D01*
X101467548Y-121946000D01*
X102358384Y-121946000D01*
X102373623Y-121941525D01*
X102374828Y-121940135D01*
X102376499Y-121932452D01*
X102376499Y-121486831D01*
X102376129Y-121480010D01*
X102370605Y-121429148D01*
X102366979Y-121413896D01*
X102321824Y-121293446D01*
X102313286Y-121277851D01*
X102261458Y-121208697D01*
X104272810Y-121208697D01*
X104276297Y-121217086D01*
X104887189Y-121827979D01*
X104901132Y-121835592D01*
X104902966Y-121835461D01*
X104909580Y-121831210D01*
X105519949Y-121220840D01*
X105526706Y-121208465D01*
X105520676Y-121200409D01*
X105441288Y-121150319D01*
X105431045Y-121145101D01*
X105240939Y-121069256D01*
X105229911Y-121065989D01*
X105029173Y-121026060D01*
X105017726Y-121024857D01*
X104813079Y-121022178D01*
X104801599Y-121023081D01*
X104599892Y-121057741D01*
X104588772Y-121060721D01*
X104396750Y-121131561D01*
X104386372Y-121136511D01*
X104282408Y-121198364D01*
X104272810Y-121208697D01*
X102261458Y-121208697D01*
X102236785Y-121175776D01*
X102224224Y-121163215D01*
X102122149Y-121086714D01*
X102106554Y-121078176D01*
X101986106Y-121033022D01*
X101970851Y-121029395D01*
X101919986Y-121023869D01*
X101913172Y-121023500D01*
X101472115Y-121023500D01*
X101456876Y-121027975D01*
X101455671Y-121029365D01*
X101454000Y-121037048D01*
X101454000Y-121927885D01*
X100946000Y-121927885D01*
X100946000Y-121041616D01*
X100941525Y-121026377D01*
X100940135Y-121025172D01*
X100932452Y-121023501D01*
X100486831Y-121023501D01*
X100480009Y-121023871D01*
X100423105Y-121030051D01*
X100353223Y-121017522D01*
X100301208Y-120969200D01*
X100283500Y-120904788D01*
X100283500Y-120526000D01*
X100303502Y-120457879D01*
X100357158Y-120411386D01*
X100409500Y-120400000D01*
X105967922Y-120400000D01*
X106036043Y-120420002D01*
G37*
%TD.AperFunction*%
%TD*%
%TA.AperFunction,Conductor*%
%TO.N,GND*%
G36*
X134696121Y-118211002D02*
G01*
X134742614Y-118264658D01*
X134754000Y-118317000D01*
X134754000Y-121113000D01*
X134733998Y-121181121D01*
X134680342Y-121227614D01*
X134628000Y-121239000D01*
X134372000Y-121239000D01*
X134303879Y-121218998D01*
X134257386Y-121165342D01*
X134246000Y-121113000D01*
X134246000Y-118317000D01*
X134266002Y-118248879D01*
X134319658Y-118202386D01*
X134372000Y-118191000D01*
X134628000Y-118191000D01*
X134696121Y-118211002D01*
G37*
%TD.AperFunction*%
%TD*%
M02*
