M48
; DRILL file {KiCad (6.0.6)} date Wed Sep  7 02:31:35 2022
; FORMAT={-:-/ absolute / metric / decimal}
; #@! TF.CreationDate,2022-09-07T02:31:35-05:00
; #@! TF.GenerationSoftware,Kicad,Pcbnew,(6.0.6)
; #@! TF.FileFunction,Plated,1,4,PTH
FMAT,2
METRIC
; #@! TA.AperFunction,Plated,PTH,ViaDrill
T1C0.200
; #@! TA.AperFunction,Plated,PTH,ComponentDrill
T2C0.200
; #@! TA.AperFunction,Plated,PTH,ViaDrill
T3C0.250
; #@! TA.AperFunction,Plated,PTH,ViaDrill
T4C0.300
; #@! TA.AperFunction,Plated,PTH,ViaDrill
T5C0.400
; #@! TA.AperFunction,Plated,PTH,ViaDrill
T6C0.500
; #@! TA.AperFunction,Plated,PTH,ViaDrill
T7C0.600
; #@! TA.AperFunction,Plated,PTH,ComponentDrill
T8C0.660
; #@! TA.AperFunction,Plated,PTH,ComponentDrill
T9C0.780
; #@! TA.AperFunction,Plated,PTH,ViaDrill
T10C0.800
; #@! TA.AperFunction,Plated,PTH,ComponentDrill
T11C0.800
; #@! TA.AperFunction,Plated,PTH,ComponentDrill
T12C0.950
; #@! TA.AperFunction,Plated,PTH,ComponentDrill
T13C1.000
; #@! TA.AperFunction,Plated,PTH,ComponentDrill
T14C1.016
; #@! TA.AperFunction,Plated,PTH,ComponentDrill
T15C1.300
; #@! TA.AperFunction,Plated,PTH,ViaDrill
T16C1.700
%
G90
G05
T1
X161.9Y-83.4
X163.8Y-83.4
T2
X112.76Y-113.5
X112.76Y-114.8
X112.76Y-116.1
X112.76Y-117.4
X114.06Y-113.5
X114.06Y-114.8
X114.06Y-116.1
X114.06Y-117.4
T3
X107.8Y-75.7
X107.8Y-76.3
X107.8Y-76.9
X107.8Y-81.3
X107.8Y-81.9
X107.8Y-82.5
X132.6Y-75.7
X132.6Y-76.3
X132.6Y-76.9
X132.6Y-81.3
X132.6Y-81.9
X132.6Y-82.5
X157.325Y-75.7
X157.325Y-76.3
X157.325Y-76.9
X157.325Y-81.3
X157.325Y-81.9
X157.325Y-82.5
X182.3Y-75.7
X182.3Y-76.3
X182.3Y-76.9
X182.3Y-81.3
X182.3Y-81.9
X182.3Y-82.5
T4
X107.7Y-83.6
X132.6Y-83.7
X154.8Y-99.2
X157.4Y-83.7
X157.9Y-99.2
X182.3Y-83.7
T5
X102.0Y-76.2
X103.4Y-78.3
X104.0Y-84.8
X104.3Y-73.5
X106.05Y-80.7
X106.168Y-73.834
X106.3Y-87.25
X109.1Y-111.5
X109.7Y-74.95
X110.65Y-105.5
X110.9Y-86.8
X111.1Y-118.3
X111.65Y-74.95
X111.962Y-106.938
X112.95Y-74.4
X113.35Y-88.15
X114.25Y-74.0
X114.55Y-88.15
X115.25Y-89.9
X115.6Y-86.9
X116.5Y-84.8
X116.6Y-119.4
X117.2Y-106.938
X117.45Y-114.8
X117.6Y-101.94
X118.45Y-92.35
X118.8Y-99.65
X119.3Y-119.7
X120.803Y-110.647
X121.1Y-117.4
X121.337Y-104.562
X122.45Y-107.675
X123.75Y-108.4
X123.75Y-112.547
X124.0Y-99.65
X126.8Y-76.2
X126.987Y-98.2
X126.987Y-104.562
X128.2Y-78.3
X128.4Y-103.25
X128.8Y-84.8
X129.1Y-73.5
X129.9Y-119.5
X130.85Y-80.7
X130.968Y-73.834
X131.1Y-87.25
X131.1Y-92.3
X132.0Y-116.8
X132.62Y-119.715
X134.4Y-97.9
X134.5Y-74.95
X134.5Y-117.3
X135.6Y-97.0
X135.7Y-86.8
X136.45Y-74.95
X136.6Y-96.0
X137.75Y-74.4
X138.15Y-88.15
X138.5Y-93.1
X139.05Y-74.0
X139.2Y-113.7
X139.2Y-114.8
X139.35Y-88.15
X139.7Y-93.1
X140.05Y-89.9
X140.4Y-86.9
X140.9Y-93.024
X141.3Y-84.8
X141.3Y-91.6
X143.095Y-104.525
X145.59Y-110.92
X146.445Y-103.375
X146.445Y-105.825
X146.445Y-108.425
X148.75Y-123.55
X149.345Y-104.575
X149.345Y-107.125
X149.6Y-109.625
X150.6Y-103.3
X150.7Y-116.9
X150.75Y-127.65
X151.6Y-76.2
X152.7Y-120.85
X153.0Y-78.3
X153.6Y-84.8
X153.9Y-73.5
X154.2Y-94.7
X155.12Y-102.7
X155.145Y-109.675
X155.65Y-80.7
X155.768Y-73.834
X155.9Y-87.25
X157.1Y-106.7
X157.4Y-124.8
X158.2Y-101.6
X158.3Y-89.2
X158.3Y-93.2
X159.3Y-74.95
X159.4Y-93.2
X159.5Y-89.2
X160.1Y-109.4
X160.157Y-90.923
X160.3Y-102.1
X160.5Y-86.8
X160.5Y-97.0
X160.8Y-103.9
X160.9Y-92.1
X161.2Y-110.1
X161.25Y-74.95
X161.737Y-127.8
X162.55Y-74.4
X163.85Y-74.0
X164.3Y-124.8
X164.4Y-113.9
X165.2Y-86.9
X166.1Y-84.8
X166.225Y-122.475
X167.8Y-98.2
X168.072Y-100.6
X168.6Y-126.2
X168.637Y-127.712
X169.95Y-113.0
X170.9Y-96.2
X171.5Y-124.8
X172.0Y-113.1
X173.4Y-121.7
X174.9Y-85.9
X174.95Y-116.15
X175.65Y-126.2
X175.688Y-127.662
X176.5Y-76.2
X176.9Y-83.9
X177.9Y-78.3
X178.312Y-125.1
X178.45Y-111.75
X178.5Y-84.8
X179.1Y-74.0
X180.4Y-74.4
X180.5Y-115.25
X180.55Y-80.7
X180.8Y-87.25
X182.3Y-124.2
X182.6Y-91.9
X183.1Y-89.2
X183.7Y-105.1
X183.9Y-93.1
X184.2Y-74.95
X184.5Y-111.8
X185.2Y-94.9
X185.3Y-91.3
X185.4Y-86.837
X186.15Y-74.95
X187.1Y-98.3
X187.1Y-99.5
X187.1Y-100.7
X187.47Y-74.646
X187.85Y-88.15
X188.8Y-74.3
X189.0Y-107.9
X189.05Y-88.15
X189.5Y-123.5
X189.7Y-108.7
X189.75Y-89.9
X190.1Y-86.9
X190.7Y-98.2
X191.0Y-84.8
X191.6Y-99.4
X192.2Y-94.3
X192.7Y-98.1
X193.1Y-93.3
X193.2Y-127.3
X194.8Y-122.5
X198.15Y-91.25
T6
X153.05Y-125.7
X154.95Y-118.6
X174.0Y-112.6
T7
X106.8Y-100.25
T8
X196.399Y-90.69
X196.399Y-96.47
T9
X101.2Y-122.2
X104.9Y-122.2
X109.2Y-122.2
X112.9Y-122.2
T10
X121.075Y-119.725
X134.5Y-119.72
T11
X121.018Y-77.875
X122.15Y-110.647
X122.15Y-114.147
X123.518Y-77.875
X146.118Y-77.868
X148.618Y-77.868
X170.925Y-77.875
X173.425Y-77.875
X196.14Y-77.873
X198.64Y-77.873
T12
X108.875Y-69.02
X111.375Y-69.02
X113.875Y-69.02
X116.375Y-69.02
X128.075Y-69.02
X130.575Y-69.02
X133.075Y-69.02
X135.575Y-69.02
X142.525Y-69.02
X145.025Y-69.02
X147.525Y-69.02
X150.025Y-69.02
X156.725Y-69.02
X159.225Y-69.02
X161.725Y-69.02
X164.225Y-69.02
X171.275Y-69.02
X173.775Y-69.02
X176.275Y-69.02
X177.613Y-120.005
X178.775Y-69.02
X180.113Y-120.005
X182.613Y-120.005
X188.52Y-118.055
X191.02Y-118.055
X193.52Y-118.055
X196.02Y-118.055
X198.52Y-118.055
T13
X120.875Y-82.95
X123.415Y-82.95
X145.95Y-82.943
X148.49Y-82.943
X149.92Y-133.745
X152.42Y-133.745
X158.321Y-133.745
X160.8Y-119.975
X160.821Y-133.745
X163.3Y-119.975
X166.721Y-133.745
X169.203Y-120.005
X169.221Y-133.745
X170.775Y-82.95
X171.703Y-120.005
X173.315Y-82.95
X175.122Y-133.745
X177.622Y-133.745
X183.522Y-133.745
X186.022Y-133.745
X187.1Y-102.775
X187.1Y-105.315
X191.923Y-133.745
X194.423Y-133.745
X195.85Y-82.948
X196.335Y-102.5
X196.335Y-105.4
X196.335Y-108.3
X198.035Y-128.6
X198.39Y-82.948
X198.875Y-102.5
X198.875Y-105.4
X198.875Y-108.3
X200.575Y-128.6
T14
X163.16Y-90.66
X163.16Y-93.2
X163.16Y-95.74
X163.16Y-98.28
X163.16Y-100.82
X163.16Y-103.36
X163.16Y-105.9
X163.16Y-108.44
X165.7Y-90.66
X165.7Y-93.2
X165.7Y-95.74
X165.7Y-98.28
X165.7Y-100.82
X165.7Y-103.36
X165.7Y-105.9
X165.7Y-108.44
X168.24Y-90.66
X168.24Y-93.2
X168.24Y-105.9
X168.24Y-108.44
X170.78Y-90.66
X170.78Y-93.2
X170.78Y-105.9
X170.78Y-108.44
X173.32Y-90.66
X173.32Y-93.2
X173.32Y-105.9
X173.32Y-108.44
X175.86Y-90.66
X175.86Y-93.2
X175.86Y-105.9
X175.86Y-108.44
X178.4Y-90.66
X178.4Y-93.2
X178.4Y-95.74
X178.4Y-98.28
X178.4Y-100.82
X178.4Y-103.36
X178.4Y-105.9
X178.4Y-108.44
X180.94Y-90.66
X180.94Y-93.2
X180.94Y-95.74
X180.94Y-98.28
X180.94Y-100.82
X180.94Y-103.36
X180.94Y-105.9
X180.94Y-108.44
T15
X106.095Y-128.5
X106.095Y-133.5
X117.305Y-131.1
X122.305Y-131.1
X128.805Y-131.1
X133.805Y-131.1
T16
X110.675Y-79.12
X135.475Y-79.113
X160.25Y-79.108
X185.2Y-79.1
T0
M30
