%FSLAX45Y45*%
G04 Gerber Fmt 4.5, Leading zero omitted, Abs format (unit mm)*
G04 Created by KiCad (PCBNEW (6.0.6)) date 2022-09-20 00:44:44*
%MOMM*%
%LPD*%
G01*
G04 APERTURE LIST*
%TA.AperFunction,Profile*%
%ADD10C,0.025400*%
%TD*%
%ADD11C,0.200000*%
%ADD12C,0.020000*%
%ADD13C,0.025000*%
%ADD14C,0.030000*%
%ADD15C,0.040000*%
%ADD16C,0.050000*%
%ADD17C,0.060000*%
%ADD18C,0.066040*%
%ADD19C,0.078000*%
%ADD20C,0.080000*%
%ADD21C,0.095000*%
%ADD22C,0.100000*%
%ADD23C,0.101600*%
%ADD24C,0.130000*%
%ADD25C,0.170000*%
G04 APERTURE END LIST*
D10*
X9765000Y-6300520D02*
X9765000Y-13810000D01*
X20295260Y-6300000D02*
X9765000Y-6300520D01*
X20295260Y-13809480D02*
X20295260Y-6300000D01*
X9765000Y-13810000D02*
X20295260Y-13809480D01*
D11*
D12*
X11266000Y-11340000D02*
X11286000Y-11360000D01*
X11286000Y-11340000D02*
X11266000Y-11360000D01*
X11266000Y-11470000D02*
X11286000Y-11490000D01*
X11286000Y-11470000D02*
X11266000Y-11490000D01*
X11266000Y-11600000D02*
X11286000Y-11620000D01*
X11286000Y-11600000D02*
X11266000Y-11620000D01*
X11266000Y-11730000D02*
X11286000Y-11750000D01*
X11286000Y-11730000D02*
X11266000Y-11750000D01*
X11396000Y-11340000D02*
X11416000Y-11360000D01*
X11416000Y-11340000D02*
X11396000Y-11360000D01*
X11396000Y-11470000D02*
X11416000Y-11490000D01*
X11416000Y-11470000D02*
X11396000Y-11490000D01*
X11396000Y-11600000D02*
X11416000Y-11620000D01*
X11416000Y-11600000D02*
X11396000Y-11620000D01*
X11396000Y-11730000D02*
X11416000Y-11750000D01*
X11416000Y-11730000D02*
X11396000Y-11750000D01*
D13*
X10792500Y-7570000D02*
G75*
G03*
X10792500Y-7570000I-12500J0D01*
G01*
X10792500Y-7630000D02*
G75*
G03*
X10792500Y-7630000I-12500J0D01*
G01*
X10792500Y-7690000D02*
G75*
G03*
X10792500Y-7690000I-12500J0D01*
G01*
X10792500Y-8130000D02*
G75*
G03*
X10792500Y-8130000I-12500J0D01*
G01*
X10792500Y-8190000D02*
G75*
G03*
X10792500Y-8190000I-12500J0D01*
G01*
X10792500Y-8250000D02*
G75*
G03*
X10792500Y-8250000I-12500J0D01*
G01*
X13272500Y-7570000D02*
G75*
G03*
X13272500Y-7570000I-12500J0D01*
G01*
X13272500Y-7630000D02*
G75*
G03*
X13272500Y-7630000I-12500J0D01*
G01*
X13272500Y-7690000D02*
G75*
G03*
X13272500Y-7690000I-12500J0D01*
G01*
X13272500Y-8130000D02*
G75*
G03*
X13272500Y-8130000I-12500J0D01*
G01*
X13272500Y-8190000D02*
G75*
G03*
X13272500Y-8190000I-12500J0D01*
G01*
X13272500Y-8250000D02*
G75*
G03*
X13272500Y-8250000I-12500J0D01*
G01*
X13852500Y-8200000D02*
G75*
G03*
X13852500Y-8200000I-12500J0D01*
G01*
X15744950Y-7570000D02*
G75*
G03*
X15744950Y-7570000I-12500J0D01*
G01*
X15744950Y-7630000D02*
G75*
G03*
X15744950Y-7630000I-12500J0D01*
G01*
X15744950Y-7690000D02*
G75*
G03*
X15744950Y-7690000I-12500J0D01*
G01*
X15744950Y-8130000D02*
G75*
G03*
X15744950Y-8130000I-12500J0D01*
G01*
X15744950Y-8190000D02*
G75*
G03*
X15744950Y-8190000I-12500J0D01*
G01*
X15744950Y-8250000D02*
G75*
G03*
X15744950Y-8250000I-12500J0D01*
G01*
X16202500Y-8340000D02*
G75*
G03*
X16202500Y-8340000I-12500J0D01*
G01*
X16392500Y-8340000D02*
G75*
G03*
X16392500Y-8340000I-12500J0D01*
G01*
X16462500Y-8200000D02*
G75*
G03*
X16462500Y-8200000I-12500J0D01*
G01*
X18242500Y-7570000D02*
G75*
G03*
X18242500Y-7570000I-12500J0D01*
G01*
X18242500Y-7630000D02*
G75*
G03*
X18242500Y-7630000I-12500J0D01*
G01*
X18242500Y-7690000D02*
G75*
G03*
X18242500Y-7690000I-12500J0D01*
G01*
X18242500Y-8130000D02*
G75*
G03*
X18242500Y-8130000I-12500J0D01*
G01*
X18242500Y-8190000D02*
G75*
G03*
X18242500Y-8190000I-12500J0D01*
G01*
X18242500Y-8250000D02*
G75*
G03*
X18242500Y-8250000I-12500J0D01*
G01*
D14*
X10340000Y-7815000D02*
X10340000Y-7845000D01*
X10325000Y-7830000D02*
X10355000Y-7830000D01*
X10430000Y-7335000D02*
X10430000Y-7365000D01*
X10415000Y-7350000D02*
X10445000Y-7350000D01*
X10605000Y-8055000D02*
X10605000Y-8085000D01*
X10590000Y-8070000D02*
X10620000Y-8070000D01*
X10616796Y-7368441D02*
X10616796Y-7398441D01*
X10601796Y-7383441D02*
X10631796Y-7383441D01*
X10770000Y-8345000D02*
X10770000Y-8375000D01*
X10755000Y-8360000D02*
X10785000Y-8360000D01*
X10970000Y-7480000D02*
X10970000Y-7510000D01*
X10955000Y-7495000D02*
X10985000Y-7495000D01*
X11165000Y-7480000D02*
X11165000Y-7510000D01*
X11150000Y-7495000D02*
X11180000Y-7495000D01*
X11295000Y-7425000D02*
X11295000Y-7455000D01*
X11280000Y-7440000D02*
X11310000Y-7440000D01*
X11335000Y-8800000D02*
X11335000Y-8830000D01*
X11320000Y-8815000D02*
X11350000Y-8815000D01*
X11425000Y-7385000D02*
X11425000Y-7415000D01*
X11410000Y-7400000D02*
X11440000Y-7400000D01*
X11455000Y-8800000D02*
X11455000Y-8830000D01*
X11440000Y-8815000D02*
X11470000Y-8815000D01*
X11525000Y-8975000D02*
X11525000Y-9005000D01*
X11510000Y-8990000D02*
X11540000Y-8990000D01*
X12820000Y-7815000D02*
X12820000Y-7845000D01*
X12805000Y-7830000D02*
X12835000Y-7830000D01*
X12910000Y-7335000D02*
X12910000Y-7365000D01*
X12895000Y-7350000D02*
X12925000Y-7350000D01*
X13085000Y-8055000D02*
X13085000Y-8085000D01*
X13070000Y-8070000D02*
X13100000Y-8070000D01*
X13096796Y-7368441D02*
X13096796Y-7398441D01*
X13081796Y-7383441D02*
X13111796Y-7383441D01*
X13260000Y-8355000D02*
X13260000Y-8385000D01*
X13245000Y-8370000D02*
X13275000Y-8370000D01*
X13450000Y-7480000D02*
X13450000Y-7510000D01*
X13435000Y-7495000D02*
X13465000Y-7495000D01*
X13645000Y-7480000D02*
X13645000Y-7510000D01*
X13630000Y-7495000D02*
X13660000Y-7495000D01*
X13775000Y-7425000D02*
X13775000Y-7455000D01*
X13760000Y-7440000D02*
X13790000Y-7440000D01*
X13815000Y-8800000D02*
X13815000Y-8830000D01*
X13800000Y-8815000D02*
X13830000Y-8815000D01*
X13850000Y-9295000D02*
X13850000Y-9325000D01*
X13835000Y-9310000D02*
X13865000Y-9310000D01*
X13905000Y-7385000D02*
X13905000Y-7415000D01*
X13890000Y-7400000D02*
X13920000Y-7400000D01*
X13935000Y-8800000D02*
X13935000Y-8830000D01*
X13920000Y-8815000D02*
X13950000Y-8815000D01*
X13970000Y-9295000D02*
X13970000Y-9325000D01*
X13955000Y-9310000D02*
X13985000Y-9310000D01*
X14005000Y-8975000D02*
X14005000Y-9005000D01*
X13990000Y-8990000D02*
X14020000Y-8990000D01*
X14090000Y-9287450D02*
X14090000Y-9317450D01*
X14075000Y-9302450D02*
X14105000Y-9302450D01*
X15300000Y-7815000D02*
X15300000Y-7845000D01*
X15285000Y-7830000D02*
X15315000Y-7830000D01*
X15390000Y-7335000D02*
X15390000Y-7365000D01*
X15375000Y-7350000D02*
X15405000Y-7350000D01*
X15480000Y-9905000D02*
X15480000Y-9935000D01*
X15465000Y-9920000D02*
X15495000Y-9920000D01*
X15565000Y-8055000D02*
X15565000Y-8085000D01*
X15550000Y-8070000D02*
X15580000Y-8070000D01*
X15576796Y-7368441D02*
X15576796Y-7398441D01*
X15561796Y-7383441D02*
X15591796Y-7383441D01*
X15740000Y-8355000D02*
X15740000Y-8385000D01*
X15725000Y-8370000D02*
X15755000Y-8370000D01*
X15790000Y-9905000D02*
X15790000Y-9935000D01*
X15775000Y-9920000D02*
X15805000Y-9920000D01*
X15830000Y-8905000D02*
X15830000Y-8935000D01*
X15815000Y-8920000D02*
X15845000Y-8920000D01*
X15830000Y-9305000D02*
X15830000Y-9335000D01*
X15815000Y-9320000D02*
X15845000Y-9320000D01*
X15930000Y-7480000D02*
X15930000Y-7510000D01*
X15915000Y-7495000D02*
X15945000Y-7495000D01*
X15940000Y-9305000D02*
X15940000Y-9335000D01*
X15925000Y-9320000D02*
X15955000Y-9320000D01*
X15950000Y-8905000D02*
X15950000Y-8935000D01*
X15935000Y-8920000D02*
X15965000Y-8920000D01*
X16015662Y-9077265D02*
X16015662Y-9107265D01*
X16000662Y-9092265D02*
X16030662Y-9092265D01*
X16090000Y-9195000D02*
X16090000Y-9225000D01*
X16075000Y-9210000D02*
X16105000Y-9210000D01*
X16125000Y-7480000D02*
X16125000Y-7510000D01*
X16110000Y-7495000D02*
X16140000Y-7495000D01*
X16255000Y-7425000D02*
X16255000Y-7455000D01*
X16240000Y-7440000D02*
X16270000Y-7440000D01*
X16385000Y-7385000D02*
X16385000Y-7415000D01*
X16370000Y-7400000D02*
X16400000Y-7400000D01*
X17790000Y-7815000D02*
X17790000Y-7845000D01*
X17775000Y-7830000D02*
X17805000Y-7830000D01*
X17910000Y-7385000D02*
X17910000Y-7415000D01*
X17895000Y-7400000D02*
X17925000Y-7400000D01*
X18040000Y-7425000D02*
X18040000Y-7455000D01*
X18025000Y-7440000D02*
X18055000Y-7440000D01*
X18055000Y-8055000D02*
X18055000Y-8085000D01*
X18040000Y-8070000D02*
X18070000Y-8070000D01*
X18230000Y-8355000D02*
X18230000Y-8385000D01*
X18215000Y-8370000D02*
X18245000Y-8370000D01*
X18420000Y-7480000D02*
X18420000Y-7510000D01*
X18405000Y-7495000D02*
X18435000Y-7495000D01*
X18615000Y-7480000D02*
X18615000Y-7510000D01*
X18600000Y-7495000D02*
X18630000Y-7495000D01*
X18747036Y-7449576D02*
X18747036Y-7479576D01*
X18732036Y-7464576D02*
X18762036Y-7464576D01*
X18785000Y-8800000D02*
X18785000Y-8830000D01*
X18770000Y-8815000D02*
X18800000Y-8815000D01*
X18880000Y-7415000D02*
X18880000Y-7445000D01*
X18865000Y-7430000D02*
X18895000Y-7430000D01*
X18905000Y-8800000D02*
X18905000Y-8830000D01*
X18890000Y-8815000D02*
X18920000Y-8815000D01*
X18975000Y-8975000D02*
X18975000Y-9005000D01*
X18960000Y-8990000D02*
X18990000Y-8990000D01*
D15*
X10214142Y-7634142D02*
X10214142Y-7605858D01*
X10185858Y-7605858D01*
X10185858Y-7634142D01*
X10214142Y-7634142D01*
X10414142Y-8494142D02*
X10414142Y-8465858D01*
X10385858Y-8465858D01*
X10385858Y-8494142D01*
X10414142Y-8494142D01*
X10644142Y-8739142D02*
X10644142Y-8710858D01*
X10615858Y-8710858D01*
X10615858Y-8739142D01*
X10644142Y-8739142D01*
X10924142Y-11164142D02*
X10924142Y-11135858D01*
X10895858Y-11135858D01*
X10895858Y-11164142D01*
X10924142Y-11164142D01*
X11079142Y-10564142D02*
X11079142Y-10535858D01*
X11050858Y-10535858D01*
X11050858Y-10564142D01*
X11079142Y-10564142D01*
X11104142Y-8694142D02*
X11104142Y-8665858D01*
X11075858Y-8665858D01*
X11075858Y-8694142D01*
X11104142Y-8694142D01*
X11124142Y-11844142D02*
X11124142Y-11815858D01*
X11095858Y-11815858D01*
X11095858Y-11844142D01*
X11124142Y-11844142D01*
X11210392Y-10707892D02*
X11210392Y-10679608D01*
X11182108Y-10679608D01*
X11182108Y-10707892D01*
X11210392Y-10707892D01*
X11574142Y-8704142D02*
X11574142Y-8675858D01*
X11545858Y-8675858D01*
X11545858Y-8704142D01*
X11574142Y-8704142D01*
X11664142Y-8494142D02*
X11664142Y-8465858D01*
X11635858Y-8465858D01*
X11635858Y-8494142D01*
X11664142Y-8494142D01*
X11674142Y-11954142D02*
X11674142Y-11925858D01*
X11645858Y-11925858D01*
X11645858Y-11954142D01*
X11674142Y-11954142D01*
X11734142Y-10707892D02*
X11734142Y-10679608D01*
X11705858Y-10679608D01*
X11705858Y-10707892D01*
X11734142Y-10707892D01*
X11759142Y-11494142D02*
X11759142Y-11465858D01*
X11730858Y-11465858D01*
X11730858Y-11494142D01*
X11759142Y-11494142D01*
X11774142Y-10208142D02*
X11774142Y-10179858D01*
X11745858Y-10179858D01*
X11745858Y-10208142D01*
X11774142Y-10208142D01*
X11859142Y-9249142D02*
X11859142Y-9220858D01*
X11830858Y-9220858D01*
X11830858Y-9249142D01*
X11859142Y-9249142D01*
X11894142Y-9979142D02*
X11894142Y-9950858D01*
X11865858Y-9950858D01*
X11865858Y-9979142D01*
X11894142Y-9979142D01*
X11944142Y-11984142D02*
X11944142Y-11955858D01*
X11915858Y-11955858D01*
X11915858Y-11984142D01*
X11944142Y-11984142D01*
X12094407Y-11078877D02*
X12094407Y-11050593D01*
X12066123Y-11050593D01*
X12066123Y-11078877D01*
X12094407Y-11078877D01*
X12124142Y-11754142D02*
X12124142Y-11725858D01*
X12095858Y-11725858D01*
X12095858Y-11754142D01*
X12124142Y-11754142D01*
X12147892Y-10470392D02*
X12147892Y-10442108D01*
X12119608Y-10442108D01*
X12119608Y-10470392D01*
X12147892Y-10470392D01*
X12259142Y-10781692D02*
X12259142Y-10753408D01*
X12230858Y-10753408D01*
X12230858Y-10781692D01*
X12259142Y-10781692D01*
X12389142Y-10854142D02*
X12389142Y-10825858D01*
X12360858Y-10825858D01*
X12360858Y-10854142D01*
X12389142Y-10854142D01*
X12389142Y-11268877D02*
X12389142Y-11240593D01*
X12360858Y-11240593D01*
X12360858Y-11268877D01*
X12389142Y-11268877D01*
X12414142Y-9979142D02*
X12414142Y-9950858D01*
X12385858Y-9950858D01*
X12385858Y-9979142D01*
X12414142Y-9979142D01*
X12694142Y-7634142D02*
X12694142Y-7605858D01*
X12665858Y-7605858D01*
X12665858Y-7634142D01*
X12694142Y-7634142D01*
X12712892Y-9834142D02*
X12712892Y-9805858D01*
X12684608Y-9805858D01*
X12684608Y-9834142D01*
X12712892Y-9834142D01*
X12712892Y-10470392D02*
X12712892Y-10442108D01*
X12684608Y-10442108D01*
X12684608Y-10470392D01*
X12712892Y-10470392D01*
X12854142Y-10339142D02*
X12854142Y-10310858D01*
X12825858Y-10310858D01*
X12825858Y-10339142D01*
X12854142Y-10339142D01*
X12894142Y-8494142D02*
X12894142Y-8465858D01*
X12865858Y-8465858D01*
X12865858Y-8494142D01*
X12894142Y-8494142D01*
X13004142Y-11964142D02*
X13004142Y-11935858D01*
X12975858Y-11935858D01*
X12975858Y-11964142D01*
X13004142Y-11964142D01*
X13124142Y-8739142D02*
X13124142Y-8710858D01*
X13095858Y-8710858D01*
X13095858Y-8739142D01*
X13124142Y-8739142D01*
X13124142Y-9244142D02*
X13124142Y-9215858D01*
X13095858Y-9215858D01*
X13095858Y-9244142D01*
X13124142Y-9244142D01*
X13214142Y-11694142D02*
X13214142Y-11665858D01*
X13185858Y-11665858D01*
X13185858Y-11694142D01*
X13214142Y-11694142D01*
X13276142Y-11985642D02*
X13276142Y-11957358D01*
X13247858Y-11957358D01*
X13247858Y-11985642D01*
X13276142Y-11985642D01*
X13454142Y-9804142D02*
X13454142Y-9775858D01*
X13425858Y-9775858D01*
X13425858Y-9804142D01*
X13454142Y-9804142D01*
X13464142Y-11744142D02*
X13464142Y-11715858D01*
X13435858Y-11715858D01*
X13435858Y-11744142D01*
X13464142Y-11744142D01*
X13574142Y-9714142D02*
X13574142Y-9685858D01*
X13545858Y-9685858D01*
X13545858Y-9714142D01*
X13574142Y-9714142D01*
X13584142Y-8694142D02*
X13584142Y-8665858D01*
X13555858Y-8665858D01*
X13555858Y-8694142D01*
X13584142Y-8694142D01*
X13674142Y-9614142D02*
X13674142Y-9585858D01*
X13645858Y-9585858D01*
X13645858Y-9614142D01*
X13674142Y-9614142D01*
X13934142Y-11384142D02*
X13934142Y-11355858D01*
X13905858Y-11355858D01*
X13905858Y-11384142D01*
X13934142Y-11384142D01*
X13934142Y-11494142D02*
X13934142Y-11465858D01*
X13905858Y-11465858D01*
X13905858Y-11494142D01*
X13934142Y-11494142D01*
X14054142Y-8704142D02*
X14054142Y-8675858D01*
X14025858Y-8675858D01*
X14025858Y-8704142D01*
X14054142Y-8704142D01*
X14144142Y-8494142D02*
X14144142Y-8465858D01*
X14115858Y-8465858D01*
X14115858Y-8494142D01*
X14144142Y-8494142D01*
X14144142Y-9174142D02*
X14144142Y-9145858D01*
X14115858Y-9145858D01*
X14115858Y-9174142D01*
X14144142Y-9174142D01*
X14323642Y-10466642D02*
X14323642Y-10438358D01*
X14295358Y-10438358D01*
X14295358Y-10466642D01*
X14323642Y-10466642D01*
X14573142Y-11106142D02*
X14573142Y-11077858D01*
X14544858Y-11077858D01*
X14544858Y-11106142D01*
X14573142Y-11106142D01*
X14658642Y-10351642D02*
X14658642Y-10323358D01*
X14630358Y-10323358D01*
X14630358Y-10351642D01*
X14658642Y-10351642D01*
X14658642Y-10596642D02*
X14658642Y-10568358D01*
X14630358Y-10568358D01*
X14630358Y-10596642D01*
X14658642Y-10596642D01*
X14658642Y-10856642D02*
X14658642Y-10828358D01*
X14630358Y-10828358D01*
X14630358Y-10856642D01*
X14658642Y-10856642D01*
X14889142Y-12369142D02*
X14889142Y-12340858D01*
X14860858Y-12340858D01*
X14860858Y-12369142D01*
X14889142Y-12369142D01*
X14948642Y-10471642D02*
X14948642Y-10443358D01*
X14920358Y-10443358D01*
X14920358Y-10471642D01*
X14948642Y-10471642D01*
X14948642Y-10726642D02*
X14948642Y-10698358D01*
X14920358Y-10698358D01*
X14920358Y-10726642D01*
X14948642Y-10726642D01*
X14974142Y-10976642D02*
X14974142Y-10948358D01*
X14945858Y-10948358D01*
X14945858Y-10976642D01*
X14974142Y-10976642D01*
X15074142Y-10344142D02*
X15074142Y-10315858D01*
X15045858Y-10315858D01*
X15045858Y-10344142D01*
X15074142Y-10344142D01*
X15084142Y-11704142D02*
X15084142Y-11675858D01*
X15055858Y-11675858D01*
X15055858Y-11704142D01*
X15084142Y-11704142D01*
X15089142Y-12779142D02*
X15089142Y-12750858D01*
X15060858Y-12750858D01*
X15060858Y-12779142D01*
X15089142Y-12779142D01*
X15174142Y-7634142D02*
X15174142Y-7605858D01*
X15145858Y-7605858D01*
X15145858Y-7634142D01*
X15174142Y-7634142D01*
X15284142Y-12099142D02*
X15284142Y-12070858D01*
X15255858Y-12070858D01*
X15255858Y-12099142D01*
X15284142Y-12099142D01*
X15374142Y-8494142D02*
X15374142Y-8465858D01*
X15345858Y-8465858D01*
X15345858Y-8494142D01*
X15374142Y-8494142D01*
X15434142Y-9484142D02*
X15434142Y-9455858D01*
X15405858Y-9455858D01*
X15405858Y-9484142D01*
X15434142Y-9484142D01*
X15526142Y-10284142D02*
X15526142Y-10255858D01*
X15497858Y-10255858D01*
X15497858Y-10284142D01*
X15526142Y-10284142D01*
X15528642Y-10981642D02*
X15528642Y-10953358D01*
X15500358Y-10953358D01*
X15500358Y-10981642D01*
X15528642Y-10981642D01*
X15604142Y-8739142D02*
X15604142Y-8710858D01*
X15575858Y-8710858D01*
X15575858Y-8739142D01*
X15604142Y-8739142D01*
X15724142Y-10684142D02*
X15724142Y-10655858D01*
X15695858Y-10655858D01*
X15695858Y-10684142D01*
X15724142Y-10684142D01*
X15754142Y-12494142D02*
X15754142Y-12465858D01*
X15725858Y-12465858D01*
X15725858Y-12494142D01*
X15754142Y-12494142D01*
X15834142Y-10174142D02*
X15834142Y-10145858D01*
X15805858Y-10145858D01*
X15805858Y-10174142D01*
X15834142Y-10174142D01*
X16024142Y-10954142D02*
X16024142Y-10925858D01*
X15995858Y-10925858D01*
X15995858Y-10954142D01*
X16024142Y-10954142D01*
X16044142Y-10224142D02*
X16044142Y-10195858D01*
X16015858Y-10195858D01*
X16015858Y-10224142D01*
X16044142Y-10224142D01*
X16064142Y-8694142D02*
X16064142Y-8665858D01*
X16035858Y-8665858D01*
X16035858Y-8694142D01*
X16064142Y-8694142D01*
X16064142Y-9714142D02*
X16064142Y-9685858D01*
X16035858Y-9685858D01*
X16035858Y-9714142D01*
X16064142Y-9714142D01*
X16094142Y-10404142D02*
X16094142Y-10375858D01*
X16065858Y-10375858D01*
X16065858Y-10404142D01*
X16094142Y-10404142D01*
X16134142Y-11024142D02*
X16134142Y-10995858D01*
X16105858Y-10995858D01*
X16105858Y-11024142D01*
X16134142Y-11024142D01*
X16187892Y-12794142D02*
X16187892Y-12765858D01*
X16159608Y-12765858D01*
X16159608Y-12794142D01*
X16187892Y-12794142D01*
X16444142Y-12494142D02*
X16444142Y-12465858D01*
X16415858Y-12465858D01*
X16415858Y-12494142D01*
X16444142Y-12494142D01*
X16454142Y-11404142D02*
X16454142Y-11375858D01*
X16425858Y-11375858D01*
X16425858Y-11404142D01*
X16454142Y-11404142D01*
X16534142Y-8704142D02*
X16534142Y-8675858D01*
X16505858Y-8675858D01*
X16505858Y-8704142D01*
X16534142Y-8704142D01*
X16624142Y-8494142D02*
X16624142Y-8465858D01*
X16595858Y-8465858D01*
X16595858Y-8494142D01*
X16624142Y-8494142D01*
X16636642Y-12261642D02*
X16636642Y-12233358D01*
X16608358Y-12233358D01*
X16608358Y-12261642D01*
X16636642Y-12261642D01*
X16639142Y-11669142D02*
X16639142Y-11640858D01*
X16610858Y-11640858D01*
X16610858Y-11669142D01*
X16639142Y-11669142D01*
X16794142Y-9834142D02*
X16794142Y-9805858D01*
X16765858Y-9805858D01*
X16765858Y-9834142D01*
X16794142Y-9834142D01*
X16821363Y-10074142D02*
X16821363Y-10045858D01*
X16793079Y-10045858D01*
X16793079Y-10074142D01*
X16821363Y-10074142D01*
X16835372Y-11312912D02*
X16835372Y-11284628D01*
X16807088Y-11284628D01*
X16807088Y-11312912D01*
X16835372Y-11312912D01*
X16874142Y-12634142D02*
X16874142Y-12605858D01*
X16845858Y-12605858D01*
X16845858Y-12634142D01*
X16874142Y-12634142D01*
X16877892Y-12785392D02*
X16877892Y-12757108D01*
X16849608Y-12757108D01*
X16849608Y-12785392D01*
X16877892Y-12785392D01*
X17104142Y-9634142D02*
X17104142Y-9605858D01*
X17075858Y-9605858D01*
X17075858Y-9634142D01*
X17104142Y-9634142D01*
X17164142Y-12494142D02*
X17164142Y-12465858D01*
X17135858Y-12465858D01*
X17135858Y-12494142D01*
X17164142Y-12494142D01*
X17214142Y-11424142D02*
X17214142Y-11395858D01*
X17185858Y-11395858D01*
X17185858Y-11424142D01*
X17214142Y-11424142D01*
X17504142Y-8604142D02*
X17504142Y-8575858D01*
X17475858Y-8575858D01*
X17475858Y-8604142D01*
X17504142Y-8604142D01*
X17509142Y-11629142D02*
X17509142Y-11600858D01*
X17480858Y-11600858D01*
X17480858Y-11629142D01*
X17509142Y-11629142D01*
X17579142Y-12634142D02*
X17579142Y-12605858D01*
X17550858Y-12605858D01*
X17550858Y-12634142D01*
X17579142Y-12634142D01*
X17582892Y-12780392D02*
X17582892Y-12752108D01*
X17554608Y-12752108D01*
X17554608Y-12780392D01*
X17582892Y-12780392D01*
X17664142Y-7634142D02*
X17664142Y-7605858D01*
X17635858Y-7605858D01*
X17635858Y-7634142D01*
X17664142Y-7634142D01*
X17704142Y-8404142D02*
X17704142Y-8375858D01*
X17675858Y-8375858D01*
X17675858Y-8404142D01*
X17704142Y-8404142D01*
X17845392Y-12524142D02*
X17845392Y-12495858D01*
X17817108Y-12495858D01*
X17817108Y-12524142D01*
X17845392Y-12524142D01*
X17859142Y-11189142D02*
X17859142Y-11160858D01*
X17830858Y-11160858D01*
X17830858Y-11189142D01*
X17859142Y-11189142D01*
X17864142Y-8494142D02*
X17864142Y-8465858D01*
X17835858Y-8465858D01*
X17835858Y-8494142D01*
X17864142Y-8494142D01*
X18064142Y-11539142D02*
X18064142Y-11510858D01*
X18035858Y-11510858D01*
X18035858Y-11539142D01*
X18064142Y-11539142D01*
X18094142Y-8739142D02*
X18094142Y-8710858D01*
X18065858Y-8710858D01*
X18065858Y-8739142D01*
X18094142Y-8739142D01*
X18244142Y-12434142D02*
X18244142Y-12405858D01*
X18215858Y-12405858D01*
X18215858Y-12434142D01*
X18244142Y-12434142D01*
X18274142Y-9204142D02*
X18274142Y-9175858D01*
X18245858Y-9175858D01*
X18245858Y-9204142D01*
X18274142Y-9204142D01*
X18324142Y-8934142D02*
X18324142Y-8905858D01*
X18295858Y-8905858D01*
X18295858Y-8934142D01*
X18324142Y-8934142D01*
X18384142Y-10524142D02*
X18384142Y-10495858D01*
X18355858Y-10495858D01*
X18355858Y-10524142D01*
X18384142Y-10524142D01*
X18404142Y-9324142D02*
X18404142Y-9295858D01*
X18375858Y-9295858D01*
X18375858Y-9324142D01*
X18404142Y-9324142D01*
X18464142Y-11194142D02*
X18464142Y-11165858D01*
X18435858Y-11165858D01*
X18435858Y-11194142D01*
X18464142Y-11194142D01*
X18464142Y-11424142D02*
X18464142Y-11395858D01*
X18435858Y-11395858D01*
X18435858Y-11424142D01*
X18464142Y-11424142D01*
X18534142Y-9504142D02*
X18534142Y-9475858D01*
X18505858Y-9475858D01*
X18505858Y-9504142D01*
X18534142Y-9504142D01*
X18544142Y-9144142D02*
X18544142Y-9115858D01*
X18515858Y-9115858D01*
X18515858Y-9144142D01*
X18544142Y-9144142D01*
X18554142Y-8697892D02*
X18554142Y-8669608D01*
X18525858Y-8669608D01*
X18525858Y-8697892D01*
X18554142Y-8697892D01*
X18724142Y-9844142D02*
X18724142Y-9815858D01*
X18695858Y-9815858D01*
X18695858Y-9844142D01*
X18724142Y-9844142D01*
X18724142Y-9964142D02*
X18724142Y-9935858D01*
X18695858Y-9935858D01*
X18695858Y-9964142D01*
X18724142Y-9964142D01*
X18724142Y-10084142D02*
X18724142Y-10055858D01*
X18695858Y-10055858D01*
X18695858Y-10084142D01*
X18724142Y-10084142D01*
X18914142Y-10804142D02*
X18914142Y-10775858D01*
X18885858Y-10775858D01*
X18885858Y-10804142D01*
X18914142Y-10804142D01*
X18964142Y-12364142D02*
X18964142Y-12335858D01*
X18935858Y-12335858D01*
X18935858Y-12364142D01*
X18964142Y-12364142D01*
X18984142Y-10884142D02*
X18984142Y-10855858D01*
X18955858Y-10855858D01*
X18955858Y-10884142D01*
X18984142Y-10884142D01*
X19024142Y-8704142D02*
X19024142Y-8675858D01*
X18995858Y-8675858D01*
X18995858Y-8704142D01*
X19024142Y-8704142D01*
X19084142Y-9834142D02*
X19084142Y-9805858D01*
X19055858Y-9805858D01*
X19055858Y-9834142D01*
X19084142Y-9834142D01*
X19114142Y-8494142D02*
X19114142Y-8465858D01*
X19085858Y-8465858D01*
X19085858Y-8494142D01*
X19114142Y-8494142D01*
X19174142Y-9954142D02*
X19174142Y-9925858D01*
X19145858Y-9925858D01*
X19145858Y-9954142D01*
X19174142Y-9954142D01*
X19234142Y-9444142D02*
X19234142Y-9415858D01*
X19205858Y-9415858D01*
X19205858Y-9444142D01*
X19234142Y-9444142D01*
X19284142Y-9824142D02*
X19284142Y-9795858D01*
X19255858Y-9795858D01*
X19255858Y-9824142D01*
X19284142Y-9824142D01*
X19324142Y-9344142D02*
X19324142Y-9315858D01*
X19295858Y-9315858D01*
X19295858Y-9344142D01*
X19324142Y-9344142D01*
X19334142Y-12744142D02*
X19334142Y-12715858D01*
X19305858Y-12715858D01*
X19305858Y-12744142D01*
X19334142Y-12744142D01*
X19494142Y-12264142D02*
X19494142Y-12235858D01*
X19465858Y-12235858D01*
X19465858Y-12264142D01*
X19494142Y-12264142D01*
X19829142Y-9139142D02*
X19829142Y-9110858D01*
X19800858Y-9110858D01*
X19800858Y-9139142D01*
X19829142Y-9139142D01*
D16*
X15305000Y-12595000D02*
X15330000Y-12570000D01*
X15305000Y-12545000D01*
X15280000Y-12570000D01*
X15305000Y-12595000D01*
X15495000Y-11885000D02*
X15520000Y-11860000D01*
X15495000Y-11835000D01*
X15470000Y-11860000D01*
X15495000Y-11885000D01*
X17400000Y-11285000D02*
X17425000Y-11260000D01*
X17400000Y-11235000D01*
X17375000Y-11260000D01*
X17400000Y-11285000D01*
D17*
X10600000Y-10000000D02*
X10660000Y-10060000D01*
X10660000Y-10000000D02*
X10600000Y-10060000D01*
X10660000Y-10030000D02*
G75*
G03*
X10660000Y-10030000I-30000J0D01*
G01*
D18*
X19606900Y-9035980D02*
X19672940Y-9102020D01*
X19672940Y-9035980D02*
X19606900Y-9102020D01*
X19639920Y-9035980D02*
X19639920Y-9102020D01*
X19606900Y-9069000D02*
X19672940Y-9069000D01*
X19606900Y-9613980D02*
X19672940Y-9680020D01*
X19672940Y-9613980D02*
X19606900Y-9680020D01*
X19639920Y-9613980D02*
X19639920Y-9680020D01*
X19606900Y-9647000D02*
X19672940Y-9647000D01*
D19*
X10081000Y-12181000D02*
X10159000Y-12259000D01*
X10159000Y-12181000D02*
X10081000Y-12259000D01*
X10147577Y-12247577D02*
X10147577Y-12192423D01*
X10092423Y-12192423D01*
X10092423Y-12247577D01*
X10147577Y-12247577D01*
X10451000Y-12181000D02*
X10529000Y-12259000D01*
X10529000Y-12181000D02*
X10451000Y-12259000D01*
X10517577Y-12247577D02*
X10517577Y-12192423D01*
X10462423Y-12192423D01*
X10462423Y-12247577D01*
X10517577Y-12247577D01*
X10881000Y-12181000D02*
X10959000Y-12259000D01*
X10959000Y-12181000D02*
X10881000Y-12259000D01*
X10947577Y-12247577D02*
X10947577Y-12192423D01*
X10892423Y-12192423D01*
X10892423Y-12247577D01*
X10947577Y-12247577D01*
X11251000Y-12181000D02*
X11329000Y-12259000D01*
X11329000Y-12181000D02*
X11251000Y-12259000D01*
X11317577Y-12247577D02*
X11317577Y-12192423D01*
X11262423Y-12192423D01*
X11262423Y-12247577D01*
X11317577Y-12247577D01*
D20*
X12067500Y-11932500D02*
X12147500Y-12012500D01*
X12147500Y-11932500D02*
X12067500Y-12012500D01*
X12107500Y-12012500D02*
X12147500Y-11972500D01*
X12107500Y-11932500D01*
X12067500Y-11972500D01*
X12107500Y-12012500D01*
X13410000Y-11932000D02*
X13490000Y-12012000D01*
X13490000Y-11932000D02*
X13410000Y-12012000D01*
X13450000Y-12012000D02*
X13490000Y-11972000D01*
X13450000Y-11932000D01*
X13410000Y-11972000D01*
X13450000Y-12012000D01*
X12101762Y-7747500D02*
X12101762Y-7827500D01*
X12061762Y-7787500D02*
X12141762Y-7787500D01*
X12141762Y-7787500D02*
G75*
G03*
X12141762Y-7787500I-40000J0D01*
G01*
X12215000Y-11024735D02*
X12215000Y-11104735D01*
X12175000Y-11064735D02*
X12255000Y-11064735D01*
X12255000Y-11064735D02*
G75*
G03*
X12255000Y-11064735I-40000J0D01*
G01*
X12215000Y-11374735D02*
X12215000Y-11454735D01*
X12175000Y-11414735D02*
X12255000Y-11414735D01*
X12255000Y-11414735D02*
G75*
G03*
X12255000Y-11414735I-40000J0D01*
G01*
X12351762Y-7747500D02*
X12351762Y-7827500D01*
X12311762Y-7787500D02*
X12391762Y-7787500D01*
X12391762Y-7787500D02*
G75*
G03*
X12391762Y-7787500I-40000J0D01*
G01*
X14611762Y-7746841D02*
X14611762Y-7826841D01*
X14571762Y-7786841D02*
X14651762Y-7786841D01*
X14651762Y-7786841D02*
G75*
G03*
X14651762Y-7786841I-40000J0D01*
G01*
X14861762Y-7746841D02*
X14861762Y-7826841D01*
X14821762Y-7786841D02*
X14901762Y-7786841D01*
X14901762Y-7786841D02*
G75*
G03*
X14901762Y-7786841I-40000J0D01*
G01*
X17092500Y-7747500D02*
X17092500Y-7827500D01*
X17052500Y-7787500D02*
X17132500Y-7787500D01*
X17132500Y-7787500D02*
G75*
G03*
X17132500Y-7787500I-40000J0D01*
G01*
X17342500Y-7747500D02*
X17342500Y-7827500D01*
X17302500Y-7787500D02*
X17382500Y-7787500D01*
X17382500Y-7787500D02*
G75*
G03*
X17382500Y-7787500I-40000J0D01*
G01*
X19614002Y-7747341D02*
X19614002Y-7827341D01*
X19574002Y-7787341D02*
X19654002Y-7787341D01*
X19654002Y-7787341D02*
G75*
G03*
X19654002Y-7787341I-40000J0D01*
G01*
X19864002Y-7747341D02*
X19864002Y-7827341D01*
X19824002Y-7787341D02*
X19904002Y-7787341D01*
X19904002Y-7787341D02*
G75*
G03*
X19904002Y-7787341I-40000J0D01*
G01*
D21*
X10921088Y-6935588D02*
X10921088Y-6868412D01*
X10853912Y-6868412D01*
X10853912Y-6935588D01*
X10921088Y-6935588D01*
X10935000Y-6902000D02*
G75*
G03*
X10935000Y-6902000I-47500J0D01*
G01*
X11171088Y-6935588D02*
X11171088Y-6868412D01*
X11103912Y-6868412D01*
X11103912Y-6935588D01*
X11171088Y-6935588D01*
X11185000Y-6902000D02*
G75*
G03*
X11185000Y-6902000I-47500J0D01*
G01*
X11421088Y-6935588D02*
X11421088Y-6868412D01*
X11353912Y-6868412D01*
X11353912Y-6935588D01*
X11421088Y-6935588D01*
X11435000Y-6902000D02*
G75*
G03*
X11435000Y-6902000I-47500J0D01*
G01*
X11671088Y-6935588D02*
X11671088Y-6868412D01*
X11603912Y-6868412D01*
X11603912Y-6935588D01*
X11671088Y-6935588D01*
X11685000Y-6902000D02*
G75*
G03*
X11685000Y-6902000I-47500J0D01*
G01*
X12841088Y-6935588D02*
X12841088Y-6868412D01*
X12773912Y-6868412D01*
X12773912Y-6935588D01*
X12841088Y-6935588D01*
X12855000Y-6902000D02*
G75*
G03*
X12855000Y-6902000I-47500J0D01*
G01*
X13091088Y-6935588D02*
X13091088Y-6868412D01*
X13023912Y-6868412D01*
X13023912Y-6935588D01*
X13091088Y-6935588D01*
X13105000Y-6902000D02*
G75*
G03*
X13105000Y-6902000I-47500J0D01*
G01*
X13341088Y-6935588D02*
X13341088Y-6868412D01*
X13273912Y-6868412D01*
X13273912Y-6935588D01*
X13341088Y-6935588D01*
X13355000Y-6902000D02*
G75*
G03*
X13355000Y-6902000I-47500J0D01*
G01*
X13591088Y-6935588D02*
X13591088Y-6868412D01*
X13523912Y-6868412D01*
X13523912Y-6935588D01*
X13591088Y-6935588D01*
X13605000Y-6902000D02*
G75*
G03*
X13605000Y-6902000I-47500J0D01*
G01*
X14286088Y-6935588D02*
X14286088Y-6868412D01*
X14218912Y-6868412D01*
X14218912Y-6935588D01*
X14286088Y-6935588D01*
X14300000Y-6902000D02*
G75*
G03*
X14300000Y-6902000I-47500J0D01*
G01*
X14536088Y-6935588D02*
X14536088Y-6868412D01*
X14468912Y-6868412D01*
X14468912Y-6935588D01*
X14536088Y-6935588D01*
X14550000Y-6902000D02*
G75*
G03*
X14550000Y-6902000I-47500J0D01*
G01*
X14786088Y-6935588D02*
X14786088Y-6868412D01*
X14718912Y-6868412D01*
X14718912Y-6935588D01*
X14786088Y-6935588D01*
X14800000Y-6902000D02*
G75*
G03*
X14800000Y-6902000I-47500J0D01*
G01*
X15036088Y-6935588D02*
X15036088Y-6868412D01*
X14968912Y-6868412D01*
X14968912Y-6935588D01*
X15036088Y-6935588D01*
X15050000Y-6902000D02*
G75*
G03*
X15050000Y-6902000I-47500J0D01*
G01*
X15706088Y-6935588D02*
X15706088Y-6868412D01*
X15638912Y-6868412D01*
X15638912Y-6935588D01*
X15706088Y-6935588D01*
X15720000Y-6902000D02*
G75*
G03*
X15720000Y-6902000I-47500J0D01*
G01*
X15956088Y-6935588D02*
X15956088Y-6868412D01*
X15888912Y-6868412D01*
X15888912Y-6935588D01*
X15956088Y-6935588D01*
X15970000Y-6902000D02*
G75*
G03*
X15970000Y-6902000I-47500J0D01*
G01*
X16206088Y-6935588D02*
X16206088Y-6868412D01*
X16138912Y-6868412D01*
X16138912Y-6935588D01*
X16206088Y-6935588D01*
X16220000Y-6902000D02*
G75*
G03*
X16220000Y-6902000I-47500J0D01*
G01*
X16456088Y-6935588D02*
X16456088Y-6868412D01*
X16388912Y-6868412D01*
X16388912Y-6935588D01*
X16456088Y-6935588D01*
X16470000Y-6902000D02*
G75*
G03*
X16470000Y-6902000I-47500J0D01*
G01*
X17161088Y-6935588D02*
X17161088Y-6868412D01*
X17093912Y-6868412D01*
X17093912Y-6935588D01*
X17161088Y-6935588D01*
X17175000Y-6902000D02*
G75*
G03*
X17175000Y-6902000I-47500J0D01*
G01*
X17411088Y-6935588D02*
X17411088Y-6868412D01*
X17343912Y-6868412D01*
X17343912Y-6935588D01*
X17411088Y-6935588D01*
X17425000Y-6902000D02*
G75*
G03*
X17425000Y-6902000I-47500J0D01*
G01*
X17661088Y-6935588D02*
X17661088Y-6868412D01*
X17593912Y-6868412D01*
X17593912Y-6935588D01*
X17661088Y-6935588D01*
X17675000Y-6902000D02*
G75*
G03*
X17675000Y-6902000I-47500J0D01*
G01*
X17794848Y-12034078D02*
X17794848Y-11966902D01*
X17727672Y-11966902D01*
X17727672Y-12034078D01*
X17794848Y-12034078D01*
X17808760Y-12000490D02*
G75*
G03*
X17808760Y-12000490I-47500J0D01*
G01*
X17911088Y-6935588D02*
X17911088Y-6868412D01*
X17843912Y-6868412D01*
X17843912Y-6935588D01*
X17911088Y-6935588D01*
X17925000Y-6902000D02*
G75*
G03*
X17925000Y-6902000I-47500J0D01*
G01*
X18044848Y-12034078D02*
X18044848Y-11966902D01*
X17977672Y-11966902D01*
X17977672Y-12034078D01*
X18044848Y-12034078D01*
X18058760Y-12000490D02*
G75*
G03*
X18058760Y-12000490I-47500J0D01*
G01*
X18294848Y-12034078D02*
X18294848Y-11966902D01*
X18227672Y-11966902D01*
X18227672Y-12034078D01*
X18294848Y-12034078D01*
X18308760Y-12000490D02*
G75*
G03*
X18308760Y-12000490I-47500J0D01*
G01*
X18885588Y-11839088D02*
X18885588Y-11771912D01*
X18818412Y-11771912D01*
X18818412Y-11839088D01*
X18885588Y-11839088D01*
X18899500Y-11805500D02*
G75*
G03*
X18899500Y-11805500I-47500J0D01*
G01*
X19135588Y-11839088D02*
X19135588Y-11771912D01*
X19068412Y-11771912D01*
X19068412Y-11839088D01*
X19135588Y-11839088D01*
X19149500Y-11805500D02*
G75*
G03*
X19149500Y-11805500I-47500J0D01*
G01*
X19385588Y-11839088D02*
X19385588Y-11771912D01*
X19318412Y-11771912D01*
X19318412Y-11839088D01*
X19385588Y-11839088D01*
X19399500Y-11805500D02*
G75*
G03*
X19399500Y-11805500I-47500J0D01*
G01*
X19635588Y-11839088D02*
X19635588Y-11771912D01*
X19568412Y-11771912D01*
X19568412Y-11839088D01*
X19635588Y-11839088D01*
X19649500Y-11805500D02*
G75*
G03*
X19649500Y-11805500I-47500J0D01*
G01*
X19885588Y-11839088D02*
X19885588Y-11771912D01*
X19818412Y-11771912D01*
X19818412Y-11839088D01*
X19885588Y-11839088D01*
X19899500Y-11805500D02*
G75*
G03*
X19899500Y-11805500I-47500J0D01*
G01*
D22*
X12087500Y-8345000D02*
X12137500Y-8295000D01*
X12087500Y-8245000D01*
X12037500Y-8295000D01*
X12087500Y-8345000D01*
X12137500Y-8295000D02*
G75*
G03*
X12137500Y-8295000I-50000J0D01*
G01*
X12341500Y-8345000D02*
X12391500Y-8295000D01*
X12341500Y-8245000D01*
X12291500Y-8295000D01*
X12341500Y-8345000D01*
X12391500Y-8295000D02*
G75*
G03*
X12391500Y-8295000I-50000J0D01*
G01*
X14595000Y-8344341D02*
X14645000Y-8294341D01*
X14595000Y-8244341D01*
X14545000Y-8294341D01*
X14595000Y-8344341D01*
X14645000Y-8294341D02*
G75*
G03*
X14645000Y-8294341I-50000J0D01*
G01*
X14849000Y-8344341D02*
X14899000Y-8294341D01*
X14849000Y-8244341D01*
X14799000Y-8294341D01*
X14849000Y-8344341D01*
X14899000Y-8294341D02*
G75*
G03*
X14899000Y-8294341I-50000J0D01*
G01*
X14992000Y-13424500D02*
X15042000Y-13374500D01*
X14992000Y-13324500D01*
X14942000Y-13374500D01*
X14992000Y-13424500D01*
X15042000Y-13374500D02*
G75*
G03*
X15042000Y-13374500I-50000J0D01*
G01*
X15242000Y-13424500D02*
X15292000Y-13374500D01*
X15242000Y-13324500D01*
X15192000Y-13374500D01*
X15242000Y-13424500D01*
X15292000Y-13374500D02*
G75*
G03*
X15292000Y-13374500I-50000J0D01*
G01*
X15832052Y-13424488D02*
X15882052Y-13374488D01*
X15832052Y-13324488D01*
X15782052Y-13374488D01*
X15832052Y-13424488D01*
X15882052Y-13374488D02*
G75*
G03*
X15882052Y-13374488I-50000J0D01*
G01*
X16080000Y-12047500D02*
X16130000Y-11997500D01*
X16080000Y-11947500D01*
X16030000Y-11997500D01*
X16080000Y-12047500D01*
X16130000Y-11997500D02*
G75*
G03*
X16130000Y-11997500I-50000J0D01*
G01*
X16082052Y-13424488D02*
X16132052Y-13374488D01*
X16082052Y-13324488D01*
X16032052Y-13374488D01*
X16082052Y-13424488D01*
X16132052Y-13374488D02*
G75*
G03*
X16132052Y-13374488I-50000J0D01*
G01*
X16330000Y-12047500D02*
X16380000Y-11997500D01*
X16330000Y-11947500D01*
X16280000Y-11997500D01*
X16330000Y-12047500D01*
X16380000Y-11997500D02*
G75*
G03*
X16380000Y-11997500I-50000J0D01*
G01*
X16672104Y-13424492D02*
X16722104Y-13374492D01*
X16672104Y-13324492D01*
X16622104Y-13374492D01*
X16672104Y-13424492D01*
X16722104Y-13374492D02*
G75*
G03*
X16722104Y-13374492I-50000J0D01*
G01*
X16920260Y-12050480D02*
X16970260Y-12000480D01*
X16920260Y-11950480D01*
X16870260Y-12000480D01*
X16920260Y-12050480D01*
X16970260Y-12000480D02*
G75*
G03*
X16970260Y-12000480I-50000J0D01*
G01*
X16922104Y-13424492D02*
X16972104Y-13374492D01*
X16922104Y-13324492D01*
X16872104Y-13374492D01*
X16922104Y-13424492D01*
X16972104Y-13374492D02*
G75*
G03*
X16972104Y-13374492I-50000J0D01*
G01*
X17077500Y-8345000D02*
X17127500Y-8295000D01*
X17077500Y-8245000D01*
X17027500Y-8295000D01*
X17077500Y-8345000D01*
X17127500Y-8295000D02*
G75*
G03*
X17127500Y-8295000I-50000J0D01*
G01*
X17170260Y-12050480D02*
X17220260Y-12000480D01*
X17170260Y-11950480D01*
X17120260Y-12000480D01*
X17170260Y-12050480D01*
X17220260Y-12000480D02*
G75*
G03*
X17220260Y-12000480I-50000J0D01*
G01*
X17331500Y-8345000D02*
X17381500Y-8295000D01*
X17331500Y-8245000D01*
X17281500Y-8295000D01*
X17331500Y-8345000D01*
X17381500Y-8295000D02*
G75*
G03*
X17381500Y-8295000I-50000J0D01*
G01*
X17512156Y-13424496D02*
X17562156Y-13374496D01*
X17512156Y-13324496D01*
X17462156Y-13374496D01*
X17512156Y-13424496D01*
X17562156Y-13374496D02*
G75*
G03*
X17562156Y-13374496I-50000J0D01*
G01*
X17762156Y-13424496D02*
X17812156Y-13374496D01*
X17762156Y-13324496D01*
X17712156Y-13374496D01*
X17762156Y-13424496D01*
X17812156Y-13374496D02*
G75*
G03*
X17812156Y-13374496I-50000J0D01*
G01*
X18352208Y-13424480D02*
X18402208Y-13374480D01*
X18352208Y-13324480D01*
X18302208Y-13374480D01*
X18352208Y-13424480D01*
X18402208Y-13374480D02*
G75*
G03*
X18402208Y-13374480I-50000J0D01*
G01*
X18602208Y-13424480D02*
X18652208Y-13374480D01*
X18602208Y-13324480D01*
X18552208Y-13374480D01*
X18602208Y-13424480D01*
X18652208Y-13374480D02*
G75*
G03*
X18652208Y-13374480I-50000J0D01*
G01*
X18710000Y-10327500D02*
X18760000Y-10277500D01*
X18710000Y-10227500D01*
X18660000Y-10277500D01*
X18710000Y-10327500D01*
X18760000Y-10277500D02*
G75*
G03*
X18760000Y-10277500I-50000J0D01*
G01*
X18710000Y-10581500D02*
X18760000Y-10531500D01*
X18710000Y-10481500D01*
X18660000Y-10531500D01*
X18710000Y-10581500D01*
X18760000Y-10531500D02*
G75*
G03*
X18760000Y-10531500I-50000J0D01*
G01*
X19192260Y-13424484D02*
X19242260Y-13374484D01*
X19192260Y-13324484D01*
X19142260Y-13374484D01*
X19192260Y-13424484D01*
X19242260Y-13374484D02*
G75*
G03*
X19242260Y-13374484I-50000J0D01*
G01*
X19442260Y-13424484D02*
X19492260Y-13374484D01*
X19442260Y-13324484D01*
X19392260Y-13374484D01*
X19442260Y-13424484D01*
X19492260Y-13374484D02*
G75*
G03*
X19492260Y-13374484I-50000J0D01*
G01*
X19585000Y-8344841D02*
X19635000Y-8294841D01*
X19585000Y-8244841D01*
X19535000Y-8294841D01*
X19585000Y-8344841D01*
X19635000Y-8294841D02*
G75*
G03*
X19635000Y-8294841I-50000J0D01*
G01*
X19633500Y-10300000D02*
X19683500Y-10250000D01*
X19633500Y-10200000D01*
X19583500Y-10250000D01*
X19633500Y-10300000D01*
X19683500Y-10250000D02*
G75*
G03*
X19683500Y-10250000I-50000J0D01*
G01*
X19633500Y-10590000D02*
X19683500Y-10540000D01*
X19633500Y-10490000D01*
X19583500Y-10540000D01*
X19633500Y-10590000D01*
X19683500Y-10540000D02*
G75*
G03*
X19683500Y-10540000I-50000J0D01*
G01*
X19633500Y-10880000D02*
X19683500Y-10830000D01*
X19633500Y-10780000D01*
X19583500Y-10830000D01*
X19633500Y-10880000D01*
X19683500Y-10830000D02*
G75*
G03*
X19683500Y-10830000I-50000J0D01*
G01*
X19803500Y-12910000D02*
X19853500Y-12860000D01*
X19803500Y-12810000D01*
X19753500Y-12860000D01*
X19803500Y-12910000D01*
X19853500Y-12860000D02*
G75*
G03*
X19853500Y-12860000I-50000J0D01*
G01*
X19839000Y-8344841D02*
X19889000Y-8294841D01*
X19839000Y-8244841D01*
X19789000Y-8294841D01*
X19839000Y-8344841D01*
X19889000Y-8294841D02*
G75*
G03*
X19889000Y-8294841I-50000J0D01*
G01*
X19887500Y-10300000D02*
X19937500Y-10250000D01*
X19887500Y-10200000D01*
X19837500Y-10250000D01*
X19887500Y-10300000D01*
X19937500Y-10250000D02*
G75*
G03*
X19937500Y-10250000I-50000J0D01*
G01*
X19887500Y-10590000D02*
X19937500Y-10540000D01*
X19887500Y-10490000D01*
X19837500Y-10540000D01*
X19887500Y-10590000D01*
X19937500Y-10540000D02*
G75*
G03*
X19937500Y-10540000I-50000J0D01*
G01*
X19887500Y-10880000D02*
X19937500Y-10830000D01*
X19887500Y-10780000D01*
X19837500Y-10830000D01*
X19887500Y-10880000D01*
X19937500Y-10830000D02*
G75*
G03*
X19937500Y-10830000I-50000J0D01*
G01*
X20057500Y-12910000D02*
X20107500Y-12860000D01*
X20057500Y-12810000D01*
X20007500Y-12860000D01*
X20057500Y-12910000D01*
X20107500Y-12860000D02*
G75*
G03*
X20107500Y-12860000I-50000J0D01*
G01*
D23*
X16316000Y-9015200D02*
X16316000Y-9116800D01*
X16265200Y-9066000D02*
X16366800Y-9066000D01*
X16351921Y-9101921D02*
X16351921Y-9030079D01*
X16280079Y-9030079D01*
X16280079Y-9101921D01*
X16351921Y-9101921D01*
X16316000Y-9269200D02*
X16316000Y-9370800D01*
X16265200Y-9320000D02*
X16366800Y-9320000D01*
X16351921Y-9355921D02*
X16351921Y-9284079D01*
X16280079Y-9284079D01*
X16280079Y-9355921D01*
X16351921Y-9355921D01*
X16316000Y-9523200D02*
X16316000Y-9624800D01*
X16265200Y-9574000D02*
X16366800Y-9574000D01*
X16351921Y-9609921D02*
X16351921Y-9538079D01*
X16280079Y-9538079D01*
X16280079Y-9609921D01*
X16351921Y-9609921D01*
X16316000Y-9777200D02*
X16316000Y-9878800D01*
X16265200Y-9828000D02*
X16366800Y-9828000D01*
X16351921Y-9863921D02*
X16351921Y-9792079D01*
X16280079Y-9792079D01*
X16280079Y-9863921D01*
X16351921Y-9863921D01*
X16316000Y-10031200D02*
X16316000Y-10132800D01*
X16265200Y-10082000D02*
X16366800Y-10082000D01*
X16351921Y-10117921D02*
X16351921Y-10046079D01*
X16280079Y-10046079D01*
X16280079Y-10117921D01*
X16351921Y-10117921D01*
X16316000Y-10285200D02*
X16316000Y-10386800D01*
X16265200Y-10336000D02*
X16366800Y-10336000D01*
X16351921Y-10371921D02*
X16351921Y-10300079D01*
X16280079Y-10300079D01*
X16280079Y-10371921D01*
X16351921Y-10371921D01*
X16316000Y-10539200D02*
X16316000Y-10640800D01*
X16265200Y-10590000D02*
X16366800Y-10590000D01*
X16351921Y-10625921D02*
X16351921Y-10554079D01*
X16280079Y-10554079D01*
X16280079Y-10625921D01*
X16351921Y-10625921D01*
X16316000Y-10793200D02*
X16316000Y-10894800D01*
X16265200Y-10844000D02*
X16366800Y-10844000D01*
X16351921Y-10879921D02*
X16351921Y-10808079D01*
X16280079Y-10808079D01*
X16280079Y-10879921D01*
X16351921Y-10879921D01*
X16570000Y-9015200D02*
X16570000Y-9116800D01*
X16519200Y-9066000D02*
X16620800Y-9066000D01*
X16605921Y-9101921D02*
X16605921Y-9030079D01*
X16534079Y-9030079D01*
X16534079Y-9101921D01*
X16605921Y-9101921D01*
X16570000Y-9269200D02*
X16570000Y-9370800D01*
X16519200Y-9320000D02*
X16620800Y-9320000D01*
X16605921Y-9355921D02*
X16605921Y-9284079D01*
X16534079Y-9284079D01*
X16534079Y-9355921D01*
X16605921Y-9355921D01*
X16570000Y-9523200D02*
X16570000Y-9624800D01*
X16519200Y-9574000D02*
X16620800Y-9574000D01*
X16605921Y-9609921D02*
X16605921Y-9538079D01*
X16534079Y-9538079D01*
X16534079Y-9609921D01*
X16605921Y-9609921D01*
X16570000Y-9777200D02*
X16570000Y-9878800D01*
X16519200Y-9828000D02*
X16620800Y-9828000D01*
X16605921Y-9863921D02*
X16605921Y-9792079D01*
X16534079Y-9792079D01*
X16534079Y-9863921D01*
X16605921Y-9863921D01*
X16570000Y-10031200D02*
X16570000Y-10132800D01*
X16519200Y-10082000D02*
X16620800Y-10082000D01*
X16605921Y-10117921D02*
X16605921Y-10046079D01*
X16534079Y-10046079D01*
X16534079Y-10117921D01*
X16605921Y-10117921D01*
X16570000Y-10285200D02*
X16570000Y-10386800D01*
X16519200Y-10336000D02*
X16620800Y-10336000D01*
X16605921Y-10371921D02*
X16605921Y-10300079D01*
X16534079Y-10300079D01*
X16534079Y-10371921D01*
X16605921Y-10371921D01*
X16570000Y-10539200D02*
X16570000Y-10640800D01*
X16519200Y-10590000D02*
X16620800Y-10590000D01*
X16605921Y-10625921D02*
X16605921Y-10554079D01*
X16534079Y-10554079D01*
X16534079Y-10625921D01*
X16605921Y-10625921D01*
X16570000Y-10793200D02*
X16570000Y-10894800D01*
X16519200Y-10844000D02*
X16620800Y-10844000D01*
X16605921Y-10879921D02*
X16605921Y-10808079D01*
X16534079Y-10808079D01*
X16534079Y-10879921D01*
X16605921Y-10879921D01*
X16824000Y-9015200D02*
X16824000Y-9116800D01*
X16773200Y-9066000D02*
X16874800Y-9066000D01*
X16859921Y-9101921D02*
X16859921Y-9030079D01*
X16788079Y-9030079D01*
X16788079Y-9101921D01*
X16859921Y-9101921D01*
X16824000Y-9269200D02*
X16824000Y-9370800D01*
X16773200Y-9320000D02*
X16874800Y-9320000D01*
X16859921Y-9355921D02*
X16859921Y-9284079D01*
X16788079Y-9284079D01*
X16788079Y-9355921D01*
X16859921Y-9355921D01*
X16824000Y-10539200D02*
X16824000Y-10640800D01*
X16773200Y-10590000D02*
X16874800Y-10590000D01*
X16859921Y-10625921D02*
X16859921Y-10554079D01*
X16788079Y-10554079D01*
X16788079Y-10625921D01*
X16859921Y-10625921D01*
X16824000Y-10793200D02*
X16824000Y-10894800D01*
X16773200Y-10844000D02*
X16874800Y-10844000D01*
X16859921Y-10879921D02*
X16859921Y-10808079D01*
X16788079Y-10808079D01*
X16788079Y-10879921D01*
X16859921Y-10879921D01*
X17078000Y-9015200D02*
X17078000Y-9116800D01*
X17027200Y-9066000D02*
X17128800Y-9066000D01*
X17113921Y-9101921D02*
X17113921Y-9030079D01*
X17042079Y-9030079D01*
X17042079Y-9101921D01*
X17113921Y-9101921D01*
X17078000Y-9269200D02*
X17078000Y-9370800D01*
X17027200Y-9320000D02*
X17128800Y-9320000D01*
X17113921Y-9355921D02*
X17113921Y-9284079D01*
X17042079Y-9284079D01*
X17042079Y-9355921D01*
X17113921Y-9355921D01*
X17078000Y-10539200D02*
X17078000Y-10640800D01*
X17027200Y-10590000D02*
X17128800Y-10590000D01*
X17113921Y-10625921D02*
X17113921Y-10554079D01*
X17042079Y-10554079D01*
X17042079Y-10625921D01*
X17113921Y-10625921D01*
X17078000Y-10793200D02*
X17078000Y-10894800D01*
X17027200Y-10844000D02*
X17128800Y-10844000D01*
X17113921Y-10879921D02*
X17113921Y-10808079D01*
X17042079Y-10808079D01*
X17042079Y-10879921D01*
X17113921Y-10879921D01*
X17332000Y-9015200D02*
X17332000Y-9116800D01*
X17281200Y-9066000D02*
X17382800Y-9066000D01*
X17367921Y-9101921D02*
X17367921Y-9030079D01*
X17296079Y-9030079D01*
X17296079Y-9101921D01*
X17367921Y-9101921D01*
X17332000Y-9269200D02*
X17332000Y-9370800D01*
X17281200Y-9320000D02*
X17382800Y-9320000D01*
X17367921Y-9355921D02*
X17367921Y-9284079D01*
X17296079Y-9284079D01*
X17296079Y-9355921D01*
X17367921Y-9355921D01*
X17332000Y-10539200D02*
X17332000Y-10640800D01*
X17281200Y-10590000D02*
X17382800Y-10590000D01*
X17367921Y-10625921D02*
X17367921Y-10554079D01*
X17296079Y-10554079D01*
X17296079Y-10625921D01*
X17367921Y-10625921D01*
X17332000Y-10793200D02*
X17332000Y-10894800D01*
X17281200Y-10844000D02*
X17382800Y-10844000D01*
X17367921Y-10879921D02*
X17367921Y-10808079D01*
X17296079Y-10808079D01*
X17296079Y-10879921D01*
X17367921Y-10879921D01*
X17586000Y-9015200D02*
X17586000Y-9116800D01*
X17535200Y-9066000D02*
X17636800Y-9066000D01*
X17621921Y-9101921D02*
X17621921Y-9030079D01*
X17550079Y-9030079D01*
X17550079Y-9101921D01*
X17621921Y-9101921D01*
X17586000Y-9269200D02*
X17586000Y-9370800D01*
X17535200Y-9320000D02*
X17636800Y-9320000D01*
X17621921Y-9355921D02*
X17621921Y-9284079D01*
X17550079Y-9284079D01*
X17550079Y-9355921D01*
X17621921Y-9355921D01*
X17586000Y-10539200D02*
X17586000Y-10640800D01*
X17535200Y-10590000D02*
X17636800Y-10590000D01*
X17621921Y-10625921D02*
X17621921Y-10554079D01*
X17550079Y-10554079D01*
X17550079Y-10625921D01*
X17621921Y-10625921D01*
X17586000Y-10793200D02*
X17586000Y-10894800D01*
X17535200Y-10844000D02*
X17636800Y-10844000D01*
X17621921Y-10879921D02*
X17621921Y-10808079D01*
X17550079Y-10808079D01*
X17550079Y-10879921D01*
X17621921Y-10879921D01*
X17840000Y-9015200D02*
X17840000Y-9116800D01*
X17789200Y-9066000D02*
X17890800Y-9066000D01*
X17875921Y-9101921D02*
X17875921Y-9030079D01*
X17804079Y-9030079D01*
X17804079Y-9101921D01*
X17875921Y-9101921D01*
X17840000Y-9269200D02*
X17840000Y-9370800D01*
X17789200Y-9320000D02*
X17890800Y-9320000D01*
X17875921Y-9355921D02*
X17875921Y-9284079D01*
X17804079Y-9284079D01*
X17804079Y-9355921D01*
X17875921Y-9355921D01*
X17840000Y-9523200D02*
X17840000Y-9624800D01*
X17789200Y-9574000D02*
X17890800Y-9574000D01*
X17875921Y-9609921D02*
X17875921Y-9538079D01*
X17804079Y-9538079D01*
X17804079Y-9609921D01*
X17875921Y-9609921D01*
X17840000Y-9777200D02*
X17840000Y-9878800D01*
X17789200Y-9828000D02*
X17890800Y-9828000D01*
X17875921Y-9863921D02*
X17875921Y-9792079D01*
X17804079Y-9792079D01*
X17804079Y-9863921D01*
X17875921Y-9863921D01*
X17840000Y-10031200D02*
X17840000Y-10132800D01*
X17789200Y-10082000D02*
X17890800Y-10082000D01*
X17875921Y-10117921D02*
X17875921Y-10046079D01*
X17804079Y-10046079D01*
X17804079Y-10117921D01*
X17875921Y-10117921D01*
X17840000Y-10285200D02*
X17840000Y-10386800D01*
X17789200Y-10336000D02*
X17890800Y-10336000D01*
X17875921Y-10371921D02*
X17875921Y-10300079D01*
X17804079Y-10300079D01*
X17804079Y-10371921D01*
X17875921Y-10371921D01*
X17840000Y-10539200D02*
X17840000Y-10640800D01*
X17789200Y-10590000D02*
X17890800Y-10590000D01*
X17875921Y-10625921D02*
X17875921Y-10554079D01*
X17804079Y-10554079D01*
X17804079Y-10625921D01*
X17875921Y-10625921D01*
X17840000Y-10793200D02*
X17840000Y-10894800D01*
X17789200Y-10844000D02*
X17890800Y-10844000D01*
X17875921Y-10879921D02*
X17875921Y-10808079D01*
X17804079Y-10808079D01*
X17804079Y-10879921D01*
X17875921Y-10879921D01*
X18094000Y-9015200D02*
X18094000Y-9116800D01*
X18043200Y-9066000D02*
X18144800Y-9066000D01*
X18129921Y-9101921D02*
X18129921Y-9030079D01*
X18058079Y-9030079D01*
X18058079Y-9101921D01*
X18129921Y-9101921D01*
X18094000Y-9269200D02*
X18094000Y-9370800D01*
X18043200Y-9320000D02*
X18144800Y-9320000D01*
X18129921Y-9355921D02*
X18129921Y-9284079D01*
X18058079Y-9284079D01*
X18058079Y-9355921D01*
X18129921Y-9355921D01*
X18094000Y-9523200D02*
X18094000Y-9624800D01*
X18043200Y-9574000D02*
X18144800Y-9574000D01*
X18129921Y-9609921D02*
X18129921Y-9538079D01*
X18058079Y-9538079D01*
X18058079Y-9609921D01*
X18129921Y-9609921D01*
X18094000Y-9777200D02*
X18094000Y-9878800D01*
X18043200Y-9828000D02*
X18144800Y-9828000D01*
X18129921Y-9863921D02*
X18129921Y-9792079D01*
X18058079Y-9792079D01*
X18058079Y-9863921D01*
X18129921Y-9863921D01*
X18094000Y-10031200D02*
X18094000Y-10132800D01*
X18043200Y-10082000D02*
X18144800Y-10082000D01*
X18129921Y-10117921D02*
X18129921Y-10046079D01*
X18058079Y-10046079D01*
X18058079Y-10117921D01*
X18129921Y-10117921D01*
X18094000Y-10285200D02*
X18094000Y-10386800D01*
X18043200Y-10336000D02*
X18144800Y-10336000D01*
X18129921Y-10371921D02*
X18129921Y-10300079D01*
X18058079Y-10300079D01*
X18058079Y-10371921D01*
X18129921Y-10371921D01*
X18094000Y-10539200D02*
X18094000Y-10640800D01*
X18043200Y-10590000D02*
X18144800Y-10590000D01*
X18129921Y-10625921D02*
X18129921Y-10554079D01*
X18058079Y-10554079D01*
X18058079Y-10625921D01*
X18129921Y-10625921D01*
X18094000Y-10793200D02*
X18094000Y-10894800D01*
X18043200Y-10844000D02*
X18144800Y-10844000D01*
X18129921Y-10879921D02*
X18129921Y-10808079D01*
X18058079Y-10808079D01*
X18058079Y-10879921D01*
X18129921Y-10879921D01*
D24*
X10609500Y-12785000D02*
X10609500Y-12915000D01*
X10544500Y-12850000D02*
X10674500Y-12850000D01*
X10609500Y-12915000D02*
X10674500Y-12850000D01*
X10609500Y-12785000D01*
X10544500Y-12850000D01*
X10609500Y-12915000D01*
X10609500Y-13285000D02*
X10609500Y-13415000D01*
X10544500Y-13350000D02*
X10674500Y-13350000D01*
X10609500Y-13415000D02*
X10674500Y-13350000D01*
X10609500Y-13285000D01*
X10544500Y-13350000D01*
X10609500Y-13415000D01*
X11730500Y-13045000D02*
X11730500Y-13175000D01*
X11665500Y-13110000D02*
X11795500Y-13110000D01*
X11730500Y-13175000D02*
X11795500Y-13110000D01*
X11730500Y-13045000D01*
X11665500Y-13110000D01*
X11730500Y-13175000D01*
X12230500Y-13045000D02*
X12230500Y-13175000D01*
X12165500Y-13110000D02*
X12295500Y-13110000D01*
X12230500Y-13175000D02*
X12295500Y-13110000D01*
X12230500Y-13045000D01*
X12165500Y-13110000D01*
X12230500Y-13175000D01*
X12880500Y-13045000D02*
X12880500Y-13175000D01*
X12815500Y-13110000D02*
X12945500Y-13110000D01*
X12880500Y-13175000D02*
X12945500Y-13110000D01*
X12880500Y-13045000D01*
X12815500Y-13110000D01*
X12880500Y-13175000D01*
X13380500Y-13045000D02*
X13380500Y-13175000D01*
X13315500Y-13110000D02*
X13445500Y-13110000D01*
X13380500Y-13175000D02*
X13445500Y-13110000D01*
X13380500Y-13045000D01*
X13315500Y-13110000D01*
X13380500Y-13175000D01*
D25*
X11067500Y-7997000D02*
X11152500Y-7912000D01*
X11067500Y-7827000D01*
X10982500Y-7912000D01*
X11067500Y-7997000D01*
X11127605Y-7972105D02*
X11127605Y-7851895D01*
X11007395Y-7851895D01*
X11007395Y-7972105D01*
X11127605Y-7972105D01*
X13547500Y-7996341D02*
X13632500Y-7911341D01*
X13547500Y-7826341D01*
X13462500Y-7911341D01*
X13547500Y-7996341D01*
X13607605Y-7971446D02*
X13607605Y-7851237D01*
X13487395Y-7851237D01*
X13487395Y-7971446D01*
X13607605Y-7971446D01*
X16025000Y-7995750D02*
X16110000Y-7910750D01*
X16025000Y-7825750D01*
X15940000Y-7910750D01*
X16025000Y-7995750D01*
X16085105Y-7970855D02*
X16085105Y-7850645D01*
X15964895Y-7850645D01*
X15964895Y-7970855D01*
X16085105Y-7970855D01*
X18520000Y-7995000D02*
X18605000Y-7910000D01*
X18520000Y-7825000D01*
X18435000Y-7910000D01*
X18520000Y-7995000D01*
X18580105Y-7970105D02*
X18580105Y-7849895D01*
X18459895Y-7849895D01*
X18459895Y-7970105D01*
X18580105Y-7970105D01*
D11*
X10021349Y-14121746D02*
X10021349Y-13921746D01*
X10068968Y-13921746D01*
X10097540Y-13931270D01*
X10116587Y-13950318D01*
X10126111Y-13969365D01*
X10135635Y-14007460D01*
X10135635Y-14036032D01*
X10126111Y-14074127D01*
X10116587Y-14093175D01*
X10097540Y-14112222D01*
X10068968Y-14121746D01*
X10021349Y-14121746D01*
X10221349Y-14121746D02*
X10221349Y-13988413D01*
X10221349Y-14026508D02*
X10230873Y-14007460D01*
X10240397Y-13997937D01*
X10259444Y-13988413D01*
X10278492Y-13988413D01*
X10345159Y-14121746D02*
X10345159Y-13988413D01*
X10345159Y-13921746D02*
X10335635Y-13931270D01*
X10345159Y-13940794D01*
X10354682Y-13931270D01*
X10345159Y-13921746D01*
X10345159Y-13940794D01*
X10468968Y-14121746D02*
X10449920Y-14112222D01*
X10440397Y-14093175D01*
X10440397Y-13921746D01*
X10573730Y-14121746D02*
X10554682Y-14112222D01*
X10545159Y-14093175D01*
X10545159Y-13921746D01*
X10802301Y-14121746D02*
X10802301Y-13921746D01*
X10868968Y-14064603D01*
X10935635Y-13921746D01*
X10935635Y-14121746D01*
X11116587Y-14121746D02*
X11116587Y-14016984D01*
X11107063Y-13997937D01*
X11088016Y-13988413D01*
X11049920Y-13988413D01*
X11030873Y-13997937D01*
X11116587Y-14112222D02*
X11097540Y-14121746D01*
X11049920Y-14121746D01*
X11030873Y-14112222D01*
X11021349Y-14093175D01*
X11021349Y-14074127D01*
X11030873Y-14055079D01*
X11049920Y-14045556D01*
X11097540Y-14045556D01*
X11116587Y-14036032D01*
X11211825Y-13988413D02*
X11211825Y-14188413D01*
X11211825Y-13997937D02*
X11230873Y-13988413D01*
X11268968Y-13988413D01*
X11288016Y-13997937D01*
X11297539Y-14007460D01*
X11307063Y-14026508D01*
X11307063Y-14083651D01*
X11297539Y-14102698D01*
X11288016Y-14112222D01*
X11268968Y-14121746D01*
X11230873Y-14121746D01*
X11211825Y-14112222D01*
X11392778Y-14102698D02*
X11402301Y-14112222D01*
X11392778Y-14121746D01*
X11383254Y-14112222D01*
X11392778Y-14102698D01*
X11392778Y-14121746D01*
X11392778Y-13997937D02*
X11402301Y-14007460D01*
X11392778Y-14016984D01*
X11383254Y-14007460D01*
X11392778Y-13997937D01*
X11392778Y-14016984D01*
D12*
X9743730Y-14441270D02*
X9763730Y-14461270D01*
X9763730Y-14441270D02*
X9743730Y-14461270D01*
D11*
X10059444Y-14341746D02*
X10078492Y-14341746D01*
X10097540Y-14351270D01*
X10107063Y-14360794D01*
X10116587Y-14379841D01*
X10126111Y-14417937D01*
X10126111Y-14465556D01*
X10116587Y-14503651D01*
X10107063Y-14522698D01*
X10097540Y-14532222D01*
X10078492Y-14541746D01*
X10059444Y-14541746D01*
X10040397Y-14532222D01*
X10030873Y-14522698D01*
X10021349Y-14503651D01*
X10011825Y-14465556D01*
X10011825Y-14417937D01*
X10021349Y-14379841D01*
X10030873Y-14360794D01*
X10040397Y-14351270D01*
X10059444Y-14341746D01*
X10211825Y-14522698D02*
X10221349Y-14532222D01*
X10211825Y-14541746D01*
X10202301Y-14532222D01*
X10211825Y-14522698D01*
X10211825Y-14541746D01*
X10297540Y-14360794D02*
X10307063Y-14351270D01*
X10326111Y-14341746D01*
X10373730Y-14341746D01*
X10392778Y-14351270D01*
X10402301Y-14360794D01*
X10411825Y-14379841D01*
X10411825Y-14398889D01*
X10402301Y-14427460D01*
X10288016Y-14541746D01*
X10411825Y-14541746D01*
X10535635Y-14341746D02*
X10554682Y-14341746D01*
X10573730Y-14351270D01*
X10583254Y-14360794D01*
X10592778Y-14379841D01*
X10602301Y-14417937D01*
X10602301Y-14465556D01*
X10592778Y-14503651D01*
X10583254Y-14522698D01*
X10573730Y-14532222D01*
X10554682Y-14541746D01*
X10535635Y-14541746D01*
X10516587Y-14532222D01*
X10507063Y-14522698D01*
X10497540Y-14503651D01*
X10488016Y-14465556D01*
X10488016Y-14417937D01*
X10497540Y-14379841D01*
X10507063Y-14360794D01*
X10516587Y-14351270D01*
X10535635Y-14341746D01*
X10726111Y-14341746D02*
X10745159Y-14341746D01*
X10764206Y-14351270D01*
X10773730Y-14360794D01*
X10783254Y-14379841D01*
X10792778Y-14417937D01*
X10792778Y-14465556D01*
X10783254Y-14503651D01*
X10773730Y-14522698D01*
X10764206Y-14532222D01*
X10745159Y-14541746D01*
X10726111Y-14541746D01*
X10707063Y-14532222D01*
X10697540Y-14522698D01*
X10688016Y-14503651D01*
X10678492Y-14465556D01*
X10678492Y-14417937D01*
X10688016Y-14379841D01*
X10697540Y-14360794D01*
X10707063Y-14351270D01*
X10726111Y-14341746D01*
X10878492Y-14541746D02*
X10878492Y-14408413D01*
X10878492Y-14427460D02*
X10888016Y-14417937D01*
X10907063Y-14408413D01*
X10935635Y-14408413D01*
X10954682Y-14417937D01*
X10964206Y-14436984D01*
X10964206Y-14541746D01*
X10964206Y-14436984D02*
X10973730Y-14417937D01*
X10992778Y-14408413D01*
X11021349Y-14408413D01*
X11040397Y-14417937D01*
X11049920Y-14436984D01*
X11049920Y-14541746D01*
X11145159Y-14541746D02*
X11145159Y-14408413D01*
X11145159Y-14427460D02*
X11154682Y-14417937D01*
X11173730Y-14408413D01*
X11202301Y-14408413D01*
X11221349Y-14417937D01*
X11230873Y-14436984D01*
X11230873Y-14541746D01*
X11230873Y-14436984D02*
X11240397Y-14417937D01*
X11259444Y-14408413D01*
X11288016Y-14408413D01*
X11307063Y-14417937D01*
X11316587Y-14436984D01*
X11316587Y-14541746D01*
X11707063Y-14332222D02*
X11535635Y-14589365D01*
X11964206Y-14341746D02*
X11983254Y-14341746D01*
X12002301Y-14351270D01*
X12011825Y-14360794D01*
X12021349Y-14379841D01*
X12030873Y-14417937D01*
X12030873Y-14465556D01*
X12021349Y-14503651D01*
X12011825Y-14522698D01*
X12002301Y-14532222D01*
X11983254Y-14541746D01*
X11964206Y-14541746D01*
X11945158Y-14532222D01*
X11935635Y-14522698D01*
X11926111Y-14503651D01*
X11916587Y-14465556D01*
X11916587Y-14417937D01*
X11926111Y-14379841D01*
X11935635Y-14360794D01*
X11945158Y-14351270D01*
X11964206Y-14341746D01*
X12116587Y-14522698D02*
X12126111Y-14532222D01*
X12116587Y-14541746D01*
X12107063Y-14532222D01*
X12116587Y-14522698D01*
X12116587Y-14541746D01*
X12249920Y-14341746D02*
X12268968Y-14341746D01*
X12288016Y-14351270D01*
X12297539Y-14360794D01*
X12307063Y-14379841D01*
X12316587Y-14417937D01*
X12316587Y-14465556D01*
X12307063Y-14503651D01*
X12297539Y-14522698D01*
X12288016Y-14532222D01*
X12268968Y-14541746D01*
X12249920Y-14541746D01*
X12230873Y-14532222D01*
X12221349Y-14522698D01*
X12211825Y-14503651D01*
X12202301Y-14465556D01*
X12202301Y-14417937D01*
X12211825Y-14379841D01*
X12221349Y-14360794D01*
X12230873Y-14351270D01*
X12249920Y-14341746D01*
X12440397Y-14341746D02*
X12459444Y-14341746D01*
X12478492Y-14351270D01*
X12488016Y-14360794D01*
X12497539Y-14379841D01*
X12507063Y-14417937D01*
X12507063Y-14465556D01*
X12497539Y-14503651D01*
X12488016Y-14522698D01*
X12478492Y-14532222D01*
X12459444Y-14541746D01*
X12440397Y-14541746D01*
X12421349Y-14532222D01*
X12411825Y-14522698D01*
X12402301Y-14503651D01*
X12392778Y-14465556D01*
X12392778Y-14417937D01*
X12402301Y-14379841D01*
X12411825Y-14360794D01*
X12421349Y-14351270D01*
X12440397Y-14341746D01*
X12573730Y-14341746D02*
X12707063Y-14341746D01*
X12621349Y-14541746D01*
X12792778Y-14541746D02*
X12830873Y-14541746D01*
X12849920Y-14532222D01*
X12859444Y-14522698D01*
X12878492Y-14494127D01*
X12888016Y-14456032D01*
X12888016Y-14379841D01*
X12878492Y-14360794D01*
X12868968Y-14351270D01*
X12849920Y-14341746D01*
X12811825Y-14341746D01*
X12792778Y-14351270D01*
X12783254Y-14360794D01*
X12773730Y-14379841D01*
X12773730Y-14427460D01*
X12783254Y-14446508D01*
X12792778Y-14456032D01*
X12811825Y-14465556D01*
X12849920Y-14465556D01*
X12868968Y-14456032D01*
X12878492Y-14446508D01*
X12888016Y-14427460D01*
X12964206Y-14341746D02*
X12964206Y-14379841D01*
X13040397Y-14341746D02*
X13040397Y-14379841D01*
X13335635Y-14617937D02*
X13326111Y-14608413D01*
X13307063Y-14579841D01*
X13297539Y-14560794D01*
X13288016Y-14532222D01*
X13278492Y-14484603D01*
X13278492Y-14446508D01*
X13288016Y-14398889D01*
X13297539Y-14370318D01*
X13307063Y-14351270D01*
X13326111Y-14322698D01*
X13335635Y-14313175D01*
X13440397Y-14427460D02*
X13421349Y-14417937D01*
X13411825Y-14408413D01*
X13402301Y-14389365D01*
X13402301Y-14379841D01*
X13411825Y-14360794D01*
X13421349Y-14351270D01*
X13440397Y-14341746D01*
X13478492Y-14341746D01*
X13497539Y-14351270D01*
X13507063Y-14360794D01*
X13516587Y-14379841D01*
X13516587Y-14389365D01*
X13507063Y-14408413D01*
X13497539Y-14417937D01*
X13478492Y-14427460D01*
X13440397Y-14427460D01*
X13421349Y-14436984D01*
X13411825Y-14446508D01*
X13402301Y-14465556D01*
X13402301Y-14503651D01*
X13411825Y-14522698D01*
X13421349Y-14532222D01*
X13440397Y-14541746D01*
X13478492Y-14541746D01*
X13497539Y-14532222D01*
X13507063Y-14522698D01*
X13516587Y-14503651D01*
X13516587Y-14465556D01*
X13507063Y-14446508D01*
X13497539Y-14436984D01*
X13478492Y-14427460D01*
X13754682Y-14541746D02*
X13754682Y-14341746D01*
X13840397Y-14541746D02*
X13840397Y-14436984D01*
X13830873Y-14417937D01*
X13811825Y-14408413D01*
X13783254Y-14408413D01*
X13764206Y-14417937D01*
X13754682Y-14427460D01*
X13964206Y-14541746D02*
X13945158Y-14532222D01*
X13935635Y-14522698D01*
X13926111Y-14503651D01*
X13926111Y-14446508D01*
X13935635Y-14427460D01*
X13945158Y-14417937D01*
X13964206Y-14408413D01*
X13992778Y-14408413D01*
X14011825Y-14417937D01*
X14021349Y-14427460D01*
X14030873Y-14446508D01*
X14030873Y-14503651D01*
X14021349Y-14522698D01*
X14011825Y-14532222D01*
X13992778Y-14541746D01*
X13964206Y-14541746D01*
X14145158Y-14541746D02*
X14126111Y-14532222D01*
X14116587Y-14513175D01*
X14116587Y-14341746D01*
X14297539Y-14532222D02*
X14278492Y-14541746D01*
X14240397Y-14541746D01*
X14221349Y-14532222D01*
X14211825Y-14513175D01*
X14211825Y-14436984D01*
X14221349Y-14417937D01*
X14240397Y-14408413D01*
X14278492Y-14408413D01*
X14297539Y-14417937D01*
X14307063Y-14436984D01*
X14307063Y-14456032D01*
X14211825Y-14475079D01*
X14383254Y-14532222D02*
X14402301Y-14541746D01*
X14440397Y-14541746D01*
X14459444Y-14532222D01*
X14468968Y-14513175D01*
X14468968Y-14503651D01*
X14459444Y-14484603D01*
X14440397Y-14475079D01*
X14411825Y-14475079D01*
X14392778Y-14465556D01*
X14383254Y-14446508D01*
X14383254Y-14436984D01*
X14392778Y-14417937D01*
X14411825Y-14408413D01*
X14440397Y-14408413D01*
X14459444Y-14417937D01*
X14535635Y-14617937D02*
X14545158Y-14608413D01*
X14564206Y-14579841D01*
X14573730Y-14560794D01*
X14583254Y-14532222D01*
X14592778Y-14484603D01*
X14592778Y-14446508D01*
X14583254Y-14398889D01*
X14573730Y-14370318D01*
X14564206Y-14351270D01*
X14545158Y-14322698D01*
X14535635Y-14313175D01*
D13*
X9763730Y-14715270D02*
G75*
G03*
X9763730Y-14715270I-12500J0D01*
G01*
D11*
X10059444Y-14605746D02*
X10078492Y-14605746D01*
X10097540Y-14615270D01*
X10107063Y-14624794D01*
X10116587Y-14643841D01*
X10126111Y-14681937D01*
X10126111Y-14729556D01*
X10116587Y-14767651D01*
X10107063Y-14786698D01*
X10097540Y-14796222D01*
X10078492Y-14805746D01*
X10059444Y-14805746D01*
X10040397Y-14796222D01*
X10030873Y-14786698D01*
X10021349Y-14767651D01*
X10011825Y-14729556D01*
X10011825Y-14681937D01*
X10021349Y-14643841D01*
X10030873Y-14624794D01*
X10040397Y-14615270D01*
X10059444Y-14605746D01*
X10211825Y-14786698D02*
X10221349Y-14796222D01*
X10211825Y-14805746D01*
X10202301Y-14796222D01*
X10211825Y-14786698D01*
X10211825Y-14805746D01*
X10297540Y-14624794D02*
X10307063Y-14615270D01*
X10326111Y-14605746D01*
X10373730Y-14605746D01*
X10392778Y-14615270D01*
X10402301Y-14624794D01*
X10411825Y-14643841D01*
X10411825Y-14662889D01*
X10402301Y-14691460D01*
X10288016Y-14805746D01*
X10411825Y-14805746D01*
X10592778Y-14605746D02*
X10497540Y-14605746D01*
X10488016Y-14700984D01*
X10497540Y-14691460D01*
X10516587Y-14681937D01*
X10564206Y-14681937D01*
X10583254Y-14691460D01*
X10592778Y-14700984D01*
X10602301Y-14720032D01*
X10602301Y-14767651D01*
X10592778Y-14786698D01*
X10583254Y-14796222D01*
X10564206Y-14805746D01*
X10516587Y-14805746D01*
X10497540Y-14796222D01*
X10488016Y-14786698D01*
X10726111Y-14605746D02*
X10745159Y-14605746D01*
X10764206Y-14615270D01*
X10773730Y-14624794D01*
X10783254Y-14643841D01*
X10792778Y-14681937D01*
X10792778Y-14729556D01*
X10783254Y-14767651D01*
X10773730Y-14786698D01*
X10764206Y-14796222D01*
X10745159Y-14805746D01*
X10726111Y-14805746D01*
X10707063Y-14796222D01*
X10697540Y-14786698D01*
X10688016Y-14767651D01*
X10678492Y-14729556D01*
X10678492Y-14681937D01*
X10688016Y-14643841D01*
X10697540Y-14624794D01*
X10707063Y-14615270D01*
X10726111Y-14605746D01*
X10878492Y-14805746D02*
X10878492Y-14672413D01*
X10878492Y-14691460D02*
X10888016Y-14681937D01*
X10907063Y-14672413D01*
X10935635Y-14672413D01*
X10954682Y-14681937D01*
X10964206Y-14700984D01*
X10964206Y-14805746D01*
X10964206Y-14700984D02*
X10973730Y-14681937D01*
X10992778Y-14672413D01*
X11021349Y-14672413D01*
X11040397Y-14681937D01*
X11049920Y-14700984D01*
X11049920Y-14805746D01*
X11145159Y-14805746D02*
X11145159Y-14672413D01*
X11145159Y-14691460D02*
X11154682Y-14681937D01*
X11173730Y-14672413D01*
X11202301Y-14672413D01*
X11221349Y-14681937D01*
X11230873Y-14700984D01*
X11230873Y-14805746D01*
X11230873Y-14700984D02*
X11240397Y-14681937D01*
X11259444Y-14672413D01*
X11288016Y-14672413D01*
X11307063Y-14681937D01*
X11316587Y-14700984D01*
X11316587Y-14805746D01*
X11707063Y-14596222D02*
X11535635Y-14853365D01*
X11964206Y-14605746D02*
X11983254Y-14605746D01*
X12002301Y-14615270D01*
X12011825Y-14624794D01*
X12021349Y-14643841D01*
X12030873Y-14681937D01*
X12030873Y-14729556D01*
X12021349Y-14767651D01*
X12011825Y-14786698D01*
X12002301Y-14796222D01*
X11983254Y-14805746D01*
X11964206Y-14805746D01*
X11945158Y-14796222D01*
X11935635Y-14786698D01*
X11926111Y-14767651D01*
X11916587Y-14729556D01*
X11916587Y-14681937D01*
X11926111Y-14643841D01*
X11935635Y-14624794D01*
X11945158Y-14615270D01*
X11964206Y-14605746D01*
X12116587Y-14786698D02*
X12126111Y-14796222D01*
X12116587Y-14805746D01*
X12107063Y-14796222D01*
X12116587Y-14786698D01*
X12116587Y-14805746D01*
X12249920Y-14605746D02*
X12268968Y-14605746D01*
X12288016Y-14615270D01*
X12297539Y-14624794D01*
X12307063Y-14643841D01*
X12316587Y-14681937D01*
X12316587Y-14729556D01*
X12307063Y-14767651D01*
X12297539Y-14786698D01*
X12288016Y-14796222D01*
X12268968Y-14805746D01*
X12249920Y-14805746D01*
X12230873Y-14796222D01*
X12221349Y-14786698D01*
X12211825Y-14767651D01*
X12202301Y-14729556D01*
X12202301Y-14681937D01*
X12211825Y-14643841D01*
X12221349Y-14624794D01*
X12230873Y-14615270D01*
X12249920Y-14605746D01*
X12440397Y-14605746D02*
X12459444Y-14605746D01*
X12478492Y-14615270D01*
X12488016Y-14624794D01*
X12497539Y-14643841D01*
X12507063Y-14681937D01*
X12507063Y-14729556D01*
X12497539Y-14767651D01*
X12488016Y-14786698D01*
X12478492Y-14796222D01*
X12459444Y-14805746D01*
X12440397Y-14805746D01*
X12421349Y-14796222D01*
X12411825Y-14786698D01*
X12402301Y-14767651D01*
X12392778Y-14729556D01*
X12392778Y-14681937D01*
X12402301Y-14643841D01*
X12411825Y-14624794D01*
X12421349Y-14615270D01*
X12440397Y-14605746D01*
X12602301Y-14805746D02*
X12640397Y-14805746D01*
X12659444Y-14796222D01*
X12668968Y-14786698D01*
X12688016Y-14758127D01*
X12697539Y-14720032D01*
X12697539Y-14643841D01*
X12688016Y-14624794D01*
X12678492Y-14615270D01*
X12659444Y-14605746D01*
X12621349Y-14605746D01*
X12602301Y-14615270D01*
X12592778Y-14624794D01*
X12583254Y-14643841D01*
X12583254Y-14691460D01*
X12592778Y-14710508D01*
X12602301Y-14720032D01*
X12621349Y-14729556D01*
X12659444Y-14729556D01*
X12678492Y-14720032D01*
X12688016Y-14710508D01*
X12697539Y-14691460D01*
X12811825Y-14691460D02*
X12792778Y-14681937D01*
X12783254Y-14672413D01*
X12773730Y-14653365D01*
X12773730Y-14643841D01*
X12783254Y-14624794D01*
X12792778Y-14615270D01*
X12811825Y-14605746D01*
X12849920Y-14605746D01*
X12868968Y-14615270D01*
X12878492Y-14624794D01*
X12888016Y-14643841D01*
X12888016Y-14653365D01*
X12878492Y-14672413D01*
X12868968Y-14681937D01*
X12849920Y-14691460D01*
X12811825Y-14691460D01*
X12792778Y-14700984D01*
X12783254Y-14710508D01*
X12773730Y-14729556D01*
X12773730Y-14767651D01*
X12783254Y-14786698D01*
X12792778Y-14796222D01*
X12811825Y-14805746D01*
X12849920Y-14805746D01*
X12868968Y-14796222D01*
X12878492Y-14786698D01*
X12888016Y-14767651D01*
X12888016Y-14729556D01*
X12878492Y-14710508D01*
X12868968Y-14700984D01*
X12849920Y-14691460D01*
X12964206Y-14605746D02*
X12964206Y-14643841D01*
X13040397Y-14605746D02*
X13040397Y-14643841D01*
X13335635Y-14881937D02*
X13326111Y-14872413D01*
X13307063Y-14843841D01*
X13297539Y-14824794D01*
X13288016Y-14796222D01*
X13278492Y-14748603D01*
X13278492Y-14710508D01*
X13288016Y-14662889D01*
X13297539Y-14634318D01*
X13307063Y-14615270D01*
X13326111Y-14586698D01*
X13335635Y-14577175D01*
X13402301Y-14624794D02*
X13411825Y-14615270D01*
X13430873Y-14605746D01*
X13478492Y-14605746D01*
X13497539Y-14615270D01*
X13507063Y-14624794D01*
X13516587Y-14643841D01*
X13516587Y-14662889D01*
X13507063Y-14691460D01*
X13392778Y-14805746D01*
X13516587Y-14805746D01*
X13630873Y-14691460D02*
X13611825Y-14681937D01*
X13602301Y-14672413D01*
X13592778Y-14653365D01*
X13592778Y-14643841D01*
X13602301Y-14624794D01*
X13611825Y-14615270D01*
X13630873Y-14605746D01*
X13668968Y-14605746D01*
X13688016Y-14615270D01*
X13697539Y-14624794D01*
X13707063Y-14643841D01*
X13707063Y-14653365D01*
X13697539Y-14672413D01*
X13688016Y-14681937D01*
X13668968Y-14691460D01*
X13630873Y-14691460D01*
X13611825Y-14700984D01*
X13602301Y-14710508D01*
X13592778Y-14729556D01*
X13592778Y-14767651D01*
X13602301Y-14786698D01*
X13611825Y-14796222D01*
X13630873Y-14805746D01*
X13668968Y-14805746D01*
X13688016Y-14796222D01*
X13697539Y-14786698D01*
X13707063Y-14767651D01*
X13707063Y-14729556D01*
X13697539Y-14710508D01*
X13688016Y-14700984D01*
X13668968Y-14691460D01*
X13945158Y-14805746D02*
X13945158Y-14605746D01*
X14030873Y-14805746D02*
X14030873Y-14700984D01*
X14021349Y-14681937D01*
X14002301Y-14672413D01*
X13973730Y-14672413D01*
X13954682Y-14681937D01*
X13945158Y-14691460D01*
X14154682Y-14805746D02*
X14135635Y-14796222D01*
X14126111Y-14786698D01*
X14116587Y-14767651D01*
X14116587Y-14710508D01*
X14126111Y-14691460D01*
X14135635Y-14681937D01*
X14154682Y-14672413D01*
X14183254Y-14672413D01*
X14202301Y-14681937D01*
X14211825Y-14691460D01*
X14221349Y-14710508D01*
X14221349Y-14767651D01*
X14211825Y-14786698D01*
X14202301Y-14796222D01*
X14183254Y-14805746D01*
X14154682Y-14805746D01*
X14335635Y-14805746D02*
X14316587Y-14796222D01*
X14307063Y-14777175D01*
X14307063Y-14605746D01*
X14488016Y-14796222D02*
X14468968Y-14805746D01*
X14430873Y-14805746D01*
X14411825Y-14796222D01*
X14402301Y-14777175D01*
X14402301Y-14700984D01*
X14411825Y-14681937D01*
X14430873Y-14672413D01*
X14468968Y-14672413D01*
X14488016Y-14681937D01*
X14497539Y-14700984D01*
X14497539Y-14720032D01*
X14402301Y-14739079D01*
X14573730Y-14796222D02*
X14592778Y-14805746D01*
X14630873Y-14805746D01*
X14649920Y-14796222D01*
X14659444Y-14777175D01*
X14659444Y-14767651D01*
X14649920Y-14748603D01*
X14630873Y-14739079D01*
X14602301Y-14739079D01*
X14583254Y-14729556D01*
X14573730Y-14710508D01*
X14573730Y-14700984D01*
X14583254Y-14681937D01*
X14602301Y-14672413D01*
X14630873Y-14672413D01*
X14649920Y-14681937D01*
X14726111Y-14881937D02*
X14735635Y-14872413D01*
X14754682Y-14843841D01*
X14764206Y-14824794D01*
X14773730Y-14796222D01*
X14783254Y-14748603D01*
X14783254Y-14710508D01*
X14773730Y-14662889D01*
X14764206Y-14634318D01*
X14754682Y-14615270D01*
X14735635Y-14586698D01*
X14726111Y-14577175D01*
D14*
X9748730Y-14964270D02*
X9748730Y-14994270D01*
X9733730Y-14979270D02*
X9763730Y-14979270D01*
D11*
X10059444Y-14869746D02*
X10078492Y-14869746D01*
X10097540Y-14879270D01*
X10107063Y-14888794D01*
X10116587Y-14907841D01*
X10126111Y-14945937D01*
X10126111Y-14993556D01*
X10116587Y-15031651D01*
X10107063Y-15050698D01*
X10097540Y-15060222D01*
X10078492Y-15069746D01*
X10059444Y-15069746D01*
X10040397Y-15060222D01*
X10030873Y-15050698D01*
X10021349Y-15031651D01*
X10011825Y-14993556D01*
X10011825Y-14945937D01*
X10021349Y-14907841D01*
X10030873Y-14888794D01*
X10040397Y-14879270D01*
X10059444Y-14869746D01*
X10211825Y-15050698D02*
X10221349Y-15060222D01*
X10211825Y-15069746D01*
X10202301Y-15060222D01*
X10211825Y-15050698D01*
X10211825Y-15069746D01*
X10288016Y-14869746D02*
X10411825Y-14869746D01*
X10345159Y-14945937D01*
X10373730Y-14945937D01*
X10392778Y-14955460D01*
X10402301Y-14964984D01*
X10411825Y-14984032D01*
X10411825Y-15031651D01*
X10402301Y-15050698D01*
X10392778Y-15060222D01*
X10373730Y-15069746D01*
X10316587Y-15069746D01*
X10297540Y-15060222D01*
X10288016Y-15050698D01*
X10535635Y-14869746D02*
X10554682Y-14869746D01*
X10573730Y-14879270D01*
X10583254Y-14888794D01*
X10592778Y-14907841D01*
X10602301Y-14945937D01*
X10602301Y-14993556D01*
X10592778Y-15031651D01*
X10583254Y-15050698D01*
X10573730Y-15060222D01*
X10554682Y-15069746D01*
X10535635Y-15069746D01*
X10516587Y-15060222D01*
X10507063Y-15050698D01*
X10497540Y-15031651D01*
X10488016Y-14993556D01*
X10488016Y-14945937D01*
X10497540Y-14907841D01*
X10507063Y-14888794D01*
X10516587Y-14879270D01*
X10535635Y-14869746D01*
X10726111Y-14869746D02*
X10745159Y-14869746D01*
X10764206Y-14879270D01*
X10773730Y-14888794D01*
X10783254Y-14907841D01*
X10792778Y-14945937D01*
X10792778Y-14993556D01*
X10783254Y-15031651D01*
X10773730Y-15050698D01*
X10764206Y-15060222D01*
X10745159Y-15069746D01*
X10726111Y-15069746D01*
X10707063Y-15060222D01*
X10697540Y-15050698D01*
X10688016Y-15031651D01*
X10678492Y-14993556D01*
X10678492Y-14945937D01*
X10688016Y-14907841D01*
X10697540Y-14888794D01*
X10707063Y-14879270D01*
X10726111Y-14869746D01*
X10878492Y-15069746D02*
X10878492Y-14936413D01*
X10878492Y-14955460D02*
X10888016Y-14945937D01*
X10907063Y-14936413D01*
X10935635Y-14936413D01*
X10954682Y-14945937D01*
X10964206Y-14964984D01*
X10964206Y-15069746D01*
X10964206Y-14964984D02*
X10973730Y-14945937D01*
X10992778Y-14936413D01*
X11021349Y-14936413D01*
X11040397Y-14945937D01*
X11049920Y-14964984D01*
X11049920Y-15069746D01*
X11145159Y-15069746D02*
X11145159Y-14936413D01*
X11145159Y-14955460D02*
X11154682Y-14945937D01*
X11173730Y-14936413D01*
X11202301Y-14936413D01*
X11221349Y-14945937D01*
X11230873Y-14964984D01*
X11230873Y-15069746D01*
X11230873Y-14964984D02*
X11240397Y-14945937D01*
X11259444Y-14936413D01*
X11288016Y-14936413D01*
X11307063Y-14945937D01*
X11316587Y-14964984D01*
X11316587Y-15069746D01*
X11707063Y-14860222D02*
X11535635Y-15117365D01*
X11964206Y-14869746D02*
X11983254Y-14869746D01*
X12002301Y-14879270D01*
X12011825Y-14888794D01*
X12021349Y-14907841D01*
X12030873Y-14945937D01*
X12030873Y-14993556D01*
X12021349Y-15031651D01*
X12011825Y-15050698D01*
X12002301Y-15060222D01*
X11983254Y-15069746D01*
X11964206Y-15069746D01*
X11945158Y-15060222D01*
X11935635Y-15050698D01*
X11926111Y-15031651D01*
X11916587Y-14993556D01*
X11916587Y-14945937D01*
X11926111Y-14907841D01*
X11935635Y-14888794D01*
X11945158Y-14879270D01*
X11964206Y-14869746D01*
X12116587Y-15050698D02*
X12126111Y-15060222D01*
X12116587Y-15069746D01*
X12107063Y-15060222D01*
X12116587Y-15050698D01*
X12116587Y-15069746D01*
X12249920Y-14869746D02*
X12268968Y-14869746D01*
X12288016Y-14879270D01*
X12297539Y-14888794D01*
X12307063Y-14907841D01*
X12316587Y-14945937D01*
X12316587Y-14993556D01*
X12307063Y-15031651D01*
X12297539Y-15050698D01*
X12288016Y-15060222D01*
X12268968Y-15069746D01*
X12249920Y-15069746D01*
X12230873Y-15060222D01*
X12221349Y-15050698D01*
X12211825Y-15031651D01*
X12202301Y-14993556D01*
X12202301Y-14945937D01*
X12211825Y-14907841D01*
X12221349Y-14888794D01*
X12230873Y-14879270D01*
X12249920Y-14869746D01*
X12507063Y-15069746D02*
X12392778Y-15069746D01*
X12449920Y-15069746D02*
X12449920Y-14869746D01*
X12430873Y-14898318D01*
X12411825Y-14917365D01*
X12392778Y-14926889D01*
X12697539Y-15069746D02*
X12583254Y-15069746D01*
X12640397Y-15069746D02*
X12640397Y-14869746D01*
X12621349Y-14898318D01*
X12602301Y-14917365D01*
X12583254Y-14926889D01*
X12811825Y-14955460D02*
X12792778Y-14945937D01*
X12783254Y-14936413D01*
X12773730Y-14917365D01*
X12773730Y-14907841D01*
X12783254Y-14888794D01*
X12792778Y-14879270D01*
X12811825Y-14869746D01*
X12849920Y-14869746D01*
X12868968Y-14879270D01*
X12878492Y-14888794D01*
X12888016Y-14907841D01*
X12888016Y-14917365D01*
X12878492Y-14936413D01*
X12868968Y-14945937D01*
X12849920Y-14955460D01*
X12811825Y-14955460D01*
X12792778Y-14964984D01*
X12783254Y-14974508D01*
X12773730Y-14993556D01*
X12773730Y-15031651D01*
X12783254Y-15050698D01*
X12792778Y-15060222D01*
X12811825Y-15069746D01*
X12849920Y-15069746D01*
X12868968Y-15060222D01*
X12878492Y-15050698D01*
X12888016Y-15031651D01*
X12888016Y-14993556D01*
X12878492Y-14974508D01*
X12868968Y-14964984D01*
X12849920Y-14955460D01*
X12964206Y-14869746D02*
X12964206Y-14907841D01*
X13040397Y-14869746D02*
X13040397Y-14907841D01*
X13335635Y-15145937D02*
X13326111Y-15136413D01*
X13307063Y-15107841D01*
X13297539Y-15088794D01*
X13288016Y-15060222D01*
X13278492Y-15012603D01*
X13278492Y-14974508D01*
X13288016Y-14926889D01*
X13297539Y-14898318D01*
X13307063Y-14879270D01*
X13326111Y-14850698D01*
X13335635Y-14841175D01*
X13507063Y-14869746D02*
X13411825Y-14869746D01*
X13402301Y-14964984D01*
X13411825Y-14955460D01*
X13430873Y-14945937D01*
X13478492Y-14945937D01*
X13497539Y-14955460D01*
X13507063Y-14964984D01*
X13516587Y-14984032D01*
X13516587Y-15031651D01*
X13507063Y-15050698D01*
X13497539Y-15060222D01*
X13478492Y-15069746D01*
X13430873Y-15069746D01*
X13411825Y-15060222D01*
X13402301Y-15050698D01*
X13688016Y-14869746D02*
X13649920Y-14869746D01*
X13630873Y-14879270D01*
X13621349Y-14888794D01*
X13602301Y-14917365D01*
X13592778Y-14955460D01*
X13592778Y-15031651D01*
X13602301Y-15050698D01*
X13611825Y-15060222D01*
X13630873Y-15069746D01*
X13668968Y-15069746D01*
X13688016Y-15060222D01*
X13697539Y-15050698D01*
X13707063Y-15031651D01*
X13707063Y-14984032D01*
X13697539Y-14964984D01*
X13688016Y-14955460D01*
X13668968Y-14945937D01*
X13630873Y-14945937D01*
X13611825Y-14955460D01*
X13602301Y-14964984D01*
X13592778Y-14984032D01*
X13945158Y-15069746D02*
X13945158Y-14869746D01*
X14030873Y-15069746D02*
X14030873Y-14964984D01*
X14021349Y-14945937D01*
X14002301Y-14936413D01*
X13973730Y-14936413D01*
X13954682Y-14945937D01*
X13945158Y-14955460D01*
X14154682Y-15069746D02*
X14135635Y-15060222D01*
X14126111Y-15050698D01*
X14116587Y-15031651D01*
X14116587Y-14974508D01*
X14126111Y-14955460D01*
X14135635Y-14945937D01*
X14154682Y-14936413D01*
X14183254Y-14936413D01*
X14202301Y-14945937D01*
X14211825Y-14955460D01*
X14221349Y-14974508D01*
X14221349Y-15031651D01*
X14211825Y-15050698D01*
X14202301Y-15060222D01*
X14183254Y-15069746D01*
X14154682Y-15069746D01*
X14335635Y-15069746D02*
X14316587Y-15060222D01*
X14307063Y-15041175D01*
X14307063Y-14869746D01*
X14488016Y-15060222D02*
X14468968Y-15069746D01*
X14430873Y-15069746D01*
X14411825Y-15060222D01*
X14402301Y-15041175D01*
X14402301Y-14964984D01*
X14411825Y-14945937D01*
X14430873Y-14936413D01*
X14468968Y-14936413D01*
X14488016Y-14945937D01*
X14497539Y-14964984D01*
X14497539Y-14984032D01*
X14402301Y-15003079D01*
X14573730Y-15060222D02*
X14592778Y-15069746D01*
X14630873Y-15069746D01*
X14649920Y-15060222D01*
X14659444Y-15041175D01*
X14659444Y-15031651D01*
X14649920Y-15012603D01*
X14630873Y-15003079D01*
X14602301Y-15003079D01*
X14583254Y-14993556D01*
X14573730Y-14974508D01*
X14573730Y-14964984D01*
X14583254Y-14945937D01*
X14602301Y-14936413D01*
X14630873Y-14936413D01*
X14649920Y-14945937D01*
X14726111Y-15145937D02*
X14735635Y-15136413D01*
X14754682Y-15107841D01*
X14764206Y-15088794D01*
X14773730Y-15060222D01*
X14783254Y-15012603D01*
X14783254Y-14974508D01*
X14773730Y-14926889D01*
X14764206Y-14898318D01*
X14754682Y-14879270D01*
X14735635Y-14850698D01*
X14726111Y-14841175D01*
D15*
X9757872Y-15257412D02*
X9757872Y-15229128D01*
X9729588Y-15229128D01*
X9729588Y-15257412D01*
X9757872Y-15257412D01*
D11*
X10059444Y-15133746D02*
X10078492Y-15133746D01*
X10097540Y-15143270D01*
X10107063Y-15152794D01*
X10116587Y-15171841D01*
X10126111Y-15209937D01*
X10126111Y-15257556D01*
X10116587Y-15295651D01*
X10107063Y-15314698D01*
X10097540Y-15324222D01*
X10078492Y-15333746D01*
X10059444Y-15333746D01*
X10040397Y-15324222D01*
X10030873Y-15314698D01*
X10021349Y-15295651D01*
X10011825Y-15257556D01*
X10011825Y-15209937D01*
X10021349Y-15171841D01*
X10030873Y-15152794D01*
X10040397Y-15143270D01*
X10059444Y-15133746D01*
X10211825Y-15314698D02*
X10221349Y-15324222D01*
X10211825Y-15333746D01*
X10202301Y-15324222D01*
X10211825Y-15314698D01*
X10211825Y-15333746D01*
X10392778Y-15200413D02*
X10392778Y-15333746D01*
X10345159Y-15124222D02*
X10297540Y-15267079D01*
X10421349Y-15267079D01*
X10535635Y-15133746D02*
X10554682Y-15133746D01*
X10573730Y-15143270D01*
X10583254Y-15152794D01*
X10592778Y-15171841D01*
X10602301Y-15209937D01*
X10602301Y-15257556D01*
X10592778Y-15295651D01*
X10583254Y-15314698D01*
X10573730Y-15324222D01*
X10554682Y-15333746D01*
X10535635Y-15333746D01*
X10516587Y-15324222D01*
X10507063Y-15314698D01*
X10497540Y-15295651D01*
X10488016Y-15257556D01*
X10488016Y-15209937D01*
X10497540Y-15171841D01*
X10507063Y-15152794D01*
X10516587Y-15143270D01*
X10535635Y-15133746D01*
X10726111Y-15133746D02*
X10745159Y-15133746D01*
X10764206Y-15143270D01*
X10773730Y-15152794D01*
X10783254Y-15171841D01*
X10792778Y-15209937D01*
X10792778Y-15257556D01*
X10783254Y-15295651D01*
X10773730Y-15314698D01*
X10764206Y-15324222D01*
X10745159Y-15333746D01*
X10726111Y-15333746D01*
X10707063Y-15324222D01*
X10697540Y-15314698D01*
X10688016Y-15295651D01*
X10678492Y-15257556D01*
X10678492Y-15209937D01*
X10688016Y-15171841D01*
X10697540Y-15152794D01*
X10707063Y-15143270D01*
X10726111Y-15133746D01*
X10878492Y-15333746D02*
X10878492Y-15200413D01*
X10878492Y-15219460D02*
X10888016Y-15209937D01*
X10907063Y-15200413D01*
X10935635Y-15200413D01*
X10954682Y-15209937D01*
X10964206Y-15228984D01*
X10964206Y-15333746D01*
X10964206Y-15228984D02*
X10973730Y-15209937D01*
X10992778Y-15200413D01*
X11021349Y-15200413D01*
X11040397Y-15209937D01*
X11049920Y-15228984D01*
X11049920Y-15333746D01*
X11145159Y-15333746D02*
X11145159Y-15200413D01*
X11145159Y-15219460D02*
X11154682Y-15209937D01*
X11173730Y-15200413D01*
X11202301Y-15200413D01*
X11221349Y-15209937D01*
X11230873Y-15228984D01*
X11230873Y-15333746D01*
X11230873Y-15228984D02*
X11240397Y-15209937D01*
X11259444Y-15200413D01*
X11288016Y-15200413D01*
X11307063Y-15209937D01*
X11316587Y-15228984D01*
X11316587Y-15333746D01*
X11707063Y-15124222D02*
X11535635Y-15381365D01*
X11964206Y-15133746D02*
X11983254Y-15133746D01*
X12002301Y-15143270D01*
X12011825Y-15152794D01*
X12021349Y-15171841D01*
X12030873Y-15209937D01*
X12030873Y-15257556D01*
X12021349Y-15295651D01*
X12011825Y-15314698D01*
X12002301Y-15324222D01*
X11983254Y-15333746D01*
X11964206Y-15333746D01*
X11945158Y-15324222D01*
X11935635Y-15314698D01*
X11926111Y-15295651D01*
X11916587Y-15257556D01*
X11916587Y-15209937D01*
X11926111Y-15171841D01*
X11935635Y-15152794D01*
X11945158Y-15143270D01*
X11964206Y-15133746D01*
X12116587Y-15314698D02*
X12126111Y-15324222D01*
X12116587Y-15333746D01*
X12107063Y-15324222D01*
X12116587Y-15314698D01*
X12116587Y-15333746D01*
X12249920Y-15133746D02*
X12268968Y-15133746D01*
X12288016Y-15143270D01*
X12297539Y-15152794D01*
X12307063Y-15171841D01*
X12316587Y-15209937D01*
X12316587Y-15257556D01*
X12307063Y-15295651D01*
X12297539Y-15314698D01*
X12288016Y-15324222D01*
X12268968Y-15333746D01*
X12249920Y-15333746D01*
X12230873Y-15324222D01*
X12221349Y-15314698D01*
X12211825Y-15295651D01*
X12202301Y-15257556D01*
X12202301Y-15209937D01*
X12211825Y-15171841D01*
X12221349Y-15152794D01*
X12230873Y-15143270D01*
X12249920Y-15133746D01*
X12507063Y-15333746D02*
X12392778Y-15333746D01*
X12449920Y-15333746D02*
X12449920Y-15133746D01*
X12430873Y-15162318D01*
X12411825Y-15181365D01*
X12392778Y-15190889D01*
X12688016Y-15133746D02*
X12592778Y-15133746D01*
X12583254Y-15228984D01*
X12592778Y-15219460D01*
X12611825Y-15209937D01*
X12659444Y-15209937D01*
X12678492Y-15219460D01*
X12688016Y-15228984D01*
X12697539Y-15248032D01*
X12697539Y-15295651D01*
X12688016Y-15314698D01*
X12678492Y-15324222D01*
X12659444Y-15333746D01*
X12611825Y-15333746D01*
X12592778Y-15324222D01*
X12583254Y-15314698D01*
X12764206Y-15133746D02*
X12897539Y-15133746D01*
X12811825Y-15333746D01*
X12964206Y-15133746D02*
X12964206Y-15171841D01*
X13040397Y-15133746D02*
X13040397Y-15171841D01*
X13335635Y-15409937D02*
X13326111Y-15400413D01*
X13307063Y-15371841D01*
X13297539Y-15352794D01*
X13288016Y-15324222D01*
X13278492Y-15276603D01*
X13278492Y-15238508D01*
X13288016Y-15190889D01*
X13297539Y-15162318D01*
X13307063Y-15143270D01*
X13326111Y-15114698D01*
X13335635Y-15105175D01*
X13516587Y-15333746D02*
X13402301Y-15333746D01*
X13459444Y-15333746D02*
X13459444Y-15133746D01*
X13440397Y-15162318D01*
X13421349Y-15181365D01*
X13402301Y-15190889D01*
X13592778Y-15152794D02*
X13602301Y-15143270D01*
X13621349Y-15133746D01*
X13668968Y-15133746D01*
X13688016Y-15143270D01*
X13697539Y-15152794D01*
X13707063Y-15171841D01*
X13707063Y-15190889D01*
X13697539Y-15219460D01*
X13583254Y-15333746D01*
X13707063Y-15333746D01*
X13878492Y-15200413D02*
X13878492Y-15333746D01*
X13830873Y-15124222D02*
X13783254Y-15267079D01*
X13907063Y-15267079D01*
X14135635Y-15333746D02*
X14135635Y-15133746D01*
X14221349Y-15333746D02*
X14221349Y-15228984D01*
X14211825Y-15209937D01*
X14192778Y-15200413D01*
X14164206Y-15200413D01*
X14145158Y-15209937D01*
X14135635Y-15219460D01*
X14345158Y-15333746D02*
X14326111Y-15324222D01*
X14316587Y-15314698D01*
X14307063Y-15295651D01*
X14307063Y-15238508D01*
X14316587Y-15219460D01*
X14326111Y-15209937D01*
X14345158Y-15200413D01*
X14373730Y-15200413D01*
X14392778Y-15209937D01*
X14402301Y-15219460D01*
X14411825Y-15238508D01*
X14411825Y-15295651D01*
X14402301Y-15314698D01*
X14392778Y-15324222D01*
X14373730Y-15333746D01*
X14345158Y-15333746D01*
X14526111Y-15333746D02*
X14507063Y-15324222D01*
X14497539Y-15305175D01*
X14497539Y-15133746D01*
X14678492Y-15324222D02*
X14659444Y-15333746D01*
X14621349Y-15333746D01*
X14602301Y-15324222D01*
X14592778Y-15305175D01*
X14592778Y-15228984D01*
X14602301Y-15209937D01*
X14621349Y-15200413D01*
X14659444Y-15200413D01*
X14678492Y-15209937D01*
X14688016Y-15228984D01*
X14688016Y-15248032D01*
X14592778Y-15267079D01*
X14764206Y-15324222D02*
X14783254Y-15333746D01*
X14821349Y-15333746D01*
X14840397Y-15324222D01*
X14849920Y-15305175D01*
X14849920Y-15295651D01*
X14840397Y-15276603D01*
X14821349Y-15267079D01*
X14792778Y-15267079D01*
X14773730Y-15257556D01*
X14764206Y-15238508D01*
X14764206Y-15228984D01*
X14773730Y-15209937D01*
X14792778Y-15200413D01*
X14821349Y-15200413D01*
X14840397Y-15209937D01*
X14916587Y-15409937D02*
X14926111Y-15400413D01*
X14945158Y-15371841D01*
X14954682Y-15352794D01*
X14964206Y-15324222D01*
X14973730Y-15276603D01*
X14973730Y-15238508D01*
X14964206Y-15190889D01*
X14954682Y-15162318D01*
X14945158Y-15143270D01*
X14926111Y-15114698D01*
X14916587Y-15105175D01*
D16*
X9738730Y-15532270D02*
X9763730Y-15507270D01*
X9738730Y-15482270D01*
X9713730Y-15507270D01*
X9738730Y-15532270D01*
D11*
X10059444Y-15397746D02*
X10078492Y-15397746D01*
X10097540Y-15407270D01*
X10107063Y-15416794D01*
X10116587Y-15435841D01*
X10126111Y-15473937D01*
X10126111Y-15521556D01*
X10116587Y-15559651D01*
X10107063Y-15578698D01*
X10097540Y-15588222D01*
X10078492Y-15597746D01*
X10059444Y-15597746D01*
X10040397Y-15588222D01*
X10030873Y-15578698D01*
X10021349Y-15559651D01*
X10011825Y-15521556D01*
X10011825Y-15473937D01*
X10021349Y-15435841D01*
X10030873Y-15416794D01*
X10040397Y-15407270D01*
X10059444Y-15397746D01*
X10211825Y-15578698D02*
X10221349Y-15588222D01*
X10211825Y-15597746D01*
X10202301Y-15588222D01*
X10211825Y-15578698D01*
X10211825Y-15597746D01*
X10402301Y-15397746D02*
X10307063Y-15397746D01*
X10297540Y-15492984D01*
X10307063Y-15483460D01*
X10326111Y-15473937D01*
X10373730Y-15473937D01*
X10392778Y-15483460D01*
X10402301Y-15492984D01*
X10411825Y-15512032D01*
X10411825Y-15559651D01*
X10402301Y-15578698D01*
X10392778Y-15588222D01*
X10373730Y-15597746D01*
X10326111Y-15597746D01*
X10307063Y-15588222D01*
X10297540Y-15578698D01*
X10535635Y-15397746D02*
X10554682Y-15397746D01*
X10573730Y-15407270D01*
X10583254Y-15416794D01*
X10592778Y-15435841D01*
X10602301Y-15473937D01*
X10602301Y-15521556D01*
X10592778Y-15559651D01*
X10583254Y-15578698D01*
X10573730Y-15588222D01*
X10554682Y-15597746D01*
X10535635Y-15597746D01*
X10516587Y-15588222D01*
X10507063Y-15578698D01*
X10497540Y-15559651D01*
X10488016Y-15521556D01*
X10488016Y-15473937D01*
X10497540Y-15435841D01*
X10507063Y-15416794D01*
X10516587Y-15407270D01*
X10535635Y-15397746D01*
X10726111Y-15397746D02*
X10745159Y-15397746D01*
X10764206Y-15407270D01*
X10773730Y-15416794D01*
X10783254Y-15435841D01*
X10792778Y-15473937D01*
X10792778Y-15521556D01*
X10783254Y-15559651D01*
X10773730Y-15578698D01*
X10764206Y-15588222D01*
X10745159Y-15597746D01*
X10726111Y-15597746D01*
X10707063Y-15588222D01*
X10697540Y-15578698D01*
X10688016Y-15559651D01*
X10678492Y-15521556D01*
X10678492Y-15473937D01*
X10688016Y-15435841D01*
X10697540Y-15416794D01*
X10707063Y-15407270D01*
X10726111Y-15397746D01*
X10878492Y-15597746D02*
X10878492Y-15464413D01*
X10878492Y-15483460D02*
X10888016Y-15473937D01*
X10907063Y-15464413D01*
X10935635Y-15464413D01*
X10954682Y-15473937D01*
X10964206Y-15492984D01*
X10964206Y-15597746D01*
X10964206Y-15492984D02*
X10973730Y-15473937D01*
X10992778Y-15464413D01*
X11021349Y-15464413D01*
X11040397Y-15473937D01*
X11049920Y-15492984D01*
X11049920Y-15597746D01*
X11145159Y-15597746D02*
X11145159Y-15464413D01*
X11145159Y-15483460D02*
X11154682Y-15473937D01*
X11173730Y-15464413D01*
X11202301Y-15464413D01*
X11221349Y-15473937D01*
X11230873Y-15492984D01*
X11230873Y-15597746D01*
X11230873Y-15492984D02*
X11240397Y-15473937D01*
X11259444Y-15464413D01*
X11288016Y-15464413D01*
X11307063Y-15473937D01*
X11316587Y-15492984D01*
X11316587Y-15597746D01*
X11707063Y-15388222D02*
X11535635Y-15645365D01*
X11964206Y-15397746D02*
X11983254Y-15397746D01*
X12002301Y-15407270D01*
X12011825Y-15416794D01*
X12021349Y-15435841D01*
X12030873Y-15473937D01*
X12030873Y-15521556D01*
X12021349Y-15559651D01*
X12011825Y-15578698D01*
X12002301Y-15588222D01*
X11983254Y-15597746D01*
X11964206Y-15597746D01*
X11945158Y-15588222D01*
X11935635Y-15578698D01*
X11926111Y-15559651D01*
X11916587Y-15521556D01*
X11916587Y-15473937D01*
X11926111Y-15435841D01*
X11935635Y-15416794D01*
X11945158Y-15407270D01*
X11964206Y-15397746D01*
X12116587Y-15578698D02*
X12126111Y-15588222D01*
X12116587Y-15597746D01*
X12107063Y-15588222D01*
X12116587Y-15578698D01*
X12116587Y-15597746D01*
X12249920Y-15397746D02*
X12268968Y-15397746D01*
X12288016Y-15407270D01*
X12297539Y-15416794D01*
X12307063Y-15435841D01*
X12316587Y-15473937D01*
X12316587Y-15521556D01*
X12307063Y-15559651D01*
X12297539Y-15578698D01*
X12288016Y-15588222D01*
X12268968Y-15597746D01*
X12249920Y-15597746D01*
X12230873Y-15588222D01*
X12221349Y-15578698D01*
X12211825Y-15559651D01*
X12202301Y-15521556D01*
X12202301Y-15473937D01*
X12211825Y-15435841D01*
X12221349Y-15416794D01*
X12230873Y-15407270D01*
X12249920Y-15397746D01*
X12507063Y-15597746D02*
X12392778Y-15597746D01*
X12449920Y-15597746D02*
X12449920Y-15397746D01*
X12430873Y-15426318D01*
X12411825Y-15445365D01*
X12392778Y-15454889D01*
X12602301Y-15597746D02*
X12640397Y-15597746D01*
X12659444Y-15588222D01*
X12668968Y-15578698D01*
X12688016Y-15550127D01*
X12697539Y-15512032D01*
X12697539Y-15435841D01*
X12688016Y-15416794D01*
X12678492Y-15407270D01*
X12659444Y-15397746D01*
X12621349Y-15397746D01*
X12602301Y-15407270D01*
X12592778Y-15416794D01*
X12583254Y-15435841D01*
X12583254Y-15483460D01*
X12592778Y-15502508D01*
X12602301Y-15512032D01*
X12621349Y-15521556D01*
X12659444Y-15521556D01*
X12678492Y-15512032D01*
X12688016Y-15502508D01*
X12697539Y-15483460D01*
X12764206Y-15397746D02*
X12897539Y-15397746D01*
X12811825Y-15597746D01*
X12964206Y-15397746D02*
X12964206Y-15435841D01*
X13040397Y-15397746D02*
X13040397Y-15435841D01*
X13335635Y-15673937D02*
X13326111Y-15664413D01*
X13307063Y-15635841D01*
X13297539Y-15616794D01*
X13288016Y-15588222D01*
X13278492Y-15540603D01*
X13278492Y-15502508D01*
X13288016Y-15454889D01*
X13297539Y-15426318D01*
X13307063Y-15407270D01*
X13326111Y-15378698D01*
X13335635Y-15369175D01*
X13392778Y-15397746D02*
X13516587Y-15397746D01*
X13449920Y-15473937D01*
X13478492Y-15473937D01*
X13497539Y-15483460D01*
X13507063Y-15492984D01*
X13516587Y-15512032D01*
X13516587Y-15559651D01*
X13507063Y-15578698D01*
X13497539Y-15588222D01*
X13478492Y-15597746D01*
X13421349Y-15597746D01*
X13402301Y-15588222D01*
X13392778Y-15578698D01*
X13754682Y-15597746D02*
X13754682Y-15397746D01*
X13840397Y-15597746D02*
X13840397Y-15492984D01*
X13830873Y-15473937D01*
X13811825Y-15464413D01*
X13783254Y-15464413D01*
X13764206Y-15473937D01*
X13754682Y-15483460D01*
X13964206Y-15597746D02*
X13945158Y-15588222D01*
X13935635Y-15578698D01*
X13926111Y-15559651D01*
X13926111Y-15502508D01*
X13935635Y-15483460D01*
X13945158Y-15473937D01*
X13964206Y-15464413D01*
X13992778Y-15464413D01*
X14011825Y-15473937D01*
X14021349Y-15483460D01*
X14030873Y-15502508D01*
X14030873Y-15559651D01*
X14021349Y-15578698D01*
X14011825Y-15588222D01*
X13992778Y-15597746D01*
X13964206Y-15597746D01*
X14145158Y-15597746D02*
X14126111Y-15588222D01*
X14116587Y-15569175D01*
X14116587Y-15397746D01*
X14297539Y-15588222D02*
X14278492Y-15597746D01*
X14240397Y-15597746D01*
X14221349Y-15588222D01*
X14211825Y-15569175D01*
X14211825Y-15492984D01*
X14221349Y-15473937D01*
X14240397Y-15464413D01*
X14278492Y-15464413D01*
X14297539Y-15473937D01*
X14307063Y-15492984D01*
X14307063Y-15512032D01*
X14211825Y-15531079D01*
X14383254Y-15588222D02*
X14402301Y-15597746D01*
X14440397Y-15597746D01*
X14459444Y-15588222D01*
X14468968Y-15569175D01*
X14468968Y-15559651D01*
X14459444Y-15540603D01*
X14440397Y-15531079D01*
X14411825Y-15531079D01*
X14392778Y-15521556D01*
X14383254Y-15502508D01*
X14383254Y-15492984D01*
X14392778Y-15473937D01*
X14411825Y-15464413D01*
X14440397Y-15464413D01*
X14459444Y-15473937D01*
X14535635Y-15673937D02*
X14545158Y-15664413D01*
X14564206Y-15635841D01*
X14573730Y-15616794D01*
X14583254Y-15588222D01*
X14592778Y-15540603D01*
X14592778Y-15502508D01*
X14583254Y-15454889D01*
X14573730Y-15426318D01*
X14564206Y-15407270D01*
X14545158Y-15378698D01*
X14535635Y-15369175D01*
D17*
X9703730Y-15741270D02*
X9763730Y-15801270D01*
X9763730Y-15741270D02*
X9703730Y-15801270D01*
X9763730Y-15771270D02*
G75*
G03*
X9763730Y-15771270I-30000J0D01*
G01*
D11*
X10059444Y-15661746D02*
X10078492Y-15661746D01*
X10097540Y-15671270D01*
X10107063Y-15680794D01*
X10116587Y-15699841D01*
X10126111Y-15737937D01*
X10126111Y-15785556D01*
X10116587Y-15823651D01*
X10107063Y-15842698D01*
X10097540Y-15852222D01*
X10078492Y-15861746D01*
X10059444Y-15861746D01*
X10040397Y-15852222D01*
X10030873Y-15842698D01*
X10021349Y-15823651D01*
X10011825Y-15785556D01*
X10011825Y-15737937D01*
X10021349Y-15699841D01*
X10030873Y-15680794D01*
X10040397Y-15671270D01*
X10059444Y-15661746D01*
X10211825Y-15842698D02*
X10221349Y-15852222D01*
X10211825Y-15861746D01*
X10202301Y-15852222D01*
X10211825Y-15842698D01*
X10211825Y-15861746D01*
X10392778Y-15661746D02*
X10354682Y-15661746D01*
X10335635Y-15671270D01*
X10326111Y-15680794D01*
X10307063Y-15709365D01*
X10297540Y-15747460D01*
X10297540Y-15823651D01*
X10307063Y-15842698D01*
X10316587Y-15852222D01*
X10335635Y-15861746D01*
X10373730Y-15861746D01*
X10392778Y-15852222D01*
X10402301Y-15842698D01*
X10411825Y-15823651D01*
X10411825Y-15776032D01*
X10402301Y-15756984D01*
X10392778Y-15747460D01*
X10373730Y-15737937D01*
X10335635Y-15737937D01*
X10316587Y-15747460D01*
X10307063Y-15756984D01*
X10297540Y-15776032D01*
X10535635Y-15661746D02*
X10554682Y-15661746D01*
X10573730Y-15671270D01*
X10583254Y-15680794D01*
X10592778Y-15699841D01*
X10602301Y-15737937D01*
X10602301Y-15785556D01*
X10592778Y-15823651D01*
X10583254Y-15842698D01*
X10573730Y-15852222D01*
X10554682Y-15861746D01*
X10535635Y-15861746D01*
X10516587Y-15852222D01*
X10507063Y-15842698D01*
X10497540Y-15823651D01*
X10488016Y-15785556D01*
X10488016Y-15737937D01*
X10497540Y-15699841D01*
X10507063Y-15680794D01*
X10516587Y-15671270D01*
X10535635Y-15661746D01*
X10726111Y-15661746D02*
X10745159Y-15661746D01*
X10764206Y-15671270D01*
X10773730Y-15680794D01*
X10783254Y-15699841D01*
X10792778Y-15737937D01*
X10792778Y-15785556D01*
X10783254Y-15823651D01*
X10773730Y-15842698D01*
X10764206Y-15852222D01*
X10745159Y-15861746D01*
X10726111Y-15861746D01*
X10707063Y-15852222D01*
X10697540Y-15842698D01*
X10688016Y-15823651D01*
X10678492Y-15785556D01*
X10678492Y-15737937D01*
X10688016Y-15699841D01*
X10697540Y-15680794D01*
X10707063Y-15671270D01*
X10726111Y-15661746D01*
X10878492Y-15861746D02*
X10878492Y-15728413D01*
X10878492Y-15747460D02*
X10888016Y-15737937D01*
X10907063Y-15728413D01*
X10935635Y-15728413D01*
X10954682Y-15737937D01*
X10964206Y-15756984D01*
X10964206Y-15861746D01*
X10964206Y-15756984D02*
X10973730Y-15737937D01*
X10992778Y-15728413D01*
X11021349Y-15728413D01*
X11040397Y-15737937D01*
X11049920Y-15756984D01*
X11049920Y-15861746D01*
X11145159Y-15861746D02*
X11145159Y-15728413D01*
X11145159Y-15747460D02*
X11154682Y-15737937D01*
X11173730Y-15728413D01*
X11202301Y-15728413D01*
X11221349Y-15737937D01*
X11230873Y-15756984D01*
X11230873Y-15861746D01*
X11230873Y-15756984D02*
X11240397Y-15737937D01*
X11259444Y-15728413D01*
X11288016Y-15728413D01*
X11307063Y-15737937D01*
X11316587Y-15756984D01*
X11316587Y-15861746D01*
X11707063Y-15652222D02*
X11535635Y-15909365D01*
X11964206Y-15661746D02*
X11983254Y-15661746D01*
X12002301Y-15671270D01*
X12011825Y-15680794D01*
X12021349Y-15699841D01*
X12030873Y-15737937D01*
X12030873Y-15785556D01*
X12021349Y-15823651D01*
X12011825Y-15842698D01*
X12002301Y-15852222D01*
X11983254Y-15861746D01*
X11964206Y-15861746D01*
X11945158Y-15852222D01*
X11935635Y-15842698D01*
X11926111Y-15823651D01*
X11916587Y-15785556D01*
X11916587Y-15737937D01*
X11926111Y-15699841D01*
X11935635Y-15680794D01*
X11945158Y-15671270D01*
X11964206Y-15661746D01*
X12116587Y-15842698D02*
X12126111Y-15852222D01*
X12116587Y-15861746D01*
X12107063Y-15852222D01*
X12116587Y-15842698D01*
X12116587Y-15861746D01*
X12249920Y-15661746D02*
X12268968Y-15661746D01*
X12288016Y-15671270D01*
X12297539Y-15680794D01*
X12307063Y-15699841D01*
X12316587Y-15737937D01*
X12316587Y-15785556D01*
X12307063Y-15823651D01*
X12297539Y-15842698D01*
X12288016Y-15852222D01*
X12268968Y-15861746D01*
X12249920Y-15861746D01*
X12230873Y-15852222D01*
X12221349Y-15842698D01*
X12211825Y-15823651D01*
X12202301Y-15785556D01*
X12202301Y-15737937D01*
X12211825Y-15699841D01*
X12221349Y-15680794D01*
X12230873Y-15671270D01*
X12249920Y-15661746D01*
X12392778Y-15680794D02*
X12402301Y-15671270D01*
X12421349Y-15661746D01*
X12468968Y-15661746D01*
X12488016Y-15671270D01*
X12497539Y-15680794D01*
X12507063Y-15699841D01*
X12507063Y-15718889D01*
X12497539Y-15747460D01*
X12383254Y-15861746D01*
X12507063Y-15861746D01*
X12573730Y-15661746D02*
X12697539Y-15661746D01*
X12630873Y-15737937D01*
X12659444Y-15737937D01*
X12678492Y-15747460D01*
X12688016Y-15756984D01*
X12697539Y-15776032D01*
X12697539Y-15823651D01*
X12688016Y-15842698D01*
X12678492Y-15852222D01*
X12659444Y-15861746D01*
X12602301Y-15861746D01*
X12583254Y-15852222D01*
X12573730Y-15842698D01*
X12868968Y-15661746D02*
X12830873Y-15661746D01*
X12811825Y-15671270D01*
X12802301Y-15680794D01*
X12783254Y-15709365D01*
X12773730Y-15747460D01*
X12773730Y-15823651D01*
X12783254Y-15842698D01*
X12792778Y-15852222D01*
X12811825Y-15861746D01*
X12849920Y-15861746D01*
X12868968Y-15852222D01*
X12878492Y-15842698D01*
X12888016Y-15823651D01*
X12888016Y-15776032D01*
X12878492Y-15756984D01*
X12868968Y-15747460D01*
X12849920Y-15737937D01*
X12811825Y-15737937D01*
X12792778Y-15747460D01*
X12783254Y-15756984D01*
X12773730Y-15776032D01*
X12964206Y-15661746D02*
X12964206Y-15699841D01*
X13040397Y-15661746D02*
X13040397Y-15699841D01*
X13335635Y-15937937D02*
X13326111Y-15928413D01*
X13307063Y-15899841D01*
X13297539Y-15880794D01*
X13288016Y-15852222D01*
X13278492Y-15804603D01*
X13278492Y-15766508D01*
X13288016Y-15718889D01*
X13297539Y-15690318D01*
X13307063Y-15671270D01*
X13326111Y-15642698D01*
X13335635Y-15633175D01*
X13516587Y-15861746D02*
X13402301Y-15861746D01*
X13459444Y-15861746D02*
X13459444Y-15661746D01*
X13440397Y-15690318D01*
X13421349Y-15709365D01*
X13402301Y-15718889D01*
X13754682Y-15861746D02*
X13754682Y-15661746D01*
X13840397Y-15861746D02*
X13840397Y-15756984D01*
X13830873Y-15737937D01*
X13811825Y-15728413D01*
X13783254Y-15728413D01*
X13764206Y-15737937D01*
X13754682Y-15747460D01*
X13964206Y-15861746D02*
X13945158Y-15852222D01*
X13935635Y-15842698D01*
X13926111Y-15823651D01*
X13926111Y-15766508D01*
X13935635Y-15747460D01*
X13945158Y-15737937D01*
X13964206Y-15728413D01*
X13992778Y-15728413D01*
X14011825Y-15737937D01*
X14021349Y-15747460D01*
X14030873Y-15766508D01*
X14030873Y-15823651D01*
X14021349Y-15842698D01*
X14011825Y-15852222D01*
X13992778Y-15861746D01*
X13964206Y-15861746D01*
X14145158Y-15861746D02*
X14126111Y-15852222D01*
X14116587Y-15833175D01*
X14116587Y-15661746D01*
X14297539Y-15852222D02*
X14278492Y-15861746D01*
X14240397Y-15861746D01*
X14221349Y-15852222D01*
X14211825Y-15833175D01*
X14211825Y-15756984D01*
X14221349Y-15737937D01*
X14240397Y-15728413D01*
X14278492Y-15728413D01*
X14297539Y-15737937D01*
X14307063Y-15756984D01*
X14307063Y-15776032D01*
X14211825Y-15795079D01*
X14373730Y-15937937D02*
X14383254Y-15928413D01*
X14402301Y-15899841D01*
X14411825Y-15880794D01*
X14421349Y-15852222D01*
X14430873Y-15804603D01*
X14430873Y-15766508D01*
X14421349Y-15718889D01*
X14411825Y-15690318D01*
X14402301Y-15671270D01*
X14383254Y-15642698D01*
X14373730Y-15633175D01*
D18*
X9697690Y-16002250D02*
X9763730Y-16068290D01*
X9763730Y-16002250D02*
X9697690Y-16068290D01*
X9730710Y-16002250D02*
X9730710Y-16068290D01*
X9697690Y-16035270D02*
X9763730Y-16035270D01*
D11*
X10059444Y-15925746D02*
X10078492Y-15925746D01*
X10097540Y-15935270D01*
X10107063Y-15944794D01*
X10116587Y-15963841D01*
X10126111Y-16001937D01*
X10126111Y-16049556D01*
X10116587Y-16087651D01*
X10107063Y-16106698D01*
X10097540Y-16116222D01*
X10078492Y-16125746D01*
X10059444Y-16125746D01*
X10040397Y-16116222D01*
X10030873Y-16106698D01*
X10021349Y-16087651D01*
X10011825Y-16049556D01*
X10011825Y-16001937D01*
X10021349Y-15963841D01*
X10030873Y-15944794D01*
X10040397Y-15935270D01*
X10059444Y-15925746D01*
X10211825Y-16106698D02*
X10221349Y-16116222D01*
X10211825Y-16125746D01*
X10202301Y-16116222D01*
X10211825Y-16106698D01*
X10211825Y-16125746D01*
X10392778Y-15925746D02*
X10354682Y-15925746D01*
X10335635Y-15935270D01*
X10326111Y-15944794D01*
X10307063Y-15973365D01*
X10297540Y-16011460D01*
X10297540Y-16087651D01*
X10307063Y-16106698D01*
X10316587Y-16116222D01*
X10335635Y-16125746D01*
X10373730Y-16125746D01*
X10392778Y-16116222D01*
X10402301Y-16106698D01*
X10411825Y-16087651D01*
X10411825Y-16040032D01*
X10402301Y-16020984D01*
X10392778Y-16011460D01*
X10373730Y-16001937D01*
X10335635Y-16001937D01*
X10316587Y-16011460D01*
X10307063Y-16020984D01*
X10297540Y-16040032D01*
X10583254Y-15925746D02*
X10545159Y-15925746D01*
X10526111Y-15935270D01*
X10516587Y-15944794D01*
X10497540Y-15973365D01*
X10488016Y-16011460D01*
X10488016Y-16087651D01*
X10497540Y-16106698D01*
X10507063Y-16116222D01*
X10526111Y-16125746D01*
X10564206Y-16125746D01*
X10583254Y-16116222D01*
X10592778Y-16106698D01*
X10602301Y-16087651D01*
X10602301Y-16040032D01*
X10592778Y-16020984D01*
X10583254Y-16011460D01*
X10564206Y-16001937D01*
X10526111Y-16001937D01*
X10507063Y-16011460D01*
X10497540Y-16020984D01*
X10488016Y-16040032D01*
X10726111Y-15925746D02*
X10745159Y-15925746D01*
X10764206Y-15935270D01*
X10773730Y-15944794D01*
X10783254Y-15963841D01*
X10792778Y-16001937D01*
X10792778Y-16049556D01*
X10783254Y-16087651D01*
X10773730Y-16106698D01*
X10764206Y-16116222D01*
X10745159Y-16125746D01*
X10726111Y-16125746D01*
X10707063Y-16116222D01*
X10697540Y-16106698D01*
X10688016Y-16087651D01*
X10678492Y-16049556D01*
X10678492Y-16001937D01*
X10688016Y-15963841D01*
X10697540Y-15944794D01*
X10707063Y-15935270D01*
X10726111Y-15925746D01*
X10878492Y-16125746D02*
X10878492Y-15992413D01*
X10878492Y-16011460D02*
X10888016Y-16001937D01*
X10907063Y-15992413D01*
X10935635Y-15992413D01*
X10954682Y-16001937D01*
X10964206Y-16020984D01*
X10964206Y-16125746D01*
X10964206Y-16020984D02*
X10973730Y-16001937D01*
X10992778Y-15992413D01*
X11021349Y-15992413D01*
X11040397Y-16001937D01*
X11049920Y-16020984D01*
X11049920Y-16125746D01*
X11145159Y-16125746D02*
X11145159Y-15992413D01*
X11145159Y-16011460D02*
X11154682Y-16001937D01*
X11173730Y-15992413D01*
X11202301Y-15992413D01*
X11221349Y-16001937D01*
X11230873Y-16020984D01*
X11230873Y-16125746D01*
X11230873Y-16020984D02*
X11240397Y-16001937D01*
X11259444Y-15992413D01*
X11288016Y-15992413D01*
X11307063Y-16001937D01*
X11316587Y-16020984D01*
X11316587Y-16125746D01*
X11707063Y-15916222D02*
X11535635Y-16173365D01*
X11964206Y-15925746D02*
X11983254Y-15925746D01*
X12002301Y-15935270D01*
X12011825Y-15944794D01*
X12021349Y-15963841D01*
X12030873Y-16001937D01*
X12030873Y-16049556D01*
X12021349Y-16087651D01*
X12011825Y-16106698D01*
X12002301Y-16116222D01*
X11983254Y-16125746D01*
X11964206Y-16125746D01*
X11945158Y-16116222D01*
X11935635Y-16106698D01*
X11926111Y-16087651D01*
X11916587Y-16049556D01*
X11916587Y-16001937D01*
X11926111Y-15963841D01*
X11935635Y-15944794D01*
X11945158Y-15935270D01*
X11964206Y-15925746D01*
X12116587Y-16106698D02*
X12126111Y-16116222D01*
X12116587Y-16125746D01*
X12107063Y-16116222D01*
X12116587Y-16106698D01*
X12116587Y-16125746D01*
X12249920Y-15925746D02*
X12268968Y-15925746D01*
X12288016Y-15935270D01*
X12297539Y-15944794D01*
X12307063Y-15963841D01*
X12316587Y-16001937D01*
X12316587Y-16049556D01*
X12307063Y-16087651D01*
X12297539Y-16106698D01*
X12288016Y-16116222D01*
X12268968Y-16125746D01*
X12249920Y-16125746D01*
X12230873Y-16116222D01*
X12221349Y-16106698D01*
X12211825Y-16087651D01*
X12202301Y-16049556D01*
X12202301Y-16001937D01*
X12211825Y-15963841D01*
X12221349Y-15944794D01*
X12230873Y-15935270D01*
X12249920Y-15925746D01*
X12392778Y-15944794D02*
X12402301Y-15935270D01*
X12421349Y-15925746D01*
X12468968Y-15925746D01*
X12488016Y-15935270D01*
X12497539Y-15944794D01*
X12507063Y-15963841D01*
X12507063Y-15982889D01*
X12497539Y-16011460D01*
X12383254Y-16125746D01*
X12507063Y-16125746D01*
X12678492Y-15925746D02*
X12640397Y-15925746D01*
X12621349Y-15935270D01*
X12611825Y-15944794D01*
X12592778Y-15973365D01*
X12583254Y-16011460D01*
X12583254Y-16087651D01*
X12592778Y-16106698D01*
X12602301Y-16116222D01*
X12621349Y-16125746D01*
X12659444Y-16125746D01*
X12678492Y-16116222D01*
X12688016Y-16106698D01*
X12697539Y-16087651D01*
X12697539Y-16040032D01*
X12688016Y-16020984D01*
X12678492Y-16011460D01*
X12659444Y-16001937D01*
X12621349Y-16001937D01*
X12602301Y-16011460D01*
X12592778Y-16020984D01*
X12583254Y-16040032D01*
X12821349Y-15925746D02*
X12840397Y-15925746D01*
X12859444Y-15935270D01*
X12868968Y-15944794D01*
X12878492Y-15963841D01*
X12888016Y-16001937D01*
X12888016Y-16049556D01*
X12878492Y-16087651D01*
X12868968Y-16106698D01*
X12859444Y-16116222D01*
X12840397Y-16125746D01*
X12821349Y-16125746D01*
X12802301Y-16116222D01*
X12792778Y-16106698D01*
X12783254Y-16087651D01*
X12773730Y-16049556D01*
X12773730Y-16001937D01*
X12783254Y-15963841D01*
X12792778Y-15944794D01*
X12802301Y-15935270D01*
X12821349Y-15925746D01*
X12964206Y-15925746D02*
X12964206Y-15963841D01*
X13040397Y-15925746D02*
X13040397Y-15963841D01*
X13335635Y-16201937D02*
X13326111Y-16192413D01*
X13307063Y-16163841D01*
X13297539Y-16144794D01*
X13288016Y-16116222D01*
X13278492Y-16068603D01*
X13278492Y-16030508D01*
X13288016Y-15982889D01*
X13297539Y-15954318D01*
X13307063Y-15935270D01*
X13326111Y-15906698D01*
X13335635Y-15897175D01*
X13402301Y-15944794D02*
X13411825Y-15935270D01*
X13430873Y-15925746D01*
X13478492Y-15925746D01*
X13497539Y-15935270D01*
X13507063Y-15944794D01*
X13516587Y-15963841D01*
X13516587Y-15982889D01*
X13507063Y-16011460D01*
X13392778Y-16125746D01*
X13516587Y-16125746D01*
X13754682Y-16125746D02*
X13754682Y-15925746D01*
X13840397Y-16125746D02*
X13840397Y-16020984D01*
X13830873Y-16001937D01*
X13811825Y-15992413D01*
X13783254Y-15992413D01*
X13764206Y-16001937D01*
X13754682Y-16011460D01*
X13964206Y-16125746D02*
X13945158Y-16116222D01*
X13935635Y-16106698D01*
X13926111Y-16087651D01*
X13926111Y-16030508D01*
X13935635Y-16011460D01*
X13945158Y-16001937D01*
X13964206Y-15992413D01*
X13992778Y-15992413D01*
X14011825Y-16001937D01*
X14021349Y-16011460D01*
X14030873Y-16030508D01*
X14030873Y-16087651D01*
X14021349Y-16106698D01*
X14011825Y-16116222D01*
X13992778Y-16125746D01*
X13964206Y-16125746D01*
X14145158Y-16125746D02*
X14126111Y-16116222D01*
X14116587Y-16097175D01*
X14116587Y-15925746D01*
X14297539Y-16116222D02*
X14278492Y-16125746D01*
X14240397Y-16125746D01*
X14221349Y-16116222D01*
X14211825Y-16097175D01*
X14211825Y-16020984D01*
X14221349Y-16001937D01*
X14240397Y-15992413D01*
X14278492Y-15992413D01*
X14297539Y-16001937D01*
X14307063Y-16020984D01*
X14307063Y-16040032D01*
X14211825Y-16059079D01*
X14383254Y-16116222D02*
X14402301Y-16125746D01*
X14440397Y-16125746D01*
X14459444Y-16116222D01*
X14468968Y-16097175D01*
X14468968Y-16087651D01*
X14459444Y-16068603D01*
X14440397Y-16059079D01*
X14411825Y-16059079D01*
X14392778Y-16049556D01*
X14383254Y-16030508D01*
X14383254Y-16020984D01*
X14392778Y-16001937D01*
X14411825Y-15992413D01*
X14440397Y-15992413D01*
X14459444Y-16001937D01*
X14535635Y-16201937D02*
X14545158Y-16192413D01*
X14564206Y-16163841D01*
X14573730Y-16144794D01*
X14583254Y-16116222D01*
X14592778Y-16068603D01*
X14592778Y-16030508D01*
X14583254Y-15982889D01*
X14573730Y-15954318D01*
X14564206Y-15935270D01*
X14545158Y-15906698D01*
X14535635Y-15897175D01*
D19*
X9685730Y-16260270D02*
X9763730Y-16338270D01*
X9763730Y-16260270D02*
X9685730Y-16338270D01*
X9752307Y-16326847D02*
X9752307Y-16271693D01*
X9697153Y-16271693D01*
X9697153Y-16326847D01*
X9752307Y-16326847D01*
D11*
X10059444Y-16189746D02*
X10078492Y-16189746D01*
X10097540Y-16199270D01*
X10107063Y-16208794D01*
X10116587Y-16227841D01*
X10126111Y-16265937D01*
X10126111Y-16313556D01*
X10116587Y-16351651D01*
X10107063Y-16370698D01*
X10097540Y-16380222D01*
X10078492Y-16389746D01*
X10059444Y-16389746D01*
X10040397Y-16380222D01*
X10030873Y-16370698D01*
X10021349Y-16351651D01*
X10011825Y-16313556D01*
X10011825Y-16265937D01*
X10021349Y-16227841D01*
X10030873Y-16208794D01*
X10040397Y-16199270D01*
X10059444Y-16189746D01*
X10211825Y-16370698D02*
X10221349Y-16380222D01*
X10211825Y-16389746D01*
X10202301Y-16380222D01*
X10211825Y-16370698D01*
X10211825Y-16389746D01*
X10288016Y-16189746D02*
X10421349Y-16189746D01*
X10335635Y-16389746D01*
X10526111Y-16275460D02*
X10507063Y-16265937D01*
X10497540Y-16256413D01*
X10488016Y-16237365D01*
X10488016Y-16227841D01*
X10497540Y-16208794D01*
X10507063Y-16199270D01*
X10526111Y-16189746D01*
X10564206Y-16189746D01*
X10583254Y-16199270D01*
X10592778Y-16208794D01*
X10602301Y-16227841D01*
X10602301Y-16237365D01*
X10592778Y-16256413D01*
X10583254Y-16265937D01*
X10564206Y-16275460D01*
X10526111Y-16275460D01*
X10507063Y-16284984D01*
X10497540Y-16294508D01*
X10488016Y-16313556D01*
X10488016Y-16351651D01*
X10497540Y-16370698D01*
X10507063Y-16380222D01*
X10526111Y-16389746D01*
X10564206Y-16389746D01*
X10583254Y-16380222D01*
X10592778Y-16370698D01*
X10602301Y-16351651D01*
X10602301Y-16313556D01*
X10592778Y-16294508D01*
X10583254Y-16284984D01*
X10564206Y-16275460D01*
X10726111Y-16189746D02*
X10745159Y-16189746D01*
X10764206Y-16199270D01*
X10773730Y-16208794D01*
X10783254Y-16227841D01*
X10792778Y-16265937D01*
X10792778Y-16313556D01*
X10783254Y-16351651D01*
X10773730Y-16370698D01*
X10764206Y-16380222D01*
X10745159Y-16389746D01*
X10726111Y-16389746D01*
X10707063Y-16380222D01*
X10697540Y-16370698D01*
X10688016Y-16351651D01*
X10678492Y-16313556D01*
X10678492Y-16265937D01*
X10688016Y-16227841D01*
X10697540Y-16208794D01*
X10707063Y-16199270D01*
X10726111Y-16189746D01*
X10878492Y-16389746D02*
X10878492Y-16256413D01*
X10878492Y-16275460D02*
X10888016Y-16265937D01*
X10907063Y-16256413D01*
X10935635Y-16256413D01*
X10954682Y-16265937D01*
X10964206Y-16284984D01*
X10964206Y-16389746D01*
X10964206Y-16284984D02*
X10973730Y-16265937D01*
X10992778Y-16256413D01*
X11021349Y-16256413D01*
X11040397Y-16265937D01*
X11049920Y-16284984D01*
X11049920Y-16389746D01*
X11145159Y-16389746D02*
X11145159Y-16256413D01*
X11145159Y-16275460D02*
X11154682Y-16265937D01*
X11173730Y-16256413D01*
X11202301Y-16256413D01*
X11221349Y-16265937D01*
X11230873Y-16284984D01*
X11230873Y-16389746D01*
X11230873Y-16284984D02*
X11240397Y-16265937D01*
X11259444Y-16256413D01*
X11288016Y-16256413D01*
X11307063Y-16265937D01*
X11316587Y-16284984D01*
X11316587Y-16389746D01*
X11707063Y-16180222D02*
X11535635Y-16437365D01*
X11964206Y-16189746D02*
X11983254Y-16189746D01*
X12002301Y-16199270D01*
X12011825Y-16208794D01*
X12021349Y-16227841D01*
X12030873Y-16265937D01*
X12030873Y-16313556D01*
X12021349Y-16351651D01*
X12011825Y-16370698D01*
X12002301Y-16380222D01*
X11983254Y-16389746D01*
X11964206Y-16389746D01*
X11945158Y-16380222D01*
X11935635Y-16370698D01*
X11926111Y-16351651D01*
X11916587Y-16313556D01*
X11916587Y-16265937D01*
X11926111Y-16227841D01*
X11935635Y-16208794D01*
X11945158Y-16199270D01*
X11964206Y-16189746D01*
X12116587Y-16370698D02*
X12126111Y-16380222D01*
X12116587Y-16389746D01*
X12107063Y-16380222D01*
X12116587Y-16370698D01*
X12116587Y-16389746D01*
X12249920Y-16189746D02*
X12268968Y-16189746D01*
X12288016Y-16199270D01*
X12297539Y-16208794D01*
X12307063Y-16227841D01*
X12316587Y-16265937D01*
X12316587Y-16313556D01*
X12307063Y-16351651D01*
X12297539Y-16370698D01*
X12288016Y-16380222D01*
X12268968Y-16389746D01*
X12249920Y-16389746D01*
X12230873Y-16380222D01*
X12221349Y-16370698D01*
X12211825Y-16351651D01*
X12202301Y-16313556D01*
X12202301Y-16265937D01*
X12211825Y-16227841D01*
X12221349Y-16208794D01*
X12230873Y-16199270D01*
X12249920Y-16189746D01*
X12383254Y-16189746D02*
X12507063Y-16189746D01*
X12440397Y-16265937D01*
X12468968Y-16265937D01*
X12488016Y-16275460D01*
X12497539Y-16284984D01*
X12507063Y-16304032D01*
X12507063Y-16351651D01*
X12497539Y-16370698D01*
X12488016Y-16380222D01*
X12468968Y-16389746D01*
X12411825Y-16389746D01*
X12392778Y-16380222D01*
X12383254Y-16370698D01*
X12630873Y-16189746D02*
X12649920Y-16189746D01*
X12668968Y-16199270D01*
X12678492Y-16208794D01*
X12688016Y-16227841D01*
X12697539Y-16265937D01*
X12697539Y-16313556D01*
X12688016Y-16351651D01*
X12678492Y-16370698D01*
X12668968Y-16380222D01*
X12649920Y-16389746D01*
X12630873Y-16389746D01*
X12611825Y-16380222D01*
X12602301Y-16370698D01*
X12592778Y-16351651D01*
X12583254Y-16313556D01*
X12583254Y-16265937D01*
X12592778Y-16227841D01*
X12602301Y-16208794D01*
X12611825Y-16199270D01*
X12630873Y-16189746D01*
X12764206Y-16189746D02*
X12897539Y-16189746D01*
X12811825Y-16389746D01*
X12964206Y-16189746D02*
X12964206Y-16227841D01*
X13040397Y-16189746D02*
X13040397Y-16227841D01*
X13335635Y-16465937D02*
X13326111Y-16456413D01*
X13307063Y-16427841D01*
X13297539Y-16408794D01*
X13288016Y-16380222D01*
X13278492Y-16332603D01*
X13278492Y-16294508D01*
X13288016Y-16246889D01*
X13297539Y-16218318D01*
X13307063Y-16199270D01*
X13326111Y-16170698D01*
X13335635Y-16161175D01*
X13497539Y-16256413D02*
X13497539Y-16389746D01*
X13449920Y-16180222D02*
X13402301Y-16323079D01*
X13526111Y-16323079D01*
X13754682Y-16389746D02*
X13754682Y-16189746D01*
X13840397Y-16389746D02*
X13840397Y-16284984D01*
X13830873Y-16265937D01*
X13811825Y-16256413D01*
X13783254Y-16256413D01*
X13764206Y-16265937D01*
X13754682Y-16275460D01*
X13964206Y-16389746D02*
X13945158Y-16380222D01*
X13935635Y-16370698D01*
X13926111Y-16351651D01*
X13926111Y-16294508D01*
X13935635Y-16275460D01*
X13945158Y-16265937D01*
X13964206Y-16256413D01*
X13992778Y-16256413D01*
X14011825Y-16265937D01*
X14021349Y-16275460D01*
X14030873Y-16294508D01*
X14030873Y-16351651D01*
X14021349Y-16370698D01*
X14011825Y-16380222D01*
X13992778Y-16389746D01*
X13964206Y-16389746D01*
X14145158Y-16389746D02*
X14126111Y-16380222D01*
X14116587Y-16361175D01*
X14116587Y-16189746D01*
X14297539Y-16380222D02*
X14278492Y-16389746D01*
X14240397Y-16389746D01*
X14221349Y-16380222D01*
X14211825Y-16361175D01*
X14211825Y-16284984D01*
X14221349Y-16265937D01*
X14240397Y-16256413D01*
X14278492Y-16256413D01*
X14297539Y-16265937D01*
X14307063Y-16284984D01*
X14307063Y-16304032D01*
X14211825Y-16323079D01*
X14383254Y-16380222D02*
X14402301Y-16389746D01*
X14440397Y-16389746D01*
X14459444Y-16380222D01*
X14468968Y-16361175D01*
X14468968Y-16351651D01*
X14459444Y-16332603D01*
X14440397Y-16323079D01*
X14411825Y-16323079D01*
X14392778Y-16313556D01*
X14383254Y-16294508D01*
X14383254Y-16284984D01*
X14392778Y-16265937D01*
X14411825Y-16256413D01*
X14440397Y-16256413D01*
X14459444Y-16265937D01*
X14535635Y-16465937D02*
X14545158Y-16456413D01*
X14564206Y-16427841D01*
X14573730Y-16408794D01*
X14583254Y-16380222D01*
X14592778Y-16332603D01*
X14592778Y-16294508D01*
X14583254Y-16246889D01*
X14573730Y-16218318D01*
X14564206Y-16199270D01*
X14545158Y-16170698D01*
X14535635Y-16161175D01*
D20*
X9683730Y-16523270D02*
X9763730Y-16603270D01*
X9763730Y-16523270D02*
X9683730Y-16603270D01*
X9723730Y-16603270D02*
X9763730Y-16563270D01*
X9723730Y-16523270D01*
X9683730Y-16563270D01*
X9723730Y-16603270D01*
D11*
X10059444Y-16453746D02*
X10078492Y-16453746D01*
X10097540Y-16463270D01*
X10107063Y-16472794D01*
X10116587Y-16491841D01*
X10126111Y-16529937D01*
X10126111Y-16577556D01*
X10116587Y-16615651D01*
X10107063Y-16634698D01*
X10097540Y-16644222D01*
X10078492Y-16653746D01*
X10059444Y-16653746D01*
X10040397Y-16644222D01*
X10030873Y-16634698D01*
X10021349Y-16615651D01*
X10011825Y-16577556D01*
X10011825Y-16529937D01*
X10021349Y-16491841D01*
X10030873Y-16472794D01*
X10040397Y-16463270D01*
X10059444Y-16453746D01*
X10211825Y-16634698D02*
X10221349Y-16644222D01*
X10211825Y-16653746D01*
X10202301Y-16644222D01*
X10211825Y-16634698D01*
X10211825Y-16653746D01*
X10335635Y-16539460D02*
X10316587Y-16529937D01*
X10307063Y-16520413D01*
X10297540Y-16501365D01*
X10297540Y-16491841D01*
X10307063Y-16472794D01*
X10316587Y-16463270D01*
X10335635Y-16453746D01*
X10373730Y-16453746D01*
X10392778Y-16463270D01*
X10402301Y-16472794D01*
X10411825Y-16491841D01*
X10411825Y-16501365D01*
X10402301Y-16520413D01*
X10392778Y-16529937D01*
X10373730Y-16539460D01*
X10335635Y-16539460D01*
X10316587Y-16548984D01*
X10307063Y-16558508D01*
X10297540Y-16577556D01*
X10297540Y-16615651D01*
X10307063Y-16634698D01*
X10316587Y-16644222D01*
X10335635Y-16653746D01*
X10373730Y-16653746D01*
X10392778Y-16644222D01*
X10402301Y-16634698D01*
X10411825Y-16615651D01*
X10411825Y-16577556D01*
X10402301Y-16558508D01*
X10392778Y-16548984D01*
X10373730Y-16539460D01*
X10535635Y-16453746D02*
X10554682Y-16453746D01*
X10573730Y-16463270D01*
X10583254Y-16472794D01*
X10592778Y-16491841D01*
X10602301Y-16529937D01*
X10602301Y-16577556D01*
X10592778Y-16615651D01*
X10583254Y-16634698D01*
X10573730Y-16644222D01*
X10554682Y-16653746D01*
X10535635Y-16653746D01*
X10516587Y-16644222D01*
X10507063Y-16634698D01*
X10497540Y-16615651D01*
X10488016Y-16577556D01*
X10488016Y-16529937D01*
X10497540Y-16491841D01*
X10507063Y-16472794D01*
X10516587Y-16463270D01*
X10535635Y-16453746D01*
X10726111Y-16453746D02*
X10745159Y-16453746D01*
X10764206Y-16463270D01*
X10773730Y-16472794D01*
X10783254Y-16491841D01*
X10792778Y-16529937D01*
X10792778Y-16577556D01*
X10783254Y-16615651D01*
X10773730Y-16634698D01*
X10764206Y-16644222D01*
X10745159Y-16653746D01*
X10726111Y-16653746D01*
X10707063Y-16644222D01*
X10697540Y-16634698D01*
X10688016Y-16615651D01*
X10678492Y-16577556D01*
X10678492Y-16529937D01*
X10688016Y-16491841D01*
X10697540Y-16472794D01*
X10707063Y-16463270D01*
X10726111Y-16453746D01*
X10878492Y-16653746D02*
X10878492Y-16520413D01*
X10878492Y-16539460D02*
X10888016Y-16529937D01*
X10907063Y-16520413D01*
X10935635Y-16520413D01*
X10954682Y-16529937D01*
X10964206Y-16548984D01*
X10964206Y-16653746D01*
X10964206Y-16548984D02*
X10973730Y-16529937D01*
X10992778Y-16520413D01*
X11021349Y-16520413D01*
X11040397Y-16529937D01*
X11049920Y-16548984D01*
X11049920Y-16653746D01*
X11145159Y-16653746D02*
X11145159Y-16520413D01*
X11145159Y-16539460D02*
X11154682Y-16529937D01*
X11173730Y-16520413D01*
X11202301Y-16520413D01*
X11221349Y-16529937D01*
X11230873Y-16548984D01*
X11230873Y-16653746D01*
X11230873Y-16548984D02*
X11240397Y-16529937D01*
X11259444Y-16520413D01*
X11288016Y-16520413D01*
X11307063Y-16529937D01*
X11316587Y-16548984D01*
X11316587Y-16653746D01*
X11707063Y-16444222D02*
X11535635Y-16701365D01*
X11964206Y-16453746D02*
X11983254Y-16453746D01*
X12002301Y-16463270D01*
X12011825Y-16472794D01*
X12021349Y-16491841D01*
X12030873Y-16529937D01*
X12030873Y-16577556D01*
X12021349Y-16615651D01*
X12011825Y-16634698D01*
X12002301Y-16644222D01*
X11983254Y-16653746D01*
X11964206Y-16653746D01*
X11945158Y-16644222D01*
X11935635Y-16634698D01*
X11926111Y-16615651D01*
X11916587Y-16577556D01*
X11916587Y-16529937D01*
X11926111Y-16491841D01*
X11935635Y-16472794D01*
X11945158Y-16463270D01*
X11964206Y-16453746D01*
X12116587Y-16634698D02*
X12126111Y-16644222D01*
X12116587Y-16653746D01*
X12107063Y-16644222D01*
X12116587Y-16634698D01*
X12116587Y-16653746D01*
X12249920Y-16453746D02*
X12268968Y-16453746D01*
X12288016Y-16463270D01*
X12297539Y-16472794D01*
X12307063Y-16491841D01*
X12316587Y-16529937D01*
X12316587Y-16577556D01*
X12307063Y-16615651D01*
X12297539Y-16634698D01*
X12288016Y-16644222D01*
X12268968Y-16653746D01*
X12249920Y-16653746D01*
X12230873Y-16644222D01*
X12221349Y-16634698D01*
X12211825Y-16615651D01*
X12202301Y-16577556D01*
X12202301Y-16529937D01*
X12211825Y-16491841D01*
X12221349Y-16472794D01*
X12230873Y-16463270D01*
X12249920Y-16453746D01*
X12383254Y-16453746D02*
X12507063Y-16453746D01*
X12440397Y-16529937D01*
X12468968Y-16529937D01*
X12488016Y-16539460D01*
X12497539Y-16548984D01*
X12507063Y-16568032D01*
X12507063Y-16615651D01*
X12497539Y-16634698D01*
X12488016Y-16644222D01*
X12468968Y-16653746D01*
X12411825Y-16653746D01*
X12392778Y-16644222D01*
X12383254Y-16634698D01*
X12697539Y-16653746D02*
X12583254Y-16653746D01*
X12640397Y-16653746D02*
X12640397Y-16453746D01*
X12621349Y-16482318D01*
X12602301Y-16501365D01*
X12583254Y-16510889D01*
X12878492Y-16453746D02*
X12783254Y-16453746D01*
X12773730Y-16548984D01*
X12783254Y-16539460D01*
X12802301Y-16529937D01*
X12849920Y-16529937D01*
X12868968Y-16539460D01*
X12878492Y-16548984D01*
X12888016Y-16568032D01*
X12888016Y-16615651D01*
X12878492Y-16634698D01*
X12868968Y-16644222D01*
X12849920Y-16653746D01*
X12802301Y-16653746D01*
X12783254Y-16644222D01*
X12773730Y-16634698D01*
X12964206Y-16453746D02*
X12964206Y-16491841D01*
X13040397Y-16453746D02*
X13040397Y-16491841D01*
X13335635Y-16729937D02*
X13326111Y-16720413D01*
X13307063Y-16691841D01*
X13297539Y-16672794D01*
X13288016Y-16644222D01*
X13278492Y-16596603D01*
X13278492Y-16558508D01*
X13288016Y-16510889D01*
X13297539Y-16482318D01*
X13307063Y-16463270D01*
X13326111Y-16434698D01*
X13335635Y-16425175D01*
X13402301Y-16472794D02*
X13411825Y-16463270D01*
X13430873Y-16453746D01*
X13478492Y-16453746D01*
X13497539Y-16463270D01*
X13507063Y-16472794D01*
X13516587Y-16491841D01*
X13516587Y-16510889D01*
X13507063Y-16539460D01*
X13392778Y-16653746D01*
X13516587Y-16653746D01*
X13754682Y-16653746D02*
X13754682Y-16453746D01*
X13840397Y-16653746D02*
X13840397Y-16548984D01*
X13830873Y-16529937D01*
X13811825Y-16520413D01*
X13783254Y-16520413D01*
X13764206Y-16529937D01*
X13754682Y-16539460D01*
X13964206Y-16653746D02*
X13945158Y-16644222D01*
X13935635Y-16634698D01*
X13926111Y-16615651D01*
X13926111Y-16558508D01*
X13935635Y-16539460D01*
X13945158Y-16529937D01*
X13964206Y-16520413D01*
X13992778Y-16520413D01*
X14011825Y-16529937D01*
X14021349Y-16539460D01*
X14030873Y-16558508D01*
X14030873Y-16615651D01*
X14021349Y-16634698D01*
X14011825Y-16644222D01*
X13992778Y-16653746D01*
X13964206Y-16653746D01*
X14145158Y-16653746D02*
X14126111Y-16644222D01*
X14116587Y-16625175D01*
X14116587Y-16453746D01*
X14297539Y-16644222D02*
X14278492Y-16653746D01*
X14240397Y-16653746D01*
X14221349Y-16644222D01*
X14211825Y-16625175D01*
X14211825Y-16548984D01*
X14221349Y-16529937D01*
X14240397Y-16520413D01*
X14278492Y-16520413D01*
X14297539Y-16529937D01*
X14307063Y-16548984D01*
X14307063Y-16568032D01*
X14211825Y-16587079D01*
X14383254Y-16644222D02*
X14402301Y-16653746D01*
X14440397Y-16653746D01*
X14459444Y-16644222D01*
X14468968Y-16625175D01*
X14468968Y-16615651D01*
X14459444Y-16596603D01*
X14440397Y-16587079D01*
X14411825Y-16587079D01*
X14392778Y-16577556D01*
X14383254Y-16558508D01*
X14383254Y-16548984D01*
X14392778Y-16529937D01*
X14411825Y-16520413D01*
X14440397Y-16520413D01*
X14459444Y-16529937D01*
X14535635Y-16729937D02*
X14545158Y-16720413D01*
X14564206Y-16691841D01*
X14573730Y-16672794D01*
X14583254Y-16644222D01*
X14592778Y-16596603D01*
X14592778Y-16558508D01*
X14583254Y-16510889D01*
X14573730Y-16482318D01*
X14564206Y-16463270D01*
X14545158Y-16434698D01*
X14535635Y-16425175D01*
D20*
X9723730Y-16787270D02*
X9723730Y-16867270D01*
X9683730Y-16827270D02*
X9763730Y-16827270D01*
X9763730Y-16827270D02*
G75*
G03*
X9763730Y-16827270I-40000J0D01*
G01*
D11*
X10059444Y-16717746D02*
X10078492Y-16717746D01*
X10097540Y-16727270D01*
X10107063Y-16736794D01*
X10116587Y-16755841D01*
X10126111Y-16793937D01*
X10126111Y-16841556D01*
X10116587Y-16879651D01*
X10107063Y-16898699D01*
X10097540Y-16908222D01*
X10078492Y-16917746D01*
X10059444Y-16917746D01*
X10040397Y-16908222D01*
X10030873Y-16898699D01*
X10021349Y-16879651D01*
X10011825Y-16841556D01*
X10011825Y-16793937D01*
X10021349Y-16755841D01*
X10030873Y-16736794D01*
X10040397Y-16727270D01*
X10059444Y-16717746D01*
X10211825Y-16898699D02*
X10221349Y-16908222D01*
X10211825Y-16917746D01*
X10202301Y-16908222D01*
X10211825Y-16898699D01*
X10211825Y-16917746D01*
X10335635Y-16803460D02*
X10316587Y-16793937D01*
X10307063Y-16784413D01*
X10297540Y-16765365D01*
X10297540Y-16755841D01*
X10307063Y-16736794D01*
X10316587Y-16727270D01*
X10335635Y-16717746D01*
X10373730Y-16717746D01*
X10392778Y-16727270D01*
X10402301Y-16736794D01*
X10411825Y-16755841D01*
X10411825Y-16765365D01*
X10402301Y-16784413D01*
X10392778Y-16793937D01*
X10373730Y-16803460D01*
X10335635Y-16803460D01*
X10316587Y-16812984D01*
X10307063Y-16822508D01*
X10297540Y-16841556D01*
X10297540Y-16879651D01*
X10307063Y-16898699D01*
X10316587Y-16908222D01*
X10335635Y-16917746D01*
X10373730Y-16917746D01*
X10392778Y-16908222D01*
X10402301Y-16898699D01*
X10411825Y-16879651D01*
X10411825Y-16841556D01*
X10402301Y-16822508D01*
X10392778Y-16812984D01*
X10373730Y-16803460D01*
X10535635Y-16717746D02*
X10554682Y-16717746D01*
X10573730Y-16727270D01*
X10583254Y-16736794D01*
X10592778Y-16755841D01*
X10602301Y-16793937D01*
X10602301Y-16841556D01*
X10592778Y-16879651D01*
X10583254Y-16898699D01*
X10573730Y-16908222D01*
X10554682Y-16917746D01*
X10535635Y-16917746D01*
X10516587Y-16908222D01*
X10507063Y-16898699D01*
X10497540Y-16879651D01*
X10488016Y-16841556D01*
X10488016Y-16793937D01*
X10497540Y-16755841D01*
X10507063Y-16736794D01*
X10516587Y-16727270D01*
X10535635Y-16717746D01*
X10726111Y-16717746D02*
X10745159Y-16717746D01*
X10764206Y-16727270D01*
X10773730Y-16736794D01*
X10783254Y-16755841D01*
X10792778Y-16793937D01*
X10792778Y-16841556D01*
X10783254Y-16879651D01*
X10773730Y-16898699D01*
X10764206Y-16908222D01*
X10745159Y-16917746D01*
X10726111Y-16917746D01*
X10707063Y-16908222D01*
X10697540Y-16898699D01*
X10688016Y-16879651D01*
X10678492Y-16841556D01*
X10678492Y-16793937D01*
X10688016Y-16755841D01*
X10697540Y-16736794D01*
X10707063Y-16727270D01*
X10726111Y-16717746D01*
X10878492Y-16917746D02*
X10878492Y-16784413D01*
X10878492Y-16803460D02*
X10888016Y-16793937D01*
X10907063Y-16784413D01*
X10935635Y-16784413D01*
X10954682Y-16793937D01*
X10964206Y-16812984D01*
X10964206Y-16917746D01*
X10964206Y-16812984D02*
X10973730Y-16793937D01*
X10992778Y-16784413D01*
X11021349Y-16784413D01*
X11040397Y-16793937D01*
X11049920Y-16812984D01*
X11049920Y-16917746D01*
X11145159Y-16917746D02*
X11145159Y-16784413D01*
X11145159Y-16803460D02*
X11154682Y-16793937D01*
X11173730Y-16784413D01*
X11202301Y-16784413D01*
X11221349Y-16793937D01*
X11230873Y-16812984D01*
X11230873Y-16917746D01*
X11230873Y-16812984D02*
X11240397Y-16793937D01*
X11259444Y-16784413D01*
X11288016Y-16784413D01*
X11307063Y-16793937D01*
X11316587Y-16812984D01*
X11316587Y-16917746D01*
X11707063Y-16708222D02*
X11535635Y-16965365D01*
X11964206Y-16717746D02*
X11983254Y-16717746D01*
X12002301Y-16727270D01*
X12011825Y-16736794D01*
X12021349Y-16755841D01*
X12030873Y-16793937D01*
X12030873Y-16841556D01*
X12021349Y-16879651D01*
X12011825Y-16898699D01*
X12002301Y-16908222D01*
X11983254Y-16917746D01*
X11964206Y-16917746D01*
X11945158Y-16908222D01*
X11935635Y-16898699D01*
X11926111Y-16879651D01*
X11916587Y-16841556D01*
X11916587Y-16793937D01*
X11926111Y-16755841D01*
X11935635Y-16736794D01*
X11945158Y-16727270D01*
X11964206Y-16717746D01*
X12116587Y-16898699D02*
X12126111Y-16908222D01*
X12116587Y-16917746D01*
X12107063Y-16908222D01*
X12116587Y-16898699D01*
X12116587Y-16917746D01*
X12249920Y-16717746D02*
X12268968Y-16717746D01*
X12288016Y-16727270D01*
X12297539Y-16736794D01*
X12307063Y-16755841D01*
X12316587Y-16793937D01*
X12316587Y-16841556D01*
X12307063Y-16879651D01*
X12297539Y-16898699D01*
X12288016Y-16908222D01*
X12268968Y-16917746D01*
X12249920Y-16917746D01*
X12230873Y-16908222D01*
X12221349Y-16898699D01*
X12211825Y-16879651D01*
X12202301Y-16841556D01*
X12202301Y-16793937D01*
X12211825Y-16755841D01*
X12221349Y-16736794D01*
X12230873Y-16727270D01*
X12249920Y-16717746D01*
X12383254Y-16717746D02*
X12507063Y-16717746D01*
X12440397Y-16793937D01*
X12468968Y-16793937D01*
X12488016Y-16803460D01*
X12497539Y-16812984D01*
X12507063Y-16832032D01*
X12507063Y-16879651D01*
X12497539Y-16898699D01*
X12488016Y-16908222D01*
X12468968Y-16917746D01*
X12411825Y-16917746D01*
X12392778Y-16908222D01*
X12383254Y-16898699D01*
X12697539Y-16917746D02*
X12583254Y-16917746D01*
X12640397Y-16917746D02*
X12640397Y-16717746D01*
X12621349Y-16746318D01*
X12602301Y-16765365D01*
X12583254Y-16774889D01*
X12878492Y-16717746D02*
X12783254Y-16717746D01*
X12773730Y-16812984D01*
X12783254Y-16803460D01*
X12802301Y-16793937D01*
X12849920Y-16793937D01*
X12868968Y-16803460D01*
X12878492Y-16812984D01*
X12888016Y-16832032D01*
X12888016Y-16879651D01*
X12878492Y-16898699D01*
X12868968Y-16908222D01*
X12849920Y-16917746D01*
X12802301Y-16917746D01*
X12783254Y-16908222D01*
X12773730Y-16898699D01*
X12964206Y-16717746D02*
X12964206Y-16755841D01*
X13040397Y-16717746D02*
X13040397Y-16755841D01*
X13335635Y-16993937D02*
X13326111Y-16984413D01*
X13307063Y-16955841D01*
X13297539Y-16936794D01*
X13288016Y-16908222D01*
X13278492Y-16860603D01*
X13278492Y-16822508D01*
X13288016Y-16774889D01*
X13297539Y-16746318D01*
X13307063Y-16727270D01*
X13326111Y-16698698D01*
X13335635Y-16689175D01*
X13516587Y-16917746D02*
X13402301Y-16917746D01*
X13459444Y-16917746D02*
X13459444Y-16717746D01*
X13440397Y-16746318D01*
X13421349Y-16765365D01*
X13402301Y-16774889D01*
X13640397Y-16717746D02*
X13659444Y-16717746D01*
X13678492Y-16727270D01*
X13688016Y-16736794D01*
X13697539Y-16755841D01*
X13707063Y-16793937D01*
X13707063Y-16841556D01*
X13697539Y-16879651D01*
X13688016Y-16898699D01*
X13678492Y-16908222D01*
X13659444Y-16917746D01*
X13640397Y-16917746D01*
X13621349Y-16908222D01*
X13611825Y-16898699D01*
X13602301Y-16879651D01*
X13592778Y-16841556D01*
X13592778Y-16793937D01*
X13602301Y-16755841D01*
X13611825Y-16736794D01*
X13621349Y-16727270D01*
X13640397Y-16717746D01*
X13945158Y-16917746D02*
X13945158Y-16717746D01*
X14030873Y-16917746D02*
X14030873Y-16812984D01*
X14021349Y-16793937D01*
X14002301Y-16784413D01*
X13973730Y-16784413D01*
X13954682Y-16793937D01*
X13945158Y-16803460D01*
X14154682Y-16917746D02*
X14135635Y-16908222D01*
X14126111Y-16898699D01*
X14116587Y-16879651D01*
X14116587Y-16822508D01*
X14126111Y-16803460D01*
X14135635Y-16793937D01*
X14154682Y-16784413D01*
X14183254Y-16784413D01*
X14202301Y-16793937D01*
X14211825Y-16803460D01*
X14221349Y-16822508D01*
X14221349Y-16879651D01*
X14211825Y-16898699D01*
X14202301Y-16908222D01*
X14183254Y-16917746D01*
X14154682Y-16917746D01*
X14335635Y-16917746D02*
X14316587Y-16908222D01*
X14307063Y-16889175D01*
X14307063Y-16717746D01*
X14488016Y-16908222D02*
X14468968Y-16917746D01*
X14430873Y-16917746D01*
X14411825Y-16908222D01*
X14402301Y-16889175D01*
X14402301Y-16812984D01*
X14411825Y-16793937D01*
X14430873Y-16784413D01*
X14468968Y-16784413D01*
X14488016Y-16793937D01*
X14497539Y-16812984D01*
X14497539Y-16832032D01*
X14402301Y-16851080D01*
X14573730Y-16908222D02*
X14592778Y-16917746D01*
X14630873Y-16917746D01*
X14649920Y-16908222D01*
X14659444Y-16889175D01*
X14659444Y-16879651D01*
X14649920Y-16860603D01*
X14630873Y-16851080D01*
X14602301Y-16851080D01*
X14583254Y-16841556D01*
X14573730Y-16822508D01*
X14573730Y-16812984D01*
X14583254Y-16793937D01*
X14602301Y-16784413D01*
X14630873Y-16784413D01*
X14649920Y-16793937D01*
X14726111Y-16993937D02*
X14735635Y-16984413D01*
X14754682Y-16955841D01*
X14764206Y-16936794D01*
X14773730Y-16908222D01*
X14783254Y-16860603D01*
X14783254Y-16822508D01*
X14773730Y-16774889D01*
X14764206Y-16746318D01*
X14754682Y-16727270D01*
X14735635Y-16698698D01*
X14726111Y-16689175D01*
D21*
X9749818Y-17124858D02*
X9749818Y-17057682D01*
X9682642Y-17057682D01*
X9682642Y-17124858D01*
X9749818Y-17124858D01*
X9763730Y-17091270D02*
G75*
G03*
X9763730Y-17091270I-47500J0D01*
G01*
D11*
X10059444Y-16981746D02*
X10078492Y-16981746D01*
X10097540Y-16991270D01*
X10107063Y-17000794D01*
X10116587Y-17019841D01*
X10126111Y-17057937D01*
X10126111Y-17105556D01*
X10116587Y-17143651D01*
X10107063Y-17162699D01*
X10097540Y-17172222D01*
X10078492Y-17181746D01*
X10059444Y-17181746D01*
X10040397Y-17172222D01*
X10030873Y-17162699D01*
X10021349Y-17143651D01*
X10011825Y-17105556D01*
X10011825Y-17057937D01*
X10021349Y-17019841D01*
X10030873Y-17000794D01*
X10040397Y-16991270D01*
X10059444Y-16981746D01*
X10211825Y-17162699D02*
X10221349Y-17172222D01*
X10211825Y-17181746D01*
X10202301Y-17172222D01*
X10211825Y-17162699D01*
X10211825Y-17181746D01*
X10316587Y-17181746D02*
X10354682Y-17181746D01*
X10373730Y-17172222D01*
X10383254Y-17162699D01*
X10402301Y-17134127D01*
X10411825Y-17096032D01*
X10411825Y-17019841D01*
X10402301Y-17000794D01*
X10392778Y-16991270D01*
X10373730Y-16981746D01*
X10335635Y-16981746D01*
X10316587Y-16991270D01*
X10307063Y-17000794D01*
X10297540Y-17019841D01*
X10297540Y-17067460D01*
X10307063Y-17086508D01*
X10316587Y-17096032D01*
X10335635Y-17105556D01*
X10373730Y-17105556D01*
X10392778Y-17096032D01*
X10402301Y-17086508D01*
X10411825Y-17067460D01*
X10592778Y-16981746D02*
X10497540Y-16981746D01*
X10488016Y-17076984D01*
X10497540Y-17067460D01*
X10516587Y-17057937D01*
X10564206Y-17057937D01*
X10583254Y-17067460D01*
X10592778Y-17076984D01*
X10602301Y-17096032D01*
X10602301Y-17143651D01*
X10592778Y-17162699D01*
X10583254Y-17172222D01*
X10564206Y-17181746D01*
X10516587Y-17181746D01*
X10497540Y-17172222D01*
X10488016Y-17162699D01*
X10726111Y-16981746D02*
X10745159Y-16981746D01*
X10764206Y-16991270D01*
X10773730Y-17000794D01*
X10783254Y-17019841D01*
X10792778Y-17057937D01*
X10792778Y-17105556D01*
X10783254Y-17143651D01*
X10773730Y-17162699D01*
X10764206Y-17172222D01*
X10745159Y-17181746D01*
X10726111Y-17181746D01*
X10707063Y-17172222D01*
X10697540Y-17162699D01*
X10688016Y-17143651D01*
X10678492Y-17105556D01*
X10678492Y-17057937D01*
X10688016Y-17019841D01*
X10697540Y-17000794D01*
X10707063Y-16991270D01*
X10726111Y-16981746D01*
X10878492Y-17181746D02*
X10878492Y-17048413D01*
X10878492Y-17067460D02*
X10888016Y-17057937D01*
X10907063Y-17048413D01*
X10935635Y-17048413D01*
X10954682Y-17057937D01*
X10964206Y-17076984D01*
X10964206Y-17181746D01*
X10964206Y-17076984D02*
X10973730Y-17057937D01*
X10992778Y-17048413D01*
X11021349Y-17048413D01*
X11040397Y-17057937D01*
X11049920Y-17076984D01*
X11049920Y-17181746D01*
X11145159Y-17181746D02*
X11145159Y-17048413D01*
X11145159Y-17067460D02*
X11154682Y-17057937D01*
X11173730Y-17048413D01*
X11202301Y-17048413D01*
X11221349Y-17057937D01*
X11230873Y-17076984D01*
X11230873Y-17181746D01*
X11230873Y-17076984D02*
X11240397Y-17057937D01*
X11259444Y-17048413D01*
X11288016Y-17048413D01*
X11307063Y-17057937D01*
X11316587Y-17076984D01*
X11316587Y-17181746D01*
X11707063Y-16972222D02*
X11535635Y-17229365D01*
X11964206Y-16981746D02*
X11983254Y-16981746D01*
X12002301Y-16991270D01*
X12011825Y-17000794D01*
X12021349Y-17019841D01*
X12030873Y-17057937D01*
X12030873Y-17105556D01*
X12021349Y-17143651D01*
X12011825Y-17162699D01*
X12002301Y-17172222D01*
X11983254Y-17181746D01*
X11964206Y-17181746D01*
X11945158Y-17172222D01*
X11935635Y-17162699D01*
X11926111Y-17143651D01*
X11916587Y-17105556D01*
X11916587Y-17057937D01*
X11926111Y-17019841D01*
X11935635Y-17000794D01*
X11945158Y-16991270D01*
X11964206Y-16981746D01*
X12116587Y-17162699D02*
X12126111Y-17172222D01*
X12116587Y-17181746D01*
X12107063Y-17172222D01*
X12116587Y-17162699D01*
X12116587Y-17181746D01*
X12249920Y-16981746D02*
X12268968Y-16981746D01*
X12288016Y-16991270D01*
X12297539Y-17000794D01*
X12307063Y-17019841D01*
X12316587Y-17057937D01*
X12316587Y-17105556D01*
X12307063Y-17143651D01*
X12297539Y-17162699D01*
X12288016Y-17172222D01*
X12268968Y-17181746D01*
X12249920Y-17181746D01*
X12230873Y-17172222D01*
X12221349Y-17162699D01*
X12211825Y-17143651D01*
X12202301Y-17105556D01*
X12202301Y-17057937D01*
X12211825Y-17019841D01*
X12221349Y-17000794D01*
X12230873Y-16991270D01*
X12249920Y-16981746D01*
X12383254Y-16981746D02*
X12507063Y-16981746D01*
X12440397Y-17057937D01*
X12468968Y-17057937D01*
X12488016Y-17067460D01*
X12497539Y-17076984D01*
X12507063Y-17096032D01*
X12507063Y-17143651D01*
X12497539Y-17162699D01*
X12488016Y-17172222D01*
X12468968Y-17181746D01*
X12411825Y-17181746D01*
X12392778Y-17172222D01*
X12383254Y-17162699D01*
X12573730Y-16981746D02*
X12707063Y-16981746D01*
X12621349Y-17181746D01*
X12868968Y-17048413D02*
X12868968Y-17181746D01*
X12821349Y-16972222D02*
X12773730Y-17115080D01*
X12897539Y-17115080D01*
X12964206Y-16981746D02*
X12964206Y-17019841D01*
X13040397Y-16981746D02*
X13040397Y-17019841D01*
X13335635Y-17257937D02*
X13326111Y-17248413D01*
X13307063Y-17219841D01*
X13297539Y-17200794D01*
X13288016Y-17172222D01*
X13278492Y-17124603D01*
X13278492Y-17086508D01*
X13288016Y-17038889D01*
X13297539Y-17010318D01*
X13307063Y-16991270D01*
X13326111Y-16962699D01*
X13335635Y-16953175D01*
X13402301Y-17000794D02*
X13411825Y-16991270D01*
X13430873Y-16981746D01*
X13478492Y-16981746D01*
X13497539Y-16991270D01*
X13507063Y-17000794D01*
X13516587Y-17019841D01*
X13516587Y-17038889D01*
X13507063Y-17067460D01*
X13392778Y-17181746D01*
X13516587Y-17181746D01*
X13630873Y-17067460D02*
X13611825Y-17057937D01*
X13602301Y-17048413D01*
X13592778Y-17029365D01*
X13592778Y-17019841D01*
X13602301Y-17000794D01*
X13611825Y-16991270D01*
X13630873Y-16981746D01*
X13668968Y-16981746D01*
X13688016Y-16991270D01*
X13697539Y-17000794D01*
X13707063Y-17019841D01*
X13707063Y-17029365D01*
X13697539Y-17048413D01*
X13688016Y-17057937D01*
X13668968Y-17067460D01*
X13630873Y-17067460D01*
X13611825Y-17076984D01*
X13602301Y-17086508D01*
X13592778Y-17105556D01*
X13592778Y-17143651D01*
X13602301Y-17162699D01*
X13611825Y-17172222D01*
X13630873Y-17181746D01*
X13668968Y-17181746D01*
X13688016Y-17172222D01*
X13697539Y-17162699D01*
X13707063Y-17143651D01*
X13707063Y-17105556D01*
X13697539Y-17086508D01*
X13688016Y-17076984D01*
X13668968Y-17067460D01*
X13945158Y-17181746D02*
X13945158Y-16981746D01*
X14030873Y-17181746D02*
X14030873Y-17076984D01*
X14021349Y-17057937D01*
X14002301Y-17048413D01*
X13973730Y-17048413D01*
X13954682Y-17057937D01*
X13945158Y-17067460D01*
X14154682Y-17181746D02*
X14135635Y-17172222D01*
X14126111Y-17162699D01*
X14116587Y-17143651D01*
X14116587Y-17086508D01*
X14126111Y-17067460D01*
X14135635Y-17057937D01*
X14154682Y-17048413D01*
X14183254Y-17048413D01*
X14202301Y-17057937D01*
X14211825Y-17067460D01*
X14221349Y-17086508D01*
X14221349Y-17143651D01*
X14211825Y-17162699D01*
X14202301Y-17172222D01*
X14183254Y-17181746D01*
X14154682Y-17181746D01*
X14335635Y-17181746D02*
X14316587Y-17172222D01*
X14307063Y-17153175D01*
X14307063Y-16981746D01*
X14488016Y-17172222D02*
X14468968Y-17181746D01*
X14430873Y-17181746D01*
X14411825Y-17172222D01*
X14402301Y-17153175D01*
X14402301Y-17076984D01*
X14411825Y-17057937D01*
X14430873Y-17048413D01*
X14468968Y-17048413D01*
X14488016Y-17057937D01*
X14497539Y-17076984D01*
X14497539Y-17096032D01*
X14402301Y-17115080D01*
X14573730Y-17172222D02*
X14592778Y-17181746D01*
X14630873Y-17181746D01*
X14649920Y-17172222D01*
X14659444Y-17153175D01*
X14659444Y-17143651D01*
X14649920Y-17124603D01*
X14630873Y-17115080D01*
X14602301Y-17115080D01*
X14583254Y-17105556D01*
X14573730Y-17086508D01*
X14573730Y-17076984D01*
X14583254Y-17057937D01*
X14602301Y-17048413D01*
X14630873Y-17048413D01*
X14649920Y-17057937D01*
X14726111Y-17257937D02*
X14735635Y-17248413D01*
X14754682Y-17219841D01*
X14764206Y-17200794D01*
X14773730Y-17172222D01*
X14783254Y-17124603D01*
X14783254Y-17086508D01*
X14773730Y-17038889D01*
X14764206Y-17010318D01*
X14754682Y-16991270D01*
X14735635Y-16962699D01*
X14726111Y-16953175D01*
D22*
X9713730Y-17405270D02*
X9763730Y-17355270D01*
X9713730Y-17305270D01*
X9663730Y-17355270D01*
X9713730Y-17405270D01*
X9763730Y-17355270D02*
G75*
G03*
X9763730Y-17355270I-50000J0D01*
G01*
D11*
X10126111Y-17445746D02*
X10011825Y-17445746D01*
X10068968Y-17445746D02*
X10068968Y-17245746D01*
X10049920Y-17274318D01*
X10030873Y-17293365D01*
X10011825Y-17302889D01*
X10211825Y-17426699D02*
X10221349Y-17436222D01*
X10211825Y-17445746D01*
X10202301Y-17436222D01*
X10211825Y-17426699D01*
X10211825Y-17445746D01*
X10345159Y-17245746D02*
X10364206Y-17245746D01*
X10383254Y-17255270D01*
X10392778Y-17264794D01*
X10402301Y-17283841D01*
X10411825Y-17321937D01*
X10411825Y-17369556D01*
X10402301Y-17407651D01*
X10392778Y-17426699D01*
X10383254Y-17436222D01*
X10364206Y-17445746D01*
X10345159Y-17445746D01*
X10326111Y-17436222D01*
X10316587Y-17426699D01*
X10307063Y-17407651D01*
X10297540Y-17369556D01*
X10297540Y-17321937D01*
X10307063Y-17283841D01*
X10316587Y-17264794D01*
X10326111Y-17255270D01*
X10345159Y-17245746D01*
X10535635Y-17245746D02*
X10554682Y-17245746D01*
X10573730Y-17255270D01*
X10583254Y-17264794D01*
X10592778Y-17283841D01*
X10602301Y-17321937D01*
X10602301Y-17369556D01*
X10592778Y-17407651D01*
X10583254Y-17426699D01*
X10573730Y-17436222D01*
X10554682Y-17445746D01*
X10535635Y-17445746D01*
X10516587Y-17436222D01*
X10507063Y-17426699D01*
X10497540Y-17407651D01*
X10488016Y-17369556D01*
X10488016Y-17321937D01*
X10497540Y-17283841D01*
X10507063Y-17264794D01*
X10516587Y-17255270D01*
X10535635Y-17245746D01*
X10726111Y-17245746D02*
X10745159Y-17245746D01*
X10764206Y-17255270D01*
X10773730Y-17264794D01*
X10783254Y-17283841D01*
X10792778Y-17321937D01*
X10792778Y-17369556D01*
X10783254Y-17407651D01*
X10773730Y-17426699D01*
X10764206Y-17436222D01*
X10745159Y-17445746D01*
X10726111Y-17445746D01*
X10707063Y-17436222D01*
X10697540Y-17426699D01*
X10688016Y-17407651D01*
X10678492Y-17369556D01*
X10678492Y-17321937D01*
X10688016Y-17283841D01*
X10697540Y-17264794D01*
X10707063Y-17255270D01*
X10726111Y-17245746D01*
X10878492Y-17445746D02*
X10878492Y-17312413D01*
X10878492Y-17331460D02*
X10888016Y-17321937D01*
X10907063Y-17312413D01*
X10935635Y-17312413D01*
X10954682Y-17321937D01*
X10964206Y-17340984D01*
X10964206Y-17445746D01*
X10964206Y-17340984D02*
X10973730Y-17321937D01*
X10992778Y-17312413D01*
X11021349Y-17312413D01*
X11040397Y-17321937D01*
X11049920Y-17340984D01*
X11049920Y-17445746D01*
X11145159Y-17445746D02*
X11145159Y-17312413D01*
X11145159Y-17331460D02*
X11154682Y-17321937D01*
X11173730Y-17312413D01*
X11202301Y-17312413D01*
X11221349Y-17321937D01*
X11230873Y-17340984D01*
X11230873Y-17445746D01*
X11230873Y-17340984D02*
X11240397Y-17321937D01*
X11259444Y-17312413D01*
X11288016Y-17312413D01*
X11307063Y-17321937D01*
X11316587Y-17340984D01*
X11316587Y-17445746D01*
X11707063Y-17236222D02*
X11535635Y-17493365D01*
X11964206Y-17245746D02*
X11983254Y-17245746D01*
X12002301Y-17255270D01*
X12011825Y-17264794D01*
X12021349Y-17283841D01*
X12030873Y-17321937D01*
X12030873Y-17369556D01*
X12021349Y-17407651D01*
X12011825Y-17426699D01*
X12002301Y-17436222D01*
X11983254Y-17445746D01*
X11964206Y-17445746D01*
X11945158Y-17436222D01*
X11935635Y-17426699D01*
X11926111Y-17407651D01*
X11916587Y-17369556D01*
X11916587Y-17321937D01*
X11926111Y-17283841D01*
X11935635Y-17264794D01*
X11945158Y-17255270D01*
X11964206Y-17245746D01*
X12116587Y-17426699D02*
X12126111Y-17436222D01*
X12116587Y-17445746D01*
X12107063Y-17436222D01*
X12116587Y-17426699D01*
X12116587Y-17445746D01*
X12249920Y-17245746D02*
X12268968Y-17245746D01*
X12288016Y-17255270D01*
X12297539Y-17264794D01*
X12307063Y-17283841D01*
X12316587Y-17321937D01*
X12316587Y-17369556D01*
X12307063Y-17407651D01*
X12297539Y-17426699D01*
X12288016Y-17436222D01*
X12268968Y-17445746D01*
X12249920Y-17445746D01*
X12230873Y-17436222D01*
X12221349Y-17426699D01*
X12211825Y-17407651D01*
X12202301Y-17369556D01*
X12202301Y-17321937D01*
X12211825Y-17283841D01*
X12221349Y-17264794D01*
X12230873Y-17255270D01*
X12249920Y-17245746D01*
X12383254Y-17245746D02*
X12507063Y-17245746D01*
X12440397Y-17321937D01*
X12468968Y-17321937D01*
X12488016Y-17331460D01*
X12497539Y-17340984D01*
X12507063Y-17360032D01*
X12507063Y-17407651D01*
X12497539Y-17426699D01*
X12488016Y-17436222D01*
X12468968Y-17445746D01*
X12411825Y-17445746D01*
X12392778Y-17436222D01*
X12383254Y-17426699D01*
X12602301Y-17445746D02*
X12640397Y-17445746D01*
X12659444Y-17436222D01*
X12668968Y-17426699D01*
X12688016Y-17398127D01*
X12697539Y-17360032D01*
X12697539Y-17283841D01*
X12688016Y-17264794D01*
X12678492Y-17255270D01*
X12659444Y-17245746D01*
X12621349Y-17245746D01*
X12602301Y-17255270D01*
X12592778Y-17264794D01*
X12583254Y-17283841D01*
X12583254Y-17331460D01*
X12592778Y-17350508D01*
X12602301Y-17360032D01*
X12621349Y-17369556D01*
X12659444Y-17369556D01*
X12678492Y-17360032D01*
X12688016Y-17350508D01*
X12697539Y-17331460D01*
X12868968Y-17312413D02*
X12868968Y-17445746D01*
X12821349Y-17236222D02*
X12773730Y-17379080D01*
X12897539Y-17379080D01*
X12964206Y-17245746D02*
X12964206Y-17283841D01*
X13040397Y-17245746D02*
X13040397Y-17283841D01*
X13335635Y-17521937D02*
X13326111Y-17512413D01*
X13307063Y-17483841D01*
X13297539Y-17464794D01*
X13288016Y-17436222D01*
X13278492Y-17388603D01*
X13278492Y-17350508D01*
X13288016Y-17302889D01*
X13297539Y-17274318D01*
X13307063Y-17255270D01*
X13326111Y-17226699D01*
X13335635Y-17217175D01*
X13392778Y-17245746D02*
X13516587Y-17245746D01*
X13449920Y-17321937D01*
X13478492Y-17321937D01*
X13497539Y-17331460D01*
X13507063Y-17340984D01*
X13516587Y-17360032D01*
X13516587Y-17407651D01*
X13507063Y-17426699D01*
X13497539Y-17436222D01*
X13478492Y-17445746D01*
X13421349Y-17445746D01*
X13402301Y-17436222D01*
X13392778Y-17426699D01*
X13688016Y-17312413D02*
X13688016Y-17445746D01*
X13640397Y-17236222D02*
X13592778Y-17379080D01*
X13716587Y-17379080D01*
X13945158Y-17445746D02*
X13945158Y-17245746D01*
X14030873Y-17445746D02*
X14030873Y-17340984D01*
X14021349Y-17321937D01*
X14002301Y-17312413D01*
X13973730Y-17312413D01*
X13954682Y-17321937D01*
X13945158Y-17331460D01*
X14154682Y-17445746D02*
X14135635Y-17436222D01*
X14126111Y-17426699D01*
X14116587Y-17407651D01*
X14116587Y-17350508D01*
X14126111Y-17331460D01*
X14135635Y-17321937D01*
X14154682Y-17312413D01*
X14183254Y-17312413D01*
X14202301Y-17321937D01*
X14211825Y-17331460D01*
X14221349Y-17350508D01*
X14221349Y-17407651D01*
X14211825Y-17426699D01*
X14202301Y-17436222D01*
X14183254Y-17445746D01*
X14154682Y-17445746D01*
X14335635Y-17445746D02*
X14316587Y-17436222D01*
X14307063Y-17417175D01*
X14307063Y-17245746D01*
X14488016Y-17436222D02*
X14468968Y-17445746D01*
X14430873Y-17445746D01*
X14411825Y-17436222D01*
X14402301Y-17417175D01*
X14402301Y-17340984D01*
X14411825Y-17321937D01*
X14430873Y-17312413D01*
X14468968Y-17312413D01*
X14488016Y-17321937D01*
X14497539Y-17340984D01*
X14497539Y-17360032D01*
X14402301Y-17379080D01*
X14573730Y-17436222D02*
X14592778Y-17445746D01*
X14630873Y-17445746D01*
X14649920Y-17436222D01*
X14659444Y-17417175D01*
X14659444Y-17407651D01*
X14649920Y-17388603D01*
X14630873Y-17379080D01*
X14602301Y-17379080D01*
X14583254Y-17369556D01*
X14573730Y-17350508D01*
X14573730Y-17340984D01*
X14583254Y-17321937D01*
X14602301Y-17312413D01*
X14630873Y-17312413D01*
X14649920Y-17321937D01*
X14726111Y-17521937D02*
X14735635Y-17512413D01*
X14754682Y-17483841D01*
X14764206Y-17464794D01*
X14773730Y-17436222D01*
X14783254Y-17388603D01*
X14783254Y-17350508D01*
X14773730Y-17302889D01*
X14764206Y-17274318D01*
X14754682Y-17255270D01*
X14735635Y-17226699D01*
X14726111Y-17217175D01*
D23*
X9712930Y-17568470D02*
X9712930Y-17670070D01*
X9662130Y-17619270D02*
X9763730Y-17619270D01*
X9748851Y-17655191D02*
X9748851Y-17583349D01*
X9677009Y-17583349D01*
X9677009Y-17655191D01*
X9748851Y-17655191D01*
D11*
X10126111Y-17709746D02*
X10011825Y-17709746D01*
X10068968Y-17709746D02*
X10068968Y-17509746D01*
X10049920Y-17538318D01*
X10030873Y-17557365D01*
X10011825Y-17566889D01*
X10211825Y-17690699D02*
X10221349Y-17700222D01*
X10211825Y-17709746D01*
X10202301Y-17700222D01*
X10211825Y-17690699D01*
X10211825Y-17709746D01*
X10345159Y-17509746D02*
X10364206Y-17509746D01*
X10383254Y-17519270D01*
X10392778Y-17528794D01*
X10402301Y-17547841D01*
X10411825Y-17585937D01*
X10411825Y-17633556D01*
X10402301Y-17671651D01*
X10392778Y-17690699D01*
X10383254Y-17700222D01*
X10364206Y-17709746D01*
X10345159Y-17709746D01*
X10326111Y-17700222D01*
X10316587Y-17690699D01*
X10307063Y-17671651D01*
X10297540Y-17633556D01*
X10297540Y-17585937D01*
X10307063Y-17547841D01*
X10316587Y-17528794D01*
X10326111Y-17519270D01*
X10345159Y-17509746D01*
X10602301Y-17709746D02*
X10488016Y-17709746D01*
X10545159Y-17709746D02*
X10545159Y-17509746D01*
X10526111Y-17538318D01*
X10507063Y-17557365D01*
X10488016Y-17566889D01*
X10773730Y-17509746D02*
X10735635Y-17509746D01*
X10716587Y-17519270D01*
X10707063Y-17528794D01*
X10688016Y-17557365D01*
X10678492Y-17595460D01*
X10678492Y-17671651D01*
X10688016Y-17690699D01*
X10697540Y-17700222D01*
X10716587Y-17709746D01*
X10754682Y-17709746D01*
X10773730Y-17700222D01*
X10783254Y-17690699D01*
X10792778Y-17671651D01*
X10792778Y-17624032D01*
X10783254Y-17604984D01*
X10773730Y-17595460D01*
X10754682Y-17585937D01*
X10716587Y-17585937D01*
X10697540Y-17595460D01*
X10688016Y-17604984D01*
X10678492Y-17624032D01*
X10878492Y-17709746D02*
X10878492Y-17576413D01*
X10878492Y-17595460D02*
X10888016Y-17585937D01*
X10907063Y-17576413D01*
X10935635Y-17576413D01*
X10954682Y-17585937D01*
X10964206Y-17604984D01*
X10964206Y-17709746D01*
X10964206Y-17604984D02*
X10973730Y-17585937D01*
X10992778Y-17576413D01*
X11021349Y-17576413D01*
X11040397Y-17585937D01*
X11049920Y-17604984D01*
X11049920Y-17709746D01*
X11145159Y-17709746D02*
X11145159Y-17576413D01*
X11145159Y-17595460D02*
X11154682Y-17585937D01*
X11173730Y-17576413D01*
X11202301Y-17576413D01*
X11221349Y-17585937D01*
X11230873Y-17604984D01*
X11230873Y-17709746D01*
X11230873Y-17604984D02*
X11240397Y-17585937D01*
X11259444Y-17576413D01*
X11288016Y-17576413D01*
X11307063Y-17585937D01*
X11316587Y-17604984D01*
X11316587Y-17709746D01*
X11707063Y-17500222D02*
X11535635Y-17757365D01*
X11964206Y-17509746D02*
X11983254Y-17509746D01*
X12002301Y-17519270D01*
X12011825Y-17528794D01*
X12021349Y-17547841D01*
X12030873Y-17585937D01*
X12030873Y-17633556D01*
X12021349Y-17671651D01*
X12011825Y-17690699D01*
X12002301Y-17700222D01*
X11983254Y-17709746D01*
X11964206Y-17709746D01*
X11945158Y-17700222D01*
X11935635Y-17690699D01*
X11926111Y-17671651D01*
X11916587Y-17633556D01*
X11916587Y-17585937D01*
X11926111Y-17547841D01*
X11935635Y-17528794D01*
X11945158Y-17519270D01*
X11964206Y-17509746D01*
X12116587Y-17690699D02*
X12126111Y-17700222D01*
X12116587Y-17709746D01*
X12107063Y-17700222D01*
X12116587Y-17690699D01*
X12116587Y-17709746D01*
X12249920Y-17509746D02*
X12268968Y-17509746D01*
X12288016Y-17519270D01*
X12297539Y-17528794D01*
X12307063Y-17547841D01*
X12316587Y-17585937D01*
X12316587Y-17633556D01*
X12307063Y-17671651D01*
X12297539Y-17690699D01*
X12288016Y-17700222D01*
X12268968Y-17709746D01*
X12249920Y-17709746D01*
X12230873Y-17700222D01*
X12221349Y-17690699D01*
X12211825Y-17671651D01*
X12202301Y-17633556D01*
X12202301Y-17585937D01*
X12211825Y-17547841D01*
X12221349Y-17528794D01*
X12230873Y-17519270D01*
X12249920Y-17509746D01*
X12488016Y-17576413D02*
X12488016Y-17709746D01*
X12440397Y-17500222D02*
X12392778Y-17643080D01*
X12516587Y-17643080D01*
X12630873Y-17509746D02*
X12649920Y-17509746D01*
X12668968Y-17519270D01*
X12678492Y-17528794D01*
X12688016Y-17547841D01*
X12697539Y-17585937D01*
X12697539Y-17633556D01*
X12688016Y-17671651D01*
X12678492Y-17690699D01*
X12668968Y-17700222D01*
X12649920Y-17709746D01*
X12630873Y-17709746D01*
X12611825Y-17700222D01*
X12602301Y-17690699D01*
X12592778Y-17671651D01*
X12583254Y-17633556D01*
X12583254Y-17585937D01*
X12592778Y-17547841D01*
X12602301Y-17528794D01*
X12611825Y-17519270D01*
X12630873Y-17509746D01*
X12821349Y-17509746D02*
X12840397Y-17509746D01*
X12859444Y-17519270D01*
X12868968Y-17528794D01*
X12878492Y-17547841D01*
X12888016Y-17585937D01*
X12888016Y-17633556D01*
X12878492Y-17671651D01*
X12868968Y-17690699D01*
X12859444Y-17700222D01*
X12840397Y-17709746D01*
X12821349Y-17709746D01*
X12802301Y-17700222D01*
X12792778Y-17690699D01*
X12783254Y-17671651D01*
X12773730Y-17633556D01*
X12773730Y-17585937D01*
X12783254Y-17547841D01*
X12792778Y-17528794D01*
X12802301Y-17519270D01*
X12821349Y-17509746D01*
X12964206Y-17509746D02*
X12964206Y-17547841D01*
X13040397Y-17509746D02*
X13040397Y-17547841D01*
X13335635Y-17785937D02*
X13326111Y-17776413D01*
X13307063Y-17747841D01*
X13297539Y-17728794D01*
X13288016Y-17700222D01*
X13278492Y-17652603D01*
X13278492Y-17614508D01*
X13288016Y-17566889D01*
X13297539Y-17538318D01*
X13307063Y-17519270D01*
X13326111Y-17490699D01*
X13335635Y-17481175D01*
X13497539Y-17576413D02*
X13497539Y-17709746D01*
X13449920Y-17500222D02*
X13402301Y-17643080D01*
X13526111Y-17643080D01*
X13630873Y-17595460D02*
X13611825Y-17585937D01*
X13602301Y-17576413D01*
X13592778Y-17557365D01*
X13592778Y-17547841D01*
X13602301Y-17528794D01*
X13611825Y-17519270D01*
X13630873Y-17509746D01*
X13668968Y-17509746D01*
X13688016Y-17519270D01*
X13697539Y-17528794D01*
X13707063Y-17547841D01*
X13707063Y-17557365D01*
X13697539Y-17576413D01*
X13688016Y-17585937D01*
X13668968Y-17595460D01*
X13630873Y-17595460D01*
X13611825Y-17604984D01*
X13602301Y-17614508D01*
X13592778Y-17633556D01*
X13592778Y-17671651D01*
X13602301Y-17690699D01*
X13611825Y-17700222D01*
X13630873Y-17709746D01*
X13668968Y-17709746D01*
X13688016Y-17700222D01*
X13697539Y-17690699D01*
X13707063Y-17671651D01*
X13707063Y-17633556D01*
X13697539Y-17614508D01*
X13688016Y-17604984D01*
X13668968Y-17595460D01*
X13945158Y-17709746D02*
X13945158Y-17509746D01*
X14030873Y-17709746D02*
X14030873Y-17604984D01*
X14021349Y-17585937D01*
X14002301Y-17576413D01*
X13973730Y-17576413D01*
X13954682Y-17585937D01*
X13945158Y-17595460D01*
X14154682Y-17709746D02*
X14135635Y-17700222D01*
X14126111Y-17690699D01*
X14116587Y-17671651D01*
X14116587Y-17614508D01*
X14126111Y-17595460D01*
X14135635Y-17585937D01*
X14154682Y-17576413D01*
X14183254Y-17576413D01*
X14202301Y-17585937D01*
X14211825Y-17595460D01*
X14221349Y-17614508D01*
X14221349Y-17671651D01*
X14211825Y-17690699D01*
X14202301Y-17700222D01*
X14183254Y-17709746D01*
X14154682Y-17709746D01*
X14335635Y-17709746D02*
X14316587Y-17700222D01*
X14307063Y-17681175D01*
X14307063Y-17509746D01*
X14488016Y-17700222D02*
X14468968Y-17709746D01*
X14430873Y-17709746D01*
X14411825Y-17700222D01*
X14402301Y-17681175D01*
X14402301Y-17604984D01*
X14411825Y-17585937D01*
X14430873Y-17576413D01*
X14468968Y-17576413D01*
X14488016Y-17585937D01*
X14497539Y-17604984D01*
X14497539Y-17624032D01*
X14402301Y-17643080D01*
X14573730Y-17700222D02*
X14592778Y-17709746D01*
X14630873Y-17709746D01*
X14649920Y-17700222D01*
X14659444Y-17681175D01*
X14659444Y-17671651D01*
X14649920Y-17652603D01*
X14630873Y-17643080D01*
X14602301Y-17643080D01*
X14583254Y-17633556D01*
X14573730Y-17614508D01*
X14573730Y-17604984D01*
X14583254Y-17585937D01*
X14602301Y-17576413D01*
X14630873Y-17576413D01*
X14649920Y-17585937D01*
X14726111Y-17785937D02*
X14735635Y-17776413D01*
X14754682Y-17747841D01*
X14764206Y-17728794D01*
X14773730Y-17700222D01*
X14783254Y-17652603D01*
X14783254Y-17614508D01*
X14773730Y-17566889D01*
X14764206Y-17538318D01*
X14754682Y-17519270D01*
X14735635Y-17490699D01*
X14726111Y-17481175D01*
D24*
X9698730Y-17818270D02*
X9698730Y-17948270D01*
X9633730Y-17883270D02*
X9763730Y-17883270D01*
X9698730Y-17948270D02*
X9763730Y-17883270D01*
X9698730Y-17818270D01*
X9633730Y-17883270D01*
X9698730Y-17948270D01*
D11*
X10126111Y-17973746D02*
X10011825Y-17973746D01*
X10068968Y-17973746D02*
X10068968Y-17773746D01*
X10049920Y-17802318D01*
X10030873Y-17821365D01*
X10011825Y-17830889D01*
X10211825Y-17954699D02*
X10221349Y-17964222D01*
X10211825Y-17973746D01*
X10202301Y-17964222D01*
X10211825Y-17954699D01*
X10211825Y-17973746D01*
X10288016Y-17773746D02*
X10411825Y-17773746D01*
X10345159Y-17849937D01*
X10373730Y-17849937D01*
X10392778Y-17859460D01*
X10402301Y-17868984D01*
X10411825Y-17888032D01*
X10411825Y-17935651D01*
X10402301Y-17954699D01*
X10392778Y-17964222D01*
X10373730Y-17973746D01*
X10316587Y-17973746D01*
X10297540Y-17964222D01*
X10288016Y-17954699D01*
X10535635Y-17773746D02*
X10554682Y-17773746D01*
X10573730Y-17783270D01*
X10583254Y-17792794D01*
X10592778Y-17811841D01*
X10602301Y-17849937D01*
X10602301Y-17897556D01*
X10592778Y-17935651D01*
X10583254Y-17954699D01*
X10573730Y-17964222D01*
X10554682Y-17973746D01*
X10535635Y-17973746D01*
X10516587Y-17964222D01*
X10507063Y-17954699D01*
X10497540Y-17935651D01*
X10488016Y-17897556D01*
X10488016Y-17849937D01*
X10497540Y-17811841D01*
X10507063Y-17792794D01*
X10516587Y-17783270D01*
X10535635Y-17773746D01*
X10726111Y-17773746D02*
X10745159Y-17773746D01*
X10764206Y-17783270D01*
X10773730Y-17792794D01*
X10783254Y-17811841D01*
X10792778Y-17849937D01*
X10792778Y-17897556D01*
X10783254Y-17935651D01*
X10773730Y-17954699D01*
X10764206Y-17964222D01*
X10745159Y-17973746D01*
X10726111Y-17973746D01*
X10707063Y-17964222D01*
X10697540Y-17954699D01*
X10688016Y-17935651D01*
X10678492Y-17897556D01*
X10678492Y-17849937D01*
X10688016Y-17811841D01*
X10697540Y-17792794D01*
X10707063Y-17783270D01*
X10726111Y-17773746D01*
X10878492Y-17973746D02*
X10878492Y-17840413D01*
X10878492Y-17859460D02*
X10888016Y-17849937D01*
X10907063Y-17840413D01*
X10935635Y-17840413D01*
X10954682Y-17849937D01*
X10964206Y-17868984D01*
X10964206Y-17973746D01*
X10964206Y-17868984D02*
X10973730Y-17849937D01*
X10992778Y-17840413D01*
X11021349Y-17840413D01*
X11040397Y-17849937D01*
X11049920Y-17868984D01*
X11049920Y-17973746D01*
X11145159Y-17973746D02*
X11145159Y-17840413D01*
X11145159Y-17859460D02*
X11154682Y-17849937D01*
X11173730Y-17840413D01*
X11202301Y-17840413D01*
X11221349Y-17849937D01*
X11230873Y-17868984D01*
X11230873Y-17973746D01*
X11230873Y-17868984D02*
X11240397Y-17849937D01*
X11259444Y-17840413D01*
X11288016Y-17840413D01*
X11307063Y-17849937D01*
X11316587Y-17868984D01*
X11316587Y-17973746D01*
X11707063Y-17764222D02*
X11535635Y-18021365D01*
X11964206Y-17773746D02*
X11983254Y-17773746D01*
X12002301Y-17783270D01*
X12011825Y-17792794D01*
X12021349Y-17811841D01*
X12030873Y-17849937D01*
X12030873Y-17897556D01*
X12021349Y-17935651D01*
X12011825Y-17954699D01*
X12002301Y-17964222D01*
X11983254Y-17973746D01*
X11964206Y-17973746D01*
X11945158Y-17964222D01*
X11935635Y-17954699D01*
X11926111Y-17935651D01*
X11916587Y-17897556D01*
X11916587Y-17849937D01*
X11926111Y-17811841D01*
X11935635Y-17792794D01*
X11945158Y-17783270D01*
X11964206Y-17773746D01*
X12116587Y-17954699D02*
X12126111Y-17964222D01*
X12116587Y-17973746D01*
X12107063Y-17964222D01*
X12116587Y-17954699D01*
X12116587Y-17973746D01*
X12249920Y-17773746D02*
X12268968Y-17773746D01*
X12288016Y-17783270D01*
X12297539Y-17792794D01*
X12307063Y-17811841D01*
X12316587Y-17849937D01*
X12316587Y-17897556D01*
X12307063Y-17935651D01*
X12297539Y-17954699D01*
X12288016Y-17964222D01*
X12268968Y-17973746D01*
X12249920Y-17973746D01*
X12230873Y-17964222D01*
X12221349Y-17954699D01*
X12211825Y-17935651D01*
X12202301Y-17897556D01*
X12202301Y-17849937D01*
X12211825Y-17811841D01*
X12221349Y-17792794D01*
X12230873Y-17783270D01*
X12249920Y-17773746D01*
X12497539Y-17773746D02*
X12402301Y-17773746D01*
X12392778Y-17868984D01*
X12402301Y-17859460D01*
X12421349Y-17849937D01*
X12468968Y-17849937D01*
X12488016Y-17859460D01*
X12497539Y-17868984D01*
X12507063Y-17888032D01*
X12507063Y-17935651D01*
X12497539Y-17954699D01*
X12488016Y-17964222D01*
X12468968Y-17973746D01*
X12421349Y-17973746D01*
X12402301Y-17964222D01*
X12392778Y-17954699D01*
X12697539Y-17973746D02*
X12583254Y-17973746D01*
X12640397Y-17973746D02*
X12640397Y-17773746D01*
X12621349Y-17802318D01*
X12602301Y-17821365D01*
X12583254Y-17830889D01*
X12773730Y-17792794D02*
X12783254Y-17783270D01*
X12802301Y-17773746D01*
X12849920Y-17773746D01*
X12868968Y-17783270D01*
X12878492Y-17792794D01*
X12888016Y-17811841D01*
X12888016Y-17830889D01*
X12878492Y-17859460D01*
X12764206Y-17973746D01*
X12888016Y-17973746D01*
X12964206Y-17773746D02*
X12964206Y-17811841D01*
X13040397Y-17773746D02*
X13040397Y-17811841D01*
X13335635Y-18049937D02*
X13326111Y-18040413D01*
X13307063Y-18011841D01*
X13297539Y-17992794D01*
X13288016Y-17964222D01*
X13278492Y-17916603D01*
X13278492Y-17878508D01*
X13288016Y-17830889D01*
X13297539Y-17802318D01*
X13307063Y-17783270D01*
X13326111Y-17754699D01*
X13335635Y-17745175D01*
X13497539Y-17773746D02*
X13459444Y-17773746D01*
X13440397Y-17783270D01*
X13430873Y-17792794D01*
X13411825Y-17821365D01*
X13402301Y-17859460D01*
X13402301Y-17935651D01*
X13411825Y-17954699D01*
X13421349Y-17964222D01*
X13440397Y-17973746D01*
X13478492Y-17973746D01*
X13497539Y-17964222D01*
X13507063Y-17954699D01*
X13516587Y-17935651D01*
X13516587Y-17888032D01*
X13507063Y-17868984D01*
X13497539Y-17859460D01*
X13478492Y-17849937D01*
X13440397Y-17849937D01*
X13421349Y-17859460D01*
X13411825Y-17868984D01*
X13402301Y-17888032D01*
X13754682Y-17973746D02*
X13754682Y-17773746D01*
X13840397Y-17973746D02*
X13840397Y-17868984D01*
X13830873Y-17849937D01*
X13811825Y-17840413D01*
X13783254Y-17840413D01*
X13764206Y-17849937D01*
X13754682Y-17859460D01*
X13964206Y-17973746D02*
X13945158Y-17964222D01*
X13935635Y-17954699D01*
X13926111Y-17935651D01*
X13926111Y-17878508D01*
X13935635Y-17859460D01*
X13945158Y-17849937D01*
X13964206Y-17840413D01*
X13992778Y-17840413D01*
X14011825Y-17849937D01*
X14021349Y-17859460D01*
X14030873Y-17878508D01*
X14030873Y-17935651D01*
X14021349Y-17954699D01*
X14011825Y-17964222D01*
X13992778Y-17973746D01*
X13964206Y-17973746D01*
X14145158Y-17973746D02*
X14126111Y-17964222D01*
X14116587Y-17945175D01*
X14116587Y-17773746D01*
X14297539Y-17964222D02*
X14278492Y-17973746D01*
X14240397Y-17973746D01*
X14221349Y-17964222D01*
X14211825Y-17945175D01*
X14211825Y-17868984D01*
X14221349Y-17849937D01*
X14240397Y-17840413D01*
X14278492Y-17840413D01*
X14297539Y-17849937D01*
X14307063Y-17868984D01*
X14307063Y-17888032D01*
X14211825Y-17907080D01*
X14383254Y-17964222D02*
X14402301Y-17973746D01*
X14440397Y-17973746D01*
X14459444Y-17964222D01*
X14468968Y-17945175D01*
X14468968Y-17935651D01*
X14459444Y-17916603D01*
X14440397Y-17907080D01*
X14411825Y-17907080D01*
X14392778Y-17897556D01*
X14383254Y-17878508D01*
X14383254Y-17868984D01*
X14392778Y-17849937D01*
X14411825Y-17840413D01*
X14440397Y-17840413D01*
X14459444Y-17849937D01*
X14535635Y-18049937D02*
X14545158Y-18040413D01*
X14564206Y-18011841D01*
X14573730Y-17992794D01*
X14583254Y-17964222D01*
X14592778Y-17916603D01*
X14592778Y-17878508D01*
X14583254Y-17830889D01*
X14573730Y-17802318D01*
X14564206Y-17783270D01*
X14545158Y-17754699D01*
X14535635Y-17745175D01*
D25*
X9678730Y-18232270D02*
X9763730Y-18147270D01*
X9678730Y-18062270D01*
X9593730Y-18147270D01*
X9678730Y-18232270D01*
X9738835Y-18207375D02*
X9738835Y-18087165D01*
X9618625Y-18087165D01*
X9618625Y-18207375D01*
X9738835Y-18207375D01*
D11*
X10126111Y-18237746D02*
X10011825Y-18237746D01*
X10068968Y-18237746D02*
X10068968Y-18037746D01*
X10049920Y-18066318D01*
X10030873Y-18085365D01*
X10011825Y-18094889D01*
X10211825Y-18218699D02*
X10221349Y-18228222D01*
X10211825Y-18237746D01*
X10202301Y-18228222D01*
X10211825Y-18218699D01*
X10211825Y-18237746D01*
X10288016Y-18037746D02*
X10421349Y-18037746D01*
X10335635Y-18237746D01*
X10535635Y-18037746D02*
X10554682Y-18037746D01*
X10573730Y-18047270D01*
X10583254Y-18056794D01*
X10592778Y-18075841D01*
X10602301Y-18113937D01*
X10602301Y-18161556D01*
X10592778Y-18199651D01*
X10583254Y-18218699D01*
X10573730Y-18228222D01*
X10554682Y-18237746D01*
X10535635Y-18237746D01*
X10516587Y-18228222D01*
X10507063Y-18218699D01*
X10497540Y-18199651D01*
X10488016Y-18161556D01*
X10488016Y-18113937D01*
X10497540Y-18075841D01*
X10507063Y-18056794D01*
X10516587Y-18047270D01*
X10535635Y-18037746D01*
X10726111Y-18037746D02*
X10745159Y-18037746D01*
X10764206Y-18047270D01*
X10773730Y-18056794D01*
X10783254Y-18075841D01*
X10792778Y-18113937D01*
X10792778Y-18161556D01*
X10783254Y-18199651D01*
X10773730Y-18218699D01*
X10764206Y-18228222D01*
X10745159Y-18237746D01*
X10726111Y-18237746D01*
X10707063Y-18228222D01*
X10697540Y-18218699D01*
X10688016Y-18199651D01*
X10678492Y-18161556D01*
X10678492Y-18113937D01*
X10688016Y-18075841D01*
X10697540Y-18056794D01*
X10707063Y-18047270D01*
X10726111Y-18037746D01*
X10878492Y-18237746D02*
X10878492Y-18104413D01*
X10878492Y-18123460D02*
X10888016Y-18113937D01*
X10907063Y-18104413D01*
X10935635Y-18104413D01*
X10954682Y-18113937D01*
X10964206Y-18132984D01*
X10964206Y-18237746D01*
X10964206Y-18132984D02*
X10973730Y-18113937D01*
X10992778Y-18104413D01*
X11021349Y-18104413D01*
X11040397Y-18113937D01*
X11049920Y-18132984D01*
X11049920Y-18237746D01*
X11145159Y-18237746D02*
X11145159Y-18104413D01*
X11145159Y-18123460D02*
X11154682Y-18113937D01*
X11173730Y-18104413D01*
X11202301Y-18104413D01*
X11221349Y-18113937D01*
X11230873Y-18132984D01*
X11230873Y-18237746D01*
X11230873Y-18132984D02*
X11240397Y-18113937D01*
X11259444Y-18104413D01*
X11288016Y-18104413D01*
X11307063Y-18113937D01*
X11316587Y-18132984D01*
X11316587Y-18237746D01*
X11707063Y-18028222D02*
X11535635Y-18285365D01*
X11964206Y-18037746D02*
X11983254Y-18037746D01*
X12002301Y-18047270D01*
X12011825Y-18056794D01*
X12021349Y-18075841D01*
X12030873Y-18113937D01*
X12030873Y-18161556D01*
X12021349Y-18199651D01*
X12011825Y-18218699D01*
X12002301Y-18228222D01*
X11983254Y-18237746D01*
X11964206Y-18237746D01*
X11945158Y-18228222D01*
X11935635Y-18218699D01*
X11926111Y-18199651D01*
X11916587Y-18161556D01*
X11916587Y-18113937D01*
X11926111Y-18075841D01*
X11935635Y-18056794D01*
X11945158Y-18047270D01*
X11964206Y-18037746D01*
X12116587Y-18218699D02*
X12126111Y-18228222D01*
X12116587Y-18237746D01*
X12107063Y-18228222D01*
X12116587Y-18218699D01*
X12116587Y-18237746D01*
X12249920Y-18037746D02*
X12268968Y-18037746D01*
X12288016Y-18047270D01*
X12297539Y-18056794D01*
X12307063Y-18075841D01*
X12316587Y-18113937D01*
X12316587Y-18161556D01*
X12307063Y-18199651D01*
X12297539Y-18218699D01*
X12288016Y-18228222D01*
X12268968Y-18237746D01*
X12249920Y-18237746D01*
X12230873Y-18228222D01*
X12221349Y-18218699D01*
X12211825Y-18199651D01*
X12202301Y-18161556D01*
X12202301Y-18113937D01*
X12211825Y-18075841D01*
X12221349Y-18056794D01*
X12230873Y-18047270D01*
X12249920Y-18037746D01*
X12488016Y-18037746D02*
X12449920Y-18037746D01*
X12430873Y-18047270D01*
X12421349Y-18056794D01*
X12402301Y-18085365D01*
X12392778Y-18123460D01*
X12392778Y-18199651D01*
X12402301Y-18218699D01*
X12411825Y-18228222D01*
X12430873Y-18237746D01*
X12468968Y-18237746D01*
X12488016Y-18228222D01*
X12497539Y-18218699D01*
X12507063Y-18199651D01*
X12507063Y-18152032D01*
X12497539Y-18132984D01*
X12488016Y-18123460D01*
X12468968Y-18113937D01*
X12430873Y-18113937D01*
X12411825Y-18123460D01*
X12402301Y-18132984D01*
X12392778Y-18152032D01*
X12678492Y-18037746D02*
X12640397Y-18037746D01*
X12621349Y-18047270D01*
X12611825Y-18056794D01*
X12592778Y-18085365D01*
X12583254Y-18123460D01*
X12583254Y-18199651D01*
X12592778Y-18218699D01*
X12602301Y-18228222D01*
X12621349Y-18237746D01*
X12659444Y-18237746D01*
X12678492Y-18228222D01*
X12688016Y-18218699D01*
X12697539Y-18199651D01*
X12697539Y-18152032D01*
X12688016Y-18132984D01*
X12678492Y-18123460D01*
X12659444Y-18113937D01*
X12621349Y-18113937D01*
X12602301Y-18123460D01*
X12592778Y-18132984D01*
X12583254Y-18152032D01*
X12792778Y-18237746D02*
X12830873Y-18237746D01*
X12849920Y-18228222D01*
X12859444Y-18218699D01*
X12878492Y-18190127D01*
X12888016Y-18152032D01*
X12888016Y-18075841D01*
X12878492Y-18056794D01*
X12868968Y-18047270D01*
X12849920Y-18037746D01*
X12811825Y-18037746D01*
X12792778Y-18047270D01*
X12783254Y-18056794D01*
X12773730Y-18075841D01*
X12773730Y-18123460D01*
X12783254Y-18142508D01*
X12792778Y-18152032D01*
X12811825Y-18161556D01*
X12849920Y-18161556D01*
X12868968Y-18152032D01*
X12878492Y-18142508D01*
X12888016Y-18123460D01*
X12964206Y-18037746D02*
X12964206Y-18075841D01*
X13040397Y-18037746D02*
X13040397Y-18075841D01*
X13335635Y-18313937D02*
X13326111Y-18304413D01*
X13307063Y-18275841D01*
X13297539Y-18256794D01*
X13288016Y-18228222D01*
X13278492Y-18180603D01*
X13278492Y-18142508D01*
X13288016Y-18094889D01*
X13297539Y-18066318D01*
X13307063Y-18047270D01*
X13326111Y-18018699D01*
X13335635Y-18009175D01*
X13497539Y-18104413D02*
X13497539Y-18237746D01*
X13449920Y-18028222D02*
X13402301Y-18171080D01*
X13526111Y-18171080D01*
X13754682Y-18237746D02*
X13754682Y-18037746D01*
X13840397Y-18237746D02*
X13840397Y-18132984D01*
X13830873Y-18113937D01*
X13811825Y-18104413D01*
X13783254Y-18104413D01*
X13764206Y-18113937D01*
X13754682Y-18123460D01*
X13964206Y-18237746D02*
X13945158Y-18228222D01*
X13935635Y-18218699D01*
X13926111Y-18199651D01*
X13926111Y-18142508D01*
X13935635Y-18123460D01*
X13945158Y-18113937D01*
X13964206Y-18104413D01*
X13992778Y-18104413D01*
X14011825Y-18113937D01*
X14021349Y-18123460D01*
X14030873Y-18142508D01*
X14030873Y-18199651D01*
X14021349Y-18218699D01*
X14011825Y-18228222D01*
X13992778Y-18237746D01*
X13964206Y-18237746D01*
X14145158Y-18237746D02*
X14126111Y-18228222D01*
X14116587Y-18209175D01*
X14116587Y-18037746D01*
X14297539Y-18228222D02*
X14278492Y-18237746D01*
X14240397Y-18237746D01*
X14221349Y-18228222D01*
X14211825Y-18209175D01*
X14211825Y-18132984D01*
X14221349Y-18113937D01*
X14240397Y-18104413D01*
X14278492Y-18104413D01*
X14297539Y-18113937D01*
X14307063Y-18132984D01*
X14307063Y-18152032D01*
X14211825Y-18171080D01*
X14383254Y-18228222D02*
X14402301Y-18237746D01*
X14440397Y-18237746D01*
X14459444Y-18228222D01*
X14468968Y-18209175D01*
X14468968Y-18199651D01*
X14459444Y-18180603D01*
X14440397Y-18171080D01*
X14411825Y-18171080D01*
X14392778Y-18161556D01*
X14383254Y-18142508D01*
X14383254Y-18132984D01*
X14392778Y-18113937D01*
X14411825Y-18104413D01*
X14440397Y-18104413D01*
X14459444Y-18113937D01*
X14535635Y-18313937D02*
X14545158Y-18304413D01*
X14564206Y-18275841D01*
X14573730Y-18256794D01*
X14583254Y-18228222D01*
X14592778Y-18180603D01*
X14592778Y-18142508D01*
X14583254Y-18094889D01*
X14573730Y-18066318D01*
X14564206Y-18047270D01*
X14545158Y-18018699D01*
X14535635Y-18009175D01*
M02*
