%TF.GenerationSoftware,KiCad,Pcbnew,(6.0.6)*%
%TF.CreationDate,2022-09-05T13:34:07-05:00*%
%TF.ProjectId,rp2040-board,72703230-3430-42d6-926f-6172642e6b69,rev?*%
%TF.SameCoordinates,Original*%
%TF.FileFunction,Copper,L3,Inr*%
%TF.FilePolarity,Positive*%
%FSLAX46Y46*%
G04 Gerber Fmt 4.6, Leading zero omitted, Abs format (unit mm)*
G04 Created by KiCad (PCBNEW (6.0.6)) date 2022-09-05 13:34:07*
%MOMM*%
%LPD*%
G01*
G04 APERTURE LIST*
G04 Aperture macros list*
%AMRoundRect*
0 Rectangle with rounded corners*
0 $1 Rounding radius*
0 $2 $3 $4 $5 $6 $7 $8 $9 X,Y pos of 4 corners*
0 Add a 4 corners polygon primitive as box body*
4,1,4,$2,$3,$4,$5,$6,$7,$8,$9,$2,$3,0*
0 Add four circle primitives for the rounded corners*
1,1,$1+$1,$2,$3*
1,1,$1+$1,$4,$5*
1,1,$1+$1,$6,$7*
1,1,$1+$1,$8,$9*
0 Add four rect primitives between the rounded corners*
20,1,$1+$1,$2,$3,$4,$5,0*
20,1,$1+$1,$4,$5,$6,$7,0*
20,1,$1+$1,$6,$7,$8,$9,0*
20,1,$1+$1,$8,$9,$2,$3,0*%
G04 Aperture macros list end*
%TA.AperFunction,Profile*%
%ADD10C,0.025400*%
%TD*%
%TA.AperFunction,ComponentPad*%
%ADD11R,1.337000X1.337000*%
%TD*%
%TA.AperFunction,ComponentPad*%
%ADD12C,1.337000*%
%TD*%
%TA.AperFunction,ComponentPad*%
%ADD13R,1.600000X1.600000*%
%TD*%
%TA.AperFunction,ComponentPad*%
%ADD14C,1.600000*%
%TD*%
%TA.AperFunction,ComponentPad*%
%ADD15C,0.660400*%
%TD*%
%TA.AperFunction,ComponentPad*%
%ADD16C,0.300000*%
%TD*%
%TA.AperFunction,ComponentPad*%
%ADD17R,1.700000X1.700000*%
%TD*%
%TA.AperFunction,ComponentPad*%
%ADD18O,1.700000X1.700000*%
%TD*%
%TA.AperFunction,ComponentPad*%
%ADD19RoundRect,0.250000X-0.600000X-0.750000X0.600000X-0.750000X0.600000X0.750000X-0.600000X0.750000X0*%
%TD*%
%TA.AperFunction,ComponentPad*%
%ADD20O,1.700000X2.000000*%
%TD*%
%TA.AperFunction,ComponentPad*%
%ADD21C,1.778000*%
%TD*%
%TA.AperFunction,ComponentPad*%
%ADD22R,2.600000X2.600000*%
%TD*%
%TA.AperFunction,ComponentPad*%
%ADD23C,2.600000*%
%TD*%
%TA.AperFunction,ComponentPad*%
%ADD24RoundRect,0.250000X0.600000X0.725000X-0.600000X0.725000X-0.600000X-0.725000X0.600000X-0.725000X0*%
%TD*%
%TA.AperFunction,ComponentPad*%
%ADD25O,1.700000X1.950000*%
%TD*%
%TA.AperFunction,ComponentPad*%
%ADD26RoundRect,0.250000X-0.600000X-0.725000X0.600000X-0.725000X0.600000X0.725000X-0.600000X0.725000X0*%
%TD*%
%TA.AperFunction,ViaPad*%
%ADD27C,0.800000*%
%TD*%
%TA.AperFunction,ViaPad*%
%ADD28C,2.500000*%
%TD*%
%TA.AperFunction,ViaPad*%
%ADD29C,1.200000*%
%TD*%
%TA.AperFunction,ViaPad*%
%ADD30C,0.500000*%
%TD*%
%TA.AperFunction,ViaPad*%
%ADD31C,0.600000*%
%TD*%
%TA.AperFunction,ViaPad*%
%ADD32C,0.400000*%
%TD*%
%TA.AperFunction,Conductor*%
%ADD33C,0.250000*%
%TD*%
%TA.AperFunction,Conductor*%
%ADD34C,0.200000*%
%TD*%
%TA.AperFunction,Conductor*%
%ADD35C,0.350000*%
%TD*%
%TA.AperFunction,Conductor*%
%ADD36C,0.300000*%
%TD*%
G04 APERTURE END LIST*
D10*
X97650000Y-63005200D02*
X97650000Y-138100000D01*
X202952600Y-63000000D02*
X97650000Y-63005200D01*
X202952600Y-138094800D02*
X202952600Y-63000000D01*
X97650000Y-138100000D02*
X202952600Y-138094800D01*
D11*
%TO.N,Net-(F2-Pad1)*%
%TO.C,F2*%
X101200000Y-122200000D03*
D12*
X104900000Y-122200000D03*
%TO.N,VCC*%
X109200000Y-122200000D03*
X112900000Y-122200000D03*
%TD*%
D13*
%TO.N,+5V*%
%TO.C,C11*%
X122150000Y-110647349D03*
D14*
%TO.N,GND*%
X122150000Y-114147349D03*
%TD*%
D15*
%TO.N,N/C*%
%TO.C,J2*%
X196399199Y-96469999D03*
X196399199Y-90690001D03*
%TD*%
D16*
%TO.N,N/C*%
%TO.C,U2*%
X112760000Y-113500000D03*
X114060000Y-113500000D03*
X112760000Y-114800000D03*
X114060000Y-114800000D03*
X112760000Y-116100000D03*
X114060000Y-116100000D03*
X112760000Y-117400000D03*
X114060000Y-117400000D03*
%TD*%
D17*
%TO.N,GPIO27*%
%TO.C,J4*%
X198875000Y-102500000D03*
D18*
%TO.N,GPIO26*%
X196335000Y-102500000D03*
%TD*%
D19*
%TO.N,Net-(C16-Pad1)*%
%TO.C,J9*%
X175121560Y-133744960D03*
D20*
%TO.N,GND*%
X177621560Y-133744960D03*
%TD*%
D19*
%TO.N,Net-(J7-Pad1)*%
%TO.C,J7*%
X183522080Y-133744800D03*
D20*
%TO.N,GND*%
X186022080Y-133744800D03*
%TD*%
D21*
%TO.N,GND*%
%TO.C,J3*%
X180940000Y-108440000D03*
%TO.N,+3.3V*%
X178400000Y-108440000D03*
X175860000Y-108440000D03*
%TO.N,Net-(C5-Pad2)*%
X173320000Y-108440000D03*
%TO.N,Net-(J2-PadA6)*%
X170780000Y-108440000D03*
%TO.N,Net-(J2-PadA7)*%
X168240000Y-108440000D03*
%TO.N,Net-(C7-Pad1)*%
X165700000Y-108440000D03*
%TO.N,GND*%
X163160000Y-108440000D03*
%TO.N,XEN*%
X180940000Y-105900000D03*
%TO.N,GND*%
X178400000Y-105900000D03*
%TO.N,+3.3V*%
X175860000Y-105900000D03*
X173320000Y-105900000D03*
%TO.N,unconnected-(J3-PadB5)*%
X170780000Y-105900000D03*
%TO.N,unconnected-(J3-PadB6)*%
X168240000Y-105900000D03*
%TO.N,GND*%
X165700000Y-105900000D03*
%TO.N,/HB_THERM*%
X163160000Y-105900000D03*
%TO.N,XSTP*%
X180940000Y-103360000D03*
%TO.N,XDIR*%
X178400000Y-103360000D03*
%TO.N,/E0_THERM*%
X165700000Y-103360000D03*
%TO.N,GPIO27*%
X163160000Y-103360000D03*
%TO.N,XSTOP*%
X180940000Y-100820000D03*
%TO.N,YEN*%
X178400000Y-100820000D03*
%TO.N,GPIO26*%
X165700000Y-100820000D03*
%TO.N,GPIO25*%
X163160000Y-100820000D03*
%TO.N,YSTP*%
X180940000Y-98280000D03*
%TO.N,YDIR*%
X178400000Y-98280000D03*
%TO.N,/HB_PWM*%
X165700000Y-98280000D03*
%TO.N,/E0_PWM*%
X163160000Y-98280000D03*
%TO.N,YSTOP*%
X180940000Y-95740000D03*
%TO.N,ZEN*%
X178400000Y-95740000D03*
%TO.N,/FAN2_PWM*%
X165700000Y-95740000D03*
%TO.N,/FAN1_PWM*%
X163160000Y-95740000D03*
%TO.N,ZSTP*%
X180940000Y-93200000D03*
%TO.N,GND*%
X178400000Y-93200000D03*
%TO.N,E0EN*%
X175860000Y-93200000D03*
%TO.N,E0DIR*%
X173320000Y-93200000D03*
%TO.N,UART_RX*%
X170780000Y-93200000D03*
%TO.N,/PROBE_SRVO*%
X168240000Y-93200000D03*
%TO.N,GND*%
X165700000Y-93200000D03*
%TO.N,/FAN0_PWM*%
X163160000Y-93200000D03*
%TO.N,GND*%
X180940000Y-90660000D03*
%TO.N,ZDIR*%
X178400000Y-90660000D03*
%TO.N,ZSTOP*%
X175860000Y-90660000D03*
%TO.N,E0STP*%
X173320000Y-90660000D03*
%TO.N,E0STOP*%
X170780000Y-90660000D03*
%TO.N,UART_TX*%
X168240000Y-90660000D03*
%TO.N,/PROBE_DET*%
X165700000Y-90660000D03*
%TO.N,GND*%
X163160000Y-90660000D03*
%TD*%
D17*
%TO.N,Net-(JP2-Pad1)*%
%TO.C,JP2*%
X120875000Y-82950000D03*
D18*
%TO.N,XSTOP*%
X123415000Y-82950000D03*
%TD*%
D22*
%TO.N,VCC*%
%TO.C,J14*%
X117305000Y-131100000D03*
D23*
%TO.N,Net-(J14-Pad2)*%
X122305000Y-131100000D03*
%TD*%
D19*
%TO.N,Net-(J13-Pad1)*%
%TO.C,J13*%
X169202600Y-120004800D03*
D20*
%TO.N,VCC*%
X171702600Y-120004800D03*
%TD*%
D13*
%TO.N,VCC*%
%TO.C,C45*%
X196140021Y-77873413D03*
D14*
%TO.N,Net-(C39-Pad1)*%
X198640021Y-77873413D03*
%TD*%
D24*
%TO.N,Net-(J17-Pad1)*%
%TO.C,J17*%
X116375000Y-69020000D03*
D25*
%TO.N,Net-(J17-Pad2)*%
X113875000Y-69020000D03*
%TO.N,Net-(J17-Pad3)*%
X111375000Y-69020000D03*
%TO.N,Net-(J17-Pad4)*%
X108875000Y-69020000D03*
%TD*%
D13*
%TO.N,VCC*%
%TO.C,C31*%
X121017621Y-77875000D03*
D14*
%TO.N,Net-(C25-Pad1)*%
X123517621Y-77875000D03*
%TD*%
D26*
%TO.N,Net-(C17-Pad1)*%
%TO.C,J10*%
X177612600Y-120004900D03*
D25*
%TO.N,GND*%
X180112600Y-120004900D03*
%TO.N,+5V*%
X182612600Y-120004900D03*
%TD*%
D17*
%TO.N,Net-(JP4-Pad1)*%
%TO.C,JP4*%
X195850000Y-82948413D03*
D18*
%TO.N,E0STOP*%
X198390000Y-82948413D03*
%TD*%
D22*
%TO.N,Net-(F2-Pad1)*%
%TO.C,J1*%
X106095000Y-128500000D03*
D23*
%TO.N,Net-(D2-Pad1)*%
X106095000Y-133500000D03*
%TD*%
D19*
%TO.N,Net-(C12-Pad1)*%
%TO.C,J6*%
X158320520Y-133744880D03*
D20*
%TO.N,GND*%
X160820520Y-133744880D03*
%TD*%
D19*
%TO.N,Net-(J16-Pad1)*%
%TO.C,J16*%
X191922600Y-133744840D03*
D20*
%TO.N,GND*%
X194422600Y-133744840D03*
%TD*%
D19*
%TO.N,Net-(J11-Pad1)*%
%TO.C,J11*%
X149920000Y-133745000D03*
D20*
%TO.N,VCC*%
X152420000Y-133745000D03*
%TD*%
D17*
%TO.N,+5V*%
%TO.C,J23*%
X198875000Y-108300000D03*
D18*
%TO.N,GND*%
X196335000Y-108300000D03*
%TD*%
D13*
%TO.N,VCC*%
%TO.C,C46*%
X170925000Y-77875000D03*
D14*
%TO.N,Net-(C41-Pad1)*%
X173425000Y-77875000D03*
%TD*%
D24*
%TO.N,Net-(J20-Pad1)*%
%TO.C,J20*%
X178775000Y-69020000D03*
D25*
%TO.N,Net-(J20-Pad2)*%
X176275000Y-69020000D03*
%TO.N,Net-(J20-Pad3)*%
X173775000Y-69020000D03*
%TO.N,Net-(J20-Pad4)*%
X171275000Y-69020000D03*
%TD*%
D17*
%TO.N,Net-(J16-Pad1)*%
%TO.C,JP6*%
X200575000Y-128600000D03*
D18*
%TO.N,Net-(JP6-Pad2)*%
X198035000Y-128600000D03*
%TD*%
D24*
%TO.N,Net-(J19-Pad1)*%
%TO.C,J21*%
X164225000Y-69020000D03*
D25*
%TO.N,Net-(J19-Pad2)*%
X161725000Y-69020000D03*
%TO.N,Net-(J19-Pad3)*%
X159225000Y-69020000D03*
%TO.N,Net-(J19-Pad4)*%
X156725000Y-69020000D03*
%TD*%
D19*
%TO.N,Net-(C15-Pad1)*%
%TO.C,J8*%
X166721040Y-133744920D03*
D20*
%TO.N,GND*%
X169221040Y-133744920D03*
%TD*%
D13*
%TO.N,VCC*%
%TO.C,C32*%
X146117621Y-77868413D03*
D14*
%TO.N,Net-(C27-Pad1)*%
X148617621Y-77868413D03*
%TD*%
D17*
%TO.N,Net-(JP3-Pad1)*%
%TO.C,JP3*%
X145950000Y-82943413D03*
D18*
%TO.N,YSTOP*%
X148490000Y-82943413D03*
%TD*%
D22*
%TO.N,VCC*%
%TO.C,J15*%
X128805000Y-131100000D03*
D23*
%TO.N,Net-(J15-Pad2)*%
X133805000Y-131100000D03*
%TD*%
D17*
%TO.N,Net-(JP5-Pad1)*%
%TO.C,JP5*%
X170775000Y-82950000D03*
D18*
%TO.N,ZSTOP*%
X173315000Y-82950000D03*
%TD*%
D26*
%TO.N,GND*%
%TO.C,J5*%
X188520000Y-118055000D03*
D25*
%TO.N,+5V*%
X191020000Y-118055000D03*
%TO.N,/PROBE_SRVO*%
X193520000Y-118055000D03*
%TO.N,/PROBE_DET*%
X196020000Y-118055000D03*
%TO.N,GND*%
X198520000Y-118055000D03*
%TD*%
D17*
%TO.N,+3.3V*%
%TO.C,J22*%
X198875000Y-105400000D03*
D18*
%TO.N,GPIO25*%
X196335000Y-105400000D03*
%TD*%
D24*
%TO.N,Net-(J19-Pad1)*%
%TO.C,J19*%
X150025000Y-69020000D03*
D25*
%TO.N,Net-(J19-Pad2)*%
X147525000Y-69020000D03*
%TO.N,Net-(J19-Pad3)*%
X145025000Y-69020000D03*
%TO.N,Net-(J19-Pad4)*%
X142525000Y-69020000D03*
%TD*%
D24*
%TO.N,Net-(J18-Pad1)*%
%TO.C,J18*%
X135575000Y-69020000D03*
D25*
%TO.N,Net-(J18-Pad2)*%
X133075000Y-69020000D03*
%TO.N,Net-(J18-Pad3)*%
X130575000Y-69020000D03*
%TO.N,Net-(J18-Pad4)*%
X128075000Y-69020000D03*
%TD*%
D17*
%TO.N,GND*%
%TO.C,JP1*%
X187100000Y-102775000D03*
D18*
%TO.N,Net-(C5-Pad2)*%
X187100000Y-105315000D03*
%TD*%
D19*
%TO.N,Net-(J12-Pad1)*%
%TO.C,J12*%
X160800000Y-119975000D03*
D20*
%TO.N,VCC*%
X163300000Y-119975000D03*
%TD*%
D27*
%TO.N,GND*%
X120625000Y-119075000D03*
X133650000Y-119100000D03*
X151900000Y-126500000D03*
D28*
X135475000Y-79113413D03*
D27*
X113450000Y-114050000D03*
X121550000Y-119100000D03*
X132725000Y-119075000D03*
X132317500Y-117582500D03*
X133650000Y-120300000D03*
X120625000Y-120325000D03*
X151600000Y-76200000D03*
X161737500Y-127800000D03*
X165200000Y-86900000D03*
X126800000Y-76200000D03*
X143095000Y-104525000D03*
X157100000Y-106700000D03*
X190100000Y-86900000D03*
X115600000Y-86900000D03*
X123750000Y-112547349D03*
D28*
X160250000Y-79107500D03*
D27*
X117600000Y-101940000D03*
X150600000Y-103300000D03*
X121860000Y-117660000D03*
D28*
X110675000Y-79120000D03*
D27*
X131685000Y-119715000D03*
X129250000Y-116800000D03*
X123750000Y-108400000D03*
X117200000Y-106937500D03*
X119685000Y-119715000D03*
X111962500Y-106937500D03*
X155120000Y-102700000D03*
X177150000Y-111250000D03*
X102000000Y-76200000D03*
D29*
X106800000Y-100250000D03*
D27*
X113450000Y-116750000D03*
X145590000Y-110920000D03*
X192700000Y-98100000D03*
X176500000Y-76200000D03*
D28*
X185200000Y-79100000D03*
D27*
X198150000Y-91250000D03*
X175687500Y-127662500D03*
X132725000Y-120325000D03*
X152700000Y-120850000D03*
X168637500Y-127712500D03*
X121550000Y-120300000D03*
X140400000Y-86900000D03*
X126987500Y-104562500D03*
%TO.N,+3.3V*%
X118450000Y-92350000D03*
X141300000Y-91600000D03*
X180800000Y-87250000D03*
X124000000Y-99650000D03*
X166225000Y-122475000D03*
X131100000Y-92300000D03*
X118800000Y-99650000D03*
X168600000Y-126200000D03*
X175650000Y-126200000D03*
X194800000Y-122500000D03*
X141300000Y-84800000D03*
X166100000Y-84800000D03*
X191000000Y-84800000D03*
X106300000Y-87250000D03*
X131100000Y-87250000D03*
X182300000Y-124200000D03*
X116500000Y-84800000D03*
X193200000Y-127300000D03*
X155900000Y-87250000D03*
X169950000Y-113000000D03*
%TO.N,+5V*%
X120802651Y-110647349D03*
X158200000Y-101600000D03*
X121337500Y-104562500D03*
X128400000Y-103250000D03*
X164400000Y-113900000D03*
%TO.N,/HB_THERM*%
X178312500Y-125100000D03*
D30*
%TO.N,VCC*%
X157324500Y-76900000D03*
X132600000Y-76900000D03*
X157324500Y-76300000D03*
X132600000Y-82500000D03*
X132600000Y-75700000D03*
X157324500Y-81900000D03*
D27*
X185400000Y-86837500D03*
X110900000Y-86800000D03*
D30*
X157324500Y-81300000D03*
X182300000Y-75700000D03*
X182300000Y-82500000D03*
X182300000Y-76300000D03*
X182300000Y-76900000D03*
X132600000Y-76300000D03*
X107800000Y-82500000D03*
X182300000Y-81900000D03*
X132600000Y-81900000D03*
D27*
X135700000Y-86800000D03*
X160500000Y-86800000D03*
D30*
X107800000Y-76300000D03*
X107800000Y-75700000D03*
X132600000Y-81300000D03*
X157324500Y-75700000D03*
X157324500Y-82500000D03*
X182300000Y-81300000D03*
X107800000Y-81900000D03*
X107800000Y-81300000D03*
X107800000Y-76900000D03*
D27*
%TO.N,XDIR*%
X136600000Y-96000000D03*
%TO.N,XSTP*%
X135600000Y-97000000D03*
%TO.N,YSTP*%
X139700000Y-93100000D03*
%TO.N,ZSTP*%
X159400000Y-93200000D03*
%TO.N,XEN*%
X160300000Y-102100000D03*
X134400000Y-97900000D03*
%TO.N,YDIR*%
X140900000Y-93024500D03*
%TO.N,YEN*%
X138500000Y-93100000D03*
%TO.N,ZDIR*%
X160900000Y-92100000D03*
%TO.N,ZEN*%
X158300000Y-93200000D03*
%TO.N,E0DIR*%
X183100000Y-89200000D03*
X183900000Y-93100000D03*
%TO.N,E0EN*%
X182600000Y-91900000D03*
X185300000Y-91300000D03*
%TO.N,UART_TX*%
X160500000Y-97000000D03*
%TO.N,/FAN2_PWM*%
X146445000Y-108425000D03*
%TO.N,/HB_PWM*%
X160800000Y-103900000D03*
%TO.N,GPIO27*%
X168072211Y-100600000D03*
X187100000Y-98300000D03*
%TO.N,/FAN1_PWM*%
X146445000Y-105825000D03*
D31*
X157900000Y-99200000D03*
D27*
%TO.N,/E0_THERM*%
X189500000Y-123500000D03*
%TO.N,Net-(J2-PadA6)*%
X193100000Y-93300000D03*
X189000000Y-107900000D03*
X190700000Y-98200000D03*
%TO.N,Net-(J2-PadA7)*%
X189700000Y-108700000D03*
X191600000Y-99400000D03*
X192200000Y-94300000D03*
%TO.N,/E0_PWM*%
X155145000Y-109675000D03*
%TO.N,GPIO26*%
X187100000Y-99500000D03*
%TO.N,GPIO25*%
X187100000Y-100700000D03*
D31*
%TO.N,Net-(J17-Pad4)*%
X107700000Y-83600000D03*
D27*
%TO.N,Net-(J17-Pad3)*%
X106050000Y-80700000D03*
%TO.N,Net-(J18-Pad3)*%
X130850000Y-80700000D03*
D31*
%TO.N,Net-(J18-Pad4)*%
X132600000Y-83700000D03*
%TO.N,Net-(J19-Pad4)*%
X157400000Y-83700000D03*
D27*
%TO.N,Net-(J19-Pad3)*%
X155650000Y-80700000D03*
D31*
%TO.N,Net-(J20-Pad4)*%
X182300000Y-83700000D03*
D27*
%TO.N,Net-(J20-Pad3)*%
X180550000Y-80700000D03*
%TO.N,Net-(C1-Pad1)*%
X117450000Y-114800000D03*
X110650000Y-105500000D03*
X109100000Y-111500000D03*
%TO.N,Net-(C5-Pad2)*%
X183700000Y-105100000D03*
%TO.N,Net-(R40-Pad1)*%
X139050000Y-74000000D03*
X129100000Y-73500000D03*
%TO.N,Net-(R50-Pad1)*%
X163850000Y-74000000D03*
X153900000Y-73500000D03*
%TO.N,Net-(J13-Pad1)*%
X174950000Y-116150000D03*
%TO.N,Net-(R4-Pad2)*%
X122450000Y-107675500D03*
X111100000Y-118300000D03*
%TO.N,Net-(R16-Pad2)*%
X139200000Y-114800000D03*
X116600000Y-119400000D03*
%TO.N,Net-(R18-Pad2)*%
X139200000Y-113700000D03*
X128600000Y-118100000D03*
%TO.N,Net-(R28-Pad2)*%
X149345000Y-107125000D03*
X150700000Y-116900000D03*
%TO.N,Net-(R30-Pad2)*%
X149600000Y-109625000D03*
X180500000Y-115250000D03*
%TO.N,Net-(R35-Pad1)*%
X137750000Y-74400000D03*
X112950000Y-74400000D03*
X180400000Y-74400000D03*
X174900000Y-85900000D03*
X130967963Y-73834411D03*
X128200000Y-78300000D03*
X106167963Y-73834411D03*
X155767963Y-73834411D03*
X103400000Y-78300000D03*
X162550000Y-74400000D03*
X177900000Y-78300000D03*
X176900000Y-83900000D03*
X154200000Y-94700000D03*
X153000000Y-78300000D03*
X187470364Y-74645765D03*
%TO.N,Net-(R38-Pad1)*%
X114250000Y-74000000D03*
X104300000Y-73500000D03*
%TO.N,Net-(R48-Pad1)*%
X179100000Y-74000000D03*
X188800000Y-74300000D03*
%TO.N,Net-(R26-Pad2)*%
X149345000Y-104575000D03*
X148750000Y-123550000D03*
%TO.N,XSTOP*%
X157400000Y-124800000D03*
X160100000Y-109400000D03*
%TO.N,YSTOP*%
X164300000Y-124800000D03*
X167800000Y-98200000D03*
X161200000Y-110100000D03*
%TO.N,ZSTOP*%
X171500000Y-124800000D03*
X173400000Y-121700000D03*
X172000000Y-113100000D03*
X170900000Y-96200000D03*
%TO.N,E0STOP*%
X184500000Y-111800000D03*
X185200000Y-94900000D03*
%TO.N,XENR*%
X113350000Y-88150000D03*
X104000000Y-84800000D03*
%TO.N,YENR*%
X138150000Y-88150000D03*
X128800000Y-84800000D03*
%TO.N,E0ENR*%
X187850000Y-88150000D03*
X178500000Y-84800000D03*
%TO.N,ZENR*%
X158300000Y-89200000D03*
X153600000Y-84800000D03*
%TO.N,XSTPR*%
X111650000Y-74950000D03*
X114550000Y-88150000D03*
%TO.N,XDIRR*%
X115250000Y-89900000D03*
X109700000Y-74950000D03*
%TO.N,YSTPR*%
X136450000Y-74950000D03*
X139350000Y-88150000D03*
%TO.N,YDIRR*%
X134500000Y-74950000D03*
X140050000Y-89900000D03*
D32*
%TO.N,ZSTPR*%
X163800000Y-83400000D03*
D27*
X159500000Y-89200000D03*
X161250000Y-74950000D03*
D32*
%TO.N,ZDIRR*%
X161900000Y-83400000D03*
D27*
X160156623Y-90922649D03*
X159300000Y-74950000D03*
%TO.N,E0STPR*%
X189050000Y-88150000D03*
X186150000Y-74950000D03*
%TO.N,E0DIRR*%
X184200000Y-74950000D03*
X189750000Y-89900000D03*
%TO.N,/FAN0_PWM*%
X146445000Y-103375000D03*
D31*
X154800000Y-99200000D03*
%TD*%
D33*
%TO.N,+3.3V*%
X140300000Y-108700000D02*
X140300000Y-105800000D01*
X131200000Y-92300000D02*
X131100000Y-92200000D01*
X118450000Y-92350000D02*
X118900000Y-91900000D01*
X169950000Y-113000000D02*
X144600000Y-113000000D01*
X131100000Y-92200000D02*
X131100000Y-92300000D01*
X155900000Y-87250000D02*
X155900000Y-87800000D01*
X128400000Y-92300000D02*
X131100000Y-92300000D01*
X131100000Y-99600000D02*
X131050000Y-99650000D01*
X141300000Y-91600000D02*
X141300000Y-92300000D01*
X131050000Y-99650000D02*
X124000000Y-99650000D01*
X180800000Y-87250000D02*
X180800000Y-88200000D01*
X144600000Y-113000000D02*
X140300000Y-108700000D01*
X180800000Y-88200000D02*
X180200000Y-88800000D01*
X118900000Y-91900000D02*
X128000000Y-91900000D01*
X134150000Y-99650000D02*
X131050000Y-99650000D01*
X180200000Y-88800000D02*
X170800000Y-88800000D01*
X131200000Y-92300000D02*
X151400000Y-92300000D01*
X170800000Y-88800000D02*
X166800000Y-84800000D01*
X155900000Y-87800000D02*
X151400000Y-92300000D01*
X166800000Y-84800000D02*
X166100000Y-84800000D01*
X131100000Y-92300000D02*
X131100000Y-99600000D01*
X128000000Y-91900000D02*
X128400000Y-92300000D01*
X140300000Y-105800000D02*
X134150000Y-99650000D01*
X118800000Y-99650000D02*
X124000000Y-99650000D01*
%TO.N,+5V*%
X191020000Y-119280000D02*
X191020000Y-118055000D01*
D34*
X128400000Y-103250000D02*
X121750000Y-103250000D01*
X121750000Y-103250000D02*
X121337500Y-103662500D01*
D33*
X120802651Y-108147349D02*
X121350000Y-107600000D01*
X168500000Y-117100000D02*
X181400000Y-117100000D01*
X121350000Y-107600000D02*
X121350000Y-104575000D01*
X182612600Y-118312600D02*
X182612600Y-120004900D01*
X190295100Y-120004900D02*
X191020000Y-119280000D01*
X121350000Y-104575000D02*
X121337500Y-104562500D01*
X182612600Y-120004900D02*
X190295100Y-120004900D01*
X164400000Y-113900000D02*
X165300000Y-113900000D01*
X165300000Y-113900000D02*
X168500000Y-117100000D01*
D34*
X121337500Y-103662500D02*
X121337500Y-104562500D01*
D33*
X120802651Y-110647349D02*
X120802651Y-108147349D01*
X181400000Y-117100000D02*
X182612600Y-118312600D01*
%TO.N,VCC*%
X130500000Y-135500000D02*
X151800000Y-135500000D01*
X163300000Y-121400000D02*
X161100000Y-123600000D01*
X161100000Y-123600000D02*
X156600000Y-123600000D01*
X156100000Y-124100000D02*
X156100000Y-130065000D01*
X163300000Y-118700000D02*
X163300000Y-119975000D01*
X152420000Y-134880000D02*
X152420000Y-133745000D01*
X163300000Y-119975000D02*
X163300000Y-121400000D01*
X151800000Y-135500000D02*
X152420000Y-134880000D01*
X156600000Y-123600000D02*
X156100000Y-124100000D01*
X128805000Y-133805000D02*
X130500000Y-135500000D01*
X171300000Y-118300000D02*
X163700000Y-118300000D01*
X163700000Y-118300000D02*
X163300000Y-118700000D01*
X171702600Y-118702600D02*
X171300000Y-118300000D01*
X156100000Y-130065000D02*
X152420000Y-133745000D01*
X171702600Y-120004800D02*
X171702600Y-118702600D01*
X128805000Y-131100000D02*
X128805000Y-133805000D01*
D35*
%TO.N,XDIR*%
X166400000Y-102100000D02*
X170800000Y-102100000D01*
X161800000Y-100000000D02*
X161800000Y-101300000D01*
X166396000Y-102096000D02*
X166400000Y-102100000D01*
X172060000Y-103360000D02*
X178400000Y-103360000D01*
X136600000Y-96000000D02*
X139100000Y-98500000D01*
X139100000Y-98500000D02*
X160300000Y-98500000D01*
X170800000Y-102100000D02*
X172060000Y-103360000D01*
X160300000Y-98500000D02*
X161800000Y-100000000D01*
X161800000Y-101300000D02*
X162596000Y-102096000D01*
X162596000Y-102096000D02*
X166396000Y-102096000D01*
%TO.N,XSTP*%
X161700000Y-104200000D02*
X162130000Y-104630000D01*
X161700000Y-102000000D02*
X161700000Y-104200000D01*
X162130000Y-104630000D02*
X179670000Y-104630000D01*
X138650000Y-100050000D02*
X159750000Y-100050000D01*
X135600000Y-97000000D02*
X138650000Y-100050000D01*
X159750000Y-100050000D02*
X161700000Y-102000000D01*
X179670000Y-104630000D02*
X180940000Y-103360000D01*
D33*
%TO.N,YSTP*%
X161400000Y-95700000D02*
X161700000Y-96000000D01*
X161700000Y-96300000D02*
X162400000Y-97000000D01*
X153000000Y-93800000D02*
X153300000Y-94100000D01*
X179677036Y-99542964D02*
X180940000Y-98280000D01*
X162400000Y-97000000D02*
X168700000Y-97000000D01*
X171242964Y-99542964D02*
X179677036Y-99542964D01*
X153300000Y-94100000D02*
X153300000Y-95400000D01*
X153600000Y-95700000D02*
X161400000Y-95700000D01*
X140400000Y-93800000D02*
X153000000Y-93800000D01*
X161700000Y-96000000D02*
X161700000Y-96300000D01*
X168700000Y-97000000D02*
X171242964Y-99542964D01*
X153300000Y-95400000D02*
X153600000Y-95700000D01*
X139700000Y-93100000D02*
X140400000Y-93800000D01*
D35*
%TO.N,XEN*%
X158396016Y-100600000D02*
X137100000Y-100600000D01*
X159896016Y-102100000D02*
X158396016Y-100600000D01*
X137100000Y-100600000D02*
X134400000Y-97900000D01*
X160300000Y-102100000D02*
X159896016Y-102100000D01*
D33*
%TO.N,YDIR*%
X157100000Y-93300000D02*
X158214000Y-94414000D01*
X141175500Y-93300000D02*
X157100000Y-93300000D01*
X167214000Y-94414000D02*
X171080000Y-98280000D01*
X158214000Y-94414000D02*
X167214000Y-94414000D01*
X171080000Y-98280000D02*
X178400000Y-98280000D01*
X140900000Y-93024500D02*
X141175500Y-93300000D01*
%TO.N,YEN*%
X152800000Y-94600000D02*
X152800000Y-97400000D01*
X177220000Y-100820000D02*
X178400000Y-100820000D01*
X170400000Y-99500000D02*
X171000000Y-100100000D01*
X153400000Y-98000000D02*
X161000000Y-98000000D01*
X138500000Y-93100000D02*
X139700000Y-94300000D01*
X152800000Y-97400000D02*
X153400000Y-98000000D01*
X139700000Y-94300000D02*
X152500000Y-94300000D01*
X161000000Y-98000000D02*
X162500000Y-99500000D01*
X152500000Y-94300000D02*
X152800000Y-94600000D01*
X176500000Y-100100000D02*
X177220000Y-100820000D01*
X171000000Y-100100000D02*
X176500000Y-100100000D01*
X162500000Y-99500000D02*
X170400000Y-99500000D01*
%TO.N,ZDIR*%
X160900000Y-91200000D02*
X160900000Y-92100000D01*
X162654000Y-89446000D02*
X160900000Y-91200000D01*
X178400000Y-90660000D02*
X177186000Y-89446000D01*
X177186000Y-89446000D02*
X162654000Y-89446000D01*
%TO.N,E0DIR*%
X183100000Y-89200000D02*
X183900000Y-90000000D01*
X183900000Y-90000000D02*
X183900000Y-93100000D01*
D36*
%TO.N,GPIO27*%
X198875000Y-102500000D02*
X198875000Y-101075000D01*
X198200000Y-100400000D02*
X191100000Y-100400000D01*
X189000000Y-98300000D02*
X187100000Y-98300000D01*
X191100000Y-100400000D02*
X189000000Y-98300000D01*
X198875000Y-101075000D02*
X198200000Y-100400000D01*
%TO.N,GPIO26*%
X196335000Y-102500000D02*
X191800000Y-102500000D01*
X188800000Y-99500000D02*
X187100000Y-99500000D01*
X191800000Y-102500000D02*
X188800000Y-99500000D01*
D33*
%TO.N,GPIO25*%
X193400000Y-105400000D02*
X196335000Y-105400000D01*
X188700000Y-100700000D02*
X193400000Y-105400000D01*
X187100000Y-100700000D02*
X188700000Y-100700000D01*
%TO.N,Net-(J19-Pad2)*%
X149115733Y-67429267D02*
X160134267Y-67429267D01*
X160134267Y-67429267D02*
X161725000Y-69020000D01*
X147525000Y-69020000D02*
X149115733Y-67429267D01*
%TO.N,Net-(J19-Pad1)*%
X162634267Y-70610733D02*
X151615733Y-70610733D01*
X164225000Y-69020000D02*
X162634267Y-70610733D01*
X151615733Y-70610733D02*
X150025000Y-69020000D01*
D35*
%TO.N,Net-(C1-Pad1)*%
X109100000Y-111950000D02*
X109600000Y-112450000D01*
X109100000Y-109000000D02*
X110650000Y-107450000D01*
X117450000Y-112725000D02*
X117450000Y-114800000D01*
X109100000Y-111500000D02*
X109100000Y-109000000D01*
X110650000Y-107450000D02*
X110650000Y-105500000D01*
X117175000Y-112450000D02*
X117450000Y-112725000D01*
X109100000Y-111500000D02*
X109100000Y-111950000D01*
X109600000Y-112450000D02*
X117175000Y-112450000D01*
D33*
%TO.N,Net-(C5-Pad2)*%
X177092964Y-109257036D02*
X176650000Y-109700000D01*
X182000000Y-107150000D02*
X177550000Y-107150000D01*
X173700000Y-109700000D02*
X173320000Y-109320000D01*
X182500000Y-105550000D02*
X182500000Y-106650000D01*
X183700000Y-105100000D02*
X182950000Y-105100000D01*
X182500000Y-106650000D02*
X182000000Y-107150000D01*
X182950000Y-105100000D02*
X182500000Y-105550000D01*
X177550000Y-107150000D02*
X177092964Y-107607036D01*
X177092964Y-107607036D02*
X177092964Y-109257036D01*
X176650000Y-109700000D02*
X173700000Y-109700000D01*
X173320000Y-109320000D02*
X173320000Y-108440000D01*
%TO.N,Net-(R40-Pad1)*%
X129550000Y-73050000D02*
X138700000Y-73050000D01*
X138700000Y-73050000D02*
X139050000Y-73400000D01*
X139050000Y-73400000D02*
X139050000Y-74000000D01*
X129100000Y-73500000D02*
X129550000Y-73050000D01*
%TO.N,Net-(R50-Pad1)*%
X163500000Y-73050000D02*
X163850000Y-73400000D01*
X163850000Y-73400000D02*
X163850000Y-74000000D01*
X154350000Y-73050000D02*
X163500000Y-73050000D01*
X153900000Y-73500000D02*
X154350000Y-73050000D01*
%TO.N,Net-(R16-Pad2)*%
X116600000Y-119400000D02*
X117000000Y-119400000D01*
X129000000Y-113700000D02*
X138000000Y-113700000D01*
X119465000Y-116935000D02*
X125765000Y-116935000D01*
X138000000Y-113700000D02*
X139100000Y-114800000D01*
X139100000Y-114800000D02*
X139200000Y-114800000D01*
X117000000Y-119400000D02*
X119465000Y-116935000D01*
X125765000Y-116935000D02*
X129000000Y-113700000D01*
%TO.N,Net-(R35-Pad1)*%
X106167963Y-73834411D02*
X106352374Y-73650000D01*
X131152374Y-73650000D02*
X137500000Y-73650000D01*
X187470364Y-74645765D02*
X187470364Y-74170364D01*
X106352374Y-73650000D02*
X112700000Y-73650000D01*
X180800000Y-74000000D02*
X180400000Y-74400000D01*
X162300000Y-73650000D02*
X162550000Y-73900000D01*
X187300000Y-74000000D02*
X180800000Y-74000000D01*
X155952374Y-73650000D02*
X162300000Y-73650000D01*
X112950000Y-73900000D02*
X112950000Y-74400000D01*
X187470364Y-74170364D02*
X187300000Y-74000000D01*
X137750000Y-74400000D02*
X137750000Y-73900000D01*
X137500000Y-73650000D02*
X137750000Y-73900000D01*
X162550000Y-74400000D02*
X162550000Y-73900000D01*
X112700000Y-73650000D02*
X112950000Y-73900000D01*
%TO.N,Net-(R38-Pad1)*%
X104300000Y-73500000D02*
X104750000Y-73050000D01*
X114250000Y-73400000D02*
X114250000Y-74000000D01*
X113900000Y-73050000D02*
X114250000Y-73400000D01*
X104750000Y-73050000D02*
X113900000Y-73050000D01*
%TO.N,Net-(R48-Pad1)*%
X188800000Y-73900000D02*
X188800000Y-74300000D01*
X179550000Y-73550000D02*
X188450000Y-73550000D01*
X188450000Y-73550000D02*
X188800000Y-73900000D01*
X179100000Y-74000000D02*
X179550000Y-73550000D01*
%TO.N,ZSTOP*%
X173400000Y-121700000D02*
X171500000Y-123600000D01*
X173822856Y-94414000D02*
X174646000Y-93590856D01*
X171500000Y-123600000D02*
X171500000Y-124800000D01*
X170900000Y-96200000D02*
X172686000Y-94414000D01*
X172686000Y-94414000D02*
X173822856Y-94414000D01*
X174646000Y-91874000D02*
X175860000Y-90660000D01*
X174646000Y-93590856D02*
X174646000Y-91874000D01*
%TO.N,E0STOP*%
X185200000Y-110500000D02*
X184500000Y-111200000D01*
X184500000Y-111200000D02*
X184500000Y-111800000D01*
X185200000Y-94900000D02*
X185200000Y-110500000D01*
%TO.N,ZSTPR*%
X163800000Y-87700000D02*
X163000000Y-88500000D01*
X162100000Y-88500000D02*
X161400000Y-89200000D01*
X163800000Y-83400000D02*
X163800000Y-87700000D01*
X163000000Y-88500000D02*
X162100000Y-88500000D01*
X161400000Y-89200000D02*
X159500000Y-89200000D01*
%TO.N,ZDIRR*%
X157600000Y-88300000D02*
X161100000Y-88300000D01*
X157000000Y-90500000D02*
X157000000Y-88900000D01*
X160156623Y-90922649D02*
X157422649Y-90922649D01*
X161100000Y-88300000D02*
X161900000Y-87500000D01*
X157000000Y-88900000D02*
X157600000Y-88300000D01*
X161900000Y-87500000D02*
X161900000Y-83400000D01*
X157422649Y-90922649D02*
X157000000Y-90500000D01*
%TD*%
%TA.AperFunction,Conductor*%
%TO.N,VCC*%
G36*
X110429759Y-118920002D02*
G01*
X110455269Y-118941685D01*
X110488747Y-118978866D01*
X110643248Y-119091118D01*
X110649276Y-119093802D01*
X110649278Y-119093803D01*
X110811681Y-119166109D01*
X110817712Y-119168794D01*
X110911112Y-119188647D01*
X110998056Y-119207128D01*
X110998061Y-119207128D01*
X111004513Y-119208500D01*
X111195487Y-119208500D01*
X111201939Y-119207128D01*
X111201944Y-119207128D01*
X111288888Y-119188647D01*
X111382288Y-119168794D01*
X111388319Y-119166109D01*
X111550722Y-119093803D01*
X111550724Y-119093802D01*
X111556752Y-119091118D01*
X111711253Y-118978866D01*
X111744728Y-118941688D01*
X111805171Y-118904450D01*
X111838362Y-118900000D01*
X115174000Y-118900000D01*
X115242121Y-118920002D01*
X115288614Y-118973658D01*
X115300000Y-119026000D01*
X115300000Y-124274000D01*
X115279998Y-124342121D01*
X115226342Y-124388614D01*
X115174000Y-124400000D01*
X108282078Y-124400000D01*
X108213957Y-124379998D01*
X108166827Y-124324925D01*
X108144326Y-124274000D01*
X107665651Y-123190683D01*
X108573677Y-123190683D01*
X108583559Y-123203172D01*
X108631414Y-123235148D01*
X108641527Y-123240639D01*
X108829581Y-123321433D01*
X108840514Y-123324985D01*
X109040142Y-123370157D01*
X109051551Y-123371659D01*
X109256069Y-123379694D01*
X109267551Y-123379092D01*
X109470111Y-123349723D01*
X109481294Y-123347038D01*
X109675104Y-123281249D01*
X109685617Y-123276568D01*
X109818358Y-123202228D01*
X109828223Y-123192150D01*
X109827658Y-123190683D01*
X112273677Y-123190683D01*
X112283559Y-123203172D01*
X112331414Y-123235148D01*
X112341527Y-123240639D01*
X112529581Y-123321433D01*
X112540514Y-123324985D01*
X112740142Y-123370157D01*
X112751551Y-123371659D01*
X112956069Y-123379694D01*
X112967551Y-123379092D01*
X113170111Y-123349723D01*
X113181294Y-123347038D01*
X113375104Y-123281249D01*
X113385617Y-123276568D01*
X113518358Y-123202228D01*
X113528223Y-123192150D01*
X113525267Y-123184478D01*
X112912811Y-122572021D01*
X112898868Y-122564408D01*
X112897034Y-122564539D01*
X112890420Y-122568790D01*
X112279870Y-123179341D01*
X112273677Y-123190683D01*
X109827658Y-123190683D01*
X109825267Y-123184478D01*
X109212811Y-122572021D01*
X109198868Y-122564408D01*
X109197034Y-122564539D01*
X109190420Y-122568790D01*
X108579870Y-123179341D01*
X108573677Y-123190683D01*
X107665651Y-123190683D01*
X107216789Y-122174837D01*
X108019243Y-122174837D01*
X108032629Y-122379066D01*
X108034430Y-122390436D01*
X108084809Y-122588806D01*
X108088650Y-122599653D01*
X108174338Y-122785525D01*
X108180089Y-122795486D01*
X108196637Y-122818902D01*
X108207227Y-122827290D01*
X108220526Y-122820263D01*
X108827979Y-122212811D01*
X108834356Y-122201132D01*
X109564408Y-122201132D01*
X109564539Y-122202966D01*
X109568790Y-122209580D01*
X110180568Y-122821357D01*
X110192943Y-122828114D01*
X110199523Y-122823188D01*
X110276568Y-122685617D01*
X110281249Y-122675104D01*
X110347038Y-122481294D01*
X110349723Y-122470111D01*
X110379388Y-122265511D01*
X110380018Y-122258128D01*
X110381443Y-122203704D01*
X110381200Y-122196305D01*
X110379227Y-122174837D01*
X111719243Y-122174837D01*
X111732629Y-122379066D01*
X111734430Y-122390436D01*
X111784809Y-122588806D01*
X111788650Y-122599653D01*
X111874338Y-122785525D01*
X111880089Y-122795486D01*
X111896637Y-122818902D01*
X111907227Y-122827290D01*
X111920526Y-122820263D01*
X112527979Y-122212811D01*
X112534356Y-122201132D01*
X113264408Y-122201132D01*
X113264539Y-122202966D01*
X113268790Y-122209580D01*
X113880568Y-122821357D01*
X113892943Y-122828114D01*
X113899523Y-122823188D01*
X113976568Y-122685617D01*
X113981249Y-122675104D01*
X114047038Y-122481294D01*
X114049723Y-122470111D01*
X114079388Y-122265511D01*
X114080018Y-122258128D01*
X114081443Y-122203704D01*
X114081200Y-122196305D01*
X114062284Y-121990438D01*
X114060186Y-121979117D01*
X114004632Y-121782139D01*
X114000508Y-121771392D01*
X113909982Y-121587826D01*
X113904707Y-121579219D01*
X113893815Y-121571044D01*
X113881396Y-121577815D01*
X113272021Y-122187189D01*
X113264408Y-122201132D01*
X112534356Y-122201132D01*
X112535592Y-122198868D01*
X112535461Y-122197034D01*
X112531210Y-122190420D01*
X111917817Y-121577028D01*
X111905442Y-121570271D01*
X111899476Y-121574737D01*
X111811091Y-121742728D01*
X111806686Y-121753362D01*
X111745992Y-121948829D01*
X111743600Y-121960080D01*
X111719544Y-122163335D01*
X111719243Y-122174837D01*
X110379227Y-122174837D01*
X110362284Y-121990438D01*
X110360186Y-121979117D01*
X110304632Y-121782139D01*
X110300508Y-121771392D01*
X110209982Y-121587826D01*
X110204707Y-121579219D01*
X110193815Y-121571044D01*
X110181396Y-121577815D01*
X109572021Y-122187189D01*
X109564408Y-122201132D01*
X108834356Y-122201132D01*
X108835592Y-122198868D01*
X108835461Y-122197034D01*
X108831210Y-122190420D01*
X108217817Y-121577028D01*
X108205442Y-121570271D01*
X108199476Y-121574737D01*
X108111091Y-121742728D01*
X108106686Y-121753362D01*
X108045992Y-121948829D01*
X108043600Y-121960080D01*
X108019544Y-122163335D01*
X108019243Y-122174837D01*
X107216789Y-122174837D01*
X107121896Y-121960080D01*
X106789890Y-121208697D01*
X108572810Y-121208697D01*
X108576297Y-121217086D01*
X109187189Y-121827979D01*
X109201132Y-121835592D01*
X109202966Y-121835461D01*
X109209580Y-121831210D01*
X109819949Y-121220840D01*
X109826579Y-121208697D01*
X112272810Y-121208697D01*
X112276297Y-121217086D01*
X112887189Y-121827979D01*
X112901132Y-121835592D01*
X112902966Y-121835461D01*
X112909580Y-121831210D01*
X113519949Y-121220840D01*
X113526706Y-121208465D01*
X113520676Y-121200409D01*
X113441288Y-121150319D01*
X113431045Y-121145101D01*
X113240939Y-121069256D01*
X113229911Y-121065989D01*
X113029173Y-121026060D01*
X113017726Y-121024857D01*
X112813079Y-121022178D01*
X112801599Y-121023081D01*
X112599892Y-121057741D01*
X112588772Y-121060721D01*
X112396750Y-121131561D01*
X112386372Y-121136511D01*
X112282408Y-121198364D01*
X112272810Y-121208697D01*
X109826579Y-121208697D01*
X109826706Y-121208465D01*
X109820676Y-121200409D01*
X109741288Y-121150319D01*
X109731045Y-121145101D01*
X109540939Y-121069256D01*
X109529911Y-121065989D01*
X109329173Y-121026060D01*
X109317726Y-121024857D01*
X109113079Y-121022178D01*
X109101599Y-121023081D01*
X108899892Y-121057741D01*
X108888772Y-121060721D01*
X108696750Y-121131561D01*
X108686372Y-121136511D01*
X108582408Y-121198364D01*
X108572810Y-121208697D01*
X106789890Y-121208697D01*
X106307322Y-120116570D01*
X106307321Y-120116569D01*
X106300000Y-120100000D01*
X104526000Y-120100000D01*
X104457879Y-120079998D01*
X104411386Y-120026342D01*
X104400000Y-119974000D01*
X104400000Y-118900000D01*
X110361638Y-118900000D01*
X110429759Y-118920002D01*
G37*
%TD.AperFunction*%
%TD*%
%TA.AperFunction,Conductor*%
%TO.N,VCC*%
G36*
X196875141Y-74153748D02*
G01*
X196921672Y-74207371D01*
X196933092Y-74258871D01*
X196949064Y-76438490D01*
X196929561Y-76506755D01*
X196876248Y-76553640D01*
X196823067Y-76565413D01*
X196412136Y-76565413D01*
X196396897Y-76569888D01*
X196395692Y-76571278D01*
X196394021Y-76578961D01*
X196394021Y-79163297D01*
X196398496Y-79178536D01*
X196399886Y-79179741D01*
X196407569Y-79181412D01*
X196844084Y-79181412D01*
X196912205Y-79201414D01*
X196958698Y-79255070D01*
X196970081Y-79306489D01*
X196986007Y-81479811D01*
X196966504Y-81548076D01*
X196913191Y-81594961D01*
X196842993Y-81605580D01*
X196825428Y-81601150D01*
X196825400Y-81601269D01*
X196817716Y-81599442D01*
X196810316Y-81596668D01*
X196748134Y-81589913D01*
X194951866Y-81589913D01*
X194889684Y-81596668D01*
X194753295Y-81647798D01*
X194636739Y-81735152D01*
X194549385Y-81851708D01*
X194498255Y-81988097D01*
X194491500Y-82050279D01*
X194491500Y-83846547D01*
X194498255Y-83908729D01*
X194549385Y-84045118D01*
X194636739Y-84161674D01*
X194753295Y-84249028D01*
X194889684Y-84300158D01*
X194951866Y-84306913D01*
X196748134Y-84306913D01*
X196810316Y-84300158D01*
X196837231Y-84290068D01*
X196908039Y-84284885D01*
X196970408Y-84318806D01*
X197004537Y-84381061D01*
X197007458Y-84407127D01*
X197012051Y-85033891D01*
X197029790Y-87454485D01*
X197029853Y-87463140D01*
X197010350Y-87531405D01*
X196957037Y-87578290D01*
X196904101Y-87590063D01*
X190962448Y-87601619D01*
X190894289Y-87581749D01*
X190847691Y-87528184D01*
X190837451Y-87457930D01*
X190853084Y-87412619D01*
X190931223Y-87277279D01*
X190931224Y-87277278D01*
X190934527Y-87271556D01*
X190993542Y-87089928D01*
X191013504Y-86900000D01*
X190993542Y-86710072D01*
X190934527Y-86528444D01*
X190839040Y-86363056D01*
X190711253Y-86221134D01*
X190556752Y-86108882D01*
X190550724Y-86106198D01*
X190550722Y-86106197D01*
X190388319Y-86033891D01*
X190388318Y-86033891D01*
X190382288Y-86031206D01*
X190288887Y-86011353D01*
X190201944Y-85992872D01*
X190201939Y-85992872D01*
X190195487Y-85991500D01*
X190004513Y-85991500D01*
X189998061Y-85992872D01*
X189998056Y-85992872D01*
X189911113Y-86011353D01*
X189817712Y-86031206D01*
X189811682Y-86033891D01*
X189811681Y-86033891D01*
X189649278Y-86106197D01*
X189649276Y-86106198D01*
X189643248Y-86108882D01*
X189488747Y-86221134D01*
X189360960Y-86363056D01*
X189265473Y-86528444D01*
X189206458Y-86710072D01*
X189186496Y-86900000D01*
X189206458Y-87089928D01*
X189206883Y-87091237D01*
X189201628Y-87160095D01*
X189158811Y-87216727D01*
X189092173Y-87241220D01*
X189083784Y-87241500D01*
X188954513Y-87241500D01*
X188948061Y-87242872D01*
X188948056Y-87242872D01*
X188883638Y-87256565D01*
X188767712Y-87281206D01*
X188761682Y-87283891D01*
X188761681Y-87283891D01*
X188599278Y-87356197D01*
X188599276Y-87356198D01*
X188593248Y-87358882D01*
X188587907Y-87362762D01*
X188587906Y-87362763D01*
X188524061Y-87409149D01*
X188457193Y-87433008D01*
X188388041Y-87416927D01*
X188375939Y-87409149D01*
X188312094Y-87362763D01*
X188312093Y-87362762D01*
X188306752Y-87358882D01*
X188300724Y-87356198D01*
X188300722Y-87356197D01*
X188138319Y-87283891D01*
X188138318Y-87283891D01*
X188132288Y-87281206D01*
X188016362Y-87256565D01*
X187951944Y-87242872D01*
X187951939Y-87242872D01*
X187945487Y-87241500D01*
X187754513Y-87241500D01*
X187748061Y-87242872D01*
X187748056Y-87242872D01*
X187683638Y-87256565D01*
X187567712Y-87281206D01*
X187561682Y-87283891D01*
X187561681Y-87283891D01*
X187399278Y-87356197D01*
X187399276Y-87356198D01*
X187393248Y-87358882D01*
X187387907Y-87362762D01*
X187387906Y-87362763D01*
X187324062Y-87409149D01*
X187238747Y-87471134D01*
X187234333Y-87476037D01*
X187234330Y-87476039D01*
X187151958Y-87567522D01*
X187091512Y-87604762D01*
X187058567Y-87609212D01*
X181808890Y-87619422D01*
X181740731Y-87599552D01*
X181694133Y-87545987D01*
X181683893Y-87475733D01*
X181688812Y-87454485D01*
X181691501Y-87446211D01*
X181691503Y-87446203D01*
X181693542Y-87439928D01*
X181694270Y-87433008D01*
X181712814Y-87256565D01*
X181713504Y-87250000D01*
X181696680Y-87089928D01*
X181694232Y-87066635D01*
X181694232Y-87066633D01*
X181693542Y-87060072D01*
X181634527Y-86878444D01*
X181539040Y-86713056D01*
X181530701Y-86703794D01*
X181415675Y-86576045D01*
X181415674Y-86576044D01*
X181411253Y-86571134D01*
X181256752Y-86458882D01*
X181250724Y-86456198D01*
X181250722Y-86456197D01*
X181088319Y-86383891D01*
X181088318Y-86383891D01*
X181082288Y-86381206D01*
X180988888Y-86361353D01*
X180901944Y-86342872D01*
X180901939Y-86342872D01*
X180895487Y-86341500D01*
X180704513Y-86341500D01*
X180698061Y-86342872D01*
X180698056Y-86342872D01*
X180611112Y-86361353D01*
X180517712Y-86381206D01*
X180511682Y-86383891D01*
X180511681Y-86383891D01*
X180349278Y-86456197D01*
X180349276Y-86456198D01*
X180343248Y-86458882D01*
X180188747Y-86571134D01*
X180184326Y-86576044D01*
X180184325Y-86576045D01*
X180069300Y-86703794D01*
X180060960Y-86713056D01*
X179965473Y-86878444D01*
X179906458Y-87060072D01*
X179905768Y-87066633D01*
X179905768Y-87066635D01*
X179903320Y-87089928D01*
X179886496Y-87250000D01*
X179887186Y-87256565D01*
X179905731Y-87433008D01*
X179906458Y-87439928D01*
X179908818Y-87447192D01*
X179912462Y-87458408D01*
X179914489Y-87529376D01*
X179877826Y-87590173D01*
X179814114Y-87621498D01*
X179792874Y-87623343D01*
X170589583Y-87641243D01*
X170521424Y-87621373D01*
X170500243Y-87604338D01*
X168795905Y-85900000D01*
X173986496Y-85900000D01*
X174006458Y-86089928D01*
X174065473Y-86271556D01*
X174160960Y-86436944D01*
X174165378Y-86441851D01*
X174165379Y-86441852D01*
X174238194Y-86522721D01*
X174288747Y-86578866D01*
X174443248Y-86691118D01*
X174449276Y-86693802D01*
X174449278Y-86693803D01*
X174611681Y-86766109D01*
X174617712Y-86768794D01*
X174711112Y-86788647D01*
X174798056Y-86807128D01*
X174798061Y-86807128D01*
X174804513Y-86808500D01*
X174995487Y-86808500D01*
X175001939Y-86807128D01*
X175001944Y-86807128D01*
X175088888Y-86788647D01*
X175182288Y-86768794D01*
X175188319Y-86766109D01*
X175350722Y-86693803D01*
X175350724Y-86693802D01*
X175356752Y-86691118D01*
X175511253Y-86578866D01*
X175561806Y-86522721D01*
X175634621Y-86441852D01*
X175634622Y-86441851D01*
X175639040Y-86436944D01*
X175734527Y-86271556D01*
X175793542Y-86089928D01*
X175813504Y-85900000D01*
X175793542Y-85710072D01*
X175734527Y-85528444D01*
X175639040Y-85363056D01*
X175511253Y-85221134D01*
X175356752Y-85108882D01*
X175350724Y-85106198D01*
X175350722Y-85106197D01*
X175188319Y-85033891D01*
X175188318Y-85033891D01*
X175182288Y-85031206D01*
X175088888Y-85011353D01*
X175001944Y-84992872D01*
X175001939Y-84992872D01*
X174995487Y-84991500D01*
X174804513Y-84991500D01*
X174798061Y-84992872D01*
X174798056Y-84992872D01*
X174711112Y-85011353D01*
X174617712Y-85031206D01*
X174611682Y-85033891D01*
X174611681Y-85033891D01*
X174449278Y-85106197D01*
X174449276Y-85106198D01*
X174443248Y-85108882D01*
X174288747Y-85221134D01*
X174160960Y-85363056D01*
X174065473Y-85528444D01*
X174006458Y-85710072D01*
X173986496Y-85900000D01*
X168795905Y-85900000D01*
X167303652Y-84407747D01*
X167296112Y-84399461D01*
X167292000Y-84392982D01*
X167242348Y-84346356D01*
X167239507Y-84343602D01*
X167219770Y-84323865D01*
X167216573Y-84321385D01*
X167207551Y-84313680D01*
X167205298Y-84311564D01*
X167175321Y-84283414D01*
X167168375Y-84279595D01*
X167168372Y-84279593D01*
X167157566Y-84273652D01*
X167141047Y-84262801D01*
X167134139Y-84257443D01*
X167125041Y-84250386D01*
X167117772Y-84247241D01*
X167117768Y-84247238D01*
X167084463Y-84232826D01*
X167073813Y-84227609D01*
X167035060Y-84206305D01*
X167015437Y-84201267D01*
X166996734Y-84194863D01*
X166985420Y-84189967D01*
X166985419Y-84189967D01*
X166978145Y-84186819D01*
X166970322Y-84185580D01*
X166970312Y-84185577D01*
X166934476Y-84179901D01*
X166922856Y-84177495D01*
X166887711Y-84168472D01*
X166887710Y-84168472D01*
X166880030Y-84166500D01*
X166859776Y-84166500D01*
X166840065Y-84164949D01*
X166827886Y-84163020D01*
X166820057Y-84161780D01*
X166812165Y-84162526D01*
X166804242Y-84162277D01*
X166804322Y-84159736D01*
X166746869Y-84148604D01*
X166720408Y-84130306D01*
X166715673Y-84126043D01*
X166711253Y-84121134D01*
X166609635Y-84047304D01*
X166562094Y-84012763D01*
X166562093Y-84012762D01*
X166556752Y-84008882D01*
X166550724Y-84006198D01*
X166550722Y-84006197D01*
X166388319Y-83933891D01*
X166388318Y-83933891D01*
X166382288Y-83931206D01*
X166266348Y-83906562D01*
X166201944Y-83892872D01*
X166201939Y-83892872D01*
X166195487Y-83891500D01*
X166004513Y-83891500D01*
X165998061Y-83892872D01*
X165998056Y-83892872D01*
X165933652Y-83906562D01*
X165817712Y-83931206D01*
X165811682Y-83933891D01*
X165811681Y-83933891D01*
X165649278Y-84006197D01*
X165649276Y-84006198D01*
X165643248Y-84008882D01*
X165637907Y-84012762D01*
X165637906Y-84012763D01*
X165590365Y-84047304D01*
X165488747Y-84121134D01*
X165484326Y-84126044D01*
X165484325Y-84126045D01*
X165375203Y-84247238D01*
X165360960Y-84263056D01*
X165321871Y-84330760D01*
X165289407Y-84386990D01*
X165265473Y-84428444D01*
X165206458Y-84610072D01*
X165186496Y-84800000D01*
X165206458Y-84989928D01*
X165265473Y-85171556D01*
X165360960Y-85336944D01*
X165488747Y-85478866D01*
X165643248Y-85591118D01*
X165649276Y-85593802D01*
X165649278Y-85593803D01*
X165681835Y-85608298D01*
X165817712Y-85668794D01*
X165911112Y-85688647D01*
X165998056Y-85707128D01*
X165998061Y-85707128D01*
X166004513Y-85708500D01*
X166195487Y-85708500D01*
X166201939Y-85707128D01*
X166201944Y-85707128D01*
X166288888Y-85688647D01*
X166382288Y-85668794D01*
X166548577Y-85594758D01*
X166550726Y-85593801D01*
X166556752Y-85591118D01*
X166560852Y-85588139D01*
X166629296Y-85571536D01*
X166696388Y-85594758D01*
X166712394Y-85608298D01*
X168534414Y-87430318D01*
X168568440Y-87492630D01*
X168563375Y-87563445D01*
X168520828Y-87620281D01*
X168454308Y-87645092D01*
X168445564Y-87645413D01*
X166030349Y-87650110D01*
X165962190Y-87630240D01*
X165915592Y-87576675D01*
X165905352Y-87506421D01*
X165932441Y-87448427D01*
X165930741Y-87447192D01*
X165934620Y-87441852D01*
X165939040Y-87436944D01*
X165997314Y-87336010D01*
X166031223Y-87277279D01*
X166031224Y-87277278D01*
X166034527Y-87271556D01*
X166093542Y-87089928D01*
X166113504Y-86900000D01*
X166093542Y-86710072D01*
X166034527Y-86528444D01*
X165939040Y-86363056D01*
X165811253Y-86221134D01*
X165656752Y-86108882D01*
X165650724Y-86106198D01*
X165650722Y-86106197D01*
X165488319Y-86033891D01*
X165488318Y-86033891D01*
X165482288Y-86031206D01*
X165388887Y-86011353D01*
X165301944Y-85992872D01*
X165301939Y-85992872D01*
X165295487Y-85991500D01*
X165104513Y-85991500D01*
X165098061Y-85992872D01*
X165098056Y-85992872D01*
X165011113Y-86011353D01*
X164917712Y-86031206D01*
X164911682Y-86033891D01*
X164911681Y-86033891D01*
X164749278Y-86106197D01*
X164749276Y-86106198D01*
X164743248Y-86108882D01*
X164633560Y-86188575D01*
X164566694Y-86212433D01*
X164497542Y-86196353D01*
X164448062Y-86145440D01*
X164433500Y-86086639D01*
X164433500Y-83848134D01*
X169416500Y-83848134D01*
X169423255Y-83910316D01*
X169474385Y-84046705D01*
X169561739Y-84163261D01*
X169678295Y-84250615D01*
X169814684Y-84301745D01*
X169876866Y-84308500D01*
X171673134Y-84308500D01*
X171735316Y-84301745D01*
X171871705Y-84250615D01*
X171988261Y-84163261D01*
X172075615Y-84046705D01*
X172097202Y-83989123D01*
X172119598Y-83929382D01*
X172162240Y-83872618D01*
X172228802Y-83847918D01*
X172298150Y-83863126D01*
X172332817Y-83891114D01*
X172361250Y-83923938D01*
X172533126Y-84066632D01*
X172726000Y-84179338D01*
X172730825Y-84181180D01*
X172730826Y-84181181D01*
X172754971Y-84190401D01*
X172934692Y-84259030D01*
X172939760Y-84260061D01*
X172939763Y-84260062D01*
X173035762Y-84279593D01*
X173153597Y-84303567D01*
X173158772Y-84303757D01*
X173158774Y-84303757D01*
X173371673Y-84311564D01*
X173371677Y-84311564D01*
X173376837Y-84311753D01*
X173381957Y-84311097D01*
X173381959Y-84311097D01*
X173593288Y-84284025D01*
X173593289Y-84284025D01*
X173598416Y-84283368D01*
X173618712Y-84277279D01*
X173807429Y-84220661D01*
X173807434Y-84220659D01*
X173812384Y-84219174D01*
X174012994Y-84120896D01*
X174194860Y-83991173D01*
X174214199Y-83971902D01*
X174286352Y-83900000D01*
X175986496Y-83900000D01*
X175987186Y-83906562D01*
X175987186Y-83906565D01*
X176004010Y-84066632D01*
X176006458Y-84089928D01*
X176065473Y-84271556D01*
X176068776Y-84277278D01*
X176068777Y-84277279D01*
X176102686Y-84336010D01*
X176160960Y-84436944D01*
X176165378Y-84441851D01*
X176165379Y-84441852D01*
X176208235Y-84489448D01*
X176288747Y-84578866D01*
X176443248Y-84691118D01*
X176449276Y-84693802D01*
X176449278Y-84693803D01*
X176611681Y-84766109D01*
X176617712Y-84768794D01*
X176711112Y-84788647D01*
X176798056Y-84807128D01*
X176798061Y-84807128D01*
X176804513Y-84808500D01*
X176995487Y-84808500D01*
X177001939Y-84807128D01*
X177001944Y-84807128D01*
X177088888Y-84788647D01*
X177182288Y-84768794D01*
X177188319Y-84766109D01*
X177350722Y-84693803D01*
X177350724Y-84693802D01*
X177356752Y-84691118D01*
X177362093Y-84687237D01*
X177362099Y-84687234D01*
X177388929Y-84667741D01*
X177455796Y-84643882D01*
X177524948Y-84659963D01*
X177574428Y-84710877D01*
X177588299Y-84782848D01*
X177586496Y-84800000D01*
X177606458Y-84989928D01*
X177665473Y-85171556D01*
X177760960Y-85336944D01*
X177888747Y-85478866D01*
X178043248Y-85591118D01*
X178049276Y-85593802D01*
X178049278Y-85593803D01*
X178081835Y-85608298D01*
X178217712Y-85668794D01*
X178311112Y-85688647D01*
X178398056Y-85707128D01*
X178398061Y-85707128D01*
X178404513Y-85708500D01*
X178595487Y-85708500D01*
X178601939Y-85707128D01*
X178601944Y-85707128D01*
X178688888Y-85688647D01*
X178782288Y-85668794D01*
X178918165Y-85608298D01*
X178950722Y-85593803D01*
X178950724Y-85593802D01*
X178956752Y-85591118D01*
X179111253Y-85478866D01*
X179239040Y-85336944D01*
X179334527Y-85171556D01*
X179393542Y-84989928D01*
X179413504Y-84800000D01*
X190086496Y-84800000D01*
X190106458Y-84989928D01*
X190165473Y-85171556D01*
X190260960Y-85336944D01*
X190388747Y-85478866D01*
X190543248Y-85591118D01*
X190549276Y-85593802D01*
X190549278Y-85593803D01*
X190581835Y-85608298D01*
X190717712Y-85668794D01*
X190811112Y-85688647D01*
X190898056Y-85707128D01*
X190898061Y-85707128D01*
X190904513Y-85708500D01*
X191095487Y-85708500D01*
X191101939Y-85707128D01*
X191101944Y-85707128D01*
X191188888Y-85688647D01*
X191282288Y-85668794D01*
X191418165Y-85608298D01*
X191450722Y-85593803D01*
X191450724Y-85593802D01*
X191456752Y-85591118D01*
X191611253Y-85478866D01*
X191739040Y-85336944D01*
X191834527Y-85171556D01*
X191893542Y-84989928D01*
X191913504Y-84800000D01*
X191893542Y-84610072D01*
X191834527Y-84428444D01*
X191810594Y-84386990D01*
X191778129Y-84330760D01*
X191739040Y-84263056D01*
X191724798Y-84247238D01*
X191615675Y-84126045D01*
X191615674Y-84126044D01*
X191611253Y-84121134D01*
X191509635Y-84047304D01*
X191462094Y-84012763D01*
X191462093Y-84012762D01*
X191456752Y-84008882D01*
X191450724Y-84006198D01*
X191450722Y-84006197D01*
X191288319Y-83933891D01*
X191288318Y-83933891D01*
X191282288Y-83931206D01*
X191166348Y-83906562D01*
X191101944Y-83892872D01*
X191101939Y-83892872D01*
X191095487Y-83891500D01*
X190904513Y-83891500D01*
X190898061Y-83892872D01*
X190898056Y-83892872D01*
X190833652Y-83906562D01*
X190717712Y-83931206D01*
X190711682Y-83933891D01*
X190711681Y-83933891D01*
X190549278Y-84006197D01*
X190549276Y-84006198D01*
X190543248Y-84008882D01*
X190537907Y-84012762D01*
X190537906Y-84012763D01*
X190490365Y-84047304D01*
X190388747Y-84121134D01*
X190384326Y-84126044D01*
X190384325Y-84126045D01*
X190275203Y-84247238D01*
X190260960Y-84263056D01*
X190221871Y-84330760D01*
X190189407Y-84386990D01*
X190165473Y-84428444D01*
X190106458Y-84610072D01*
X190086496Y-84800000D01*
X179413504Y-84800000D01*
X179393542Y-84610072D01*
X179334527Y-84428444D01*
X179310594Y-84386990D01*
X179278129Y-84330760D01*
X179239040Y-84263056D01*
X179224798Y-84247238D01*
X179115675Y-84126045D01*
X179115674Y-84126044D01*
X179111253Y-84121134D01*
X179009635Y-84047304D01*
X178962094Y-84012763D01*
X178962093Y-84012762D01*
X178956752Y-84008882D01*
X178950724Y-84006198D01*
X178950722Y-84006197D01*
X178788319Y-83933891D01*
X178788318Y-83933891D01*
X178782288Y-83931206D01*
X178666348Y-83906562D01*
X178601944Y-83892872D01*
X178601939Y-83892872D01*
X178595487Y-83891500D01*
X178404513Y-83891500D01*
X178398061Y-83892872D01*
X178398056Y-83892872D01*
X178333652Y-83906562D01*
X178217712Y-83931206D01*
X178211682Y-83933891D01*
X178211681Y-83933891D01*
X178049278Y-84006197D01*
X178049276Y-84006198D01*
X178043248Y-84008882D01*
X178037907Y-84012763D01*
X178037901Y-84012766D01*
X178011071Y-84032259D01*
X177944204Y-84056118D01*
X177875052Y-84040037D01*
X177825572Y-83989123D01*
X177811701Y-83917151D01*
X177812420Y-83910316D01*
X177813504Y-83900000D01*
X177807886Y-83846547D01*
X177794232Y-83716635D01*
X177794232Y-83716633D01*
X177793542Y-83710072D01*
X177786578Y-83688640D01*
X181486463Y-83688640D01*
X181504163Y-83869160D01*
X181561418Y-84041273D01*
X181565065Y-84047295D01*
X181565066Y-84047297D01*
X181651470Y-84189967D01*
X181655380Y-84196424D01*
X181660269Y-84201487D01*
X181660270Y-84201488D01*
X181715838Y-84259030D01*
X181781382Y-84326902D01*
X181813729Y-84348069D01*
X181889477Y-84397637D01*
X181933159Y-84426222D01*
X181939763Y-84428678D01*
X181939765Y-84428679D01*
X182096558Y-84486990D01*
X182096560Y-84486990D01*
X182103168Y-84489448D01*
X182186995Y-84500633D01*
X182275980Y-84512507D01*
X182275984Y-84512507D01*
X182282961Y-84513438D01*
X182289972Y-84512800D01*
X182289976Y-84512800D01*
X182432459Y-84499832D01*
X182463600Y-84496998D01*
X182470302Y-84494820D01*
X182470304Y-84494820D01*
X182629409Y-84443124D01*
X182629412Y-84443123D01*
X182636108Y-84440947D01*
X182791912Y-84348069D01*
X182923266Y-84222982D01*
X183023643Y-84071902D01*
X183065423Y-83961917D01*
X183085555Y-83908920D01*
X183085556Y-83908918D01*
X183088055Y-83902338D01*
X183089306Y-83893435D01*
X183112748Y-83726639D01*
X183112748Y-83726636D01*
X183113299Y-83722717D01*
X183113452Y-83711738D01*
X183113561Y-83703962D01*
X183113561Y-83703957D01*
X183113616Y-83700000D01*
X183093397Y-83519745D01*
X183091080Y-83513091D01*
X183036064Y-83355106D01*
X183036062Y-83355103D01*
X183033745Y-83348448D01*
X182937626Y-83194624D01*
X182923941Y-83180843D01*
X182814778Y-83070915D01*
X182814774Y-83070912D01*
X182809815Y-83065918D01*
X182798697Y-83058862D01*
X182750538Y-83028300D01*
X182656666Y-82968727D01*
X182618582Y-82955166D01*
X182492425Y-82910243D01*
X182492420Y-82910242D01*
X182485790Y-82907881D01*
X182478802Y-82907048D01*
X182478799Y-82907047D01*
X182355698Y-82892368D01*
X182305680Y-82886404D01*
X182298677Y-82887140D01*
X182298676Y-82887140D01*
X182132288Y-82904628D01*
X182132286Y-82904629D01*
X182125288Y-82905364D01*
X181953579Y-82963818D01*
X181947575Y-82967512D01*
X181805095Y-83055166D01*
X181805092Y-83055168D01*
X181799088Y-83058862D01*
X181794053Y-83063793D01*
X181794050Y-83063795D01*
X181750751Y-83106197D01*
X181669493Y-83185771D01*
X181571235Y-83338238D01*
X181568826Y-83344858D01*
X181568824Y-83344861D01*
X181528208Y-83456453D01*
X181509197Y-83508685D01*
X181486463Y-83688640D01*
X177786578Y-83688640D01*
X177734527Y-83528444D01*
X177639040Y-83363056D01*
X177620504Y-83342469D01*
X177515675Y-83226045D01*
X177515674Y-83226044D01*
X177511253Y-83221134D01*
X177356752Y-83108882D01*
X177350724Y-83106198D01*
X177350722Y-83106197D01*
X177188319Y-83033891D01*
X177188318Y-83033891D01*
X177182288Y-83031206D01*
X177066776Y-83006653D01*
X177001944Y-82992872D01*
X177001939Y-82992872D01*
X176995487Y-82991500D01*
X176804513Y-82991500D01*
X176798061Y-82992872D01*
X176798056Y-82992872D01*
X176733224Y-83006653D01*
X176617712Y-83031206D01*
X176611682Y-83033891D01*
X176611681Y-83033891D01*
X176449278Y-83106197D01*
X176449276Y-83106198D01*
X176443248Y-83108882D01*
X176288747Y-83221134D01*
X176284326Y-83226044D01*
X176284325Y-83226045D01*
X176179497Y-83342469D01*
X176160960Y-83363056D01*
X176065473Y-83528444D01*
X176006458Y-83710072D01*
X176005768Y-83716633D01*
X176005768Y-83716635D01*
X175992114Y-83846547D01*
X175986496Y-83900000D01*
X174286352Y-83900000D01*
X174341601Y-83844944D01*
X174353096Y-83833489D01*
X174483453Y-83652077D01*
X174486709Y-83645490D01*
X174580136Y-83456453D01*
X174580137Y-83456451D01*
X174582430Y-83451811D01*
X174644217Y-83248448D01*
X174645865Y-83243023D01*
X174645865Y-83243021D01*
X174647370Y-83238069D01*
X174676529Y-83016590D01*
X174677645Y-82970915D01*
X174678074Y-82953365D01*
X174678074Y-82953361D01*
X174678156Y-82950000D01*
X174659852Y-82727361D01*
X174605431Y-82510702D01*
X174516354Y-82305840D01*
X174395014Y-82118277D01*
X174244670Y-81953051D01*
X174240619Y-81949852D01*
X174240615Y-81949848D01*
X174073414Y-81817800D01*
X174073410Y-81817798D01*
X174069359Y-81814598D01*
X174052904Y-81805514D01*
X174017136Y-81785769D01*
X173873789Y-81706638D01*
X173868920Y-81704914D01*
X173868916Y-81704912D01*
X173668087Y-81633795D01*
X173668083Y-81633794D01*
X173663212Y-81632069D01*
X173658119Y-81631162D01*
X173658116Y-81631161D01*
X173448373Y-81593800D01*
X173448367Y-81593799D01*
X173443284Y-81592894D01*
X173369452Y-81591992D01*
X173225081Y-81590228D01*
X173225079Y-81590228D01*
X173219911Y-81590165D01*
X172999091Y-81623955D01*
X172786756Y-81693357D01*
X172588607Y-81796507D01*
X172584474Y-81799610D01*
X172584471Y-81799612D01*
X172418738Y-81924048D01*
X172409965Y-81930635D01*
X172335578Y-82008477D01*
X172329283Y-82015064D01*
X172267759Y-82050494D01*
X172196846Y-82047037D01*
X172139060Y-82005791D01*
X172120207Y-81972243D01*
X172078767Y-81861703D01*
X172075615Y-81853295D01*
X171988261Y-81736739D01*
X171871705Y-81649385D01*
X171735316Y-81598255D01*
X171673134Y-81591500D01*
X169876866Y-81591500D01*
X169814684Y-81598255D01*
X169678295Y-81649385D01*
X169561739Y-81736739D01*
X169474385Y-81853295D01*
X169423255Y-81989684D01*
X169416500Y-82051866D01*
X169416500Y-83848134D01*
X164433500Y-83848134D01*
X164433500Y-83748119D01*
X164442592Y-83701123D01*
X164462946Y-83650490D01*
X164489385Y-83584720D01*
X164498632Y-83519745D01*
X164512966Y-83419031D01*
X164512966Y-83419027D01*
X164513547Y-83414947D01*
X164513704Y-83400000D01*
X164494930Y-83244861D01*
X164494015Y-83237299D01*
X164494014Y-83237296D01*
X164493102Y-83229758D01*
X164489844Y-83221134D01*
X164435171Y-83076447D01*
X164432487Y-83069344D01*
X164408121Y-83033891D01*
X164339659Y-82934278D01*
X164339658Y-82934276D01*
X164335357Y-82928019D01*
X164329686Y-82922966D01*
X164212993Y-82818996D01*
X164212990Y-82818994D01*
X164207321Y-82813943D01*
X164199325Y-82809709D01*
X164062481Y-82737254D01*
X164062482Y-82737254D01*
X164055769Y-82733700D01*
X164038196Y-82729286D01*
X163896822Y-82693775D01*
X163896818Y-82693775D01*
X163889451Y-82691924D01*
X163881852Y-82691884D01*
X163881850Y-82691884D01*
X163810394Y-82691510D01*
X163717969Y-82691026D01*
X163710589Y-82692798D01*
X163710587Y-82692798D01*
X163558602Y-82729286D01*
X163558598Y-82729287D01*
X163551223Y-82731058D01*
X163398839Y-82809709D01*
X163269615Y-82922439D01*
X163171010Y-83062739D01*
X163139864Y-83142624D01*
X163117261Y-83200598D01*
X163108718Y-83222509D01*
X163107726Y-83230042D01*
X163107726Y-83230043D01*
X163090215Y-83363056D01*
X163086335Y-83392526D01*
X163092705Y-83450224D01*
X163102035Y-83534729D01*
X163105153Y-83562975D01*
X163107762Y-83570106D01*
X163107763Y-83570108D01*
X163158826Y-83709644D01*
X163166500Y-83752945D01*
X163166500Y-87385406D01*
X163146498Y-87453527D01*
X163129595Y-87474501D01*
X162984794Y-87619302D01*
X162922482Y-87653328D01*
X162895946Y-87656207D01*
X162663198Y-87656660D01*
X162595041Y-87636790D01*
X162548443Y-87583225D01*
X162537101Y-87527119D01*
X162538220Y-87520057D01*
X162536603Y-87502945D01*
X162534059Y-87476039D01*
X162533500Y-87464181D01*
X162533500Y-83748119D01*
X162542592Y-83701123D01*
X162562946Y-83650490D01*
X162589385Y-83584720D01*
X162598632Y-83519745D01*
X162612966Y-83419031D01*
X162612966Y-83419027D01*
X162613547Y-83414947D01*
X162613704Y-83400000D01*
X162594930Y-83244861D01*
X162594015Y-83237299D01*
X162594014Y-83237296D01*
X162593102Y-83229758D01*
X162589844Y-83221134D01*
X162535171Y-83076447D01*
X162532487Y-83069344D01*
X162508121Y-83033891D01*
X162439659Y-82934278D01*
X162439658Y-82934276D01*
X162435357Y-82928019D01*
X162429686Y-82922966D01*
X162312993Y-82818996D01*
X162312990Y-82818994D01*
X162307321Y-82813943D01*
X162299325Y-82809709D01*
X162162481Y-82737254D01*
X162162482Y-82737254D01*
X162155769Y-82733700D01*
X162138196Y-82729286D01*
X161996822Y-82693775D01*
X161996818Y-82693775D01*
X161989451Y-82691924D01*
X161981852Y-82691884D01*
X161981850Y-82691884D01*
X161910394Y-82691510D01*
X161817969Y-82691026D01*
X161810589Y-82692798D01*
X161810587Y-82692798D01*
X161658602Y-82729286D01*
X161658598Y-82729287D01*
X161651223Y-82731058D01*
X161498839Y-82809709D01*
X161369615Y-82922439D01*
X161271010Y-83062739D01*
X161239864Y-83142624D01*
X161217261Y-83200598D01*
X161208718Y-83222509D01*
X161207726Y-83230042D01*
X161207726Y-83230043D01*
X161190215Y-83363056D01*
X161186335Y-83392526D01*
X161192705Y-83450224D01*
X161202035Y-83534729D01*
X161205153Y-83562975D01*
X161207762Y-83570106D01*
X161207763Y-83570108D01*
X161258826Y-83709644D01*
X161266500Y-83752945D01*
X161266500Y-87185405D01*
X161246498Y-87253526D01*
X161229595Y-87274501D01*
X160880700Y-87623395D01*
X160818388Y-87657420D01*
X160791850Y-87660299D01*
X157677497Y-87666356D01*
X157667162Y-87665879D01*
X157660091Y-87664298D01*
X157652170Y-87664547D01*
X157592014Y-87666438D01*
X157588055Y-87666500D01*
X157560144Y-87666500D01*
X157559608Y-87666568D01*
X157559017Y-87666587D01*
X156893144Y-87667882D01*
X156824985Y-87648012D01*
X156778387Y-87594447D01*
X156768147Y-87524193D01*
X156773066Y-87502945D01*
X156777884Y-87488119D01*
X156793542Y-87439928D01*
X156794270Y-87433008D01*
X156812814Y-87256565D01*
X156813504Y-87250000D01*
X156796680Y-87089928D01*
X156794232Y-87066635D01*
X156794232Y-87066633D01*
X156793542Y-87060072D01*
X156734527Y-86878444D01*
X156639040Y-86713056D01*
X156630701Y-86703794D01*
X156515675Y-86576045D01*
X156515674Y-86576044D01*
X156511253Y-86571134D01*
X156356752Y-86458882D01*
X156350724Y-86456198D01*
X156350722Y-86456197D01*
X156188319Y-86383891D01*
X156188318Y-86383891D01*
X156182288Y-86381206D01*
X156088888Y-86361353D01*
X156001944Y-86342872D01*
X156001939Y-86342872D01*
X155995487Y-86341500D01*
X155804513Y-86341500D01*
X155798061Y-86342872D01*
X155798056Y-86342872D01*
X155711112Y-86361353D01*
X155617712Y-86381206D01*
X155611682Y-86383891D01*
X155611681Y-86383891D01*
X155449278Y-86456197D01*
X155449276Y-86456198D01*
X155443248Y-86458882D01*
X155288747Y-86571134D01*
X155284326Y-86576044D01*
X155284325Y-86576045D01*
X155169300Y-86703794D01*
X155160960Y-86713056D01*
X155065473Y-86878444D01*
X155006458Y-87060072D01*
X155005768Y-87066633D01*
X155005768Y-87066635D01*
X155003320Y-87089928D01*
X154986496Y-87250000D01*
X154987186Y-87256565D01*
X155005731Y-87433008D01*
X155006458Y-87439928D01*
X155008818Y-87447192D01*
X155028188Y-87506806D01*
X155030216Y-87577773D01*
X154993553Y-87638571D01*
X154929841Y-87669897D01*
X154908604Y-87671742D01*
X149275441Y-87682698D01*
X141186843Y-87698429D01*
X141118684Y-87678559D01*
X141072086Y-87624994D01*
X141061846Y-87554740D01*
X141092962Y-87488119D01*
X141134621Y-87441852D01*
X141134625Y-87441847D01*
X141139040Y-87436944D01*
X141197314Y-87336010D01*
X141231223Y-87277279D01*
X141231224Y-87277278D01*
X141234527Y-87271556D01*
X141293542Y-87089928D01*
X141313504Y-86900000D01*
X141293542Y-86710072D01*
X141234527Y-86528444D01*
X141139040Y-86363056D01*
X141011253Y-86221134D01*
X140856752Y-86108882D01*
X140850724Y-86106198D01*
X140850722Y-86106197D01*
X140688319Y-86033891D01*
X140688318Y-86033891D01*
X140682288Y-86031206D01*
X140588887Y-86011353D01*
X140501944Y-85992872D01*
X140501939Y-85992872D01*
X140495487Y-85991500D01*
X140304513Y-85991500D01*
X140298061Y-85992872D01*
X140298056Y-85992872D01*
X140211113Y-86011353D01*
X140117712Y-86031206D01*
X140111682Y-86033891D01*
X140111681Y-86033891D01*
X139949278Y-86106197D01*
X139949276Y-86106198D01*
X139943248Y-86108882D01*
X139788747Y-86221134D01*
X139660960Y-86363056D01*
X139565473Y-86528444D01*
X139506458Y-86710072D01*
X139486496Y-86900000D01*
X139506458Y-87089928D01*
X139506883Y-87091237D01*
X139501628Y-87160095D01*
X139458811Y-87216727D01*
X139392173Y-87241220D01*
X139383784Y-87241500D01*
X139254513Y-87241500D01*
X139248061Y-87242872D01*
X139248056Y-87242872D01*
X139183638Y-87256565D01*
X139067712Y-87281206D01*
X139061682Y-87283891D01*
X139061681Y-87283891D01*
X138899278Y-87356197D01*
X138899276Y-87356198D01*
X138893248Y-87358882D01*
X138887907Y-87362762D01*
X138887906Y-87362763D01*
X138824061Y-87409149D01*
X138757193Y-87433008D01*
X138688041Y-87416927D01*
X138675939Y-87409149D01*
X138612094Y-87362763D01*
X138612093Y-87362762D01*
X138606752Y-87358882D01*
X138600724Y-87356198D01*
X138600722Y-87356197D01*
X138438319Y-87283891D01*
X138438318Y-87283891D01*
X138432288Y-87281206D01*
X138316362Y-87256565D01*
X138251944Y-87242872D01*
X138251939Y-87242872D01*
X138245487Y-87241500D01*
X138054513Y-87241500D01*
X138048061Y-87242872D01*
X138048056Y-87242872D01*
X137983638Y-87256565D01*
X137867712Y-87281206D01*
X137861682Y-87283891D01*
X137861681Y-87283891D01*
X137699278Y-87356197D01*
X137699276Y-87356198D01*
X137693248Y-87358882D01*
X137687907Y-87362762D01*
X137687906Y-87362763D01*
X137637843Y-87399136D01*
X137538747Y-87471134D01*
X137534326Y-87476044D01*
X137534325Y-87476045D01*
X137427716Y-87594447D01*
X137410960Y-87613056D01*
X137401039Y-87630240D01*
X137393661Y-87643019D01*
X137342279Y-87692012D01*
X137284788Y-87706019D01*
X135620558Y-87709256D01*
X132077462Y-87716146D01*
X132009303Y-87696276D01*
X131962705Y-87642711D01*
X131952465Y-87572457D01*
X131957384Y-87551210D01*
X131964866Y-87528184D01*
X131993542Y-87439928D01*
X131994270Y-87433008D01*
X132012814Y-87256565D01*
X132013504Y-87250000D01*
X131996680Y-87089928D01*
X131994232Y-87066635D01*
X131994232Y-87066633D01*
X131993542Y-87060072D01*
X131934527Y-86878444D01*
X131839040Y-86713056D01*
X131830701Y-86703794D01*
X131715675Y-86576045D01*
X131715674Y-86576044D01*
X131711253Y-86571134D01*
X131556752Y-86458882D01*
X131550724Y-86456198D01*
X131550722Y-86456197D01*
X131388319Y-86383891D01*
X131388318Y-86383891D01*
X131382288Y-86381206D01*
X131288888Y-86361353D01*
X131201944Y-86342872D01*
X131201939Y-86342872D01*
X131195487Y-86341500D01*
X131004513Y-86341500D01*
X130998061Y-86342872D01*
X130998056Y-86342872D01*
X130911112Y-86361353D01*
X130817712Y-86381206D01*
X130811682Y-86383891D01*
X130811681Y-86383891D01*
X130649278Y-86456197D01*
X130649276Y-86456198D01*
X130643248Y-86458882D01*
X130488747Y-86571134D01*
X130484326Y-86576044D01*
X130484325Y-86576045D01*
X130369300Y-86703794D01*
X130360960Y-86713056D01*
X130265473Y-86878444D01*
X130206458Y-87060072D01*
X130205768Y-87066633D01*
X130205768Y-87066635D01*
X130203320Y-87089928D01*
X130186496Y-87250000D01*
X130187186Y-87256565D01*
X130205731Y-87433008D01*
X130206458Y-87439928D01*
X130243851Y-87555011D01*
X130245879Y-87625977D01*
X130209216Y-87686775D01*
X130145504Y-87718100D01*
X130124270Y-87719945D01*
X121644714Y-87736438D01*
X116343336Y-87746748D01*
X116275177Y-87726878D01*
X116228579Y-87673313D01*
X116218339Y-87603059D01*
X116249454Y-87536440D01*
X116339040Y-87436944D01*
X116397314Y-87336010D01*
X116431223Y-87277279D01*
X116431224Y-87277278D01*
X116434527Y-87271556D01*
X116493542Y-87089928D01*
X116513504Y-86900000D01*
X116493542Y-86710072D01*
X116434527Y-86528444D01*
X116339040Y-86363056D01*
X116211253Y-86221134D01*
X116056752Y-86108882D01*
X116050724Y-86106198D01*
X116050722Y-86106197D01*
X115888319Y-86033891D01*
X115888318Y-86033891D01*
X115882288Y-86031206D01*
X115788887Y-86011353D01*
X115701944Y-85992872D01*
X115701939Y-85992872D01*
X115695487Y-85991500D01*
X115504513Y-85991500D01*
X115498061Y-85992872D01*
X115498056Y-85992872D01*
X115411113Y-86011353D01*
X115317712Y-86031206D01*
X115311682Y-86033891D01*
X115311681Y-86033891D01*
X115149278Y-86106197D01*
X115149276Y-86106198D01*
X115143248Y-86108882D01*
X114988747Y-86221134D01*
X114860960Y-86363056D01*
X114765473Y-86528444D01*
X114706458Y-86710072D01*
X114686496Y-86900000D01*
X114706458Y-87089928D01*
X114706883Y-87091237D01*
X114701628Y-87160095D01*
X114658811Y-87216727D01*
X114592173Y-87241220D01*
X114583784Y-87241500D01*
X114454513Y-87241500D01*
X114448061Y-87242872D01*
X114448056Y-87242872D01*
X114383638Y-87256565D01*
X114267712Y-87281206D01*
X114261682Y-87283891D01*
X114261681Y-87283891D01*
X114099278Y-87356197D01*
X114099276Y-87356198D01*
X114093248Y-87358882D01*
X114087907Y-87362762D01*
X114087906Y-87362763D01*
X114024061Y-87409149D01*
X113957193Y-87433008D01*
X113888041Y-87416927D01*
X113875939Y-87409149D01*
X113812094Y-87362763D01*
X113812093Y-87362762D01*
X113806752Y-87358882D01*
X113800724Y-87356198D01*
X113800722Y-87356197D01*
X113638319Y-87283891D01*
X113638318Y-87283891D01*
X113632288Y-87281206D01*
X113516362Y-87256565D01*
X113451944Y-87242872D01*
X113451939Y-87242872D01*
X113445487Y-87241500D01*
X113254513Y-87241500D01*
X113248061Y-87242872D01*
X113248056Y-87242872D01*
X113183638Y-87256565D01*
X113067712Y-87281206D01*
X113061682Y-87283891D01*
X113061681Y-87283891D01*
X112899278Y-87356197D01*
X112899276Y-87356198D01*
X112893248Y-87358882D01*
X112887907Y-87362762D01*
X112887906Y-87362763D01*
X112837843Y-87399136D01*
X112738747Y-87471134D01*
X112734326Y-87476044D01*
X112734325Y-87476045D01*
X112627716Y-87594447D01*
X112610960Y-87613056D01*
X112568399Y-87686775D01*
X112565782Y-87691307D01*
X112514400Y-87740300D01*
X112456908Y-87754307D01*
X111131828Y-87756884D01*
X109399821Y-87760253D01*
X109399823Y-87791852D01*
X109400862Y-102393651D01*
X109400393Y-102400591D01*
X109400000Y-102400000D01*
X109400000Y-107681195D01*
X109379998Y-107749316D01*
X109363095Y-107770290D01*
X108636541Y-108496844D01*
X108630276Y-108502698D01*
X108588330Y-108539290D01*
X108552934Y-108589655D01*
X108549022Y-108594920D01*
X108511065Y-108643328D01*
X108507939Y-108650252D01*
X108505329Y-108654561D01*
X108499958Y-108663976D01*
X108497573Y-108668424D01*
X108493205Y-108674639D01*
X108490446Y-108681716D01*
X108470858Y-108731957D01*
X108468306Y-108738029D01*
X108442986Y-108794105D01*
X108441600Y-108801582D01*
X108440090Y-108806402D01*
X108437118Y-108816835D01*
X108435870Y-108821696D01*
X108433111Y-108828772D01*
X108429087Y-108859342D01*
X108425082Y-108889762D01*
X108424050Y-108896278D01*
X108412839Y-108956767D01*
X108413276Y-108964347D01*
X108413276Y-108964348D01*
X108416291Y-109016642D01*
X108416500Y-109023894D01*
X108416500Y-110853006D01*
X108396498Y-110921127D01*
X108384135Y-110937317D01*
X108365383Y-110958143D01*
X108365380Y-110958147D01*
X108360960Y-110963056D01*
X108265473Y-111128444D01*
X108206458Y-111310072D01*
X108186496Y-111500000D01*
X108187186Y-111506565D01*
X108205263Y-111678555D01*
X108206458Y-111689928D01*
X108265473Y-111871556D01*
X108360960Y-112036944D01*
X108410083Y-112091500D01*
X108412864Y-112094589D01*
X108439673Y-112142167D01*
X108440866Y-112149004D01*
X108443918Y-112155957D01*
X108443919Y-112155960D01*
X108465595Y-112205341D01*
X108468086Y-112211446D01*
X108487145Y-112261882D01*
X108489831Y-112268989D01*
X108494131Y-112275246D01*
X108496467Y-112279714D01*
X108501725Y-112289160D01*
X108504307Y-112293526D01*
X108507362Y-112300485D01*
X108544823Y-112349304D01*
X108548686Y-112354623D01*
X108556849Y-112366500D01*
X108583534Y-112405326D01*
X108589203Y-112410377D01*
X108628323Y-112445232D01*
X108633598Y-112450213D01*
X109096844Y-112913459D01*
X109102698Y-112919724D01*
X109139290Y-112961670D01*
X109189655Y-112997066D01*
X109194920Y-113000978D01*
X109243328Y-113038935D01*
X109250252Y-113042061D01*
X109254561Y-113044671D01*
X109263976Y-113050042D01*
X109268424Y-113052427D01*
X109274639Y-113056795D01*
X109319770Y-113074391D01*
X109375971Y-113117770D01*
X109400000Y-113191783D01*
X109400000Y-120100000D01*
X104526000Y-120100000D01*
X104457879Y-120079998D01*
X104411386Y-120026342D01*
X104400000Y-119974000D01*
X104400000Y-113900000D01*
X99226001Y-113900000D01*
X99157880Y-113879998D01*
X99111387Y-113826342D01*
X99100001Y-113773999D01*
X99100008Y-113050042D01*
X99100070Y-105994800D01*
X102389147Y-105994800D01*
X102389417Y-105998919D01*
X102408069Y-106283489D01*
X102408939Y-106296766D01*
X102409743Y-106300806D01*
X102409743Y-106300809D01*
X102466108Y-106584174D01*
X102467976Y-106593566D01*
X102469301Y-106597470D01*
X102469302Y-106597473D01*
X102477707Y-106622233D01*
X102565248Y-106880120D01*
X102612058Y-106975041D01*
X102697060Y-107147407D01*
X102699091Y-107151526D01*
X102867214Y-107403141D01*
X102869928Y-107406235D01*
X102869932Y-107406241D01*
X103025556Y-107583695D01*
X103066742Y-107630658D01*
X103069831Y-107633367D01*
X103291159Y-107827468D01*
X103291165Y-107827472D01*
X103294259Y-107830186D01*
X103545874Y-107998309D01*
X103549573Y-108000133D01*
X103549578Y-108000136D01*
X103657676Y-108053444D01*
X103817280Y-108132152D01*
X103821185Y-108133477D01*
X103821186Y-108133478D01*
X104099927Y-108228098D01*
X104099930Y-108228099D01*
X104103834Y-108229424D01*
X104107873Y-108230227D01*
X104107879Y-108230229D01*
X104396591Y-108287657D01*
X104396594Y-108287657D01*
X104400634Y-108288461D01*
X104404745Y-108288730D01*
X104404749Y-108288731D01*
X104624983Y-108303166D01*
X104624992Y-108303166D01*
X104627032Y-108303300D01*
X104778168Y-108303300D01*
X104780208Y-108303166D01*
X104780217Y-108303166D01*
X105000451Y-108288731D01*
X105000455Y-108288730D01*
X105004566Y-108288461D01*
X105008606Y-108287657D01*
X105008609Y-108287657D01*
X105297321Y-108230229D01*
X105297327Y-108230227D01*
X105301366Y-108229424D01*
X105305270Y-108228099D01*
X105305273Y-108228098D01*
X105584014Y-108133478D01*
X105584015Y-108133477D01*
X105587920Y-108132152D01*
X105747524Y-108053444D01*
X105855622Y-108000136D01*
X105855627Y-108000133D01*
X105859326Y-107998309D01*
X106110941Y-107830186D01*
X106114035Y-107827472D01*
X106114041Y-107827468D01*
X106335369Y-107633367D01*
X106338458Y-107630658D01*
X106379644Y-107583695D01*
X106535268Y-107406241D01*
X106535272Y-107406235D01*
X106537986Y-107403141D01*
X106545852Y-107391370D01*
X106703815Y-107154960D01*
X106703816Y-107154959D01*
X106706109Y-107151527D01*
X106710808Y-107142000D01*
X106782494Y-106996634D01*
X106839952Y-106880120D01*
X106927493Y-106622233D01*
X106935898Y-106597473D01*
X106935899Y-106597470D01*
X106937224Y-106593566D01*
X106939093Y-106584174D01*
X106995457Y-106300809D01*
X106995457Y-106300806D01*
X106996261Y-106296766D01*
X106997132Y-106283489D01*
X107015783Y-105998919D01*
X107016053Y-105994800D01*
X107006889Y-105854984D01*
X106996531Y-105696949D01*
X106996530Y-105696945D01*
X106996261Y-105692834D01*
X106985144Y-105636944D01*
X106938029Y-105400079D01*
X106938027Y-105400073D01*
X106937224Y-105396034D01*
X106929458Y-105373154D01*
X106841278Y-105113386D01*
X106841277Y-105113385D01*
X106839952Y-105109480D01*
X106776712Y-104981242D01*
X106707936Y-104841778D01*
X106707933Y-104841773D01*
X106706109Y-104838074D01*
X106537986Y-104586459D01*
X106535272Y-104583365D01*
X106535268Y-104583359D01*
X106341167Y-104362031D01*
X106338458Y-104358942D01*
X106266271Y-104295635D01*
X106114041Y-104162132D01*
X106114035Y-104162128D01*
X106110941Y-104159414D01*
X105859326Y-103991291D01*
X105855627Y-103989467D01*
X105855622Y-103989464D01*
X105692341Y-103908943D01*
X105587920Y-103857448D01*
X105554590Y-103846134D01*
X105305273Y-103761502D01*
X105305270Y-103761501D01*
X105301366Y-103760176D01*
X105297327Y-103759373D01*
X105297321Y-103759371D01*
X105008609Y-103701943D01*
X105008606Y-103701943D01*
X105004566Y-103701139D01*
X105000455Y-103700870D01*
X105000451Y-103700869D01*
X104780217Y-103686434D01*
X104780208Y-103686434D01*
X104778168Y-103686300D01*
X104627032Y-103686300D01*
X104624992Y-103686434D01*
X104624983Y-103686434D01*
X104404749Y-103700869D01*
X104404745Y-103700870D01*
X104400634Y-103701139D01*
X104396594Y-103701943D01*
X104396591Y-103701943D01*
X104107879Y-103759371D01*
X104107873Y-103759373D01*
X104103834Y-103760176D01*
X104099930Y-103761501D01*
X104099927Y-103761502D01*
X103850610Y-103846134D01*
X103817280Y-103857448D01*
X103712859Y-103908943D01*
X103549578Y-103989464D01*
X103549573Y-103989467D01*
X103545874Y-103991291D01*
X103294259Y-104159414D01*
X103291165Y-104162128D01*
X103291159Y-104162132D01*
X103138929Y-104295635D01*
X103066742Y-104358942D01*
X103064033Y-104362031D01*
X102869932Y-104583359D01*
X102869928Y-104583365D01*
X102867214Y-104586459D01*
X102864925Y-104589885D01*
X102864921Y-104589890D01*
X102745382Y-104768794D01*
X102699091Y-104838073D01*
X102697267Y-104841772D01*
X102697264Y-104841777D01*
X102680534Y-104875702D01*
X102565248Y-105109480D01*
X102563923Y-105113385D01*
X102563922Y-105113386D01*
X102475743Y-105373154D01*
X102467976Y-105396034D01*
X102467173Y-105400073D01*
X102467171Y-105400079D01*
X102420056Y-105636944D01*
X102408939Y-105692834D01*
X102408670Y-105696945D01*
X102408669Y-105696949D01*
X102398311Y-105854984D01*
X102389147Y-105994800D01*
X99100070Y-105994800D01*
X99100121Y-100220859D01*
X105687132Y-100220859D01*
X105700457Y-100424151D01*
X105750605Y-100621610D01*
X105835898Y-100806624D01*
X105953479Y-100972997D01*
X106099410Y-101115157D01*
X106104206Y-101118362D01*
X106104209Y-101118364D01*
X106132016Y-101136944D01*
X106268803Y-101228342D01*
X106274106Y-101230620D01*
X106274109Y-101230622D01*
X106440839Y-101302255D01*
X106455987Y-101308763D01*
X106528817Y-101325243D01*
X106649055Y-101352450D01*
X106649060Y-101352451D01*
X106654692Y-101353725D01*
X106660463Y-101353952D01*
X106660465Y-101353952D01*
X106723470Y-101356427D01*
X106858263Y-101361723D01*
X107059883Y-101332490D01*
X107065347Y-101330635D01*
X107065352Y-101330634D01*
X107247327Y-101268862D01*
X107247332Y-101268860D01*
X107252799Y-101267004D01*
X107270638Y-101257014D01*
X107327567Y-101225132D01*
X107430551Y-101167458D01*
X107587186Y-101037186D01*
X107717458Y-100880551D01*
X107817004Y-100702799D01*
X107818860Y-100697332D01*
X107818862Y-100697327D01*
X107880634Y-100515352D01*
X107880635Y-100515347D01*
X107882490Y-100509883D01*
X107911723Y-100308263D01*
X107913249Y-100250000D01*
X107894608Y-100047126D01*
X107888165Y-100024280D01*
X107840875Y-99856606D01*
X107840874Y-99856604D01*
X107839307Y-99851047D01*
X107828680Y-99829496D01*
X107751756Y-99673510D01*
X107749201Y-99668329D01*
X107730796Y-99643681D01*
X107630758Y-99509715D01*
X107630758Y-99509714D01*
X107627305Y-99505091D01*
X107534885Y-99419659D01*
X107481943Y-99370719D01*
X107481940Y-99370717D01*
X107477703Y-99366800D01*
X107387794Y-99310072D01*
X107310288Y-99261169D01*
X107310283Y-99261167D01*
X107305404Y-99258088D01*
X107116180Y-99182595D01*
X106916366Y-99142849D01*
X106910592Y-99142773D01*
X106910588Y-99142773D01*
X106807452Y-99141424D01*
X106712655Y-99140183D01*
X106706958Y-99141162D01*
X106706957Y-99141162D01*
X106517567Y-99173705D01*
X106511870Y-99174684D01*
X106320734Y-99245198D01*
X106145649Y-99349363D01*
X105992478Y-99483690D01*
X105988911Y-99488215D01*
X105988906Y-99488220D01*
X105902331Y-99598040D01*
X105866351Y-99643681D01*
X105863662Y-99648792D01*
X105863660Y-99648795D01*
X105855817Y-99663702D01*
X105771492Y-99823978D01*
X105711078Y-100018543D01*
X105687132Y-100220859D01*
X99100121Y-100220859D01*
X99100233Y-87572457D01*
X99100236Y-87250000D01*
X105386496Y-87250000D01*
X105387186Y-87256565D01*
X105405731Y-87433008D01*
X105406458Y-87439928D01*
X105465473Y-87621556D01*
X105468776Y-87627278D01*
X105468777Y-87627279D01*
X105479247Y-87645413D01*
X105560960Y-87786944D01*
X105565378Y-87791851D01*
X105565379Y-87791852D01*
X105598477Y-87828611D01*
X105688747Y-87928866D01*
X105843248Y-88041118D01*
X105849276Y-88043802D01*
X105849278Y-88043803D01*
X106011681Y-88116109D01*
X106017712Y-88118794D01*
X106111112Y-88138647D01*
X106198056Y-88157128D01*
X106198061Y-88157128D01*
X106204513Y-88158500D01*
X106395487Y-88158500D01*
X106401939Y-88157128D01*
X106401944Y-88157128D01*
X106488888Y-88138647D01*
X106582288Y-88118794D01*
X106588319Y-88116109D01*
X106750722Y-88043803D01*
X106750724Y-88043802D01*
X106756752Y-88041118D01*
X106911253Y-87928866D01*
X107001523Y-87828611D01*
X107034621Y-87791852D01*
X107034622Y-87791851D01*
X107039040Y-87786944D01*
X107120753Y-87645413D01*
X107131223Y-87627279D01*
X107131224Y-87627278D01*
X107134527Y-87621556D01*
X107193542Y-87439928D01*
X107194270Y-87433008D01*
X107212814Y-87256565D01*
X107213504Y-87250000D01*
X107196680Y-87089928D01*
X107194232Y-87066635D01*
X107194232Y-87066633D01*
X107193542Y-87060072D01*
X107134527Y-86878444D01*
X107039040Y-86713056D01*
X107030701Y-86703794D01*
X106915675Y-86576045D01*
X106915674Y-86576044D01*
X106911253Y-86571134D01*
X106756752Y-86458882D01*
X106750724Y-86456198D01*
X106750722Y-86456197D01*
X106588319Y-86383891D01*
X106588318Y-86383891D01*
X106582288Y-86381206D01*
X106488888Y-86361353D01*
X106401944Y-86342872D01*
X106401939Y-86342872D01*
X106395487Y-86341500D01*
X106204513Y-86341500D01*
X106198061Y-86342872D01*
X106198056Y-86342872D01*
X106111112Y-86361353D01*
X106017712Y-86381206D01*
X106011682Y-86383891D01*
X106011681Y-86383891D01*
X105849278Y-86456197D01*
X105849276Y-86456198D01*
X105843248Y-86458882D01*
X105688747Y-86571134D01*
X105684326Y-86576044D01*
X105684325Y-86576045D01*
X105569300Y-86703794D01*
X105560960Y-86713056D01*
X105465473Y-86878444D01*
X105406458Y-87060072D01*
X105405768Y-87066633D01*
X105405768Y-87066635D01*
X105403320Y-87089928D01*
X105386496Y-87250000D01*
X99100236Y-87250000D01*
X99100258Y-84800000D01*
X103086496Y-84800000D01*
X103106458Y-84989928D01*
X103165473Y-85171556D01*
X103260960Y-85336944D01*
X103388747Y-85478866D01*
X103543248Y-85591118D01*
X103549276Y-85593802D01*
X103549278Y-85593803D01*
X103581835Y-85608298D01*
X103717712Y-85668794D01*
X103811112Y-85688647D01*
X103898056Y-85707128D01*
X103898061Y-85707128D01*
X103904513Y-85708500D01*
X104095487Y-85708500D01*
X104101939Y-85707128D01*
X104101944Y-85707128D01*
X104188888Y-85688647D01*
X104282288Y-85668794D01*
X104418165Y-85608298D01*
X104450722Y-85593803D01*
X104450724Y-85593802D01*
X104456752Y-85591118D01*
X104611253Y-85478866D01*
X104739040Y-85336944D01*
X104834527Y-85171556D01*
X104893542Y-84989928D01*
X104913504Y-84800000D01*
X115586496Y-84800000D01*
X115606458Y-84989928D01*
X115665473Y-85171556D01*
X115760960Y-85336944D01*
X115888747Y-85478866D01*
X116043248Y-85591118D01*
X116049276Y-85593802D01*
X116049278Y-85593803D01*
X116081835Y-85608298D01*
X116217712Y-85668794D01*
X116311112Y-85688647D01*
X116398056Y-85707128D01*
X116398061Y-85707128D01*
X116404513Y-85708500D01*
X116595487Y-85708500D01*
X116601939Y-85707128D01*
X116601944Y-85707128D01*
X116688888Y-85688647D01*
X116782288Y-85668794D01*
X116918165Y-85608298D01*
X116950722Y-85593803D01*
X116950724Y-85593802D01*
X116956752Y-85591118D01*
X117111253Y-85478866D01*
X117239040Y-85336944D01*
X117334527Y-85171556D01*
X117393542Y-84989928D01*
X117413504Y-84800000D01*
X127886496Y-84800000D01*
X127906458Y-84989928D01*
X127965473Y-85171556D01*
X128060960Y-85336944D01*
X128188747Y-85478866D01*
X128343248Y-85591118D01*
X128349276Y-85593802D01*
X128349278Y-85593803D01*
X128381835Y-85608298D01*
X128517712Y-85668794D01*
X128611112Y-85688647D01*
X128698056Y-85707128D01*
X128698061Y-85707128D01*
X128704513Y-85708500D01*
X128895487Y-85708500D01*
X128901939Y-85707128D01*
X128901944Y-85707128D01*
X128988888Y-85688647D01*
X129082288Y-85668794D01*
X129218165Y-85608298D01*
X129250722Y-85593803D01*
X129250724Y-85593802D01*
X129256752Y-85591118D01*
X129411253Y-85478866D01*
X129539040Y-85336944D01*
X129634527Y-85171556D01*
X129693542Y-84989928D01*
X129713504Y-84800000D01*
X140386496Y-84800000D01*
X140406458Y-84989928D01*
X140465473Y-85171556D01*
X140560960Y-85336944D01*
X140688747Y-85478866D01*
X140843248Y-85591118D01*
X140849276Y-85593802D01*
X140849278Y-85593803D01*
X140881835Y-85608298D01*
X141017712Y-85668794D01*
X141111112Y-85688647D01*
X141198056Y-85707128D01*
X141198061Y-85707128D01*
X141204513Y-85708500D01*
X141395487Y-85708500D01*
X141401939Y-85707128D01*
X141401944Y-85707128D01*
X141488888Y-85688647D01*
X141582288Y-85668794D01*
X141718165Y-85608298D01*
X141750722Y-85593803D01*
X141750724Y-85593802D01*
X141756752Y-85591118D01*
X141911253Y-85478866D01*
X142039040Y-85336944D01*
X142134527Y-85171556D01*
X142193542Y-84989928D01*
X142213504Y-84800000D01*
X152686496Y-84800000D01*
X152706458Y-84989928D01*
X152765473Y-85171556D01*
X152860960Y-85336944D01*
X152988747Y-85478866D01*
X153143248Y-85591118D01*
X153149276Y-85593802D01*
X153149278Y-85593803D01*
X153181835Y-85608298D01*
X153317712Y-85668794D01*
X153411112Y-85688647D01*
X153498056Y-85707128D01*
X153498061Y-85707128D01*
X153504513Y-85708500D01*
X153695487Y-85708500D01*
X153701939Y-85707128D01*
X153701944Y-85707128D01*
X153788888Y-85688647D01*
X153882288Y-85668794D01*
X154018165Y-85608298D01*
X154050722Y-85593803D01*
X154050724Y-85593802D01*
X154056752Y-85591118D01*
X154211253Y-85478866D01*
X154339040Y-85336944D01*
X154434527Y-85171556D01*
X154493542Y-84989928D01*
X154513504Y-84800000D01*
X154493542Y-84610072D01*
X154434527Y-84428444D01*
X154410594Y-84386990D01*
X154378129Y-84330760D01*
X154339040Y-84263056D01*
X154324798Y-84247238D01*
X154215675Y-84126045D01*
X154215674Y-84126044D01*
X154211253Y-84121134D01*
X154109635Y-84047304D01*
X154062094Y-84012763D01*
X154062093Y-84012762D01*
X154056752Y-84008882D01*
X154050724Y-84006198D01*
X154050722Y-84006197D01*
X153888319Y-83933891D01*
X153888318Y-83933891D01*
X153882288Y-83931206D01*
X153766348Y-83906562D01*
X153701944Y-83892872D01*
X153701939Y-83892872D01*
X153695487Y-83891500D01*
X153504513Y-83891500D01*
X153498061Y-83892872D01*
X153498056Y-83892872D01*
X153433652Y-83906562D01*
X153317712Y-83931206D01*
X153311682Y-83933891D01*
X153311681Y-83933891D01*
X153149278Y-84006197D01*
X153149276Y-84006198D01*
X153143248Y-84008882D01*
X153137907Y-84012762D01*
X153137906Y-84012763D01*
X153090365Y-84047304D01*
X152988747Y-84121134D01*
X152984326Y-84126044D01*
X152984325Y-84126045D01*
X152875203Y-84247238D01*
X152860960Y-84263056D01*
X152821871Y-84330760D01*
X152789407Y-84386990D01*
X152765473Y-84428444D01*
X152706458Y-84610072D01*
X152686496Y-84800000D01*
X142213504Y-84800000D01*
X142193542Y-84610072D01*
X142134527Y-84428444D01*
X142110594Y-84386990D01*
X142078129Y-84330760D01*
X142039040Y-84263056D01*
X142024798Y-84247238D01*
X141915675Y-84126045D01*
X141915674Y-84126044D01*
X141911253Y-84121134D01*
X141809635Y-84047304D01*
X141762094Y-84012763D01*
X141762093Y-84012762D01*
X141756752Y-84008882D01*
X141750724Y-84006198D01*
X141750722Y-84006197D01*
X141588319Y-83933891D01*
X141588318Y-83933891D01*
X141582288Y-83931206D01*
X141466348Y-83906562D01*
X141401944Y-83892872D01*
X141401939Y-83892872D01*
X141395487Y-83891500D01*
X141204513Y-83891500D01*
X141198061Y-83892872D01*
X141198056Y-83892872D01*
X141133652Y-83906562D01*
X141017712Y-83931206D01*
X141011682Y-83933891D01*
X141011681Y-83933891D01*
X140849278Y-84006197D01*
X140849276Y-84006198D01*
X140843248Y-84008882D01*
X140837907Y-84012762D01*
X140837906Y-84012763D01*
X140790365Y-84047304D01*
X140688747Y-84121134D01*
X140684326Y-84126044D01*
X140684325Y-84126045D01*
X140575203Y-84247238D01*
X140560960Y-84263056D01*
X140521871Y-84330760D01*
X140489407Y-84386990D01*
X140465473Y-84428444D01*
X140406458Y-84610072D01*
X140386496Y-84800000D01*
X129713504Y-84800000D01*
X129693542Y-84610072D01*
X129634527Y-84428444D01*
X129610594Y-84386990D01*
X129578129Y-84330760D01*
X129539040Y-84263056D01*
X129524798Y-84247238D01*
X129415675Y-84126045D01*
X129415674Y-84126044D01*
X129411253Y-84121134D01*
X129309635Y-84047304D01*
X129262094Y-84012763D01*
X129262093Y-84012762D01*
X129256752Y-84008882D01*
X129250724Y-84006198D01*
X129250722Y-84006197D01*
X129088319Y-83933891D01*
X129088318Y-83933891D01*
X129082288Y-83931206D01*
X128966348Y-83906562D01*
X128901944Y-83892872D01*
X128901939Y-83892872D01*
X128895487Y-83891500D01*
X128704513Y-83891500D01*
X128698061Y-83892872D01*
X128698056Y-83892872D01*
X128633652Y-83906562D01*
X128517712Y-83931206D01*
X128511682Y-83933891D01*
X128511681Y-83933891D01*
X128349278Y-84006197D01*
X128349276Y-84006198D01*
X128343248Y-84008882D01*
X128337907Y-84012762D01*
X128337906Y-84012763D01*
X128290365Y-84047304D01*
X128188747Y-84121134D01*
X128184326Y-84126044D01*
X128184325Y-84126045D01*
X128075203Y-84247238D01*
X128060960Y-84263056D01*
X128021871Y-84330760D01*
X127989407Y-84386990D01*
X127965473Y-84428444D01*
X127906458Y-84610072D01*
X127886496Y-84800000D01*
X117413504Y-84800000D01*
X117393542Y-84610072D01*
X117334527Y-84428444D01*
X117310594Y-84386990D01*
X117278129Y-84330760D01*
X117239040Y-84263056D01*
X117224798Y-84247238D01*
X117115675Y-84126045D01*
X117115674Y-84126044D01*
X117111253Y-84121134D01*
X117009635Y-84047304D01*
X116962094Y-84012763D01*
X116962093Y-84012762D01*
X116956752Y-84008882D01*
X116950724Y-84006198D01*
X116950722Y-84006197D01*
X116788319Y-83933891D01*
X116788318Y-83933891D01*
X116782288Y-83931206D01*
X116666348Y-83906562D01*
X116601944Y-83892872D01*
X116601939Y-83892872D01*
X116595487Y-83891500D01*
X116404513Y-83891500D01*
X116398061Y-83892872D01*
X116398056Y-83892872D01*
X116333652Y-83906562D01*
X116217712Y-83931206D01*
X116211682Y-83933891D01*
X116211681Y-83933891D01*
X116049278Y-84006197D01*
X116049276Y-84006198D01*
X116043248Y-84008882D01*
X116037907Y-84012762D01*
X116037906Y-84012763D01*
X115990365Y-84047304D01*
X115888747Y-84121134D01*
X115884326Y-84126044D01*
X115884325Y-84126045D01*
X115775203Y-84247238D01*
X115760960Y-84263056D01*
X115721871Y-84330760D01*
X115689407Y-84386990D01*
X115665473Y-84428444D01*
X115606458Y-84610072D01*
X115586496Y-84800000D01*
X104913504Y-84800000D01*
X104893542Y-84610072D01*
X104834527Y-84428444D01*
X104810594Y-84386990D01*
X104778129Y-84330760D01*
X104739040Y-84263056D01*
X104724798Y-84247238D01*
X104615675Y-84126045D01*
X104615674Y-84126044D01*
X104611253Y-84121134D01*
X104509635Y-84047304D01*
X104462094Y-84012763D01*
X104462093Y-84012762D01*
X104456752Y-84008882D01*
X104450724Y-84006198D01*
X104450722Y-84006197D01*
X104288319Y-83933891D01*
X104288318Y-83933891D01*
X104282288Y-83931206D01*
X104166348Y-83906562D01*
X104101944Y-83892872D01*
X104101939Y-83892872D01*
X104095487Y-83891500D01*
X103904513Y-83891500D01*
X103898061Y-83892872D01*
X103898056Y-83892872D01*
X103833652Y-83906562D01*
X103717712Y-83931206D01*
X103711682Y-83933891D01*
X103711681Y-83933891D01*
X103549278Y-84006197D01*
X103549276Y-84006198D01*
X103543248Y-84008882D01*
X103537907Y-84012762D01*
X103537906Y-84012763D01*
X103490365Y-84047304D01*
X103388747Y-84121134D01*
X103384326Y-84126044D01*
X103384325Y-84126045D01*
X103275203Y-84247238D01*
X103260960Y-84263056D01*
X103221871Y-84330760D01*
X103189407Y-84386990D01*
X103165473Y-84428444D01*
X103106458Y-84610072D01*
X103086496Y-84800000D01*
X99100258Y-84800000D01*
X99100269Y-83588640D01*
X106886463Y-83588640D01*
X106904163Y-83769160D01*
X106961418Y-83941273D01*
X106965065Y-83947295D01*
X106965066Y-83947297D01*
X107044085Y-84077773D01*
X107055380Y-84096424D01*
X107060269Y-84101487D01*
X107060270Y-84101488D01*
X107118974Y-84162277D01*
X107181382Y-84226902D01*
X107236631Y-84263056D01*
X107320205Y-84317745D01*
X107333159Y-84326222D01*
X107339763Y-84328678D01*
X107339765Y-84328679D01*
X107496558Y-84386990D01*
X107496560Y-84386990D01*
X107503168Y-84389448D01*
X107574516Y-84398968D01*
X107675980Y-84412507D01*
X107675984Y-84412507D01*
X107682961Y-84413438D01*
X107689972Y-84412800D01*
X107689976Y-84412800D01*
X107841954Y-84398968D01*
X107863600Y-84396998D01*
X107870302Y-84394820D01*
X107870304Y-84394820D01*
X108029409Y-84343124D01*
X108029412Y-84343123D01*
X108036108Y-84340947D01*
X108157179Y-84268774D01*
X108185860Y-84251677D01*
X108185862Y-84251676D01*
X108191912Y-84248069D01*
X108323266Y-84122982D01*
X108423643Y-83971902D01*
X108470659Y-83848134D01*
X119516500Y-83848134D01*
X119523255Y-83910316D01*
X119574385Y-84046705D01*
X119661739Y-84163261D01*
X119778295Y-84250615D01*
X119914684Y-84301745D01*
X119976866Y-84308500D01*
X121773134Y-84308500D01*
X121835316Y-84301745D01*
X121971705Y-84250615D01*
X122088261Y-84163261D01*
X122175615Y-84046705D01*
X122197202Y-83989123D01*
X122219598Y-83929382D01*
X122262240Y-83872618D01*
X122328802Y-83847918D01*
X122398150Y-83863126D01*
X122432817Y-83891114D01*
X122461250Y-83923938D01*
X122633126Y-84066632D01*
X122826000Y-84179338D01*
X122830825Y-84181180D01*
X122830826Y-84181181D01*
X122854971Y-84190401D01*
X123034692Y-84259030D01*
X123039760Y-84260061D01*
X123039763Y-84260062D01*
X123135762Y-84279593D01*
X123253597Y-84303567D01*
X123258772Y-84303757D01*
X123258774Y-84303757D01*
X123471673Y-84311564D01*
X123471677Y-84311564D01*
X123476837Y-84311753D01*
X123481957Y-84311097D01*
X123481959Y-84311097D01*
X123693288Y-84284025D01*
X123693289Y-84284025D01*
X123698416Y-84283368D01*
X123718712Y-84277279D01*
X123907429Y-84220661D01*
X123907434Y-84220659D01*
X123912384Y-84219174D01*
X124112994Y-84120896D01*
X124294860Y-83991173D01*
X124314199Y-83971902D01*
X124441601Y-83844944D01*
X124453096Y-83833489D01*
X124557180Y-83688640D01*
X131786463Y-83688640D01*
X131804163Y-83869160D01*
X131861418Y-84041273D01*
X131865065Y-84047295D01*
X131865066Y-84047297D01*
X131951470Y-84189967D01*
X131955380Y-84196424D01*
X131960269Y-84201487D01*
X131960270Y-84201488D01*
X132015838Y-84259030D01*
X132081382Y-84326902D01*
X132113729Y-84348069D01*
X132189477Y-84397637D01*
X132233159Y-84426222D01*
X132239763Y-84428678D01*
X132239765Y-84428679D01*
X132396558Y-84486990D01*
X132396560Y-84486990D01*
X132403168Y-84489448D01*
X132486995Y-84500633D01*
X132575980Y-84512507D01*
X132575984Y-84512507D01*
X132582961Y-84513438D01*
X132589972Y-84512800D01*
X132589976Y-84512800D01*
X132732459Y-84499832D01*
X132763600Y-84496998D01*
X132770302Y-84494820D01*
X132770304Y-84494820D01*
X132929409Y-84443124D01*
X132929412Y-84443123D01*
X132936108Y-84440947D01*
X133091912Y-84348069D01*
X133223266Y-84222982D01*
X133323643Y-84071902D01*
X133365423Y-83961917D01*
X133385555Y-83908920D01*
X133385556Y-83908918D01*
X133388055Y-83902338D01*
X133389306Y-83893435D01*
X133396598Y-83841547D01*
X144591500Y-83841547D01*
X144598255Y-83903729D01*
X144649385Y-84040118D01*
X144736739Y-84156674D01*
X144853295Y-84244028D01*
X144989684Y-84295158D01*
X145051866Y-84301913D01*
X146848134Y-84301913D01*
X146910316Y-84295158D01*
X147046705Y-84244028D01*
X147163261Y-84156674D01*
X147250615Y-84040118D01*
X147262325Y-84008882D01*
X147294598Y-83922795D01*
X147337240Y-83866031D01*
X147403802Y-83841331D01*
X147473150Y-83856539D01*
X147507817Y-83884527D01*
X147536250Y-83917351D01*
X147708126Y-84060045D01*
X147901000Y-84172751D01*
X147905825Y-84174593D01*
X147905826Y-84174594D01*
X147978612Y-84202388D01*
X148109692Y-84252443D01*
X148114760Y-84253474D01*
X148114763Y-84253475D01*
X148172743Y-84265271D01*
X148328597Y-84296980D01*
X148333772Y-84297170D01*
X148333774Y-84297170D01*
X148546673Y-84304977D01*
X148546677Y-84304977D01*
X148551837Y-84305166D01*
X148556957Y-84304510D01*
X148556959Y-84304510D01*
X148768288Y-84277438D01*
X148768289Y-84277438D01*
X148773416Y-84276781D01*
X148778366Y-84275296D01*
X148982429Y-84214074D01*
X148982434Y-84214072D01*
X148987384Y-84212587D01*
X149187994Y-84114309D01*
X149369860Y-83984586D01*
X149382589Y-83971902D01*
X149491745Y-83863126D01*
X149528096Y-83826902D01*
X149627447Y-83688640D01*
X156586463Y-83688640D01*
X156604163Y-83869160D01*
X156661418Y-84041273D01*
X156665065Y-84047295D01*
X156665066Y-84047297D01*
X156751470Y-84189967D01*
X156755380Y-84196424D01*
X156760269Y-84201487D01*
X156760270Y-84201488D01*
X156815838Y-84259030D01*
X156881382Y-84326902D01*
X156913729Y-84348069D01*
X156989477Y-84397637D01*
X157033159Y-84426222D01*
X157039763Y-84428678D01*
X157039765Y-84428679D01*
X157196558Y-84486990D01*
X157196560Y-84486990D01*
X157203168Y-84489448D01*
X157286995Y-84500633D01*
X157375980Y-84512507D01*
X157375984Y-84512507D01*
X157382961Y-84513438D01*
X157389972Y-84512800D01*
X157389976Y-84512800D01*
X157532459Y-84499832D01*
X157563600Y-84496998D01*
X157570302Y-84494820D01*
X157570304Y-84494820D01*
X157729409Y-84443124D01*
X157729412Y-84443123D01*
X157736108Y-84440947D01*
X157891912Y-84348069D01*
X158023266Y-84222982D01*
X158123643Y-84071902D01*
X158165423Y-83961917D01*
X158185555Y-83908920D01*
X158185556Y-83908918D01*
X158188055Y-83902338D01*
X158189306Y-83893435D01*
X158212748Y-83726639D01*
X158212748Y-83726636D01*
X158213299Y-83722717D01*
X158213452Y-83711738D01*
X158213561Y-83703962D01*
X158213561Y-83703957D01*
X158213616Y-83700000D01*
X158193397Y-83519745D01*
X158191080Y-83513091D01*
X158136064Y-83355106D01*
X158136062Y-83355103D01*
X158133745Y-83348448D01*
X158037626Y-83194624D01*
X158023941Y-83180843D01*
X157914778Y-83070915D01*
X157914774Y-83070912D01*
X157909815Y-83065918D01*
X157898697Y-83058862D01*
X157850538Y-83028300D01*
X157756666Y-82968727D01*
X157718582Y-82955166D01*
X157592425Y-82910243D01*
X157592420Y-82910242D01*
X157585790Y-82907881D01*
X157578802Y-82907048D01*
X157578799Y-82907047D01*
X157455698Y-82892368D01*
X157405680Y-82886404D01*
X157398677Y-82887140D01*
X157398676Y-82887140D01*
X157232288Y-82904628D01*
X157232286Y-82904629D01*
X157225288Y-82905364D01*
X157053579Y-82963818D01*
X157047575Y-82967512D01*
X156905095Y-83055166D01*
X156905092Y-83055168D01*
X156899088Y-83058862D01*
X156894053Y-83063793D01*
X156894050Y-83063795D01*
X156850751Y-83106197D01*
X156769493Y-83185771D01*
X156671235Y-83338238D01*
X156668826Y-83344858D01*
X156668824Y-83344861D01*
X156628208Y-83456453D01*
X156609197Y-83508685D01*
X156586463Y-83688640D01*
X149627447Y-83688640D01*
X149658453Y-83645490D01*
X149678978Y-83603962D01*
X149755136Y-83449866D01*
X149755137Y-83449864D01*
X149757430Y-83445224D01*
X149791735Y-83332312D01*
X149820865Y-83236436D01*
X149820865Y-83236434D01*
X149822370Y-83231482D01*
X149851529Y-83010003D01*
X149852606Y-82965918D01*
X149853074Y-82946778D01*
X149853074Y-82946774D01*
X149853156Y-82943413D01*
X149834852Y-82720774D01*
X149780431Y-82504115D01*
X149691354Y-82299253D01*
X149577083Y-82122617D01*
X149572822Y-82116030D01*
X149572820Y-82116027D01*
X149570014Y-82111690D01*
X149419670Y-81946464D01*
X149415619Y-81943265D01*
X149415615Y-81943261D01*
X149248414Y-81811213D01*
X149248410Y-81811211D01*
X149244359Y-81808011D01*
X149223520Y-81796507D01*
X149125381Y-81742332D01*
X149048789Y-81700051D01*
X149043920Y-81698327D01*
X149043916Y-81698325D01*
X148843087Y-81627208D01*
X148843083Y-81627207D01*
X148838212Y-81625482D01*
X148833119Y-81624575D01*
X148833116Y-81624574D01*
X148623373Y-81587213D01*
X148623367Y-81587212D01*
X148618284Y-81586307D01*
X148544452Y-81585405D01*
X148400081Y-81583641D01*
X148400079Y-81583641D01*
X148394911Y-81583578D01*
X148174091Y-81617368D01*
X147961756Y-81686770D01*
X147763607Y-81789920D01*
X147759474Y-81793023D01*
X147759471Y-81793025D01*
X147589100Y-81920943D01*
X147584965Y-81924048D01*
X147506850Y-82005791D01*
X147504283Y-82008477D01*
X147442759Y-82043907D01*
X147371846Y-82040450D01*
X147314060Y-81999204D01*
X147295207Y-81965656D01*
X147253767Y-81855116D01*
X147250615Y-81846708D01*
X147163261Y-81730152D01*
X147046705Y-81642798D01*
X146910316Y-81591668D01*
X146848134Y-81584913D01*
X145051866Y-81584913D01*
X144989684Y-81591668D01*
X144853295Y-81642798D01*
X144736739Y-81730152D01*
X144649385Y-81846708D01*
X144598255Y-81983097D01*
X144591500Y-82045279D01*
X144591500Y-83841547D01*
X133396598Y-83841547D01*
X133412748Y-83726639D01*
X133412748Y-83726636D01*
X133413299Y-83722717D01*
X133413452Y-83711738D01*
X133413561Y-83703962D01*
X133413561Y-83703957D01*
X133413616Y-83700000D01*
X133393397Y-83519745D01*
X133391080Y-83513091D01*
X133336064Y-83355106D01*
X133336062Y-83355103D01*
X133333745Y-83348448D01*
X133237626Y-83194624D01*
X133223941Y-83180843D01*
X133114778Y-83070915D01*
X133114774Y-83070912D01*
X133109815Y-83065918D01*
X133098697Y-83058862D01*
X133050538Y-83028300D01*
X132956666Y-82968727D01*
X132918582Y-82955166D01*
X132792425Y-82910243D01*
X132792420Y-82910242D01*
X132785790Y-82907881D01*
X132778802Y-82907048D01*
X132778799Y-82907047D01*
X132655698Y-82892368D01*
X132605680Y-82886404D01*
X132598677Y-82887140D01*
X132598676Y-82887140D01*
X132432288Y-82904628D01*
X132432286Y-82904629D01*
X132425288Y-82905364D01*
X132253579Y-82963818D01*
X132247575Y-82967512D01*
X132105095Y-83055166D01*
X132105092Y-83055168D01*
X132099088Y-83058862D01*
X132094053Y-83063793D01*
X132094050Y-83063795D01*
X132050751Y-83106197D01*
X131969493Y-83185771D01*
X131871235Y-83338238D01*
X131868826Y-83344858D01*
X131868824Y-83344861D01*
X131828208Y-83456453D01*
X131809197Y-83508685D01*
X131786463Y-83688640D01*
X124557180Y-83688640D01*
X124583453Y-83652077D01*
X124586709Y-83645490D01*
X124680136Y-83456453D01*
X124680137Y-83456451D01*
X124682430Y-83451811D01*
X124744217Y-83248448D01*
X124745865Y-83243023D01*
X124745865Y-83243021D01*
X124747370Y-83238069D01*
X124776529Y-83016590D01*
X124777645Y-82970915D01*
X124778074Y-82953365D01*
X124778074Y-82953361D01*
X124778156Y-82950000D01*
X124759852Y-82727361D01*
X124705431Y-82510702D01*
X124616354Y-82305840D01*
X124495014Y-82118277D01*
X124344670Y-81953051D01*
X124340619Y-81949852D01*
X124340615Y-81949848D01*
X124173414Y-81817800D01*
X124173410Y-81817798D01*
X124169359Y-81814598D01*
X124152904Y-81805514D01*
X124117136Y-81785769D01*
X123973789Y-81706638D01*
X123968920Y-81704914D01*
X123968916Y-81704912D01*
X123768087Y-81633795D01*
X123768083Y-81633794D01*
X123763212Y-81632069D01*
X123758119Y-81631162D01*
X123758116Y-81631161D01*
X123548373Y-81593800D01*
X123548367Y-81593799D01*
X123543284Y-81592894D01*
X123469452Y-81591992D01*
X123325081Y-81590228D01*
X123325079Y-81590228D01*
X123319911Y-81590165D01*
X123099091Y-81623955D01*
X122886756Y-81693357D01*
X122688607Y-81796507D01*
X122684474Y-81799610D01*
X122684471Y-81799612D01*
X122518738Y-81924048D01*
X122509965Y-81930635D01*
X122435578Y-82008477D01*
X122429283Y-82015064D01*
X122367759Y-82050494D01*
X122296846Y-82047037D01*
X122239060Y-82005791D01*
X122220207Y-81972243D01*
X122178767Y-81861703D01*
X122175615Y-81853295D01*
X122088261Y-81736739D01*
X121971705Y-81649385D01*
X121835316Y-81598255D01*
X121773134Y-81591500D01*
X119976866Y-81591500D01*
X119914684Y-81598255D01*
X119778295Y-81649385D01*
X119661739Y-81736739D01*
X119574385Y-81853295D01*
X119523255Y-81989684D01*
X119516500Y-82051866D01*
X119516500Y-83848134D01*
X108470659Y-83848134D01*
X108471957Y-83844717D01*
X108485555Y-83808920D01*
X108485556Y-83808918D01*
X108488055Y-83802338D01*
X108489035Y-83795366D01*
X108512748Y-83626639D01*
X108512748Y-83626636D01*
X108513299Y-83622717D01*
X108513616Y-83600000D01*
X108493397Y-83419745D01*
X108490290Y-83410822D01*
X108436064Y-83255106D01*
X108436062Y-83255103D01*
X108433745Y-83248448D01*
X108417537Y-83222509D01*
X108341359Y-83100598D01*
X108337626Y-83094624D01*
X108323941Y-83080843D01*
X108214778Y-82970915D01*
X108214774Y-82970912D01*
X108209815Y-82965918D01*
X108202928Y-82961547D01*
X108113237Y-82904628D01*
X108056666Y-82868727D01*
X108027463Y-82858328D01*
X107892425Y-82810243D01*
X107892420Y-82810242D01*
X107885790Y-82807881D01*
X107878802Y-82807048D01*
X107878799Y-82807047D01*
X107755698Y-82792368D01*
X107705680Y-82786404D01*
X107698677Y-82787140D01*
X107698676Y-82787140D01*
X107532288Y-82804628D01*
X107532286Y-82804629D01*
X107525288Y-82805364D01*
X107353579Y-82863818D01*
X107347575Y-82867512D01*
X107205095Y-82955166D01*
X107205092Y-82955168D01*
X107199088Y-82958862D01*
X107194053Y-82963793D01*
X107194050Y-82963795D01*
X107084663Y-83070915D01*
X107069493Y-83085771D01*
X106971235Y-83238238D01*
X106968826Y-83244858D01*
X106968824Y-83244861D01*
X106912358Y-83400000D01*
X106909197Y-83408685D01*
X106886463Y-83588640D01*
X99100269Y-83588640D01*
X99100294Y-80700000D01*
X105136496Y-80700000D01*
X105137186Y-80706565D01*
X105153911Y-80865691D01*
X105156458Y-80889928D01*
X105215473Y-81071556D01*
X105310960Y-81236944D01*
X105438747Y-81378866D01*
X105593248Y-81491118D01*
X105599276Y-81493802D01*
X105599278Y-81493803D01*
X105721178Y-81548076D01*
X105767712Y-81568794D01*
X105850104Y-81586307D01*
X105948056Y-81607128D01*
X105948061Y-81607128D01*
X105954513Y-81608500D01*
X106145487Y-81608500D01*
X106151939Y-81607128D01*
X106151944Y-81607128D01*
X106249896Y-81586307D01*
X106332288Y-81568794D01*
X106378822Y-81548076D01*
X106500722Y-81493803D01*
X106500724Y-81493802D01*
X106506752Y-81491118D01*
X106661253Y-81378866D01*
X106789040Y-81236944D01*
X106884527Y-81071556D01*
X106943542Y-80889928D01*
X106946090Y-80865691D01*
X106962814Y-80706565D01*
X106963504Y-80700000D01*
X106953306Y-80602974D01*
X106944232Y-80516635D01*
X106944232Y-80516633D01*
X106943542Y-80510072D01*
X106884527Y-80328444D01*
X106789040Y-80163056D01*
X106693353Y-80056784D01*
X106665675Y-80026045D01*
X106665674Y-80026044D01*
X106661253Y-80021134D01*
X106506752Y-79908882D01*
X106500724Y-79906198D01*
X106500722Y-79906197D01*
X106338319Y-79833891D01*
X106338318Y-79833891D01*
X106332288Y-79831206D01*
X106238888Y-79811353D01*
X106151944Y-79792872D01*
X106151939Y-79792872D01*
X106145487Y-79791500D01*
X105954513Y-79791500D01*
X105948061Y-79792872D01*
X105948056Y-79792872D01*
X105861112Y-79811353D01*
X105767712Y-79831206D01*
X105761682Y-79833891D01*
X105761681Y-79833891D01*
X105599278Y-79906197D01*
X105599276Y-79906198D01*
X105593248Y-79908882D01*
X105438747Y-80021134D01*
X105434326Y-80026044D01*
X105434325Y-80026045D01*
X105406648Y-80056784D01*
X105310960Y-80163056D01*
X105215473Y-80328444D01*
X105156458Y-80510072D01*
X105155768Y-80516633D01*
X105155768Y-80516635D01*
X105146694Y-80602974D01*
X105136496Y-80700000D01*
X99100294Y-80700000D01*
X99100315Y-78300000D01*
X102486496Y-78300000D01*
X102506458Y-78489928D01*
X102565473Y-78671556D01*
X102660960Y-78836944D01*
X102665378Y-78841851D01*
X102665379Y-78841852D01*
X102743531Y-78928649D01*
X102788747Y-78978866D01*
X102877412Y-79043285D01*
X102919466Y-79073839D01*
X102943248Y-79091118D01*
X102949276Y-79093802D01*
X102949278Y-79093803D01*
X103103429Y-79162435D01*
X103117712Y-79168794D01*
X103184546Y-79183000D01*
X103298056Y-79207128D01*
X103298061Y-79207128D01*
X103304513Y-79208500D01*
X103495487Y-79208500D01*
X103501939Y-79207128D01*
X103501944Y-79207128D01*
X103615454Y-79183000D01*
X103682288Y-79168794D01*
X103696571Y-79162435D01*
X103850722Y-79093803D01*
X103850724Y-79093802D01*
X103856752Y-79091118D01*
X103880535Y-79073839D01*
X108912173Y-79073839D01*
X108912397Y-79078505D01*
X108912397Y-79078511D01*
X108917399Y-79182631D01*
X108924713Y-79334908D01*
X108975704Y-79591256D01*
X109064026Y-79837252D01*
X109066242Y-79841376D01*
X109184198Y-80060904D01*
X109187737Y-80067491D01*
X109190532Y-80071234D01*
X109190534Y-80071237D01*
X109341330Y-80273177D01*
X109341335Y-80273183D01*
X109344122Y-80276915D01*
X109347431Y-80280195D01*
X109347436Y-80280201D01*
X109523098Y-80454336D01*
X109529743Y-80460923D01*
X109533505Y-80463681D01*
X109533508Y-80463684D01*
X109731540Y-80608887D01*
X109740524Y-80615474D01*
X109744667Y-80617654D01*
X109744669Y-80617655D01*
X109967684Y-80734989D01*
X109967689Y-80734991D01*
X109971834Y-80737172D01*
X110218590Y-80823344D01*
X110223183Y-80824216D01*
X110470785Y-80871224D01*
X110470788Y-80871224D01*
X110475374Y-80872095D01*
X110605958Y-80877226D01*
X110731875Y-80882174D01*
X110731881Y-80882174D01*
X110736543Y-80882357D01*
X110815977Y-80873657D01*
X110991707Y-80854412D01*
X110991712Y-80854411D01*
X110996360Y-80853902D01*
X111000884Y-80852711D01*
X111244594Y-80788548D01*
X111244596Y-80788547D01*
X111249117Y-80787357D01*
X111261677Y-80781961D01*
X111395019Y-80724672D01*
X111452445Y-80700000D01*
X129936496Y-80700000D01*
X129937186Y-80706565D01*
X129953911Y-80865691D01*
X129956458Y-80889928D01*
X130015473Y-81071556D01*
X130110960Y-81236944D01*
X130238747Y-81378866D01*
X130393248Y-81491118D01*
X130399276Y-81493802D01*
X130399278Y-81493803D01*
X130521178Y-81548076D01*
X130567712Y-81568794D01*
X130650104Y-81586307D01*
X130748056Y-81607128D01*
X130748061Y-81607128D01*
X130754513Y-81608500D01*
X130945487Y-81608500D01*
X130951939Y-81607128D01*
X130951944Y-81607128D01*
X131049896Y-81586307D01*
X131132288Y-81568794D01*
X131178822Y-81548076D01*
X131300722Y-81493803D01*
X131300724Y-81493802D01*
X131306752Y-81491118D01*
X131461253Y-81378866D01*
X131589040Y-81236944D01*
X131684527Y-81071556D01*
X131743542Y-80889928D01*
X131746090Y-80865691D01*
X131762814Y-80706565D01*
X131763504Y-80700000D01*
X131753306Y-80602974D01*
X131744232Y-80516635D01*
X131744232Y-80516633D01*
X131743542Y-80510072D01*
X131684527Y-80328444D01*
X131589040Y-80163056D01*
X131493353Y-80056784D01*
X131465675Y-80026045D01*
X131465674Y-80026044D01*
X131461253Y-80021134D01*
X131306752Y-79908882D01*
X131300724Y-79906198D01*
X131300722Y-79906197D01*
X131138319Y-79833891D01*
X131138318Y-79833891D01*
X131132288Y-79831206D01*
X131038888Y-79811353D01*
X130951944Y-79792872D01*
X130951939Y-79792872D01*
X130945487Y-79791500D01*
X130754513Y-79791500D01*
X130748061Y-79792872D01*
X130748056Y-79792872D01*
X130661112Y-79811353D01*
X130567712Y-79831206D01*
X130561682Y-79833891D01*
X130561681Y-79833891D01*
X130399278Y-79906197D01*
X130399276Y-79906198D01*
X130393248Y-79908882D01*
X130238747Y-80021134D01*
X130234326Y-80026044D01*
X130234325Y-80026045D01*
X130206648Y-80056784D01*
X130110960Y-80163056D01*
X130015473Y-80328444D01*
X129956458Y-80510072D01*
X129955768Y-80516633D01*
X129955768Y-80516635D01*
X129946694Y-80602974D01*
X129936496Y-80700000D01*
X111452445Y-80700000D01*
X111489262Y-80684182D01*
X111503876Y-80675139D01*
X111707547Y-80549104D01*
X111707548Y-80549104D01*
X111711519Y-80546646D01*
X111715082Y-80543629D01*
X111715087Y-80543626D01*
X111907439Y-80380787D01*
X111907440Y-80380786D01*
X111911005Y-80377768D01*
X112002729Y-80273177D01*
X112080257Y-80184774D01*
X112080261Y-80184769D01*
X112083339Y-80181259D01*
X112089119Y-80172274D01*
X112222205Y-79965367D01*
X112224733Y-79961437D01*
X112332083Y-79723129D01*
X112372801Y-79578756D01*
X112401760Y-79476076D01*
X112401761Y-79476073D01*
X112403030Y-79471572D01*
X112419832Y-79339496D01*
X112435616Y-79215421D01*
X112435616Y-79215417D01*
X112436014Y-79212291D01*
X112436114Y-79208500D01*
X112438213Y-79128324D01*
X112438431Y-79120000D01*
X112438176Y-79116573D01*
X112419407Y-78864000D01*
X112419406Y-78863996D01*
X112419061Y-78859348D01*
X112417286Y-78851500D01*
X112387455Y-78719669D01*
X119709622Y-78719669D01*
X119709992Y-78726490D01*
X119715516Y-78777352D01*
X119719142Y-78792604D01*
X119764297Y-78913054D01*
X119772835Y-78928649D01*
X119849336Y-79030724D01*
X119861897Y-79043285D01*
X119963972Y-79119786D01*
X119979567Y-79128324D01*
X120100015Y-79173478D01*
X120115270Y-79177105D01*
X120166135Y-79182631D01*
X120172949Y-79183000D01*
X120745506Y-79183000D01*
X120760745Y-79178525D01*
X120761950Y-79177135D01*
X120763621Y-79169452D01*
X120763621Y-79164884D01*
X121271621Y-79164884D01*
X121276096Y-79180123D01*
X121277486Y-79181328D01*
X121285169Y-79182999D01*
X121862290Y-79182999D01*
X121869111Y-79182629D01*
X121919973Y-79177105D01*
X121935225Y-79173479D01*
X122055675Y-79128324D01*
X122071270Y-79119786D01*
X122173345Y-79043285D01*
X122185906Y-79030724D01*
X122262407Y-78928649D01*
X122270945Y-78913054D01*
X122318873Y-78785207D01*
X122320733Y-78785904D01*
X122350752Y-78733372D01*
X122413711Y-78700558D01*
X122484415Y-78706992D01*
X122527202Y-78735079D01*
X122673321Y-78881198D01*
X122677829Y-78884355D01*
X122677832Y-78884357D01*
X122716549Y-78911467D01*
X122860872Y-79012523D01*
X122865854Y-79014846D01*
X122865859Y-79014849D01*
X123057799Y-79104351D01*
X123068378Y-79109284D01*
X123073686Y-79110706D01*
X123073688Y-79110707D01*
X123284219Y-79167119D01*
X123284221Y-79167119D01*
X123289534Y-79168543D01*
X123517621Y-79188498D01*
X123745708Y-79168543D01*
X123751021Y-79167119D01*
X123751023Y-79167119D01*
X123961554Y-79110707D01*
X123961556Y-79110706D01*
X123966864Y-79109284D01*
X123977443Y-79104351D01*
X124169383Y-79014849D01*
X124169388Y-79014846D01*
X124174370Y-79012523D01*
X124318693Y-78911467D01*
X124357410Y-78884357D01*
X124357413Y-78884355D01*
X124361921Y-78881198D01*
X124523819Y-78719300D01*
X124528432Y-78712713D01*
X124611918Y-78593482D01*
X124655144Y-78531749D01*
X124657467Y-78526767D01*
X124657470Y-78526762D01*
X124749582Y-78329225D01*
X124749582Y-78329224D01*
X124751905Y-78324243D01*
X124758401Y-78300000D01*
X127286496Y-78300000D01*
X127306458Y-78489928D01*
X127365473Y-78671556D01*
X127460960Y-78836944D01*
X127465378Y-78841851D01*
X127465379Y-78841852D01*
X127543531Y-78928649D01*
X127588747Y-78978866D01*
X127677412Y-79043285D01*
X127719466Y-79073839D01*
X127743248Y-79091118D01*
X127749276Y-79093802D01*
X127749278Y-79093803D01*
X127903429Y-79162435D01*
X127917712Y-79168794D01*
X127984546Y-79183000D01*
X128098056Y-79207128D01*
X128098061Y-79207128D01*
X128104513Y-79208500D01*
X128295487Y-79208500D01*
X128301939Y-79207128D01*
X128301944Y-79207128D01*
X128415454Y-79183000D01*
X128482288Y-79168794D01*
X128496571Y-79162435D01*
X128650722Y-79093803D01*
X128650724Y-79093802D01*
X128656752Y-79091118D01*
X128680535Y-79073839D01*
X128689601Y-79067252D01*
X133712173Y-79067252D01*
X133712397Y-79071918D01*
X133712397Y-79071924D01*
X133717657Y-79181432D01*
X133724713Y-79328321D01*
X133775704Y-79584669D01*
X133864026Y-79830665D01*
X133866242Y-79834789D01*
X133964282Y-80017251D01*
X133987737Y-80060904D01*
X133990532Y-80064647D01*
X133990534Y-80064650D01*
X134141330Y-80266590D01*
X134141335Y-80266596D01*
X134144122Y-80270328D01*
X134147431Y-80273608D01*
X134147436Y-80273614D01*
X134320461Y-80445135D01*
X134329743Y-80454336D01*
X134333505Y-80457094D01*
X134333508Y-80457097D01*
X134535434Y-80605155D01*
X134540524Y-80608887D01*
X134544667Y-80611067D01*
X134544669Y-80611068D01*
X134767684Y-80728402D01*
X134767689Y-80728404D01*
X134771834Y-80730585D01*
X135018590Y-80816757D01*
X135023183Y-80817629D01*
X135270785Y-80864637D01*
X135270788Y-80864637D01*
X135275374Y-80865508D01*
X135405959Y-80870639D01*
X135531875Y-80875587D01*
X135531881Y-80875587D01*
X135536543Y-80875770D01*
X135615977Y-80867070D01*
X135791707Y-80847825D01*
X135791712Y-80847824D01*
X135796360Y-80847315D01*
X135816882Y-80841912D01*
X136044594Y-80781961D01*
X136044596Y-80781960D01*
X136049117Y-80780770D01*
X136067177Y-80773011D01*
X136193548Y-80718717D01*
X136237113Y-80700000D01*
X154736496Y-80700000D01*
X154737186Y-80706565D01*
X154753911Y-80865691D01*
X154756458Y-80889928D01*
X154815473Y-81071556D01*
X154910960Y-81236944D01*
X155038747Y-81378866D01*
X155193248Y-81491118D01*
X155199276Y-81493802D01*
X155199278Y-81493803D01*
X155321178Y-81548076D01*
X155367712Y-81568794D01*
X155450104Y-81586307D01*
X155548056Y-81607128D01*
X155548061Y-81607128D01*
X155554513Y-81608500D01*
X155745487Y-81608500D01*
X155751939Y-81607128D01*
X155751944Y-81607128D01*
X155849896Y-81586307D01*
X155932288Y-81568794D01*
X155978822Y-81548076D01*
X156100722Y-81493803D01*
X156100724Y-81493802D01*
X156106752Y-81491118D01*
X156261253Y-81378866D01*
X156389040Y-81236944D01*
X156484527Y-81071556D01*
X156543542Y-80889928D01*
X156546090Y-80865691D01*
X156562814Y-80706565D01*
X156563504Y-80700000D01*
X156553306Y-80602974D01*
X156544232Y-80516635D01*
X156544232Y-80516633D01*
X156543542Y-80510072D01*
X156484527Y-80328444D01*
X156389040Y-80163056D01*
X156293353Y-80056784D01*
X156265675Y-80026045D01*
X156265674Y-80026044D01*
X156261253Y-80021134D01*
X156106752Y-79908882D01*
X156100724Y-79906198D01*
X156100722Y-79906197D01*
X155938319Y-79833891D01*
X155938318Y-79833891D01*
X155932288Y-79831206D01*
X155838888Y-79811353D01*
X155751944Y-79792872D01*
X155751939Y-79792872D01*
X155745487Y-79791500D01*
X155554513Y-79791500D01*
X155548061Y-79792872D01*
X155548056Y-79792872D01*
X155461112Y-79811353D01*
X155367712Y-79831206D01*
X155361682Y-79833891D01*
X155361681Y-79833891D01*
X155199278Y-79906197D01*
X155199276Y-79906198D01*
X155193248Y-79908882D01*
X155038747Y-80021134D01*
X155034326Y-80026044D01*
X155034325Y-80026045D01*
X155006648Y-80056784D01*
X154910960Y-80163056D01*
X154815473Y-80328444D01*
X154756458Y-80510072D01*
X154755768Y-80516633D01*
X154755768Y-80516635D01*
X154746694Y-80602974D01*
X154736496Y-80700000D01*
X136237113Y-80700000D01*
X136289262Y-80677595D01*
X136394121Y-80612707D01*
X136507547Y-80542517D01*
X136507548Y-80542517D01*
X136511519Y-80540059D01*
X136515082Y-80537042D01*
X136515087Y-80537039D01*
X136707439Y-80374200D01*
X136707440Y-80374199D01*
X136711005Y-80371181D01*
X136753503Y-80322721D01*
X136880257Y-80178187D01*
X136880261Y-80178182D01*
X136883339Y-80174672D01*
X136887143Y-80168759D01*
X137022205Y-79958780D01*
X137024733Y-79954850D01*
X137132083Y-79716542D01*
X137169275Y-79584669D01*
X137201760Y-79469489D01*
X137201761Y-79469486D01*
X137203030Y-79464985D01*
X137220172Y-79330236D01*
X137235616Y-79208834D01*
X137235616Y-79208830D01*
X137236014Y-79205704D01*
X137236127Y-79201414D01*
X137238264Y-79119786D01*
X137238431Y-79113413D01*
X137231106Y-79014849D01*
X137219407Y-78857413D01*
X137219406Y-78857409D01*
X137219061Y-78852761D01*
X137214996Y-78834794D01*
X137187455Y-78713082D01*
X144809622Y-78713082D01*
X144809992Y-78719903D01*
X144815516Y-78770765D01*
X144819142Y-78786017D01*
X144864297Y-78906467D01*
X144872835Y-78922062D01*
X144949336Y-79024137D01*
X144961897Y-79036698D01*
X145063972Y-79113199D01*
X145079567Y-79121737D01*
X145200015Y-79166891D01*
X145215270Y-79170518D01*
X145266135Y-79176044D01*
X145272949Y-79176413D01*
X145845506Y-79176413D01*
X145860745Y-79171938D01*
X145861950Y-79170548D01*
X145863621Y-79162865D01*
X145863621Y-79158297D01*
X146371621Y-79158297D01*
X146376096Y-79173536D01*
X146377486Y-79174741D01*
X146385169Y-79176412D01*
X146962290Y-79176412D01*
X146969111Y-79176042D01*
X147019973Y-79170518D01*
X147035225Y-79166892D01*
X147155675Y-79121737D01*
X147171270Y-79113199D01*
X147273345Y-79036698D01*
X147285906Y-79024137D01*
X147362407Y-78922062D01*
X147370945Y-78906467D01*
X147418873Y-78778620D01*
X147420733Y-78779317D01*
X147450752Y-78726785D01*
X147513711Y-78693971D01*
X147584415Y-78700405D01*
X147627202Y-78728492D01*
X147773321Y-78874611D01*
X147777829Y-78877768D01*
X147777832Y-78877770D01*
X147828223Y-78913054D01*
X147960872Y-79005936D01*
X147965854Y-79008259D01*
X147965859Y-79008262D01*
X148155841Y-79096851D01*
X148168378Y-79102697D01*
X148173686Y-79104119D01*
X148173688Y-79104120D01*
X148384219Y-79160532D01*
X148384221Y-79160532D01*
X148389534Y-79161956D01*
X148617621Y-79181911D01*
X148845708Y-79161956D01*
X148851021Y-79160532D01*
X148851023Y-79160532D01*
X149061554Y-79104120D01*
X149061556Y-79104119D01*
X149066864Y-79102697D01*
X149079401Y-79096851D01*
X149269383Y-79008262D01*
X149269388Y-79008259D01*
X149274370Y-79005936D01*
X149407019Y-78913054D01*
X149457410Y-78877770D01*
X149457413Y-78877768D01*
X149461921Y-78874611D01*
X149623819Y-78712713D01*
X149636943Y-78693971D01*
X149713649Y-78584423D01*
X149755144Y-78525162D01*
X149757467Y-78520180D01*
X149757470Y-78520175D01*
X149849582Y-78322638D01*
X149849582Y-78322637D01*
X149851905Y-78317656D01*
X149856636Y-78300000D01*
X152086496Y-78300000D01*
X152106458Y-78489928D01*
X152165473Y-78671556D01*
X152260960Y-78836944D01*
X152265378Y-78841851D01*
X152265379Y-78841852D01*
X152343531Y-78928649D01*
X152388747Y-78978866D01*
X152477412Y-79043285D01*
X152519466Y-79073839D01*
X152543248Y-79091118D01*
X152549276Y-79093802D01*
X152549278Y-79093803D01*
X152703429Y-79162435D01*
X152717712Y-79168794D01*
X152784546Y-79183000D01*
X152898056Y-79207128D01*
X152898061Y-79207128D01*
X152904513Y-79208500D01*
X153095487Y-79208500D01*
X153101939Y-79207128D01*
X153101944Y-79207128D01*
X153215454Y-79183000D01*
X153282288Y-79168794D01*
X153296571Y-79162435D01*
X153450722Y-79093803D01*
X153450724Y-79093802D01*
X153456752Y-79091118D01*
X153480535Y-79073839D01*
X153497739Y-79061339D01*
X158487173Y-79061339D01*
X158487397Y-79066005D01*
X158487397Y-79066011D01*
X158492006Y-79161956D01*
X158499713Y-79322408D01*
X158550704Y-79578756D01*
X158639026Y-79824752D01*
X158647958Y-79841376D01*
X158705753Y-79948937D01*
X158762737Y-80054991D01*
X158765532Y-80058734D01*
X158765534Y-80058737D01*
X158916330Y-80260677D01*
X158916335Y-80260683D01*
X158919122Y-80264415D01*
X158922431Y-80267695D01*
X158922436Y-80267701D01*
X159036514Y-80380787D01*
X159104743Y-80448423D01*
X159108505Y-80451181D01*
X159108508Y-80451184D01*
X159305295Y-80595474D01*
X159315524Y-80602974D01*
X159319667Y-80605154D01*
X159319669Y-80605155D01*
X159542684Y-80722489D01*
X159542689Y-80722491D01*
X159546834Y-80724672D01*
X159663778Y-80765511D01*
X159774611Y-80804216D01*
X159793590Y-80810844D01*
X159798183Y-80811716D01*
X160045785Y-80858724D01*
X160045788Y-80858724D01*
X160050374Y-80859595D01*
X160180958Y-80864726D01*
X160306875Y-80869674D01*
X160306881Y-80869674D01*
X160311543Y-80869857D01*
X160390977Y-80861157D01*
X160566707Y-80841912D01*
X160566712Y-80841911D01*
X160571360Y-80841402D01*
X160604371Y-80832711D01*
X160819594Y-80776048D01*
X160819596Y-80776047D01*
X160824117Y-80774857D01*
X160845871Y-80765511D01*
X160998351Y-80700000D01*
X179636496Y-80700000D01*
X179637186Y-80706565D01*
X179653911Y-80865691D01*
X179656458Y-80889928D01*
X179715473Y-81071556D01*
X179810960Y-81236944D01*
X179938747Y-81378866D01*
X180093248Y-81491118D01*
X180099276Y-81493802D01*
X180099278Y-81493803D01*
X180221178Y-81548076D01*
X180267712Y-81568794D01*
X180350104Y-81586307D01*
X180448056Y-81607128D01*
X180448061Y-81607128D01*
X180454513Y-81608500D01*
X180645487Y-81608500D01*
X180651939Y-81607128D01*
X180651944Y-81607128D01*
X180749896Y-81586307D01*
X180832288Y-81568794D01*
X180878822Y-81548076D01*
X181000722Y-81493803D01*
X181000724Y-81493802D01*
X181006752Y-81491118D01*
X181161253Y-81378866D01*
X181289040Y-81236944D01*
X181384527Y-81071556D01*
X181443542Y-80889928D01*
X181446090Y-80865691D01*
X181462814Y-80706565D01*
X181463504Y-80700000D01*
X181453306Y-80602974D01*
X181444232Y-80516635D01*
X181444232Y-80516633D01*
X181443542Y-80510072D01*
X181384527Y-80328444D01*
X181289040Y-80163056D01*
X181193353Y-80056784D01*
X181165675Y-80026045D01*
X181165674Y-80026044D01*
X181161253Y-80021134D01*
X181006752Y-79908882D01*
X181000724Y-79906198D01*
X181000722Y-79906197D01*
X180838319Y-79833891D01*
X180838318Y-79833891D01*
X180832288Y-79831206D01*
X180738888Y-79811353D01*
X180651944Y-79792872D01*
X180651939Y-79792872D01*
X180645487Y-79791500D01*
X180454513Y-79791500D01*
X180448061Y-79792872D01*
X180448056Y-79792872D01*
X180361112Y-79811353D01*
X180267712Y-79831206D01*
X180261682Y-79833891D01*
X180261681Y-79833891D01*
X180099278Y-79906197D01*
X180099276Y-79906198D01*
X180093248Y-79908882D01*
X179938747Y-80021134D01*
X179934326Y-80026044D01*
X179934325Y-80026045D01*
X179906648Y-80056784D01*
X179810960Y-80163056D01*
X179715473Y-80328444D01*
X179656458Y-80510072D01*
X179655768Y-80516633D01*
X179655768Y-80516635D01*
X179646694Y-80602974D01*
X179636496Y-80700000D01*
X160998351Y-80700000D01*
X161030878Y-80686025D01*
X161064262Y-80671682D01*
X161187414Y-80595474D01*
X161282547Y-80536604D01*
X161282548Y-80536604D01*
X161286519Y-80534146D01*
X161290082Y-80531129D01*
X161290087Y-80531126D01*
X161482439Y-80368287D01*
X161482440Y-80368286D01*
X161486005Y-80365268D01*
X161566767Y-80273177D01*
X161655257Y-80172274D01*
X161655261Y-80172269D01*
X161658339Y-80168759D01*
X161799733Y-79948937D01*
X161907083Y-79710629D01*
X161910468Y-79698626D01*
X161976760Y-79463576D01*
X161976761Y-79463573D01*
X161978030Y-79459072D01*
X161995258Y-79323649D01*
X162010616Y-79202921D01*
X162010616Y-79202917D01*
X162011014Y-79199791D01*
X162011129Y-79195421D01*
X162013058Y-79121737D01*
X162013431Y-79107500D01*
X162010001Y-79061339D01*
X161994407Y-78851500D01*
X161994406Y-78851496D01*
X161994061Y-78846848D01*
X161991334Y-78834794D01*
X161965283Y-78719669D01*
X169617001Y-78719669D01*
X169617371Y-78726490D01*
X169622895Y-78777352D01*
X169626521Y-78792604D01*
X169671676Y-78913054D01*
X169680214Y-78928649D01*
X169756715Y-79030724D01*
X169769276Y-79043285D01*
X169871351Y-79119786D01*
X169886946Y-79128324D01*
X170007394Y-79173478D01*
X170022649Y-79177105D01*
X170073514Y-79182631D01*
X170080328Y-79183000D01*
X170652885Y-79183000D01*
X170668124Y-79178525D01*
X170669329Y-79177135D01*
X170671000Y-79169452D01*
X170671000Y-79164884D01*
X171179000Y-79164884D01*
X171183475Y-79180123D01*
X171184865Y-79181328D01*
X171192548Y-79182999D01*
X171769669Y-79182999D01*
X171776490Y-79182629D01*
X171827352Y-79177105D01*
X171842604Y-79173479D01*
X171963054Y-79128324D01*
X171978649Y-79119786D01*
X172080724Y-79043285D01*
X172093285Y-79030724D01*
X172169786Y-78928649D01*
X172178324Y-78913054D01*
X172226252Y-78785207D01*
X172228112Y-78785904D01*
X172258131Y-78733372D01*
X172321090Y-78700558D01*
X172391794Y-78706992D01*
X172434581Y-78735079D01*
X172580700Y-78881198D01*
X172585208Y-78884355D01*
X172585211Y-78884357D01*
X172623928Y-78911467D01*
X172768251Y-79012523D01*
X172773233Y-79014846D01*
X172773238Y-79014849D01*
X172965178Y-79104351D01*
X172975757Y-79109284D01*
X172981065Y-79110706D01*
X172981067Y-79110707D01*
X173191598Y-79167119D01*
X173191600Y-79167119D01*
X173196913Y-79168543D01*
X173425000Y-79188498D01*
X173653087Y-79168543D01*
X173658400Y-79167119D01*
X173658402Y-79167119D01*
X173868933Y-79110707D01*
X173868935Y-79110706D01*
X173874243Y-79109284D01*
X173884822Y-79104351D01*
X174076762Y-79014849D01*
X174076767Y-79014846D01*
X174081749Y-79012523D01*
X174226072Y-78911467D01*
X174264789Y-78884357D01*
X174264792Y-78884355D01*
X174269300Y-78881198D01*
X174431198Y-78719300D01*
X174435811Y-78712713D01*
X174519297Y-78593482D01*
X174562523Y-78531749D01*
X174564846Y-78526767D01*
X174564849Y-78526762D01*
X174656961Y-78329225D01*
X174656961Y-78329224D01*
X174659284Y-78324243D01*
X174665780Y-78300000D01*
X176986496Y-78300000D01*
X177006458Y-78489928D01*
X177065473Y-78671556D01*
X177160960Y-78836944D01*
X177165378Y-78841851D01*
X177165379Y-78841852D01*
X177243531Y-78928649D01*
X177288747Y-78978866D01*
X177377412Y-79043285D01*
X177419466Y-79073839D01*
X177443248Y-79091118D01*
X177449276Y-79093802D01*
X177449278Y-79093803D01*
X177603429Y-79162435D01*
X177617712Y-79168794D01*
X177684546Y-79183000D01*
X177798056Y-79207128D01*
X177798061Y-79207128D01*
X177804513Y-79208500D01*
X177995487Y-79208500D01*
X178001939Y-79207128D01*
X178001944Y-79207128D01*
X178115454Y-79183000D01*
X178182288Y-79168794D01*
X178196571Y-79162435D01*
X178350722Y-79093803D01*
X178350724Y-79093802D01*
X178356752Y-79091118D01*
X178380535Y-79073839D01*
X178408062Y-79053839D01*
X183437173Y-79053839D01*
X183437397Y-79058505D01*
X183437397Y-79058511D01*
X183440751Y-79128324D01*
X183449713Y-79314908D01*
X183500704Y-79571256D01*
X183589026Y-79817252D01*
X183591242Y-79821376D01*
X183701214Y-80026045D01*
X183712737Y-80047491D01*
X183715532Y-80051234D01*
X183715534Y-80051237D01*
X183866330Y-80253177D01*
X183866335Y-80253183D01*
X183869122Y-80256915D01*
X183872431Y-80260195D01*
X183872436Y-80260201D01*
X184051426Y-80437635D01*
X184054743Y-80440923D01*
X184058505Y-80443681D01*
X184058508Y-80443684D01*
X184194812Y-80543626D01*
X184265524Y-80595474D01*
X184269667Y-80597654D01*
X184269669Y-80597655D01*
X184492684Y-80714989D01*
X184492689Y-80714991D01*
X184496834Y-80717172D01*
X184743590Y-80803344D01*
X184748183Y-80804216D01*
X184995785Y-80851224D01*
X184995788Y-80851224D01*
X185000374Y-80852095D01*
X185130959Y-80857226D01*
X185256875Y-80862174D01*
X185256881Y-80862174D01*
X185261543Y-80862357D01*
X185349619Y-80852711D01*
X185516707Y-80834412D01*
X185516712Y-80834411D01*
X185521360Y-80833902D01*
X185525884Y-80832711D01*
X185769594Y-80768548D01*
X185769596Y-80768547D01*
X185774117Y-80767357D01*
X185873469Y-80724672D01*
X185978753Y-80679438D01*
X186014262Y-80664182D01*
X186209080Y-80543626D01*
X186232547Y-80529104D01*
X186232548Y-80529104D01*
X186236519Y-80526646D01*
X186240082Y-80523629D01*
X186240087Y-80523626D01*
X186432439Y-80360787D01*
X186432440Y-80360786D01*
X186436005Y-80357768D01*
X186456736Y-80334128D01*
X186605257Y-80164774D01*
X186605261Y-80164769D01*
X186608339Y-80161259D01*
X186668653Y-80067491D01*
X186734341Y-79965367D01*
X186749733Y-79941437D01*
X186857083Y-79703129D01*
X186889253Y-79589064D01*
X186926760Y-79456076D01*
X186926761Y-79456073D01*
X186928030Y-79451572D01*
X186945056Y-79317736D01*
X186960616Y-79195421D01*
X186960616Y-79195417D01*
X186961014Y-79192291D01*
X186961114Y-79188498D01*
X186963085Y-79113199D01*
X186963431Y-79100000D01*
X186950697Y-78928649D01*
X186944407Y-78844000D01*
X186944406Y-78843996D01*
X186944061Y-78839348D01*
X186942224Y-78831226D01*
X186916622Y-78718082D01*
X194832022Y-78718082D01*
X194832392Y-78724903D01*
X194837916Y-78775765D01*
X194841542Y-78791017D01*
X194886697Y-78911467D01*
X194895235Y-78927062D01*
X194971736Y-79029137D01*
X194984297Y-79041698D01*
X195086372Y-79118199D01*
X195101967Y-79126737D01*
X195222415Y-79171891D01*
X195237670Y-79175518D01*
X195288535Y-79181044D01*
X195295349Y-79181413D01*
X195867906Y-79181413D01*
X195883145Y-79176938D01*
X195884350Y-79175548D01*
X195886021Y-79167865D01*
X195886021Y-78145528D01*
X195881546Y-78130289D01*
X195880156Y-78129084D01*
X195872473Y-78127413D01*
X194850137Y-78127413D01*
X194834898Y-78131888D01*
X194833693Y-78133278D01*
X194832022Y-78140961D01*
X194832022Y-78718082D01*
X186916622Y-78718082D01*
X186891934Y-78608980D01*
X186886377Y-78584423D01*
X186878816Y-78564980D01*
X186793340Y-78345176D01*
X186793339Y-78345173D01*
X186791647Y-78340823D01*
X186781254Y-78322638D01*
X186680934Y-78147115D01*
X186661951Y-78113902D01*
X186500138Y-77908643D01*
X186309763Y-77729557D01*
X186148583Y-77617742D01*
X186124880Y-77601298D01*
X194832021Y-77601298D01*
X194836496Y-77616537D01*
X194837886Y-77617742D01*
X194845569Y-77619413D01*
X195867906Y-77619413D01*
X195883145Y-77614938D01*
X195884350Y-77613548D01*
X195886021Y-77605865D01*
X195886021Y-76583529D01*
X195881546Y-76568290D01*
X195880156Y-76567085D01*
X195872473Y-76565414D01*
X195295352Y-76565414D01*
X195288531Y-76565784D01*
X195237669Y-76571308D01*
X195222417Y-76574934D01*
X195101967Y-76620089D01*
X195086372Y-76628627D01*
X194984297Y-76705128D01*
X194971736Y-76717689D01*
X194895235Y-76819764D01*
X194886697Y-76835359D01*
X194841543Y-76955807D01*
X194837916Y-76971062D01*
X194832390Y-77021927D01*
X194832021Y-77028741D01*
X194832021Y-77601298D01*
X186124880Y-77601298D01*
X186098851Y-77583241D01*
X186098848Y-77583239D01*
X186095009Y-77580576D01*
X186090816Y-77578508D01*
X185864781Y-77467040D01*
X185864778Y-77467039D01*
X185860593Y-77464975D01*
X185850225Y-77461656D01*
X185616123Y-77386720D01*
X185611665Y-77385293D01*
X185353693Y-77343279D01*
X185239942Y-77341790D01*
X185097022Y-77339919D01*
X185097019Y-77339919D01*
X185092345Y-77339858D01*
X184833362Y-77375104D01*
X184828876Y-77376412D01*
X184828874Y-77376412D01*
X184803143Y-77383912D01*
X184582433Y-77448243D01*
X184578180Y-77450203D01*
X184578179Y-77450204D01*
X184541893Y-77466932D01*
X184345072Y-77557668D01*
X184306067Y-77583241D01*
X184130404Y-77698410D01*
X184130399Y-77698414D01*
X184126491Y-77700976D01*
X183931494Y-77875018D01*
X183764363Y-78075970D01*
X183761934Y-78079973D01*
X183723963Y-78142548D01*
X183628771Y-78299419D01*
X183527697Y-78540455D01*
X183463359Y-78793783D01*
X183462891Y-78798434D01*
X183462890Y-78798438D01*
X183455220Y-78874611D01*
X183437173Y-79053839D01*
X178408062Y-79053839D01*
X178422588Y-79043285D01*
X178511253Y-78978866D01*
X178556469Y-78928649D01*
X178634621Y-78841852D01*
X178634622Y-78841851D01*
X178639040Y-78836944D01*
X178734527Y-78671556D01*
X178793542Y-78489928D01*
X178813504Y-78300000D01*
X178812814Y-78293435D01*
X178794232Y-78116635D01*
X178794232Y-78116633D01*
X178793542Y-78110072D01*
X178734527Y-77928444D01*
X178728992Y-77918856D01*
X178642341Y-77768774D01*
X178639040Y-77763056D01*
X178626886Y-77749557D01*
X178515675Y-77626045D01*
X178515674Y-77626044D01*
X178511253Y-77621134D01*
X178356752Y-77508882D01*
X178350724Y-77506198D01*
X178350722Y-77506197D01*
X178188319Y-77433891D01*
X178188318Y-77433891D01*
X178182288Y-77431206D01*
X178088887Y-77411353D01*
X178001944Y-77392872D01*
X178001939Y-77392872D01*
X177995487Y-77391500D01*
X177804513Y-77391500D01*
X177798061Y-77392872D01*
X177798056Y-77392872D01*
X177711112Y-77411353D01*
X177617712Y-77431206D01*
X177611682Y-77433891D01*
X177611681Y-77433891D01*
X177449278Y-77506197D01*
X177449276Y-77506198D01*
X177443248Y-77508882D01*
X177288747Y-77621134D01*
X177284326Y-77626044D01*
X177284325Y-77626045D01*
X177173115Y-77749557D01*
X177160960Y-77763056D01*
X177157659Y-77768774D01*
X177071009Y-77918856D01*
X177065473Y-77928444D01*
X177006458Y-78110072D01*
X177005768Y-78116633D01*
X177005768Y-78116635D01*
X176987186Y-78293435D01*
X176986496Y-78300000D01*
X174665780Y-78300000D01*
X174707970Y-78142548D01*
X174717119Y-78108402D01*
X174717119Y-78108400D01*
X174718543Y-78103087D01*
X174738498Y-77875000D01*
X174718543Y-77646913D01*
X174715354Y-77635011D01*
X174660707Y-77431067D01*
X174660706Y-77431065D01*
X174659284Y-77425757D01*
X174656961Y-77420775D01*
X174564849Y-77223238D01*
X174564846Y-77223233D01*
X174562523Y-77218251D01*
X174484714Y-77107128D01*
X174434357Y-77035211D01*
X174434355Y-77035208D01*
X174431198Y-77030700D01*
X174269300Y-76868802D01*
X174264792Y-76865645D01*
X174264789Y-76865643D01*
X174186611Y-76810902D01*
X174081749Y-76737477D01*
X174076767Y-76735154D01*
X174076762Y-76735151D01*
X173879225Y-76643039D01*
X173879224Y-76643039D01*
X173874243Y-76640716D01*
X173868935Y-76639294D01*
X173868933Y-76639293D01*
X173658402Y-76582881D01*
X173658400Y-76582881D01*
X173653087Y-76581457D01*
X173425000Y-76561502D01*
X173196913Y-76581457D01*
X173191600Y-76582881D01*
X173191598Y-76582881D01*
X172981067Y-76639293D01*
X172981065Y-76639294D01*
X172975757Y-76640716D01*
X172970776Y-76643039D01*
X172970775Y-76643039D01*
X172773238Y-76735151D01*
X172773233Y-76735154D01*
X172768251Y-76737477D01*
X172663389Y-76810902D01*
X172585211Y-76865643D01*
X172585208Y-76865645D01*
X172580700Y-76868802D01*
X172434580Y-77014922D01*
X172372268Y-77048948D01*
X172301453Y-77043883D01*
X172244617Y-77001336D01*
X172227317Y-76964394D01*
X172226252Y-76964793D01*
X172178324Y-76836946D01*
X172169786Y-76821351D01*
X172093285Y-76719276D01*
X172080724Y-76706715D01*
X171978649Y-76630214D01*
X171963054Y-76621676D01*
X171842606Y-76576522D01*
X171827351Y-76572895D01*
X171776486Y-76567369D01*
X171769672Y-76567000D01*
X171197115Y-76567000D01*
X171181876Y-76571475D01*
X171180671Y-76572865D01*
X171179000Y-76580548D01*
X171179000Y-79164884D01*
X170671000Y-79164884D01*
X170671000Y-78147115D01*
X170666525Y-78131876D01*
X170665135Y-78130671D01*
X170657452Y-78129000D01*
X169635116Y-78129000D01*
X169619877Y-78133475D01*
X169618672Y-78134865D01*
X169617001Y-78142548D01*
X169617001Y-78719669D01*
X161965283Y-78719669D01*
X161937408Y-78596480D01*
X161936377Y-78591923D01*
X161934684Y-78587569D01*
X161843340Y-78352676D01*
X161843339Y-78352673D01*
X161841647Y-78348323D01*
X161837361Y-78340823D01*
X161722882Y-78140528D01*
X161711951Y-78121402D01*
X161550138Y-77916143D01*
X161359763Y-77737057D01*
X161192662Y-77621134D01*
X161166356Y-77602885D01*
X169617000Y-77602885D01*
X169621475Y-77618124D01*
X169622865Y-77619329D01*
X169630548Y-77621000D01*
X170652885Y-77621000D01*
X170668124Y-77616525D01*
X170669329Y-77615135D01*
X170671000Y-77607452D01*
X170671000Y-76585116D01*
X170666525Y-76569877D01*
X170665135Y-76568672D01*
X170657452Y-76567001D01*
X170080331Y-76567001D01*
X170073510Y-76567371D01*
X170022648Y-76572895D01*
X170007396Y-76576521D01*
X169886946Y-76621676D01*
X169871351Y-76630214D01*
X169769276Y-76706715D01*
X169756715Y-76719276D01*
X169680214Y-76821351D01*
X169671676Y-76836946D01*
X169626522Y-76957394D01*
X169622895Y-76972649D01*
X169617369Y-77023514D01*
X169617000Y-77030328D01*
X169617000Y-77602885D01*
X161166356Y-77602885D01*
X161148851Y-77590741D01*
X161148848Y-77590739D01*
X161145009Y-77588076D01*
X161135205Y-77583241D01*
X160914781Y-77474540D01*
X160914778Y-77474539D01*
X160910593Y-77472475D01*
X160903499Y-77470204D01*
X160666123Y-77394220D01*
X160661665Y-77392793D01*
X160403693Y-77350779D01*
X160289942Y-77349290D01*
X160147022Y-77347419D01*
X160147019Y-77347419D01*
X160142345Y-77347358D01*
X159883362Y-77382604D01*
X159878876Y-77383912D01*
X159878874Y-77383912D01*
X159863075Y-77388517D01*
X159632433Y-77455743D01*
X159628180Y-77457703D01*
X159628179Y-77457704D01*
X159591659Y-77474540D01*
X159395072Y-77565168D01*
X159356067Y-77590741D01*
X159180404Y-77705910D01*
X159180399Y-77705914D01*
X159176491Y-77708476D01*
X158981494Y-77882518D01*
X158814363Y-78083470D01*
X158804349Y-78099973D01*
X158682970Y-78300000D01*
X158678771Y-78306919D01*
X158577697Y-78547955D01*
X158513359Y-78801283D01*
X158512891Y-78805934D01*
X158512890Y-78805938D01*
X158508771Y-78846848D01*
X158487173Y-79061339D01*
X153497739Y-79061339D01*
X153522588Y-79043285D01*
X153611253Y-78978866D01*
X153656469Y-78928649D01*
X153734621Y-78841852D01*
X153734622Y-78841851D01*
X153739040Y-78836944D01*
X153834527Y-78671556D01*
X153893542Y-78489928D01*
X153913504Y-78300000D01*
X153912814Y-78293435D01*
X153894232Y-78116635D01*
X153894232Y-78116633D01*
X153893542Y-78110072D01*
X153834527Y-77928444D01*
X153828992Y-77918856D01*
X153742341Y-77768774D01*
X153739040Y-77763056D01*
X153726886Y-77749557D01*
X153615675Y-77626045D01*
X153615674Y-77626044D01*
X153611253Y-77621134D01*
X153456752Y-77508882D01*
X153450724Y-77506198D01*
X153450722Y-77506197D01*
X153288319Y-77433891D01*
X153288318Y-77433891D01*
X153282288Y-77431206D01*
X153188887Y-77411353D01*
X153101944Y-77392872D01*
X153101939Y-77392872D01*
X153095487Y-77391500D01*
X152904513Y-77391500D01*
X152898061Y-77392872D01*
X152898056Y-77392872D01*
X152811113Y-77411353D01*
X152717712Y-77431206D01*
X152711682Y-77433891D01*
X152711681Y-77433891D01*
X152549278Y-77506197D01*
X152549276Y-77506198D01*
X152543248Y-77508882D01*
X152388747Y-77621134D01*
X152384326Y-77626044D01*
X152384325Y-77626045D01*
X152273115Y-77749557D01*
X152260960Y-77763056D01*
X152257659Y-77768774D01*
X152171009Y-77918856D01*
X152165473Y-77928444D01*
X152106458Y-78110072D01*
X152105768Y-78116633D01*
X152105768Y-78116635D01*
X152087186Y-78293435D01*
X152086496Y-78300000D01*
X149856636Y-78300000D01*
X149898826Y-78142548D01*
X149909740Y-78101815D01*
X149909740Y-78101813D01*
X149911164Y-78096500D01*
X149931119Y-77868413D01*
X149911164Y-77640326D01*
X149909740Y-77635011D01*
X149853328Y-77424480D01*
X149853327Y-77424478D01*
X149851905Y-77419170D01*
X149842363Y-77398706D01*
X149757470Y-77216651D01*
X149757467Y-77216646D01*
X149755144Y-77211664D01*
X149637662Y-77043883D01*
X149626978Y-77028624D01*
X149626976Y-77028621D01*
X149623819Y-77024113D01*
X149461921Y-76862215D01*
X149457413Y-76859058D01*
X149457410Y-76859056D01*
X149290025Y-76741852D01*
X149274370Y-76730890D01*
X149269388Y-76728567D01*
X149269383Y-76728564D01*
X149071846Y-76636452D01*
X149071845Y-76636452D01*
X149066864Y-76634129D01*
X149061556Y-76632707D01*
X149061554Y-76632706D01*
X148851023Y-76576294D01*
X148851021Y-76576294D01*
X148845708Y-76574870D01*
X148617621Y-76554915D01*
X148389534Y-76574870D01*
X148384221Y-76576294D01*
X148384219Y-76576294D01*
X148173688Y-76632706D01*
X148173686Y-76632707D01*
X148168378Y-76634129D01*
X148163397Y-76636452D01*
X148163396Y-76636452D01*
X147965859Y-76728564D01*
X147965854Y-76728567D01*
X147960872Y-76730890D01*
X147945217Y-76741852D01*
X147777832Y-76859056D01*
X147777829Y-76859058D01*
X147773321Y-76862215D01*
X147627201Y-77008335D01*
X147564889Y-77042361D01*
X147494074Y-77037296D01*
X147437238Y-76994749D01*
X147419938Y-76957807D01*
X147418873Y-76958206D01*
X147370945Y-76830359D01*
X147362407Y-76814764D01*
X147285906Y-76712689D01*
X147273345Y-76700128D01*
X147171270Y-76623627D01*
X147155675Y-76615089D01*
X147035227Y-76569935D01*
X147019972Y-76566308D01*
X146969107Y-76560782D01*
X146962293Y-76560413D01*
X146389736Y-76560413D01*
X146374497Y-76564888D01*
X146373292Y-76566278D01*
X146371621Y-76573961D01*
X146371621Y-79158297D01*
X145863621Y-79158297D01*
X145863621Y-78140528D01*
X145859146Y-78125289D01*
X145857756Y-78124084D01*
X145850073Y-78122413D01*
X144827737Y-78122413D01*
X144812498Y-78126888D01*
X144811293Y-78128278D01*
X144809622Y-78135961D01*
X144809622Y-78713082D01*
X137187455Y-78713082D01*
X137162408Y-78602393D01*
X137161377Y-78597836D01*
X137157933Y-78588980D01*
X137068340Y-78358589D01*
X137068339Y-78358586D01*
X137066647Y-78354236D01*
X137063268Y-78348323D01*
X137018626Y-78270217D01*
X136936951Y-78127315D01*
X136775138Y-77922056D01*
X136584763Y-77742970D01*
X136408945Y-77621000D01*
X136373851Y-77596654D01*
X136373848Y-77596652D01*
X136373338Y-77596298D01*
X144809621Y-77596298D01*
X144814096Y-77611537D01*
X144815486Y-77612742D01*
X144823169Y-77614413D01*
X145845506Y-77614413D01*
X145860745Y-77609938D01*
X145861950Y-77608548D01*
X145863621Y-77600865D01*
X145863621Y-76578529D01*
X145859146Y-76563290D01*
X145857756Y-76562085D01*
X145850073Y-76560414D01*
X145272952Y-76560414D01*
X145266131Y-76560784D01*
X145215269Y-76566308D01*
X145200017Y-76569934D01*
X145079567Y-76615089D01*
X145063972Y-76623627D01*
X144961897Y-76700128D01*
X144949336Y-76712689D01*
X144872835Y-76814764D01*
X144864297Y-76830359D01*
X144819143Y-76950807D01*
X144815516Y-76966062D01*
X144809990Y-77016927D01*
X144809621Y-77023741D01*
X144809621Y-77596298D01*
X136373338Y-77596298D01*
X136370009Y-77593989D01*
X136358019Y-77588076D01*
X136139781Y-77480453D01*
X136139778Y-77480452D01*
X136135593Y-77478388D01*
X136112676Y-77471052D01*
X135891123Y-77400133D01*
X135886665Y-77398706D01*
X135628693Y-77356692D01*
X135514942Y-77355203D01*
X135372022Y-77353332D01*
X135372019Y-77353332D01*
X135367345Y-77353271D01*
X135108362Y-77388517D01*
X135103876Y-77389825D01*
X135103874Y-77389825D01*
X135088796Y-77394220D01*
X134857433Y-77461656D01*
X134853180Y-77463616D01*
X134853179Y-77463617D01*
X134816659Y-77480453D01*
X134620072Y-77571081D01*
X134581610Y-77596298D01*
X134405404Y-77711823D01*
X134405399Y-77711827D01*
X134401491Y-77714389D01*
X134206494Y-77888431D01*
X134039363Y-78089383D01*
X134036934Y-78093386D01*
X133907574Y-78306565D01*
X133903771Y-78312832D01*
X133802697Y-78553868D01*
X133738359Y-78807196D01*
X133737891Y-78811847D01*
X133737890Y-78811851D01*
X133732639Y-78864000D01*
X133712173Y-79067252D01*
X128689601Y-79067252D01*
X128722588Y-79043285D01*
X128811253Y-78978866D01*
X128856469Y-78928649D01*
X128934621Y-78841852D01*
X128934622Y-78841851D01*
X128939040Y-78836944D01*
X129034527Y-78671556D01*
X129093542Y-78489928D01*
X129113504Y-78300000D01*
X129112814Y-78293435D01*
X129094232Y-78116635D01*
X129094232Y-78116633D01*
X129093542Y-78110072D01*
X129034527Y-77928444D01*
X129028992Y-77918856D01*
X128942341Y-77768774D01*
X128939040Y-77763056D01*
X128926886Y-77749557D01*
X128815675Y-77626045D01*
X128815674Y-77626044D01*
X128811253Y-77621134D01*
X128656752Y-77508882D01*
X128650724Y-77506198D01*
X128650722Y-77506197D01*
X128488319Y-77433891D01*
X128488318Y-77433891D01*
X128482288Y-77431206D01*
X128388887Y-77411353D01*
X128301944Y-77392872D01*
X128301939Y-77392872D01*
X128295487Y-77391500D01*
X128104513Y-77391500D01*
X128098061Y-77392872D01*
X128098056Y-77392872D01*
X128011113Y-77411353D01*
X127917712Y-77431206D01*
X127911682Y-77433891D01*
X127911681Y-77433891D01*
X127749278Y-77506197D01*
X127749276Y-77506198D01*
X127743248Y-77508882D01*
X127588747Y-77621134D01*
X127584326Y-77626044D01*
X127584325Y-77626045D01*
X127473115Y-77749557D01*
X127460960Y-77763056D01*
X127457659Y-77768774D01*
X127371009Y-77918856D01*
X127365473Y-77928444D01*
X127306458Y-78110072D01*
X127305768Y-78116633D01*
X127305768Y-78116635D01*
X127287186Y-78293435D01*
X127286496Y-78300000D01*
X124758401Y-78300000D01*
X124800591Y-78142548D01*
X124809740Y-78108402D01*
X124809740Y-78108400D01*
X124811164Y-78103087D01*
X124831119Y-77875000D01*
X124811164Y-77646913D01*
X124807975Y-77635011D01*
X124753328Y-77431067D01*
X124753327Y-77431065D01*
X124751905Y-77425757D01*
X124749582Y-77420775D01*
X124657470Y-77223238D01*
X124657467Y-77223233D01*
X124655144Y-77218251D01*
X124577335Y-77107128D01*
X124526978Y-77035211D01*
X124526976Y-77035208D01*
X124523819Y-77030700D01*
X124361921Y-76868802D01*
X124357413Y-76865645D01*
X124357410Y-76865643D01*
X124279232Y-76810902D01*
X124174370Y-76737477D01*
X124169388Y-76735154D01*
X124169383Y-76735151D01*
X123971846Y-76643039D01*
X123971845Y-76643039D01*
X123966864Y-76640716D01*
X123961556Y-76639294D01*
X123961554Y-76639293D01*
X123751023Y-76582881D01*
X123751021Y-76582881D01*
X123745708Y-76581457D01*
X123517621Y-76561502D01*
X123289534Y-76581457D01*
X123284221Y-76582881D01*
X123284219Y-76582881D01*
X123073688Y-76639293D01*
X123073686Y-76639294D01*
X123068378Y-76640716D01*
X123063397Y-76643039D01*
X123063396Y-76643039D01*
X122865859Y-76735151D01*
X122865854Y-76735154D01*
X122860872Y-76737477D01*
X122756010Y-76810902D01*
X122677832Y-76865643D01*
X122677829Y-76865645D01*
X122673321Y-76868802D01*
X122527201Y-77014922D01*
X122464889Y-77048948D01*
X122394074Y-77043883D01*
X122337238Y-77001336D01*
X122319938Y-76964394D01*
X122318873Y-76964793D01*
X122270945Y-76836946D01*
X122262407Y-76821351D01*
X122185906Y-76719276D01*
X122173345Y-76706715D01*
X122071270Y-76630214D01*
X122055675Y-76621676D01*
X121935227Y-76576522D01*
X121919972Y-76572895D01*
X121869107Y-76567369D01*
X121862293Y-76567000D01*
X121289736Y-76567000D01*
X121274497Y-76571475D01*
X121273292Y-76572865D01*
X121271621Y-76580548D01*
X121271621Y-79164884D01*
X120763621Y-79164884D01*
X120763621Y-78147115D01*
X120759146Y-78131876D01*
X120757756Y-78130671D01*
X120750073Y-78129000D01*
X119727737Y-78129000D01*
X119712498Y-78133475D01*
X119711293Y-78134865D01*
X119709622Y-78142548D01*
X119709622Y-78719669D01*
X112387455Y-78719669D01*
X112362408Y-78608980D01*
X112361377Y-78604423D01*
X112359684Y-78600069D01*
X112268340Y-78365176D01*
X112268339Y-78365173D01*
X112266647Y-78360823D01*
X112257185Y-78344267D01*
X112144503Y-78147115D01*
X112136951Y-78133902D01*
X111975138Y-77928643D01*
X111784763Y-77749557D01*
X111599450Y-77621000D01*
X111573851Y-77603241D01*
X111573848Y-77603239D01*
X111573338Y-77602885D01*
X119709621Y-77602885D01*
X119714096Y-77618124D01*
X119715486Y-77619329D01*
X119723169Y-77621000D01*
X120745506Y-77621000D01*
X120760745Y-77616525D01*
X120761950Y-77615135D01*
X120763621Y-77607452D01*
X120763621Y-76585116D01*
X120759146Y-76569877D01*
X120757756Y-76568672D01*
X120750073Y-76567001D01*
X120172952Y-76567001D01*
X120166131Y-76567371D01*
X120115269Y-76572895D01*
X120100017Y-76576521D01*
X119979567Y-76621676D01*
X119963972Y-76630214D01*
X119861897Y-76706715D01*
X119849336Y-76719276D01*
X119772835Y-76821351D01*
X119764297Y-76836946D01*
X119719143Y-76957394D01*
X119715516Y-76972649D01*
X119709990Y-77023514D01*
X119709621Y-77030328D01*
X119709621Y-77602885D01*
X111573338Y-77602885D01*
X111570009Y-77600576D01*
X111562056Y-77596654D01*
X111339781Y-77487040D01*
X111339778Y-77487039D01*
X111335593Y-77484975D01*
X111321467Y-77480453D01*
X111091123Y-77406720D01*
X111086665Y-77405293D01*
X110828693Y-77363279D01*
X110714942Y-77361790D01*
X110572022Y-77359919D01*
X110572019Y-77359919D01*
X110567345Y-77359858D01*
X110308362Y-77395104D01*
X110303876Y-77396412D01*
X110303874Y-77396412D01*
X110296004Y-77398706D01*
X110057433Y-77468243D01*
X110053180Y-77470203D01*
X110053179Y-77470204D01*
X110016659Y-77487040D01*
X109820072Y-77577668D01*
X109784691Y-77600865D01*
X109605404Y-77718410D01*
X109605399Y-77718414D01*
X109601491Y-77720976D01*
X109406494Y-77895018D01*
X109239363Y-78095970D01*
X109236934Y-78099973D01*
X109110194Y-78308835D01*
X109103771Y-78319419D01*
X109002697Y-78560455D01*
X108938359Y-78813783D01*
X108937891Y-78818434D01*
X108937890Y-78818438D01*
X108934893Y-78848207D01*
X108912173Y-79073839D01*
X103880535Y-79073839D01*
X103922588Y-79043285D01*
X104011253Y-78978866D01*
X104056469Y-78928649D01*
X104134621Y-78841852D01*
X104134622Y-78841851D01*
X104139040Y-78836944D01*
X104234527Y-78671556D01*
X104293542Y-78489928D01*
X104313504Y-78300000D01*
X104312814Y-78293435D01*
X104294232Y-78116635D01*
X104294232Y-78116633D01*
X104293542Y-78110072D01*
X104234527Y-77928444D01*
X104228992Y-77918856D01*
X104142341Y-77768774D01*
X104139040Y-77763056D01*
X104126886Y-77749557D01*
X104015675Y-77626045D01*
X104015674Y-77626044D01*
X104011253Y-77621134D01*
X103856752Y-77508882D01*
X103850724Y-77506198D01*
X103850722Y-77506197D01*
X103688319Y-77433891D01*
X103688318Y-77433891D01*
X103682288Y-77431206D01*
X103588887Y-77411353D01*
X103501944Y-77392872D01*
X103501939Y-77392872D01*
X103495487Y-77391500D01*
X103304513Y-77391500D01*
X103298061Y-77392872D01*
X103298056Y-77392872D01*
X103211113Y-77411353D01*
X103117712Y-77431206D01*
X103111682Y-77433891D01*
X103111681Y-77433891D01*
X102949278Y-77506197D01*
X102949276Y-77506198D01*
X102943248Y-77508882D01*
X102788747Y-77621134D01*
X102784326Y-77626044D01*
X102784325Y-77626045D01*
X102673115Y-77749557D01*
X102660960Y-77763056D01*
X102657659Y-77768774D01*
X102571009Y-77918856D01*
X102565473Y-77928444D01*
X102506458Y-78110072D01*
X102505768Y-78116633D01*
X102505768Y-78116635D01*
X102487186Y-78293435D01*
X102486496Y-78300000D01*
X99100315Y-78300000D01*
X99100334Y-76200000D01*
X101086496Y-76200000D01*
X101106458Y-76389928D01*
X101165473Y-76571556D01*
X101168776Y-76577278D01*
X101168777Y-76577279D01*
X101173302Y-76585116D01*
X101260960Y-76736944D01*
X101388747Y-76878866D01*
X101487765Y-76950807D01*
X101508762Y-76966062D01*
X101543248Y-76991118D01*
X101549276Y-76993802D01*
X101549278Y-76993803D01*
X101673137Y-77048948D01*
X101717712Y-77068794D01*
X101811113Y-77088647D01*
X101898056Y-77107128D01*
X101898061Y-77107128D01*
X101904513Y-77108500D01*
X102095487Y-77108500D01*
X102101939Y-77107128D01*
X102101944Y-77107128D01*
X102188887Y-77088647D01*
X102282288Y-77068794D01*
X102326863Y-77048948D01*
X102450722Y-76993803D01*
X102450724Y-76993802D01*
X102456752Y-76991118D01*
X102491239Y-76966062D01*
X102512235Y-76950807D01*
X102611253Y-76878866D01*
X102739040Y-76736944D01*
X102826698Y-76585116D01*
X102831223Y-76577279D01*
X102831224Y-76577278D01*
X102834527Y-76571556D01*
X102893542Y-76389928D01*
X102913504Y-76200000D01*
X125886496Y-76200000D01*
X125906458Y-76389928D01*
X125965473Y-76571556D01*
X125968776Y-76577278D01*
X125968777Y-76577279D01*
X125973302Y-76585116D01*
X126060960Y-76736944D01*
X126188747Y-76878866D01*
X126287765Y-76950807D01*
X126308762Y-76966062D01*
X126343248Y-76991118D01*
X126349276Y-76993802D01*
X126349278Y-76993803D01*
X126473137Y-77048948D01*
X126517712Y-77068794D01*
X126611113Y-77088647D01*
X126698056Y-77107128D01*
X126698061Y-77107128D01*
X126704513Y-77108500D01*
X126895487Y-77108500D01*
X126901939Y-77107128D01*
X126901944Y-77107128D01*
X126988887Y-77088647D01*
X127082288Y-77068794D01*
X127126863Y-77048948D01*
X127250722Y-76993803D01*
X127250724Y-76993802D01*
X127256752Y-76991118D01*
X127291239Y-76966062D01*
X127312235Y-76950807D01*
X127411253Y-76878866D01*
X127539040Y-76736944D01*
X127626698Y-76585116D01*
X127631223Y-76577279D01*
X127631224Y-76577278D01*
X127634527Y-76571556D01*
X127693542Y-76389928D01*
X127713504Y-76200000D01*
X150686496Y-76200000D01*
X150706458Y-76389928D01*
X150765473Y-76571556D01*
X150768776Y-76577278D01*
X150768777Y-76577279D01*
X150773302Y-76585116D01*
X150860960Y-76736944D01*
X150988747Y-76878866D01*
X151087765Y-76950807D01*
X151108762Y-76966062D01*
X151143248Y-76991118D01*
X151149276Y-76993802D01*
X151149278Y-76993803D01*
X151273137Y-77048948D01*
X151317712Y-77068794D01*
X151411113Y-77088647D01*
X151498056Y-77107128D01*
X151498061Y-77107128D01*
X151504513Y-77108500D01*
X151695487Y-77108500D01*
X151701939Y-77107128D01*
X151701944Y-77107128D01*
X151788887Y-77088647D01*
X151882288Y-77068794D01*
X151926863Y-77048948D01*
X152050722Y-76993803D01*
X152050724Y-76993802D01*
X152056752Y-76991118D01*
X152091239Y-76966062D01*
X152112235Y-76950807D01*
X152211253Y-76878866D01*
X152339040Y-76736944D01*
X152426698Y-76585116D01*
X152431223Y-76577279D01*
X152431224Y-76577278D01*
X152434527Y-76571556D01*
X152493542Y-76389928D01*
X152513504Y-76200000D01*
X175586496Y-76200000D01*
X175606458Y-76389928D01*
X175665473Y-76571556D01*
X175668776Y-76577278D01*
X175668777Y-76577279D01*
X175673302Y-76585116D01*
X175760960Y-76736944D01*
X175888747Y-76878866D01*
X175987765Y-76950807D01*
X176008762Y-76966062D01*
X176043248Y-76991118D01*
X176049276Y-76993802D01*
X176049278Y-76993803D01*
X176173137Y-77048948D01*
X176217712Y-77068794D01*
X176311113Y-77088647D01*
X176398056Y-77107128D01*
X176398061Y-77107128D01*
X176404513Y-77108500D01*
X176595487Y-77108500D01*
X176601939Y-77107128D01*
X176601944Y-77107128D01*
X176688887Y-77088647D01*
X176782288Y-77068794D01*
X176826863Y-77048948D01*
X176950722Y-76993803D01*
X176950724Y-76993802D01*
X176956752Y-76991118D01*
X176991239Y-76966062D01*
X177012235Y-76950807D01*
X177111253Y-76878866D01*
X177239040Y-76736944D01*
X177326698Y-76585116D01*
X177331223Y-76577279D01*
X177331224Y-76577278D01*
X177334527Y-76571556D01*
X177393542Y-76389928D01*
X177413504Y-76200000D01*
X177393542Y-76010072D01*
X177334527Y-75828444D01*
X177327406Y-75816109D01*
X177284109Y-75741118D01*
X177239040Y-75663056D01*
X177211752Y-75632749D01*
X177115675Y-75526045D01*
X177115674Y-75526044D01*
X177111253Y-75521134D01*
X176999641Y-75440043D01*
X176962094Y-75412763D01*
X176962093Y-75412762D01*
X176956752Y-75408882D01*
X176950724Y-75406198D01*
X176950722Y-75406197D01*
X176788319Y-75333891D01*
X176788318Y-75333891D01*
X176782288Y-75331206D01*
X176688887Y-75311353D01*
X176601944Y-75292872D01*
X176601939Y-75292872D01*
X176595487Y-75291500D01*
X176404513Y-75291500D01*
X176398061Y-75292872D01*
X176398056Y-75292872D01*
X176311113Y-75311353D01*
X176217712Y-75331206D01*
X176211682Y-75333891D01*
X176211681Y-75333891D01*
X176049278Y-75406197D01*
X176049276Y-75406198D01*
X176043248Y-75408882D01*
X176037907Y-75412762D01*
X176037906Y-75412763D01*
X176000359Y-75440043D01*
X175888747Y-75521134D01*
X175884326Y-75526044D01*
X175884325Y-75526045D01*
X175788249Y-75632749D01*
X175760960Y-75663056D01*
X175715891Y-75741118D01*
X175672595Y-75816109D01*
X175665473Y-75828444D01*
X175606458Y-76010072D01*
X175586496Y-76200000D01*
X152513504Y-76200000D01*
X152493542Y-76010072D01*
X152434527Y-75828444D01*
X152427406Y-75816109D01*
X152384109Y-75741118D01*
X152339040Y-75663056D01*
X152311752Y-75632749D01*
X152215675Y-75526045D01*
X152215674Y-75526044D01*
X152211253Y-75521134D01*
X152099641Y-75440043D01*
X152062094Y-75412763D01*
X152062093Y-75412762D01*
X152056752Y-75408882D01*
X152050724Y-75406198D01*
X152050722Y-75406197D01*
X151888319Y-75333891D01*
X151888318Y-75333891D01*
X151882288Y-75331206D01*
X151788887Y-75311353D01*
X151701944Y-75292872D01*
X151701939Y-75292872D01*
X151695487Y-75291500D01*
X151504513Y-75291500D01*
X151498061Y-75292872D01*
X151498056Y-75292872D01*
X151411113Y-75311353D01*
X151317712Y-75331206D01*
X151311682Y-75333891D01*
X151311681Y-75333891D01*
X151149278Y-75406197D01*
X151149276Y-75406198D01*
X151143248Y-75408882D01*
X151137907Y-75412762D01*
X151137906Y-75412763D01*
X151100359Y-75440043D01*
X150988747Y-75521134D01*
X150984326Y-75526044D01*
X150984325Y-75526045D01*
X150888249Y-75632749D01*
X150860960Y-75663056D01*
X150815891Y-75741118D01*
X150772595Y-75816109D01*
X150765473Y-75828444D01*
X150706458Y-76010072D01*
X150686496Y-76200000D01*
X127713504Y-76200000D01*
X127693542Y-76010072D01*
X127634527Y-75828444D01*
X127627406Y-75816109D01*
X127584109Y-75741118D01*
X127539040Y-75663056D01*
X127511752Y-75632749D01*
X127415675Y-75526045D01*
X127415674Y-75526044D01*
X127411253Y-75521134D01*
X127299641Y-75440043D01*
X127262094Y-75412763D01*
X127262093Y-75412762D01*
X127256752Y-75408882D01*
X127250724Y-75406198D01*
X127250722Y-75406197D01*
X127088319Y-75333891D01*
X127088318Y-75333891D01*
X127082288Y-75331206D01*
X126988887Y-75311353D01*
X126901944Y-75292872D01*
X126901939Y-75292872D01*
X126895487Y-75291500D01*
X126704513Y-75291500D01*
X126698061Y-75292872D01*
X126698056Y-75292872D01*
X126611113Y-75311353D01*
X126517712Y-75331206D01*
X126511682Y-75333891D01*
X126511681Y-75333891D01*
X126349278Y-75406197D01*
X126349276Y-75406198D01*
X126343248Y-75408882D01*
X126337907Y-75412762D01*
X126337906Y-75412763D01*
X126300359Y-75440043D01*
X126188747Y-75521134D01*
X126184326Y-75526044D01*
X126184325Y-75526045D01*
X126088249Y-75632749D01*
X126060960Y-75663056D01*
X126015891Y-75741118D01*
X125972595Y-75816109D01*
X125965473Y-75828444D01*
X125906458Y-76010072D01*
X125886496Y-76200000D01*
X102913504Y-76200000D01*
X102893542Y-76010072D01*
X102834527Y-75828444D01*
X102827406Y-75816109D01*
X102784109Y-75741118D01*
X102739040Y-75663056D01*
X102711752Y-75632749D01*
X102615675Y-75526045D01*
X102615674Y-75526044D01*
X102611253Y-75521134D01*
X102499641Y-75440043D01*
X102462094Y-75412763D01*
X102462093Y-75412762D01*
X102456752Y-75408882D01*
X102450724Y-75406198D01*
X102450722Y-75406197D01*
X102288319Y-75333891D01*
X102288318Y-75333891D01*
X102282288Y-75331206D01*
X102188887Y-75311353D01*
X102101944Y-75292872D01*
X102101939Y-75292872D01*
X102095487Y-75291500D01*
X101904513Y-75291500D01*
X101898061Y-75292872D01*
X101898056Y-75292872D01*
X101811113Y-75311353D01*
X101717712Y-75331206D01*
X101711682Y-75333891D01*
X101711681Y-75333891D01*
X101549278Y-75406197D01*
X101549276Y-75406198D01*
X101543248Y-75408882D01*
X101537907Y-75412762D01*
X101537906Y-75412763D01*
X101500359Y-75440043D01*
X101388747Y-75521134D01*
X101384326Y-75526044D01*
X101384325Y-75526045D01*
X101288249Y-75632749D01*
X101260960Y-75663056D01*
X101215891Y-75741118D01*
X101172595Y-75816109D01*
X101165473Y-75828444D01*
X101106458Y-76010072D01*
X101086496Y-76200000D01*
X99100334Y-76200000D01*
X99100351Y-74328753D01*
X99120354Y-74260632D01*
X99174010Y-74214140D01*
X99226262Y-74202754D01*
X103676270Y-74199609D01*
X103744404Y-74219563D01*
X103750391Y-74223653D01*
X103843248Y-74291118D01*
X103849276Y-74293802D01*
X103849278Y-74293803D01*
X103991577Y-74357158D01*
X104017712Y-74368794D01*
X104111113Y-74388647D01*
X104198056Y-74407128D01*
X104198061Y-74407128D01*
X104204513Y-74408500D01*
X104395487Y-74408500D01*
X104401939Y-74407128D01*
X104401944Y-74407128D01*
X104488887Y-74388647D01*
X104582288Y-74368794D01*
X104608423Y-74357158D01*
X104750722Y-74293803D01*
X104750724Y-74293802D01*
X104756752Y-74291118D01*
X104762094Y-74287237D01*
X104850796Y-74222791D01*
X104924768Y-74198727D01*
X105256286Y-74198493D01*
X105324421Y-74218447D01*
X105365494Y-74261493D01*
X105428923Y-74371355D01*
X105556710Y-74513277D01*
X105711211Y-74625529D01*
X105717239Y-74628213D01*
X105717241Y-74628214D01*
X105879644Y-74700520D01*
X105885675Y-74703205D01*
X105967347Y-74720565D01*
X106066019Y-74741539D01*
X106066024Y-74741539D01*
X106072476Y-74742911D01*
X106263450Y-74742911D01*
X106269902Y-74741539D01*
X106269907Y-74741539D01*
X106368579Y-74720565D01*
X106450251Y-74703205D01*
X106456282Y-74700520D01*
X106618685Y-74628214D01*
X106618687Y-74628213D01*
X106624715Y-74625529D01*
X106779216Y-74513277D01*
X106907003Y-74371355D01*
X106921353Y-74346500D01*
X106972735Y-74297507D01*
X107030472Y-74283500D01*
X108817521Y-74283500D01*
X108885642Y-74303502D01*
X108932135Y-74357158D01*
X108942239Y-74427432D01*
X108926640Y-74472500D01*
X108865473Y-74578444D01*
X108806458Y-74760072D01*
X108805768Y-74766633D01*
X108805768Y-74766635D01*
X108797863Y-74841852D01*
X108786496Y-74950000D01*
X108806458Y-75139928D01*
X108865473Y-75321556D01*
X108868776Y-75327278D01*
X108868777Y-75327279D01*
X108902686Y-75386010D01*
X108960960Y-75486944D01*
X108965378Y-75491851D01*
X108965379Y-75491852D01*
X109020341Y-75552893D01*
X109088747Y-75628866D01*
X109243248Y-75741118D01*
X109249276Y-75743802D01*
X109249278Y-75743803D01*
X109411681Y-75816109D01*
X109417712Y-75818794D01*
X109492680Y-75834729D01*
X109598056Y-75857128D01*
X109598061Y-75857128D01*
X109604513Y-75858500D01*
X109795487Y-75858500D01*
X109801939Y-75857128D01*
X109801944Y-75857128D01*
X109907320Y-75834729D01*
X109982288Y-75818794D01*
X109988319Y-75816109D01*
X110150722Y-75743803D01*
X110150724Y-75743802D01*
X110156752Y-75741118D01*
X110311253Y-75628866D01*
X110379659Y-75552893D01*
X110434621Y-75491852D01*
X110434622Y-75491851D01*
X110439040Y-75486944D01*
X110497314Y-75386010D01*
X110531223Y-75327279D01*
X110531224Y-75327278D01*
X110534527Y-75321556D01*
X110555167Y-75258033D01*
X110595241Y-75199427D01*
X110660637Y-75171790D01*
X110730594Y-75183897D01*
X110782900Y-75231903D01*
X110794833Y-75258033D01*
X110815473Y-75321556D01*
X110818776Y-75327278D01*
X110818777Y-75327279D01*
X110852686Y-75386010D01*
X110910960Y-75486944D01*
X110915378Y-75491851D01*
X110915379Y-75491852D01*
X110970341Y-75552893D01*
X111038747Y-75628866D01*
X111193248Y-75741118D01*
X111199276Y-75743802D01*
X111199278Y-75743803D01*
X111361681Y-75816109D01*
X111367712Y-75818794D01*
X111442680Y-75834729D01*
X111548056Y-75857128D01*
X111548061Y-75857128D01*
X111554513Y-75858500D01*
X111745487Y-75858500D01*
X111751939Y-75857128D01*
X111751944Y-75857128D01*
X111857320Y-75834729D01*
X111932288Y-75818794D01*
X111938319Y-75816109D01*
X112100722Y-75743803D01*
X112100724Y-75743802D01*
X112106752Y-75741118D01*
X112261253Y-75628866D01*
X112329659Y-75552893D01*
X112384621Y-75491852D01*
X112384622Y-75491851D01*
X112389040Y-75486944D01*
X112446215Y-75387915D01*
X112481222Y-75327281D01*
X112481223Y-75327278D01*
X112484527Y-75321556D01*
X112484760Y-75321691D01*
X112528535Y-75270188D01*
X112596462Y-75249537D01*
X112648911Y-75260424D01*
X112661672Y-75266105D01*
X112667712Y-75268794D01*
X112709340Y-75277642D01*
X112848056Y-75307128D01*
X112848061Y-75307128D01*
X112854513Y-75308500D01*
X113045487Y-75308500D01*
X113051939Y-75307128D01*
X113051944Y-75307128D01*
X113138888Y-75288647D01*
X113232288Y-75268794D01*
X113238328Y-75266105D01*
X113400722Y-75193803D01*
X113400724Y-75193802D01*
X113406752Y-75191118D01*
X113561253Y-75078866D01*
X113671373Y-74956565D01*
X113684621Y-74941852D01*
X113684622Y-74941851D01*
X113689040Y-74936944D01*
X113720601Y-74882279D01*
X113771982Y-74833287D01*
X113841696Y-74819850D01*
X113880967Y-74830173D01*
X113967712Y-74868794D01*
X114061112Y-74888647D01*
X114148056Y-74907128D01*
X114148061Y-74907128D01*
X114154513Y-74908500D01*
X114345487Y-74908500D01*
X114351939Y-74907128D01*
X114351944Y-74907128D01*
X114438888Y-74888647D01*
X114532288Y-74868794D01*
X114538319Y-74866109D01*
X114700722Y-74793803D01*
X114700724Y-74793802D01*
X114706752Y-74791118D01*
X114732144Y-74772670D01*
X114810001Y-74716103D01*
X114861253Y-74678866D01*
X114867835Y-74671556D01*
X114984621Y-74541852D01*
X114984622Y-74541851D01*
X114989040Y-74536944D01*
X115063197Y-74408500D01*
X115081223Y-74377279D01*
X115081224Y-74377278D01*
X115084527Y-74371556D01*
X115114762Y-74278504D01*
X115154834Y-74219899D01*
X115220231Y-74192262D01*
X115234503Y-74191441D01*
X128452171Y-74182100D01*
X128520305Y-74202054D01*
X128526309Y-74206156D01*
X128643248Y-74291118D01*
X128649276Y-74293802D01*
X128649278Y-74293803D01*
X128791577Y-74357158D01*
X128817712Y-74368794D01*
X128911113Y-74388647D01*
X128998056Y-74407128D01*
X128998061Y-74407128D01*
X129004513Y-74408500D01*
X129195487Y-74408500D01*
X129201939Y-74407128D01*
X129201944Y-74407128D01*
X129288887Y-74388647D01*
X129382288Y-74368794D01*
X129408423Y-74357158D01*
X129550722Y-74293803D01*
X129550724Y-74293802D01*
X129556752Y-74291118D01*
X129562094Y-74287237D01*
X129674942Y-74205248D01*
X129748914Y-74181184D01*
X130046171Y-74180974D01*
X130114306Y-74200928D01*
X130155379Y-74243974D01*
X130225621Y-74365637D01*
X130225624Y-74365642D01*
X130228923Y-74371355D01*
X130356710Y-74513277D01*
X130511211Y-74625529D01*
X130517239Y-74628213D01*
X130517241Y-74628214D01*
X130679644Y-74700520D01*
X130685675Y-74703205D01*
X130767347Y-74720565D01*
X130866019Y-74741539D01*
X130866024Y-74741539D01*
X130872476Y-74742911D01*
X131063450Y-74742911D01*
X131069902Y-74741539D01*
X131069907Y-74741539D01*
X131168579Y-74720565D01*
X131250251Y-74703205D01*
X131256282Y-74700520D01*
X131418685Y-74628214D01*
X131418687Y-74628213D01*
X131424715Y-74625529D01*
X131579216Y-74513277D01*
X131707003Y-74371355D01*
X131721353Y-74346500D01*
X131772735Y-74297507D01*
X131830472Y-74283500D01*
X133617521Y-74283500D01*
X133685642Y-74303502D01*
X133732135Y-74357158D01*
X133742239Y-74427432D01*
X133726640Y-74472500D01*
X133665473Y-74578444D01*
X133606458Y-74760072D01*
X133605768Y-74766633D01*
X133605768Y-74766635D01*
X133597863Y-74841852D01*
X133586496Y-74950000D01*
X133606458Y-75139928D01*
X133665473Y-75321556D01*
X133668776Y-75327278D01*
X133668777Y-75327279D01*
X133702686Y-75386010D01*
X133760960Y-75486944D01*
X133765378Y-75491851D01*
X133765379Y-75491852D01*
X133820341Y-75552893D01*
X133888747Y-75628866D01*
X134043248Y-75741118D01*
X134049276Y-75743802D01*
X134049278Y-75743803D01*
X134211681Y-75816109D01*
X134217712Y-75818794D01*
X134292680Y-75834729D01*
X134398056Y-75857128D01*
X134398061Y-75857128D01*
X134404513Y-75858500D01*
X134595487Y-75858500D01*
X134601939Y-75857128D01*
X134601944Y-75857128D01*
X134707320Y-75834729D01*
X134782288Y-75818794D01*
X134788319Y-75816109D01*
X134950722Y-75743803D01*
X134950724Y-75743802D01*
X134956752Y-75741118D01*
X135111253Y-75628866D01*
X135179659Y-75552893D01*
X135234621Y-75491852D01*
X135234622Y-75491851D01*
X135239040Y-75486944D01*
X135297314Y-75386010D01*
X135331223Y-75327279D01*
X135331224Y-75327278D01*
X135334527Y-75321556D01*
X135355167Y-75258033D01*
X135395241Y-75199427D01*
X135460637Y-75171790D01*
X135530594Y-75183897D01*
X135582900Y-75231903D01*
X135594833Y-75258033D01*
X135615473Y-75321556D01*
X135618776Y-75327278D01*
X135618777Y-75327279D01*
X135652686Y-75386010D01*
X135710960Y-75486944D01*
X135715378Y-75491851D01*
X135715379Y-75491852D01*
X135770341Y-75552893D01*
X135838747Y-75628866D01*
X135993248Y-75741118D01*
X135999276Y-75743802D01*
X135999278Y-75743803D01*
X136161681Y-75816109D01*
X136167712Y-75818794D01*
X136242680Y-75834729D01*
X136348056Y-75857128D01*
X136348061Y-75857128D01*
X136354513Y-75858500D01*
X136545487Y-75858500D01*
X136551939Y-75857128D01*
X136551944Y-75857128D01*
X136657320Y-75834729D01*
X136732288Y-75818794D01*
X136738319Y-75816109D01*
X136900722Y-75743803D01*
X136900724Y-75743802D01*
X136906752Y-75741118D01*
X137061253Y-75628866D01*
X137129659Y-75552893D01*
X137184621Y-75491852D01*
X137184622Y-75491851D01*
X137189040Y-75486944D01*
X137246215Y-75387915D01*
X137281222Y-75327281D01*
X137281223Y-75327278D01*
X137284527Y-75321556D01*
X137284760Y-75321691D01*
X137328535Y-75270188D01*
X137396462Y-75249537D01*
X137448911Y-75260424D01*
X137461672Y-75266105D01*
X137467712Y-75268794D01*
X137509340Y-75277642D01*
X137648056Y-75307128D01*
X137648061Y-75307128D01*
X137654513Y-75308500D01*
X137845487Y-75308500D01*
X137851939Y-75307128D01*
X137851944Y-75307128D01*
X137938888Y-75288647D01*
X138032288Y-75268794D01*
X138038328Y-75266105D01*
X138200722Y-75193803D01*
X138200724Y-75193802D01*
X138206752Y-75191118D01*
X138361253Y-75078866D01*
X138471373Y-74956565D01*
X138484621Y-74941852D01*
X138484622Y-74941851D01*
X138489040Y-74936944D01*
X138520601Y-74882279D01*
X138571982Y-74833287D01*
X138641696Y-74819850D01*
X138680967Y-74830173D01*
X138767712Y-74868794D01*
X138861112Y-74888647D01*
X138948056Y-74907128D01*
X138948061Y-74907128D01*
X138954513Y-74908500D01*
X139145487Y-74908500D01*
X139151939Y-74907128D01*
X139151944Y-74907128D01*
X139238888Y-74888647D01*
X139332288Y-74868794D01*
X139338319Y-74866109D01*
X139500722Y-74793803D01*
X139500724Y-74793802D01*
X139506752Y-74791118D01*
X139532144Y-74772670D01*
X139610001Y-74716103D01*
X139661253Y-74678866D01*
X139667835Y-74671556D01*
X139784621Y-74541852D01*
X139784622Y-74541851D01*
X139789040Y-74536944D01*
X139863197Y-74408500D01*
X139881223Y-74377279D01*
X139881224Y-74377278D01*
X139884527Y-74371556D01*
X139920457Y-74260974D01*
X139960530Y-74202369D01*
X140025927Y-74174732D01*
X140040199Y-74173911D01*
X142143435Y-74172425D01*
X153228071Y-74164592D01*
X153296206Y-74184546D01*
X153302221Y-74188656D01*
X153437906Y-74287237D01*
X153443248Y-74291118D01*
X153449276Y-74293802D01*
X153449278Y-74293803D01*
X153591577Y-74357158D01*
X153617712Y-74368794D01*
X153711113Y-74388647D01*
X153798056Y-74407128D01*
X153798061Y-74407128D01*
X153804513Y-74408500D01*
X153995487Y-74408500D01*
X154001939Y-74407128D01*
X154001944Y-74407128D01*
X154088887Y-74388647D01*
X154182288Y-74368794D01*
X154208423Y-74357158D01*
X154350722Y-74293803D01*
X154350724Y-74293802D01*
X154356752Y-74291118D01*
X154499087Y-74187705D01*
X154573059Y-74163641D01*
X154828301Y-74163460D01*
X154836057Y-74163455D01*
X154904192Y-74183409D01*
X154945264Y-74226454D01*
X155028923Y-74371355D01*
X155156710Y-74513277D01*
X155311211Y-74625529D01*
X155317239Y-74628213D01*
X155317241Y-74628214D01*
X155479644Y-74700520D01*
X155485675Y-74703205D01*
X155567347Y-74720565D01*
X155666019Y-74741539D01*
X155666024Y-74741539D01*
X155672476Y-74742911D01*
X155863450Y-74742911D01*
X155869902Y-74741539D01*
X155869907Y-74741539D01*
X155968579Y-74720565D01*
X156050251Y-74703205D01*
X156056282Y-74700520D01*
X156218685Y-74628214D01*
X156218687Y-74628213D01*
X156224715Y-74625529D01*
X156379216Y-74513277D01*
X156507003Y-74371355D01*
X156521353Y-74346500D01*
X156572735Y-74297507D01*
X156630472Y-74283500D01*
X158417521Y-74283500D01*
X158485642Y-74303502D01*
X158532135Y-74357158D01*
X158542239Y-74427432D01*
X158526640Y-74472500D01*
X158465473Y-74578444D01*
X158406458Y-74760072D01*
X158405768Y-74766633D01*
X158405768Y-74766635D01*
X158397863Y-74841852D01*
X158386496Y-74950000D01*
X158406458Y-75139928D01*
X158465473Y-75321556D01*
X158468776Y-75327278D01*
X158468777Y-75327279D01*
X158502686Y-75386010D01*
X158560960Y-75486944D01*
X158565378Y-75491851D01*
X158565379Y-75491852D01*
X158620341Y-75552893D01*
X158688747Y-75628866D01*
X158843248Y-75741118D01*
X158849276Y-75743802D01*
X158849278Y-75743803D01*
X159011681Y-75816109D01*
X159017712Y-75818794D01*
X159092680Y-75834729D01*
X159198056Y-75857128D01*
X159198061Y-75857128D01*
X159204513Y-75858500D01*
X159395487Y-75858500D01*
X159401939Y-75857128D01*
X159401944Y-75857128D01*
X159507320Y-75834729D01*
X159582288Y-75818794D01*
X159588319Y-75816109D01*
X159750722Y-75743803D01*
X159750724Y-75743802D01*
X159756752Y-75741118D01*
X159911253Y-75628866D01*
X159979659Y-75552893D01*
X160034621Y-75491852D01*
X160034622Y-75491851D01*
X160039040Y-75486944D01*
X160097314Y-75386010D01*
X160131223Y-75327279D01*
X160131224Y-75327278D01*
X160134527Y-75321556D01*
X160155167Y-75258033D01*
X160195241Y-75199427D01*
X160260637Y-75171790D01*
X160330594Y-75183897D01*
X160382900Y-75231903D01*
X160394833Y-75258033D01*
X160415473Y-75321556D01*
X160418776Y-75327278D01*
X160418777Y-75327279D01*
X160452686Y-75386010D01*
X160510960Y-75486944D01*
X160515378Y-75491851D01*
X160515379Y-75491852D01*
X160570341Y-75552893D01*
X160638747Y-75628866D01*
X160793248Y-75741118D01*
X160799276Y-75743802D01*
X160799278Y-75743803D01*
X160961681Y-75816109D01*
X160967712Y-75818794D01*
X161042680Y-75834729D01*
X161148056Y-75857128D01*
X161148061Y-75857128D01*
X161154513Y-75858500D01*
X161345487Y-75858500D01*
X161351939Y-75857128D01*
X161351944Y-75857128D01*
X161457320Y-75834729D01*
X161532288Y-75818794D01*
X161538319Y-75816109D01*
X161700722Y-75743803D01*
X161700724Y-75743802D01*
X161706752Y-75741118D01*
X161861253Y-75628866D01*
X161929659Y-75552893D01*
X161984621Y-75491852D01*
X161984622Y-75491851D01*
X161989040Y-75486944D01*
X162046215Y-75387915D01*
X162081222Y-75327281D01*
X162081223Y-75327278D01*
X162084527Y-75321556D01*
X162084760Y-75321691D01*
X162128535Y-75270188D01*
X162196462Y-75249537D01*
X162248911Y-75260424D01*
X162261672Y-75266105D01*
X162267712Y-75268794D01*
X162309340Y-75277642D01*
X162448056Y-75307128D01*
X162448061Y-75307128D01*
X162454513Y-75308500D01*
X162645487Y-75308500D01*
X162651939Y-75307128D01*
X162651944Y-75307128D01*
X162738888Y-75288647D01*
X162832288Y-75268794D01*
X162838328Y-75266105D01*
X163000722Y-75193803D01*
X163000724Y-75193802D01*
X163006752Y-75191118D01*
X163161253Y-75078866D01*
X163271373Y-74956565D01*
X163284621Y-74941852D01*
X163284622Y-74941851D01*
X163289040Y-74936944D01*
X163320601Y-74882279D01*
X163371982Y-74833287D01*
X163441696Y-74819850D01*
X163480967Y-74830173D01*
X163567712Y-74868794D01*
X163661112Y-74888647D01*
X163748056Y-74907128D01*
X163748061Y-74907128D01*
X163754513Y-74908500D01*
X163945487Y-74908500D01*
X163951939Y-74907128D01*
X163951944Y-74907128D01*
X164038888Y-74888647D01*
X164132288Y-74868794D01*
X164138319Y-74866109D01*
X164300722Y-74793803D01*
X164300724Y-74793802D01*
X164306752Y-74791118D01*
X164332144Y-74772670D01*
X164410001Y-74716103D01*
X164461253Y-74678866D01*
X164467835Y-74671556D01*
X164584621Y-74541852D01*
X164584622Y-74541851D01*
X164589040Y-74536944D01*
X164663197Y-74408500D01*
X164681223Y-74377279D01*
X164681224Y-74377278D01*
X164684527Y-74371556D01*
X164726153Y-74243445D01*
X164766227Y-74184839D01*
X164831623Y-74157202D01*
X164845895Y-74156381D01*
X173442776Y-74150306D01*
X178100881Y-74147014D01*
X178169016Y-74166968D01*
X178215547Y-74220591D01*
X178220803Y-74234077D01*
X178265473Y-74371556D01*
X178268776Y-74377278D01*
X178268777Y-74377279D01*
X178286803Y-74408500D01*
X178360960Y-74536944D01*
X178365378Y-74541851D01*
X178365379Y-74541852D01*
X178482165Y-74671556D01*
X178488747Y-74678866D01*
X178539999Y-74716103D01*
X178617857Y-74772670D01*
X178643248Y-74791118D01*
X178649276Y-74793802D01*
X178649278Y-74793803D01*
X178811681Y-74866109D01*
X178817712Y-74868794D01*
X178911112Y-74888647D01*
X178998056Y-74907128D01*
X178998061Y-74907128D01*
X179004513Y-74908500D01*
X179195487Y-74908500D01*
X179201939Y-74907128D01*
X179201944Y-74907128D01*
X179288888Y-74888647D01*
X179382288Y-74868794D01*
X179469033Y-74830173D01*
X179539399Y-74820739D01*
X179603696Y-74850845D01*
X179629399Y-74882278D01*
X179660960Y-74936944D01*
X179665378Y-74941851D01*
X179665379Y-74941852D01*
X179678627Y-74956565D01*
X179788747Y-75078866D01*
X179943248Y-75191118D01*
X179949276Y-75193802D01*
X179949278Y-75193803D01*
X180111672Y-75266105D01*
X180117712Y-75268794D01*
X180211112Y-75288647D01*
X180298056Y-75307128D01*
X180298061Y-75307128D01*
X180304513Y-75308500D01*
X180495487Y-75308500D01*
X180501939Y-75307128D01*
X180501944Y-75307128D01*
X180588888Y-75288647D01*
X180682288Y-75268794D01*
X180688328Y-75266105D01*
X180850722Y-75193803D01*
X180850724Y-75193802D01*
X180856752Y-75191118D01*
X181011253Y-75078866D01*
X181121373Y-74956565D01*
X181134621Y-74941852D01*
X181134622Y-74941851D01*
X181139040Y-74936944D01*
X181234527Y-74771556D01*
X181238259Y-74760072D01*
X181251095Y-74720565D01*
X181291168Y-74661959D01*
X181356564Y-74634321D01*
X181370928Y-74633500D01*
X183179824Y-74633500D01*
X183247945Y-74653502D01*
X183294438Y-74707158D01*
X183305134Y-74772670D01*
X183286496Y-74950000D01*
X183306458Y-75139928D01*
X183365473Y-75321556D01*
X183368776Y-75327278D01*
X183368777Y-75327279D01*
X183402686Y-75386010D01*
X183460960Y-75486944D01*
X183465378Y-75491851D01*
X183465379Y-75491852D01*
X183520341Y-75552893D01*
X183588747Y-75628866D01*
X183743248Y-75741118D01*
X183749276Y-75743802D01*
X183749278Y-75743803D01*
X183911681Y-75816109D01*
X183917712Y-75818794D01*
X183992680Y-75834729D01*
X184098056Y-75857128D01*
X184098061Y-75857128D01*
X184104513Y-75858500D01*
X184295487Y-75858500D01*
X184301939Y-75857128D01*
X184301944Y-75857128D01*
X184407320Y-75834729D01*
X184482288Y-75818794D01*
X184488319Y-75816109D01*
X184650722Y-75743803D01*
X184650724Y-75743802D01*
X184656752Y-75741118D01*
X184811253Y-75628866D01*
X184879659Y-75552893D01*
X184934621Y-75491852D01*
X184934622Y-75491851D01*
X184939040Y-75486944D01*
X184997314Y-75386010D01*
X185031223Y-75327279D01*
X185031224Y-75327278D01*
X185034527Y-75321556D01*
X185055167Y-75258033D01*
X185095241Y-75199427D01*
X185160637Y-75171790D01*
X185230594Y-75183897D01*
X185282900Y-75231903D01*
X185294833Y-75258033D01*
X185315473Y-75321556D01*
X185318776Y-75327278D01*
X185318777Y-75327279D01*
X185352686Y-75386010D01*
X185410960Y-75486944D01*
X185415378Y-75491851D01*
X185415379Y-75491852D01*
X185470341Y-75552893D01*
X185538747Y-75628866D01*
X185693248Y-75741118D01*
X185699276Y-75743802D01*
X185699278Y-75743803D01*
X185861681Y-75816109D01*
X185867712Y-75818794D01*
X185942680Y-75834729D01*
X186048056Y-75857128D01*
X186048061Y-75857128D01*
X186054513Y-75858500D01*
X186245487Y-75858500D01*
X186251939Y-75857128D01*
X186251944Y-75857128D01*
X186357320Y-75834729D01*
X186432288Y-75818794D01*
X186438319Y-75816109D01*
X186600722Y-75743803D01*
X186600724Y-75743802D01*
X186606752Y-75741118D01*
X186761253Y-75628866D01*
X186887707Y-75488424D01*
X186887710Y-75488422D01*
X186889040Y-75486944D01*
X186889310Y-75487187D01*
X186942580Y-75446115D01*
X187013316Y-75440043D01*
X187039536Y-75448425D01*
X187188076Y-75514559D01*
X187281477Y-75534412D01*
X187368420Y-75552893D01*
X187368425Y-75552893D01*
X187374877Y-75554265D01*
X187565851Y-75554265D01*
X187572303Y-75552893D01*
X187572308Y-75552893D01*
X187659251Y-75534412D01*
X187752652Y-75514559D01*
X187803660Y-75491849D01*
X187921086Y-75439568D01*
X187921088Y-75439567D01*
X187927116Y-75436883D01*
X187969352Y-75406197D01*
X187994514Y-75387915D01*
X188081617Y-75324631D01*
X188090045Y-75315271D01*
X188204985Y-75187617D01*
X188204986Y-75187616D01*
X188209404Y-75182709D01*
X188222115Y-75160693D01*
X188273498Y-75111700D01*
X188343211Y-75098264D01*
X188382480Y-75108585D01*
X188517712Y-75168794D01*
X188583177Y-75182709D01*
X188698056Y-75207128D01*
X188698061Y-75207128D01*
X188704513Y-75208500D01*
X188895487Y-75208500D01*
X188901939Y-75207128D01*
X188901944Y-75207128D01*
X189016823Y-75182709D01*
X189082288Y-75168794D01*
X189088319Y-75166109D01*
X189250722Y-75093803D01*
X189250724Y-75093802D01*
X189256752Y-75091118D01*
X189273616Y-75078866D01*
X189313790Y-75049677D01*
X189411253Y-74978866D01*
X189512780Y-74866109D01*
X189534621Y-74841852D01*
X189534622Y-74841851D01*
X189539040Y-74836944D01*
X189615462Y-74704577D01*
X189631223Y-74677279D01*
X189631224Y-74677278D01*
X189634527Y-74671556D01*
X189693542Y-74489928D01*
X189701622Y-74413056D01*
X189712814Y-74306565D01*
X189713504Y-74300000D01*
X189711180Y-74277891D01*
X189723952Y-74208053D01*
X189772453Y-74156206D01*
X189836399Y-74138721D01*
X196807008Y-74133794D01*
X196875141Y-74153748D01*
G37*
%TD.AperFunction*%
%TD*%
M02*
