%TF.GenerationSoftware,KiCad,Pcbnew,(6.0.6)*%
%TF.CreationDate,2022-09-05T13:34:07-05:00*%
%TF.ProjectId,rp2040-board,72703230-3430-42d6-926f-6172642e6b69,rev?*%
%TF.SameCoordinates,Original*%
%TF.FileFunction,Paste,Top*%
%TF.FilePolarity,Positive*%
%FSLAX46Y46*%
G04 Gerber Fmt 4.6, Leading zero omitted, Abs format (unit mm)*
G04 Created by KiCad (PCBNEW (6.0.6)) date 2022-09-05 13:34:07*
%MOMM*%
%LPD*%
G01*
G04 APERTURE LIST*
G04 Aperture macros list*
%AMRoundRect*
0 Rectangle with rounded corners*
0 $1 Rounding radius*
0 $2 $3 $4 $5 $6 $7 $8 $9 X,Y pos of 4 corners*
0 Add a 4 corners polygon primitive as box body*
4,1,4,$2,$3,$4,$5,$6,$7,$8,$9,$2,$3,0*
0 Add four circle primitives for the rounded corners*
1,1,$1+$1,$2,$3*
1,1,$1+$1,$4,$5*
1,1,$1+$1,$6,$7*
1,1,$1+$1,$8,$9*
0 Add four rect primitives between the rounded corners*
20,1,$1+$1,$2,$3,$4,$5,0*
20,1,$1+$1,$4,$5,$6,$7,0*
20,1,$1+$1,$6,$7,$8,$9,0*
20,1,$1+$1,$8,$9,$2,$3,0*%
G04 Aperture macros list end*
%TA.AperFunction,Profile*%
%ADD10C,0.025400*%
%TD*%
%ADD11C,0.010000*%
%ADD12RoundRect,0.093000X0.562000X-0.372000X0.562000X0.372000X-0.562000X0.372000X-0.562000X-0.372000X0*%
%ADD13RoundRect,0.131000X0.524000X-1.489000X0.524000X1.489000X-0.524000X1.489000X-0.524000X-1.489000X0*%
%ADD14RoundRect,0.250000X0.350000X0.450000X-0.350000X0.450000X-0.350000X-0.450000X0.350000X-0.450000X0*%
%ADD15O,1.803400X0.990600*%
%ADD16O,2.108200X0.990600*%
%ADD17R,1.143000X0.584200*%
%ADD18R,1.143000X0.304800*%
%ADD19RoundRect,0.250000X1.450000X-0.400000X1.450000X0.400000X-1.450000X0.400000X-1.450000X-0.400000X0*%
%ADD20RoundRect,0.042000X-0.943000X-0.258000X0.943000X-0.258000X0.943000X0.258000X-0.943000X0.258000X0*%
%ADD21RoundRect,0.250000X-0.337500X-0.475000X0.337500X-0.475000X0.337500X0.475000X-0.337500X0.475000X0*%
%ADD22RoundRect,0.250000X-0.475000X0.337500X-0.475000X-0.337500X0.475000X-0.337500X0.475000X0.337500X0*%
%ADD23RoundRect,0.250000X-0.350000X-0.450000X0.350000X-0.450000X0.350000X0.450000X-0.350000X0.450000X0*%
%ADD24RoundRect,0.250000X0.475000X-0.337500X0.475000X0.337500X-0.475000X0.337500X-0.475000X-0.337500X0*%
%ADD25R,0.500000X0.800000*%
%ADD26R,0.400000X0.800000*%
%ADD27RoundRect,0.006000X-0.769000X-0.294000X0.769000X-0.294000X0.769000X0.294000X-0.769000X0.294000X0*%
%ADD28RoundRect,0.250000X0.450000X-0.350000X0.450000X0.350000X-0.450000X0.350000X-0.450000X-0.350000X0*%
%ADD29RoundRect,0.250000X-0.450000X0.350000X-0.450000X-0.350000X0.450000X-0.350000X0.450000X0.350000X0*%
%ADD30R,0.800000X1.900000*%
%ADD31R,1.000000X1.400000*%
%ADD32R,3.500000X1.800000*%
%ADD33RoundRect,0.041300X-0.833700X-0.253700X0.833700X-0.253700X0.833700X0.253700X-0.833700X0.253700X0*%
%ADD34RoundRect,0.250000X0.337500X0.475000X-0.337500X0.475000X-0.337500X-0.475000X0.337500X-0.475000X0*%
%ADD35RoundRect,0.020000X0.180000X-0.760000X0.180000X0.760000X-0.180000X0.760000X-0.180000X-0.760000X0*%
%ADD36RoundRect,0.250001X-0.462499X-1.074999X0.462499X-1.074999X0.462499X1.074999X-0.462499X1.074999X0*%
%ADD37R,3.500000X2.300000*%
G04 APERTURE END LIST*
D10*
X97650000Y-63005200D02*
X97650000Y-138100000D01*
X202952600Y-63000000D02*
X97650000Y-63005200D01*
X202952600Y-138094800D02*
X202952600Y-63000000D01*
X97650000Y-138100000D02*
X202952600Y-138094800D01*
%TO.C,U2*%
G36*
X114765000Y-117150000D02*
G01*
X112055000Y-117150000D01*
X112055000Y-113750000D01*
X114765000Y-113750000D01*
X114765000Y-117150000D01*
G37*
D11*
X114765000Y-117150000D02*
X112055000Y-117150000D01*
X112055000Y-113750000D01*
X114765000Y-113750000D01*
X114765000Y-117150000D01*
%TO.C,U9*%
G36*
X162905000Y-78882500D02*
G01*
X160475000Y-78882500D01*
X160475000Y-78182500D01*
X162905000Y-78182500D01*
X162905000Y-78882500D01*
G37*
X162905000Y-78882500D02*
X160475000Y-78882500D01*
X160475000Y-78182500D01*
X162905000Y-78182500D01*
X162905000Y-78882500D01*
G36*
X160025000Y-80032500D02*
G01*
X157595000Y-80032500D01*
X157595000Y-79332500D01*
X160025000Y-79332500D01*
X160025000Y-80032500D01*
G37*
X160025000Y-80032500D02*
X157595000Y-80032500D01*
X157595000Y-79332500D01*
X160025000Y-79332500D01*
X160025000Y-80032500D01*
G36*
X162905000Y-80032500D02*
G01*
X160475000Y-80032500D01*
X160475000Y-79332500D01*
X162905000Y-79332500D01*
X162905000Y-80032500D01*
G37*
X162905000Y-80032500D02*
X160475000Y-80032500D01*
X160475000Y-79332500D01*
X162905000Y-79332500D01*
X162905000Y-80032500D01*
G36*
X160025000Y-78882500D02*
G01*
X157595000Y-78882500D01*
X157595000Y-78182500D01*
X160025000Y-78182500D01*
X160025000Y-78882500D01*
G37*
X160025000Y-78882500D02*
X157595000Y-78882500D01*
X157595000Y-78182500D01*
X160025000Y-78182500D01*
X160025000Y-78882500D01*
%TO.C,U8*%
G36*
X187830000Y-80043413D02*
G01*
X185400000Y-80043413D01*
X185400000Y-79343413D01*
X187830000Y-79343413D01*
X187830000Y-80043413D01*
G37*
X187830000Y-80043413D02*
X185400000Y-80043413D01*
X185400000Y-79343413D01*
X187830000Y-79343413D01*
X187830000Y-80043413D01*
G36*
X187830000Y-78893413D02*
G01*
X185400000Y-78893413D01*
X185400000Y-78193413D01*
X187830000Y-78193413D01*
X187830000Y-78893413D01*
G37*
X187830000Y-78893413D02*
X185400000Y-78893413D01*
X185400000Y-78193413D01*
X187830000Y-78193413D01*
X187830000Y-78893413D01*
G36*
X184950000Y-80043413D02*
G01*
X182520000Y-80043413D01*
X182520000Y-79343413D01*
X184950000Y-79343413D01*
X184950000Y-80043413D01*
G37*
X184950000Y-80043413D02*
X182520000Y-80043413D01*
X182520000Y-79343413D01*
X184950000Y-79343413D01*
X184950000Y-80043413D01*
G36*
X184950000Y-78893413D02*
G01*
X182520000Y-78893413D01*
X182520000Y-78193413D01*
X184950000Y-78193413D01*
X184950000Y-78893413D01*
G37*
X184950000Y-78893413D02*
X182520000Y-78893413D01*
X182520000Y-78193413D01*
X184950000Y-78193413D01*
X184950000Y-78893413D01*
%TO.C,U7*%
G36*
X135250000Y-78888413D02*
G01*
X132820000Y-78888413D01*
X132820000Y-78188413D01*
X135250000Y-78188413D01*
X135250000Y-78888413D01*
G37*
X135250000Y-78888413D02*
X132820000Y-78888413D01*
X132820000Y-78188413D01*
X135250000Y-78188413D01*
X135250000Y-78888413D01*
G36*
X135250000Y-80038413D02*
G01*
X132820000Y-80038413D01*
X132820000Y-79338413D01*
X135250000Y-79338413D01*
X135250000Y-80038413D01*
G37*
X135250000Y-80038413D02*
X132820000Y-80038413D01*
X132820000Y-79338413D01*
X135250000Y-79338413D01*
X135250000Y-80038413D01*
G36*
X138130000Y-78888413D02*
G01*
X135700000Y-78888413D01*
X135700000Y-78188413D01*
X138130000Y-78188413D01*
X138130000Y-78888413D01*
G37*
X138130000Y-78888413D02*
X135700000Y-78888413D01*
X135700000Y-78188413D01*
X138130000Y-78188413D01*
X138130000Y-78888413D01*
G36*
X138130000Y-80038413D02*
G01*
X135700000Y-80038413D01*
X135700000Y-79338413D01*
X138130000Y-79338413D01*
X138130000Y-80038413D01*
G37*
X138130000Y-80038413D02*
X135700000Y-80038413D01*
X135700000Y-79338413D01*
X138130000Y-79338413D01*
X138130000Y-80038413D01*
%TO.C,U6*%
G36*
X113330000Y-78895000D02*
G01*
X110900000Y-78895000D01*
X110900000Y-78195000D01*
X113330000Y-78195000D01*
X113330000Y-78895000D01*
G37*
X113330000Y-78895000D02*
X110900000Y-78895000D01*
X110900000Y-78195000D01*
X113330000Y-78195000D01*
X113330000Y-78895000D01*
G36*
X110450000Y-80045000D02*
G01*
X108020000Y-80045000D01*
X108020000Y-79345000D01*
X110450000Y-79345000D01*
X110450000Y-80045000D01*
G37*
X110450000Y-80045000D02*
X108020000Y-80045000D01*
X108020000Y-79345000D01*
X110450000Y-79345000D01*
X110450000Y-80045000D01*
G36*
X113330000Y-80045000D02*
G01*
X110900000Y-80045000D01*
X110900000Y-79345000D01*
X113330000Y-79345000D01*
X113330000Y-80045000D01*
G37*
X113330000Y-80045000D02*
X110900000Y-80045000D01*
X110900000Y-79345000D01*
X113330000Y-79345000D01*
X113330000Y-80045000D01*
G36*
X110450000Y-78895000D02*
G01*
X108020000Y-78895000D01*
X108020000Y-78195000D01*
X110450000Y-78195000D01*
X110450000Y-78895000D01*
G37*
X110450000Y-78895000D02*
X108020000Y-78895000D01*
X108020000Y-78195000D01*
X110450000Y-78195000D01*
X110450000Y-78895000D01*
%TD*%
D12*
%TO.C,U1*%
X117546000Y-101940000D03*
X117546000Y-99650000D03*
X117546000Y-97360000D03*
D13*
X110856000Y-99650000D03*
%TD*%
D14*
%TO.C,R49*%
X153600000Y-78150000D03*
X151600000Y-78150000D03*
%TD*%
D15*
%TO.C,J2*%
X200079200Y-97900002D03*
X200079200Y-89259998D03*
D16*
X195899200Y-97900002D03*
X195899200Y-89259998D03*
D17*
X195324200Y-96780000D03*
X195324200Y-95980001D03*
D18*
X195324200Y-94830000D03*
X195324200Y-93830000D03*
X195324200Y-93330000D03*
X195324200Y-92330000D03*
D17*
X195324200Y-90380000D03*
X195324200Y-91179999D03*
D18*
X195324200Y-91830001D03*
X195324200Y-92829999D03*
X195324200Y-94330001D03*
X195324200Y-95329999D03*
%TD*%
D19*
%TO.C,F1*%
X121350000Y-101825000D03*
X121350000Y-97375000D03*
%TD*%
D20*
%TO.C,U4*%
X121075000Y-118445000D03*
X121075000Y-119715000D03*
X121075000Y-120985000D03*
X121075000Y-122255000D03*
X126025000Y-122255000D03*
X126025000Y-120985000D03*
X126025000Y-119715000D03*
X126025000Y-118445000D03*
%TD*%
D21*
%TO.C,C17*%
X187062500Y-113600000D03*
X189137500Y-113600000D03*
%TD*%
D14*
%TO.C,R29*%
X152700000Y-120850000D03*
X150700000Y-120850000D03*
%TD*%
D22*
%TO.C,C3*%
X114600000Y-104862500D03*
X114600000Y-106937500D03*
%TD*%
D14*
%TO.C,R18*%
X130600000Y-122100000D03*
X128600000Y-122100000D03*
%TD*%
D23*
%TO.C,R31*%
X178450000Y-111750000D03*
X180450000Y-111750000D03*
%TD*%
D24*
%TO.C,C19*%
X114900000Y-86850152D03*
X114900000Y-84775152D03*
%TD*%
D14*
%TO.C,R28*%
X152700000Y-118400000D03*
X150700000Y-118400000D03*
%TD*%
D25*
%TO.C,RN1*%
X112850000Y-89250000D03*
X112850000Y-91050000D03*
X115250000Y-89250000D03*
D26*
X114450000Y-89250000D03*
X113650000Y-89250000D03*
X113650000Y-91050000D03*
X114450000Y-91050000D03*
D25*
X115250000Y-91050000D03*
%TD*%
D27*
%TO.C,U2*%
X110710000Y-113545000D03*
X110710000Y-114815000D03*
X110710000Y-116085000D03*
X110710000Y-117355000D03*
X116110000Y-117355000D03*
X116110000Y-116085000D03*
X116110000Y-114815000D03*
X116110000Y-113545000D03*
%TD*%
D28*
%TO.C,R10*%
X157400000Y-127500000D03*
X157400000Y-125500000D03*
%TD*%
D21*
%TO.C,C8*%
X124912500Y-101400000D03*
X126987500Y-101400000D03*
%TD*%
D29*
%TO.C,R6*%
X157095000Y-107825000D03*
X157095000Y-109825000D03*
%TD*%
D14*
%TO.C,R37*%
X104000000Y-78150000D03*
X102000000Y-78150000D03*
%TD*%
D30*
%TO.C,Q2*%
X156850000Y-118600000D03*
X154950000Y-118600000D03*
X155900000Y-121600000D03*
%TD*%
D14*
%TO.C,R17*%
X118600000Y-119400000D03*
X116600000Y-119400000D03*
%TD*%
D31*
%TO.C,D5*%
X196725000Y-123400000D03*
X194825000Y-123400000D03*
X195775000Y-125600000D03*
%TD*%
D23*
%TO.C,R32*%
X198675000Y-125800000D03*
X200675000Y-125800000D03*
%TD*%
%TO.C,R9*%
X143095000Y-103375000D03*
X145095000Y-103375000D03*
%TD*%
D21*
%TO.C,C16*%
X173612500Y-127800000D03*
X175687500Y-127800000D03*
%TD*%
D32*
%TO.C,D1*%
X106800000Y-111500000D03*
X101800000Y-111500000D03*
%TD*%
D22*
%TO.C,C44*%
X160500000Y-84762500D03*
X160500000Y-86837500D03*
%TD*%
D29*
%TO.C,R3*%
X156945000Y-102275000D03*
X156945000Y-104275000D03*
%TD*%
D21*
%TO.C,C18*%
X190837500Y-123100000D03*
X192912500Y-123100000D03*
%TD*%
D33*
%TO.C,U3*%
X147810000Y-102030000D03*
X147810000Y-103300000D03*
X147810000Y-104570000D03*
X147810000Y-105840000D03*
X147810000Y-107110000D03*
X147810000Y-108380000D03*
X147810000Y-109650000D03*
X147810000Y-110920000D03*
X152980000Y-110920000D03*
X152980000Y-109650000D03*
X152980000Y-108380000D03*
X152980000Y-107110000D03*
X152980000Y-105840000D03*
X152980000Y-104570000D03*
X152980000Y-103300000D03*
X152980000Y-102030000D03*
%TD*%
D14*
%TO.C,R24*%
X175650000Y-125100000D03*
X173650000Y-125100000D03*
%TD*%
%TO.C,R55*%
X153600000Y-80100000D03*
X151600000Y-80100000D03*
%TD*%
D22*
%TO.C,C1*%
X109400000Y-104862500D03*
X109400000Y-106937500D03*
%TD*%
D23*
%TO.C,R56*%
X151600000Y-82050000D03*
X153600000Y-82050000D03*
%TD*%
D34*
%TO.C,C24*%
X133837500Y-85900000D03*
X131762500Y-85900000D03*
%TD*%
D30*
%TO.C,Q1*%
X154950000Y-125700000D03*
X153050000Y-125700000D03*
X154000000Y-128700000D03*
%TD*%
D21*
%TO.C,C13*%
X178312500Y-125100000D03*
X180387500Y-125100000D03*
%TD*%
D32*
%TO.C,D3*%
X101800000Y-100250000D03*
X106800000Y-100250000D03*
%TD*%
D21*
%TO.C,C6*%
X124912500Y-98200000D03*
X126987500Y-98200000D03*
%TD*%
D35*
%TO.C,U9*%
X156025000Y-81987500D03*
X156675000Y-81987500D03*
X157325000Y-81987500D03*
X157975000Y-81987500D03*
X158625000Y-81987500D03*
X159275000Y-81987500D03*
X159925000Y-81987500D03*
X160575000Y-81987500D03*
X161225000Y-81987500D03*
X161875000Y-81987500D03*
X162525000Y-81987500D03*
X163175000Y-81987500D03*
X163825000Y-81987500D03*
X164475000Y-81987500D03*
X164475000Y-76227500D03*
X163825000Y-76227500D03*
X163175000Y-76227500D03*
X162525000Y-76227500D03*
X161875000Y-76227500D03*
X161225000Y-76227500D03*
X160575000Y-76227500D03*
X159925000Y-76227500D03*
X159275000Y-76227500D03*
X158625000Y-76227500D03*
X157975000Y-76227500D03*
X157325000Y-76227500D03*
X156675000Y-76227500D03*
X156025000Y-76227500D03*
%TD*%
D25*
%TO.C,RN3*%
X157800000Y-92100000D03*
X157800000Y-90300000D03*
X160200000Y-90300000D03*
D26*
X159400000Y-90300000D03*
X158600000Y-90300000D03*
X158600000Y-92100000D03*
X159400000Y-92100000D03*
D25*
X160200000Y-92100000D03*
%TD*%
D29*
%TO.C,R4*%
X122700000Y-104600000D03*
X122700000Y-106600000D03*
%TD*%
D28*
%TO.C,R42*%
X129950000Y-86800000D03*
X129950000Y-84800000D03*
%TD*%
D22*
%TO.C,C10*%
X120000000Y-104562500D03*
X120000000Y-106637500D03*
%TD*%
D23*
%TO.C,R45*%
X126800000Y-82050000D03*
X128800000Y-82050000D03*
%TD*%
%TO.C,R12*%
X178350000Y-127800000D03*
X180350000Y-127800000D03*
%TD*%
D36*
%TO.C,L1*%
X113512500Y-110400000D03*
X116487500Y-110400000D03*
%TD*%
D14*
%TO.C,R15*%
X188150000Y-125100000D03*
X186150000Y-125100000D03*
%TD*%
D24*
%TO.C,C41*%
X167175000Y-78125000D03*
X167175000Y-76050000D03*
%TD*%
D28*
%TO.C,R22*%
X171450000Y-127500000D03*
X171450000Y-125500000D03*
%TD*%
D24*
%TO.C,C37*%
X162500000Y-86850152D03*
X162500000Y-84775152D03*
%TD*%
D25*
%TO.C,RN4*%
X187350000Y-91050000D03*
X187350000Y-89250000D03*
X189750000Y-89250000D03*
D26*
X188950000Y-89250000D03*
X188150000Y-89250000D03*
X188150000Y-91050000D03*
X188950000Y-91050000D03*
D25*
X189750000Y-91050000D03*
%TD*%
D14*
%TO.C,R11*%
X161700000Y-125100000D03*
X159700000Y-125100000D03*
%TD*%
D34*
%TO.C,C14*%
X151432500Y-99475000D03*
X149357500Y-99475000D03*
%TD*%
D37*
%TO.C,D2*%
X101500000Y-116300000D03*
X106900000Y-116300000D03*
%TD*%
D14*
%TO.C,R43*%
X104000000Y-80100000D03*
X102000000Y-80100000D03*
%TD*%
D35*
%TO.C,U8*%
X180950000Y-81998413D03*
X181600000Y-81998413D03*
X182250000Y-81998413D03*
X182900000Y-81998413D03*
X183550000Y-81998413D03*
X184200000Y-81998413D03*
X184850000Y-81998413D03*
X185500000Y-81998413D03*
X186150000Y-81998413D03*
X186800000Y-81998413D03*
X187450000Y-81998413D03*
X188100000Y-81998413D03*
X188750000Y-81998413D03*
X189400000Y-81998413D03*
X189400000Y-76238413D03*
X188750000Y-76238413D03*
X188100000Y-76238413D03*
X187450000Y-76238413D03*
X186800000Y-76238413D03*
X186150000Y-76238413D03*
X185500000Y-76238413D03*
X184850000Y-76238413D03*
X184200000Y-76238413D03*
X183550000Y-76238413D03*
X182900000Y-76238413D03*
X182250000Y-76238413D03*
X181600000Y-76238413D03*
X180950000Y-76238413D03*
%TD*%
D21*
%TO.C,C15*%
X166562500Y-127800000D03*
X168637500Y-127800000D03*
%TD*%
D24*
%TO.C,C25*%
X117400000Y-78137500D03*
X117400000Y-76062500D03*
%TD*%
D25*
%TO.C,RN2*%
X137650000Y-89250000D03*
X137650000Y-91050000D03*
X140050000Y-89250000D03*
D26*
X139250000Y-89250000D03*
X138450000Y-89250000D03*
X138450000Y-91050000D03*
X139250000Y-91050000D03*
D25*
X140050000Y-91050000D03*
%TD*%
D22*
%TO.C,C43*%
X185400000Y-84762500D03*
X185400000Y-86837500D03*
%TD*%
D14*
%TO.C,R47*%
X178500000Y-78150000D03*
X176500000Y-78150000D03*
%TD*%
D22*
%TO.C,C26*%
X117400000Y-80112500D03*
X117400000Y-82187500D03*
%TD*%
%TO.C,C4*%
X117200000Y-104862500D03*
X117200000Y-106937500D03*
%TD*%
D14*
%TO.C,R19*%
X130600000Y-119500000D03*
X128600000Y-119500000D03*
%TD*%
D24*
%TO.C,C20*%
X139700000Y-86850152D03*
X139700000Y-84775152D03*
%TD*%
D14*
%TO.C,R44*%
X128800000Y-80100000D03*
X126800000Y-80100000D03*
%TD*%
D22*
%TO.C,C30*%
X135700000Y-84762500D03*
X135700000Y-86837500D03*
%TD*%
D28*
%TO.C,R14*%
X184500000Y-114100000D03*
X184500000Y-112100000D03*
%TD*%
D20*
%TO.C,U5*%
X133180000Y-118445000D03*
X133180000Y-119715000D03*
X133180000Y-120985000D03*
X133180000Y-122255000D03*
X138130000Y-122255000D03*
X138130000Y-120985000D03*
X138130000Y-119715000D03*
X138130000Y-118445000D03*
%TD*%
D34*
%TO.C,C22*%
X109037500Y-85900000D03*
X106962500Y-85900000D03*
%TD*%
D22*
%TO.C,C28*%
X142350000Y-80105913D03*
X142350000Y-82180913D03*
%TD*%
D24*
%TO.C,C33*%
X189400000Y-86850152D03*
X189400000Y-84775152D03*
%TD*%
D23*
%TO.C,R54*%
X176500000Y-82050000D03*
X178500000Y-82050000D03*
%TD*%
D14*
%TO.C,R23*%
X168600000Y-125100000D03*
X166600000Y-125100000D03*
%TD*%
D28*
%TO.C,R52*%
X154750000Y-86800000D03*
X154750000Y-84800000D03*
%TD*%
D23*
%TO.C,R25*%
X190875000Y-125750000D03*
X192875000Y-125750000D03*
%TD*%
D22*
%TO.C,C40*%
X192150000Y-80110913D03*
X192150000Y-82185913D03*
%TD*%
%TO.C,C42*%
X167175000Y-80100000D03*
X167175000Y-82175000D03*
%TD*%
D30*
%TO.C,Q3*%
X175900000Y-112650000D03*
X174000000Y-112650000D03*
X174950000Y-115650000D03*
%TD*%
D22*
%TO.C,C29*%
X110900000Y-84762500D03*
X110900000Y-86837500D03*
%TD*%
D24*
%TO.C,C35*%
X187400000Y-86850152D03*
X187400000Y-84775152D03*
%TD*%
D23*
%TO.C,R30*%
X178500000Y-113950000D03*
X180500000Y-113950000D03*
%TD*%
D28*
%TO.C,R21*%
X164300000Y-127500000D03*
X164300000Y-125500000D03*
%TD*%
D14*
%TO.C,R27*%
X150750000Y-127650000D03*
X148750000Y-127650000D03*
%TD*%
D22*
%TO.C,C5*%
X183750000Y-101812500D03*
X183750000Y-103887500D03*
%TD*%
D23*
%TO.C,R7*%
X143095000Y-108425000D03*
X145095000Y-108425000D03*
%TD*%
D35*
%TO.C,U7*%
X131250000Y-81993413D03*
X131900000Y-81993413D03*
X132550000Y-81993413D03*
X133200000Y-81993413D03*
X133850000Y-81993413D03*
X134500000Y-81993413D03*
X135150000Y-81993413D03*
X135800000Y-81993413D03*
X136450000Y-81993413D03*
X137100000Y-81993413D03*
X137750000Y-81993413D03*
X138400000Y-81993413D03*
X139050000Y-81993413D03*
X139700000Y-81993413D03*
X139700000Y-76233413D03*
X139050000Y-76233413D03*
X138400000Y-76233413D03*
X137750000Y-76233413D03*
X137100000Y-76233413D03*
X136450000Y-76233413D03*
X135800000Y-76233413D03*
X135150000Y-76233413D03*
X134500000Y-76233413D03*
X133850000Y-76233413D03*
X133200000Y-76233413D03*
X132550000Y-76233413D03*
X131900000Y-76233413D03*
X131250000Y-76233413D03*
%TD*%
D24*
%TO.C,C39*%
X192150000Y-78135913D03*
X192150000Y-76060913D03*
%TD*%
D23*
%TO.C,R46*%
X102000000Y-82050000D03*
X104000000Y-82050000D03*
%TD*%
D14*
%TO.C,R20*%
X189100000Y-110900000D03*
X187100000Y-110900000D03*
%TD*%
D23*
%TO.C,R34*%
X158500000Y-97000000D03*
X160500000Y-97000000D03*
%TD*%
D14*
%TO.C,R26*%
X150750000Y-125050000D03*
X148750000Y-125050000D03*
%TD*%
%TO.C,R53*%
X178500000Y-80100000D03*
X176500000Y-80100000D03*
%TD*%
%TO.C,R40*%
X128800000Y-76200000D03*
X126800000Y-76200000D03*
%TD*%
%TO.C,R50*%
X153600000Y-76200000D03*
X151600000Y-76200000D03*
%TD*%
D28*
%TO.C,R5*%
X125200000Y-106600000D03*
X125200000Y-104600000D03*
%TD*%
D24*
%TO.C,C27*%
X142350000Y-78130913D03*
X142350000Y-76055913D03*
%TD*%
D34*
%TO.C,C38*%
X158637500Y-85900000D03*
X156562500Y-85900000D03*
%TD*%
D23*
%TO.C,R13*%
X186150000Y-127800000D03*
X188150000Y-127800000D03*
%TD*%
D24*
%TO.C,C34*%
X164500000Y-86850152D03*
X164500000Y-84775152D03*
%TD*%
D23*
%TO.C,R8*%
X143095000Y-105825000D03*
X145095000Y-105825000D03*
%TD*%
%TO.C,R35*%
X154200000Y-94700000D03*
X156200000Y-94700000D03*
%TD*%
D14*
%TO.C,R38*%
X104000000Y-76200000D03*
X102000000Y-76200000D03*
%TD*%
%TO.C,R16*%
X118600000Y-122100000D03*
X116600000Y-122100000D03*
%TD*%
D22*
%TO.C,C2*%
X112000000Y-104862500D03*
X112000000Y-106937500D03*
%TD*%
D21*
%TO.C,C7*%
X168562500Y-111200000D03*
X170637500Y-111200000D03*
%TD*%
D31*
%TO.C,D4*%
X184200000Y-125300000D03*
X182300000Y-125300000D03*
X183250000Y-127500000D03*
%TD*%
D23*
%TO.C,R36*%
X154200000Y-97000000D03*
X156200000Y-97000000D03*
%TD*%
D34*
%TO.C,C36*%
X183537500Y-85900000D03*
X181462500Y-85900000D03*
%TD*%
D35*
%TO.C,U6*%
X106450000Y-82000000D03*
X107100000Y-82000000D03*
X107750000Y-82000000D03*
X108400000Y-82000000D03*
X109050000Y-82000000D03*
X109700000Y-82000000D03*
X110350000Y-82000000D03*
X111000000Y-82000000D03*
X111650000Y-82000000D03*
X112300000Y-82000000D03*
X112950000Y-82000000D03*
X113600000Y-82000000D03*
X114250000Y-82000000D03*
X114900000Y-82000000D03*
X114900000Y-76240000D03*
X114250000Y-76240000D03*
X113600000Y-76240000D03*
X112950000Y-76240000D03*
X112300000Y-76240000D03*
X111650000Y-76240000D03*
X111000000Y-76240000D03*
X110350000Y-76240000D03*
X109700000Y-76240000D03*
X109050000Y-76240000D03*
X108400000Y-76240000D03*
X107750000Y-76240000D03*
X107100000Y-76240000D03*
X106450000Y-76240000D03*
%TD*%
D28*
%TO.C,R2*%
X183750000Y-108450000D03*
X183750000Y-106450000D03*
%TD*%
D14*
%TO.C,R33*%
X200675000Y-123100000D03*
X198675000Y-123100000D03*
%TD*%
D28*
%TO.C,R41*%
X105150000Y-86800000D03*
X105150000Y-84800000D03*
%TD*%
D21*
%TO.C,C12*%
X159662500Y-127800000D03*
X161737500Y-127800000D03*
%TD*%
D14*
%TO.C,R57*%
X195200000Y-127700000D03*
X193200000Y-127700000D03*
%TD*%
D28*
%TO.C,R51*%
X179650000Y-86800000D03*
X179650000Y-84800000D03*
%TD*%
D14*
%TO.C,R48*%
X178500000Y-76200000D03*
X176500000Y-76200000D03*
%TD*%
%TO.C,R39*%
X128800000Y-78150000D03*
X126800000Y-78150000D03*
%TD*%
D24*
%TO.C,C23*%
X137700000Y-86850152D03*
X137700000Y-84775152D03*
%TD*%
%TO.C,C9*%
X110700000Y-111387500D03*
X110700000Y-109312500D03*
%TD*%
%TO.C,C21*%
X112900000Y-86850152D03*
X112900000Y-84775152D03*
%TD*%
D29*
%TO.C,R1*%
X192700000Y-96100000D03*
X192700000Y-98100000D03*
%TD*%
M02*
