%TF.GenerationSoftware,KiCad,Pcbnew,(6.0.6)*%
%TF.CreationDate,2022-09-05T02:31:18-05:00*%
%TF.ProjectId,rp2040-board,72703230-3430-42d6-926f-6172642e6b69,rev?*%
%TF.SameCoordinates,Original*%
%TF.FileFunction,Soldermask,Top*%
%TF.FilePolarity,Negative*%
%FSLAX46Y46*%
G04 Gerber Fmt 4.6, Leading zero omitted, Abs format (unit mm)*
G04 Created by KiCad (PCBNEW (6.0.6)) date 2022-09-05 02:31:18*
%MOMM*%
%LPD*%
G01*
G04 APERTURE LIST*
G04 Aperture macros list*
%AMRoundRect*
0 Rectangle with rounded corners*
0 $1 Rounding radius*
0 $2 $3 $4 $5 $6 $7 $8 $9 X,Y pos of 4 corners*
0 Add a 4 corners polygon primitive as box body*
4,1,4,$2,$3,$4,$5,$6,$7,$8,$9,$2,$3,0*
0 Add four circle primitives for the rounded corners*
1,1,$1+$1,$2,$3*
1,1,$1+$1,$4,$5*
1,1,$1+$1,$6,$7*
1,1,$1+$1,$8,$9*
0 Add four rect primitives between the rounded corners*
20,1,$1+$1,$2,$3,$4,$5,0*
20,1,$1+$1,$4,$5,$6,$7,0*
20,1,$1+$1,$6,$7,$8,$9,0*
20,1,$1+$1,$8,$9,$2,$3,0*%
G04 Aperture macros list end*
%TA.AperFunction,Profile*%
%ADD10C,0.025400*%
%TD*%
%ADD11C,0.010000*%
%ADD12RoundRect,0.093000X0.562000X-0.372000X0.562000X0.372000X-0.562000X0.372000X-0.562000X-0.372000X0*%
%ADD13RoundRect,0.131000X0.524000X-1.489000X0.524000X1.489000X-0.524000X1.489000X-0.524000X-1.489000X0*%
%ADD14R,1.337000X1.337000*%
%ADD15C,1.337000*%
%ADD16R,1.700000X1.700000*%
%ADD17O,1.700000X1.700000*%
%ADD18RoundRect,0.250000X0.350000X0.450000X-0.350000X0.450000X-0.350000X-0.450000X0.350000X-0.450000X0*%
%ADD19R,1.600000X1.600000*%
%ADD20C,1.600000*%
%ADD21C,0.609600*%
%ADD22O,1.803400X0.990600*%
%ADD23O,2.108200X0.990600*%
%ADD24C,0.660400*%
%ADD25R,1.143000X0.584200*%
%ADD26R,1.143000X0.304800*%
%ADD27RoundRect,0.250000X1.450000X-0.400000X1.450000X0.400000X-1.450000X0.400000X-1.450000X-0.400000X0*%
%ADD28RoundRect,0.042000X-0.943000X-0.258000X0.943000X-0.258000X0.943000X0.258000X-0.943000X0.258000X0*%
%ADD29RoundRect,0.250000X-0.337500X-0.475000X0.337500X-0.475000X0.337500X0.475000X-0.337500X0.475000X0*%
%ADD30RoundRect,0.250000X-0.475000X0.337500X-0.475000X-0.337500X0.475000X-0.337500X0.475000X0.337500X0*%
%ADD31RoundRect,0.250000X-0.350000X-0.450000X0.350000X-0.450000X0.350000X0.450000X-0.350000X0.450000X0*%
%ADD32RoundRect,0.250000X0.475000X-0.337500X0.475000X0.337500X-0.475000X0.337500X-0.475000X-0.337500X0*%
%ADD33R,0.500000X0.800000*%
%ADD34R,0.400000X0.800000*%
%ADD35C,0.300000*%
%ADD36RoundRect,0.250000X0.450000X-0.350000X0.450000X0.350000X-0.450000X0.350000X-0.450000X-0.350000X0*%
%ADD37RoundRect,0.250000X-0.450000X0.350000X-0.450000X-0.350000X0.450000X-0.350000X0.450000X0.350000X0*%
%ADD38R,0.800000X1.900000*%
%ADD39RoundRect,0.250000X-0.600000X-0.750000X0.600000X-0.750000X0.600000X0.750000X-0.600000X0.750000X0*%
%ADD40O,1.700000X2.000000*%
%ADD41R,1.000000X1.400000*%
%ADD42R,3.500000X1.800000*%
%ADD43RoundRect,0.041300X-0.833700X-0.253700X0.833700X-0.253700X0.833700X0.253700X-0.833700X0.253700X0*%
%ADD44C,1.778000*%
%ADD45RoundRect,0.250000X0.337500X0.475000X-0.337500X0.475000X-0.337500X-0.475000X0.337500X-0.475000X0*%
%ADD46R,6.200000X2.750000*%
%ADD47RoundRect,0.020000X0.180000X-0.760000X0.180000X0.760000X-0.180000X0.760000X-0.180000X-0.760000X0*%
%ADD48C,3.500000*%
%ADD49R,2.600000X2.600000*%
%ADD50C,2.600000*%
%ADD51RoundRect,0.250001X-0.462499X-1.074999X0.462499X-1.074999X0.462499X1.074999X-0.462499X1.074999X0*%
%ADD52R,3.500000X2.300000*%
%ADD53RoundRect,0.250000X0.600000X0.725000X-0.600000X0.725000X-0.600000X-0.725000X0.600000X-0.725000X0*%
%ADD54O,1.700000X1.950000*%
%ADD55RoundRect,0.250000X-0.600000X-0.725000X0.600000X-0.725000X0.600000X0.725000X-0.600000X0.725000X0*%
G04 APERTURE END LIST*
D10*
X97650000Y-63005200D02*
X97650000Y-138100000D01*
X202952600Y-63000000D02*
X97650000Y-63005200D01*
X202952600Y-138094800D02*
X202952600Y-63000000D01*
X97650000Y-138100000D02*
X202952600Y-138094800D01*
%TO.C,U2*%
G36*
X111513000Y-114446000D02*
G01*
X111515000Y-114446000D01*
X111518000Y-114447000D01*
X111520000Y-114447000D01*
X111523000Y-114448000D01*
X111525000Y-114449000D01*
X111528000Y-114450000D01*
X111530000Y-114452000D01*
X111532000Y-114453000D01*
X111534000Y-114455000D01*
X111536000Y-114456000D01*
X111544000Y-114464000D01*
X111545000Y-114466000D01*
X111547000Y-114468000D01*
X111548000Y-114470000D01*
X111550000Y-114472000D01*
X111551000Y-114475000D01*
X111552000Y-114477000D01*
X111553000Y-114480000D01*
X111553000Y-114482000D01*
X111554000Y-114485000D01*
X111554000Y-114487000D01*
X111555000Y-114490000D01*
X111555000Y-115140000D01*
X111554000Y-115143000D01*
X111554000Y-115145000D01*
X111553000Y-115148000D01*
X111553000Y-115150000D01*
X111552000Y-115153000D01*
X111551000Y-115155000D01*
X111550000Y-115158000D01*
X111548000Y-115160000D01*
X111547000Y-115162000D01*
X111545000Y-115164000D01*
X111544000Y-115166000D01*
X111536000Y-115174000D01*
X111534000Y-115175000D01*
X111532000Y-115177000D01*
X111530000Y-115178000D01*
X111528000Y-115180000D01*
X111525000Y-115181000D01*
X111523000Y-115182000D01*
X111520000Y-115183000D01*
X111518000Y-115183000D01*
X111515000Y-115184000D01*
X111513000Y-115184000D01*
X111510000Y-115185000D01*
X109910000Y-115185000D01*
X109907000Y-115184000D01*
X109905000Y-115184000D01*
X109902000Y-115183000D01*
X109900000Y-115183000D01*
X109897000Y-115182000D01*
X109895000Y-115181000D01*
X109892000Y-115180000D01*
X109890000Y-115178000D01*
X109888000Y-115177000D01*
X109886000Y-115175000D01*
X109884000Y-115174000D01*
X109876000Y-115166000D01*
X109875000Y-115164000D01*
X109873000Y-115162000D01*
X109872000Y-115160000D01*
X109870000Y-115158000D01*
X109869000Y-115155000D01*
X109868000Y-115153000D01*
X109867000Y-115150000D01*
X109867000Y-115148000D01*
X109866000Y-115145000D01*
X109866000Y-115143000D01*
X109865000Y-115140000D01*
X109865000Y-114490000D01*
X109866000Y-114487000D01*
X109866000Y-114485000D01*
X109867000Y-114482000D01*
X109867000Y-114480000D01*
X109868000Y-114477000D01*
X109869000Y-114475000D01*
X109870000Y-114472000D01*
X109872000Y-114470000D01*
X109873000Y-114468000D01*
X109875000Y-114466000D01*
X109876000Y-114464000D01*
X109884000Y-114456000D01*
X109886000Y-114455000D01*
X109888000Y-114453000D01*
X109890000Y-114452000D01*
X109892000Y-114450000D01*
X109895000Y-114449000D01*
X109897000Y-114448000D01*
X109900000Y-114447000D01*
X109902000Y-114447000D01*
X109905000Y-114446000D01*
X109907000Y-114446000D01*
X109910000Y-114445000D01*
X111510000Y-114445000D01*
X111513000Y-114446000D01*
G37*
D11*
X111513000Y-114446000D02*
X111515000Y-114446000D01*
X111518000Y-114447000D01*
X111520000Y-114447000D01*
X111523000Y-114448000D01*
X111525000Y-114449000D01*
X111528000Y-114450000D01*
X111530000Y-114452000D01*
X111532000Y-114453000D01*
X111534000Y-114455000D01*
X111536000Y-114456000D01*
X111544000Y-114464000D01*
X111545000Y-114466000D01*
X111547000Y-114468000D01*
X111548000Y-114470000D01*
X111550000Y-114472000D01*
X111551000Y-114475000D01*
X111552000Y-114477000D01*
X111553000Y-114480000D01*
X111553000Y-114482000D01*
X111554000Y-114485000D01*
X111554000Y-114487000D01*
X111555000Y-114490000D01*
X111555000Y-115140000D01*
X111554000Y-115143000D01*
X111554000Y-115145000D01*
X111553000Y-115148000D01*
X111553000Y-115150000D01*
X111552000Y-115153000D01*
X111551000Y-115155000D01*
X111550000Y-115158000D01*
X111548000Y-115160000D01*
X111547000Y-115162000D01*
X111545000Y-115164000D01*
X111544000Y-115166000D01*
X111536000Y-115174000D01*
X111534000Y-115175000D01*
X111532000Y-115177000D01*
X111530000Y-115178000D01*
X111528000Y-115180000D01*
X111525000Y-115181000D01*
X111523000Y-115182000D01*
X111520000Y-115183000D01*
X111518000Y-115183000D01*
X111515000Y-115184000D01*
X111513000Y-115184000D01*
X111510000Y-115185000D01*
X109910000Y-115185000D01*
X109907000Y-115184000D01*
X109905000Y-115184000D01*
X109902000Y-115183000D01*
X109900000Y-115183000D01*
X109897000Y-115182000D01*
X109895000Y-115181000D01*
X109892000Y-115180000D01*
X109890000Y-115178000D01*
X109888000Y-115177000D01*
X109886000Y-115175000D01*
X109884000Y-115174000D01*
X109876000Y-115166000D01*
X109875000Y-115164000D01*
X109873000Y-115162000D01*
X109872000Y-115160000D01*
X109870000Y-115158000D01*
X109869000Y-115155000D01*
X109868000Y-115153000D01*
X109867000Y-115150000D01*
X109867000Y-115148000D01*
X109866000Y-115145000D01*
X109866000Y-115143000D01*
X109865000Y-115140000D01*
X109865000Y-114490000D01*
X109866000Y-114487000D01*
X109866000Y-114485000D01*
X109867000Y-114482000D01*
X109867000Y-114480000D01*
X109868000Y-114477000D01*
X109869000Y-114475000D01*
X109870000Y-114472000D01*
X109872000Y-114470000D01*
X109873000Y-114468000D01*
X109875000Y-114466000D01*
X109876000Y-114464000D01*
X109884000Y-114456000D01*
X109886000Y-114455000D01*
X109888000Y-114453000D01*
X109890000Y-114452000D01*
X109892000Y-114450000D01*
X109895000Y-114449000D01*
X109897000Y-114448000D01*
X109900000Y-114447000D01*
X109902000Y-114447000D01*
X109905000Y-114446000D01*
X109907000Y-114446000D01*
X109910000Y-114445000D01*
X111510000Y-114445000D01*
X111513000Y-114446000D01*
G36*
X116913000Y-115716000D02*
G01*
X116915000Y-115716000D01*
X116918000Y-115717000D01*
X116920000Y-115717000D01*
X116923000Y-115718000D01*
X116925000Y-115719000D01*
X116928000Y-115720000D01*
X116930000Y-115722000D01*
X116932000Y-115723000D01*
X116934000Y-115725000D01*
X116936000Y-115726000D01*
X116944000Y-115734000D01*
X116945000Y-115736000D01*
X116947000Y-115738000D01*
X116948000Y-115740000D01*
X116950000Y-115742000D01*
X116951000Y-115745000D01*
X116952000Y-115747000D01*
X116953000Y-115750000D01*
X116953000Y-115752000D01*
X116954000Y-115755000D01*
X116954000Y-115757000D01*
X116955000Y-115760000D01*
X116955000Y-116410000D01*
X116954000Y-116413000D01*
X116954000Y-116415000D01*
X116953000Y-116418000D01*
X116953000Y-116420000D01*
X116952000Y-116423000D01*
X116951000Y-116425000D01*
X116950000Y-116428000D01*
X116948000Y-116430000D01*
X116947000Y-116432000D01*
X116945000Y-116434000D01*
X116944000Y-116436000D01*
X116936000Y-116444000D01*
X116934000Y-116445000D01*
X116932000Y-116447000D01*
X116930000Y-116448000D01*
X116928000Y-116450000D01*
X116925000Y-116451000D01*
X116923000Y-116452000D01*
X116920000Y-116453000D01*
X116918000Y-116453000D01*
X116915000Y-116454000D01*
X116913000Y-116454000D01*
X116910000Y-116455000D01*
X115310000Y-116455000D01*
X115307000Y-116454000D01*
X115305000Y-116454000D01*
X115302000Y-116453000D01*
X115300000Y-116453000D01*
X115297000Y-116452000D01*
X115295000Y-116451000D01*
X115292000Y-116450000D01*
X115290000Y-116448000D01*
X115288000Y-116447000D01*
X115286000Y-116445000D01*
X115284000Y-116444000D01*
X115276000Y-116436000D01*
X115275000Y-116434000D01*
X115273000Y-116432000D01*
X115272000Y-116430000D01*
X115270000Y-116428000D01*
X115269000Y-116425000D01*
X115268000Y-116423000D01*
X115267000Y-116420000D01*
X115267000Y-116418000D01*
X115266000Y-116415000D01*
X115266000Y-116413000D01*
X115265000Y-116410000D01*
X115265000Y-115760000D01*
X115266000Y-115757000D01*
X115266000Y-115755000D01*
X115267000Y-115752000D01*
X115267000Y-115750000D01*
X115268000Y-115747000D01*
X115269000Y-115745000D01*
X115270000Y-115742000D01*
X115272000Y-115740000D01*
X115273000Y-115738000D01*
X115275000Y-115736000D01*
X115276000Y-115734000D01*
X115284000Y-115726000D01*
X115286000Y-115725000D01*
X115288000Y-115723000D01*
X115290000Y-115722000D01*
X115292000Y-115720000D01*
X115295000Y-115719000D01*
X115297000Y-115718000D01*
X115300000Y-115717000D01*
X115302000Y-115717000D01*
X115305000Y-115716000D01*
X115307000Y-115716000D01*
X115310000Y-115715000D01*
X116910000Y-115715000D01*
X116913000Y-115716000D01*
G37*
X116913000Y-115716000D02*
X116915000Y-115716000D01*
X116918000Y-115717000D01*
X116920000Y-115717000D01*
X116923000Y-115718000D01*
X116925000Y-115719000D01*
X116928000Y-115720000D01*
X116930000Y-115722000D01*
X116932000Y-115723000D01*
X116934000Y-115725000D01*
X116936000Y-115726000D01*
X116944000Y-115734000D01*
X116945000Y-115736000D01*
X116947000Y-115738000D01*
X116948000Y-115740000D01*
X116950000Y-115742000D01*
X116951000Y-115745000D01*
X116952000Y-115747000D01*
X116953000Y-115750000D01*
X116953000Y-115752000D01*
X116954000Y-115755000D01*
X116954000Y-115757000D01*
X116955000Y-115760000D01*
X116955000Y-116410000D01*
X116954000Y-116413000D01*
X116954000Y-116415000D01*
X116953000Y-116418000D01*
X116953000Y-116420000D01*
X116952000Y-116423000D01*
X116951000Y-116425000D01*
X116950000Y-116428000D01*
X116948000Y-116430000D01*
X116947000Y-116432000D01*
X116945000Y-116434000D01*
X116944000Y-116436000D01*
X116936000Y-116444000D01*
X116934000Y-116445000D01*
X116932000Y-116447000D01*
X116930000Y-116448000D01*
X116928000Y-116450000D01*
X116925000Y-116451000D01*
X116923000Y-116452000D01*
X116920000Y-116453000D01*
X116918000Y-116453000D01*
X116915000Y-116454000D01*
X116913000Y-116454000D01*
X116910000Y-116455000D01*
X115310000Y-116455000D01*
X115307000Y-116454000D01*
X115305000Y-116454000D01*
X115302000Y-116453000D01*
X115300000Y-116453000D01*
X115297000Y-116452000D01*
X115295000Y-116451000D01*
X115292000Y-116450000D01*
X115290000Y-116448000D01*
X115288000Y-116447000D01*
X115286000Y-116445000D01*
X115284000Y-116444000D01*
X115276000Y-116436000D01*
X115275000Y-116434000D01*
X115273000Y-116432000D01*
X115272000Y-116430000D01*
X115270000Y-116428000D01*
X115269000Y-116425000D01*
X115268000Y-116423000D01*
X115267000Y-116420000D01*
X115267000Y-116418000D01*
X115266000Y-116415000D01*
X115266000Y-116413000D01*
X115265000Y-116410000D01*
X115265000Y-115760000D01*
X115266000Y-115757000D01*
X115266000Y-115755000D01*
X115267000Y-115752000D01*
X115267000Y-115750000D01*
X115268000Y-115747000D01*
X115269000Y-115745000D01*
X115270000Y-115742000D01*
X115272000Y-115740000D01*
X115273000Y-115738000D01*
X115275000Y-115736000D01*
X115276000Y-115734000D01*
X115284000Y-115726000D01*
X115286000Y-115725000D01*
X115288000Y-115723000D01*
X115290000Y-115722000D01*
X115292000Y-115720000D01*
X115295000Y-115719000D01*
X115297000Y-115718000D01*
X115300000Y-115717000D01*
X115302000Y-115717000D01*
X115305000Y-115716000D01*
X115307000Y-115716000D01*
X115310000Y-115715000D01*
X116910000Y-115715000D01*
X116913000Y-115716000D01*
G36*
X116913000Y-114446000D02*
G01*
X116915000Y-114446000D01*
X116918000Y-114447000D01*
X116920000Y-114447000D01*
X116923000Y-114448000D01*
X116925000Y-114449000D01*
X116928000Y-114450000D01*
X116930000Y-114452000D01*
X116932000Y-114453000D01*
X116934000Y-114455000D01*
X116936000Y-114456000D01*
X116944000Y-114464000D01*
X116945000Y-114466000D01*
X116947000Y-114468000D01*
X116948000Y-114470000D01*
X116950000Y-114472000D01*
X116951000Y-114475000D01*
X116952000Y-114477000D01*
X116953000Y-114480000D01*
X116953000Y-114482000D01*
X116954000Y-114485000D01*
X116954000Y-114487000D01*
X116955000Y-114490000D01*
X116955000Y-115140000D01*
X116954000Y-115143000D01*
X116954000Y-115145000D01*
X116953000Y-115148000D01*
X116953000Y-115150000D01*
X116952000Y-115153000D01*
X116951000Y-115155000D01*
X116950000Y-115158000D01*
X116948000Y-115160000D01*
X116947000Y-115162000D01*
X116945000Y-115164000D01*
X116944000Y-115166000D01*
X116936000Y-115174000D01*
X116934000Y-115175000D01*
X116932000Y-115177000D01*
X116930000Y-115178000D01*
X116928000Y-115180000D01*
X116925000Y-115181000D01*
X116923000Y-115182000D01*
X116920000Y-115183000D01*
X116918000Y-115183000D01*
X116915000Y-115184000D01*
X116913000Y-115184000D01*
X116910000Y-115185000D01*
X115310000Y-115185000D01*
X115307000Y-115184000D01*
X115305000Y-115184000D01*
X115302000Y-115183000D01*
X115300000Y-115183000D01*
X115297000Y-115182000D01*
X115295000Y-115181000D01*
X115292000Y-115180000D01*
X115290000Y-115178000D01*
X115288000Y-115177000D01*
X115286000Y-115175000D01*
X115284000Y-115174000D01*
X115276000Y-115166000D01*
X115275000Y-115164000D01*
X115273000Y-115162000D01*
X115272000Y-115160000D01*
X115270000Y-115158000D01*
X115269000Y-115155000D01*
X115268000Y-115153000D01*
X115267000Y-115150000D01*
X115267000Y-115148000D01*
X115266000Y-115145000D01*
X115266000Y-115143000D01*
X115265000Y-115140000D01*
X115265000Y-114490000D01*
X115266000Y-114487000D01*
X115266000Y-114485000D01*
X115267000Y-114482000D01*
X115267000Y-114480000D01*
X115268000Y-114477000D01*
X115269000Y-114475000D01*
X115270000Y-114472000D01*
X115272000Y-114470000D01*
X115273000Y-114468000D01*
X115275000Y-114466000D01*
X115276000Y-114464000D01*
X115284000Y-114456000D01*
X115286000Y-114455000D01*
X115288000Y-114453000D01*
X115290000Y-114452000D01*
X115292000Y-114450000D01*
X115295000Y-114449000D01*
X115297000Y-114448000D01*
X115300000Y-114447000D01*
X115302000Y-114447000D01*
X115305000Y-114446000D01*
X115307000Y-114446000D01*
X115310000Y-114445000D01*
X116910000Y-114445000D01*
X116913000Y-114446000D01*
G37*
X116913000Y-114446000D02*
X116915000Y-114446000D01*
X116918000Y-114447000D01*
X116920000Y-114447000D01*
X116923000Y-114448000D01*
X116925000Y-114449000D01*
X116928000Y-114450000D01*
X116930000Y-114452000D01*
X116932000Y-114453000D01*
X116934000Y-114455000D01*
X116936000Y-114456000D01*
X116944000Y-114464000D01*
X116945000Y-114466000D01*
X116947000Y-114468000D01*
X116948000Y-114470000D01*
X116950000Y-114472000D01*
X116951000Y-114475000D01*
X116952000Y-114477000D01*
X116953000Y-114480000D01*
X116953000Y-114482000D01*
X116954000Y-114485000D01*
X116954000Y-114487000D01*
X116955000Y-114490000D01*
X116955000Y-115140000D01*
X116954000Y-115143000D01*
X116954000Y-115145000D01*
X116953000Y-115148000D01*
X116953000Y-115150000D01*
X116952000Y-115153000D01*
X116951000Y-115155000D01*
X116950000Y-115158000D01*
X116948000Y-115160000D01*
X116947000Y-115162000D01*
X116945000Y-115164000D01*
X116944000Y-115166000D01*
X116936000Y-115174000D01*
X116934000Y-115175000D01*
X116932000Y-115177000D01*
X116930000Y-115178000D01*
X116928000Y-115180000D01*
X116925000Y-115181000D01*
X116923000Y-115182000D01*
X116920000Y-115183000D01*
X116918000Y-115183000D01*
X116915000Y-115184000D01*
X116913000Y-115184000D01*
X116910000Y-115185000D01*
X115310000Y-115185000D01*
X115307000Y-115184000D01*
X115305000Y-115184000D01*
X115302000Y-115183000D01*
X115300000Y-115183000D01*
X115297000Y-115182000D01*
X115295000Y-115181000D01*
X115292000Y-115180000D01*
X115290000Y-115178000D01*
X115288000Y-115177000D01*
X115286000Y-115175000D01*
X115284000Y-115174000D01*
X115276000Y-115166000D01*
X115275000Y-115164000D01*
X115273000Y-115162000D01*
X115272000Y-115160000D01*
X115270000Y-115158000D01*
X115269000Y-115155000D01*
X115268000Y-115153000D01*
X115267000Y-115150000D01*
X115267000Y-115148000D01*
X115266000Y-115145000D01*
X115266000Y-115143000D01*
X115265000Y-115140000D01*
X115265000Y-114490000D01*
X115266000Y-114487000D01*
X115266000Y-114485000D01*
X115267000Y-114482000D01*
X115267000Y-114480000D01*
X115268000Y-114477000D01*
X115269000Y-114475000D01*
X115270000Y-114472000D01*
X115272000Y-114470000D01*
X115273000Y-114468000D01*
X115275000Y-114466000D01*
X115276000Y-114464000D01*
X115284000Y-114456000D01*
X115286000Y-114455000D01*
X115288000Y-114453000D01*
X115290000Y-114452000D01*
X115292000Y-114450000D01*
X115295000Y-114449000D01*
X115297000Y-114448000D01*
X115300000Y-114447000D01*
X115302000Y-114447000D01*
X115305000Y-114446000D01*
X115307000Y-114446000D01*
X115310000Y-114445000D01*
X116910000Y-114445000D01*
X116913000Y-114446000D01*
G36*
X111513000Y-113176000D02*
G01*
X111515000Y-113176000D01*
X111518000Y-113177000D01*
X111520000Y-113177000D01*
X111523000Y-113178000D01*
X111525000Y-113179000D01*
X111528000Y-113180000D01*
X111530000Y-113182000D01*
X111532000Y-113183000D01*
X111534000Y-113185000D01*
X111536000Y-113186000D01*
X111544000Y-113194000D01*
X111545000Y-113196000D01*
X111547000Y-113198000D01*
X111548000Y-113200000D01*
X111550000Y-113202000D01*
X111551000Y-113205000D01*
X111552000Y-113207000D01*
X111553000Y-113210000D01*
X111553000Y-113212000D01*
X111554000Y-113215000D01*
X111554000Y-113217000D01*
X111555000Y-113220000D01*
X111555000Y-113870000D01*
X111554000Y-113873000D01*
X111554000Y-113875000D01*
X111553000Y-113878000D01*
X111553000Y-113880000D01*
X111552000Y-113883000D01*
X111551000Y-113885000D01*
X111550000Y-113888000D01*
X111548000Y-113890000D01*
X111547000Y-113892000D01*
X111545000Y-113894000D01*
X111544000Y-113896000D01*
X111536000Y-113904000D01*
X111534000Y-113905000D01*
X111532000Y-113907000D01*
X111530000Y-113908000D01*
X111528000Y-113910000D01*
X111525000Y-113911000D01*
X111523000Y-113912000D01*
X111520000Y-113913000D01*
X111518000Y-113913000D01*
X111515000Y-113914000D01*
X111513000Y-113914000D01*
X111510000Y-113915000D01*
X109910000Y-113915000D01*
X109907000Y-113914000D01*
X109905000Y-113914000D01*
X109902000Y-113913000D01*
X109900000Y-113913000D01*
X109897000Y-113912000D01*
X109895000Y-113911000D01*
X109892000Y-113910000D01*
X109890000Y-113908000D01*
X109888000Y-113907000D01*
X109886000Y-113905000D01*
X109884000Y-113904000D01*
X109876000Y-113896000D01*
X109875000Y-113894000D01*
X109873000Y-113892000D01*
X109872000Y-113890000D01*
X109870000Y-113888000D01*
X109869000Y-113885000D01*
X109868000Y-113883000D01*
X109867000Y-113880000D01*
X109867000Y-113878000D01*
X109866000Y-113875000D01*
X109866000Y-113873000D01*
X109865000Y-113870000D01*
X109865000Y-113220000D01*
X109866000Y-113217000D01*
X109866000Y-113215000D01*
X109867000Y-113212000D01*
X109867000Y-113210000D01*
X109868000Y-113207000D01*
X109869000Y-113205000D01*
X109870000Y-113202000D01*
X109872000Y-113200000D01*
X109873000Y-113198000D01*
X109875000Y-113196000D01*
X109876000Y-113194000D01*
X109884000Y-113186000D01*
X109886000Y-113185000D01*
X109888000Y-113183000D01*
X109890000Y-113182000D01*
X109892000Y-113180000D01*
X109895000Y-113179000D01*
X109897000Y-113178000D01*
X109900000Y-113177000D01*
X109902000Y-113177000D01*
X109905000Y-113176000D01*
X109907000Y-113176000D01*
X109910000Y-113175000D01*
X111510000Y-113175000D01*
X111513000Y-113176000D01*
G37*
X111513000Y-113176000D02*
X111515000Y-113176000D01*
X111518000Y-113177000D01*
X111520000Y-113177000D01*
X111523000Y-113178000D01*
X111525000Y-113179000D01*
X111528000Y-113180000D01*
X111530000Y-113182000D01*
X111532000Y-113183000D01*
X111534000Y-113185000D01*
X111536000Y-113186000D01*
X111544000Y-113194000D01*
X111545000Y-113196000D01*
X111547000Y-113198000D01*
X111548000Y-113200000D01*
X111550000Y-113202000D01*
X111551000Y-113205000D01*
X111552000Y-113207000D01*
X111553000Y-113210000D01*
X111553000Y-113212000D01*
X111554000Y-113215000D01*
X111554000Y-113217000D01*
X111555000Y-113220000D01*
X111555000Y-113870000D01*
X111554000Y-113873000D01*
X111554000Y-113875000D01*
X111553000Y-113878000D01*
X111553000Y-113880000D01*
X111552000Y-113883000D01*
X111551000Y-113885000D01*
X111550000Y-113888000D01*
X111548000Y-113890000D01*
X111547000Y-113892000D01*
X111545000Y-113894000D01*
X111544000Y-113896000D01*
X111536000Y-113904000D01*
X111534000Y-113905000D01*
X111532000Y-113907000D01*
X111530000Y-113908000D01*
X111528000Y-113910000D01*
X111525000Y-113911000D01*
X111523000Y-113912000D01*
X111520000Y-113913000D01*
X111518000Y-113913000D01*
X111515000Y-113914000D01*
X111513000Y-113914000D01*
X111510000Y-113915000D01*
X109910000Y-113915000D01*
X109907000Y-113914000D01*
X109905000Y-113914000D01*
X109902000Y-113913000D01*
X109900000Y-113913000D01*
X109897000Y-113912000D01*
X109895000Y-113911000D01*
X109892000Y-113910000D01*
X109890000Y-113908000D01*
X109888000Y-113907000D01*
X109886000Y-113905000D01*
X109884000Y-113904000D01*
X109876000Y-113896000D01*
X109875000Y-113894000D01*
X109873000Y-113892000D01*
X109872000Y-113890000D01*
X109870000Y-113888000D01*
X109869000Y-113885000D01*
X109868000Y-113883000D01*
X109867000Y-113880000D01*
X109867000Y-113878000D01*
X109866000Y-113875000D01*
X109866000Y-113873000D01*
X109865000Y-113870000D01*
X109865000Y-113220000D01*
X109866000Y-113217000D01*
X109866000Y-113215000D01*
X109867000Y-113212000D01*
X109867000Y-113210000D01*
X109868000Y-113207000D01*
X109869000Y-113205000D01*
X109870000Y-113202000D01*
X109872000Y-113200000D01*
X109873000Y-113198000D01*
X109875000Y-113196000D01*
X109876000Y-113194000D01*
X109884000Y-113186000D01*
X109886000Y-113185000D01*
X109888000Y-113183000D01*
X109890000Y-113182000D01*
X109892000Y-113180000D01*
X109895000Y-113179000D01*
X109897000Y-113178000D01*
X109900000Y-113177000D01*
X109902000Y-113177000D01*
X109905000Y-113176000D01*
X109907000Y-113176000D01*
X109910000Y-113175000D01*
X111510000Y-113175000D01*
X111513000Y-113176000D01*
G36*
X116913000Y-116986000D02*
G01*
X116915000Y-116986000D01*
X116918000Y-116987000D01*
X116920000Y-116987000D01*
X116923000Y-116988000D01*
X116925000Y-116989000D01*
X116928000Y-116990000D01*
X116930000Y-116992000D01*
X116932000Y-116993000D01*
X116934000Y-116995000D01*
X116936000Y-116996000D01*
X116944000Y-117004000D01*
X116945000Y-117006000D01*
X116947000Y-117008000D01*
X116948000Y-117010000D01*
X116950000Y-117012000D01*
X116951000Y-117015000D01*
X116952000Y-117017000D01*
X116953000Y-117020000D01*
X116953000Y-117022000D01*
X116954000Y-117025000D01*
X116954000Y-117027000D01*
X116955000Y-117030000D01*
X116955000Y-117680000D01*
X116954000Y-117683000D01*
X116954000Y-117685000D01*
X116953000Y-117688000D01*
X116953000Y-117690000D01*
X116952000Y-117693000D01*
X116951000Y-117695000D01*
X116950000Y-117698000D01*
X116948000Y-117700000D01*
X116947000Y-117702000D01*
X116945000Y-117704000D01*
X116944000Y-117706000D01*
X116936000Y-117714000D01*
X116934000Y-117715000D01*
X116932000Y-117717000D01*
X116930000Y-117718000D01*
X116928000Y-117720000D01*
X116925000Y-117721000D01*
X116923000Y-117722000D01*
X116920000Y-117723000D01*
X116918000Y-117723000D01*
X116915000Y-117724000D01*
X116913000Y-117724000D01*
X116910000Y-117725000D01*
X115310000Y-117725000D01*
X115307000Y-117724000D01*
X115305000Y-117724000D01*
X115302000Y-117723000D01*
X115300000Y-117723000D01*
X115297000Y-117722000D01*
X115295000Y-117721000D01*
X115292000Y-117720000D01*
X115290000Y-117718000D01*
X115288000Y-117717000D01*
X115286000Y-117715000D01*
X115284000Y-117714000D01*
X115276000Y-117706000D01*
X115275000Y-117704000D01*
X115273000Y-117702000D01*
X115272000Y-117700000D01*
X115270000Y-117698000D01*
X115269000Y-117695000D01*
X115268000Y-117693000D01*
X115267000Y-117690000D01*
X115267000Y-117688000D01*
X115266000Y-117685000D01*
X115266000Y-117683000D01*
X115265000Y-117680000D01*
X115265000Y-117030000D01*
X115266000Y-117027000D01*
X115266000Y-117025000D01*
X115267000Y-117022000D01*
X115267000Y-117020000D01*
X115268000Y-117017000D01*
X115269000Y-117015000D01*
X115270000Y-117012000D01*
X115272000Y-117010000D01*
X115273000Y-117008000D01*
X115275000Y-117006000D01*
X115276000Y-117004000D01*
X115284000Y-116996000D01*
X115286000Y-116995000D01*
X115288000Y-116993000D01*
X115290000Y-116992000D01*
X115292000Y-116990000D01*
X115295000Y-116989000D01*
X115297000Y-116988000D01*
X115300000Y-116987000D01*
X115302000Y-116987000D01*
X115305000Y-116986000D01*
X115307000Y-116986000D01*
X115310000Y-116985000D01*
X116910000Y-116985000D01*
X116913000Y-116986000D01*
G37*
X116913000Y-116986000D02*
X116915000Y-116986000D01*
X116918000Y-116987000D01*
X116920000Y-116987000D01*
X116923000Y-116988000D01*
X116925000Y-116989000D01*
X116928000Y-116990000D01*
X116930000Y-116992000D01*
X116932000Y-116993000D01*
X116934000Y-116995000D01*
X116936000Y-116996000D01*
X116944000Y-117004000D01*
X116945000Y-117006000D01*
X116947000Y-117008000D01*
X116948000Y-117010000D01*
X116950000Y-117012000D01*
X116951000Y-117015000D01*
X116952000Y-117017000D01*
X116953000Y-117020000D01*
X116953000Y-117022000D01*
X116954000Y-117025000D01*
X116954000Y-117027000D01*
X116955000Y-117030000D01*
X116955000Y-117680000D01*
X116954000Y-117683000D01*
X116954000Y-117685000D01*
X116953000Y-117688000D01*
X116953000Y-117690000D01*
X116952000Y-117693000D01*
X116951000Y-117695000D01*
X116950000Y-117698000D01*
X116948000Y-117700000D01*
X116947000Y-117702000D01*
X116945000Y-117704000D01*
X116944000Y-117706000D01*
X116936000Y-117714000D01*
X116934000Y-117715000D01*
X116932000Y-117717000D01*
X116930000Y-117718000D01*
X116928000Y-117720000D01*
X116925000Y-117721000D01*
X116923000Y-117722000D01*
X116920000Y-117723000D01*
X116918000Y-117723000D01*
X116915000Y-117724000D01*
X116913000Y-117724000D01*
X116910000Y-117725000D01*
X115310000Y-117725000D01*
X115307000Y-117724000D01*
X115305000Y-117724000D01*
X115302000Y-117723000D01*
X115300000Y-117723000D01*
X115297000Y-117722000D01*
X115295000Y-117721000D01*
X115292000Y-117720000D01*
X115290000Y-117718000D01*
X115288000Y-117717000D01*
X115286000Y-117715000D01*
X115284000Y-117714000D01*
X115276000Y-117706000D01*
X115275000Y-117704000D01*
X115273000Y-117702000D01*
X115272000Y-117700000D01*
X115270000Y-117698000D01*
X115269000Y-117695000D01*
X115268000Y-117693000D01*
X115267000Y-117690000D01*
X115267000Y-117688000D01*
X115266000Y-117685000D01*
X115266000Y-117683000D01*
X115265000Y-117680000D01*
X115265000Y-117030000D01*
X115266000Y-117027000D01*
X115266000Y-117025000D01*
X115267000Y-117022000D01*
X115267000Y-117020000D01*
X115268000Y-117017000D01*
X115269000Y-117015000D01*
X115270000Y-117012000D01*
X115272000Y-117010000D01*
X115273000Y-117008000D01*
X115275000Y-117006000D01*
X115276000Y-117004000D01*
X115284000Y-116996000D01*
X115286000Y-116995000D01*
X115288000Y-116993000D01*
X115290000Y-116992000D01*
X115292000Y-116990000D01*
X115295000Y-116989000D01*
X115297000Y-116988000D01*
X115300000Y-116987000D01*
X115302000Y-116987000D01*
X115305000Y-116986000D01*
X115307000Y-116986000D01*
X115310000Y-116985000D01*
X116910000Y-116985000D01*
X116913000Y-116986000D01*
G36*
X111513000Y-116986000D02*
G01*
X111515000Y-116986000D01*
X111518000Y-116987000D01*
X111520000Y-116987000D01*
X111523000Y-116988000D01*
X111525000Y-116989000D01*
X111528000Y-116990000D01*
X111530000Y-116992000D01*
X111532000Y-116993000D01*
X111534000Y-116995000D01*
X111536000Y-116996000D01*
X111544000Y-117004000D01*
X111545000Y-117006000D01*
X111547000Y-117008000D01*
X111548000Y-117010000D01*
X111550000Y-117012000D01*
X111551000Y-117015000D01*
X111552000Y-117017000D01*
X111553000Y-117020000D01*
X111553000Y-117022000D01*
X111554000Y-117025000D01*
X111554000Y-117027000D01*
X111555000Y-117030000D01*
X111555000Y-117680000D01*
X111554000Y-117683000D01*
X111554000Y-117685000D01*
X111553000Y-117688000D01*
X111553000Y-117690000D01*
X111552000Y-117693000D01*
X111551000Y-117695000D01*
X111550000Y-117698000D01*
X111548000Y-117700000D01*
X111547000Y-117702000D01*
X111545000Y-117704000D01*
X111544000Y-117706000D01*
X111536000Y-117714000D01*
X111534000Y-117715000D01*
X111532000Y-117717000D01*
X111530000Y-117718000D01*
X111528000Y-117720000D01*
X111525000Y-117721000D01*
X111523000Y-117722000D01*
X111520000Y-117723000D01*
X111518000Y-117723000D01*
X111515000Y-117724000D01*
X111513000Y-117724000D01*
X111510000Y-117725000D01*
X109910000Y-117725000D01*
X109907000Y-117724000D01*
X109905000Y-117724000D01*
X109902000Y-117723000D01*
X109900000Y-117723000D01*
X109897000Y-117722000D01*
X109895000Y-117721000D01*
X109892000Y-117720000D01*
X109890000Y-117718000D01*
X109888000Y-117717000D01*
X109886000Y-117715000D01*
X109884000Y-117714000D01*
X109876000Y-117706000D01*
X109875000Y-117704000D01*
X109873000Y-117702000D01*
X109872000Y-117700000D01*
X109870000Y-117698000D01*
X109869000Y-117695000D01*
X109868000Y-117693000D01*
X109867000Y-117690000D01*
X109867000Y-117688000D01*
X109866000Y-117685000D01*
X109866000Y-117683000D01*
X109865000Y-117680000D01*
X109865000Y-117030000D01*
X109866000Y-117027000D01*
X109866000Y-117025000D01*
X109867000Y-117022000D01*
X109867000Y-117020000D01*
X109868000Y-117017000D01*
X109869000Y-117015000D01*
X109870000Y-117012000D01*
X109872000Y-117010000D01*
X109873000Y-117008000D01*
X109875000Y-117006000D01*
X109876000Y-117004000D01*
X109884000Y-116996000D01*
X109886000Y-116995000D01*
X109888000Y-116993000D01*
X109890000Y-116992000D01*
X109892000Y-116990000D01*
X109895000Y-116989000D01*
X109897000Y-116988000D01*
X109900000Y-116987000D01*
X109902000Y-116987000D01*
X109905000Y-116986000D01*
X109907000Y-116986000D01*
X109910000Y-116985000D01*
X111510000Y-116985000D01*
X111513000Y-116986000D01*
G37*
X111513000Y-116986000D02*
X111515000Y-116986000D01*
X111518000Y-116987000D01*
X111520000Y-116987000D01*
X111523000Y-116988000D01*
X111525000Y-116989000D01*
X111528000Y-116990000D01*
X111530000Y-116992000D01*
X111532000Y-116993000D01*
X111534000Y-116995000D01*
X111536000Y-116996000D01*
X111544000Y-117004000D01*
X111545000Y-117006000D01*
X111547000Y-117008000D01*
X111548000Y-117010000D01*
X111550000Y-117012000D01*
X111551000Y-117015000D01*
X111552000Y-117017000D01*
X111553000Y-117020000D01*
X111553000Y-117022000D01*
X111554000Y-117025000D01*
X111554000Y-117027000D01*
X111555000Y-117030000D01*
X111555000Y-117680000D01*
X111554000Y-117683000D01*
X111554000Y-117685000D01*
X111553000Y-117688000D01*
X111553000Y-117690000D01*
X111552000Y-117693000D01*
X111551000Y-117695000D01*
X111550000Y-117698000D01*
X111548000Y-117700000D01*
X111547000Y-117702000D01*
X111545000Y-117704000D01*
X111544000Y-117706000D01*
X111536000Y-117714000D01*
X111534000Y-117715000D01*
X111532000Y-117717000D01*
X111530000Y-117718000D01*
X111528000Y-117720000D01*
X111525000Y-117721000D01*
X111523000Y-117722000D01*
X111520000Y-117723000D01*
X111518000Y-117723000D01*
X111515000Y-117724000D01*
X111513000Y-117724000D01*
X111510000Y-117725000D01*
X109910000Y-117725000D01*
X109907000Y-117724000D01*
X109905000Y-117724000D01*
X109902000Y-117723000D01*
X109900000Y-117723000D01*
X109897000Y-117722000D01*
X109895000Y-117721000D01*
X109892000Y-117720000D01*
X109890000Y-117718000D01*
X109888000Y-117717000D01*
X109886000Y-117715000D01*
X109884000Y-117714000D01*
X109876000Y-117706000D01*
X109875000Y-117704000D01*
X109873000Y-117702000D01*
X109872000Y-117700000D01*
X109870000Y-117698000D01*
X109869000Y-117695000D01*
X109868000Y-117693000D01*
X109867000Y-117690000D01*
X109867000Y-117688000D01*
X109866000Y-117685000D01*
X109866000Y-117683000D01*
X109865000Y-117680000D01*
X109865000Y-117030000D01*
X109866000Y-117027000D01*
X109866000Y-117025000D01*
X109867000Y-117022000D01*
X109867000Y-117020000D01*
X109868000Y-117017000D01*
X109869000Y-117015000D01*
X109870000Y-117012000D01*
X109872000Y-117010000D01*
X109873000Y-117008000D01*
X109875000Y-117006000D01*
X109876000Y-117004000D01*
X109884000Y-116996000D01*
X109886000Y-116995000D01*
X109888000Y-116993000D01*
X109890000Y-116992000D01*
X109892000Y-116990000D01*
X109895000Y-116989000D01*
X109897000Y-116988000D01*
X109900000Y-116987000D01*
X109902000Y-116987000D01*
X109905000Y-116986000D01*
X109907000Y-116986000D01*
X109910000Y-116985000D01*
X111510000Y-116985000D01*
X111513000Y-116986000D01*
G36*
X114765000Y-117150000D02*
G01*
X112055000Y-117150000D01*
X112055000Y-113750000D01*
X114765000Y-113750000D01*
X114765000Y-117150000D01*
G37*
X114765000Y-117150000D02*
X112055000Y-117150000D01*
X112055000Y-113750000D01*
X114765000Y-113750000D01*
X114765000Y-117150000D01*
G36*
X111513000Y-115716000D02*
G01*
X111515000Y-115716000D01*
X111518000Y-115717000D01*
X111520000Y-115717000D01*
X111523000Y-115718000D01*
X111525000Y-115719000D01*
X111528000Y-115720000D01*
X111530000Y-115722000D01*
X111532000Y-115723000D01*
X111534000Y-115725000D01*
X111536000Y-115726000D01*
X111544000Y-115734000D01*
X111545000Y-115736000D01*
X111547000Y-115738000D01*
X111548000Y-115740000D01*
X111550000Y-115742000D01*
X111551000Y-115745000D01*
X111552000Y-115747000D01*
X111553000Y-115750000D01*
X111553000Y-115752000D01*
X111554000Y-115755000D01*
X111554000Y-115757000D01*
X111555000Y-115760000D01*
X111555000Y-116410000D01*
X111554000Y-116413000D01*
X111554000Y-116415000D01*
X111553000Y-116418000D01*
X111553000Y-116420000D01*
X111552000Y-116423000D01*
X111551000Y-116425000D01*
X111550000Y-116428000D01*
X111548000Y-116430000D01*
X111547000Y-116432000D01*
X111545000Y-116434000D01*
X111544000Y-116436000D01*
X111536000Y-116444000D01*
X111534000Y-116445000D01*
X111532000Y-116447000D01*
X111530000Y-116448000D01*
X111528000Y-116450000D01*
X111525000Y-116451000D01*
X111523000Y-116452000D01*
X111520000Y-116453000D01*
X111518000Y-116453000D01*
X111515000Y-116454000D01*
X111513000Y-116454000D01*
X111510000Y-116455000D01*
X109910000Y-116455000D01*
X109907000Y-116454000D01*
X109905000Y-116454000D01*
X109902000Y-116453000D01*
X109900000Y-116453000D01*
X109897000Y-116452000D01*
X109895000Y-116451000D01*
X109892000Y-116450000D01*
X109890000Y-116448000D01*
X109888000Y-116447000D01*
X109886000Y-116445000D01*
X109884000Y-116444000D01*
X109876000Y-116436000D01*
X109875000Y-116434000D01*
X109873000Y-116432000D01*
X109872000Y-116430000D01*
X109870000Y-116428000D01*
X109869000Y-116425000D01*
X109868000Y-116423000D01*
X109867000Y-116420000D01*
X109867000Y-116418000D01*
X109866000Y-116415000D01*
X109866000Y-116413000D01*
X109865000Y-116410000D01*
X109865000Y-115760000D01*
X109866000Y-115757000D01*
X109866000Y-115755000D01*
X109867000Y-115752000D01*
X109867000Y-115750000D01*
X109868000Y-115747000D01*
X109869000Y-115745000D01*
X109870000Y-115742000D01*
X109872000Y-115740000D01*
X109873000Y-115738000D01*
X109875000Y-115736000D01*
X109876000Y-115734000D01*
X109884000Y-115726000D01*
X109886000Y-115725000D01*
X109888000Y-115723000D01*
X109890000Y-115722000D01*
X109892000Y-115720000D01*
X109895000Y-115719000D01*
X109897000Y-115718000D01*
X109900000Y-115717000D01*
X109902000Y-115717000D01*
X109905000Y-115716000D01*
X109907000Y-115716000D01*
X109910000Y-115715000D01*
X111510000Y-115715000D01*
X111513000Y-115716000D01*
G37*
X111513000Y-115716000D02*
X111515000Y-115716000D01*
X111518000Y-115717000D01*
X111520000Y-115717000D01*
X111523000Y-115718000D01*
X111525000Y-115719000D01*
X111528000Y-115720000D01*
X111530000Y-115722000D01*
X111532000Y-115723000D01*
X111534000Y-115725000D01*
X111536000Y-115726000D01*
X111544000Y-115734000D01*
X111545000Y-115736000D01*
X111547000Y-115738000D01*
X111548000Y-115740000D01*
X111550000Y-115742000D01*
X111551000Y-115745000D01*
X111552000Y-115747000D01*
X111553000Y-115750000D01*
X111553000Y-115752000D01*
X111554000Y-115755000D01*
X111554000Y-115757000D01*
X111555000Y-115760000D01*
X111555000Y-116410000D01*
X111554000Y-116413000D01*
X111554000Y-116415000D01*
X111553000Y-116418000D01*
X111553000Y-116420000D01*
X111552000Y-116423000D01*
X111551000Y-116425000D01*
X111550000Y-116428000D01*
X111548000Y-116430000D01*
X111547000Y-116432000D01*
X111545000Y-116434000D01*
X111544000Y-116436000D01*
X111536000Y-116444000D01*
X111534000Y-116445000D01*
X111532000Y-116447000D01*
X111530000Y-116448000D01*
X111528000Y-116450000D01*
X111525000Y-116451000D01*
X111523000Y-116452000D01*
X111520000Y-116453000D01*
X111518000Y-116453000D01*
X111515000Y-116454000D01*
X111513000Y-116454000D01*
X111510000Y-116455000D01*
X109910000Y-116455000D01*
X109907000Y-116454000D01*
X109905000Y-116454000D01*
X109902000Y-116453000D01*
X109900000Y-116453000D01*
X109897000Y-116452000D01*
X109895000Y-116451000D01*
X109892000Y-116450000D01*
X109890000Y-116448000D01*
X109888000Y-116447000D01*
X109886000Y-116445000D01*
X109884000Y-116444000D01*
X109876000Y-116436000D01*
X109875000Y-116434000D01*
X109873000Y-116432000D01*
X109872000Y-116430000D01*
X109870000Y-116428000D01*
X109869000Y-116425000D01*
X109868000Y-116423000D01*
X109867000Y-116420000D01*
X109867000Y-116418000D01*
X109866000Y-116415000D01*
X109866000Y-116413000D01*
X109865000Y-116410000D01*
X109865000Y-115760000D01*
X109866000Y-115757000D01*
X109866000Y-115755000D01*
X109867000Y-115752000D01*
X109867000Y-115750000D01*
X109868000Y-115747000D01*
X109869000Y-115745000D01*
X109870000Y-115742000D01*
X109872000Y-115740000D01*
X109873000Y-115738000D01*
X109875000Y-115736000D01*
X109876000Y-115734000D01*
X109884000Y-115726000D01*
X109886000Y-115725000D01*
X109888000Y-115723000D01*
X109890000Y-115722000D01*
X109892000Y-115720000D01*
X109895000Y-115719000D01*
X109897000Y-115718000D01*
X109900000Y-115717000D01*
X109902000Y-115717000D01*
X109905000Y-115716000D01*
X109907000Y-115716000D01*
X109910000Y-115715000D01*
X111510000Y-115715000D01*
X111513000Y-115716000D01*
G36*
X116913000Y-113176000D02*
G01*
X116915000Y-113176000D01*
X116918000Y-113177000D01*
X116920000Y-113177000D01*
X116923000Y-113178000D01*
X116925000Y-113179000D01*
X116928000Y-113180000D01*
X116930000Y-113182000D01*
X116932000Y-113183000D01*
X116934000Y-113185000D01*
X116936000Y-113186000D01*
X116944000Y-113194000D01*
X116945000Y-113196000D01*
X116947000Y-113198000D01*
X116948000Y-113200000D01*
X116950000Y-113202000D01*
X116951000Y-113205000D01*
X116952000Y-113207000D01*
X116953000Y-113210000D01*
X116953000Y-113212000D01*
X116954000Y-113215000D01*
X116954000Y-113217000D01*
X116955000Y-113220000D01*
X116955000Y-113870000D01*
X116954000Y-113873000D01*
X116954000Y-113875000D01*
X116953000Y-113878000D01*
X116953000Y-113880000D01*
X116952000Y-113883000D01*
X116951000Y-113885000D01*
X116950000Y-113888000D01*
X116948000Y-113890000D01*
X116947000Y-113892000D01*
X116945000Y-113894000D01*
X116944000Y-113896000D01*
X116936000Y-113904000D01*
X116934000Y-113905000D01*
X116932000Y-113907000D01*
X116930000Y-113908000D01*
X116928000Y-113910000D01*
X116925000Y-113911000D01*
X116923000Y-113912000D01*
X116920000Y-113913000D01*
X116918000Y-113913000D01*
X116915000Y-113914000D01*
X116913000Y-113914000D01*
X116910000Y-113915000D01*
X115310000Y-113915000D01*
X115307000Y-113914000D01*
X115305000Y-113914000D01*
X115302000Y-113913000D01*
X115300000Y-113913000D01*
X115297000Y-113912000D01*
X115295000Y-113911000D01*
X115292000Y-113910000D01*
X115290000Y-113908000D01*
X115288000Y-113907000D01*
X115286000Y-113905000D01*
X115284000Y-113904000D01*
X115276000Y-113896000D01*
X115275000Y-113894000D01*
X115273000Y-113892000D01*
X115272000Y-113890000D01*
X115270000Y-113888000D01*
X115269000Y-113885000D01*
X115268000Y-113883000D01*
X115267000Y-113880000D01*
X115267000Y-113878000D01*
X115266000Y-113875000D01*
X115266000Y-113873000D01*
X115265000Y-113870000D01*
X115265000Y-113220000D01*
X115266000Y-113217000D01*
X115266000Y-113215000D01*
X115267000Y-113212000D01*
X115267000Y-113210000D01*
X115268000Y-113207000D01*
X115269000Y-113205000D01*
X115270000Y-113202000D01*
X115272000Y-113200000D01*
X115273000Y-113198000D01*
X115275000Y-113196000D01*
X115276000Y-113194000D01*
X115284000Y-113186000D01*
X115286000Y-113185000D01*
X115288000Y-113183000D01*
X115290000Y-113182000D01*
X115292000Y-113180000D01*
X115295000Y-113179000D01*
X115297000Y-113178000D01*
X115300000Y-113177000D01*
X115302000Y-113177000D01*
X115305000Y-113176000D01*
X115307000Y-113176000D01*
X115310000Y-113175000D01*
X116910000Y-113175000D01*
X116913000Y-113176000D01*
G37*
X116913000Y-113176000D02*
X116915000Y-113176000D01*
X116918000Y-113177000D01*
X116920000Y-113177000D01*
X116923000Y-113178000D01*
X116925000Y-113179000D01*
X116928000Y-113180000D01*
X116930000Y-113182000D01*
X116932000Y-113183000D01*
X116934000Y-113185000D01*
X116936000Y-113186000D01*
X116944000Y-113194000D01*
X116945000Y-113196000D01*
X116947000Y-113198000D01*
X116948000Y-113200000D01*
X116950000Y-113202000D01*
X116951000Y-113205000D01*
X116952000Y-113207000D01*
X116953000Y-113210000D01*
X116953000Y-113212000D01*
X116954000Y-113215000D01*
X116954000Y-113217000D01*
X116955000Y-113220000D01*
X116955000Y-113870000D01*
X116954000Y-113873000D01*
X116954000Y-113875000D01*
X116953000Y-113878000D01*
X116953000Y-113880000D01*
X116952000Y-113883000D01*
X116951000Y-113885000D01*
X116950000Y-113888000D01*
X116948000Y-113890000D01*
X116947000Y-113892000D01*
X116945000Y-113894000D01*
X116944000Y-113896000D01*
X116936000Y-113904000D01*
X116934000Y-113905000D01*
X116932000Y-113907000D01*
X116930000Y-113908000D01*
X116928000Y-113910000D01*
X116925000Y-113911000D01*
X116923000Y-113912000D01*
X116920000Y-113913000D01*
X116918000Y-113913000D01*
X116915000Y-113914000D01*
X116913000Y-113914000D01*
X116910000Y-113915000D01*
X115310000Y-113915000D01*
X115307000Y-113914000D01*
X115305000Y-113914000D01*
X115302000Y-113913000D01*
X115300000Y-113913000D01*
X115297000Y-113912000D01*
X115295000Y-113911000D01*
X115292000Y-113910000D01*
X115290000Y-113908000D01*
X115288000Y-113907000D01*
X115286000Y-113905000D01*
X115284000Y-113904000D01*
X115276000Y-113896000D01*
X115275000Y-113894000D01*
X115273000Y-113892000D01*
X115272000Y-113890000D01*
X115270000Y-113888000D01*
X115269000Y-113885000D01*
X115268000Y-113883000D01*
X115267000Y-113880000D01*
X115267000Y-113878000D01*
X115266000Y-113875000D01*
X115266000Y-113873000D01*
X115265000Y-113870000D01*
X115265000Y-113220000D01*
X115266000Y-113217000D01*
X115266000Y-113215000D01*
X115267000Y-113212000D01*
X115267000Y-113210000D01*
X115268000Y-113207000D01*
X115269000Y-113205000D01*
X115270000Y-113202000D01*
X115272000Y-113200000D01*
X115273000Y-113198000D01*
X115275000Y-113196000D01*
X115276000Y-113194000D01*
X115284000Y-113186000D01*
X115286000Y-113185000D01*
X115288000Y-113183000D01*
X115290000Y-113182000D01*
X115292000Y-113180000D01*
X115295000Y-113179000D01*
X115297000Y-113178000D01*
X115300000Y-113177000D01*
X115302000Y-113177000D01*
X115305000Y-113176000D01*
X115307000Y-113176000D01*
X115310000Y-113175000D01*
X116910000Y-113175000D01*
X116913000Y-113176000D01*
%TD*%
D12*
%TO.C,U1*%
X117546000Y-101940000D03*
X117546000Y-99650000D03*
X117546000Y-97360000D03*
D13*
X110856000Y-99650000D03*
%TD*%
D14*
%TO.C,F2*%
X101200000Y-122200000D03*
D15*
X104900000Y-122200000D03*
X109200000Y-122200000D03*
X112900000Y-122200000D03*
%TD*%
D16*
%TO.C,J23*%
X198875000Y-108300000D03*
D17*
X196335000Y-108300000D03*
%TD*%
D16*
%TO.C,J22*%
X198875000Y-105400000D03*
D17*
X196335000Y-105400000D03*
%TD*%
D16*
%TO.C,J4*%
X198875000Y-102500000D03*
D17*
X196335000Y-102500000D03*
%TD*%
D18*
%TO.C,R49*%
X153600000Y-78150000D03*
X151600000Y-78150000D03*
%TD*%
D19*
%TO.C,C11*%
X122150000Y-110647349D03*
D20*
X122150000Y-114147349D03*
%TD*%
D21*
%TO.C,J2*%
X199685500Y-97900000D03*
X200472900Y-97900000D03*
X195353100Y-89260000D03*
X199685500Y-89260000D03*
X200472900Y-89260000D03*
X196445300Y-97900002D03*
X195353100Y-97900002D03*
X196445300Y-89260000D03*
D22*
X200079200Y-97900002D03*
X200079200Y-89259998D03*
D23*
X195899200Y-97900002D03*
X195899200Y-89259998D03*
D24*
X196399199Y-96469999D03*
X196399199Y-90690001D03*
D25*
X195324200Y-96780000D03*
X195324200Y-95980001D03*
D26*
X195324200Y-94830000D03*
X195324200Y-93830000D03*
X195324200Y-93330000D03*
X195324200Y-92330000D03*
D25*
X195324200Y-90380000D03*
X195324200Y-91179999D03*
D26*
X195324200Y-91830001D03*
X195324200Y-92829999D03*
X195324200Y-94330001D03*
X195324200Y-95329999D03*
%TD*%
D27*
%TO.C,F1*%
X121350000Y-101825000D03*
X121350000Y-97375000D03*
%TD*%
D28*
%TO.C,U4*%
X121075000Y-118445000D03*
X121075000Y-119715000D03*
X121075000Y-120985000D03*
X121075000Y-122255000D03*
X126025000Y-122255000D03*
X126025000Y-120985000D03*
X126025000Y-119715000D03*
X126025000Y-118445000D03*
%TD*%
D29*
%TO.C,C17*%
X189487500Y-115500000D03*
X187412500Y-115500000D03*
%TD*%
D18*
%TO.C,R29*%
X152700000Y-120850000D03*
X150700000Y-120850000D03*
%TD*%
D30*
%TO.C,C3*%
X114600000Y-104862500D03*
X114600000Y-106937500D03*
%TD*%
D18*
%TO.C,R18*%
X130600000Y-122100000D03*
X128600000Y-122100000D03*
%TD*%
D31*
%TO.C,R31*%
X178450000Y-111750000D03*
X180450000Y-111750000D03*
%TD*%
D32*
%TO.C,C19*%
X114900000Y-86850152D03*
X114900000Y-84775152D03*
%TD*%
D18*
%TO.C,R28*%
X152700000Y-118400000D03*
X150700000Y-118400000D03*
%TD*%
D33*
%TO.C,RN1*%
X115250000Y-91050000D03*
D34*
X114450000Y-91050000D03*
X113650000Y-91050000D03*
X113650000Y-89250000D03*
X114450000Y-89250000D03*
D33*
X115250000Y-89250000D03*
X112850000Y-91050000D03*
X112850000Y-89250000D03*
%TD*%
D35*
%TO.C,U2*%
X112760000Y-113500000D03*
X114060000Y-113500000D03*
X112760000Y-114800000D03*
X114060000Y-114800000D03*
X112760000Y-116100000D03*
X114060000Y-116100000D03*
X112760000Y-117400000D03*
X114060000Y-117400000D03*
%TD*%
D36*
%TO.C,R10*%
X157400000Y-127500000D03*
X157400000Y-125500000D03*
%TD*%
D29*
%TO.C,C8*%
X124912500Y-101400000D03*
X126987500Y-101400000D03*
%TD*%
D37*
%TO.C,R6*%
X157095000Y-107825000D03*
X157095000Y-109825000D03*
%TD*%
D18*
%TO.C,R37*%
X104000000Y-78150000D03*
X102000000Y-78150000D03*
%TD*%
D38*
%TO.C,Q2*%
X156850000Y-118600000D03*
X154950000Y-118600000D03*
X155900000Y-121600000D03*
%TD*%
D39*
%TO.C,J9*%
X175121560Y-133744960D03*
D40*
X177621560Y-133744960D03*
%TD*%
D18*
%TO.C,R17*%
X118600000Y-119400000D03*
X116600000Y-119400000D03*
%TD*%
D41*
%TO.C,D5*%
X195750000Y-127600000D03*
X194800000Y-125400000D03*
X196700000Y-125400000D03*
%TD*%
D31*
%TO.C,R32*%
X198650000Y-127800000D03*
X200650000Y-127800000D03*
%TD*%
%TO.C,R9*%
X143095000Y-103375000D03*
X145095000Y-103375000D03*
%TD*%
D29*
%TO.C,C16*%
X175687500Y-127800000D03*
X173612500Y-127800000D03*
%TD*%
D42*
%TO.C,D1*%
X106800000Y-111500000D03*
X101800000Y-111500000D03*
%TD*%
D30*
%TO.C,C44*%
X160500000Y-84762500D03*
X160500000Y-86837500D03*
%TD*%
D37*
%TO.C,R3*%
X156945000Y-102275000D03*
X156945000Y-104275000D03*
%TD*%
D29*
%TO.C,C18*%
X192887500Y-125100000D03*
X190812500Y-125100000D03*
%TD*%
D43*
%TO.C,U3*%
X147810000Y-102030000D03*
X147810000Y-103300000D03*
X147810000Y-104570000D03*
X147810000Y-105840000D03*
X147810000Y-107110000D03*
X147810000Y-108380000D03*
X147810000Y-109650000D03*
X147810000Y-110920000D03*
X152980000Y-110920000D03*
X152980000Y-109650000D03*
X152980000Y-108380000D03*
X152980000Y-107110000D03*
X152980000Y-105840000D03*
X152980000Y-104570000D03*
X152980000Y-103300000D03*
X152980000Y-102030000D03*
%TD*%
D18*
%TO.C,R24*%
X175650000Y-125100000D03*
X173650000Y-125100000D03*
%TD*%
D39*
%TO.C,J7*%
X183522080Y-133744800D03*
D40*
X186022080Y-133744800D03*
%TD*%
D18*
%TO.C,R55*%
X153600000Y-80100000D03*
X151600000Y-80100000D03*
%TD*%
D44*
%TO.C,J3*%
X180940000Y-108440000D03*
X178400000Y-108440000D03*
X175860000Y-108440000D03*
X173320000Y-108440000D03*
X170780000Y-108440000D03*
X168240000Y-108440000D03*
X165700000Y-108440000D03*
X163160000Y-108440000D03*
X180940000Y-105900000D03*
X178400000Y-105900000D03*
X175860000Y-105900000D03*
X173320000Y-105900000D03*
X170780000Y-105900000D03*
X168240000Y-105900000D03*
X165700000Y-105900000D03*
X163160000Y-105900000D03*
X180940000Y-103360000D03*
X178400000Y-103360000D03*
X165700000Y-103360000D03*
X163160000Y-103360000D03*
X180940000Y-100820000D03*
X178400000Y-100820000D03*
X165700000Y-100820000D03*
X163160000Y-100820000D03*
X180940000Y-98280000D03*
X178400000Y-98280000D03*
X165700000Y-98280000D03*
X163160000Y-98280000D03*
X180940000Y-95740000D03*
X178400000Y-95740000D03*
X165700000Y-95740000D03*
X163160000Y-95740000D03*
X180940000Y-93200000D03*
X178400000Y-93200000D03*
X175860000Y-93200000D03*
X173320000Y-93200000D03*
X170780000Y-93200000D03*
X168240000Y-93200000D03*
X165700000Y-93200000D03*
X163160000Y-93200000D03*
X180940000Y-90660000D03*
X178400000Y-90660000D03*
X175860000Y-90660000D03*
X173320000Y-90660000D03*
X170780000Y-90660000D03*
X168240000Y-90660000D03*
X165700000Y-90660000D03*
X163160000Y-90660000D03*
%TD*%
D30*
%TO.C,C1*%
X109400000Y-104862500D03*
X109400000Y-106937500D03*
%TD*%
D31*
%TO.C,R56*%
X151600000Y-82050000D03*
X153600000Y-82050000D03*
%TD*%
D45*
%TO.C,C24*%
X133837500Y-85900000D03*
X131762500Y-85900000D03*
%TD*%
D38*
%TO.C,Q1*%
X154950000Y-125700000D03*
X153050000Y-125700000D03*
X154000000Y-128700000D03*
%TD*%
D29*
%TO.C,C13*%
X180387500Y-125100000D03*
X178312500Y-125100000D03*
%TD*%
D42*
%TO.C,D3*%
X101800000Y-100250000D03*
X106800000Y-100250000D03*
%TD*%
D29*
%TO.C,C6*%
X124912500Y-98200000D03*
X126987500Y-98200000D03*
%TD*%
D46*
%TO.C,U9*%
X160250000Y-79107500D03*
D47*
X156025000Y-76227500D03*
X156675000Y-76227500D03*
X157325000Y-76227500D03*
X157975000Y-76227500D03*
X158625000Y-76227500D03*
X159275000Y-76227500D03*
X159925000Y-76227500D03*
X160575000Y-76227500D03*
X161225000Y-76227500D03*
X161875000Y-76227500D03*
X162525000Y-76227500D03*
X163175000Y-76227500D03*
X163825000Y-76227500D03*
X164475000Y-76227500D03*
X164475000Y-81987500D03*
X163825000Y-81987500D03*
X163175000Y-81987500D03*
X162525000Y-81987500D03*
X161875000Y-81987500D03*
X161225000Y-81987500D03*
X160575000Y-81987500D03*
X159925000Y-81987500D03*
X159275000Y-81987500D03*
X158625000Y-81987500D03*
X157975000Y-81987500D03*
X157325000Y-81987500D03*
X156675000Y-81987500D03*
X156025000Y-81987500D03*
%TD*%
D33*
%TO.C,RN3*%
X157800000Y-92100000D03*
X157800000Y-90300000D03*
X160200000Y-90300000D03*
D34*
X159400000Y-90300000D03*
X158600000Y-90300000D03*
X158600000Y-92100000D03*
X159400000Y-92100000D03*
D33*
X160200000Y-92100000D03*
%TD*%
D37*
%TO.C,R4*%
X122700000Y-104600000D03*
X122700000Y-106600000D03*
%TD*%
D36*
%TO.C,R42*%
X129950000Y-86800000D03*
X129950000Y-84800000D03*
%TD*%
D48*
%TO.C,REF\u002A\u002A*%
X104702600Y-105994800D03*
%TD*%
D30*
%TO.C,C10*%
X120000000Y-104562500D03*
X120000000Y-106637500D03*
%TD*%
D16*
%TO.C,JP2*%
X120875000Y-82950000D03*
D17*
X123415000Y-82950000D03*
%TD*%
D31*
%TO.C,R45*%
X126800000Y-82050000D03*
X128800000Y-82050000D03*
%TD*%
%TO.C,R12*%
X178350000Y-127800000D03*
X180350000Y-127800000D03*
%TD*%
D49*
%TO.C,J14*%
X117305000Y-131100000D03*
D50*
X122305000Y-131100000D03*
%TD*%
D51*
%TO.C,L1*%
X113512500Y-110400000D03*
X116487500Y-110400000D03*
%TD*%
D18*
%TO.C,R15*%
X188150000Y-125100000D03*
X186150000Y-125100000D03*
%TD*%
D32*
%TO.C,C41*%
X167175000Y-78125000D03*
X167175000Y-76050000D03*
%TD*%
D36*
%TO.C,R22*%
X171450000Y-127500000D03*
X171450000Y-125500000D03*
%TD*%
D32*
%TO.C,C37*%
X162500000Y-86850152D03*
X162500000Y-84775152D03*
%TD*%
D33*
%TO.C,RN4*%
X187350000Y-91050000D03*
X187350000Y-89250000D03*
X189750000Y-89250000D03*
D34*
X188950000Y-89250000D03*
X188150000Y-89250000D03*
X188150000Y-91050000D03*
X188950000Y-91050000D03*
D33*
X189750000Y-91050000D03*
%TD*%
D18*
%TO.C,R11*%
X161700000Y-125100000D03*
X159700000Y-125100000D03*
%TD*%
D45*
%TO.C,C14*%
X151432500Y-99475000D03*
X149357500Y-99475000D03*
%TD*%
D39*
%TO.C,J13*%
X169202600Y-120004800D03*
D40*
X171702600Y-120004800D03*
%TD*%
D19*
%TO.C,C45*%
X196140021Y-77873413D03*
D20*
X198640021Y-77873413D03*
%TD*%
D52*
%TO.C,D2*%
X101500000Y-116300000D03*
X106900000Y-116300000D03*
%TD*%
D53*
%TO.C,J17*%
X116375000Y-69020000D03*
D54*
X113875000Y-69020000D03*
X111375000Y-69020000D03*
X108875000Y-69020000D03*
%TD*%
D18*
%TO.C,R43*%
X104000000Y-80100000D03*
X102000000Y-80100000D03*
%TD*%
D47*
%TO.C,U8*%
X180950000Y-81998413D03*
X181600000Y-81998413D03*
X182250000Y-81998413D03*
X182900000Y-81998413D03*
X183550000Y-81998413D03*
X184200000Y-81998413D03*
X184850000Y-81998413D03*
X185500000Y-81998413D03*
X186150000Y-81998413D03*
X186800000Y-81998413D03*
X187450000Y-81998413D03*
X188100000Y-81998413D03*
X188750000Y-81998413D03*
X189400000Y-81998413D03*
X189400000Y-76238413D03*
X188750000Y-76238413D03*
X188100000Y-76238413D03*
X187450000Y-76238413D03*
X186800000Y-76238413D03*
X186150000Y-76238413D03*
X185500000Y-76238413D03*
X184850000Y-76238413D03*
X184200000Y-76238413D03*
X183550000Y-76238413D03*
X182900000Y-76238413D03*
X182250000Y-76238413D03*
X181600000Y-76238413D03*
X180950000Y-76238413D03*
D46*
X185175000Y-79118413D03*
%TD*%
D29*
%TO.C,C15*%
X168637500Y-127800000D03*
X166562500Y-127800000D03*
%TD*%
D19*
%TO.C,C31*%
X121017621Y-77875000D03*
D20*
X123517621Y-77875000D03*
%TD*%
D54*
%TO.C,J10*%
X182612600Y-120004900D03*
X180112600Y-120004900D03*
D55*
X177612600Y-120004900D03*
%TD*%
D16*
%TO.C,JP4*%
X195850000Y-82948413D03*
D17*
X198390000Y-82948413D03*
%TD*%
D32*
%TO.C,C25*%
X117400000Y-78137500D03*
X117400000Y-76062500D03*
%TD*%
D33*
%TO.C,RN2*%
X137650000Y-89250000D03*
X137650000Y-91050000D03*
X140050000Y-89250000D03*
D34*
X139250000Y-89250000D03*
X138450000Y-89250000D03*
X138450000Y-91050000D03*
X139250000Y-91050000D03*
D33*
X140050000Y-91050000D03*
%TD*%
D30*
%TO.C,C43*%
X185400000Y-84762500D03*
X185400000Y-86837500D03*
%TD*%
D18*
%TO.C,R47*%
X178500000Y-78150000D03*
X176500000Y-78150000D03*
%TD*%
D30*
%TO.C,C26*%
X117400000Y-80112500D03*
X117400000Y-82187500D03*
%TD*%
%TO.C,C4*%
X117200000Y-104862500D03*
X117200000Y-106937500D03*
%TD*%
D48*
%TO.C,REF\u002A\u002A*%
X184677600Y-70944800D03*
%TD*%
D49*
%TO.C,J1*%
X106095000Y-128500000D03*
D50*
X106095000Y-133500000D03*
%TD*%
D18*
%TO.C,R19*%
X130600000Y-119500000D03*
X128600000Y-119500000D03*
%TD*%
D32*
%TO.C,C20*%
X139700000Y-86850152D03*
X139700000Y-84775152D03*
%TD*%
D18*
%TO.C,R44*%
X128800000Y-80100000D03*
X126800000Y-80100000D03*
%TD*%
D30*
%TO.C,C30*%
X135700000Y-84762500D03*
X135700000Y-86837500D03*
%TD*%
D36*
%TO.C,R14*%
X185187500Y-115000000D03*
X185187500Y-113000000D03*
%TD*%
D28*
%TO.C,U5*%
X133180000Y-118445000D03*
X133180000Y-119715000D03*
X133180000Y-120985000D03*
X133180000Y-122255000D03*
X138130000Y-122255000D03*
X138130000Y-120985000D03*
X138130000Y-119715000D03*
X138130000Y-118445000D03*
%TD*%
D45*
%TO.C,C22*%
X109037500Y-85900000D03*
X106962500Y-85900000D03*
%TD*%
D30*
%TO.C,C28*%
X142350000Y-80105913D03*
X142350000Y-82180913D03*
%TD*%
D32*
%TO.C,C33*%
X189400000Y-86850152D03*
X189400000Y-84775152D03*
%TD*%
D31*
%TO.C,R54*%
X176500000Y-82050000D03*
X178500000Y-82050000D03*
%TD*%
D18*
%TO.C,R23*%
X168600000Y-125100000D03*
X166600000Y-125100000D03*
%TD*%
D36*
%TO.C,R52*%
X154750000Y-86800000D03*
X154750000Y-84800000D03*
%TD*%
D39*
%TO.C,J6*%
X158320520Y-133744880D03*
D40*
X160820520Y-133744880D03*
%TD*%
D31*
%TO.C,R25*%
X190850000Y-127750000D03*
X192850000Y-127750000D03*
%TD*%
D30*
%TO.C,C40*%
X192150000Y-80110913D03*
X192150000Y-82185913D03*
%TD*%
D39*
%TO.C,J16*%
X191922600Y-133744840D03*
D40*
X194422600Y-133744840D03*
%TD*%
D30*
%TO.C,C42*%
X167175000Y-80100000D03*
X167175000Y-82175000D03*
%TD*%
D38*
%TO.C,Q3*%
X175900000Y-112650000D03*
X174000000Y-112650000D03*
X174950000Y-115650000D03*
%TD*%
D30*
%TO.C,C29*%
X110900000Y-84762500D03*
X110900000Y-86837500D03*
%TD*%
D39*
%TO.C,J11*%
X149920000Y-133745000D03*
D40*
X152420000Y-133745000D03*
%TD*%
D32*
%TO.C,C35*%
X187400000Y-86850152D03*
X187400000Y-84775152D03*
%TD*%
D31*
%TO.C,R30*%
X178500000Y-113950000D03*
X180500000Y-113950000D03*
%TD*%
D36*
%TO.C,R21*%
X164300000Y-127500000D03*
X164300000Y-125500000D03*
%TD*%
D18*
%TO.C,R27*%
X150750000Y-127650000D03*
X148750000Y-127650000D03*
%TD*%
D30*
%TO.C,C5*%
X183750000Y-101812500D03*
X183750000Y-103887500D03*
%TD*%
D31*
%TO.C,R7*%
X143095000Y-108425000D03*
X145095000Y-108425000D03*
%TD*%
D19*
%TO.C,C46*%
X170925000Y-77875000D03*
D20*
X173425000Y-77875000D03*
%TD*%
D46*
%TO.C,U7*%
X135475000Y-79113413D03*
D47*
X131250000Y-76233413D03*
X131900000Y-76233413D03*
X132550000Y-76233413D03*
X133200000Y-76233413D03*
X133850000Y-76233413D03*
X134500000Y-76233413D03*
X135150000Y-76233413D03*
X135800000Y-76233413D03*
X136450000Y-76233413D03*
X137100000Y-76233413D03*
X137750000Y-76233413D03*
X138400000Y-76233413D03*
X139050000Y-76233413D03*
X139700000Y-76233413D03*
X139700000Y-81993413D03*
X139050000Y-81993413D03*
X138400000Y-81993413D03*
X137750000Y-81993413D03*
X137100000Y-81993413D03*
X136450000Y-81993413D03*
X135800000Y-81993413D03*
X135150000Y-81993413D03*
X134500000Y-81993413D03*
X133850000Y-81993413D03*
X133200000Y-81993413D03*
X132550000Y-81993413D03*
X131900000Y-81993413D03*
X131250000Y-81993413D03*
%TD*%
D32*
%TO.C,C39*%
X192150000Y-78135913D03*
X192150000Y-76060913D03*
%TD*%
D31*
%TO.C,R46*%
X102000000Y-82050000D03*
X104000000Y-82050000D03*
%TD*%
D18*
%TO.C,R20*%
X189387500Y-112700000D03*
X187387500Y-112700000D03*
%TD*%
D53*
%TO.C,J20*%
X178775000Y-69020000D03*
D54*
X176275000Y-69020000D03*
X173775000Y-69020000D03*
X171275000Y-69020000D03*
%TD*%
D53*
%TO.C,J21*%
X164225000Y-69020000D03*
D54*
X161725000Y-69020000D03*
X159225000Y-69020000D03*
X156725000Y-69020000D03*
%TD*%
D31*
%TO.C,R34*%
X158500000Y-97000000D03*
X160500000Y-97000000D03*
%TD*%
D18*
%TO.C,R26*%
X150750000Y-125050000D03*
X148750000Y-125050000D03*
%TD*%
%TO.C,R53*%
X178500000Y-80100000D03*
X176500000Y-80100000D03*
%TD*%
%TO.C,R40*%
X128800000Y-76200000D03*
X126800000Y-76200000D03*
%TD*%
D48*
%TO.C,REF\u002A\u002A*%
X135977600Y-108594800D03*
%TD*%
D18*
%TO.C,R50*%
X153600000Y-76200000D03*
X151600000Y-76200000D03*
%TD*%
D48*
%TO.C,REF\u002A\u002A*%
X200377600Y-135469800D03*
%TD*%
D36*
%TO.C,R5*%
X125200000Y-106600000D03*
X125200000Y-104600000D03*
%TD*%
D32*
%TO.C,C27*%
X142350000Y-78130913D03*
X142350000Y-76055913D03*
%TD*%
D45*
%TO.C,C38*%
X158637500Y-85900000D03*
X156562500Y-85900000D03*
%TD*%
D31*
%TO.C,R13*%
X186150000Y-127800000D03*
X188150000Y-127800000D03*
%TD*%
D32*
%TO.C,C34*%
X164500000Y-86850152D03*
X164500000Y-84775152D03*
%TD*%
D31*
%TO.C,R8*%
X143095000Y-105825000D03*
X145095000Y-105825000D03*
%TD*%
D39*
%TO.C,J8*%
X166721040Y-133744920D03*
D40*
X169221040Y-133744920D03*
%TD*%
D31*
%TO.C,R35*%
X154200000Y-94700000D03*
X156200000Y-94700000D03*
%TD*%
D19*
%TO.C,C32*%
X146117621Y-77868413D03*
D20*
X148617621Y-77868413D03*
%TD*%
D18*
%TO.C,R38*%
X104000000Y-76200000D03*
X102000000Y-76200000D03*
%TD*%
%TO.C,R16*%
X118600000Y-122100000D03*
X116600000Y-122100000D03*
%TD*%
D30*
%TO.C,C2*%
X112000000Y-104862500D03*
X112000000Y-106937500D03*
%TD*%
D29*
%TO.C,C7*%
X168562500Y-111200000D03*
X170637500Y-111200000D03*
%TD*%
D41*
%TO.C,D4*%
X183250000Y-127500000D03*
X182300000Y-125300000D03*
X184200000Y-125300000D03*
%TD*%
D31*
%TO.C,R36*%
X154200000Y-97000000D03*
X156200000Y-97000000D03*
%TD*%
D45*
%TO.C,C36*%
X183537500Y-85900000D03*
X181462500Y-85900000D03*
%TD*%
D16*
%TO.C,JP3*%
X145950000Y-82943413D03*
D17*
X148490000Y-82943413D03*
%TD*%
D47*
%TO.C,U6*%
X106450000Y-82000000D03*
X107100000Y-82000000D03*
X107750000Y-82000000D03*
X108400000Y-82000000D03*
X109050000Y-82000000D03*
X109700000Y-82000000D03*
X110350000Y-82000000D03*
X111000000Y-82000000D03*
X111650000Y-82000000D03*
X112300000Y-82000000D03*
X112950000Y-82000000D03*
X113600000Y-82000000D03*
X114250000Y-82000000D03*
X114900000Y-82000000D03*
X114900000Y-76240000D03*
X114250000Y-76240000D03*
X113600000Y-76240000D03*
X112950000Y-76240000D03*
X112300000Y-76240000D03*
X111650000Y-76240000D03*
X111000000Y-76240000D03*
X110350000Y-76240000D03*
X109700000Y-76240000D03*
X109050000Y-76240000D03*
X108400000Y-76240000D03*
X107750000Y-76240000D03*
X107100000Y-76240000D03*
X106450000Y-76240000D03*
D46*
X110675000Y-79120000D03*
%TD*%
D49*
%TO.C,J15*%
X128805000Y-131100000D03*
D50*
X133805000Y-131100000D03*
%TD*%
D36*
%TO.C,R2*%
X183750000Y-108450000D03*
X183750000Y-106450000D03*
%TD*%
D18*
%TO.C,R33*%
X200650000Y-125100000D03*
X198650000Y-125100000D03*
%TD*%
D36*
%TO.C,R41*%
X105150000Y-86800000D03*
X105150000Y-84800000D03*
%TD*%
D29*
%TO.C,C12*%
X161737500Y-127800000D03*
X159662500Y-127800000D03*
%TD*%
D16*
%TO.C,JP5*%
X170775000Y-82950000D03*
D17*
X173315000Y-82950000D03*
%TD*%
D54*
%TO.C,J5*%
X198520000Y-120005000D03*
X196020000Y-120005000D03*
X193520000Y-120005000D03*
X191020000Y-120005000D03*
D55*
X188520000Y-120005000D03*
%TD*%
D36*
%TO.C,R51*%
X179650000Y-86800000D03*
X179650000Y-84800000D03*
%TD*%
D18*
%TO.C,R48*%
X178500000Y-76200000D03*
X176500000Y-76200000D03*
%TD*%
%TO.C,R39*%
X128800000Y-78150000D03*
X126800000Y-78150000D03*
%TD*%
D32*
%TO.C,C23*%
X137700000Y-86850152D03*
X137700000Y-84775152D03*
%TD*%
D48*
%TO.C,REF\u002A\u002A*%
X122227600Y-70944800D03*
%TD*%
D32*
%TO.C,C9*%
X110700000Y-111387500D03*
X110700000Y-109312500D03*
%TD*%
D53*
%TO.C,J19*%
X150025000Y-69020000D03*
D54*
X147525000Y-69020000D03*
X145025000Y-69020000D03*
X142525000Y-69020000D03*
%TD*%
D53*
%TO.C,J18*%
X135575000Y-69020000D03*
D54*
X133075000Y-69020000D03*
X130575000Y-69020000D03*
X128075000Y-69020000D03*
%TD*%
D32*
%TO.C,C21*%
X112900000Y-86850152D03*
X112900000Y-84775152D03*
%TD*%
D16*
%TO.C,JP1*%
X187100000Y-102775000D03*
D17*
X187100000Y-105315000D03*
%TD*%
D39*
%TO.C,J12*%
X160800000Y-119975000D03*
D40*
X163300000Y-119975000D03*
%TD*%
D37*
%TO.C,R1*%
X192700000Y-96100000D03*
X192700000Y-98100000D03*
%TD*%
M02*
