%FSLAX45Y45*%
G04 Gerber Fmt 4.5, Leading zero omitted, Abs format (unit mm)*
G04 Created by KiCad (PCBNEW (6.0.6)) date 2022-09-20 00:44:44*
%MOMM*%
%LPD*%
G01*
G04 APERTURE LIST*
%TA.AperFunction,Profile*%
%ADD10C,0.025400*%
%TD*%
%ADD11C,0.200000*%
%ADD12C,0.060960*%
%ADD13C,0.360000*%
G04 APERTURE END LIST*
D10*
X9765000Y-6300520D02*
X9765000Y-13810000D01*
X20295260Y-6300000D02*
X9765000Y-6300520D01*
X20295260Y-13809480D02*
X20295260Y-6300000D01*
X9765000Y-13810000D02*
X20295260Y-13809480D01*
D11*
D12*
X19504830Y-8895520D02*
X19565790Y-8956480D01*
X19565790Y-8895520D02*
X19504830Y-8956480D01*
X19504830Y-9759520D02*
X19565790Y-9820480D01*
X19565790Y-9759520D02*
X19504830Y-9820480D01*
X19614050Y-8895520D02*
X19675010Y-8956480D01*
X19675010Y-8895520D02*
X19614050Y-8956480D01*
X19614050Y-9759520D02*
X19675010Y-9820480D01*
X19675010Y-9759520D02*
X19614050Y-9820480D01*
X19938070Y-8895520D02*
X19999030Y-8956480D01*
X19999030Y-8895520D02*
X19938070Y-8956480D01*
X19938070Y-9759520D02*
X19999030Y-9820480D01*
X19999030Y-9759520D02*
X19938070Y-9820480D01*
X20016810Y-8895520D02*
X20077770Y-8956480D01*
X20077770Y-8895520D02*
X20016810Y-8956480D01*
X20016810Y-9759520D02*
X20077770Y-9820480D01*
X20077770Y-9759520D02*
X20016810Y-9820480D01*
D13*
X10650260Y-10599480D02*
G75*
G03*
X10650260Y-10599480I-180000J0D01*
G01*
X12402760Y-7094480D02*
G75*
G03*
X12402760Y-7094480I-180000J0D01*
G01*
X13777760Y-10859480D02*
G75*
G03*
X13777760Y-10859480I-180000J0D01*
G01*
X18647760Y-7094480D02*
G75*
G03*
X18647760Y-7094480I-180000J0D01*
G01*
X20217760Y-13546980D02*
G75*
G03*
X20217760Y-13546980I-180000J0D01*
G01*
D11*
X10021349Y-14121746D02*
X10021349Y-13921746D01*
X10068968Y-13921746D01*
X10097540Y-13931270D01*
X10116587Y-13950318D01*
X10126111Y-13969365D01*
X10135635Y-14007460D01*
X10135635Y-14036032D01*
X10126111Y-14074127D01*
X10116587Y-14093175D01*
X10097540Y-14112222D01*
X10068968Y-14121746D01*
X10021349Y-14121746D01*
X10221349Y-14121746D02*
X10221349Y-13988413D01*
X10221349Y-14026508D02*
X10230873Y-14007460D01*
X10240397Y-13997937D01*
X10259444Y-13988413D01*
X10278492Y-13988413D01*
X10345159Y-14121746D02*
X10345159Y-13988413D01*
X10345159Y-13921746D02*
X10335635Y-13931270D01*
X10345159Y-13940794D01*
X10354682Y-13931270D01*
X10345159Y-13921746D01*
X10345159Y-13940794D01*
X10468968Y-14121746D02*
X10449920Y-14112222D01*
X10440397Y-14093175D01*
X10440397Y-13921746D01*
X10573730Y-14121746D02*
X10554682Y-14112222D01*
X10545159Y-14093175D01*
X10545159Y-13921746D01*
X10802301Y-14121746D02*
X10802301Y-13921746D01*
X10868968Y-14064603D01*
X10935635Y-13921746D01*
X10935635Y-14121746D01*
X11116587Y-14121746D02*
X11116587Y-14016984D01*
X11107063Y-13997937D01*
X11088016Y-13988413D01*
X11049920Y-13988413D01*
X11030873Y-13997937D01*
X11116587Y-14112222D02*
X11097540Y-14121746D01*
X11049920Y-14121746D01*
X11030873Y-14112222D01*
X11021349Y-14093175D01*
X11021349Y-14074127D01*
X11030873Y-14055079D01*
X11049920Y-14045556D01*
X11097540Y-14045556D01*
X11116587Y-14036032D01*
X11211825Y-13988413D02*
X11211825Y-14188413D01*
X11211825Y-13997937D02*
X11230873Y-13988413D01*
X11268968Y-13988413D01*
X11288016Y-13997937D01*
X11297539Y-14007460D01*
X11307063Y-14026508D01*
X11307063Y-14083651D01*
X11297539Y-14102698D01*
X11288016Y-14112222D01*
X11268968Y-14121746D01*
X11230873Y-14121746D01*
X11211825Y-14112222D01*
X11392778Y-14102698D02*
X11402301Y-14112222D01*
X11392778Y-14121746D01*
X11383254Y-14112222D01*
X11392778Y-14102698D01*
X11392778Y-14121746D01*
X11392778Y-13997937D02*
X11402301Y-14007460D01*
X11392778Y-14016984D01*
X11383254Y-14007460D01*
X11392778Y-13997937D01*
X11392778Y-14016984D01*
D12*
X9702770Y-14420790D02*
X9763730Y-14481750D01*
X9763730Y-14420790D02*
X9702770Y-14481750D01*
D11*
X10059444Y-14341746D02*
X10078492Y-14341746D01*
X10097540Y-14351270D01*
X10107063Y-14360794D01*
X10116587Y-14379841D01*
X10126111Y-14417937D01*
X10126111Y-14465556D01*
X10116587Y-14503651D01*
X10107063Y-14522698D01*
X10097540Y-14532222D01*
X10078492Y-14541746D01*
X10059444Y-14541746D01*
X10040397Y-14532222D01*
X10030873Y-14522698D01*
X10021349Y-14503651D01*
X10011825Y-14465556D01*
X10011825Y-14417937D01*
X10021349Y-14379841D01*
X10030873Y-14360794D01*
X10040397Y-14351270D01*
X10059444Y-14341746D01*
X10211825Y-14522698D02*
X10221349Y-14532222D01*
X10211825Y-14541746D01*
X10202301Y-14532222D01*
X10211825Y-14522698D01*
X10211825Y-14541746D01*
X10392778Y-14341746D02*
X10354682Y-14341746D01*
X10335635Y-14351270D01*
X10326111Y-14360794D01*
X10307063Y-14389365D01*
X10297540Y-14427460D01*
X10297540Y-14503651D01*
X10307063Y-14522698D01*
X10316587Y-14532222D01*
X10335635Y-14541746D01*
X10373730Y-14541746D01*
X10392778Y-14532222D01*
X10402301Y-14522698D01*
X10411825Y-14503651D01*
X10411825Y-14456032D01*
X10402301Y-14436984D01*
X10392778Y-14427460D01*
X10373730Y-14417937D01*
X10335635Y-14417937D01*
X10316587Y-14427460D01*
X10307063Y-14436984D01*
X10297540Y-14456032D01*
X10602301Y-14541746D02*
X10488016Y-14541746D01*
X10545159Y-14541746D02*
X10545159Y-14341746D01*
X10526111Y-14370318D01*
X10507063Y-14389365D01*
X10488016Y-14398889D01*
X10726111Y-14341746D02*
X10745159Y-14341746D01*
X10764206Y-14351270D01*
X10773730Y-14360794D01*
X10783254Y-14379841D01*
X10792778Y-14417937D01*
X10792778Y-14465556D01*
X10783254Y-14503651D01*
X10773730Y-14522698D01*
X10764206Y-14532222D01*
X10745159Y-14541746D01*
X10726111Y-14541746D01*
X10707063Y-14532222D01*
X10697540Y-14522698D01*
X10688016Y-14503651D01*
X10678492Y-14465556D01*
X10678492Y-14417937D01*
X10688016Y-14379841D01*
X10697540Y-14360794D01*
X10707063Y-14351270D01*
X10726111Y-14341746D01*
X10878492Y-14541746D02*
X10878492Y-14408413D01*
X10878492Y-14427460D02*
X10888016Y-14417937D01*
X10907063Y-14408413D01*
X10935635Y-14408413D01*
X10954682Y-14417937D01*
X10964206Y-14436984D01*
X10964206Y-14541746D01*
X10964206Y-14436984D02*
X10973730Y-14417937D01*
X10992778Y-14408413D01*
X11021349Y-14408413D01*
X11040397Y-14417937D01*
X11049920Y-14436984D01*
X11049920Y-14541746D01*
X11145159Y-14541746D02*
X11145159Y-14408413D01*
X11145159Y-14427460D02*
X11154682Y-14417937D01*
X11173730Y-14408413D01*
X11202301Y-14408413D01*
X11221349Y-14417937D01*
X11230873Y-14436984D01*
X11230873Y-14541746D01*
X11230873Y-14436984D02*
X11240397Y-14417937D01*
X11259444Y-14408413D01*
X11288016Y-14408413D01*
X11307063Y-14417937D01*
X11316587Y-14436984D01*
X11316587Y-14541746D01*
X11707063Y-14332222D02*
X11535635Y-14589365D01*
X11964206Y-14341746D02*
X11983254Y-14341746D01*
X12002301Y-14351270D01*
X12011825Y-14360794D01*
X12021349Y-14379841D01*
X12030873Y-14417937D01*
X12030873Y-14465556D01*
X12021349Y-14503651D01*
X12011825Y-14522698D01*
X12002301Y-14532222D01*
X11983254Y-14541746D01*
X11964206Y-14541746D01*
X11945158Y-14532222D01*
X11935635Y-14522698D01*
X11926111Y-14503651D01*
X11916587Y-14465556D01*
X11916587Y-14417937D01*
X11926111Y-14379841D01*
X11935635Y-14360794D01*
X11945158Y-14351270D01*
X11964206Y-14341746D01*
X12116587Y-14522698D02*
X12126111Y-14532222D01*
X12116587Y-14541746D01*
X12107063Y-14532222D01*
X12116587Y-14522698D01*
X12116587Y-14541746D01*
X12249920Y-14341746D02*
X12268968Y-14341746D01*
X12288016Y-14351270D01*
X12297539Y-14360794D01*
X12307063Y-14379841D01*
X12316587Y-14417937D01*
X12316587Y-14465556D01*
X12307063Y-14503651D01*
X12297539Y-14522698D01*
X12288016Y-14532222D01*
X12268968Y-14541746D01*
X12249920Y-14541746D01*
X12230873Y-14532222D01*
X12221349Y-14522698D01*
X12211825Y-14503651D01*
X12202301Y-14465556D01*
X12202301Y-14417937D01*
X12211825Y-14379841D01*
X12221349Y-14360794D01*
X12230873Y-14351270D01*
X12249920Y-14341746D01*
X12392778Y-14360794D02*
X12402301Y-14351270D01*
X12421349Y-14341746D01*
X12468968Y-14341746D01*
X12488016Y-14351270D01*
X12497539Y-14360794D01*
X12507063Y-14379841D01*
X12507063Y-14398889D01*
X12497539Y-14427460D01*
X12383254Y-14541746D01*
X12507063Y-14541746D01*
X12678492Y-14408413D02*
X12678492Y-14541746D01*
X12630873Y-14332222D02*
X12583254Y-14475079D01*
X12707063Y-14475079D01*
X12821349Y-14341746D02*
X12840397Y-14341746D01*
X12859444Y-14351270D01*
X12868968Y-14360794D01*
X12878492Y-14379841D01*
X12888016Y-14417937D01*
X12888016Y-14465556D01*
X12878492Y-14503651D01*
X12868968Y-14522698D01*
X12859444Y-14532222D01*
X12840397Y-14541746D01*
X12821349Y-14541746D01*
X12802301Y-14532222D01*
X12792778Y-14522698D01*
X12783254Y-14503651D01*
X12773730Y-14465556D01*
X12773730Y-14417937D01*
X12783254Y-14379841D01*
X12792778Y-14360794D01*
X12802301Y-14351270D01*
X12821349Y-14341746D01*
X12964206Y-14341746D02*
X12964206Y-14379841D01*
X13040397Y-14341746D02*
X13040397Y-14379841D01*
X13335635Y-14617937D02*
X13326111Y-14608413D01*
X13307063Y-14579841D01*
X13297539Y-14560794D01*
X13288016Y-14532222D01*
X13278492Y-14484603D01*
X13278492Y-14446508D01*
X13288016Y-14398889D01*
X13297539Y-14370318D01*
X13307063Y-14351270D01*
X13326111Y-14322698D01*
X13335635Y-14313175D01*
X13440397Y-14427460D02*
X13421349Y-14417937D01*
X13411825Y-14408413D01*
X13402301Y-14389365D01*
X13402301Y-14379841D01*
X13411825Y-14360794D01*
X13421349Y-14351270D01*
X13440397Y-14341746D01*
X13478492Y-14341746D01*
X13497539Y-14351270D01*
X13507063Y-14360794D01*
X13516587Y-14379841D01*
X13516587Y-14389365D01*
X13507063Y-14408413D01*
X13497539Y-14417937D01*
X13478492Y-14427460D01*
X13440397Y-14427460D01*
X13421349Y-14436984D01*
X13411825Y-14446508D01*
X13402301Y-14465556D01*
X13402301Y-14503651D01*
X13411825Y-14522698D01*
X13421349Y-14532222D01*
X13440397Y-14541746D01*
X13478492Y-14541746D01*
X13497539Y-14532222D01*
X13507063Y-14522698D01*
X13516587Y-14503651D01*
X13516587Y-14465556D01*
X13507063Y-14446508D01*
X13497539Y-14436984D01*
X13478492Y-14427460D01*
X13754682Y-14541746D02*
X13754682Y-14341746D01*
X13840397Y-14541746D02*
X13840397Y-14436984D01*
X13830873Y-14417937D01*
X13811825Y-14408413D01*
X13783254Y-14408413D01*
X13764206Y-14417937D01*
X13754682Y-14427460D01*
X13964206Y-14541746D02*
X13945158Y-14532222D01*
X13935635Y-14522698D01*
X13926111Y-14503651D01*
X13926111Y-14446508D01*
X13935635Y-14427460D01*
X13945158Y-14417937D01*
X13964206Y-14408413D01*
X13992778Y-14408413D01*
X14011825Y-14417937D01*
X14021349Y-14427460D01*
X14030873Y-14446508D01*
X14030873Y-14503651D01*
X14021349Y-14522698D01*
X14011825Y-14532222D01*
X13992778Y-14541746D01*
X13964206Y-14541746D01*
X14145158Y-14541746D02*
X14126111Y-14532222D01*
X14116587Y-14513175D01*
X14116587Y-14341746D01*
X14297539Y-14532222D02*
X14278492Y-14541746D01*
X14240397Y-14541746D01*
X14221349Y-14532222D01*
X14211825Y-14513175D01*
X14211825Y-14436984D01*
X14221349Y-14417937D01*
X14240397Y-14408413D01*
X14278492Y-14408413D01*
X14297539Y-14417937D01*
X14307063Y-14436984D01*
X14307063Y-14456032D01*
X14211825Y-14475079D01*
X14383254Y-14532222D02*
X14402301Y-14541746D01*
X14440397Y-14541746D01*
X14459444Y-14532222D01*
X14468968Y-14513175D01*
X14468968Y-14503651D01*
X14459444Y-14484603D01*
X14440397Y-14475079D01*
X14411825Y-14475079D01*
X14392778Y-14465556D01*
X14383254Y-14446508D01*
X14383254Y-14436984D01*
X14392778Y-14417937D01*
X14411825Y-14408413D01*
X14440397Y-14408413D01*
X14459444Y-14417937D01*
X14535635Y-14617937D02*
X14545158Y-14608413D01*
X14564206Y-14579841D01*
X14573730Y-14560794D01*
X14583254Y-14532222D01*
X14592778Y-14484603D01*
X14592778Y-14446508D01*
X14583254Y-14398889D01*
X14573730Y-14370318D01*
X14564206Y-14351270D01*
X14545158Y-14322698D01*
X14535635Y-14313175D01*
X14897539Y-14617937D02*
X14888016Y-14608413D01*
X14868968Y-14579841D01*
X14859444Y-14560794D01*
X14849920Y-14532222D01*
X14840397Y-14484603D01*
X14840397Y-14446508D01*
X14849920Y-14398889D01*
X14859444Y-14370318D01*
X14868968Y-14351270D01*
X14888016Y-14322698D01*
X14897539Y-14313175D01*
X14973730Y-14408413D02*
X14973730Y-14541746D01*
X14973730Y-14427460D02*
X14983254Y-14417937D01*
X15002301Y-14408413D01*
X15030873Y-14408413D01*
X15049920Y-14417937D01*
X15059444Y-14436984D01*
X15059444Y-14541746D01*
X15183254Y-14541746D02*
X15164206Y-14532222D01*
X15154682Y-14522698D01*
X15145158Y-14503651D01*
X15145158Y-14446508D01*
X15154682Y-14427460D01*
X15164206Y-14417937D01*
X15183254Y-14408413D01*
X15211825Y-14408413D01*
X15230873Y-14417937D01*
X15240397Y-14427460D01*
X15249920Y-14446508D01*
X15249920Y-14503651D01*
X15240397Y-14522698D01*
X15230873Y-14532222D01*
X15211825Y-14541746D01*
X15183254Y-14541746D01*
X15307063Y-14408413D02*
X15383254Y-14408413D01*
X15335635Y-14341746D02*
X15335635Y-14513175D01*
X15345158Y-14532222D01*
X15364206Y-14541746D01*
X15383254Y-14541746D01*
X15602301Y-14408413D02*
X15602301Y-14608413D01*
X15602301Y-14417937D02*
X15621349Y-14408413D01*
X15659444Y-14408413D01*
X15678492Y-14417937D01*
X15688016Y-14427460D01*
X15697539Y-14446508D01*
X15697539Y-14503651D01*
X15688016Y-14522698D01*
X15678492Y-14532222D01*
X15659444Y-14541746D01*
X15621349Y-14541746D01*
X15602301Y-14532222D01*
X15811825Y-14541746D02*
X15792778Y-14532222D01*
X15783254Y-14513175D01*
X15783254Y-14341746D01*
X15973730Y-14541746D02*
X15973730Y-14436984D01*
X15964206Y-14417937D01*
X15945158Y-14408413D01*
X15907063Y-14408413D01*
X15888016Y-14417937D01*
X15973730Y-14532222D02*
X15954682Y-14541746D01*
X15907063Y-14541746D01*
X15888016Y-14532222D01*
X15878492Y-14513175D01*
X15878492Y-14494127D01*
X15888016Y-14475079D01*
X15907063Y-14465556D01*
X15954682Y-14465556D01*
X15973730Y-14456032D01*
X16040397Y-14408413D02*
X16116587Y-14408413D01*
X16068968Y-14341746D02*
X16068968Y-14513175D01*
X16078492Y-14532222D01*
X16097539Y-14541746D01*
X16116587Y-14541746D01*
X16259444Y-14532222D02*
X16240397Y-14541746D01*
X16202301Y-14541746D01*
X16183254Y-14532222D01*
X16173730Y-14513175D01*
X16173730Y-14436984D01*
X16183254Y-14417937D01*
X16202301Y-14408413D01*
X16240397Y-14408413D01*
X16259444Y-14417937D01*
X16268968Y-14436984D01*
X16268968Y-14456032D01*
X16173730Y-14475079D01*
X16440397Y-14541746D02*
X16440397Y-14341746D01*
X16440397Y-14532222D02*
X16421349Y-14541746D01*
X16383254Y-14541746D01*
X16364206Y-14532222D01*
X16354682Y-14522698D01*
X16345158Y-14503651D01*
X16345158Y-14446508D01*
X16354682Y-14427460D01*
X16364206Y-14417937D01*
X16383254Y-14408413D01*
X16421349Y-14408413D01*
X16440397Y-14417937D01*
X16516587Y-14617937D02*
X16526111Y-14608413D01*
X16545158Y-14579841D01*
X16554682Y-14560794D01*
X16564206Y-14532222D01*
X16573730Y-14484603D01*
X16573730Y-14446508D01*
X16564206Y-14398889D01*
X16554682Y-14370318D01*
X16545158Y-14351270D01*
X16526111Y-14322698D01*
X16516587Y-14313175D01*
X9763730Y-14715270D02*
G75*
G03*
X9763730Y-14715270I-100000J0D01*
G01*
X10002301Y-14605746D02*
X10126111Y-14605746D01*
X10059444Y-14681937D01*
X10088016Y-14681937D01*
X10107063Y-14691460D01*
X10116587Y-14700984D01*
X10126111Y-14720032D01*
X10126111Y-14767651D01*
X10116587Y-14786698D01*
X10107063Y-14796222D01*
X10088016Y-14805746D01*
X10030873Y-14805746D01*
X10011825Y-14796222D01*
X10002301Y-14786698D01*
X10211825Y-14786698D02*
X10221349Y-14796222D01*
X10211825Y-14805746D01*
X10202301Y-14796222D01*
X10211825Y-14786698D01*
X10211825Y-14805746D01*
X10392778Y-14605746D02*
X10354682Y-14605746D01*
X10335635Y-14615270D01*
X10326111Y-14624794D01*
X10307063Y-14653365D01*
X10297540Y-14691460D01*
X10297540Y-14767651D01*
X10307063Y-14786698D01*
X10316587Y-14796222D01*
X10335635Y-14805746D01*
X10373730Y-14805746D01*
X10392778Y-14796222D01*
X10402301Y-14786698D01*
X10411825Y-14767651D01*
X10411825Y-14720032D01*
X10402301Y-14700984D01*
X10392778Y-14691460D01*
X10373730Y-14681937D01*
X10335635Y-14681937D01*
X10316587Y-14691460D01*
X10307063Y-14700984D01*
X10297540Y-14720032D01*
X10535635Y-14605746D02*
X10554682Y-14605746D01*
X10573730Y-14615270D01*
X10583254Y-14624794D01*
X10592778Y-14643841D01*
X10602301Y-14681937D01*
X10602301Y-14729556D01*
X10592778Y-14767651D01*
X10583254Y-14786698D01*
X10573730Y-14796222D01*
X10554682Y-14805746D01*
X10535635Y-14805746D01*
X10516587Y-14796222D01*
X10507063Y-14786698D01*
X10497540Y-14767651D01*
X10488016Y-14729556D01*
X10488016Y-14681937D01*
X10497540Y-14643841D01*
X10507063Y-14624794D01*
X10516587Y-14615270D01*
X10535635Y-14605746D01*
X10726111Y-14605746D02*
X10745159Y-14605746D01*
X10764206Y-14615270D01*
X10773730Y-14624794D01*
X10783254Y-14643841D01*
X10792778Y-14681937D01*
X10792778Y-14729556D01*
X10783254Y-14767651D01*
X10773730Y-14786698D01*
X10764206Y-14796222D01*
X10745159Y-14805746D01*
X10726111Y-14805746D01*
X10707063Y-14796222D01*
X10697540Y-14786698D01*
X10688016Y-14767651D01*
X10678492Y-14729556D01*
X10678492Y-14681937D01*
X10688016Y-14643841D01*
X10697540Y-14624794D01*
X10707063Y-14615270D01*
X10726111Y-14605746D01*
X10878492Y-14805746D02*
X10878492Y-14672413D01*
X10878492Y-14691460D02*
X10888016Y-14681937D01*
X10907063Y-14672413D01*
X10935635Y-14672413D01*
X10954682Y-14681937D01*
X10964206Y-14700984D01*
X10964206Y-14805746D01*
X10964206Y-14700984D02*
X10973730Y-14681937D01*
X10992778Y-14672413D01*
X11021349Y-14672413D01*
X11040397Y-14681937D01*
X11049920Y-14700984D01*
X11049920Y-14805746D01*
X11145159Y-14805746D02*
X11145159Y-14672413D01*
X11145159Y-14691460D02*
X11154682Y-14681937D01*
X11173730Y-14672413D01*
X11202301Y-14672413D01*
X11221349Y-14681937D01*
X11230873Y-14700984D01*
X11230873Y-14805746D01*
X11230873Y-14700984D02*
X11240397Y-14681937D01*
X11259444Y-14672413D01*
X11288016Y-14672413D01*
X11307063Y-14681937D01*
X11316587Y-14700984D01*
X11316587Y-14805746D01*
X11707063Y-14596222D02*
X11535635Y-14853365D01*
X11964206Y-14605746D02*
X11983254Y-14605746D01*
X12002301Y-14615270D01*
X12011825Y-14624794D01*
X12021349Y-14643841D01*
X12030873Y-14681937D01*
X12030873Y-14729556D01*
X12021349Y-14767651D01*
X12011825Y-14786698D01*
X12002301Y-14796222D01*
X11983254Y-14805746D01*
X11964206Y-14805746D01*
X11945158Y-14796222D01*
X11935635Y-14786698D01*
X11926111Y-14767651D01*
X11916587Y-14729556D01*
X11916587Y-14681937D01*
X11926111Y-14643841D01*
X11935635Y-14624794D01*
X11945158Y-14615270D01*
X11964206Y-14605746D01*
X12116587Y-14786698D02*
X12126111Y-14796222D01*
X12116587Y-14805746D01*
X12107063Y-14796222D01*
X12116587Y-14786698D01*
X12116587Y-14805746D01*
X12316587Y-14805746D02*
X12202301Y-14805746D01*
X12259444Y-14805746D02*
X12259444Y-14605746D01*
X12240397Y-14634318D01*
X12221349Y-14653365D01*
X12202301Y-14662889D01*
X12488016Y-14672413D02*
X12488016Y-14805746D01*
X12440397Y-14596222D02*
X12392778Y-14739079D01*
X12516587Y-14739079D01*
X12697539Y-14805746D02*
X12583254Y-14805746D01*
X12640397Y-14805746D02*
X12640397Y-14605746D01*
X12621349Y-14634318D01*
X12602301Y-14653365D01*
X12583254Y-14662889D01*
X12764206Y-14605746D02*
X12897539Y-14605746D01*
X12811825Y-14805746D01*
X12964206Y-14605746D02*
X12964206Y-14643841D01*
X13040397Y-14605746D02*
X13040397Y-14643841D01*
X13335635Y-14881937D02*
X13326111Y-14872413D01*
X13307063Y-14843841D01*
X13297539Y-14824794D01*
X13288016Y-14796222D01*
X13278492Y-14748603D01*
X13278492Y-14710508D01*
X13288016Y-14662889D01*
X13297539Y-14634318D01*
X13307063Y-14615270D01*
X13326111Y-14586698D01*
X13335635Y-14577175D01*
X13507063Y-14605746D02*
X13411825Y-14605746D01*
X13402301Y-14700984D01*
X13411825Y-14691460D01*
X13430873Y-14681937D01*
X13478492Y-14681937D01*
X13497539Y-14691460D01*
X13507063Y-14700984D01*
X13516587Y-14720032D01*
X13516587Y-14767651D01*
X13507063Y-14786698D01*
X13497539Y-14796222D01*
X13478492Y-14805746D01*
X13430873Y-14805746D01*
X13411825Y-14796222D01*
X13402301Y-14786698D01*
X13754682Y-14805746D02*
X13754682Y-14605746D01*
X13840397Y-14805746D02*
X13840397Y-14700984D01*
X13830873Y-14681937D01*
X13811825Y-14672413D01*
X13783254Y-14672413D01*
X13764206Y-14681937D01*
X13754682Y-14691460D01*
X13964206Y-14805746D02*
X13945158Y-14796222D01*
X13935635Y-14786698D01*
X13926111Y-14767651D01*
X13926111Y-14710508D01*
X13935635Y-14691460D01*
X13945158Y-14681937D01*
X13964206Y-14672413D01*
X13992778Y-14672413D01*
X14011825Y-14681937D01*
X14021349Y-14691460D01*
X14030873Y-14710508D01*
X14030873Y-14767651D01*
X14021349Y-14786698D01*
X14011825Y-14796222D01*
X13992778Y-14805746D01*
X13964206Y-14805746D01*
X14145158Y-14805746D02*
X14126111Y-14796222D01*
X14116587Y-14777175D01*
X14116587Y-14605746D01*
X14297539Y-14796222D02*
X14278492Y-14805746D01*
X14240397Y-14805746D01*
X14221349Y-14796222D01*
X14211825Y-14777175D01*
X14211825Y-14700984D01*
X14221349Y-14681937D01*
X14240397Y-14672413D01*
X14278492Y-14672413D01*
X14297539Y-14681937D01*
X14307063Y-14700984D01*
X14307063Y-14720032D01*
X14211825Y-14739079D01*
X14383254Y-14796222D02*
X14402301Y-14805746D01*
X14440397Y-14805746D01*
X14459444Y-14796222D01*
X14468968Y-14777175D01*
X14468968Y-14767651D01*
X14459444Y-14748603D01*
X14440397Y-14739079D01*
X14411825Y-14739079D01*
X14392778Y-14729556D01*
X14383254Y-14710508D01*
X14383254Y-14700984D01*
X14392778Y-14681937D01*
X14411825Y-14672413D01*
X14440397Y-14672413D01*
X14459444Y-14681937D01*
X14535635Y-14881937D02*
X14545158Y-14872413D01*
X14564206Y-14843841D01*
X14573730Y-14824794D01*
X14583254Y-14796222D01*
X14592778Y-14748603D01*
X14592778Y-14710508D01*
X14583254Y-14662889D01*
X14573730Y-14634318D01*
X14564206Y-14615270D01*
X14545158Y-14586698D01*
X14535635Y-14577175D01*
X14897539Y-14881937D02*
X14888016Y-14872413D01*
X14868968Y-14843841D01*
X14859444Y-14824794D01*
X14849920Y-14796222D01*
X14840397Y-14748603D01*
X14840397Y-14710508D01*
X14849920Y-14662889D01*
X14859444Y-14634318D01*
X14868968Y-14615270D01*
X14888016Y-14586698D01*
X14897539Y-14577175D01*
X14973730Y-14672413D02*
X14973730Y-14805746D01*
X14973730Y-14691460D02*
X14983254Y-14681937D01*
X15002301Y-14672413D01*
X15030873Y-14672413D01*
X15049920Y-14681937D01*
X15059444Y-14700984D01*
X15059444Y-14805746D01*
X15183254Y-14805746D02*
X15164206Y-14796222D01*
X15154682Y-14786698D01*
X15145158Y-14767651D01*
X15145158Y-14710508D01*
X15154682Y-14691460D01*
X15164206Y-14681937D01*
X15183254Y-14672413D01*
X15211825Y-14672413D01*
X15230873Y-14681937D01*
X15240397Y-14691460D01*
X15249920Y-14710508D01*
X15249920Y-14767651D01*
X15240397Y-14786698D01*
X15230873Y-14796222D01*
X15211825Y-14805746D01*
X15183254Y-14805746D01*
X15307063Y-14672413D02*
X15383254Y-14672413D01*
X15335635Y-14605746D02*
X15335635Y-14777175D01*
X15345158Y-14796222D01*
X15364206Y-14805746D01*
X15383254Y-14805746D01*
X15602301Y-14672413D02*
X15602301Y-14872413D01*
X15602301Y-14681937D02*
X15621349Y-14672413D01*
X15659444Y-14672413D01*
X15678492Y-14681937D01*
X15688016Y-14691460D01*
X15697539Y-14710508D01*
X15697539Y-14767651D01*
X15688016Y-14786698D01*
X15678492Y-14796222D01*
X15659444Y-14805746D01*
X15621349Y-14805746D01*
X15602301Y-14796222D01*
X15811825Y-14805746D02*
X15792778Y-14796222D01*
X15783254Y-14777175D01*
X15783254Y-14605746D01*
X15973730Y-14805746D02*
X15973730Y-14700984D01*
X15964206Y-14681937D01*
X15945158Y-14672413D01*
X15907063Y-14672413D01*
X15888016Y-14681937D01*
X15973730Y-14796222D02*
X15954682Y-14805746D01*
X15907063Y-14805746D01*
X15888016Y-14796222D01*
X15878492Y-14777175D01*
X15878492Y-14758127D01*
X15888016Y-14739079D01*
X15907063Y-14729556D01*
X15954682Y-14729556D01*
X15973730Y-14720032D01*
X16040397Y-14672413D02*
X16116587Y-14672413D01*
X16068968Y-14605746D02*
X16068968Y-14777175D01*
X16078492Y-14796222D01*
X16097539Y-14805746D01*
X16116587Y-14805746D01*
X16259444Y-14796222D02*
X16240397Y-14805746D01*
X16202301Y-14805746D01*
X16183254Y-14796222D01*
X16173730Y-14777175D01*
X16173730Y-14700984D01*
X16183254Y-14681937D01*
X16202301Y-14672413D01*
X16240397Y-14672413D01*
X16259444Y-14681937D01*
X16268968Y-14700984D01*
X16268968Y-14720032D01*
X16173730Y-14739079D01*
X16440397Y-14805746D02*
X16440397Y-14605746D01*
X16440397Y-14796222D02*
X16421349Y-14805746D01*
X16383254Y-14805746D01*
X16364206Y-14796222D01*
X16354682Y-14786698D01*
X16345158Y-14767651D01*
X16345158Y-14710508D01*
X16354682Y-14691460D01*
X16364206Y-14681937D01*
X16383254Y-14672413D01*
X16421349Y-14672413D01*
X16440397Y-14681937D01*
X16516587Y-14881937D02*
X16526111Y-14872413D01*
X16545158Y-14843841D01*
X16554682Y-14824794D01*
X16564206Y-14796222D01*
X16573730Y-14748603D01*
X16573730Y-14710508D01*
X16564206Y-14662889D01*
X16554682Y-14634318D01*
X16545158Y-14615270D01*
X16526111Y-14586698D01*
X16516587Y-14577175D01*
M02*
